<svg xmlns="http://www.w3.org/2000/svg" width="3072" height="80" viewBox="0 0 3072 80" preserveAspectRatio="none">
<metadata>
  <rdf:RDF xmlns:rdf="http://www.w3.org/1999/02/22-rdf-syntax-ns#"
           xmlns:dc="http://purl.org/dc/elements/1.1/">
    <rdf:Description rdf:about="">
      <dc:title>F stands for liFe</dc:title>
      <dc:creator>F stands for liFe</dc:creator>
      <dc:rights>Copyright (c) 2021 F stands for liFe. All rights reserved.</dc:rights>
    </rdf:Description>
  </rdf:RDF>
</metadata>
  <rect x="0" y="0" width="12" height="80" fill="#25131F"/>
  <rect x="12" y="0" width="12" height="80" fill="#231320"/>
  <rect x="24" y="0" width="12" height="80" fill="#1A191E"/>
  <rect x="36" y="0" width="12" height="80" fill="#0D182A"/>
  <rect x="48" y="0" width="12" height="80" fill="#0F1C2D"/>
  <rect x="60" y="0" width="12" height="80" fill="#101D2D"/>
  <rect x="72" y="0" width="12" height="80" fill="#111E2E"/>
  <rect x="84" y="0" width="12" height="80" fill="#122136"/>
  <rect x="96" y="0" width="12" height="80" fill="#101D2E"/>
  <rect x="108" y="0" width="12" height="80" fill="#0C172D"/>
  <rect x="120" y="0" width="12" height="80" fill="#130F2A"/>
  <rect x="132" y="0" width="12" height="80" fill="#010206"/>
  <rect x="144" y="0" width="12" height="80" fill="#050000"/>
  <rect x="156" y="0" width="12" height="80" fill="#17161E"/>
  <rect x="168" y="0" width="12" height="80" fill="#161622"/>
  <rect x="180" y="0" width="12" height="80" fill="#1C271F"/>
  <rect x="192" y="0" width="12" height="80" fill="#212821"/>
  <rect x="204" y="0" width="12" height="80" fill="#202F28"/>
  <rect x="216" y="0" width="12" height="80" fill="#333424"/>
  <rect x="228" y="0" width="12" height="80" fill="#774433"/>
  <rect x="240" y="0" width="12" height="80" fill="#CC4339"/>
  <rect x="252" y="0" width="12" height="80" fill="#F46B4B"/>
  <rect x="264" y="0" width="12" height="80" fill="#D9935F"/>
  <rect x="276" y="0" width="12" height="80" fill="#DCC08E"/>
  <rect x="288" y="0" width="12" height="80" fill="#DED6A8"/>
  <rect x="300" y="0" width="12" height="80" fill="#EFEAC2"/>
  <rect x="312" y="0" width="12" height="80" fill="#F9E7C3"/>
  <rect x="324" y="0" width="12" height="80" fill="#FBEBAD"/>
  <rect x="336" y="0" width="12" height="80" fill="#E5CA9D"/>
  <rect x="348" y="0" width="12" height="80" fill="#E5A47A"/>
  <rect x="360" y="0" width="12" height="80" fill="#FF7862"/>
  <rect x="372" y="0" width="12" height="80" fill="#F4644A"/>
  <rect x="384" y="0" width="12" height="80" fill="#D54638"/>
  <rect x="396" y="0" width="12" height="80" fill="#B0362B"/>
  <rect x="408" y="0" width="12" height="80" fill="#82442F"/>
  <rect x="420" y="0" width="12" height="80" fill="#614A44"/>
  <rect x="432" y="0" width="12" height="80" fill="#585F4D"/>
  <rect x="444" y="0" width="12" height="80" fill="#585E50"/>
  <rect x="456" y="0" width="12" height="80" fill="#574C46"/>
  <rect x="468" y="0" width="12" height="80" fill="#454D3E"/>
  <rect x="480" y="0" width="12" height="80" fill="#403A44"/>
  <rect x="492" y="0" width="12" height="80" fill="#373830"/>
  <rect x="504" y="0" width="12" height="80" fill="#302D24"/>
  <rect x="516" y="0" width="12" height="80" fill="#2A1D26"/>
  <rect x="528" y="0" width="12" height="80" fill="#241325"/>
  <rect x="540" y="0" width="12" height="80" fill="#1D0D1A"/>
  <rect x="552" y="0" width="12" height="80" fill="#1F111E"/>
  <rect x="564" y="0" width="12" height="80" fill="#1B162C"/>
  <rect x="576" y="0" width="12" height="80" fill="#212A31"/>
  <rect x="588" y="0" width="12" height="80" fill="#303D43"/>
  <rect x="600" y="0" width="12" height="80" fill="#403847"/>
  <rect x="612" y="0" width="12" height="80" fill="#5A4743"/>
  <rect x="624" y="0" width="12" height="80" fill="#734136"/>
  <rect x="636" y="0" width="12" height="80" fill="#794339"/>
  <rect x="648" y="0" width="12" height="80" fill="#844130"/>
  <rect x="660" y="0" width="12" height="80" fill="#89232E"/>
  <rect x="672" y="0" width="12" height="80" fill="#A01A32"/>
  <rect x="684" y="0" width="12" height="80" fill="#841B29"/>
  <rect x="696" y="0" width="12" height="80" fill="#711A2D"/>
  <rect x="708" y="0" width="12" height="80" fill="#6B1828"/>
  <rect x="720" y="0" width="12" height="80" fill="#631C2E"/>
  <rect x="732" y="0" width="12" height="80" fill="#341A1D"/>
  <rect x="744" y="0" width="12" height="80" fill="#2B1723"/>
  <rect x="756" y="0" width="12" height="80" fill="#2C1726"/>
  <rect x="768" y="0" width="12" height="80" fill="#421822"/>
  <rect x="780" y="0" width="12" height="80" fill="#651C2F"/>
  <rect x="792" y="0" width="12" height="80" fill="#651D31"/>
  <rect x="804" y="0" width="12" height="80" fill="#681D31"/>
  <rect x="816" y="0" width="12" height="80" fill="#6D4134"/>
  <rect x="828" y="0" width="12" height="80" fill="#5E3F44"/>
  <rect x="840" y="0" width="12" height="80" fill="#4C3C3F"/>
  <rect x="852" y="0" width="12" height="80" fill="#473C44"/>
  <rect x="864" y="0" width="12" height="80" fill="#3A3D44"/>
  <rect x="876" y="0" width="12" height="80" fill="#2F3D4A"/>
  <rect x="888" y="0" width="12" height="80" fill="#2F4A45"/>
  <rect x="900" y="0" width="12" height="80" fill="#2C4A42"/>
  <rect x="912" y="0" width="12" height="80" fill="#2C4C41"/>
  <rect x="924" y="0" width="12" height="80" fill="#2B4A42"/>
  <rect x="936" y="0" width="12" height="80" fill="#2D4A45"/>
  <rect x="948" y="0" width="12" height="80" fill="#254449"/>
  <rect x="960" y="0" width="12" height="80" fill="#254449"/>
  <rect x="972" y="0" width="12" height="80" fill="#2E3C47"/>
  <rect x="984" y="0" width="12" height="80" fill="#423C40"/>
  <rect x="996" y="0" width="12" height="80" fill="#714032"/>
  <rect x="1008" y="0" width="12" height="80" fill="#A83032"/>
  <rect x="1020" y="0" width="12" height="80" fill="#B3332A"/>
  <rect x="1032" y="0" width="12" height="80" fill="#D74339"/>
  <rect x="1044" y="0" width="12" height="80" fill="#D7423B"/>
  <rect x="1056" y="0" width="12" height="80" fill="#D54334"/>
  <rect x="1068" y="0" width="12" height="80" fill="#B0342C"/>
  <rect x="1080" y="0" width="12" height="80" fill="#744130"/>
  <rect x="1092" y="0" width="12" height="80" fill="#4B3B3E"/>
  <rect x="1104" y="0" width="12" height="80" fill="#393C41"/>
  <rect x="1116" y="0" width="12" height="80" fill="#3F3534"/>
  <rect x="1128" y="0" width="12" height="80" fill="#30352F"/>
  <rect x="1140" y="0" width="12" height="80" fill="#21262C"/>
  <rect x="1152" y="0" width="12" height="80" fill="#201920"/>
  <rect x="1164" y="0" width="12" height="80" fill="#24151A"/>
  <rect x="1176" y="0" width="12" height="80" fill="#2B1B0C"/>
  <rect x="1188" y="0" width="12" height="80" fill="#330A08"/>
  <rect x="1200" y="0" width="12" height="80" fill="#360D1D"/>
  <rect x="1212" y="0" width="12" height="80" fill="#500F23"/>
  <rect x="1224" y="0" width="12" height="80" fill="#67192F"/>
  <rect x="1236" y="0" width="12" height="80" fill="#6B182A"/>
  <rect x="1248" y="0" width="12" height="80" fill="#6F1C2E"/>
  <rect x="1260" y="0" width="12" height="80" fill="#724037"/>
  <rect x="1272" y="0" width="12" height="80" fill="#814230"/>
  <rect x="1284" y="0" width="12" height="80" fill="#C18A4A"/>
  <rect x="1296" y="0" width="12" height="80" fill="#CC9157"/>
  <rect x="1308" y="0" width="12" height="80" fill="#D0BC8A"/>
  <rect x="1320" y="0" width="12" height="80" fill="#D3CD93"/>
  <rect x="1332" y="0" width="12" height="80" fill="#DDCD9C"/>
  <rect x="1344" y="0" width="12" height="80" fill="#DCD4B0"/>
  <rect x="1356" y="0" width="12" height="80" fill="#DCCEB4"/>
  <rect x="1368" y="0" width="12" height="80" fill="#E0D2B5"/>
  <rect x="1380" y="0" width="12" height="80" fill="#F0DBC6"/>
  <rect x="1392" y="0" width="12" height="80" fill="#FDEAC9"/>
  <rect x="1404" y="0" width="12" height="80" fill="#FBF0D2"/>
  <rect x="1416" y="0" width="12" height="80" fill="#FAEDC0"/>
  <rect x="1428" y="0" width="12" height="80" fill="#FAF3BC"/>
  <rect x="1440" y="0" width="12" height="80" fill="#FFFEC3"/>
  <rect x="1452" y="0" width="12" height="80" fill="#FDF7D5"/>
  <rect x="1464" y="0" width="12" height="80" fill="#FCF6D6"/>
  <rect x="1476" y="0" width="12" height="80" fill="#FFF7D8"/>
  <rect x="1488" y="0" width="12" height="80" fill="#FFF6D5"/>
  <rect x="1500" y="0" width="12" height="80" fill="#FEF1CF"/>
  <rect x="1512" y="0" width="12" height="80" fill="#F3E4C3"/>
  <rect x="1524" y="0" width="12" height="80" fill="#DED2AA"/>
  <rect x="1536" y="0" width="12" height="80" fill="#D0B985"/>
  <rect x="1548" y="0" width="12" height="80" fill="#8D8669"/>
  <rect x="1560" y="0" width="12" height="80" fill="#5C5C54"/>
  <rect x="1572" y="0" width="12" height="80" fill="#414B43"/>
  <rect x="1584" y="0" width="12" height="80" fill="#394835"/>
  <rect x="1596" y="0" width="12" height="80" fill="#383929"/>
  <rect x="1608" y="0" width="12" height="80" fill="#524125"/>
  <rect x="1620" y="0" width="12" height="80" fill="#784033"/>
  <rect x="1632" y="0" width="12" height="80" fill="#D3443C"/>
  <rect x="1644" y="0" width="12" height="80" fill="#F56143"/>
  <rect x="1656" y="0" width="12" height="80" fill="#FB663C"/>
  <rect x="1668" y="0" width="12" height="80" fill="#FE6D3E"/>
  <rect x="1680" y="0" width="12" height="80" fill="#FF7137"/>
  <rect x="1692" y="0" width="12" height="80" fill="#FE6B3F"/>
  <rect x="1704" y="0" width="12" height="80" fill="#FD6E46"/>
  <rect x="1716" y="0" width="12" height="80" fill="#D19154"/>
  <rect x="1728" y="0" width="12" height="80" fill="#D1945B"/>
  <rect x="1740" y="0" width="12" height="80" fill="#DEC489"/>
  <rect x="1752" y="0" width="12" height="80" fill="#DCC792"/>
  <rect x="1764" y="0" width="12" height="80" fill="#E1CD9A"/>
  <rect x="1776" y="0" width="12" height="80" fill="#DBD4AA"/>
  <rect x="1788" y="0" width="12" height="80" fill="#DECFB2"/>
  <rect x="1800" y="0" width="12" height="80" fill="#E1D0A2"/>
  <rect x="1812" y="0" width="12" height="80" fill="#DDC997"/>
  <rect x="1824" y="0" width="12" height="80" fill="#DAC38D"/>
  <rect x="1836" y="0" width="12" height="80" fill="#D3B181"/>
  <rect x="1848" y="0" width="12" height="80" fill="#CB8C56"/>
  <rect x="1860" y="0" width="12" height="80" fill="#CC9051"/>
  <rect x="1872" y="0" width="12" height="80" fill="#CD945D"/>
  <rect x="1884" y="0" width="12" height="80" fill="#E5BA85"/>
  <rect x="1896" y="0" width="12" height="80" fill="#FED69B"/>
  <rect x="1908" y="0" width="12" height="80" fill="#F9E0A0"/>
  <rect x="1920" y="0" width="12" height="80" fill="#FFE3AB"/>
  <rect x="1932" y="0" width="12" height="80" fill="#FFE6AD"/>
  <rect x="1944" y="0" width="12" height="80" fill="#FCECB0"/>
  <rect x="1956" y="0" width="12" height="80" fill="#FFF2BE"/>
  <rect x="1968" y="0" width="12" height="80" fill="#FEF5D6"/>
  <rect x="1980" y="0" width="12" height="80" fill="#FFF5D7"/>
  <rect x="1992" y="0" width="12" height="80" fill="#FCF1D5"/>
  <rect x="2004" y="0" width="12" height="80" fill="#F5E6C5"/>
  <rect x="2016" y="0" width="12" height="80" fill="#DED7BA"/>
  <rect x="2028" y="0" width="12" height="80" fill="#D9CEA0"/>
  <rect x="2040" y="0" width="12" height="80" fill="#B1AA8D"/>
  <rect x="2052" y="0" width="12" height="80" fill="#8E8969"/>
  <rect x="2064" y="0" width="12" height="80" fill="#675A4A"/>
  <rect x="2076" y="0" width="12" height="80" fill="#5E4646"/>
  <rect x="2088" y="0" width="12" height="80" fill="#5D4247"/>
  <rect x="2100" y="0" width="12" height="80" fill="#644445"/>
  <rect x="2112" y="0" width="12" height="80" fill="#724A40"/>
  <rect x="2124" y="0" width="12" height="80" fill="#B46848"/>
  <rect x="2136" y="0" width="12" height="80" fill="#CA8C4F"/>
  <rect x="2148" y="0" width="12" height="80" fill="#CA8C4F"/>
  <rect x="2160" y="0" width="12" height="80" fill="#C88D51"/>
  <rect x="2172" y="0" width="12" height="80" fill="#BF8E4C"/>
  <rect x="2184" y="0" width="12" height="80" fill="#67604E"/>
  <rect x="2196" y="0" width="12" height="80" fill="#585B48"/>
  <rect x="2208" y="0" width="12" height="80" fill="#5A5341"/>
  <rect x="2220" y="0" width="12" height="80" fill="#5C4744"/>
  <rect x="2232" y="0" width="12" height="80" fill="#604345"/>
  <rect x="2244" y="0" width="12" height="80" fill="#634344"/>
  <rect x="2256" y="0" width="12" height="80" fill="#5D4545"/>
  <rect x="2268" y="0" width="12" height="80" fill="#5B4547"/>
  <rect x="2280" y="0" width="12" height="80" fill="#5B4547"/>
  <rect x="2292" y="0" width="12" height="80" fill="#5E4646"/>
  <rect x="2304" y="0" width="12" height="80" fill="#685849"/>
  <rect x="2316" y="0" width="12" height="80" fill="#6B5B4E"/>
  <rect x="2328" y="0" width="12" height="80" fill="#B9874C"/>
  <rect x="2340" y="0" width="12" height="80" fill="#C88F4C"/>
  <rect x="2352" y="0" width="12" height="80" fill="#CB8D50"/>
  <rect x="2364" y="0" width="12" height="80" fill="#C7904F"/>
  <rect x="2376" y="0" width="12" height="80" fill="#868B63"/>
  <rect x="2388" y="0" width="12" height="80" fill="#5C6254"/>
  <rect x="2400" y="0" width="12" height="80" fill="#465047"/>
  <rect x="2412" y="0" width="12" height="80" fill="#394B3D"/>
  <rect x="2424" y="0" width="12" height="80" fill="#38483B"/>
  <rect x="2436" y="0" width="12" height="80" fill="#31463F"/>
  <rect x="2448" y="0" width="12" height="80" fill="#343F45"/>
  <rect x="2460" y="0" width="12" height="80" fill="#353F3E"/>
  <rect x="2472" y="0" width="12" height="80" fill="#3C4A3D"/>
  <rect x="2484" y="0" width="12" height="80" fill="#3C4C42"/>
  <rect x="2496" y="0" width="12" height="80" fill="#575F54"/>
  <rect x="2508" y="0" width="12" height="80" fill="#5C6258"/>
  <rect x="2520" y="0" width="12" height="80" fill="#888469"/>
  <rect x="2532" y="0" width="12" height="80" fill="#B9986D"/>
  <rect x="2544" y="0" width="12" height="80" fill="#D6C08E"/>
  <rect x="2556" y="0" width="12" height="80" fill="#D7C38E"/>
  <rect x="2568" y="0" width="12" height="80" fill="#D5B880"/>
  <rect x="2580" y="0" width="12" height="80" fill="#C89252"/>
  <rect x="2592" y="0" width="12" height="80" fill="#8F8C6B"/>
  <rect x="2604" y="0" width="12" height="80" fill="#68584B"/>
  <rect x="2616" y="0" width="12" height="80" fill="#4D4F37"/>
  <rect x="2628" y="0" width="12" height="80" fill="#2F3728"/>
  <rect x="2640" y="0" width="12" height="80" fill="#2A1824"/>
  <rect x="2652" y="0" width="12" height="80" fill="#26121E"/>
  <rect x="2664" y="0" width="12" height="80" fill="#2B0E20"/>
  <rect x="2676" y="0" width="12" height="80" fill="#301B2A"/>
  <rect x="2688" y="0" width="12" height="80" fill="#4E3D2B"/>
  <rect x="2700" y="0" width="12" height="80" fill="#764133"/>
  <rect x="2712" y="0" width="12" height="80" fill="#BB4D4C"/>
  <rect x="2724" y="0" width="12" height="80" fill="#F36B45"/>
  <rect x="2736" y="0" width="12" height="80" fill="#FF6940"/>
  <rect x="2748" y="0" width="12" height="80" fill="#FF6740"/>
  <rect x="2760" y="0" width="12" height="80" fill="#FF693F"/>
  <rect x="2772" y="0" width="12" height="80" fill="#FC6A3B"/>
  <rect x="2784" y="0" width="12" height="80" fill="#FA673B"/>
  <rect x="2796" y="0" width="12" height="80" fill="#F4673C"/>
  <rect x="2808" y="0" width="12" height="80" fill="#D6492E"/>
  <rect x="2820" y="0" width="12" height="80" fill="#B33425"/>
  <rect x="2832" y="0" width="12" height="80" fill="#843F30"/>
  <rect x="2844" y="0" width="12" height="80" fill="#5B3D33"/>
  <rect x="2856" y="0" width="12" height="80" fill="#3E373E"/>
  <rect x="2868" y="0" width="12" height="80" fill="#2C2D2F"/>
  <rect x="2880" y="0" width="12" height="80" fill="#212B2C"/>
  <rect x="2892" y="0" width="12" height="80" fill="#262D25"/>
  <rect x="2904" y="0" width="12" height="80" fill="#333426"/>
  <rect x="2916" y="0" width="12" height="80" fill="#343223"/>
  <rect x="2928" y="0" width="12" height="80" fill="#332D1F"/>
  <rect x="2940" y="0" width="12" height="80" fill="#38311E"/>
  <rect x="2952" y="0" width="12" height="80" fill="#333426"/>
  <rect x="2964" y="0" width="12" height="80" fill="#3F382E"/>
  <rect x="2976" y="0" width="12" height="80" fill="#514343"/>
  <rect x="2988" y="0" width="12" height="80" fill="#5C4347"/>
  <rect x="3000" y="0" width="12" height="80" fill="#604649"/>
  <rect x="3012" y="0" width="12" height="80" fill="#664347"/>
  <rect x="3024" y="0" width="12" height="80" fill="#634547"/>
  <rect x="3036" y="0" width="12" height="80" fill="#625F50"/>
  <rect x="3048" y="0" width="12" height="80" fill="#DED7AB"/>
  <rect x="3060" y="0" width="12" height="80" fill="#8E8B78"/>
</svg>
