<svg xmlns="http://www.w3.org/2000/svg" width="3072" height="80" viewBox="0 0 3072 80" preserveAspectRatio="none">
<metadata>
  <rdf:RDF xmlns:rdf="http://www.w3.org/1999/02/22-rdf-syntax-ns#"
           xmlns:dc="http://purl.org/dc/elements/1.1/">
    <rdf:Description rdf:about="">
      <dc:title>F stands for liFe</dc:title>
      <dc:creator>F stands for liFe</dc:creator>
      <dc:rights>Copyright (c) 2021 F stands for liFe. All rights reserved.</dc:rights>
    </rdf:Description>
  </rdf:RDF>
</metadata>
  <rect x="0" y="0" width="12" height="80" fill="#724D3D"/>
  <rect x="12" y="0" width="12" height="80" fill="#715041"/>
  <rect x="24" y="0" width="12" height="80" fill="#686552"/>
  <rect x="36" y="0" width="12" height="80" fill="#66615B"/>
  <rect x="48" y="0" width="12" height="80" fill="#736059"/>
  <rect x="60" y="0" width="12" height="80" fill="#705C53"/>
  <rect x="72" y="0" width="12" height="80" fill="#765544"/>
  <rect x="84" y="0" width="12" height="80" fill="#7F3E3A"/>
  <rect x="96" y="0" width="12" height="80" fill="#7D2D30"/>
  <rect x="108" y="0" width="12" height="80" fill="#7C2B32"/>
  <rect x="120" y="0" width="12" height="80" fill="#80292F"/>
  <rect x="132" y="0" width="12" height="80" fill="#742528"/>
  <rect x="144" y="0" width="12" height="80" fill="#371513"/>
  <rect x="156" y="0" width="12" height="80" fill="#250F11"/>
  <rect x="168" y="0" width="12" height="80" fill="#100604"/>
  <rect x="180" y="0" width="12" height="80" fill="#050402"/>
  <rect x="192" y="0" width="12" height="80" fill="#050402"/>
  <rect x="204" y="0" width="12" height="80" fill="#080204"/>
  <rect x="216" y="0" width="12" height="80" fill="#1B0200"/>
  <rect x="228" y="0" width="12" height="80" fill="#1F0504"/>
  <rect x="240" y="0" width="12" height="80" fill="#1C0704"/>
  <rect x="252" y="0" width="12" height="80" fill="#1A0B06"/>
  <rect x="264" y="0" width="12" height="80" fill="#180809"/>
  <rect x="276" y="0" width="12" height="80" fill="#1C1211"/>
  <rect x="288" y="0" width="12" height="80" fill="#201718"/>
  <rect x="300" y="0" width="12" height="80" fill="#2D1B1B"/>
  <rect x="312" y="0" width="12" height="80" fill="#251A18"/>
  <rect x="324" y="0" width="12" height="80" fill="#1C1D17"/>
  <rect x="336" y="0" width="12" height="80" fill="#221817"/>
  <rect x="348" y="0" width="12" height="80" fill="#2F160F"/>
  <rect x="360" y="0" width="12" height="80" fill="#2D2614"/>
  <rect x="372" y="0" width="12" height="80" fill="#34221E"/>
  <rect x="384" y="0" width="12" height="80" fill="#3C312D"/>
  <rect x="396" y="0" width="12" height="80" fill="#793D32"/>
  <rect x="408" y="0" width="12" height="80" fill="#864D3C"/>
  <rect x="420" y="0" width="12" height="80" fill="#805646"/>
  <rect x="432" y="0" width="12" height="80" fill="#876B55"/>
  <rect x="444" y="0" width="12" height="80" fill="#827A6D"/>
  <rect x="456" y="0" width="12" height="80" fill="#7D7F74"/>
  <rect x="468" y="0" width="12" height="80" fill="#898071"/>
  <rect x="480" y="0" width="12" height="80" fill="#89836B"/>
  <rect x="492" y="0" width="12" height="80" fill="#95796E"/>
  <rect x="504" y="0" width="12" height="80" fill="#A6776D"/>
  <rect x="516" y="0" width="12" height="80" fill="#AB7E79"/>
  <rect x="528" y="0" width="12" height="80" fill="#C0948B"/>
  <rect x="540" y="0" width="12" height="80" fill="#B19490"/>
  <rect x="552" y="0" width="12" height="80" fill="#A28F81"/>
  <rect x="564" y="0" width="12" height="80" fill="#949285"/>
  <rect x="576" y="0" width="12" height="80" fill="#868C7E"/>
  <rect x="588" y="0" width="12" height="80" fill="#817F82"/>
  <rect x="600" y="0" width="12" height="80" fill="#796E6C"/>
  <rect x="612" y="0" width="12" height="80" fill="#6A655F"/>
  <rect x="624" y="0" width="12" height="80" fill="#625F58"/>
  <rect x="636" y="0" width="12" height="80" fill="#5C5857"/>
  <rect x="648" y="0" width="12" height="80" fill="#4D4F4E"/>
  <rect x="660" y="0" width="12" height="80" fill="#3F4843"/>
  <rect x="672" y="0" width="12" height="80" fill="#313332"/>
  <rect x="684" y="0" width="12" height="80" fill="#1E2925"/>
  <rect x="696" y="0" width="12" height="80" fill="#130E12"/>
  <rect x="708" y="0" width="12" height="80" fill="#080405"/>
  <rect x="720" y="0" width="12" height="80" fill="#0E0403"/>
  <rect x="732" y="0" width="12" height="80" fill="#190C06"/>
  <rect x="744" y="0" width="12" height="80" fill="#1D1E18"/>
  <rect x="756" y="0" width="12" height="80" fill="#2A4139"/>
  <rect x="768" y="0" width="12" height="80" fill="#585856"/>
  <rect x="780" y="0" width="12" height="80" fill="#7F7774"/>
  <rect x="792" y="0" width="12" height="80" fill="#8C817F"/>
  <rect x="804" y="0" width="12" height="80" fill="#9B9573"/>
  <rect x="816" y="0" width="12" height="80" fill="#9B9D6E"/>
  <rect x="828" y="0" width="12" height="80" fill="#8A8565"/>
  <rect x="840" y="0" width="12" height="80" fill="#857C5F"/>
  <rect x="852" y="0" width="12" height="80" fill="#897E5E"/>
  <rect x="864" y="0" width="12" height="80" fill="#9D7166"/>
  <rect x="876" y="0" width="12" height="80" fill="#A47267"/>
  <rect x="888" y="0" width="12" height="80" fill="#A0706C"/>
  <rect x="900" y="0" width="12" height="80" fill="#9E816F"/>
  <rect x="912" y="0" width="12" height="80" fill="#939274"/>
  <rect x="924" y="0" width="12" height="80" fill="#908279"/>
  <rect x="936" y="0" width="12" height="80" fill="#8B807C"/>
  <rect x="948" y="0" width="12" height="80" fill="#817579"/>
  <rect x="960" y="0" width="12" height="80" fill="#79687B"/>
  <rect x="972" y="0" width="12" height="80" fill="#5F5C63"/>
  <rect x="984" y="0" width="12" height="80" fill="#5F525B"/>
  <rect x="996" y="0" width="12" height="80" fill="#695650"/>
  <rect x="1008" y="0" width="12" height="80" fill="#81504C"/>
  <rect x="1020" y="0" width="12" height="80" fill="#885449"/>
  <rect x="1032" y="0" width="12" height="80" fill="#7B5548"/>
  <rect x="1044" y="0" width="12" height="80" fill="#6D5A4C"/>
  <rect x="1056" y="0" width="12" height="80" fill="#6B5E4E"/>
  <rect x="1068" y="0" width="12" height="80" fill="#70615E"/>
  <rect x="1080" y="0" width="12" height="80" fill="#796461"/>
  <rect x="1092" y="0" width="12" height="80" fill="#816361"/>
  <rect x="1104" y="0" width="12" height="80" fill="#7E765F"/>
  <rect x="1116" y="0" width="12" height="80" fill="#88706C"/>
  <rect x="1128" y="0" width="12" height="80" fill="#8C6F71"/>
  <rect x="1140" y="0" width="12" height="80" fill="#957F8C"/>
  <rect x="1152" y="0" width="12" height="80" fill="#96939A"/>
  <rect x="1164" y="0" width="12" height="80" fill="#A19F93"/>
  <rect x="1176" y="0" width="12" height="80" fill="#B0B8A0"/>
  <rect x="1188" y="0" width="12" height="80" fill="#BAC6B0"/>
  <rect x="1200" y="0" width="12" height="80" fill="#ADBEB6"/>
  <rect x="1212" y="0" width="12" height="80" fill="#B1B1A5"/>
  <rect x="1224" y="0" width="12" height="80" fill="#A79F94"/>
  <rect x="1236" y="0" width="12" height="80" fill="#A49E92"/>
  <rect x="1248" y="0" width="12" height="80" fill="#9EA186"/>
  <rect x="1260" y="0" width="12" height="80" fill="#A2A391"/>
  <rect x="1272" y="0" width="12" height="80" fill="#B0AEA1"/>
  <rect x="1284" y="0" width="12" height="80" fill="#BAB1B2"/>
  <rect x="1296" y="0" width="12" height="80" fill="#BBBBAF"/>
  <rect x="1308" y="0" width="12" height="80" fill="#BAB3A9"/>
  <rect x="1320" y="0" width="12" height="80" fill="#B5B2A9"/>
  <rect x="1332" y="0" width="12" height="80" fill="#B8A49D"/>
  <rect x="1344" y="0" width="12" height="80" fill="#A19692"/>
  <rect x="1356" y="0" width="12" height="80" fill="#A28982"/>
  <rect x="1368" y="0" width="12" height="80" fill="#95836D"/>
  <rect x="1380" y="0" width="12" height="80" fill="#827D57"/>
  <rect x="1392" y="0" width="12" height="80" fill="#77614C"/>
  <rect x="1404" y="0" width="12" height="80" fill="#6A5D55"/>
  <rect x="1416" y="0" width="12" height="80" fill="#69554A"/>
  <rect x="1428" y="0" width="12" height="80" fill="#5A4C3F"/>
  <rect x="1440" y="0" width="12" height="80" fill="#4B3D3D"/>
  <rect x="1452" y="0" width="12" height="80" fill="#343F37"/>
  <rect x="1464" y="0" width="12" height="80" fill="#333E44"/>
  <rect x="1476" y="0" width="12" height="80" fill="#3E5259"/>
  <rect x="1488" y="0" width="12" height="80" fill="#4F5457"/>
  <rect x="1500" y="0" width="12" height="80" fill="#545148"/>
  <rect x="1512" y="0" width="12" height="80" fill="#584D47"/>
  <rect x="1524" y="0" width="12" height="80" fill="#454138"/>
  <rect x="1536" y="0" width="12" height="80" fill="#362B27"/>
  <rect x="1548" y="0" width="12" height="80" fill="#2C211F"/>
  <rect x="1560" y="0" width="12" height="80" fill="#14262A"/>
  <rect x="1572" y="0" width="12" height="80" fill="#183835"/>
  <rect x="1584" y="0" width="12" height="80" fill="#3D4339"/>
  <rect x="1596" y="0" width="12" height="80" fill="#5D4948"/>
  <rect x="1608" y="0" width="12" height="80" fill="#776559"/>
  <rect x="1620" y="0" width="12" height="80" fill="#966F5E"/>
  <rect x="1632" y="0" width="12" height="80" fill="#A86869"/>
  <rect x="1644" y="0" width="12" height="80" fill="#A87973"/>
  <rect x="1656" y="0" width="12" height="80" fill="#A78883"/>
  <rect x="1668" y="0" width="12" height="80" fill="#A28E8F"/>
  <rect x="1680" y="0" width="12" height="80" fill="#98898C"/>
  <rect x="1692" y="0" width="12" height="80" fill="#908990"/>
  <rect x="1704" y="0" width="12" height="80" fill="#92807C"/>
  <rect x="1716" y="0" width="12" height="80" fill="#977573"/>
  <rect x="1728" y="0" width="12" height="80" fill="#987064"/>
  <rect x="1740" y="0" width="12" height="80" fill="#8E5752"/>
  <rect x="1752" y="0" width="12" height="80" fill="#875848"/>
  <rect x="1764" y="0" width="12" height="80" fill="#815645"/>
  <rect x="1776" y="0" width="12" height="80" fill="#7F6149"/>
  <rect x="1788" y="0" width="12" height="80" fill="#6F6355"/>
  <rect x="1800" y="0" width="12" height="80" fill="#615D54"/>
  <rect x="1812" y="0" width="12" height="80" fill="#614F4F"/>
  <rect x="1824" y="0" width="12" height="80" fill="#694B4B"/>
  <rect x="1836" y="0" width="12" height="80" fill="#6A5248"/>
  <rect x="1848" y="0" width="12" height="80" fill="#755F47"/>
  <rect x="1860" y="0" width="12" height="80" fill="#796646"/>
  <rect x="1872" y="0" width="12" height="80" fill="#7B7751"/>
  <rect x="1884" y="0" width="12" height="80" fill="#7C7A6E"/>
  <rect x="1896" y="0" width="12" height="80" fill="#717165"/>
  <rect x="1908" y="0" width="12" height="80" fill="#75625C"/>
  <rect x="1920" y="0" width="12" height="80" fill="#5F5053"/>
  <rect x="1932" y="0" width="12" height="80" fill="#3F3A36"/>
  <rect x="1944" y="0" width="12" height="80" fill="#27271F"/>
  <rect x="1956" y="0" width="12" height="80" fill="#141915"/>
  <rect x="1968" y="0" width="12" height="80" fill="#190E0A"/>
  <rect x="1980" y="0" width="12" height="80" fill="#1E0B0D"/>
  <rect x="1992" y="0" width="12" height="80" fill="#241210"/>
  <rect x="2004" y="0" width="12" height="80" fill="#351C18"/>
  <rect x="2016" y="0" width="12" height="80" fill="#3C3A2E"/>
  <rect x="2028" y="0" width="12" height="80" fill="#523C2F"/>
  <rect x="2040" y="0" width="12" height="80" fill="#653D35"/>
  <rect x="2052" y="0" width="12" height="80" fill="#813832"/>
  <rect x="2064" y="0" width="12" height="80" fill="#7B3529"/>
  <rect x="2076" y="0" width="12" height="80" fill="#7C3E25"/>
  <rect x="2088" y="0" width="12" height="80" fill="#74341B"/>
  <rect x="2100" y="0" width="12" height="80" fill="#633424"/>
  <rect x="2112" y="0" width="12" height="80" fill="#431114"/>
  <rect x="2124" y="0" width="12" height="80" fill="#471015"/>
  <rect x="2136" y="0" width="12" height="80" fill="#683729"/>
  <rect x="2148" y="0" width="12" height="80" fill="#7F5144"/>
  <rect x="2160" y="0" width="12" height="80" fill="#8A5B51"/>
  <rect x="2172" y="0" width="12" height="80" fill="#9B6450"/>
  <rect x="2184" y="0" width="12" height="80" fill="#915F54"/>
  <rect x="2196" y="0" width="12" height="80" fill="#81604F"/>
  <rect x="2208" y="0" width="12" height="80" fill="#5E463C"/>
  <rect x="2220" y="0" width="12" height="80" fill="#45302F"/>
  <rect x="2232" y="0" width="12" height="80" fill="#38302D"/>
  <rect x="2244" y="0" width="12" height="80" fill="#36312B"/>
  <rect x="2256" y="0" width="12" height="80" fill="#38302E"/>
  <rect x="2268" y="0" width="12" height="80" fill="#484649"/>
  <rect x="2280" y="0" width="12" height="80" fill="#615555"/>
  <rect x="2292" y="0" width="12" height="80" fill="#6E5E5E"/>
  <rect x="2304" y="0" width="12" height="80" fill="#80756F"/>
  <rect x="2316" y="0" width="12" height="80" fill="#807778"/>
  <rect x="2328" y="0" width="12" height="80" fill="#847975"/>
  <rect x="2340" y="0" width="12" height="80" fill="#836A66"/>
  <rect x="2352" y="0" width="12" height="80" fill="#7D4E48"/>
  <rect x="2364" y="0" width="12" height="80" fill="#783638"/>
  <rect x="2376" y="0" width="12" height="80" fill="#563A36"/>
  <rect x="2388" y="0" width="12" height="80" fill="#442C2C"/>
  <rect x="2400" y="0" width="12" height="80" fill="#504235"/>
  <rect x="2412" y="0" width="12" height="80" fill="#5A4B46"/>
  <rect x="2424" y="0" width="12" height="80" fill="#62555C"/>
  <rect x="2436" y="0" width="12" height="80" fill="#716C69"/>
  <rect x="2448" y="0" width="12" height="80" fill="#838486"/>
  <rect x="2460" y="0" width="12" height="80" fill="#A2938C"/>
  <rect x="2472" y="0" width="12" height="80" fill="#ADA399"/>
  <rect x="2484" y="0" width="12" height="80" fill="#C8C1B7"/>
  <rect x="2496" y="0" width="12" height="80" fill="#D1CEC5"/>
  <rect x="2508" y="0" width="12" height="80" fill="#DEE0D5"/>
  <rect x="2520" y="0" width="12" height="80" fill="#E0EDDB"/>
  <rect x="2532" y="0" width="12" height="80" fill="#D7E4D0"/>
  <rect x="2544" y="0" width="12" height="80" fill="#D1DECD"/>
  <rect x="2556" y="0" width="12" height="80" fill="#CDD4C4"/>
  <rect x="2568" y="0" width="12" height="80" fill="#C3CCB1"/>
  <rect x="2580" y="0" width="12" height="80" fill="#B2BBA0"/>
  <rect x="2592" y="0" width="12" height="80" fill="#B4AE8E"/>
  <rect x="2604" y="0" width="12" height="80" fill="#9E9D7E"/>
  <rect x="2616" y="0" width="12" height="80" fill="#9B9E83"/>
  <rect x="2628" y="0" width="12" height="80" fill="#A0A788"/>
  <rect x="2640" y="0" width="12" height="80" fill="#B2B290"/>
  <rect x="2652" y="0" width="12" height="80" fill="#B9BBA5"/>
  <rect x="2664" y="0" width="12" height="80" fill="#C8C6AF"/>
  <rect x="2676" y="0" width="12" height="80" fill="#C5CEAF"/>
  <rect x="2688" y="0" width="12" height="80" fill="#C4CABC"/>
  <rect x="2700" y="0" width="12" height="80" fill="#C8CBBA"/>
  <rect x="2712" y="0" width="12" height="80" fill="#D7C4BD"/>
  <rect x="2724" y="0" width="12" height="80" fill="#CFC8C2"/>
  <rect x="2736" y="0" width="12" height="80" fill="#D1C3D4"/>
  <rect x="2748" y="0" width="12" height="80" fill="#DBE1D3"/>
  <rect x="2760" y="0" width="12" height="80" fill="#D3E1D2"/>
  <rect x="2772" y="0" width="12" height="80" fill="#CBD6C8"/>
  <rect x="2784" y="0" width="12" height="80" fill="#C6C9BE"/>
  <rect x="2796" y="0" width="12" height="80" fill="#BFC8B3"/>
  <rect x="2808" y="0" width="12" height="80" fill="#B1B4A3"/>
  <rect x="2820" y="0" width="12" height="80" fill="#A99B92"/>
  <rect x="2832" y="0" width="12" height="80" fill="#A6807D"/>
  <rect x="2844" y="0" width="12" height="80" fill="#9E5985"/>
  <rect x="2856" y="0" width="12" height="80" fill="#AC5778"/>
  <rect x="2868" y="0" width="12" height="80" fill="#975466"/>
  <rect x="2880" y="0" width="12" height="80" fill="#7F5950"/>
  <rect x="2892" y="0" width="12" height="80" fill="#6C5B54"/>
  <rect x="2904" y="0" width="12" height="80" fill="#5E5E60"/>
  <rect x="2916" y="0" width="12" height="80" fill="#547C74"/>
  <rect x="2928" y="0" width="12" height="80" fill="#377D87"/>
  <rect x="2940" y="0" width="12" height="80" fill="#558184"/>
  <rect x="2952" y="0" width="12" height="80" fill="#726D71"/>
  <rect x="2964" y="0" width="12" height="80" fill="#576669"/>
  <rect x="2976" y="0" width="12" height="80" fill="#3F6361"/>
  <rect x="2988" y="0" width="12" height="80" fill="#40595E"/>
  <rect x="3000" y="0" width="12" height="80" fill="#33605B"/>
  <rect x="3012" y="0" width="12" height="80" fill="#2C5F72"/>
  <rect x="3024" y="0" width="12" height="80" fill="#3C6275"/>
  <rect x="3036" y="0" width="12" height="80" fill="#3F676F"/>
  <rect x="3048" y="0" width="12" height="80" fill="#56656A"/>
  <rect x="3060" y="0" width="12" height="80" fill="#4B616E"/>
</svg>
