<svg xmlns="http://www.w3.org/2000/svg" width="3072" height="80" viewBox="0 0 3072 80" preserveAspectRatio="none">
<metadata>
  <rdf:RDF xmlns:rdf="http://www.w3.org/1999/02/22-rdf-syntax-ns#"
           xmlns:dc="http://purl.org/dc/elements/1.1/">
    <rdf:Description rdf:about="">
      <dc:title>F stands for liFe</dc:title>
      <dc:creator>F stands for liFe</dc:creator>
      <dc:rights>Copyright (c) 2021 F stands for liFe. All rights reserved.</dc:rights>
    </rdf:Description>
  </rdf:RDF>
</metadata>
  <rect x="0" y="0" width="12" height="80" fill="#601E20"/>
  <rect x="12" y="0" width="12" height="80" fill="#511E2D"/>
  <rect x="24" y="0" width="12" height="80" fill="#422030"/>
  <rect x="36" y="0" width="12" height="80" fill="#401A31"/>
  <rect x="48" y="0" width="12" height="80" fill="#42172A"/>
  <rect x="60" y="0" width="12" height="80" fill="#421830"/>
  <rect x="72" y="0" width="12" height="80" fill="#482334"/>
  <rect x="84" y="0" width="12" height="80" fill="#5C273B"/>
  <rect x="96" y="0" width="12" height="80" fill="#67334A"/>
  <rect x="108" y="0" width="12" height="80" fill="#694F76"/>
  <rect x="120" y="0" width="12" height="80" fill="#727699"/>
  <rect x="132" y="0" width="12" height="80" fill="#9191B7"/>
  <rect x="144" y="0" width="12" height="80" fill="#A4A2C9"/>
  <rect x="156" y="0" width="12" height="80" fill="#B5B0D8"/>
  <rect x="168" y="0" width="12" height="80" fill="#BAB8DD"/>
  <rect x="180" y="0" width="12" height="80" fill="#C3BDE3"/>
  <rect x="192" y="0" width="12" height="80" fill="#D1CDF2"/>
  <rect x="204" y="0" width="12" height="80" fill="#BFBAE2"/>
  <rect x="216" y="0" width="12" height="80" fill="#B8B6DD"/>
  <rect x="228" y="0" width="12" height="80" fill="#B4B4D8"/>
  <rect x="240" y="0" width="12" height="80" fill="#AEACD1"/>
  <rect x="252" y="0" width="12" height="80" fill="#9F9BC0"/>
  <rect x="264" y="0" width="12" height="80" fill="#9690B6"/>
  <rect x="276" y="0" width="12" height="80" fill="#7C7AA1"/>
  <rect x="288" y="0" width="12" height="80" fill="#6E7295"/>
  <rect x="300" y="0" width="12" height="80" fill="#6E6487"/>
  <rect x="312" y="0" width="12" height="80" fill="#6C5979"/>
  <rect x="324" y="0" width="12" height="80" fill="#704D63"/>
  <rect x="336" y="0" width="12" height="80" fill="#714B62"/>
  <rect x="348" y="0" width="12" height="80" fill="#734C5F"/>
  <rect x="360" y="0" width="12" height="80" fill="#7A4A60"/>
  <rect x="372" y="0" width="12" height="80" fill="#7A4B5D"/>
  <rect x="384" y="0" width="12" height="80" fill="#773D4C"/>
  <rect x="396" y="0" width="12" height="80" fill="#723640"/>
  <rect x="408" y="0" width="12" height="80" fill="#713132"/>
  <rect x="420" y="0" width="12" height="80" fill="#7B2727"/>
  <rect x="432" y="0" width="12" height="80" fill="#742224"/>
  <rect x="444" y="0" width="12" height="80" fill="#6F1C26"/>
  <rect x="456" y="0" width="12" height="80" fill="#6D282B"/>
  <rect x="468" y="0" width="12" height="80" fill="#642830"/>
  <rect x="480" y="0" width="12" height="80" fill="#642327"/>
  <rect x="492" y="0" width="12" height="80" fill="#642223"/>
  <rect x="504" y="0" width="12" height="80" fill="#611821"/>
  <rect x="516" y="0" width="12" height="80" fill="#5D161E"/>
  <rect x="528" y="0" width="12" height="80" fill="#5E1823"/>
  <rect x="540" y="0" width="12" height="80" fill="#641E20"/>
  <rect x="552" y="0" width="12" height="80" fill="#662020"/>
  <rect x="564" y="0" width="12" height="80" fill="#6D1A24"/>
  <rect x="576" y="0" width="12" height="80" fill="#7E1E2A"/>
  <rect x="588" y="0" width="12" height="80" fill="#BD0100"/>
  <rect x="600" y="0" width="12" height="80" fill="#CB0F0E"/>
  <rect x="612" y="0" width="12" height="80" fill="#B80A0B"/>
  <rect x="624" y="0" width="12" height="80" fill="#7A2425"/>
  <rect x="636" y="0" width="12" height="80" fill="#6A2829"/>
  <rect x="648" y="0" width="12" height="80" fill="#5E272C"/>
  <rect x="660" y="0" width="12" height="80" fill="#532734"/>
  <rect x="672" y="0" width="12" height="80" fill="#4B2637"/>
  <rect x="684" y="0" width="12" height="80" fill="#3B2743"/>
  <rect x="696" y="0" width="12" height="80" fill="#442D4A"/>
  <rect x="708" y="0" width="12" height="80" fill="#4E3948"/>
  <rect x="720" y="0" width="12" height="80" fill="#543B4E"/>
  <rect x="732" y="0" width="12" height="80" fill="#583F52"/>
  <rect x="744" y="0" width="12" height="80" fill="#664E68"/>
  <rect x="756" y="0" width="12" height="80" fill="#6B5D7E"/>
  <rect x="768" y="0" width="12" height="80" fill="#6E688C"/>
  <rect x="780" y="0" width="12" height="80" fill="#6F6D92"/>
  <rect x="792" y="0" width="12" height="80" fill="#6A6E93"/>
  <rect x="804" y="0" width="12" height="80" fill="#6C6688"/>
  <rect x="816" y="0" width="12" height="80" fill="#695E7E"/>
  <rect x="828" y="0" width="12" height="80" fill="#67506C"/>
  <rect x="840" y="0" width="12" height="80" fill="#704D61"/>
  <rect x="852" y="0" width="12" height="80" fill="#7D5647"/>
  <rect x="864" y="0" width="12" height="80" fill="#956E4F"/>
  <rect x="876" y="0" width="12" height="80" fill="#9C6D4F"/>
  <rect x="888" y="0" width="12" height="80" fill="#9D6F4D"/>
  <rect x="900" y="0" width="12" height="80" fill="#B98D5C"/>
  <rect x="912" y="0" width="12" height="80" fill="#BB8C5E"/>
  <rect x="924" y="0" width="12" height="80" fill="#AC676A"/>
  <rect x="936" y="0" width="12" height="80" fill="#BB5B43"/>
  <rect x="948" y="0" width="12" height="80" fill="#AA483B"/>
  <rect x="960" y="0" width="12" height="80" fill="#99382F"/>
  <rect x="972" y="0" width="12" height="80" fill="#7A2624"/>
  <rect x="984" y="0" width="12" height="80" fill="#6B2B2C"/>
  <rect x="996" y="0" width="12" height="80" fill="#5A272E"/>
  <rect x="1008" y="0" width="12" height="80" fill="#512735"/>
  <rect x="1020" y="0" width="12" height="80" fill="#5A2444"/>
  <rect x="1032" y="0" width="12" height="80" fill="#5F334C"/>
  <rect x="1044" y="0" width="12" height="80" fill="#654C6A"/>
  <rect x="1056" y="0" width="12" height="80" fill="#72688B"/>
  <rect x="1068" y="0" width="12" height="80" fill="#837DA1"/>
  <rect x="1080" y="0" width="12" height="80" fill="#9998C0"/>
  <rect x="1092" y="0" width="12" height="80" fill="#A6A1C9"/>
  <rect x="1104" y="0" width="12" height="80" fill="#B5AFD5"/>
  <rect x="1116" y="0" width="12" height="80" fill="#AEAED2"/>
  <rect x="1128" y="0" width="12" height="80" fill="#9B96BE"/>
  <rect x="1140" y="0" width="12" height="80" fill="#8F81A4"/>
  <rect x="1152" y="0" width="12" height="80" fill="#846785"/>
  <rect x="1164" y="0" width="12" height="80" fill="#7D5B73"/>
  <rect x="1176" y="0" width="12" height="80" fill="#6E4458"/>
  <rect x="1188" y="0" width="12" height="80" fill="#6A303C"/>
  <rect x="1200" y="0" width="12" height="80" fill="#65282F"/>
  <rect x="1212" y="0" width="12" height="80" fill="#672936"/>
  <rect x="1224" y="0" width="12" height="80" fill="#743C49"/>
  <rect x="1236" y="0" width="12" height="80" fill="#773E47"/>
  <rect x="1248" y="0" width="12" height="80" fill="#7C4D5F"/>
  <rect x="1260" y="0" width="12" height="80" fill="#81637D"/>
  <rect x="1272" y="0" width="12" height="80" fill="#946F81"/>
  <rect x="1284" y="0" width="12" height="80" fill="#A07C7C"/>
  <rect x="1296" y="0" width="12" height="80" fill="#A58570"/>
  <rect x="1308" y="0" width="12" height="80" fill="#B8835B"/>
  <rect x="1320" y="0" width="12" height="80" fill="#B88D60"/>
  <rect x="1332" y="0" width="12" height="80" fill="#C99472"/>
  <rect x="1344" y="0" width="12" height="80" fill="#D17F96"/>
  <rect x="1356" y="0" width="12" height="80" fill="#C49A8C"/>
  <rect x="1368" y="0" width="12" height="80" fill="#DAB88A"/>
  <rect x="1380" y="0" width="12" height="80" fill="#D5A074"/>
  <rect x="1392" y="0" width="12" height="80" fill="#B88D62"/>
  <rect x="1404" y="0" width="12" height="80" fill="#D46F53"/>
  <rect x="1416" y="0" width="12" height="80" fill="#E75651"/>
  <rect x="1428" y="0" width="12" height="80" fill="#F53037"/>
  <rect x="1440" y="0" width="12" height="80" fill="#E42324"/>
  <rect x="1452" y="0" width="12" height="80" fill="#E52123"/>
  <rect x="1464" y="0" width="12" height="80" fill="#CB181C"/>
  <rect x="1476" y="0" width="12" height="80" fill="#C81B1D"/>
  <rect x="1488" y="0" width="12" height="80" fill="#832B29"/>
  <rect x="1500" y="0" width="12" height="80" fill="#642828"/>
  <rect x="1512" y="0" width="12" height="80" fill="#512026"/>
  <rect x="1524" y="0" width="12" height="80" fill="#4F2026"/>
  <rect x="1536" y="0" width="12" height="80" fill="#451B2F"/>
  <rect x="1548" y="0" width="12" height="80" fill="#461B2E"/>
  <rect x="1560" y="0" width="12" height="80" fill="#5D1F24"/>
  <rect x="1572" y="0" width="12" height="80" fill="#742425"/>
  <rect x="1584" y="0" width="12" height="80" fill="#97242B"/>
  <rect x="1596" y="0" width="12" height="80" fill="#C02C2C"/>
  <rect x="1608" y="0" width="12" height="80" fill="#B63B3D"/>
  <rect x="1620" y="0" width="12" height="80" fill="#AF556F"/>
  <rect x="1632" y="0" width="12" height="80" fill="#A16982"/>
  <rect x="1644" y="0" width="12" height="80" fill="#C585A0"/>
  <rect x="1656" y="0" width="12" height="80" fill="#B18E88"/>
  <rect x="1668" y="0" width="12" height="80" fill="#9C6C86"/>
  <rect x="1680" y="0" width="12" height="80" fill="#7F6582"/>
  <rect x="1692" y="0" width="12" height="80" fill="#695C7A"/>
  <rect x="1704" y="0" width="12" height="80" fill="#654666"/>
  <rect x="1716" y="0" width="12" height="80" fill="#6C4361"/>
  <rect x="1728" y="0" width="12" height="80" fill="#6A336D"/>
  <rect x="1740" y="0" width="12" height="80" fill="#652E71"/>
  <rect x="1752" y="0" width="12" height="80" fill="#6A4163"/>
  <rect x="1764" y="0" width="12" height="80" fill="#6D597C"/>
  <rect x="1776" y="0" width="12" height="80" fill="#7B617C"/>
  <rect x="1788" y="0" width="12" height="80" fill="#7C657F"/>
  <rect x="1800" y="0" width="12" height="80" fill="#806681"/>
  <rect x="1812" y="0" width="12" height="80" fill="#757194"/>
  <rect x="1824" y="0" width="12" height="80" fill="#7E769B"/>
  <rect x="1836" y="0" width="12" height="80" fill="#835DC2"/>
  <rect x="1848" y="0" width="12" height="80" fill="#8853D5"/>
  <rect x="1860" y="0" width="12" height="80" fill="#8A43F7"/>
  <rect x="1872" y="0" width="12" height="80" fill="#280CD2"/>
  <rect x="1884" y="0" width="12" height="80" fill="#642E79"/>
  <rect x="1896" y="0" width="12" height="80" fill="#5E355D"/>
  <rect x="1908" y="0" width="12" height="80" fill="#63334D"/>
  <rect x="1920" y="0" width="12" height="80" fill="#663047"/>
  <rect x="1932" y="0" width="12" height="80" fill="#6F3146"/>
  <rect x="1944" y="0" width="12" height="80" fill="#6F3148"/>
  <rect x="1956" y="0" width="12" height="80" fill="#67334A"/>
  <rect x="1968" y="0" width="12" height="80" fill="#663852"/>
  <rect x="1980" y="0" width="12" height="80" fill="#66304A"/>
  <rect x="1992" y="0" width="12" height="80" fill="#5A264A"/>
  <rect x="2004" y="0" width="12" height="80" fill="#511E2F"/>
  <rect x="2016" y="0" width="12" height="80" fill="#4D1E2E"/>
  <rect x="2028" y="0" width="12" height="80" fill="#491F33"/>
  <rect x="2040" y="0" width="12" height="80" fill="#472130"/>
  <rect x="2052" y="0" width="12" height="80" fill="#3E2038"/>
  <rect x="2064" y="0" width="12" height="80" fill="#39213B"/>
  <rect x="2076" y="0" width="12" height="80" fill="#3B2440"/>
  <rect x="2088" y="0" width="12" height="80" fill="#512735"/>
  <rect x="2100" y="0" width="12" height="80" fill="#642A38"/>
  <rect x="2112" y="0" width="12" height="80" fill="#69313C"/>
  <rect x="2124" y="0" width="12" height="80" fill="#6D353E"/>
  <rect x="2136" y="0" width="12" height="80" fill="#763E3F"/>
  <rect x="2148" y="0" width="12" height="80" fill="#A44735"/>
  <rect x="2160" y="0" width="12" height="80" fill="#B9503D"/>
  <rect x="2172" y="0" width="12" height="80" fill="#C05640"/>
  <rect x="2184" y="0" width="12" height="80" fill="#BF5D40"/>
  <rect x="2196" y="0" width="12" height="80" fill="#EA676D"/>
  <rect x="2208" y="0" width="12" height="80" fill="#DDA3B2"/>
  <rect x="2220" y="0" width="12" height="80" fill="#FECC8F"/>
  <rect x="2232" y="0" width="12" height="80" fill="#BFBFE1"/>
  <rect x="2244" y="0" width="12" height="80" fill="#BDBDE1"/>
  <rect x="2256" y="0" width="12" height="80" fill="#BAB8DF"/>
  <rect x="2268" y="0" width="12" height="80" fill="#B4AFD7"/>
  <rect x="2280" y="0" width="12" height="80" fill="#A0A0C6"/>
  <rect x="2292" y="0" width="12" height="80" fill="#9292B6"/>
  <rect x="2304" y="0" width="12" height="80" fill="#767AA0"/>
  <rect x="2316" y="0" width="12" height="80" fill="#717092"/>
  <rect x="2328" y="0" width="12" height="80" fill="#816885"/>
  <rect x="2340" y="0" width="12" height="80" fill="#8A6382"/>
  <rect x="2352" y="0" width="12" height="80" fill="#927594"/>
  <rect x="2364" y="0" width="12" height="80" fill="#9E809C"/>
  <rect x="2376" y="0" width="12" height="80" fill="#A382A1"/>
  <rect x="2388" y="0" width="12" height="80" fill="#857FA3"/>
  <rect x="2400" y="0" width="12" height="80" fill="#73759B"/>
  <rect x="2412" y="0" width="12" height="80" fill="#6E7297"/>
  <rect x="2424" y="0" width="12" height="80" fill="#6D7196"/>
  <rect x="2436" y="0" width="12" height="80" fill="#6E7297"/>
  <rect x="2448" y="0" width="12" height="80" fill="#73779D"/>
  <rect x="2460" y="0" width="12" height="80" fill="#8781A5"/>
  <rect x="2472" y="0" width="12" height="80" fill="#9695BD"/>
  <rect x="2484" y="0" width="12" height="80" fill="#9D9BC3"/>
  <rect x="2496" y="0" width="12" height="80" fill="#B3AED6"/>
  <rect x="2508" y="0" width="12" height="80" fill="#B9B4DD"/>
  <rect x="2520" y="0" width="12" height="80" fill="#B8B3DB"/>
  <rect x="2532" y="0" width="12" height="80" fill="#B2B1D3"/>
  <rect x="2544" y="0" width="12" height="80" fill="#9F9DC5"/>
  <rect x="2556" y="0" width="12" height="80" fill="#9892B6"/>
  <rect x="2568" y="0" width="12" height="80" fill="#878BAE"/>
  <rect x="2580" y="0" width="12" height="80" fill="#787193"/>
  <rect x="2592" y="0" width="12" height="80" fill="#696283"/>
  <rect x="2604" y="0" width="12" height="80" fill="#64546F"/>
  <rect x="2616" y="0" width="12" height="80" fill="#704B5D"/>
  <rect x="2628" y="0" width="12" height="80" fill="#7A3E4A"/>
  <rect x="2640" y="0" width="12" height="80" fill="#9D3B30"/>
  <rect x="2652" y="0" width="12" height="80" fill="#A74635"/>
  <rect x="2664" y="0" width="12" height="80" fill="#AD6044"/>
  <rect x="2676" y="0" width="12" height="80" fill="#9B5F43"/>
  <rect x="2688" y="0" width="12" height="80" fill="#95664C"/>
  <rect x="2700" y="0" width="12" height="80" fill="#804D5E"/>
  <rect x="2712" y="0" width="12" height="80" fill="#6F4C60"/>
  <rect x="2724" y="0" width="12" height="80" fill="#563D50"/>
  <rect x="2736" y="0" width="12" height="80" fill="#443049"/>
  <rect x="2748" y="0" width="12" height="80" fill="#3C2541"/>
  <rect x="2760" y="0" width="12" height="80" fill="#38203A"/>
  <rect x="2772" y="0" width="12" height="80" fill="#38213B"/>
  <rect x="2784" y="0" width="12" height="80" fill="#3E2640"/>
  <rect x="2796" y="0" width="12" height="80" fill="#553D4D"/>
  <rect x="2808" y="0" width="12" height="80" fill="#674F67"/>
  <rect x="2820" y="0" width="12" height="80" fill="#6D6282"/>
  <rect x="2832" y="0" width="12" height="80" fill="#736F92"/>
  <rect x="2844" y="0" width="12" height="80" fill="#857599"/>
  <rect x="2856" y="0" width="12" height="80" fill="#9C718D"/>
  <rect x="2868" y="0" width="12" height="80" fill="#A0688B"/>
  <rect x="2880" y="0" width="12" height="80" fill="#A85478"/>
  <rect x="2892" y="0" width="12" height="80" fill="#A04C7E"/>
  <rect x="2904" y="0" width="12" height="80" fill="#784D61"/>
  <rect x="2916" y="0" width="12" height="80" fill="#714B60"/>
  <rect x="2928" y="0" width="12" height="80" fill="#684C63"/>
  <rect x="2940" y="0" width="12" height="80" fill="#635471"/>
  <rect x="2952" y="0" width="12" height="80" fill="#645977"/>
  <rect x="2964" y="0" width="12" height="80" fill="#5F5A7A"/>
  <rect x="2976" y="0" width="12" height="80" fill="#675C7C"/>
  <rect x="2988" y="0" width="12" height="80" fill="#695E7E"/>
  <rect x="3000" y="0" width="12" height="80" fill="#636282"/>
  <rect x="3012" y="0" width="12" height="80" fill="#6B6486"/>
  <rect x="3024" y="0" width="12" height="80" fill="#6D6386"/>
  <rect x="3036" y="0" width="12" height="80" fill="#83548B"/>
  <rect x="3048" y="0" width="12" height="80" fill="#865487"/>
  <rect x="3060" y="0" width="12" height="80" fill="#9E6A77"/>
</svg>
