<svg xmlns="http://www.w3.org/2000/svg" width="1536" height="80" viewBox="0 0 1536 80" preserveAspectRatio="none">
<metadata>
  <rdf:RDF xmlns:rdf="http://www.w3.org/1999/02/22-rdf-syntax-ns#"
           xmlns:dc="http://purl.org/dc/elements/1.1/"
           xmlns:cc="http://creativecommons.org/ns#">
    <cc:Work rdf:about="">
      <dc:title>F stands for liFe</dc:title>
      <dc:creator>
        <cc:Agent>
          <dc:title>F stands for liFe</dc:title>
        </cc:Agent>
      </dc:creator>
      <dc:rights>Copyright (c) 2021 F stands for liFe. All rights reserved.</dc:rights>
    </cc:Work>
  </rdf:RDF>
</metadata>
  <rect x="0" y="0" width="3" height="80" fill="#312E2C"/>
  <rect x="3" y="0" width="3" height="80" fill="#706455"/>
  <rect x="6" y="0" width="3" height="80" fill="#4C453B"/>
  <rect x="9" y="0" width="3" height="80" fill="#8C8376"/>
  <rect x="12" y="0" width="3" height="80" fill="#8F8678"/>
  <rect x="15" y="0" width="3" height="80" fill="#60594C"/>
  <rect x="18" y="0" width="3" height="80" fill="#373224"/>
  <rect x="21" y="0" width="3" height="80" fill="#6E6A62"/>
  <rect x="24" y="0" width="3" height="80" fill="#898985"/>
  <rect x="27" y="0" width="3" height="80" fill="#8C8B84"/>
  <rect x="30" y="0" width="3" height="80" fill="#7C7D77"/>
  <rect x="33" y="0" width="3" height="80" fill="#8C8C8A"/>
  <rect x="36" y="0" width="3" height="80" fill="#5A5A57"/>
  <rect x="39" y="0" width="3" height="80" fill="#535938"/>
  <rect x="42" y="0" width="3" height="80" fill="#D8D9D8"/>
  <rect x="45" y="0" width="3" height="80" fill="#E4E5E4"/>
  <rect x="48" y="0" width="3" height="80" fill="#D6D8D9"/>
  <rect x="51" y="0" width="3" height="80" fill="#898F94"/>
  <rect x="54" y="0" width="3" height="80" fill="#12283C"/>
  <rect x="57" y="0" width="3" height="80" fill="#26425D"/>
  <rect x="60" y="0" width="3" height="80" fill="#3A5C7D"/>
  <rect x="63" y="0" width="3" height="80" fill="#4A6680"/>
  <rect x="66" y="0" width="3" height="80" fill="#294662"/>
  <rect x="69" y="0" width="3" height="80" fill="#0B1F32"/>
  <rect x="72" y="0" width="3" height="80" fill="#112940"/>
  <rect x="75" y="0" width="3" height="80" fill="#17334E"/>
  <rect x="78" y="0" width="3" height="80" fill="#1C3C5C"/>
  <rect x="81" y="0" width="3" height="80" fill="#1D3D5C"/>
  <rect x="84" y="0" width="3" height="80" fill="#3F5A76"/>
  <rect x="87" y="0" width="3" height="80" fill="#2A3E52"/>
  <rect x="90" y="0" width="3" height="80" fill="#172B3E"/>
  <rect x="93" y="0" width="3" height="80" fill="#142639"/>
  <rect x="96" y="0" width="3" height="80" fill="#102234"/>
  <rect x="99" y="0" width="3" height="80" fill="#0D1E31"/>
  <rect x="102" y="0" width="3" height="80" fill="#112336"/>
  <rect x="105" y="0" width="3" height="80" fill="#15283B"/>
  <rect x="108" y="0" width="3" height="80" fill="#182B3F"/>
  <rect x="111" y="0" width="3" height="80" fill="#1A2D41"/>
  <rect x="114" y="0" width="3" height="80" fill="#1C2F43"/>
  <rect x="117" y="0" width="3" height="80" fill="#1E3145"/>
  <rect x="120" y="0" width="3" height="80" fill="#1E3246"/>
  <rect x="123" y="0" width="3" height="80" fill="#1C2F44"/>
  <rect x="126" y="0" width="3" height="80" fill="#192D42"/>
  <rect x="129" y="0" width="3" height="80" fill="#162A40"/>
  <rect x="132" y="0" width="3" height="80" fill="#13283E"/>
  <rect x="135" y="0" width="3" height="80" fill="#13273C"/>
  <rect x="138" y="0" width="3" height="80" fill="#14273A"/>
  <rect x="141" y="0" width="3" height="80" fill="#16283C"/>
  <rect x="144" y="0" width="3" height="80" fill="#1B2E42"/>
  <rect x="147" y="0" width="3" height="80" fill="#1F3348"/>
  <rect x="150" y="0" width="3" height="80" fill="#20364D"/>
  <rect x="153" y="0" width="3" height="80" fill="#1D3550"/>
  <rect x="156" y="0" width="3" height="80" fill="#1A3552"/>
  <rect x="159" y="0" width="3" height="80" fill="#183554"/>
  <rect x="162" y="0" width="3" height="80" fill="#1F3349"/>
  <rect x="165" y="0" width="3" height="80" fill="#0F2135"/>
  <rect x="168" y="0" width="3" height="80" fill="#0A1B2D"/>
  <rect x="171" y="0" width="3" height="80" fill="#132436"/>
  <rect x="174" y="0" width="3" height="80" fill="#1C2D3F"/>
  <rect x="177" y="0" width="3" height="80" fill="#263648"/>
  <rect x="180" y="0" width="3" height="80" fill="#2F3F51"/>
  <rect x="183" y="0" width="3" height="80" fill="#37485A"/>
  <rect x="186" y="0" width="3" height="80" fill="#3E5064"/>
  <rect x="189" y="0" width="3" height="80" fill="#213245"/>
  <rect x="192" y="0" width="3" height="80" fill="#1F3042"/>
  <rect x="195" y="0" width="3" height="80" fill="#364759"/>
  <rect x="198" y="0" width="3" height="80" fill="#48586A"/>
  <rect x="201" y="0" width="3" height="80" fill="#1C2B3D"/>
  <rect x="204" y="0" width="3" height="80" fill="#0F1E30"/>
  <rect x="207" y="0" width="3" height="80" fill="#263547"/>
  <rect x="210" y="0" width="3" height="80" fill="#3E4D5E"/>
  <rect x="213" y="0" width="3" height="80" fill="#566475"/>
  <rect x="216" y="0" width="3" height="80" fill="#6D7C8C"/>
  <rect x="219" y="0" width="3" height="80" fill="#8593A3"/>
  <rect x="222" y="0" width="3" height="80" fill="#364B63"/>
  <rect x="225" y="0" width="3" height="80" fill="#3E4D5F"/>
  <rect x="228" y="0" width="3" height="80" fill="#44586F"/>
  <rect x="231" y="0" width="3" height="80" fill="#465E79"/>
  <rect x="234" y="0" width="3" height="80" fill="#334962"/>
  <rect x="237" y="0" width="3" height="80" fill="#1F334C"/>
  <rect x="240" y="0" width="3" height="80" fill="#0B1E35"/>
  <rect x="243" y="0" width="3" height="80" fill="#1B2C40"/>
  <rect x="246" y="0" width="3" height="80" fill="#2B3A4B"/>
  <rect x="249" y="0" width="3" height="80" fill="#344253"/>
  <rect x="252" y="0" width="3" height="80" fill="#3E4B5A"/>
  <rect x="255" y="0" width="3" height="80" fill="#4D5864"/>
  <rect x="258" y="0" width="3" height="80" fill="#6B7077"/>
  <rect x="261" y="0" width="3" height="80" fill="#263546"/>
  <rect x="264" y="0" width="3" height="80" fill="#232F3E"/>
  <rect x="267" y="0" width="3" height="80" fill="#1F2937"/>
  <rect x="270" y="0" width="3" height="80" fill="#1B242F"/>
  <rect x="273" y="0" width="3" height="80" fill="#161F29"/>
  <rect x="276" y="0" width="3" height="80" fill="#121B26"/>
  <rect x="279" y="0" width="3" height="80" fill="#0D1724"/>
  <rect x="282" y="0" width="3" height="80" fill="#091422"/>
  <rect x="285" y="0" width="3" height="80" fill="#081422"/>
  <rect x="288" y="0" width="3" height="80" fill="#071322"/>
  <rect x="291" y="0" width="3" height="80" fill="#061221"/>
  <rect x="294" y="0" width="3" height="80" fill="#051121"/>
  <rect x="297" y="0" width="3" height="80" fill="#041121"/>
  <rect x="300" y="0" width="3" height="80" fill="#051222"/>
  <rect x="303" y="0" width="3" height="80" fill="#0A1625"/>
  <rect x="306" y="0" width="3" height="80" fill="#0E1A28"/>
  <rect x="309" y="0" width="3" height="80" fill="#131E2B"/>
  <rect x="312" y="0" width="3" height="80" fill="#18212E"/>
  <rect x="315" y="0" width="3" height="80" fill="#1C2531"/>
  <rect x="318" y="0" width="3" height="80" fill="#212934"/>
  <rect x="321" y="0" width="3" height="80" fill="#212933"/>
  <rect x="324" y="0" width="3" height="80" fill="#202730"/>
  <rect x="327" y="0" width="3" height="80" fill="#1E252E"/>
  <rect x="330" y="0" width="3" height="80" fill="#1D232B"/>
  <rect x="333" y="0" width="3" height="80" fill="#1E2732"/>
  <rect x="336" y="0" width="3" height="80" fill="#1F2A39"/>
  <rect x="339" y="0" width="3" height="80" fill="#202E40"/>
  <rect x="342" y="0" width="3" height="80" fill="#212F40"/>
  <rect x="345" y="0" width="3" height="80" fill="#223040"/>
  <rect x="348" y="0" width="3" height="80" fill="#243041"/>
  <rect x="351" y="0" width="3" height="80" fill="#253141"/>
  <rect x="354" y="0" width="3" height="80" fill="#253141"/>
  <rect x="357" y="0" width="3" height="80" fill="#1F2F44"/>
  <rect x="360" y="0" width="3" height="80" fill="#1A2D46"/>
  <rect x="363" y="0" width="3" height="80" fill="#142B49"/>
  <rect x="366" y="0" width="3" height="80" fill="#1B2C42"/>
  <rect x="369" y="0" width="3" height="80" fill="#323C4A"/>
  <rect x="372" y="0" width="3" height="80" fill="#48525F"/>
  <rect x="375" y="0" width="3" height="80" fill="#5C6572"/>
  <rect x="378" y="0" width="3" height="80" fill="#15202F"/>
  <rect x="381" y="0" width="3" height="80" fill="#111C2A"/>
  <rect x="384" y="0" width="3" height="80" fill="#17202D"/>
  <rect x="387" y="0" width="3" height="80" fill="#1D252F"/>
  <rect x="390" y="0" width="3" height="80" fill="#2F3842"/>
  <rect x="393" y="0" width="3" height="80" fill="#47505C"/>
  <rect x="396" y="0" width="3" height="80" fill="#5E6875"/>
  <rect x="399" y="0" width="3" height="80" fill="#798492"/>
  <rect x="402" y="0" width="3" height="80" fill="#4A5666"/>
  <rect x="405" y="0" width="3" height="80" fill="#1F2B3B"/>
  <rect x="408" y="0" width="3" height="80" fill="#212C3B"/>
  <rect x="411" y="0" width="3" height="80" fill="#232D3A"/>
  <rect x="414" y="0" width="3" height="80" fill="#252E3A"/>
  <rect x="417" y="0" width="3" height="80" fill="#282F3A"/>
  <rect x="420" y="0" width="3" height="80" fill="#19222E"/>
  <rect x="423" y="0" width="3" height="80" fill="#071220"/>
  <rect x="426" y="0" width="3" height="80" fill="#05101F"/>
  <rect x="429" y="0" width="3" height="80" fill="#091424"/>
  <rect x="432" y="0" width="3" height="80" fill="#0D1828"/>
  <rect x="435" y="0" width="3" height="80" fill="#111D2D"/>
  <rect x="438" y="0" width="3" height="80" fill="#152131"/>
  <rect x="441" y="0" width="3" height="80" fill="#192535"/>
  <rect x="444" y="0" width="3" height="80" fill="#192537"/>
  <rect x="447" y="0" width="3" height="80" fill="#162336"/>
  <rect x="450" y="0" width="3" height="80" fill="#122034"/>
  <rect x="453" y="0" width="3" height="80" fill="#0F1E33"/>
  <rect x="456" y="0" width="3" height="80" fill="#0B1B32"/>
  <rect x="459" y="0" width="3" height="80" fill="#081931"/>
  <rect x="462" y="0" width="3" height="80" fill="#384659"/>
  <rect x="465" y="0" width="3" height="80" fill="#77808D"/>
  <rect x="468" y="0" width="3" height="80" fill="#192434"/>
  <rect x="471" y="0" width="3" height="80" fill="#162336"/>
  <rect x="474" y="0" width="3" height="80" fill="#142337"/>
  <rect x="477" y="0" width="3" height="80" fill="#122239"/>
  <rect x="480" y="0" width="3" height="80" fill="#10213A"/>
  <rect x="483" y="0" width="3" height="80" fill="#0E213C"/>
  <rect x="486" y="0" width="3" height="80" fill="#0C203D"/>
  <rect x="489" y="0" width="3" height="80" fill="#162842"/>
  <rect x="492" y="0" width="3" height="80" fill="#343E4E"/>
  <rect x="495" y="0" width="3" height="80" fill="#333E4F"/>
  <rect x="498" y="0" width="3" height="80" fill="#323E50"/>
  <rect x="501" y="0" width="3" height="80" fill="#313E52"/>
  <rect x="504" y="0" width="3" height="80" fill="#303E53"/>
  <rect x="507" y="0" width="3" height="80" fill="#2F3E54"/>
  <rect x="510" y="0" width="3" height="80" fill="#2E3E56"/>
  <rect x="513" y="0" width="3" height="80" fill="#2F3F56"/>
  <rect x="516" y="0" width="3" height="80" fill="#324055"/>
  <rect x="519" y="0" width="3" height="80" fill="#354153"/>
  <rect x="522" y="0" width="3" height="80" fill="#384352"/>
  <rect x="525" y="0" width="3" height="80" fill="#353F4E"/>
  <rect x="528" y="0" width="3" height="80" fill="#2F3947"/>
  <rect x="531" y="0" width="3" height="80" fill="#283241"/>
  <rect x="534" y="0" width="3" height="80" fill="#222C3B"/>
  <rect x="537" y="0" width="3" height="80" fill="#1B2535"/>
  <rect x="540" y="0" width="3" height="80" fill="#162030"/>
  <rect x="543" y="0" width="3" height="80" fill="#161F2E"/>
  <rect x="546" y="0" width="3" height="80" fill="#151E2B"/>
  <rect x="549" y="0" width="3" height="80" fill="#151D29"/>
  <rect x="552" y="0" width="3" height="80" fill="#151C27"/>
  <rect x="555" y="0" width="3" height="80" fill="#141B25"/>
  <rect x="558" y="0" width="3" height="80" fill="#141C28"/>
  <rect x="561" y="0" width="3" height="80" fill="#131D2C"/>
  <rect x="564" y="0" width="3" height="80" fill="#121D2E"/>
  <rect x="567" y="0" width="3" height="80" fill="#121D2E"/>
  <rect x="570" y="0" width="3" height="80" fill="#121D2D"/>
  <rect x="573" y="0" width="3" height="80" fill="#121C2C"/>
  <rect x="576" y="0" width="3" height="80" fill="#121C2C"/>
  <rect x="579" y="0" width="3" height="80" fill="#121C2B"/>
  <rect x="582" y="0" width="3" height="80" fill="#121C2A"/>
  <rect x="585" y="0" width="3" height="80" fill="#111B29"/>
  <rect x="588" y="0" width="3" height="80" fill="#111A29"/>
  <rect x="591" y="0" width="3" height="80" fill="#101928"/>
  <rect x="594" y="0" width="3" height="80" fill="#0F1827"/>
  <rect x="597" y="0" width="3" height="80" fill="#0F1928"/>
  <rect x="600" y="0" width="3" height="80" fill="#0F192A"/>
  <rect x="603" y="0" width="3" height="80" fill="#101A2B"/>
  <rect x="606" y="0" width="3" height="80" fill="#101A2D"/>
  <rect x="609" y="0" width="3" height="80" fill="#101B2E"/>
  <rect x="612" y="0" width="3" height="80" fill="#101C2F"/>
  <rect x="615" y="0" width="3" height="80" fill="#101C31"/>
  <rect x="618" y="0" width="3" height="80" fill="#101D32"/>
  <rect x="621" y="0" width="3" height="80" fill="#101D34"/>
  <rect x="624" y="0" width="3" height="80" fill="#101E35"/>
  <rect x="627" y="0" width="3" height="80" fill="#111F37"/>
  <rect x="630" y="0" width="3" height="80" fill="#111F38"/>
  <rect x="633" y="0" width="3" height="80" fill="#11203A"/>
  <rect x="636" y="0" width="3" height="80" fill="#18263D"/>
  <rect x="639" y="0" width="3" height="80" fill="#2E3644"/>
  <rect x="642" y="0" width="3" height="80" fill="#2E3745"/>
  <rect x="645" y="0" width="3" height="80" fill="#2F3746"/>
  <rect x="648" y="0" width="3" height="80" fill="#303847"/>
  <rect x="651" y="0" width="3" height="80" fill="#313948"/>
  <rect x="654" y="0" width="3" height="80" fill="#2F3745"/>
  <rect x="657" y="0" width="3" height="80" fill="#29303D"/>
  <rect x="660" y="0" width="3" height="80" fill="#232935"/>
  <rect x="663" y="0" width="3" height="80" fill="#1D232D"/>
  <rect x="666" y="0" width="3" height="80" fill="#171C25"/>
  <rect x="669" y="0" width="3" height="80" fill="#11161E"/>
  <rect x="672" y="0" width="3" height="80" fill="#0B111C"/>
  <rect x="675" y="0" width="3" height="80" fill="#060D19"/>
  <rect x="678" y="0" width="3" height="80" fill="#030A17"/>
  <rect x="681" y="0" width="3" height="80" fill="#070D19"/>
  <rect x="684" y="0" width="3" height="80" fill="#0A101B"/>
  <rect x="687" y="0" width="3" height="80" fill="#0E131D"/>
  <rect x="690" y="0" width="3" height="80" fill="#11161F"/>
  <rect x="693" y="0" width="3" height="80" fill="#151920"/>
  <rect x="696" y="0" width="3" height="80" fill="#181C22"/>
  <rect x="699" y="0" width="3" height="80" fill="#1A2233"/>
  <rect x="702" y="0" width="3" height="80" fill="#1B2945"/>
  <rect x="705" y="0" width="3" height="80" fill="#1F3050"/>
  <rect x="708" y="0" width="3" height="80" fill="#253656"/>
  <rect x="711" y="0" width="3" height="80" fill="#2C3C5C"/>
  <rect x="714" y="0" width="3" height="80" fill="#2E3D5C"/>
  <rect x="717" y="0" width="3" height="80" fill="#24314A"/>
  <rect x="720" y="0" width="3" height="80" fill="#1A2438"/>
  <rect x="723" y="0" width="3" height="80" fill="#101727"/>
  <rect x="726" y="0" width="3" height="80" fill="#0E1421"/>
  <rect x="729" y="0" width="3" height="80" fill="#0E141F"/>
  <rect x="732" y="0" width="3" height="80" fill="#0E131D"/>
  <rect x="735" y="0" width="3" height="80" fill="#0E121A"/>
  <rect x="738" y="0" width="3" height="80" fill="#1D2129"/>
  <rect x="741" y="0" width="3" height="80" fill="#2D3139"/>
  <rect x="744" y="0" width="3" height="80" fill="#3E4149"/>
  <rect x="747" y="0" width="3" height="80" fill="#4A4E56"/>
  <rect x="750" y="0" width="3" height="80" fill="#52565E"/>
  <rect x="753" y="0" width="3" height="80" fill="#474B54"/>
  <rect x="756" y="0" width="3" height="80" fill="#1F242F"/>
  <rect x="759" y="0" width="3" height="80" fill="#0E131F"/>
  <rect x="762" y="0" width="3" height="80" fill="#1B202A"/>
  <rect x="765" y="0" width="3" height="80" fill="#282C35"/>
  <rect x="768" y="0" width="3" height="80" fill="#343841"/>
  <rect x="771" y="0" width="3" height="80" fill="#41454C"/>
  <rect x="774" y="0" width="3" height="80" fill="#4E5157"/>
  <rect x="777" y="0" width="3" height="80" fill="#50535A"/>
  <rect x="780" y="0" width="3" height="80" fill="#52555C"/>
  <rect x="783" y="0" width="3" height="80" fill="#4C4F57"/>
  <rect x="786" y="0" width="3" height="80" fill="#43474E"/>
  <rect x="789" y="0" width="3" height="80" fill="#2F343E"/>
  <rect x="792" y="0" width="3" height="80" fill="#181E2B"/>
  <rect x="795" y="0" width="3" height="80" fill="#0C1321"/>
  <rect x="798" y="0" width="3" height="80" fill="#101624"/>
  <rect x="801" y="0" width="3" height="80" fill="#141A27"/>
  <rect x="804" y="0" width="3" height="80" fill="#181D29"/>
  <rect x="807" y="0" width="3" height="80" fill="#1C212C"/>
  <rect x="810" y="0" width="3" height="80" fill="#20242F"/>
  <rect x="813" y="0" width="3" height="80" fill="#242831"/>
  <rect x="816" y="0" width="3" height="80" fill="#282C34"/>
  <rect x="819" y="0" width="3" height="80" fill="#2C2F37"/>
  <rect x="822" y="0" width="3" height="80" fill="#303339"/>
  <rect x="825" y="0" width="3" height="80" fill="#33353C"/>
  <rect x="828" y="0" width="3" height="80" fill="#35383E"/>
  <rect x="831" y="0" width="3" height="80" fill="#373A41"/>
  <rect x="834" y="0" width="3" height="80" fill="#393C43"/>
  <rect x="837" y="0" width="3" height="80" fill="#3B3E46"/>
  <rect x="840" y="0" width="3" height="80" fill="#2D3039"/>
  <rect x="843" y="0" width="3" height="80" fill="#161924"/>
  <rect x="846" y="0" width="3" height="80" fill="#040814"/>
  <rect x="849" y="0" width="3" height="80" fill="#121621"/>
  <rect x="852" y="0" width="3" height="80" fill="#20242F"/>
  <rect x="855" y="0" width="3" height="80" fill="#2E323C"/>
  <rect x="858" y="0" width="3" height="80" fill="#3C3F49"/>
  <rect x="861" y="0" width="3" height="80" fill="#4A4D57"/>
  <rect x="864" y="0" width="3" height="80" fill="#585B64"/>
  <rect x="867" y="0" width="3" height="80" fill="#4C4F58"/>
  <rect x="870" y="0" width="3" height="80" fill="#33363E"/>
  <rect x="873" y="0" width="3" height="80" fill="#1A1D24"/>
  <rect x="876" y="0" width="3" height="80" fill="#080A11"/>
  <rect x="879" y="0" width="3" height="80" fill="#090B11"/>
  <rect x="882" y="0" width="3" height="80" fill="#0A0C12"/>
  <rect x="885" y="0" width="3" height="80" fill="#0C0D12"/>
  <rect x="888" y="0" width="3" height="80" fill="#0C0D12"/>
  <rect x="891" y="0" width="3" height="80" fill="#0A0B11"/>
  <rect x="894" y="0" width="3" height="80" fill="#070810"/>
  <rect x="897" y="0" width="3" height="80" fill="#04060E"/>
  <rect x="900" y="0" width="3" height="80" fill="#02030D"/>
  <rect x="903" y="0" width="3" height="80" fill="#060811"/>
  <rect x="906" y="0" width="3" height="80" fill="#0C0D16"/>
  <rect x="909" y="0" width="3" height="80" fill="#12131C"/>
  <rect x="912" y="0" width="3" height="80" fill="#171921"/>
  <rect x="915" y="0" width="3" height="80" fill="#1D1E26"/>
  <rect x="918" y="0" width="3" height="80" fill="#23242B"/>
  <rect x="921" y="0" width="3" height="80" fill="#292A30"/>
  <rect x="924" y="0" width="3" height="80" fill="#2A2B32"/>
  <rect x="927" y="0" width="3" height="80" fill="#25262F"/>
  <rect x="930" y="0" width="3" height="80" fill="#20212C"/>
  <rect x="933" y="0" width="3" height="80" fill="#1B1C28"/>
  <rect x="936" y="0" width="3" height="80" fill="#151620"/>
  <rect x="939" y="0" width="3" height="80" fill="#0E1018"/>
  <rect x="942" y="0" width="3" height="80" fill="#080910"/>
  <rect x="945" y="0" width="3" height="80" fill="#020308"/>
  <rect x="948" y="0" width="3" height="80" fill="#05050A"/>
  <rect x="951" y="0" width="3" height="80" fill="#08090D"/>
  <rect x="954" y="0" width="3" height="80" fill="#0B0C10"/>
  <rect x="957" y="0" width="3" height="80" fill="#0F0F14"/>
  <rect x="960" y="0" width="3" height="80" fill="#121217"/>
  <rect x="963" y="0" width="3" height="80" fill="#15161A"/>
  <rect x="966" y="0" width="3" height="80" fill="#19191D"/>
  <rect x="969" y="0" width="3" height="80" fill="#1C1C21"/>
  <rect x="972" y="0" width="3" height="80" fill="#1F2024"/>
  <rect x="975" y="0" width="3" height="80" fill="#1B1B1F"/>
  <rect x="978" y="0" width="3" height="80" fill="#15161A"/>
  <rect x="981" y="0" width="3" height="80" fill="#101014"/>
  <rect x="984" y="0" width="3" height="80" fill="#0A0A0E"/>
  <rect x="987" y="0" width="3" height="80" fill="#08090C"/>
  <rect x="990" y="0" width="3" height="80" fill="#0F0F13"/>
  <rect x="993" y="0" width="3" height="80" fill="#16161A"/>
  <rect x="996" y="0" width="3" height="80" fill="#1D1D22"/>
  <rect x="999" y="0" width="3" height="80" fill="#232429"/>
  <rect x="1002" y="0" width="3" height="80" fill="#28292E"/>
  <rect x="1005" y="0" width="3" height="80" fill="#27282C"/>
  <rect x="1008" y="0" width="3" height="80" fill="#26262B"/>
  <rect x="1011" y="0" width="3" height="80" fill="#252529"/>
  <rect x="1014" y="0" width="3" height="80" fill="#232327"/>
  <rect x="1017" y="0" width="3" height="80" fill="#1F1F22"/>
  <rect x="1020" y="0" width="3" height="80" fill="#1B1A1E"/>
  <rect x="1023" y="0" width="3" height="80" fill="#17171A"/>
  <rect x="1026" y="0" width="3" height="80" fill="#161518"/>
  <rect x="1029" y="0" width="3" height="80" fill="#141417"/>
  <rect x="1032" y="0" width="3" height="80" fill="#131215"/>
  <rect x="1035" y="0" width="3" height="80" fill="#49494D"/>
  <rect x="1038" y="0" width="3" height="80" fill="#817F85"/>
  <rect x="1041" y="0" width="3" height="80" fill="#B1AFB7"/>
  <rect x="1044" y="0" width="3" height="80" fill="#5D5C60"/>
  <rect x="1047" y="0" width="3" height="80" fill="#2C2B2E"/>
  <rect x="1050" y="0" width="3" height="80" fill="#6B696F"/>
  <rect x="1053" y="0" width="3" height="80" fill="#AAA8B0"/>
  <rect x="1056" y="0" width="3" height="80" fill="#9A979F"/>
  <rect x="1059" y="0" width="3" height="80" fill="#67656A"/>
  <rect x="1062" y="0" width="3" height="80" fill="#343336"/>
  <rect x="1065" y="0" width="3" height="80" fill="#020102"/>
  <rect x="1068" y="0" width="3" height="80" fill="#121213"/>
  <rect x="1071" y="0" width="3" height="80" fill="#232224"/>
  <rect x="1074" y="0" width="3" height="80" fill="#343335"/>
  <rect x="1077" y="0" width="3" height="80" fill="#454346"/>
  <rect x="1080" y="0" width="3" height="80" fill="#555457"/>
  <rect x="1083" y="0" width="3" height="80" fill="#666468"/>
  <rect x="1086" y="0" width="3" height="80" fill="#777579"/>
  <rect x="1089" y="0" width="3" height="80" fill="#88858A"/>
  <rect x="1092" y="0" width="3" height="80" fill="#98969B"/>
  <rect x="1095" y="0" width="3" height="80" fill="#A9A6AC"/>
  <rect x="1098" y="0" width="3" height="80" fill="#BAB6BD"/>
  <rect x="1101" y="0" width="3" height="80" fill="#BBB6BE"/>
  <rect x="1104" y="0" width="3" height="80" fill="#98919B"/>
  <rect x="1107" y="0" width="3" height="80" fill="#756D78"/>
  <rect x="1110" y="0" width="3" height="80" fill="#534855"/>
  <rect x="1113" y="0" width="3" height="80" fill="#2E2230"/>
  <rect x="1116" y="0" width="3" height="80" fill="#140C0E"/>
  <rect x="1119" y="0" width="3" height="80" fill="#1E0E13"/>
  <rect x="1122" y="0" width="3" height="80" fill="#271117"/>
  <rect x="1125" y="0" width="3" height="80" fill="#391A21"/>
  <rect x="1128" y="0" width="3" height="80" fill="#4B242B"/>
  <rect x="1131" y="0" width="3" height="80" fill="#553037"/>
  <rect x="1134" y="0" width="3" height="80" fill="#430711"/>
  <rect x="1137" y="0" width="3" height="80" fill="#13080A"/>
  <rect x="1140" y="0" width="3" height="80" fill="#240F12"/>
  <rect x="1143" y="0" width="3" height="80" fill="#35161B"/>
  <rect x="1146" y="0" width="3" height="80" fill="#461D23"/>
  <rect x="1149" y="0" width="3" height="80" fill="#56242C"/>
  <rect x="1152" y="0" width="3" height="80" fill="#780E1D"/>
  <rect x="1155" y="0" width="3" height="80" fill="#B02235"/>
  <rect x="1158" y="0" width="3" height="80" fill="#720715"/>
  <rect x="1161" y="0" width="3" height="80" fill="#54141C"/>
  <rect x="1164" y="0" width="3" height="80" fill="#751924"/>
  <rect x="1167" y="0" width="3" height="80" fill="#491219"/>
  <rect x="1170" y="0" width="3" height="80" fill="#450F16"/>
  <rect x="1173" y="0" width="3" height="80" fill="#630510"/>
  <rect x="1176" y="0" width="3" height="80" fill="#7F0B19"/>
  <rect x="1179" y="0" width="3" height="80" fill="#750B18"/>
  <rect x="1182" y="0" width="3" height="80" fill="#6A0C17"/>
  <rect x="1185" y="0" width="3" height="80" fill="#600C16"/>
  <rect x="1188" y="0" width="3" height="80" fill="#560C15"/>
  <rect x="1191" y="0" width="3" height="80" fill="#4C0C13"/>
  <rect x="1194" y="0" width="3" height="80" fill="#420C12"/>
  <rect x="1197" y="0" width="3" height="80" fill="#370C11"/>
  <rect x="1200" y="0" width="3" height="80" fill="#2D0C10"/>
  <rect x="1203" y="0" width="3" height="80" fill="#230D0F"/>
  <rect x="1206" y="0" width="3" height="80" fill="#1F0E10"/>
  <rect x="1209" y="0" width="3" height="80" fill="#75212B"/>
  <rect x="1212" y="0" width="3" height="80" fill="#792A33"/>
  <rect x="1215" y="0" width="3" height="80" fill="#600610"/>
  <rect x="1218" y="0" width="3" height="80" fill="#360B10"/>
  <rect x="1221" y="0" width="3" height="80" fill="#610F18"/>
  <rect x="1224" y="0" width="3" height="80" fill="#AF071A"/>
  <rect x="1227" y="0" width="3" height="80" fill="#A92735"/>
  <rect x="1230" y="0" width="3" height="80" fill="#99202E"/>
  <rect x="1233" y="0" width="3" height="80" fill="#AE1829"/>
  <rect x="1236" y="0" width="3" height="80" fill="#C41024"/>
  <rect x="1239" y="0" width="3" height="80" fill="#C25561"/>
  <rect x="1242" y="0" width="3" height="80" fill="#C44250"/>
  <rect x="1245" y="0" width="3" height="80" fill="#BA434F"/>
  <rect x="1248" y="0" width="3" height="80" fill="#B0434E"/>
  <rect x="1251" y="0" width="3" height="80" fill="#A5444E"/>
  <rect x="1254" y="0" width="3" height="80" fill="#C82F3F"/>
  <rect x="1257" y="0" width="3" height="80" fill="#9E1522"/>
  <rect x="1260" y="0" width="3" height="80" fill="#901824"/>
  <rect x="1263" y="0" width="3" height="80" fill="#831B25"/>
  <rect x="1266" y="0" width="3" height="80" fill="#751E27"/>
  <rect x="1269" y="0" width="3" height="80" fill="#9E2E39"/>
  <rect x="1272" y="0" width="3" height="80" fill="#8D2731"/>
  <rect x="1275" y="0" width="3" height="80" fill="#821F28"/>
  <rect x="1278" y="0" width="3" height="80" fill="#AE515A"/>
  <rect x="1281" y="0" width="3" height="80" fill="#C82D3C"/>
  <rect x="1284" y="0" width="3" height="80" fill="#A00816"/>
  <rect x="1287" y="0" width="3" height="80" fill="#A94851"/>
  <rect x="1290" y="0" width="3" height="80" fill="#92121D"/>
  <rect x="1293" y="0" width="3" height="80" fill="#9B111D"/>
  <rect x="1296" y="0" width="3" height="80" fill="#A3101D"/>
  <rect x="1299" y="0" width="3" height="80" fill="#AC0F1C"/>
  <rect x="1302" y="0" width="3" height="80" fill="#67141B"/>
  <rect x="1305" y="0" width="3" height="80" fill="#7D1E26"/>
  <rect x="1308" y="0" width="3" height="80" fill="#4E050C"/>
  <rect x="1311" y="0" width="3" height="80" fill="#47090E"/>
  <rect x="1314" y="0" width="3" height="80" fill="#63070F"/>
  <rect x="1317" y="0" width="3" height="80" fill="#933038"/>
  <rect x="1320" y="0" width="3" height="80" fill="#B0676D"/>
  <rect x="1323" y="0" width="3" height="80" fill="#9C212B"/>
  <rect x="1326" y="0" width="3" height="80" fill="#5E0D13"/>
  <rect x="1329" y="0" width="3" height="80" fill="#520E13"/>
  <rect x="1332" y="0" width="3" height="80" fill="#811921"/>
  <rect x="1335" y="0" width="3" height="80" fill="#B52A34"/>
  <rect x="1338" y="0" width="3" height="80" fill="#D2404B"/>
  <rect x="1341" y="0" width="3" height="80" fill="#981720"/>
  <rect x="1344" y="0" width="3" height="80" fill="#9F0611"/>
  <rect x="1347" y="0" width="3" height="80" fill="#C33E47"/>
  <rect x="1350" y="0" width="3" height="80" fill="#9F252D"/>
  <rect x="1353" y="0" width="3" height="80" fill="#E1666E"/>
  <rect x="1356" y="0" width="3" height="80" fill="#9E111A"/>
  <rect x="1359" y="0" width="3" height="80" fill="#A7242C"/>
  <rect x="1362" y="0" width="3" height="80" fill="#BC5D63"/>
  <rect x="1365" y="0" width="3" height="80" fill="#6C1218"/>
  <rect x="1368" y="0" width="3" height="80" fill="#77191F"/>
  <rect x="1371" y="0" width="3" height="80" fill="#E07C82"/>
  <rect x="1374" y="0" width="3" height="80" fill="#8C1117"/>
  <rect x="1377" y="0" width="3" height="80" fill="#991B21"/>
  <rect x="1380" y="0" width="3" height="80" fill="#A6252C"/>
  <rect x="1383" y="0" width="3" height="80" fill="#B42F36"/>
  <rect x="1386" y="0" width="3" height="80" fill="#C0373F"/>
  <rect x="1389" y="0" width="3" height="80" fill="#C02F37"/>
  <rect x="1392" y="0" width="3" height="80" fill="#B92E35"/>
  <rect x="1395" y="0" width="3" height="80" fill="#E5565D"/>
  <rect x="1398" y="0" width="3" height="80" fill="#350D0F"/>
  <rect x="1401" y="0" width="3" height="80" fill="#88262B"/>
  <rect x="1404" y="0" width="3" height="80" fill="#DC3F46"/>
  <rect x="1407" y="0" width="3" height="80" fill="#2B0405"/>
  <rect x="1410" y="0" width="3" height="80" fill="#400609"/>
  <rect x="1413" y="0" width="3" height="80" fill="#55090D"/>
  <rect x="1416" y="0" width="3" height="80" fill="#A15A5E"/>
  <rect x="1419" y="0" width="3" height="80" fill="#380305"/>
  <rect x="1422" y="0" width="3" height="80" fill="#400305"/>
  <rect x="1425" y="0" width="3" height="80" fill="#55090C"/>
  <rect x="1428" y="0" width="3" height="80" fill="#831A1E"/>
  <rect x="1431" y="0" width="3" height="80" fill="#A6282E"/>
  <rect x="1434" y="0" width="3" height="80" fill="#92272B"/>
  <rect x="1437" y="0" width="3" height="80" fill="#1E0405"/>
  <rect x="1440" y="0" width="3" height="80" fill="#581215"/>
  <rect x="1443" y="0" width="3" height="80" fill="#922125"/>
  <rect x="1446" y="0" width="3" height="80" fill="#8A1217"/>
  <rect x="1449" y="0" width="3" height="80" fill="#700207"/>
  <rect x="1452" y="0" width="3" height="80" fill="#6B0206"/>
  <rect x="1455" y="0" width="3" height="80" fill="#590206"/>
  <rect x="1458" y="0" width="3" height="80" fill="#400205"/>
  <rect x="1461" y="0" width="3" height="80" fill="#350204"/>
  <rect x="1464" y="0" width="3" height="80" fill="#2C0204"/>
  <rect x="1467" y="0" width="3" height="80" fill="#5B0E11"/>
  <rect x="1470" y="0" width="3" height="80" fill="#8C1A1E"/>
  <rect x="1473" y="0" width="3" height="80" fill="#8F0C11"/>
  <rect x="1476" y="0" width="3" height="80" fill="#670206"/>
  <rect x="1479" y="0" width="3" height="80" fill="#590205"/>
  <rect x="1482" y="0" width="3" height="80" fill="#5E0205"/>
  <rect x="1485" y="0" width="3" height="80" fill="#6F090C"/>
  <rect x="1488" y="0" width="3" height="80" fill="#7B0F12"/>
  <rect x="1491" y="0" width="3" height="80" fill="#6B0F12"/>
  <rect x="1494" y="0" width="3" height="80" fill="#7A1719"/>
  <rect x="1497" y="0" width="3" height="80" fill="#5D090C"/>
  <rect x="1500" y="0" width="3" height="80" fill="#873C3E"/>
  <rect x="1503" y="0" width="3" height="80" fill="#EA9E9F"/>
  <rect x="1506" y="0" width="3" height="80" fill="#7E1618"/>
  <rect x="1509" y="0" width="3" height="80" fill="#7E2D2E"/>
  <rect x="1512" y="0" width="3" height="80" fill="#644443"/>
  <rect x="1515" y="0" width="3" height="80" fill="#AF8986"/>
  <rect x="1518" y="0" width="3" height="80" fill="#E5CDC8"/>
  <rect x="1521" y="0" width="3" height="80" fill="#463B34"/>
  <rect x="1524" y="0" width="3" height="80" fill="#352C26"/>
  <rect x="1527" y="0" width="3" height="80" fill="#A9998B"/>
  <rect x="1530" y="0" width="3" height="80" fill="#7A6D61"/>
  <rect x="1533" y="0" width="3" height="80" fill="#312E2C"/>
</svg>
