<svg xmlns="http://www.w3.org/2000/svg" width="768" height="80" viewBox="0 0 768 80" preserveAspectRatio="none">
  <rect x="0" y="0" width="3" height="80" fill="#C5E0F5"/>
  <rect x="3" y="0" width="3" height="80" fill="#C6E5FA"/>
  <rect x="6" y="0" width="3" height="80" fill="#BBDDF8"/>
  <rect x="9" y="0" width="3" height="80" fill="#A0C4F6"/>
  <rect x="12" y="0" width="3" height="80" fill="#7F9DD1"/>
  <rect x="15" y="0" width="3" height="80" fill="#6892C2"/>
  <rect x="18" y="0" width="3" height="80" fill="#476B9F"/>
  <rect x="21" y="0" width="3" height="80" fill="#2D4C9C"/>
  <rect x="24" y="0" width="3" height="80" fill="#18448D"/>
  <rect x="27" y="0" width="3" height="80" fill="#23487C"/>
  <rect x="30" y="0" width="3" height="80" fill="#4C5F7F"/>
  <rect x="33" y="0" width="3" height="80" fill="#965B6D"/>
  <rect x="36" y="0" width="3" height="80" fill="#B56878"/>
  <rect x="39" y="0" width="3" height="80" fill="#BB687C"/>
  <rect x="42" y="0" width="3" height="80" fill="#C35B76"/>
  <rect x="45" y="0" width="3" height="80" fill="#CC4566"/>
  <rect x="48" y="0" width="3" height="80" fill="#BF4262"/>
  <rect x="51" y="0" width="3" height="80" fill="#AD5C7D"/>
  <rect x="54" y="0" width="3" height="80" fill="#AA6883"/>
  <rect x="57" y="0" width="3" height="80" fill="#C1788C"/>
  <rect x="60" y="0" width="3" height="80" fill="#A08DA0"/>
  <rect x="63" y="0" width="3" height="80" fill="#9D778C"/>
  <rect x="66" y="0" width="3" height="80" fill="#987093"/>
  <rect x="69" y="0" width="3" height="80" fill="#7E557D"/>
  <rect x="72" y="0" width="3" height="80" fill="#534173"/>
  <rect x="75" y="0" width="3" height="80" fill="#314465"/>
  <rect x="78" y="0" width="3" height="80" fill="#112C63"/>
  <rect x="81" y="0" width="3" height="80" fill="#11134C"/>
  <rect x="84" y="0" width="3" height="80" fill="#0C0B37"/>
  <rect x="87" y="0" width="3" height="80" fill="#0F092D"/>
  <rect x="90" y="0" width="3" height="80" fill="#0D0729"/>
  <rect x="93" y="0" width="3" height="80" fill="#0D0729"/>
  <rect x="96" y="0" width="3" height="80" fill="#0B061D"/>
  <rect x="99" y="0" width="3" height="80" fill="#0C0526"/>
  <rect x="102" y="0" width="3" height="80" fill="#140E2A"/>
  <rect x="105" y="0" width="3" height="80" fill="#111032"/>
  <rect x="108" y="0" width="3" height="80" fill="#0E0B40"/>
  <rect x="111" y="0" width="3" height="80" fill="#0B1956"/>
  <rect x="114" y="0" width="3" height="80" fill="#152877"/>
  <rect x="117" y="0" width="3" height="80" fill="#2F5294"/>
  <rect x="120" y="0" width="3" height="80" fill="#616EA3"/>
  <rect x="123" y="0" width="3" height="80" fill="#9593D2"/>
  <rect x="126" y="0" width="3" height="80" fill="#B0B2EF"/>
  <rect x="129" y="0" width="3" height="80" fill="#B7C0F7"/>
  <rect x="132" y="0" width="3" height="80" fill="#C8E3F4"/>
  <rect x="135" y="0" width="3" height="80" fill="#BCD6E5"/>
  <rect x="138" y="0" width="3" height="80" fill="#BBB6D4"/>
  <rect x="141" y="0" width="3" height="80" fill="#A2A2BA"/>
  <rect x="144" y="0" width="3" height="80" fill="#8B819C"/>
  <rect x="147" y="0" width="3" height="80" fill="#887797"/>
  <rect x="150" y="0" width="3" height="80" fill="#7C566D"/>
  <rect x="153" y="0" width="3" height="80" fill="#652353"/>
  <rect x="156" y="0" width="3" height="80" fill="#5E1A41"/>
  <rect x="159" y="0" width="3" height="80" fill="#55123E"/>
  <rect x="162" y="0" width="3" height="80" fill="#4E104F"/>
  <rect x="165" y="0" width="3" height="80" fill="#591544"/>
  <rect x="168" y="0" width="3" height="80" fill="#A52D5B"/>
  <rect x="171" y="0" width="3" height="80" fill="#A82F5C"/>
  <rect x="174" y="0" width="3" height="80" fill="#C13751"/>
  <rect x="177" y="0" width="3" height="80" fill="#B23658"/>
  <rect x="180" y="0" width="3" height="80" fill="#A3275B"/>
  <rect x="183" y="0" width="3" height="80" fill="#701B5C"/>
  <rect x="186" y="0" width="3" height="80" fill="#441853"/>
  <rect x="189" y="0" width="3" height="80" fill="#321E59"/>
  <rect x="192" y="0" width="3" height="80" fill="#162777"/>
  <rect x="195" y="0" width="3" height="80" fill="#18246C"/>
  <rect x="198" y="0" width="3" height="80" fill="#151450"/>
  <rect x="201" y="0" width="3" height="80" fill="#121447"/>
  <rect x="204" y="0" width="3" height="80" fill="#1B143E"/>
  <rect x="207" y="0" width="3" height="80" fill="#2B0E2D"/>
  <rect x="210" y="0" width="3" height="80" fill="#3A0634"/>
  <rect x="213" y="0" width="3" height="80" fill="#3F1432"/>
  <rect x="216" y="0" width="3" height="80" fill="#3D0B3C"/>
  <rect x="219" y="0" width="3" height="80" fill="#4B1747"/>
  <rect x="222" y="0" width="3" height="80" fill="#521946"/>
  <rect x="225" y="0" width="3" height="80" fill="#5A4564"/>
  <rect x="228" y="0" width="3" height="80" fill="#787588"/>
  <rect x="231" y="0" width="3" height="80" fill="#796C97"/>
  <rect x="234" y="0" width="3" height="80" fill="#6F8DC1"/>
  <rect x="237" y="0" width="3" height="80" fill="#4A99C4"/>
  <rect x="240" y="0" width="3" height="80" fill="#3597E2"/>
  <rect x="243" y="0" width="3" height="80" fill="#218FE8"/>
  <rect x="246" y="0" width="3" height="80" fill="#4BA3EB"/>
  <rect x="249" y="0" width="3" height="80" fill="#65B8EA"/>
  <rect x="252" y="0" width="3" height="80" fill="#81E0F6"/>
  <rect x="255" y="0" width="3" height="80" fill="#96E3F7"/>
  <rect x="258" y="0" width="3" height="80" fill="#C5EFFB"/>
  <rect x="261" y="0" width="3" height="80" fill="#D9F1FD"/>
  <rect x="264" y="0" width="3" height="80" fill="#ECF7FD"/>
  <rect x="267" y="0" width="3" height="80" fill="#EEFCFD"/>
  <rect x="270" y="0" width="3" height="80" fill="#E0F0FD"/>
  <rect x="273" y="0" width="3" height="80" fill="#DDEAFB"/>
  <rect x="276" y="0" width="3" height="80" fill="#D5F1FC"/>
  <rect x="279" y="0" width="3" height="80" fill="#CCE6FF"/>
  <rect x="282" y="0" width="3" height="80" fill="#C6D8EC"/>
  <rect x="285" y="0" width="3" height="80" fill="#BAA5CC"/>
  <rect x="288" y="0" width="3" height="80" fill="#B590B9"/>
  <rect x="291" y="0" width="3" height="80" fill="#B197BA"/>
  <rect x="294" y="0" width="3" height="80" fill="#A49FBF"/>
  <rect x="297" y="0" width="3" height="80" fill="#94B0E0"/>
  <rect x="300" y="0" width="3" height="80" fill="#A8B9ED"/>
  <rect x="303" y="0" width="3" height="80" fill="#A9C3E8"/>
  <rect x="306" y="0" width="3" height="80" fill="#BFE0F3"/>
  <rect x="309" y="0" width="3" height="80" fill="#CCE3F5"/>
  <rect x="312" y="0" width="3" height="80" fill="#D1EBF8"/>
  <rect x="315" y="0" width="3" height="80" fill="#CCEDF6"/>
  <rect x="318" y="0" width="3" height="80" fill="#C7E6F8"/>
  <rect x="321" y="0" width="3" height="80" fill="#B6DBF8"/>
  <rect x="324" y="0" width="3" height="80" fill="#ACC1D6"/>
  <rect x="327" y="0" width="3" height="80" fill="#B5ABC6"/>
  <rect x="330" y="0" width="3" height="80" fill="#C3949E"/>
  <rect x="333" y="0" width="3" height="80" fill="#C27482"/>
  <rect x="336" y="0" width="3" height="80" fill="#B6687E"/>
  <rect x="339" y="0" width="3" height="80" fill="#A5476B"/>
  <rect x="342" y="0" width="3" height="80" fill="#712D5E"/>
  <rect x="345" y="0" width="3" height="80" fill="#4D2561"/>
  <rect x="348" y="0" width="3" height="80" fill="#1B2974"/>
  <rect x="351" y="0" width="3" height="80" fill="#1D2C7F"/>
  <rect x="354" y="0" width="3" height="80" fill="#1F3185"/>
  <rect x="357" y="0" width="3" height="80" fill="#1F4478"/>
  <rect x="360" y="0" width="3" height="80" fill="#144A78"/>
  <rect x="363" y="0" width="3" height="80" fill="#185884"/>
  <rect x="366" y="0" width="3" height="80" fill="#2F5F8D"/>
  <rect x="369" y="0" width="3" height="80" fill="#507FA9"/>
  <rect x="372" y="0" width="3" height="80" fill="#676EC8"/>
  <rect x="375" y="0" width="3" height="80" fill="#6E64C7"/>
  <rect x="378" y="0" width="3" height="80" fill="#766DC8"/>
  <rect x="381" y="0" width="3" height="80" fill="#8187DB"/>
  <rect x="384" y="0" width="3" height="80" fill="#808CD4"/>
  <rect x="387" y="0" width="3" height="80" fill="#73A1D2"/>
  <rect x="390" y="0" width="3" height="80" fill="#76DAF1"/>
  <rect x="393" y="0" width="3" height="80" fill="#7CDEF7"/>
  <rect x="396" y="0" width="3" height="80" fill="#6BD8ED"/>
  <rect x="399" y="0" width="3" height="80" fill="#64B1DB"/>
  <rect x="402" y="0" width="3" height="80" fill="#6B96CB"/>
  <rect x="405" y="0" width="3" height="80" fill="#82A1BE"/>
  <rect x="408" y="0" width="3" height="80" fill="#8F9CBC"/>
  <rect x="411" y="0" width="3" height="80" fill="#C38EB8"/>
  <rect x="414" y="0" width="3" height="80" fill="#CDA5BF"/>
  <rect x="417" y="0" width="3" height="80" fill="#C9ADC3"/>
  <rect x="420" y="0" width="3" height="80" fill="#D0BCC5"/>
  <rect x="423" y="0" width="3" height="80" fill="#E8C6C4"/>
  <rect x="426" y="0" width="3" height="80" fill="#E3DFF6"/>
  <rect x="429" y="0" width="3" height="80" fill="#B2ECFA"/>
  <rect x="432" y="0" width="3" height="80" fill="#87E6FA"/>
  <rect x="435" y="0" width="3" height="80" fill="#58D1FF"/>
  <rect x="438" y="0" width="3" height="80" fill="#1EB3F5"/>
  <rect x="441" y="0" width="3" height="80" fill="#2485BC"/>
  <rect x="444" y="0" width="3" height="80" fill="#215E8B"/>
  <rect x="447" y="0" width="3" height="80" fill="#24416D"/>
  <rect x="450" y="0" width="3" height="80" fill="#1D2C6F"/>
  <rect x="453" y="0" width="3" height="80" fill="#101A58"/>
  <rect x="456" y="0" width="3" height="80" fill="#0F1350"/>
  <rect x="459" y="0" width="3" height="80" fill="#0F0C51"/>
  <rect x="462" y="0" width="3" height="80" fill="#121153"/>
  <rect x="465" y="0" width="3" height="80" fill="#18156C"/>
  <rect x="468" y="0" width="3" height="80" fill="#111A7F"/>
  <rect x="471" y="0" width="3" height="80" fill="#10257E"/>
  <rect x="474" y="0" width="3" height="80" fill="#0F2885"/>
  <rect x="477" y="0" width="3" height="80" fill="#1F2A83"/>
  <rect x="480" y="0" width="3" height="80" fill="#3B3A74"/>
  <rect x="483" y="0" width="3" height="80" fill="#652D6E"/>
  <rect x="486" y="0" width="3" height="80" fill="#89405E"/>
  <rect x="489" y="0" width="3" height="80" fill="#BF6171"/>
  <rect x="492" y="0" width="3" height="80" fill="#D56F7A"/>
  <rect x="495" y="0" width="3" height="80" fill="#E06871"/>
  <rect x="498" y="0" width="3" height="80" fill="#C34364"/>
  <rect x="501" y="0" width="3" height="80" fill="#B2475B"/>
  <rect x="504" y="0" width="3" height="80" fill="#AE3B64"/>
  <rect x="507" y="0" width="3" height="80" fill="#7C5E80"/>
  <rect x="510" y="0" width="3" height="80" fill="#5E6996"/>
  <rect x="513" y="0" width="3" height="80" fill="#6189C6"/>
  <rect x="516" y="0" width="3" height="80" fill="#4C98BA"/>
  <rect x="519" y="0" width="3" height="80" fill="#408DB7"/>
  <rect x="522" y="0" width="3" height="80" fill="#4285AF"/>
  <rect x="525" y="0" width="3" height="80" fill="#346C85"/>
  <rect x="528" y="0" width="3" height="80" fill="#175882"/>
  <rect x="531" y="0" width="3" height="80" fill="#174B7D"/>
  <rect x="534" y="0" width="3" height="80" fill="#12348D"/>
  <rect x="537" y="0" width="3" height="80" fill="#18318B"/>
  <rect x="540" y="0" width="3" height="80" fill="#1D3C8C"/>
  <rect x="543" y="0" width="3" height="80" fill="#4D43A6"/>
  <rect x="546" y="0" width="3" height="80" fill="#5D4EB7"/>
  <rect x="549" y="0" width="3" height="80" fill="#4474C0"/>
  <rect x="552" y="0" width="3" height="80" fill="#3F82B7"/>
  <rect x="555" y="0" width="3" height="80" fill="#2672A4"/>
  <rect x="558" y="0" width="3" height="80" fill="#154C8F"/>
  <rect x="561" y="0" width="3" height="80" fill="#193589"/>
  <rect x="564" y="0" width="3" height="80" fill="#162A80"/>
  <rect x="567" y="0" width="3" height="80" fill="#13277D"/>
  <rect x="570" y="0" width="3" height="80" fill="#1B307F"/>
  <rect x="573" y="0" width="3" height="80" fill="#1B5082"/>
  <rect x="576" y="0" width="3" height="80" fill="#2D7397"/>
  <rect x="579" y="0" width="3" height="80" fill="#54A3CA"/>
  <rect x="582" y="0" width="3" height="80" fill="#79C3F2"/>
  <rect x="585" y="0" width="3" height="80" fill="#8BDAFF"/>
  <rect x="588" y="0" width="3" height="80" fill="#A7CBE1"/>
  <rect x="591" y="0" width="3" height="80" fill="#E0C1BC"/>
  <rect x="594" y="0" width="3" height="80" fill="#F1B7B3"/>
  <rect x="597" y="0" width="3" height="80" fill="#E1B2AC"/>
  <rect x="600" y="0" width="3" height="80" fill="#DD8E94"/>
  <rect x="603" y="0" width="3" height="80" fill="#BD91A0"/>
  <rect x="606" y="0" width="3" height="80" fill="#9190B2"/>
  <rect x="609" y="0" width="3" height="80" fill="#7B98B6"/>
  <rect x="612" y="0" width="3" height="80" fill="#7575AB"/>
  <rect x="615" y="0" width="3" height="80" fill="#5D698F"/>
  <rect x="618" y="0" width="3" height="80" fill="#55396A"/>
  <rect x="621" y="0" width="3" height="80" fill="#261444"/>
  <rect x="624" y="0" width="3" height="80" fill="#1D113F"/>
  <rect x="627" y="0" width="3" height="80" fill="#1A1042"/>
  <rect x="630" y="0" width="3" height="80" fill="#14154E"/>
  <rect x="633" y="0" width="3" height="80" fill="#1A1D50"/>
  <rect x="636" y="0" width="3" height="80" fill="#113066"/>
  <rect x="639" y="0" width="3" height="80" fill="#214579"/>
  <rect x="642" y="0" width="3" height="80" fill="#265893"/>
  <rect x="645" y="0" width="3" height="80" fill="#3E8CBC"/>
  <rect x="648" y="0" width="3" height="80" fill="#5D93D3"/>
  <rect x="651" y="0" width="3" height="80" fill="#728DBA"/>
  <rect x="654" y="0" width="3" height="80" fill="#957293"/>
  <rect x="657" y="0" width="3" height="80" fill="#BB7084"/>
  <rect x="660" y="0" width="3" height="80" fill="#C96C77"/>
  <rect x="663" y="0" width="3" height="80" fill="#CB7487"/>
  <rect x="666" y="0" width="3" height="80" fill="#E99491"/>
  <rect x="669" y="0" width="3" height="80" fill="#E7988B"/>
  <rect x="672" y="0" width="3" height="80" fill="#E39E8E"/>
  <rect x="675" y="0" width="3" height="80" fill="#E69695"/>
  <rect x="678" y="0" width="3" height="80" fill="#E79FA3"/>
  <rect x="681" y="0" width="3" height="80" fill="#DC9EA9"/>
  <rect x="684" y="0" width="3" height="80" fill="#C49AB2"/>
  <rect x="687" y="0" width="3" height="80" fill="#A78EAB"/>
  <rect x="690" y="0" width="3" height="80" fill="#7A9EB8"/>
  <rect x="693" y="0" width="3" height="80" fill="#6995D2"/>
  <rect x="696" y="0" width="3" height="80" fill="#3391D7"/>
  <rect x="699" y="0" width="3" height="80" fill="#149FF2"/>
  <rect x="702" y="0" width="3" height="80" fill="#139DF5"/>
  <rect x="705" y="0" width="3" height="80" fill="#14A7F4"/>
  <rect x="708" y="0" width="3" height="80" fill="#1CA2E9"/>
  <rect x="711" y="0" width="3" height="80" fill="#218EE3"/>
  <rect x="714" y="0" width="3" height="80" fill="#3278AB"/>
  <rect x="717" y="0" width="3" height="80" fill="#3D3394"/>
  <rect x="720" y="0" width="3" height="80" fill="#471755"/>
  <rect x="723" y="0" width="3" height="80" fill="#41123E"/>
  <rect x="726" y="0" width="3" height="80" fill="#3D092F"/>
  <rect x="729" y="0" width="3" height="80" fill="#270128"/>
  <rect x="732" y="0" width="3" height="80" fill="#0E0927"/>
  <rect x="735" y="0" width="3" height="80" fill="#151134"/>
  <rect x="738" y="0" width="3" height="80" fill="#260C4B"/>
  <rect x="741" y="0" width="3" height="80" fill="#101360"/>
  <rect x="744" y="0" width="3" height="80" fill="#102B78"/>
  <rect x="747" y="0" width="3" height="80" fill="#123B8D"/>
  <rect x="750" y="0" width="3" height="80" fill="#2253A0"/>
  <rect x="753" y="0" width="3" height="80" fill="#3B82B0"/>
  <rect x="756" y="0" width="3" height="80" fill="#3A97C2"/>
  <rect x="759" y="0" width="3" height="80" fill="#4696B7"/>
  <rect x="762" y="0" width="3" height="80" fill="#5B6E8F"/>
  <rect x="765" y="0" width="3" height="80" fill="#3D567F"/>
</svg>
