<svg xmlns="http://www.w3.org/2000/svg" viewBox="0 0 1536 80" preserveAspectRatio="none" width="100%" height="100%">
<metadata>
  <rdf:RDF xmlns:rdf="http://www.w3.org/1999/02/22-rdf-syntax-ns#"
           xmlns:dc="http://purl.org/dc/elements/1.1/">
    <rdf:Description rdf:about="">
      <dc:title>F stands for liFe</dc:title>
      <dc:creator>F stands for liFe</dc:creator>
      <dc:rights>Copyright (c) 2021 F stands for liFe. All rights reserved.</dc:rights>
    </rdf:Description>
  </rdf:RDF>
</metadata>
  <rect x="0" y="0" width="3" height="80" fill="#241D17"/>
  <rect x="3" y="0" width="3" height="80" fill="#2A302C"/>
  <rect x="6" y="0" width="3" height="80" fill="#3C3944"/>
  <rect x="9" y="0" width="3" height="80" fill="#57565B"/>
  <rect x="12" y="0" width="3" height="80" fill="#72716C"/>
  <rect x="15" y="0" width="3" height="80" fill="#996967"/>
  <rect x="18" y="0" width="3" height="80" fill="#B67976"/>
  <rect x="21" y="0" width="3" height="80" fill="#C06048"/>
  <rect x="24" y="0" width="3" height="80" fill="#9B3C28"/>
  <rect x="27" y="0" width="3" height="80" fill="#952F20"/>
  <rect x="30" y="0" width="3" height="80" fill="#7C673C"/>
  <rect x="33" y="0" width="3" height="80" fill="#5F4E46"/>
  <rect x="36" y="0" width="3" height="80" fill="#444349"/>
  <rect x="39" y="0" width="3" height="80" fill="#3A2F40"/>
  <rect x="42" y="0" width="3" height="80" fill="#29273F"/>
  <rect x="45" y="0" width="3" height="80" fill="#20293A"/>
  <rect x="48" y="0" width="3" height="80" fill="#212F3A"/>
  <rect x="51" y="0" width="3" height="80" fill="#2F3C45"/>
  <rect x="54" y="0" width="3" height="80" fill="#33444E"/>
  <rect x="57" y="0" width="3" height="80" fill="#385B71"/>
  <rect x="60" y="0" width="3" height="80" fill="#346283"/>
  <rect x="63" y="0" width="3" height="80" fill="#486D7F"/>
  <rect x="66" y="0" width="3" height="80" fill="#666B7E"/>
  <rect x="69" y="0" width="3" height="80" fill="#76596B"/>
  <rect x="72" y="0" width="3" height="80" fill="#643339"/>
  <rect x="75" y="0" width="3" height="80" fill="#542923"/>
  <rect x="78" y="0" width="3" height="80" fill="#332326"/>
  <rect x="81" y="0" width="3" height="80" fill="#301D21"/>
  <rect x="84" y="0" width="3" height="80" fill="#3E1F1D"/>
  <rect x="87" y="0" width="3" height="80" fill="#5D0D04"/>
  <rect x="90" y="0" width="3" height="80" fill="#702A20"/>
  <rect x="93" y="0" width="3" height="80" fill="#905654"/>
  <rect x="96" y="0" width="3" height="80" fill="#D7856F"/>
  <rect x="99" y="0" width="3" height="80" fill="#E79DB8"/>
  <rect x="102" y="0" width="3" height="80" fill="#E9B5A7"/>
  <rect x="105" y="0" width="3" height="80" fill="#E5C9C5"/>
  <rect x="108" y="0" width="3" height="80" fill="#E8DACF"/>
  <rect x="111" y="0" width="3" height="80" fill="#DED1C9"/>
  <rect x="114" y="0" width="3" height="80" fill="#DAD2C7"/>
  <rect x="117" y="0" width="3" height="80" fill="#DBD2CB"/>
  <rect x="120" y="0" width="3" height="80" fill="#DAD1D4"/>
  <rect x="123" y="0" width="3" height="80" fill="#DEDCCF"/>
  <rect x="126" y="0" width="3" height="80" fill="#DFDFDF"/>
  <rect x="129" y="0" width="3" height="80" fill="#E0D0EA"/>
  <rect x="132" y="0" width="3" height="80" fill="#D3D7D6"/>
  <rect x="135" y="0" width="3" height="80" fill="#C9DED7"/>
  <rect x="138" y="0" width="3" height="80" fill="#BBCED4"/>
  <rect x="141" y="0" width="3" height="80" fill="#97B3BF"/>
  <rect x="144" y="0" width="3" height="80" fill="#8BA0B3"/>
  <rect x="147" y="0" width="3" height="80" fill="#827EA3"/>
  <rect x="150" y="0" width="3" height="80" fill="#858786"/>
  <rect x="153" y="0" width="3" height="80" fill="#7C7C72"/>
  <rect x="156" y="0" width="3" height="80" fill="#787775"/>
  <rect x="159" y="0" width="3" height="80" fill="#84707C"/>
  <rect x="162" y="0" width="3" height="80" fill="#808791"/>
  <rect x="165" y="0" width="3" height="80" fill="#79838D"/>
  <rect x="168" y="0" width="3" height="80" fill="#64768A"/>
  <rect x="171" y="0" width="3" height="80" fill="#4C79A0"/>
  <rect x="174" y="0" width="3" height="80" fill="#4475A0"/>
  <rect x="177" y="0" width="3" height="80" fill="#406D8E"/>
  <rect x="180" y="0" width="3" height="80" fill="#6B757F"/>
  <rect x="183" y="0" width="3" height="80" fill="#73767B"/>
  <rect x="186" y="0" width="3" height="80" fill="#8C8B87"/>
  <rect x="189" y="0" width="3" height="80" fill="#9A9997"/>
  <rect x="192" y="0" width="3" height="80" fill="#B797A2"/>
  <rect x="195" y="0" width="3" height="80" fill="#CCB7B2"/>
  <rect x="198" y="0" width="3" height="80" fill="#FFD7C0"/>
  <rect x="201" y="0" width="3" height="80" fill="#FCEABC"/>
  <rect x="204" y="0" width="3" height="80" fill="#F8E7DF"/>
  <rect x="207" y="0" width="3" height="80" fill="#E4E3E1"/>
  <rect x="210" y="0" width="3" height="80" fill="#D0D9E0"/>
  <rect x="213" y="0" width="3" height="80" fill="#9CDDF3"/>
  <rect x="216" y="0" width="3" height="80" fill="#91D2FC"/>
  <rect x="219" y="0" width="3" height="80" fill="#73C1FF"/>
  <rect x="222" y="0" width="3" height="80" fill="#7DCFFF"/>
  <rect x="225" y="0" width="3" height="80" fill="#97E8FD"/>
  <rect x="228" y="0" width="3" height="80" fill="#A2E5FF"/>
  <rect x="231" y="0" width="3" height="80" fill="#93D8F9"/>
  <rect x="234" y="0" width="3" height="80" fill="#7ABBE1"/>
  <rect x="237" y="0" width="3" height="80" fill="#8EBAD3"/>
  <rect x="240" y="0" width="3" height="80" fill="#7092AB"/>
  <rect x="243" y="0" width="3" height="80" fill="#556676"/>
  <rect x="246" y="0" width="3" height="80" fill="#424C55"/>
  <rect x="249" y="0" width="3" height="80" fill="#39464F"/>
  <rect x="252" y="0" width="3" height="80" fill="#4C5552"/>
  <rect x="255" y="0" width="3" height="80" fill="#616763"/>
  <rect x="258" y="0" width="3" height="80" fill="#72626D"/>
  <rect x="261" y="0" width="3" height="80" fill="#5E5D65"/>
  <rect x="264" y="0" width="3" height="80" fill="#374852"/>
  <rect x="267" y="0" width="3" height="80" fill="#2C3C49"/>
  <rect x="270" y="0" width="3" height="80" fill="#1B283B"/>
  <rect x="273" y="0" width="3" height="80" fill="#181B2A"/>
  <rect x="276" y="0" width="3" height="80" fill="#0D1522"/>
  <rect x="279" y="0" width="3" height="80" fill="#0E151F"/>
  <rect x="282" y="0" width="3" height="80" fill="#0A101C"/>
  <rect x="285" y="0" width="3" height="80" fill="#091018"/>
  <rect x="288" y="0" width="3" height="80" fill="#0B1218"/>
  <rect x="291" y="0" width="3" height="80" fill="#16151A"/>
  <rect x="294" y="0" width="3" height="80" fill="#1B1B25"/>
  <rect x="297" y="0" width="3" height="80" fill="#252432"/>
  <rect x="300" y="0" width="3" height="80" fill="#324043"/>
  <rect x="303" y="0" width="3" height="80" fill="#50505A"/>
  <rect x="306" y="0" width="3" height="80" fill="#68697D"/>
  <rect x="309" y="0" width="3" height="80" fill="#607377"/>
  <rect x="312" y="0" width="3" height="80" fill="#576878"/>
  <rect x="315" y="0" width="3" height="80" fill="#435970"/>
  <rect x="318" y="0" width="3" height="80" fill="#2F4052"/>
  <rect x="321" y="0" width="3" height="80" fill="#25313D"/>
  <rect x="324" y="0" width="3" height="80" fill="#212936"/>
  <rect x="327" y="0" width="3" height="80" fill="#2D2B30"/>
  <rect x="330" y="0" width="3" height="80" fill="#3E2928"/>
  <rect x="333" y="0" width="3" height="80" fill="#4F2123"/>
  <rect x="336" y="0" width="3" height="80" fill="#402629"/>
  <rect x="339" y="0" width="3" height="80" fill="#3C332C"/>
  <rect x="342" y="0" width="3" height="80" fill="#3E3538"/>
  <rect x="345" y="0" width="3" height="80" fill="#323137"/>
  <rect x="348" y="0" width="3" height="80" fill="#313A43"/>
  <rect x="351" y="0" width="3" height="80" fill="#2B4053"/>
  <rect x="354" y="0" width="3" height="80" fill="#253A55"/>
  <rect x="357" y="0" width="3" height="80" fill="#284662"/>
  <rect x="360" y="0" width="3" height="80" fill="#476889"/>
  <rect x="363" y="0" width="3" height="80" fill="#5A8399"/>
  <rect x="366" y="0" width="3" height="80" fill="#63AECE"/>
  <rect x="369" y="0" width="3" height="80" fill="#669ACC"/>
  <rect x="372" y="0" width="3" height="80" fill="#6B7B9F"/>
  <rect x="375" y="0" width="3" height="80" fill="#657886"/>
  <rect x="378" y="0" width="3" height="80" fill="#4B5C6E"/>
  <rect x="381" y="0" width="3" height="80" fill="#28445A"/>
  <rect x="384" y="0" width="3" height="80" fill="#1B3649"/>
  <rect x="387" y="0" width="3" height="80" fill="#152D45"/>
  <rect x="390" y="0" width="3" height="80" fill="#283548"/>
  <rect x="393" y="0" width="3" height="80" fill="#33414E"/>
  <rect x="396" y="0" width="3" height="80" fill="#475057"/>
  <rect x="399" y="0" width="3" height="80" fill="#666261"/>
  <rect x="402" y="0" width="3" height="80" fill="#79616E"/>
  <rect x="405" y="0" width="3" height="80" fill="#7E7669"/>
  <rect x="408" y="0" width="3" height="80" fill="#7F7A5D"/>
  <rect x="411" y="0" width="3" height="80" fill="#5A5E61"/>
  <rect x="414" y="0" width="3" height="80" fill="#403D36"/>
  <rect x="417" y="0" width="3" height="80" fill="#31322C"/>
  <rect x="420" y="0" width="3" height="80" fill="#272123"/>
  <rect x="423" y="0" width="3" height="80" fill="#241C29"/>
  <rect x="426" y="0" width="3" height="80" fill="#211F24"/>
  <rect x="429" y="0" width="3" height="80" fill="#1B1E23"/>
  <rect x="432" y="0" width="3" height="80" fill="#161D25"/>
  <rect x="435" y="0" width="3" height="80" fill="#111822"/>
  <rect x="438" y="0" width="3" height="80" fill="#131722"/>
  <rect x="441" y="0" width="3" height="80" fill="#14141C"/>
  <rect x="444" y="0" width="3" height="80" fill="#1B1C20"/>
  <rect x="447" y="0" width="3" height="80" fill="#1A2016"/>
  <rect x="450" y="0" width="3" height="80" fill="#21181D"/>
  <rect x="453" y="0" width="3" height="80" fill="#231D1F"/>
  <rect x="456" y="0" width="3" height="80" fill="#271F1D"/>
  <rect x="459" y="0" width="3" height="80" fill="#211515"/>
  <rect x="462" y="0" width="3" height="80" fill="#231014"/>
  <rect x="465" y="0" width="3" height="80" fill="#1C1213"/>
  <rect x="468" y="0" width="3" height="80" fill="#191A14"/>
  <rect x="471" y="0" width="3" height="80" fill="#0F0E14"/>
  <rect x="474" y="0" width="3" height="80" fill="#0E0E0C"/>
  <rect x="477" y="0" width="3" height="80" fill="#060D13"/>
  <rect x="480" y="0" width="3" height="80" fill="#020C18"/>
  <rect x="483" y="0" width="3" height="80" fill="#030B16"/>
  <rect x="486" y="0" width="3" height="80" fill="#0C0C16"/>
  <rect x="489" y="0" width="3" height="80" fill="#101420"/>
  <rect x="492" y="0" width="3" height="80" fill="#161F28"/>
  <rect x="495" y="0" width="3" height="80" fill="#1D2B38"/>
  <rect x="498" y="0" width="3" height="80" fill="#30404D"/>
  <rect x="501" y="0" width="3" height="80" fill="#495760"/>
  <rect x="504" y="0" width="3" height="80" fill="#526971"/>
  <rect x="507" y="0" width="3" height="80" fill="#625870"/>
  <rect x="510" y="0" width="3" height="80" fill="#4C586E"/>
  <rect x="513" y="0" width="3" height="80" fill="#33415B"/>
  <rect x="516" y="0" width="3" height="80" fill="#273D52"/>
  <rect x="519" y="0" width="3" height="80" fill="#262D3F"/>
  <rect x="522" y="0" width="3" height="80" fill="#1F273A"/>
  <rect x="525" y="0" width="3" height="80" fill="#1E222D"/>
  <rect x="528" y="0" width="3" height="80" fill="#1C1F24"/>
  <rect x="531" y="0" width="3" height="80" fill="#181D23"/>
  <rect x="534" y="0" width="3" height="80" fill="#1E1D23"/>
  <rect x="537" y="0" width="3" height="80" fill="#202022"/>
  <rect x="540" y="0" width="3" height="80" fill="#2A221F"/>
  <rect x="543" y="0" width="3" height="80" fill="#2C2922"/>
  <rect x="546" y="0" width="3" height="80" fill="#292728"/>
  <rect x="549" y="0" width="3" height="80" fill="#3F3A34"/>
  <rect x="552" y="0" width="3" height="80" fill="#5A3E54"/>
  <rect x="555" y="0" width="3" height="80" fill="#7D6C72"/>
  <rect x="558" y="0" width="3" height="80" fill="#959690"/>
  <rect x="561" y="0" width="3" height="80" fill="#A09F9B"/>
  <rect x="564" y="0" width="3" height="80" fill="#9F9F9D"/>
  <rect x="567" y="0" width="3" height="80" fill="#ABABA3"/>
  <rect x="570" y="0" width="3" height="80" fill="#AFBAC0"/>
  <rect x="573" y="0" width="3" height="80" fill="#B1C9C9"/>
  <rect x="576" y="0" width="3" height="80" fill="#70ABBD"/>
  <rect x="579" y="0" width="3" height="80" fill="#7697AA"/>
  <rect x="582" y="0" width="3" height="80" fill="#8295A3"/>
  <rect x="585" y="0" width="3" height="80" fill="#9A9EA1"/>
  <rect x="588" y="0" width="3" height="80" fill="#A69897"/>
  <rect x="591" y="0" width="3" height="80" fill="#B4A180"/>
  <rect x="594" y="0" width="3" height="80" fill="#D07B9A"/>
  <rect x="597" y="0" width="3" height="80" fill="#E596B5"/>
  <rect x="600" y="0" width="3" height="80" fill="#DCA0A2"/>
  <rect x="603" y="0" width="3" height="80" fill="#C9B0AC"/>
  <rect x="606" y="0" width="3" height="80" fill="#BDB7BB"/>
  <rect x="609" y="0" width="3" height="80" fill="#D1D0CE"/>
  <rect x="612" y="0" width="3" height="80" fill="#DBCBD6"/>
  <rect x="615" y="0" width="3" height="80" fill="#E7E6E2"/>
  <rect x="618" y="0" width="3" height="80" fill="#F1EAE4"/>
  <rect x="621" y="0" width="3" height="80" fill="#ECEBE7"/>
  <rect x="624" y="0" width="3" height="80" fill="#E9DAF9"/>
  <rect x="627" y="0" width="3" height="80" fill="#DFECF5"/>
  <rect x="630" y="0" width="3" height="80" fill="#CEEAFF"/>
  <rect x="633" y="0" width="3" height="80" fill="#BEF9FF"/>
  <rect x="636" y="0" width="3" height="80" fill="#CCFAFF"/>
  <rect x="639" y="0" width="3" height="80" fill="#F4F8F9"/>
  <rect x="642" y="0" width="3" height="80" fill="#F8FAFF"/>
  <rect x="645" y="0" width="3" height="80" fill="#FFF6FF"/>
  <rect x="648" y="0" width="3" height="80" fill="#FFF7FF"/>
  <rect x="651" y="0" width="3" height="80" fill="#FFFAFF"/>
  <rect x="654" y="0" width="3" height="80" fill="#FEFCFF"/>
  <rect x="657" y="0" width="3" height="80" fill="#FFFEFF"/>
  <rect x="660" y="0" width="3" height="80" fill="#FFFBFB"/>
  <rect x="663" y="0" width="3" height="80" fill="#FBF7F8"/>
  <rect x="666" y="0" width="3" height="80" fill="#F9F7EB"/>
  <rect x="669" y="0" width="3" height="80" fill="#F1F0EC"/>
  <rect x="672" y="0" width="3" height="80" fill="#EEEAE9"/>
  <rect x="675" y="0" width="3" height="80" fill="#ECE9E4"/>
  <rect x="678" y="0" width="3" height="80" fill="#E9E5E4"/>
  <rect x="681" y="0" width="3" height="80" fill="#E1DBDB"/>
  <rect x="684" y="0" width="3" height="80" fill="#D1D2CC"/>
  <rect x="687" y="0" width="3" height="80" fill="#9F9FA1"/>
  <rect x="690" y="0" width="3" height="80" fill="#AA7CA0"/>
  <rect x="693" y="0" width="3" height="80" fill="#897986"/>
  <rect x="696" y="0" width="3" height="80" fill="#716780"/>
  <rect x="699" y="0" width="3" height="80" fill="#4B444B"/>
  <rect x="702" y="0" width="3" height="80" fill="#272E36"/>
  <rect x="705" y="0" width="3" height="80" fill="#21252E"/>
  <rect x="708" y="0" width="3" height="80" fill="#16202C"/>
  <rect x="711" y="0" width="3" height="80" fill="#0F233C"/>
  <rect x="714" y="0" width="3" height="80" fill="#20303D"/>
  <rect x="717" y="0" width="3" height="80" fill="#3A3C49"/>
  <rect x="720" y="0" width="3" height="80" fill="#4D4749"/>
  <rect x="723" y="0" width="3" height="80" fill="#6E4B51"/>
  <rect x="726" y="0" width="3" height="80" fill="#716559"/>
  <rect x="729" y="0" width="3" height="80" fill="#61605C"/>
  <rect x="732" y="0" width="3" height="80" fill="#515352"/>
  <rect x="735" y="0" width="3" height="80" fill="#39434D"/>
  <rect x="738" y="0" width="3" height="80" fill="#324043"/>
  <rect x="741" y="0" width="3" height="80" fill="#2F343A"/>
  <rect x="744" y="0" width="3" height="80" fill="#24292F"/>
  <rect x="747" y="0" width="3" height="80" fill="#1F2326"/>
  <rect x="750" y="0" width="3" height="80" fill="#1B2023"/>
  <rect x="753" y="0" width="3" height="80" fill="#1B2524"/>
  <rect x="756" y="0" width="3" height="80" fill="#1F282F"/>
  <rect x="759" y="0" width="3" height="80" fill="#1F2B3B"/>
  <rect x="762" y="0" width="3" height="80" fill="#1D365F"/>
  <rect x="765" y="0" width="3" height="80" fill="#2E547B"/>
</svg>
