<svg xmlns="http://www.w3.org/2000/svg" width="768" height="80" viewBox="0 0 768 80" preserveAspectRatio="none">
<metadata>
  <rdf:RDF xmlns:rdf="http://www.w3.org/1999/02/22-rdf-syntax-ns#"
           xmlns:dc="http://purl.org/dc/elements/1.1/">
    <rdf:Description rdf:about="">
      <dc:title>F stands for liFe</dc:title>
      <dc:creator>F stands for liFe</dc:creator>
      <dc:rights>Copyright (c) 2021 F stands for liFe. All rights reserved.</dc:rights>
    </rdf:Description>
  </rdf:RDF>
</metadata>
  <rect x="0" y="0" width="3" height="80" fill="#4C4C70"/>
  <rect x="3" y="0" width="3" height="80" fill="#404454"/>
  <rect x="6" y="0" width="3" height="80" fill="#374A37"/>
  <rect x="9" y="0" width="3" height="80" fill="#2A4A43"/>
  <rect x="12" y="0" width="3" height="80" fill="#23473D"/>
  <rect x="15" y="0" width="3" height="80" fill="#23473E"/>
  <rect x="18" y="0" width="3" height="80" fill="#193D46"/>
  <rect x="21" y="0" width="3" height="80" fill="#153F4F"/>
  <rect x="24" y="0" width="3" height="80" fill="#166570"/>
  <rect x="27" y="0" width="3" height="80" fill="#278595"/>
  <rect x="30" y="0" width="3" height="80" fill="#4795B7"/>
  <rect x="33" y="0" width="3" height="80" fill="#6FA6D2"/>
  <rect x="36" y="0" width="3" height="80" fill="#83A0E4"/>
  <rect x="39" y="0" width="3" height="80" fill="#8DAFE8"/>
  <rect x="42" y="0" width="3" height="80" fill="#8FAEE7"/>
  <rect x="45" y="0" width="3" height="80" fill="#88A4DF"/>
  <rect x="48" y="0" width="3" height="80" fill="#6EB7CF"/>
  <rect x="51" y="0" width="3" height="80" fill="#3D90B9"/>
  <rect x="54" y="0" width="3" height="80" fill="#296983"/>
  <rect x="57" y="0" width="3" height="80" fill="#1A4E5C"/>
  <rect x="60" y="0" width="3" height="80" fill="#133549"/>
  <rect x="63" y="0" width="3" height="80" fill="#0F3544"/>
  <rect x="66" y="0" width="3" height="80" fill="#114047"/>
  <rect x="69" y="0" width="3" height="80" fill="#0D3D50"/>
  <rect x="72" y="0" width="3" height="80" fill="#1C5063"/>
  <rect x="75" y="0" width="3" height="80" fill="#1B5A6F"/>
  <rect x="78" y="0" width="3" height="80" fill="#1E5A74"/>
  <rect x="81" y="0" width="3" height="80" fill="#267278"/>
  <rect x="84" y="0" width="3" height="80" fill="#266378"/>
  <rect x="87" y="0" width="3" height="80" fill="#23607B"/>
  <rect x="90" y="0" width="3" height="80" fill="#2B7987"/>
  <rect x="93" y="0" width="3" height="80" fill="#3992A6"/>
  <rect x="96" y="0" width="3" height="80" fill="#498BCC"/>
  <rect x="99" y="0" width="3" height="80" fill="#64A1CD"/>
  <rect x="102" y="0" width="3" height="80" fill="#6472AF"/>
  <rect x="105" y="0" width="3" height="80" fill="#5F58A1"/>
  <rect x="108" y="0" width="3" height="80" fill="#625070"/>
  <rect x="111" y="0" width="3" height="80" fill="#414555"/>
  <rect x="114" y="0" width="3" height="80" fill="#404B50"/>
  <rect x="117" y="0" width="3" height="80" fill="#244B3F"/>
  <rect x="120" y="0" width="3" height="80" fill="#163841"/>
  <rect x="123" y="0" width="3" height="80" fill="#123D44"/>
  <rect x="126" y="0" width="3" height="80" fill="#0D3445"/>
  <rect x="129" y="0" width="3" height="80" fill="#093745"/>
  <rect x="132" y="0" width="3" height="80" fill="#0A303E"/>
  <rect x="135" y="0" width="3" height="80" fill="#0E383F"/>
  <rect x="138" y="0" width="3" height="80" fill="#093D41"/>
  <rect x="141" y="0" width="3" height="80" fill="#0F3940"/>
  <rect x="144" y="0" width="3" height="80" fill="#0F3A41"/>
  <rect x="147" y="0" width="3" height="80" fill="#113C43"/>
  <rect x="150" y="0" width="3" height="80" fill="#0B3E4D"/>
  <rect x="153" y="0" width="3" height="80" fill="#0B455B"/>
  <rect x="156" y="0" width="3" height="80" fill="#176F75"/>
  <rect x="159" y="0" width="3" height="80" fill="#2E7990"/>
  <rect x="162" y="0" width="3" height="80" fill="#5187B3"/>
  <rect x="165" y="0" width="3" height="80" fill="#6779C2"/>
  <rect x="168" y="0" width="3" height="80" fill="#7C97D0"/>
  <rect x="171" y="0" width="3" height="80" fill="#9CBEDC"/>
  <rect x="174" y="0" width="3" height="80" fill="#9CB7E6"/>
  <rect x="177" y="0" width="3" height="80" fill="#96A2E7"/>
  <rect x="180" y="0" width="3" height="80" fill="#93A5EC"/>
  <rect x="183" y="0" width="3" height="80" fill="#8A9FEC"/>
  <rect x="186" y="0" width="3" height="80" fill="#92AFEE"/>
  <rect x="189" y="0" width="3" height="80" fill="#94ABEA"/>
  <rect x="192" y="0" width="3" height="80" fill="#95AAE9"/>
  <rect x="195" y="0" width="3" height="80" fill="#9CC1E7"/>
  <rect x="198" y="0" width="3" height="80" fill="#96B8E3"/>
  <rect x="201" y="0" width="3" height="80" fill="#95B6E8"/>
  <rect x="204" y="0" width="3" height="80" fill="#9ABAEA"/>
  <rect x="207" y="0" width="3" height="80" fill="#AECDEF"/>
  <rect x="210" y="0" width="3" height="80" fill="#BCD6F4"/>
  <rect x="213" y="0" width="3" height="80" fill="#C0DBF7"/>
  <rect x="216" y="0" width="3" height="80" fill="#BFD3F5"/>
  <rect x="219" y="0" width="3" height="80" fill="#B2D6F3"/>
  <rect x="222" y="0" width="3" height="80" fill="#A7C1F3"/>
  <rect x="225" y="0" width="3" height="80" fill="#9EB8EE"/>
  <rect x="228" y="0" width="3" height="80" fill="#95AAED"/>
  <rect x="231" y="0" width="3" height="80" fill="#96B4EB"/>
  <rect x="234" y="0" width="3" height="80" fill="#9EC0EC"/>
  <rect x="237" y="0" width="3" height="80" fill="#ADC7EF"/>
  <rect x="240" y="0" width="3" height="80" fill="#B3C6E5"/>
  <rect x="243" y="0" width="3" height="80" fill="#A6BEE5"/>
  <rect x="246" y="0" width="3" height="80" fill="#9FC9E3"/>
  <rect x="249" y="0" width="3" height="80" fill="#ADD5DB"/>
  <rect x="252" y="0" width="3" height="80" fill="#A6D2DA"/>
  <rect x="255" y="0" width="3" height="80" fill="#95A3B5"/>
  <rect x="258" y="0" width="3" height="80" fill="#83B8B6"/>
  <rect x="261" y="0" width="3" height="80" fill="#6A7EC5"/>
  <rect x="264" y="0" width="3" height="80" fill="#7596CB"/>
  <rect x="267" y="0" width="3" height="80" fill="#84A7E8"/>
  <rect x="270" y="0" width="3" height="80" fill="#8EA8E8"/>
  <rect x="273" y="0" width="3" height="80" fill="#8C9FDF"/>
  <rect x="276" y="0" width="3" height="80" fill="#7994CE"/>
  <rect x="279" y="0" width="3" height="80" fill="#6980C5"/>
  <rect x="282" y="0" width="3" height="80" fill="#4A88D3"/>
  <rect x="285" y="0" width="3" height="80" fill="#3275D3"/>
  <rect x="288" y="0" width="3" height="80" fill="#2F80A9"/>
  <rect x="291" y="0" width="3" height="80" fill="#2E85A2"/>
  <rect x="294" y="0" width="3" height="80" fill="#368788"/>
  <rect x="297" y="0" width="3" height="80" fill="#3E4377"/>
  <rect x="300" y="0" width="3" height="80" fill="#37417D"/>
  <rect x="303" y="0" width="3" height="80" fill="#4F73AD"/>
  <rect x="306" y="0" width="3" height="80" fill="#5088C4"/>
  <rect x="309" y="0" width="3" height="80" fill="#53A1C8"/>
  <rect x="312" y="0" width="3" height="80" fill="#4691AA"/>
  <rect x="315" y="0" width="3" height="80" fill="#337F84"/>
  <rect x="318" y="0" width="3" height="80" fill="#345551"/>
  <rect x="321" y="0" width="3" height="80" fill="#244437"/>
  <rect x="324" y="0" width="3" height="80" fill="#3B3C22"/>
  <rect x="327" y="0" width="3" height="80" fill="#3B3711"/>
  <rect x="330" y="0" width="3" height="80" fill="#2F2C0A"/>
  <rect x="333" y="0" width="3" height="80" fill="#1A230D"/>
  <rect x="336" y="0" width="3" height="80" fill="#101B0B"/>
  <rect x="339" y="0" width="3" height="80" fill="#11180D"/>
  <rect x="342" y="0" width="3" height="80" fill="#141A11"/>
  <rect x="345" y="0" width="3" height="80" fill="#19252A"/>
  <rect x="348" y="0" width="3" height="80" fill="#302D26"/>
  <rect x="351" y="0" width="3" height="80" fill="#3A4934"/>
  <rect x="354" y="0" width="3" height="80" fill="#424962"/>
  <rect x="357" y="0" width="3" height="80" fill="#515E74"/>
  <rect x="360" y="0" width="3" height="80" fill="#6C6EB2"/>
  <rect x="363" y="0" width="3" height="80" fill="#76BAD1"/>
  <rect x="366" y="0" width="3" height="80" fill="#66ABCB"/>
  <rect x="369" y="0" width="3" height="80" fill="#4A96C2"/>
  <rect x="372" y="0" width="3" height="80" fill="#32879E"/>
  <rect x="375" y="0" width="3" height="80" fill="#26596A"/>
  <rect x="378" y="0" width="3" height="80" fill="#124450"/>
  <rect x="381" y="0" width="3" height="80" fill="#092832"/>
  <rect x="384" y="0" width="3" height="80" fill="#0B2627"/>
  <rect x="387" y="0" width="3" height="80" fill="#0A1E19"/>
  <rect x="390" y="0" width="3" height="80" fill="#08180D"/>
  <rect x="393" y="0" width="3" height="80" fill="#0B190A"/>
  <rect x="396" y="0" width="3" height="80" fill="#09170D"/>
  <rect x="399" y="0" width="3" height="80" fill="#091409"/>
  <rect x="402" y="0" width="3" height="80" fill="#08140E"/>
  <rect x="405" y="0" width="3" height="80" fill="#021711"/>
  <rect x="408" y="0" width="3" height="80" fill="#02120B"/>
  <rect x="411" y="0" width="3" height="80" fill="#040B06"/>
  <rect x="414" y="0" width="3" height="80" fill="#0F1604"/>
  <rect x="417" y="0" width="3" height="80" fill="#0B1508"/>
  <rect x="420" y="0" width="3" height="80" fill="#0F160B"/>
  <rect x="423" y="0" width="3" height="80" fill="#161A0E"/>
  <rect x="426" y="0" width="3" height="80" fill="#131F0E"/>
  <rect x="429" y="0" width="3" height="80" fill="#162818"/>
  <rect x="432" y="0" width="3" height="80" fill="#1B3827"/>
  <rect x="435" y="0" width="3" height="80" fill="#1B392B"/>
  <rect x="438" y="0" width="3" height="80" fill="#183829"/>
  <rect x="441" y="0" width="3" height="80" fill="#193729"/>
  <rect x="444" y="0" width="3" height="80" fill="#173022"/>
  <rect x="447" y="0" width="3" height="80" fill="#102216"/>
  <rect x="450" y="0" width="3" height="80" fill="#0F1D0D"/>
  <rect x="453" y="0" width="3" height="80" fill="#09170D"/>
  <rect x="456" y="0" width="3" height="80" fill="#081711"/>
  <rect x="459" y="0" width="3" height="80" fill="#071610"/>
  <rect x="462" y="0" width="3" height="80" fill="#051811"/>
  <rect x="465" y="0" width="3" height="80" fill="#071D16"/>
  <rect x="468" y="0" width="3" height="80" fill="#092A28"/>
  <rect x="471" y="0" width="3" height="80" fill="#0E3438"/>
  <rect x="474" y="0" width="3" height="80" fill="#0F3C40"/>
  <rect x="477" y="0" width="3" height="80" fill="#15393B"/>
  <rect x="480" y="0" width="3" height="80" fill="#113527"/>
  <rect x="483" y="0" width="3" height="80" fill="#1B3326"/>
  <rect x="486" y="0" width="3" height="80" fill="#1E2A27"/>
  <rect x="489" y="0" width="3" height="80" fill="#1A2916"/>
  <rect x="492" y="0" width="3" height="80" fill="#142915"/>
  <rect x="495" y="0" width="3" height="80" fill="#142D1A"/>
  <rect x="498" y="0" width="3" height="80" fill="#113836"/>
  <rect x="501" y="0" width="3" height="80" fill="#10313A"/>
  <rect x="504" y="0" width="3" height="80" fill="#092A24"/>
  <rect x="507" y="0" width="3" height="80" fill="#062721"/>
  <rect x="510" y="0" width="3" height="80" fill="#0B1D15"/>
  <rect x="513" y="0" width="3" height="80" fill="#0B1A11"/>
  <rect x="516" y="0" width="3" height="80" fill="#0E180E"/>
  <rect x="519" y="0" width="3" height="80" fill="#0D170C"/>
  <rect x="522" y="0" width="3" height="80" fill="#0E150B"/>
  <rect x="525" y="0" width="3" height="80" fill="#0B140A"/>
  <rect x="528" y="0" width="3" height="80" fill="#0B140A"/>
  <rect x="531" y="0" width="3" height="80" fill="#09180E"/>
  <rect x="534" y="0" width="3" height="80" fill="#0E2627"/>
  <rect x="537" y="0" width="3" height="80" fill="#1A3A30"/>
  <rect x="540" y="0" width="3" height="80" fill="#2A4F47"/>
  <rect x="543" y="0" width="3" height="80" fill="#397072"/>
  <rect x="546" y="0" width="3" height="80" fill="#427990"/>
  <rect x="549" y="0" width="3" height="80" fill="#489ABA"/>
  <rect x="552" y="0" width="3" height="80" fill="#77C1D3"/>
  <rect x="555" y="0" width="3" height="80" fill="#95C2E7"/>
  <rect x="558" y="0" width="3" height="80" fill="#9DB7E2"/>
  <rect x="561" y="0" width="3" height="80" fill="#97BDE6"/>
  <rect x="564" y="0" width="3" height="80" fill="#98C6DD"/>
  <rect x="567" y="0" width="3" height="80" fill="#6F9B77"/>
  <rect x="570" y="0" width="3" height="80" fill="#655A73"/>
  <rect x="573" y="0" width="3" height="80" fill="#585845"/>
  <rect x="576" y="0" width="3" height="80" fill="#303D3F"/>
  <rect x="579" y="0" width="3" height="80" fill="#1C443E"/>
  <rect x="582" y="0" width="3" height="80" fill="#11404C"/>
  <rect x="585" y="0" width="3" height="80" fill="#0B3E52"/>
  <rect x="588" y="0" width="3" height="80" fill="#20626E"/>
  <rect x="591" y="0" width="3" height="80" fill="#4C6577"/>
  <rect x="594" y="0" width="3" height="80" fill="#84A692"/>
  <rect x="597" y="0" width="3" height="80" fill="#9CAED3"/>
  <rect x="600" y="0" width="3" height="80" fill="#AAC2EE"/>
  <rect x="603" y="0" width="3" height="80" fill="#AFB4F4"/>
  <rect x="606" y="0" width="3" height="80" fill="#B7C9F6"/>
  <rect x="609" y="0" width="3" height="80" fill="#B2C5F2"/>
  <rect x="612" y="0" width="3" height="80" fill="#A1BBF2"/>
  <rect x="615" y="0" width="3" height="80" fill="#91B3E5"/>
  <rect x="618" y="0" width="3" height="80" fill="#85AAD9"/>
  <rect x="621" y="0" width="3" height="80" fill="#6581B8"/>
  <rect x="624" y="0" width="3" height="80" fill="#515F71"/>
  <rect x="627" y="0" width="3" height="80" fill="#3E523E"/>
  <rect x="630" y="0" width="3" height="80" fill="#2B4234"/>
  <rect x="633" y="0" width="3" height="80" fill="#1E351F"/>
  <rect x="636" y="0" width="3" height="80" fill="#273918"/>
  <rect x="639" y="0" width="3" height="80" fill="#1C2C14"/>
  <rect x="642" y="0" width="3" height="80" fill="#1D2416"/>
  <rect x="645" y="0" width="3" height="80" fill="#1C2210"/>
  <rect x="648" y="0" width="3" height="80" fill="#1B260C"/>
  <rect x="651" y="0" width="3" height="80" fill="#1B2313"/>
  <rect x="654" y="0" width="3" height="80" fill="#1D2C16"/>
  <rect x="657" y="0" width="3" height="80" fill="#1C331A"/>
  <rect x="660" y="0" width="3" height="80" fill="#1D3622"/>
  <rect x="663" y="0" width="3" height="80" fill="#233E2F"/>
  <rect x="666" y="0" width="3" height="80" fill="#244637"/>
  <rect x="669" y="0" width="3" height="80" fill="#23443A"/>
  <rect x="672" y="0" width="3" height="80" fill="#1E4439"/>
  <rect x="675" y="0" width="3" height="80" fill="#1E3722"/>
  <rect x="678" y="0" width="3" height="80" fill="#1C311C"/>
  <rect x="681" y="0" width="3" height="80" fill="#112112"/>
  <rect x="684" y="0" width="3" height="80" fill="#161C13"/>
  <rect x="687" y="0" width="3" height="80" fill="#191D11"/>
  <rect x="690" y="0" width="3" height="80" fill="#131E0F"/>
  <rect x="693" y="0" width="3" height="80" fill="#192815"/>
  <rect x="696" y="0" width="3" height="80" fill="#1E3120"/>
  <rect x="699" y="0" width="3" height="80" fill="#213B2F"/>
  <rect x="702" y="0" width="3" height="80" fill="#1C3D2F"/>
  <rect x="705" y="0" width="3" height="80" fill="#1F3C33"/>
  <rect x="708" y="0" width="3" height="80" fill="#1D4943"/>
  <rect x="711" y="0" width="3" height="80" fill="#184753"/>
  <rect x="714" y="0" width="3" height="80" fill="#1A4759"/>
  <rect x="717" y="0" width="3" height="80" fill="#1E5061"/>
  <rect x="720" y="0" width="3" height="80" fill="#2E6760"/>
  <rect x="723" y="0" width="3" height="80" fill="#41446C"/>
  <rect x="726" y="0" width="3" height="80" fill="#46456E"/>
  <rect x="729" y="0" width="3" height="80" fill="#5A7999"/>
  <rect x="732" y="0" width="3" height="80" fill="#605B9C"/>
  <rect x="735" y="0" width="3" height="80" fill="#605C97"/>
  <rect x="738" y="0" width="3" height="80" fill="#7D5E72"/>
  <rect x="741" y="0" width="3" height="80" fill="#4A5C6F"/>
  <rect x="744" y="0" width="3" height="80" fill="#3C4E34"/>
  <rect x="747" y="0" width="3" height="80" fill="#434B2B"/>
  <rect x="750" y="0" width="3" height="80" fill="#283A21"/>
  <rect x="753" y="0" width="3" height="80" fill="#284025"/>
  <rect x="756" y="0" width="3" height="80" fill="#315450"/>
  <rect x="759" y="0" width="3" height="80" fill="#316864"/>
  <rect x="762" y="0" width="3" height="80" fill="#387F81"/>
  <rect x="765" y="0" width="3" height="80" fill="#338BB1"/>
</svg>
