<svg xmlns="http://www.w3.org/2000/svg" viewBox="0 0 1536 80" preserveAspectRatio="none" width="100%" height="100%">
<metadata>
  <rdf:RDF xmlns:rdf="http://www.w3.org/1999/02/22-rdf-syntax-ns#"
           xmlns:dc="http://purl.org/dc/elements/1.1/">
    <rdf:Description rdf:about="">
      <dc:title>F stands for liFe</dc:title>
      <dc:creator>F stands for liFe</dc:creator>
      <dc:rights>Copyright (c) 2021 F stands for liFe. All rights reserved.</dc:rights>
    </rdf:Description>
  </rdf:RDF>
</metadata>
  <rect x="0" y="0" width="3" height="80" fill="#2D3F3F"/>
  <rect x="3" y="0" width="3" height="80" fill="#27393B"/>
  <rect x="6" y="0" width="3" height="80" fill="#27363B"/>
  <rect x="9" y="0" width="3" height="80" fill="#2E3B41"/>
  <rect x="12" y="0" width="3" height="80" fill="#334141"/>
  <rect x="15" y="0" width="3" height="80" fill="#3A4942"/>
  <rect x="18" y="0" width="3" height="80" fill="#4A5648"/>
  <rect x="21" y="0" width="3" height="80" fill="#565749"/>
  <rect x="24" y="0" width="3" height="80" fill="#7D6247"/>
  <rect x="27" y="0" width="3" height="80" fill="#8F6B53"/>
  <rect x="30" y="0" width="3" height="80" fill="#937960"/>
  <rect x="33" y="0" width="3" height="80" fill="#647F52"/>
  <rect x="36" y="0" width="3" height="80" fill="#577154"/>
  <rect x="39" y="0" width="3" height="80" fill="#4E6350"/>
  <rect x="42" y="0" width="3" height="80" fill="#46584A"/>
  <rect x="45" y="0" width="3" height="80" fill="#3D4C45"/>
  <rect x="48" y="0" width="3" height="80" fill="#374842"/>
  <rect x="51" y="0" width="3" height="80" fill="#344741"/>
  <rect x="54" y="0" width="3" height="80" fill="#364240"/>
  <rect x="57" y="0" width="3" height="80" fill="#364242"/>
  <rect x="60" y="0" width="3" height="80" fill="#354447"/>
  <rect x="63" y="0" width="3" height="80" fill="#3B4949"/>
  <rect x="66" y="0" width="3" height="80" fill="#415150"/>
  <rect x="69" y="0" width="3" height="80" fill="#405254"/>
  <rect x="72" y="0" width="3" height="80" fill="#3A584C"/>
  <rect x="75" y="0" width="3" height="80" fill="#3F594C"/>
  <rect x="78" y="0" width="3" height="80" fill="#40584A"/>
  <rect x="81" y="0" width="3" height="80" fill="#455E4B"/>
  <rect x="84" y="0" width="3" height="80" fill="#445B49"/>
  <rect x="87" y="0" width="3" height="80" fill="#445C44"/>
  <rect x="90" y="0" width="3" height="80" fill="#435545"/>
  <rect x="93" y="0" width="3" height="80" fill="#464A39"/>
  <rect x="96" y="0" width="3" height="80" fill="#464241"/>
  <rect x="99" y="0" width="3" height="80" fill="#3E3F41"/>
  <rect x="102" y="0" width="3" height="80" fill="#3B4346"/>
  <rect x="105" y="0" width="3" height="80" fill="#34494A"/>
  <rect x="108" y="0" width="3" height="80" fill="#36494D"/>
  <rect x="111" y="0" width="3" height="80" fill="#365051"/>
  <rect x="114" y="0" width="3" height="80" fill="#33524A"/>
  <rect x="117" y="0" width="3" height="80" fill="#395346"/>
  <rect x="120" y="0" width="3" height="80" fill="#364848"/>
  <rect x="123" y="0" width="3" height="80" fill="#334947"/>
  <rect x="126" y="0" width="3" height="80" fill="#2C4444"/>
  <rect x="129" y="0" width="3" height="80" fill="#274641"/>
  <rect x="132" y="0" width="3" height="80" fill="#29473D"/>
  <rect x="135" y="0" width="3" height="80" fill="#2E453F"/>
  <rect x="138" y="0" width="3" height="80" fill="#2F443F"/>
  <rect x="141" y="0" width="3" height="80" fill="#363F3A"/>
  <rect x="144" y="0" width="3" height="80" fill="#3A4032"/>
  <rect x="147" y="0" width="3" height="80" fill="#453C33"/>
  <rect x="150" y="0" width="3" height="80" fill="#493C34"/>
  <rect x="153" y="0" width="3" height="80" fill="#4B3D3A"/>
  <rect x="156" y="0" width="3" height="80" fill="#413B3B"/>
  <rect x="159" y="0" width="3" height="80" fill="#3B4039"/>
  <rect x="162" y="0" width="3" height="80" fill="#35403C"/>
  <rect x="165" y="0" width="3" height="80" fill="#3B4640"/>
  <rect x="168" y="0" width="3" height="80" fill="#455048"/>
  <rect x="171" y="0" width="3" height="80" fill="#53594D"/>
  <rect x="174" y="0" width="3" height="80" fill="#75594E"/>
  <rect x="177" y="0" width="3" height="80" fill="#7B5845"/>
  <rect x="180" y="0" width="3" height="80" fill="#9F3C41"/>
  <rect x="183" y="0" width="3" height="80" fill="#B15957"/>
  <rect x="186" y="0" width="3" height="80" fill="#CE7A60"/>
  <rect x="189" y="0" width="3" height="80" fill="#DB8959"/>
  <rect x="192" y="0" width="3" height="80" fill="#B96C50"/>
  <rect x="195" y="0" width="3" height="80" fill="#80554E"/>
  <rect x="198" y="0" width="3" height="80" fill="#675348"/>
  <rect x="201" y="0" width="3" height="80" fill="#4E4C3D"/>
  <rect x="204" y="0" width="3" height="80" fill="#3F4342"/>
  <rect x="207" y="0" width="3" height="80" fill="#333F3D"/>
  <rect x="210" y="0" width="3" height="80" fill="#313A37"/>
  <rect x="213" y="0" width="3" height="80" fill="#2A3730"/>
  <rect x="216" y="0" width="3" height="80" fill="#2C3230"/>
  <rect x="219" y="0" width="3" height="80" fill="#2B2F30"/>
  <rect x="222" y="0" width="3" height="80" fill="#2C3033"/>
  <rect x="225" y="0" width="3" height="80" fill="#293335"/>
  <rect x="228" y="0" width="3" height="80" fill="#2C373B"/>
  <rect x="231" y="0" width="3" height="80" fill="#2C3A3B"/>
  <rect x="234" y="0" width="3" height="80" fill="#2E393F"/>
  <rect x="237" y="0" width="3" height="80" fill="#2F3A3C"/>
  <rect x="240" y="0" width="3" height="80" fill="#323C3B"/>
  <rect x="243" y="0" width="3" height="80" fill="#353E3D"/>
  <rect x="246" y="0" width="3" height="80" fill="#384440"/>
  <rect x="249" y="0" width="3" height="80" fill="#495547"/>
  <rect x="252" y="0" width="3" height="80" fill="#4F6649"/>
  <rect x="255" y="0" width="3" height="80" fill="#638247"/>
  <rect x="258" y="0" width="3" height="80" fill="#92845D"/>
  <rect x="261" y="0" width="3" height="80" fill="#B49461"/>
  <rect x="264" y="0" width="3" height="80" fill="#B17253"/>
  <rect x="267" y="0" width="3" height="80" fill="#916E52"/>
  <rect x="270" y="0" width="3" height="80" fill="#6B634E"/>
  <rect x="273" y="0" width="3" height="80" fill="#545A4C"/>
  <rect x="276" y="0" width="3" height="80" fill="#51423B"/>
  <rect x="279" y="0" width="3" height="80" fill="#494037"/>
  <rect x="282" y="0" width="3" height="80" fill="#3A433E"/>
  <rect x="285" y="0" width="3" height="80" fill="#3B4F44"/>
  <rect x="288" y="0" width="3" height="80" fill="#3B6041"/>
  <rect x="291" y="0" width="3" height="80" fill="#35593D"/>
  <rect x="294" y="0" width="3" height="80" fill="#39513B"/>
  <rect x="297" y="0" width="3" height="80" fill="#3A403C"/>
  <rect x="300" y="0" width="3" height="80" fill="#3A3C39"/>
  <rect x="303" y="0" width="3" height="80" fill="#373631"/>
  <rect x="306" y="0" width="3" height="80" fill="#313035"/>
  <rect x="309" y="0" width="3" height="80" fill="#2E2F34"/>
  <rect x="312" y="0" width="3" height="80" fill="#283033"/>
  <rect x="315" y="0" width="3" height="80" fill="#263135"/>
  <rect x="318" y="0" width="3" height="80" fill="#273538"/>
  <rect x="321" y="0" width="3" height="80" fill="#2B3B3B"/>
  <rect x="324" y="0" width="3" height="80" fill="#2D3F3F"/>
  <rect x="327" y="0" width="3" height="80" fill="#314343"/>
  <rect x="330" y="0" width="3" height="80" fill="#3A4944"/>
  <rect x="333" y="0" width="3" height="80" fill="#465246"/>
  <rect x="336" y="0" width="3" height="80" fill="#4E5F4D"/>
  <rect x="339" y="0" width="3" height="80" fill="#526552"/>
  <rect x="342" y="0" width="3" height="80" fill="#556451"/>
  <rect x="345" y="0" width="3" height="80" fill="#535F51"/>
  <rect x="348" y="0" width="3" height="80" fill="#4E5C4B"/>
  <rect x="351" y="0" width="3" height="80" fill="#44534C"/>
  <rect x="354" y="0" width="3" height="80" fill="#3B4949"/>
  <rect x="357" y="0" width="3" height="80" fill="#334245"/>
  <rect x="360" y="0" width="3" height="80" fill="#293F3C"/>
  <rect x="363" y="0" width="3" height="80" fill="#243A37"/>
  <rect x="366" y="0" width="3" height="80" fill="#243338"/>
  <rect x="369" y="0" width="3" height="80" fill="#252E35"/>
  <rect x="372" y="0" width="3" height="80" fill="#262E30"/>
  <rect x="375" y="0" width="3" height="80" fill="#262E30"/>
  <rect x="378" y="0" width="3" height="80" fill="#283033"/>
  <rect x="381" y="0" width="3" height="80" fill="#2E2F31"/>
  <rect x="384" y="0" width="3" height="80" fill="#363231"/>
  <rect x="387" y="0" width="3" height="80" fill="#333335"/>
  <rect x="390" y="0" width="3" height="80" fill="#343339"/>
  <rect x="393" y="0" width="3" height="80" fill="#323A3C"/>
  <rect x="396" y="0" width="3" height="80" fill="#2F3F3C"/>
  <rect x="399" y="0" width="3" height="80" fill="#2F3F3F"/>
  <rect x="402" y="0" width="3" height="80" fill="#324040"/>
  <rect x="405" y="0" width="3" height="80" fill="#334141"/>
  <rect x="408" y="0" width="3" height="80" fill="#324543"/>
  <rect x="411" y="0" width="3" height="80" fill="#394A42"/>
  <rect x="414" y="0" width="3" height="80" fill="#3F574A"/>
  <rect x="417" y="0" width="3" height="80" fill="#44664E"/>
  <rect x="420" y="0" width="3" height="80" fill="#557455"/>
  <rect x="423" y="0" width="3" height="80" fill="#517665"/>
  <rect x="426" y="0" width="3" height="80" fill="#4F796B"/>
  <rect x="429" y="0" width="3" height="80" fill="#517E67"/>
  <rect x="432" y="0" width="3" height="80" fill="#597658"/>
  <rect x="435" y="0" width="3" height="80" fill="#5F6E4F"/>
  <rect x="438" y="0" width="3" height="80" fill="#576653"/>
  <rect x="441" y="0" width="3" height="80" fill="#556854"/>
  <rect x="444" y="0" width="3" height="80" fill="#526353"/>
  <rect x="447" y="0" width="3" height="80" fill="#50614F"/>
  <rect x="450" y="0" width="3" height="80" fill="#475F4F"/>
  <rect x="453" y="0" width="3" height="80" fill="#445F4C"/>
  <rect x="456" y="0" width="3" height="80" fill="#386048"/>
  <rect x="459" y="0" width="3" height="80" fill="#365E43"/>
  <rect x="462" y="0" width="3" height="80" fill="#2D5439"/>
  <rect x="465" y="0" width="3" height="80" fill="#2D4A46"/>
  <rect x="468" y="0" width="3" height="80" fill="#314C45"/>
  <rect x="471" y="0" width="3" height="80" fill="#345A4B"/>
  <rect x="474" y="0" width="3" height="80" fill="#3A6750"/>
  <rect x="477" y="0" width="3" height="80" fill="#3A6659"/>
  <rect x="480" y="0" width="3" height="80" fill="#476661"/>
  <rect x="483" y="0" width="3" height="80" fill="#4C635B"/>
  <rect x="486" y="0" width="3" height="80" fill="#4D6653"/>
  <rect x="489" y="0" width="3" height="80" fill="#4A6350"/>
  <rect x="492" y="0" width="3" height="80" fill="#466150"/>
  <rect x="495" y="0" width="3" height="80" fill="#456148"/>
  <rect x="498" y="0" width="3" height="80" fill="#415D46"/>
  <rect x="501" y="0" width="3" height="80" fill="#3E4E43"/>
  <rect x="504" y="0" width="3" height="80" fill="#384744"/>
  <rect x="507" y="0" width="3" height="80" fill="#353F41"/>
  <rect x="510" y="0" width="3" height="80" fill="#2D3A40"/>
  <rect x="513" y="0" width="3" height="80" fill="#27343D"/>
  <rect x="516" y="0" width="3" height="80" fill="#23282E"/>
  <rect x="519" y="0" width="3" height="80" fill="#25252F"/>
  <rect x="522" y="0" width="3" height="80" fill="#292830"/>
  <rect x="525" y="0" width="3" height="80" fill="#312C30"/>
  <rect x="528" y="0" width="3" height="80" fill="#343839"/>
  <rect x="531" y="0" width="3" height="80" fill="#384444"/>
  <rect x="534" y="0" width="3" height="80" fill="#38584D"/>
  <rect x="537" y="0" width="3" height="80" fill="#3E6552"/>
  <rect x="540" y="0" width="3" height="80" fill="#406554"/>
  <rect x="543" y="0" width="3" height="80" fill="#3C6754"/>
  <rect x="546" y="0" width="3" height="80" fill="#3F6E5C"/>
  <rect x="549" y="0" width="3" height="80" fill="#40715E"/>
  <rect x="552" y="0" width="3" height="80" fill="#498569"/>
  <rect x="555" y="0" width="3" height="80" fill="#5D9771"/>
  <rect x="558" y="0" width="3" height="80" fill="#5FAC8A"/>
  <rect x="561" y="0" width="3" height="80" fill="#649D7A"/>
  <rect x="564" y="0" width="3" height="80" fill="#5F8B70"/>
  <rect x="567" y="0" width="3" height="80" fill="#5A6F6A"/>
  <rect x="570" y="0" width="3" height="80" fill="#4C5B54"/>
  <rect x="573" y="0" width="3" height="80" fill="#4A544B"/>
  <rect x="576" y="0" width="3" height="80" fill="#484D46"/>
  <rect x="579" y="0" width="3" height="80" fill="#424347"/>
  <rect x="582" y="0" width="3" height="80" fill="#3E4A48"/>
  <rect x="585" y="0" width="3" height="80" fill="#48554C"/>
  <rect x="588" y="0" width="3" height="80" fill="#495B4B"/>
  <rect x="591" y="0" width="3" height="80" fill="#4C644E"/>
  <rect x="594" y="0" width="3" height="80" fill="#4D654F"/>
  <rect x="597" y="0" width="3" height="80" fill="#4D6452"/>
  <rect x="600" y="0" width="3" height="80" fill="#496652"/>
  <rect x="603" y="0" width="3" height="80" fill="#476951"/>
  <rect x="606" y="0" width="3" height="80" fill="#436F4E"/>
  <rect x="609" y="0" width="3" height="80" fill="#406B57"/>
  <rect x="612" y="0" width="3" height="80" fill="#47745F"/>
  <rect x="615" y="0" width="3" height="80" fill="#578963"/>
  <rect x="618" y="0" width="3" height="80" fill="#6F9876"/>
  <rect x="621" y="0" width="3" height="80" fill="#7E8566"/>
  <rect x="624" y="0" width="3" height="80" fill="#A9845A"/>
  <rect x="627" y="0" width="3" height="80" fill="#95775D"/>
  <rect x="630" y="0" width="3" height="80" fill="#6F6D58"/>
  <rect x="633" y="0" width="3" height="80" fill="#645C4F"/>
  <rect x="636" y="0" width="3" height="80" fill="#5A5C4E"/>
  <rect x="639" y="0" width="3" height="80" fill="#515B52"/>
  <rect x="642" y="0" width="3" height="80" fill="#505B4D"/>
  <rect x="645" y="0" width="3" height="80" fill="#505D4C"/>
  <rect x="648" y="0" width="3" height="80" fill="#4A5F4C"/>
  <rect x="651" y="0" width="3" height="80" fill="#4A5D49"/>
  <rect x="654" y="0" width="3" height="80" fill="#475C49"/>
  <rect x="657" y="0" width="3" height="80" fill="#4B5240"/>
  <rect x="660" y="0" width="3" height="80" fill="#515530"/>
  <rect x="663" y="0" width="3" height="80" fill="#524636"/>
  <rect x="666" y="0" width="3" height="80" fill="#4A3E32"/>
  <rect x="669" y="0" width="3" height="80" fill="#3E3538"/>
  <rect x="672" y="0" width="3" height="80" fill="#363034"/>
  <rect x="675" y="0" width="3" height="80" fill="#382D33"/>
  <rect x="678" y="0" width="3" height="80" fill="#352B33"/>
  <rect x="681" y="0" width="3" height="80" fill="#2F2C33"/>
  <rect x="684" y="0" width="3" height="80" fill="#2F3237"/>
  <rect x="687" y="0" width="3" height="80" fill="#2D3B3E"/>
  <rect x="690" y="0" width="3" height="80" fill="#30454A"/>
  <rect x="693" y="0" width="3" height="80" fill="#37564E"/>
  <rect x="696" y="0" width="3" height="80" fill="#356358"/>
  <rect x="699" y="0" width="3" height="80" fill="#375A5C"/>
  <rect x="702" y="0" width="3" height="80" fill="#364F4B"/>
  <rect x="705" y="0" width="3" height="80" fill="#34403E"/>
  <rect x="708" y="0" width="3" height="80" fill="#373236"/>
  <rect x="711" y="0" width="3" height="80" fill="#372C32"/>
  <rect x="714" y="0" width="3" height="80" fill="#352C31"/>
  <rect x="717" y="0" width="3" height="80" fill="#2E2A29"/>
  <rect x="720" y="0" width="3" height="80" fill="#2D2A31"/>
  <rect x="723" y="0" width="3" height="80" fill="#343235"/>
  <rect x="726" y="0" width="3" height="80" fill="#38383A"/>
  <rect x="729" y="0" width="3" height="80" fill="#37403F"/>
  <rect x="732" y="0" width="3" height="80" fill="#405147"/>
  <rect x="735" y="0" width="3" height="80" fill="#496050"/>
  <rect x="738" y="0" width="3" height="80" fill="#4D675E"/>
  <rect x="741" y="0" width="3" height="80" fill="#57675D"/>
  <rect x="744" y="0" width="3" height="80" fill="#547558"/>
  <rect x="747" y="0" width="3" height="80" fill="#55815E"/>
  <rect x="750" y="0" width="3" height="80" fill="#4C7F60"/>
  <rect x="753" y="0" width="3" height="80" fill="#457B64"/>
  <rect x="756" y="0" width="3" height="80" fill="#477863"/>
  <rect x="759" y="0" width="3" height="80" fill="#467561"/>
  <rect x="762" y="0" width="3" height="80" fill="#47725F"/>
  <rect x="765" y="0" width="3" height="80" fill="#547756"/>
</svg>
