<svg xmlns="http://www.w3.org/2000/svg" width="3072" height="80" viewBox="0 0 3072 80" preserveAspectRatio="none">
<metadata>
  <rdf:RDF xmlns:rdf="http://www.w3.org/1999/02/22-rdf-syntax-ns#"
           xmlns:dc="http://purl.org/dc/elements/1.1/">
    <rdf:Description rdf:about="">
      <dc:title>F stands for liFe</dc:title>
      <dc:creator>F stands for liFe</dc:creator>
      <dc:rights>Copyright (c) 2021 F stands for liFe. All rights reserved.</dc:rights>
    </rdf:Description>
  </rdf:RDF>
</metadata>
  <rect x="0" y="0" width="12" height="80" fill="#1A1C42"/>
  <rect x="12" y="0" width="12" height="80" fill="#3C4E63"/>
  <rect x="24" y="0" width="12" height="80" fill="#40757B"/>
  <rect x="36" y="0" width="12" height="80" fill="#399083"/>
  <rect x="48" y="0" width="12" height="80" fill="#3A9D66"/>
  <rect x="60" y="0" width="12" height="80" fill="#46A36B"/>
  <rect x="72" y="0" width="12" height="80" fill="#399067"/>
  <rect x="84" y="0" width="12" height="80" fill="#3B7E6D"/>
  <rect x="96" y="0" width="12" height="80" fill="#37717B"/>
  <rect x="108" y="0" width="12" height="80" fill="#4A535C"/>
  <rect x="120" y="0" width="12" height="80" fill="#46496B"/>
  <rect x="132" y="0" width="12" height="80" fill="#7A5874"/>
  <rect x="144" y="0" width="12" height="80" fill="#A08288"/>
  <rect x="156" y="0" width="12" height="80" fill="#90C089"/>
  <rect x="168" y="0" width="12" height="80" fill="#7ACB9B"/>
  <rect x="180" y="0" width="12" height="80" fill="#74D57C"/>
  <rect x="192" y="0" width="12" height="80" fill="#6EDA77"/>
  <rect x="204" y="0" width="12" height="80" fill="#6DD978"/>
  <rect x="216" y="0" width="12" height="80" fill="#6DCE75"/>
  <rect x="228" y="0" width="12" height="80" fill="#68CC74"/>
  <rect x="240" y="0" width="12" height="80" fill="#66C976"/>
  <rect x="252" y="0" width="12" height="80" fill="#60C775"/>
  <rect x="264" y="0" width="12" height="80" fill="#61D073"/>
  <rect x="276" y="0" width="12" height="80" fill="#67CA77"/>
  <rect x="288" y="0" width="12" height="80" fill="#68B68C"/>
  <rect x="300" y="0" width="12" height="80" fill="#6E8E77"/>
  <rect x="312" y="0" width="12" height="80" fill="#7B777C"/>
  <rect x="324" y="0" width="12" height="80" fill="#6E4C73"/>
  <rect x="336" y="0" width="12" height="80" fill="#7D5078"/>
  <rect x="348" y="0" width="12" height="80" fill="#9D5187"/>
  <rect x="360" y="0" width="12" height="80" fill="#C05692"/>
  <rect x="372" y="0" width="12" height="80" fill="#BE4C96"/>
  <rect x="384" y="0" width="12" height="80" fill="#B52C8C"/>
  <rect x="396" y="0" width="12" height="80" fill="#51215A"/>
  <rect x="408" y="0" width="12" height="80" fill="#2E1040"/>
  <rect x="420" y="0" width="12" height="80" fill="#1D0437"/>
  <rect x="432" y="0" width="12" height="80" fill="#110036"/>
  <rect x="444" y="0" width="12" height="80" fill="#0F0B3A"/>
  <rect x="456" y="0" width="12" height="80" fill="#17233F"/>
  <rect x="468" y="0" width="12" height="80" fill="#152C49"/>
  <rect x="480" y="0" width="12" height="80" fill="#1B324E"/>
  <rect x="492" y="0" width="12" height="80" fill="#21294A"/>
  <rect x="504" y="0" width="12" height="80" fill="#25324D"/>
  <rect x="516" y="0" width="12" height="80" fill="#283254"/>
  <rect x="528" y="0" width="12" height="80" fill="#202655"/>
  <rect x="540" y="0" width="12" height="80" fill="#202553"/>
  <rect x="552" y="0" width="12" height="80" fill="#1F1947"/>
  <rect x="564" y="0" width="12" height="80" fill="#16153F"/>
  <rect x="576" y="0" width="12" height="80" fill="#1E093B"/>
  <rect x="588" y="0" width="12" height="80" fill="#1B1141"/>
  <rect x="600" y="0" width="12" height="80" fill="#221749"/>
  <rect x="612" y="0" width="12" height="80" fill="#241C4C"/>
  <rect x="624" y="0" width="12" height="80" fill="#22204A"/>
  <rect x="636" y="0" width="12" height="80" fill="#202451"/>
  <rect x="648" y="0" width="12" height="80" fill="#1B1B46"/>
  <rect x="660" y="0" width="12" height="80" fill="#1D2040"/>
  <rect x="672" y="0" width="12" height="80" fill="#1A2041"/>
  <rect x="684" y="0" width="12" height="80" fill="#1A2742"/>
  <rect x="696" y="0" width="12" height="80" fill="#141A3F"/>
  <rect x="708" y="0" width="12" height="80" fill="#10133C"/>
  <rect x="720" y="0" width="12" height="80" fill="#0B0B3B"/>
  <rect x="732" y="0" width="12" height="80" fill="#0F163C"/>
  <rect x="744" y="0" width="12" height="80" fill="#11223E"/>
  <rect x="756" y="0" width="12" height="80" fill="#132D43"/>
  <rect x="768" y="0" width="12" height="80" fill="#194450"/>
  <rect x="780" y="0" width="12" height="80" fill="#2B5C5E"/>
  <rect x="792" y="0" width="12" height="80" fill="#44766A"/>
  <rect x="804" y="0" width="12" height="80" fill="#56806C"/>
  <rect x="816" y="0" width="12" height="80" fill="#4B866E"/>
  <rect x="828" y="0" width="12" height="80" fill="#53906A"/>
  <rect x="840" y="0" width="12" height="80" fill="#51896B"/>
  <rect x="852" y="0" width="12" height="80" fill="#537B6C"/>
  <rect x="864" y="0" width="12" height="80" fill="#446F6D"/>
  <rect x="876" y="0" width="12" height="80" fill="#3A4E5E"/>
  <rect x="888" y="0" width="12" height="80" fill="#2E385C"/>
  <rect x="900" y="0" width="12" height="80" fill="#323C51"/>
  <rect x="912" y="0" width="12" height="80" fill="#2C4652"/>
  <rect x="924" y="0" width="12" height="80" fill="#24565C"/>
  <rect x="936" y="0" width="12" height="80" fill="#167461"/>
  <rect x="948" y="0" width="12" height="80" fill="#32796A"/>
  <rect x="960" y="0" width="12" height="80" fill="#509270"/>
  <rect x="972" y="0" width="12" height="80" fill="#67B077"/>
  <rect x="984" y="0" width="12" height="80" fill="#71C77B"/>
  <rect x="996" y="0" width="12" height="80" fill="#79D479"/>
  <rect x="1008" y="0" width="12" height="80" fill="#7DDD7D"/>
  <rect x="1020" y="0" width="12" height="80" fill="#79E279"/>
  <rect x="1032" y="0" width="12" height="80" fill="#7CDA7C"/>
  <rect x="1044" y="0" width="12" height="80" fill="#74D77C"/>
  <rect x="1056" y="0" width="12" height="80" fill="#73D67B"/>
  <rect x="1068" y="0" width="12" height="80" fill="#6CC177"/>
  <rect x="1080" y="0" width="12" height="80" fill="#5DA576"/>
  <rect x="1092" y="0" width="12" height="80" fill="#558A70"/>
  <rect x="1104" y="0" width="12" height="80" fill="#49756F"/>
  <rect x="1116" y="0" width="12" height="80" fill="#464B6B"/>
  <rect x="1128" y="0" width="12" height="80" fill="#454D66"/>
  <rect x="1140" y="0" width="12" height="80" fill="#35686A"/>
  <rect x="1152" y="0" width="12" height="80" fill="#2A715D"/>
  <rect x="1164" y="0" width="12" height="80" fill="#267B67"/>
  <rect x="1176" y="0" width="12" height="80" fill="#2B8654"/>
  <rect x="1188" y="0" width="12" height="80" fill="#2C8467"/>
  <rect x="1200" y="0" width="12" height="80" fill="#288A6B"/>
  <rect x="1212" y="0" width="12" height="80" fill="#1E8C5A"/>
  <rect x="1224" y="0" width="12" height="80" fill="#3C9F67"/>
  <rect x="1236" y="0" width="12" height="80" fill="#57B57B"/>
  <rect x="1248" y="0" width="12" height="80" fill="#6EBF76"/>
  <rect x="1260" y="0" width="12" height="80" fill="#ADCD8C"/>
  <rect x="1272" y="0" width="12" height="80" fill="#A5D995"/>
  <rect x="1284" y="0" width="12" height="80" fill="#B5EF9C"/>
  <rect x="1296" y="0" width="12" height="80" fill="#B1F198"/>
  <rect x="1308" y="0" width="12" height="80" fill="#A7F192"/>
  <rect x="1320" y="0" width="12" height="80" fill="#A2ED8F"/>
  <rect x="1332" y="0" width="12" height="80" fill="#95E18B"/>
  <rect x="1344" y="0" width="12" height="80" fill="#92D38E"/>
  <rect x="1356" y="0" width="12" height="80" fill="#88D584"/>
  <rect x="1368" y="0" width="12" height="80" fill="#83D87E"/>
  <rect x="1380" y="0" width="12" height="80" fill="#8BDB82"/>
  <rect x="1392" y="0" width="12" height="80" fill="#8AE384"/>
  <rect x="1404" y="0" width="12" height="80" fill="#83E87E"/>
  <rect x="1416" y="0" width="12" height="80" fill="#9AE988"/>
  <rect x="1428" y="0" width="12" height="80" fill="#99EC8A"/>
  <rect x="1440" y="0" width="12" height="80" fill="#A6F091"/>
  <rect x="1452" y="0" width="12" height="80" fill="#BEF0A1"/>
  <rect x="1464" y="0" width="12" height="80" fill="#C5F2A0"/>
  <rect x="1476" y="0" width="12" height="80" fill="#C4E4A8"/>
  <rect x="1488" y="0" width="12" height="80" fill="#DAEAA6"/>
  <rect x="1500" y="0" width="12" height="80" fill="#EBE59B"/>
  <rect x="1512" y="0" width="12" height="80" fill="#E2EEA2"/>
  <rect x="1524" y="0" width="12" height="80" fill="#D7ECA6"/>
  <rect x="1536" y="0" width="12" height="80" fill="#C6F1A0"/>
  <rect x="1548" y="0" width="12" height="80" fill="#BEEE9E"/>
  <rect x="1560" y="0" width="12" height="80" fill="#99E38C"/>
  <rect x="1572" y="0" width="12" height="80" fill="#7BD97B"/>
  <rect x="1584" y="0" width="12" height="80" fill="#5FC674"/>
  <rect x="1596" y="0" width="12" height="80" fill="#49A171"/>
  <rect x="1608" y="0" width="12" height="80" fill="#36906F"/>
  <rect x="1620" y="0" width="12" height="80" fill="#228252"/>
  <rect x="1632" y="0" width="12" height="80" fill="#1E6F4C"/>
  <rect x="1644" y="0" width="12" height="80" fill="#246156"/>
  <rect x="1656" y="0" width="12" height="80" fill="#225F51"/>
  <rect x="1668" y="0" width="12" height="80" fill="#1A5E50"/>
  <rect x="1680" y="0" width="12" height="80" fill="#1B6057"/>
  <rect x="1692" y="0" width="12" height="80" fill="#165D59"/>
  <rect x="1704" y="0" width="12" height="80" fill="#165855"/>
  <rect x="1716" y="0" width="12" height="80" fill="#185A57"/>
  <rect x="1728" y="0" width="12" height="80" fill="#1B5955"/>
  <rect x="1740" y="0" width="12" height="80" fill="#2C5961"/>
  <rect x="1752" y="0" width="12" height="80" fill="#345264"/>
  <rect x="1764" y="0" width="12" height="80" fill="#354260"/>
  <rect x="1776" y="0" width="12" height="80" fill="#2D214F"/>
  <rect x="1788" y="0" width="12" height="80" fill="#30234F"/>
  <rect x="1800" y="0" width="12" height="80" fill="#3D3059"/>
  <rect x="1812" y="0" width="12" height="80" fill="#616E75"/>
  <rect x="1824" y="0" width="12" height="80" fill="#66977F"/>
  <rect x="1836" y="0" width="12" height="80" fill="#6EAB8E"/>
  <rect x="1848" y="0" width="12" height="80" fill="#60AE83"/>
  <rect x="1860" y="0" width="12" height="80" fill="#4B916D"/>
  <rect x="1872" y="0" width="12" height="80" fill="#2C8585"/>
  <rect x="1884" y="0" width="12" height="80" fill="#255A60"/>
  <rect x="1896" y="0" width="12" height="80" fill="#24394E"/>
  <rect x="1908" y="0" width="12" height="80" fill="#1B1D46"/>
  <rect x="1920" y="0" width="12" height="80" fill="#170E3F"/>
  <rect x="1932" y="0" width="12" height="80" fill="#16073A"/>
  <rect x="1944" y="0" width="12" height="80" fill="#130A37"/>
  <rect x="1956" y="0" width="12" height="80" fill="#12093C"/>
  <rect x="1968" y="0" width="12" height="80" fill="#10183F"/>
  <rect x="1980" y="0" width="12" height="80" fill="#0C143E"/>
  <rect x="1992" y="0" width="12" height="80" fill="#121E3A"/>
  <rect x="2004" y="0" width="12" height="80" fill="#0A1438"/>
  <rect x="2016" y="0" width="12" height="80" fill="#071130"/>
  <rect x="2028" y="0" width="12" height="80" fill="#05002E"/>
  <rect x="2040" y="0" width="12" height="80" fill="#09002F"/>
  <rect x="2052" y="0" width="12" height="80" fill="#09002F"/>
  <rect x="2064" y="0" width="12" height="80" fill="#090134"/>
  <rect x="2076" y="0" width="12" height="80" fill="#110235"/>
  <rect x="2088" y="0" width="12" height="80" fill="#0B0439"/>
  <rect x="2100" y="0" width="12" height="80" fill="#0B0B38"/>
  <rect x="2112" y="0" width="12" height="80" fill="#030335"/>
  <rect x="2124" y="0" width="12" height="80" fill="#050132"/>
  <rect x="2136" y="0" width="12" height="80" fill="#06002C"/>
  <rect x="2148" y="0" width="12" height="80" fill="#06002C"/>
  <rect x="2160" y="0" width="12" height="80" fill="#060027"/>
  <rect x="2172" y="0" width="12" height="80" fill="#000024"/>
  <rect x="2184" y="0" width="12" height="80" fill="#010225"/>
  <rect x="2196" y="0" width="12" height="80" fill="#00022C"/>
  <rect x="2208" y="0" width="12" height="80" fill="#00002C"/>
  <rect x="2220" y="0" width="12" height="80" fill="#05002E"/>
  <rect x="2232" y="0" width="12" height="80" fill="#05002E"/>
  <rect x="2244" y="0" width="12" height="80" fill="#03012F"/>
  <rect x="2256" y="0" width="12" height="80" fill="#020134"/>
  <rect x="2268" y="0" width="12" height="80" fill="#040535"/>
  <rect x="2280" y="0" width="12" height="80" fill="#020236"/>
  <rect x="2292" y="0" width="12" height="80" fill="#050138"/>
  <rect x="2304" y="0" width="12" height="80" fill="#070035"/>
  <rect x="2316" y="0" width="12" height="80" fill="#080136"/>
  <rect x="2328" y="0" width="12" height="80" fill="#0A0635"/>
  <rect x="2340" y="0" width="12" height="80" fill="#08073A"/>
  <rect x="2352" y="0" width="12" height="80" fill="#161841"/>
  <rect x="2364" y="0" width="12" height="80" fill="#252F51"/>
  <rect x="2376" y="0" width="12" height="80" fill="#295767"/>
  <rect x="2388" y="0" width="12" height="80" fill="#46786B"/>
  <rect x="2400" y="0" width="12" height="80" fill="#5D9277"/>
  <rect x="2412" y="0" width="12" height="80" fill="#75B58D"/>
  <rect x="2424" y="0" width="12" height="80" fill="#A2D39C"/>
  <rect x="2436" y="0" width="12" height="80" fill="#B9F1A0"/>
  <rect x="2448" y="0" width="12" height="80" fill="#C8E4A0"/>
  <rect x="2460" y="0" width="12" height="80" fill="#C8DD9C"/>
  <rect x="2472" y="0" width="12" height="80" fill="#E572A0"/>
  <rect x="2484" y="0" width="12" height="80" fill="#E864A2"/>
  <rect x="2496" y="0" width="12" height="80" fill="#FF55B8"/>
  <rect x="2508" y="0" width="12" height="80" fill="#E565A1"/>
  <rect x="2520" y="0" width="12" height="80" fill="#DA549E"/>
  <rect x="2532" y="0" width="12" height="80" fill="#BD738F"/>
  <rect x="2544" y="0" width="12" height="80" fill="#8FB28F"/>
  <rect x="2556" y="0" width="12" height="80" fill="#A2D096"/>
  <rect x="2568" y="0" width="12" height="80" fill="#A0DC92"/>
  <rect x="2580" y="0" width="12" height="80" fill="#B5E79E"/>
  <rect x="2592" y="0" width="12" height="80" fill="#B7DDA2"/>
  <rect x="2604" y="0" width="12" height="80" fill="#B8B59E"/>
  <rect x="2616" y="0" width="12" height="80" fill="#C96E94"/>
  <rect x="2628" y="0" width="12" height="80" fill="#E76BA3"/>
  <rect x="2640" y="0" width="12" height="80" fill="#CC64A1"/>
  <rect x="2652" y="0" width="12" height="80" fill="#C15E9E"/>
  <rect x="2664" y="0" width="12" height="80" fill="#775E81"/>
  <rect x="2676" y="0" width="12" height="80" fill="#5B5469"/>
  <rect x="2688" y="0" width="12" height="80" fill="#57666E"/>
  <rect x="2700" y="0" width="12" height="80" fill="#596B6F"/>
  <rect x="2712" y="0" width="12" height="80" fill="#5E7A74"/>
  <rect x="2724" y="0" width="12" height="80" fill="#669077"/>
  <rect x="2736" y="0" width="12" height="80" fill="#70B08B"/>
  <rect x="2748" y="0" width="12" height="80" fill="#6EB08A"/>
  <rect x="2760" y="0" width="12" height="80" fill="#479A72"/>
  <rect x="2772" y="0" width="12" height="80" fill="#337C64"/>
  <rect x="2784" y="0" width="12" height="80" fill="#29656E"/>
  <rect x="2796" y="0" width="12" height="80" fill="#27465D"/>
  <rect x="2808" y="0" width="12" height="80" fill="#23384D"/>
  <rect x="2820" y="0" width="12" height="80" fill="#25364B"/>
  <rect x="2832" y="0" width="12" height="80" fill="#253145"/>
  <rect x="2844" y="0" width="12" height="80" fill="#232B49"/>
  <rect x="2856" y="0" width="12" height="80" fill="#1D2546"/>
  <rect x="2868" y="0" width="12" height="80" fill="#1E2248"/>
  <rect x="2880" y="0" width="12" height="80" fill="#2A2050"/>
  <rect x="2892" y="0" width="12" height="80" fill="#362951"/>
  <rect x="2904" y="0" width="12" height="80" fill="#453C60"/>
  <rect x="2916" y="0" width="12" height="80" fill="#504E6C"/>
  <rect x="2928" y="0" width="12" height="80" fill="#5D6B75"/>
  <rect x="2940" y="0" width="12" height="80" fill="#686E7A"/>
  <rect x="2952" y="0" width="12" height="80" fill="#767072"/>
  <rect x="2964" y="0" width="12" height="80" fill="#B16294"/>
  <rect x="2976" y="0" width="12" height="80" fill="#D05691"/>
  <rect x="2988" y="0" width="12" height="80" fill="#D34299"/>
  <rect x="3000" y="0" width="12" height="80" fill="#CF2C96"/>
  <rect x="3012" y="0" width="12" height="80" fill="#692772"/>
  <rect x="3024" y="0" width="12" height="80" fill="#3E274B"/>
  <rect x="3036" y="0" width="12" height="80" fill="#362342"/>
  <rect x="3048" y="0" width="12" height="80" fill="#4A3D5D"/>
  <rect x="3060" y="0" width="12" height="80" fill="#6D767A"/>
</svg>
