<svg xmlns="http://www.w3.org/2000/svg" viewBox="0 0 158.75 158.751"><path fill="#ff4f00" d="M64.292 37.065 41.107 66.504 7.32 49.115l21.507 31.65-27.303 27.151 37.141-11.135 17.313 35.006.686-39.2 37.752-5.797-35.845-12.583Z" paint-order="markers stroke fill"/><g paint-order="stroke fill markers"><path fill="#1a1a1a" d="M103.397 144.217s-1.556 1.6-2.987 2.53a28.964 28.964 0 0 1-3.073 1.632l6.091-.012z" color="#000" font-family="Gill Sans Ultra Bold" font-size="44.675" font-weight="400" letter-spacing="0" opacity=".8" overflow="visible" style="line-height:1.25;-inkscape-font-specification:&quot;Gill Sans Ultra Bold, Normal&quot;;font-variant-ligatures:normal;font-variant-position:normal;font-variant-caps:normal;font-variant-numeric:normal;font-variant-alternates:normal;font-variant-east-asian:normal;font-feature-settings:normal;font-variation-settings:normal;text-indent:0;text-align:start;text-decoration-line:none;text-decoration-style:solid;text-decoration-color:#000;text-transform:none;text-orientation:mixed;white-space:normal;shape-padding:0;shape-margin:0;inline-size:0;isolation:auto;mix-blend-mode:normal;solid-color:#000;solid-opacity:1" transform="translate(-4.689 -3.855) scale(1.0236)" word-spacing="0"/><path fill="#1a1a1a" d="M90.132 107.044c-12.556.77-23.523 13.297-20.822 26.023 1.356 6.976 6.715 13.64 13.742 15.3l11.854.037c2.61-.975 8.188-4.207 8.485-8.12v-17.149c-5.102-9.26-17.756-8.454-23.53-1.44-5.728 7.905-.774 18.977 6.734 20.203 5.188.847 8.842-.547 11.212-3.636 2.612-3.589 2.85-7.632 1.07-10.866-2.592-6.31-14.43-7.163-15.318 1.85.258 4.547 4.24 8.194 6.493 7.006 3.376-.717 2.717-4.761.581-5.788-2.522-1.214-3.247.258-3.475-1.565-.309-2.469 1.878-3.679 5.918-2.808 5.761 2.946 3.678 10.932-1.36 12.35-3.268 1.122-6.674-.128-8.702-2.554-2.338-2.798-2.22-7.149-1.2-9.888 3.137-6.57 13.494-7.794 17.854-1.466 5.942 7.02.693 18.633-8.132 19.87-9.726 2.132-18.91-7.943-16.74-17.452 1.697-10.59 15.14-15.59 24.29-11.731 1.928.704 3.662 1.829 4.398 2.38 0 0 .008-1.756.006-3.209.006-1.53.012-3.927.012-3.927-.98-.762-1.958-1.338-3.92-2.102a23.296 23.296 0 0 0-6.92-1.305 19.775 19.775 0 0 0-2.53-.013z" color="#000" font-family="Gill Sans Ultra Bold" font-size="44.675" font-weight="400" letter-spacing="0" overflow="visible" style="line-height:1.25;-inkscape-font-specification:&quot;Gill Sans Ultra Bold, Normal&quot;;font-variant-ligatures:normal;font-variant-position:normal;font-variant-caps:normal;font-variant-numeric:normal;font-variant-alternates:normal;font-variant-east-asian:normal;font-feature-settings:normal;font-variation-settings:normal;text-indent:0;text-align:start;text-decoration-line:none;text-decoration-style:solid;text-decoration-color:#000;text-transform:none;text-orientation:mixed;white-space:normal;shape-padding:0;shape-margin:0;inline-size:0;isolation:auto;mix-blend-mode:normal;solid-color:#000;solid-opacity:1" transform="translate(-4.689 -3.855) scale(1.0236)" word-spacing="0"/><path fill="#1a1a1a" d="M46.015 105.678a44.333 44.333 0 0 0-1.713 3.481l.019 39.263 6.474-.012h8.67c-5.605-7.962-7.14-18.015-5.182-27.359z" color="#000" font-family="Gill Sans Ultra Bold" font-size="44.675" font-weight="400" letter-spacing="0" opacity=".1" overflow="visible" style="line-height:1.25;-inkscape-font-specification:&quot;Gill Sans Ultra Bold, Normal&quot;;font-variant-ligatures:normal;font-variant-position:normal;font-variant-caps:normal;font-variant-numeric:normal;font-variant-alternates:normal;font-variant-east-asian:normal;font-feature-settings:normal;font-variation-settings:normal;text-indent:0;text-align:start;text-decoration-line:none;text-decoration-style:solid;text-decoration-color:#000;text-transform:none;text-orientation:mixed;white-space:normal;shape-padding:0;shape-margin:0;inline-size:0;isolation:auto;mix-blend-mode:normal;solid-color:#000;solid-opacity:1" transform="translate(-4.689 -3.855) scale(1.0236)" word-spacing="0"/><path fill="#1a1a1a" d="M90.534 93.81c-13.394.601-25.896 9.586-31.174 21.787l-.618 13.753-1.93-3.586c-.017.234-.061.463-.074.698-.567 7.81 1.893 15.765 6.685 21.948h12.028c-10.743-7.412-12.906-23.778-4.817-33.92 7.177-10.078 21.755-13.804 32.794-8.299 1.484-.044 4.198-.06 6.184-.074h10.556c-6.74-7.238-16.262-11.91-26.195-12.276a31.517 31.517 0 0 0-3.439-.03z" color="#000" font-family="Gill Sans Ultra Bold" font-size="44.675" font-weight="400" letter-spacing="0" overflow="visible" style="line-height:1.25;-inkscape-font-specification:&quot;Gill Sans Ultra Bold, Normal&quot;;font-variant-ligatures:normal;font-variant-position:normal;font-variant-caps:normal;font-variant-numeric:normal;font-variant-alternates:normal;font-variant-east-asian:normal;font-feature-settings:normal;font-variation-settings:normal;text-indent:0;text-align:start;text-decoration-line:none;text-decoration-style:solid;text-decoration-color:#000;text-transform:none;text-orientation:mixed;white-space:normal;shape-padding:0;shape-margin:0;inline-size:0;isolation:auto;mix-blend-mode:normal;solid-color:#000;solid-opacity:1" transform="translate(-4.689 -3.855) scale(1.0236)" word-spacing="0"/><path fill="#1a1a1a" d="M91.66 79.235c-4.97.117-9.948.92-14.737 2.35l17.748 6.66-34.365 6.22-.612 13.587a34.271 34.271 0 0 1 4.273-5.244c12.075-13.132 33.258-16.105 48.52-6.876 4.97 2.765 11.555 10.17 12.573 10.172l15.967.013c-.034-2.73-4.469-7.64-7.322-10.594-10.057-9.988-23.987-15.785-38.125-16.239a53.578 53.578 0 0 0-3.92-.05z" color="#000" font-family="Gill Sans Ultra Bold" font-size="44.675" font-weight="400" letter-spacing="0" opacity=".1" overflow="visible" style="line-height:1.25;-inkscape-font-specification:&quot;Gill Sans Ultra Bold, Normal&quot;;font-variant-ligatures:normal;font-variant-position:normal;font-variant-caps:normal;font-variant-numeric:normal;font-variant-alternates:normal;font-variant-east-asian:normal;font-feature-settings:normal;font-variation-settings:normal;text-indent:0;text-align:start;text-decoration-line:none;text-decoration-style:solid;text-decoration-color:#000;text-transform:none;text-orientation:mixed;white-space:normal;shape-padding:0;shape-margin:0;inline-size:0;isolation:auto;mix-blend-mode:normal;solid-color:#000;solid-opacity:1" transform="translate(-4.689 -3.855) scale(1.0236)" word-spacing="0"/><path fill="#1a1a1a" d="M93.602 57.225c-10.222.02-20.428 2.1-29.894 5.968L61.97 75.976l7.05 2.646c10.22-4.895 21.847-6.819 33.116-4.842 15.513 2.414 29.682 11.49 38.891 24.13V72.593H105.98a2.588 2.588 45 0 1-2.588-2.588V57.77a82.544 82.544 0 0 0-9.79-.545z" color="#000" font-family="Gill Sans Ultra Bold" font-size="44.675" font-weight="400" letter-spacing="0" opacity=".4" overflow="visible" style="line-height:1.25;-inkscape-font-specification:&quot;Gill Sans Ultra Bold, Normal&quot;;font-variant-ligatures:normal;font-variant-position:normal;font-variant-caps:normal;font-variant-numeric:normal;font-variant-alternates:normal;font-variant-east-asian:normal;font-feature-settings:normal;font-variation-settings:normal;text-indent:0;text-align:start;text-decoration-line:none;text-decoration-style:solid;text-decoration-color:#000;text-transform:none;text-orientation:mixed;white-space:normal;shape-padding:0;shape-margin:0;inline-size:0;isolation:auto;mix-blend-mode:normal;solid-color:#000;solid-opacity:1" transform="translate(-4.689 -3.855) scale(1.0236)" word-spacing="0"/><path fill="#1a1a1a" d="M94.795 29.465c-17.513-.02-35.036 4.257-50.493 12.51v26.413l.08.043c.626-.516 1.27-1.001 1.911-1.497L66.676 41.37l-2.04 15.028c12.227-4.961 25.692-6.88 38.804-5.195l.002-.36a2.525 2.525 135.194 0 1 2.525-2.509l48.195.012c-.04-.98-7.224-5.988-11.719-8.083-14.806-7.12-31.22-10.83-47.648-10.797Z" color="#000" font-family="Gill Sans Ultra Bold" font-size="44.675" font-weight="400" letter-spacing="0" opacity=".65" overflow="visible" style="line-height:1.25;-inkscape-font-specification:&quot;Gill Sans Ultra Bold, Normal&quot;;font-variant-ligatures:normal;font-variant-position:normal;font-variant-caps:normal;font-variant-numeric:normal;font-variant-alternates:normal;font-variant-east-asian:normal;font-feature-settings:normal;font-variation-settings:normal;text-indent:0;text-align:start;text-decoration-line:none;text-decoration-style:solid;text-decoration-color:#000;text-transform:none;text-orientation:mixed;white-space:normal;shape-padding:0;shape-margin:0;inline-size:0;isolation:auto;mix-blend-mode:normal;solid-color:#000;solid-opacity:1" transform="translate(-4.689 -3.855) scale(1.0236)" word-spacing="0"/><path fill="#1a1a1a" d="M44.302 14.821V35.47c28.823-16.14 65.23-17.281 95.148-3.37a113.08 113.08 0 0 1 14.712 8.094V14.821Z" color="#000" font-family="Gill Sans Ultra Bold" font-size="44.675" font-weight="400" letter-spacing="0" opacity=".9" overflow="visible" style="line-height:1.25;-inkscape-font-specification:&quot;Gill Sans Ultra Bold, Normal&quot;;font-variant-ligatures:normal;font-variant-position:normal;font-variant-caps:normal;font-variant-numeric:normal;font-variant-alternates:normal;font-variant-east-asian:normal;font-feature-settings:normal;font-variation-settings:normal;text-indent:0;text-align:start;text-decoration-line:none;text-decoration-style:solid;text-decoration-color:#000;text-transform:none;text-orientation:mixed;white-space:normal;shape-padding:0;shape-margin:0;inline-size:0;isolation:auto;mix-blend-mode:normal;solid-color:#000;solid-opacity:1" transform="translate(-4.689 -3.855) scale(1.0236)" word-spacing="0"/><path fill="#ff4f00" fill-rule="evenodd" d="M88.817 132.166a1.053 1.053 0 0 1-1.053 1.054 1.053 1.053 0 0 1-1.054-1.052 1.053 1.053 0 0 1 1.052-1.055 1.053 1.053 0 0 1 1.055 1.05"/></g><path fill="none" stroke="#fff" stroke-linecap="round" stroke-linejoin="round" stroke-width="5.552" d="M37.966 100.303c-.004 22.499-.008 24.955.018 47.454-.104 1.453 1.06 2.698 2.451 2.94 1.388.276 2.81-.007 4.216.085 18.956-.03 37.915.005 56.87-.099 1.908-.354 2.659-2.57 2.372-4.288V107.55c12.057-.038 24.116 0 36.17-.122 1.878-.394 2.597-2.581 2.32-4.285-.016-11.02.049-22.045-.053-33.064-.383-1.886-2.577-2.614-4.285-2.333h-34.18l.05-19.417c16.526-.008 33.055.058 49.58-.038 1.886-.383 2.613-2.578 2.333-4.285-.024-11.044.062-22.091-.062-33.132-.35-1.62-2.121-2.384-3.64-2.31h0c-11.751.093-23.507.02-35.26.042-25.476.004-50.953-.012-76.427.026-1.856.303-2.834 2.408-2.487 4.131.024 22.5.02 27.665.015 50.164" paint-order="markers stroke fill"/><path fill="#fff" fill-rule="evenodd" d="M68.232 37.476 45.314 66.221 12.207 50.259a1.032 1.032 131.152 0 0-1.31 1.498l20.254 30.674-25.08 26.204a1.164 1.164 59.156 0 0 1.152 1.927l34.965-9.652 17.674 32.874a.874.874 167.15 0 0 1.643-.374l1.668-37.286 35.23-6.378a1.294 1.294 95.145 0 0 .223-2.484L96.33 86.4 65.107 74.68l4.95-36.424a1.03 1.03 23.152 0 0-1.825-.78zm-3.848 13.29-3.378 24.85a2.09 2.09 59.153 0 0 1.336 2.237l23.408 8.782a.739.739 95.15 0 1-.128 1.418l-24.857 4.502a1.766 1.766 131.146 0 0-1.45 1.659l-1.108 24.82a.854.854 167.142 0 1-1.604.365L44.75 97.36a1.544 1.544 23.146 0 0-1.77-.757l-24.763 6.837a.67.67 59.15 0 1-.662-1.108l17.277-18.057a2.42 2.42 95.155 0 0 .271-3.005l-13.71-20.773a.696.696 131.156 0 1 .883-1.011l22.582 10.887a2.193 2.193 167.156 0 0 2.667-.608L63.112 50.22a.717.717 23.157 0 1 1.272.544z" color="#000" font-family="sans-serif" font-weight="400" opacity=".999" overflow="visible" paint-order="stroke fill markers" style="line-height:normal;font-variant-ligatures:normal;font-variant-position:normal;font-variant-caps:normal;font-variant-numeric:normal;font-variant-alternates:normal;font-variant-east-asian:normal;font-feature-settings:normal;font-variation-settings:normal;text-indent:0;text-align:start;text-decoration-line:none;text-decoration-style:solid;text-decoration-color:#000;text-transform:none;text-orientation:mixed;white-space:normal;shape-padding:0;shape-margin:0;inline-size:0;isolation:auto;mix-blend-mode:normal;solid-color:#000;solid-opacity:1" transform="translate(-5.683 -3.855) scale(1.0236)"/></svg>