<svg xmlns="http://www.w3.org/2000/svg" width="2997" height="180" viewBox="0 0 792.96 47.63"><g fill="#011f6a"><rect width="792.12" height="47.15" x=".59" y=".24" fill="#2a4079" fill-rule="evenodd" rx="15.78" ry="13.37"/><path fill="#3588e3" d="M28.92 35.29s-.28.29-.54.46c-.29.17-.56.3-.56.3h1.1zM26.5 28.51c-2.28.14-4.28 2.43-3.79 4.74.25 1.28 1.23 2.49 2.5 2.8h2.17c.47-.18 1.49-.77 1.54-1.48v-3.13c-.93-1.68-3.23-1.54-4.29-.26-1.04 1.44-.14 3.46 1.23 3.68.95.16 1.61-.1 2.04-.66.48-.65.52-1.39.2-1.98-.47-1.15-2.63-1.3-2.8.34.06.83.78 1.5 1.2 1.28.6-.14.49-.87.1-1.06-.46-.22-.6.05-.64-.28-.05-.45.35-.68 1.08-.52 1.05.54.67 2-.25 2.25-.59.2-1.21-.02-1.58-.46-.43-.51-.4-1.3-.22-1.8.57-1.2 2.46-1.42 3.25-.27 1.09 1.28.13 3.4-1.48 3.62-1.77.39-3.44-1.45-3.05-3.18.31-1.93 2.76-2.84 4.43-2.14.35.13.67.34.8.44V29.14a2.56 2.56 0 0 0-.71-.39 4.24 4.24 0 0 0-1.72-.24zM18.47 28.26c-.12.21-.22.42-.32.64v7.15h2.77a6.39 6.39 0 0 1-.95-4.99z" color="#000" font-family="Gill Sans Ultra Bold" font-size="44.68" font-weight="400" letter-spacing="0" overflow="visible" paint-order="markers stroke fill" style="line-height:1.25;-inkscape-font-specification:&quot;Gill Sans Ultra Bold, Normal&quot;;font-variant-ligatures:normal;font-variant-position:normal;font-variant-caps:normal;font-variant-numeric:normal;font-variant-alternates:normal;font-variant-east-asian:normal;font-feature-settings:normal;font-variation-settings:normal;text-indent:0;text-align:start;text-decoration-line:none;text-decoration-style:solid;text-decoration-color:#000;text-transform:none;text-orientation:mixed;white-space:normal;shape-padding:0;shape-margin:0;inline-size:0;isolation:auto;mix-blend-mode:normal;solid-color:#000;solid-opacity:1" word-spacing="0"/><path fill="#3588e3" d="M26.58 26.1a6.69 6.69 0 0 0-5.68 3.97l-.11 2.5-.36-.65v.13a5.9 5.9 0 0 0 1.2 4h2.2a4.4 4.4 0 0 1-.88-6.18 4.88 4.88 0 0 1 5.98-1.51l1.13-.02h1.92a6.97 6.97 0 0 0-5.4-2.24z" color="#000" font-family="Gill Sans Ultra Bold" font-size="44.68" font-weight="400" letter-spacing="0" overflow="visible" paint-order="markers stroke fill" style="line-height:1.25;-inkscape-font-specification:&quot;Gill Sans Ultra Bold, Normal&quot;;font-variant-ligatures:normal;font-variant-position:normal;font-variant-caps:normal;font-variant-numeric:normal;font-variant-alternates:normal;font-variant-east-asian:normal;font-feature-settings:normal;font-variation-settings:normal;text-indent:0;text-align:start;text-decoration-line:none;text-decoration-style:solid;text-decoration-color:#000;text-transform:none;text-orientation:mixed;white-space:normal;shape-padding:0;shape-margin:0;inline-size:0;isolation:auto;mix-blend-mode:normal;solid-color:#000;solid-opacity:1" word-spacing="0"/><path fill="#3588e3" d="M26.78 23.44c-.9.03-1.8.17-2.68.43l3.23 1.22-6.26 1.13-.11 2.48a7.23 7.23 0 0 1 9.62-2.2c.9.5 2.1 1.84 2.3 1.84h2.9c0-.5-.81-1.39-1.33-1.93a10.41 10.41 0 0 0-7.67-2.96z" color="#000" font-family="Gill Sans Ultra Bold" font-size="44.68" font-weight="400" letter-spacing="0" overflow="visible" paint-order="markers stroke fill" style="line-height:1.25;-inkscape-font-specification:&quot;Gill Sans Ultra Bold, Normal&quot;;font-variant-ligatures:normal;font-variant-position:normal;font-variant-caps:normal;font-variant-numeric:normal;font-variant-alternates:normal;font-variant-east-asian:normal;font-feature-settings:normal;font-variation-settings:normal;text-indent:0;text-align:start;text-decoration-line:none;text-decoration-style:solid;text-decoration-color:#000;text-transform:none;text-orientation:mixed;white-space:normal;shape-padding:0;shape-margin:0;inline-size:0;isolation:auto;mix-blend-mode:normal;solid-color:#000;solid-opacity:1" word-spacing="0"/><path fill="#3588e3" d="M27.14 19.43c-1.86 0-3.72.39-5.45 1.1l-.32 2.32 1.29.48c1.86-.89 3.98-1.24 6.03-.88a11 11 0 0 1 7.1 4.4v-4.62h-6.87v-2.7c-.59-.06-1.19-.1-1.78-.1z" color="#000" font-family="Gill Sans Ultra Bold" font-size="44.68" font-weight="400" letter-spacing="0" overflow="visible" paint-order="markers stroke fill" style="line-height:1.25;-inkscape-font-specification:&quot;Gill Sans Ultra Bold, Normal&quot;;font-variant-ligatures:normal;font-variant-position:normal;font-variant-caps:normal;font-variant-numeric:normal;font-variant-alternates:normal;font-variant-east-asian:normal;font-feature-settings:normal;font-variation-settings:normal;text-indent:0;text-align:start;text-decoration-line:none;text-decoration-style:solid;text-decoration-color:#000;text-transform:none;text-orientation:mixed;white-space:normal;shape-padding:0;shape-margin:0;inline-size:0;isolation:auto;mix-blend-mode:normal;solid-color:#000;solid-opacity:1" word-spacing="0"/><path fill="#3588e3" d="M27.36 14.38c-3.2 0-6.39.77-9.2 2.27v4.82l.36-.27 3.71-4.66-.37 2.74c2.23-.9 4.68-1.25 7.07-.94v-.53h9.24c0-.17-1.31-1.09-2.13-1.47a20.02 20.02 0 0 0-8.68-1.96z" color="#000" font-family="Gill Sans Ultra Bold" font-size="44.68" font-weight="400" letter-spacing="0" overflow="visible" paint-order="markers stroke fill" style="line-height:1.25;-inkscape-font-specification:&quot;Gill Sans Ultra Bold, Normal&quot;;font-variant-ligatures:normal;font-variant-position:normal;font-variant-caps:normal;font-variant-numeric:normal;font-variant-alternates:normal;font-variant-east-asian:normal;font-feature-settings:normal;font-variation-settings:normal;text-indent:0;text-align:start;text-decoration-line:none;text-decoration-style:solid;text-decoration-color:#000;text-transform:none;text-orientation:mixed;white-space:normal;shape-padding:0;shape-margin:0;inline-size:0;isolation:auto;mix-blend-mode:normal;solid-color:#000;solid-opacity:1" word-spacing="0"/><path fill="#3588e3" d="M18.15 11.7v3.77a19.34 19.34 0 0 1 20.02.86v-4.62z" color="#000" font-family="Gill Sans Ultra Bold" font-size="44.68" font-weight="400" letter-spacing="0" overflow="visible" paint-order="markers stroke fill" style="line-height:1.25;-inkscape-font-specification:&quot;Gill Sans Ultra Bold, Normal&quot;;font-variant-ligatures:normal;font-variant-position:normal;font-variant-caps:normal;font-variant-numeric:normal;font-variant-alternates:normal;font-variant-east-asian:normal;font-feature-settings:normal;font-variation-settings:normal;text-indent:0;text-align:start;text-decoration-line:none;text-decoration-style:solid;text-decoration-color:#000;text-transform:none;text-orientation:mixed;white-space:normal;shape-padding:0;shape-margin:0;inline-size:0;isolation:auto;mix-blend-mode:normal;solid-color:#000;solid-opacity:1" word-spacing="0"/><path fill="none" stroke="#fff" stroke-linecap="round" stroke-linejoin="round" stroke-width=".93" d="M17.7 21.09v-9.84h20.05v7.04h-8.37v3.48h6.86v7.03h-6.82v7.73H17.78Z"/><path fill="#fff" stroke="#000" stroke-width=".05" d="m12.99 19.1 5.27 2.43 3.8-4.72-.62 6.01 5.78 2.22-6.13 1.3-.32 5.78-3-5.1-5.98 1.6 4.2-4.5z"/><path fill="#fff" fill-rule="evenodd" d="m22.76 15.3-4.6 5.77-6.65-3.2 4.07 6.16-5.1 5.33 7.11-1.97 3.5 6.5.33-7.37 7.26-1.31-1.22-.46-5.7-2.14zM21.7 17.8l-.72 5.3 5 1.87-5.25.96-.24 5.34-2.54-4.71-5.15 1.42 3.7-3.86-2.95-4.46 4.82 2.32z" color="#000" font-family="sans-serif" font-weight="400" overflow="visible" style="line-height:normal;font-variant-ligatures:normal;font-variant-position:normal;font-variant-caps:normal;font-variant-numeric:normal;font-variant-alternates:normal;font-variant-east-asian:normal;font-feature-settings:normal;font-variation-settings:normal;text-indent:0;text-align:start;text-decoration-line:none;text-decoration-style:solid;text-decoration-color:#000;text-transform:none;text-orientation:mixed;white-space:normal;shape-padding:0;shape-margin:0;inline-size:0;isolation:auto;mix-blend-mode:normal;solid-color:#000;solid-opacity:1"/><path fill="#fff" fill-rule="evenodd" d="M26.73 33.22a.19.19 0 0 1-.19.19.19.19 0 0 1-.19-.19.19.19 0 0 1 .19-.19.19.19 0 0 1 .19.19"/><g fill="#d9d9d9" stroke-width="1.22" aria-label="[16], [Xt], MB, *[flux]:linear::::[mobius]:0.5, :::::::::: , [FLUX]:LINEAR::[MOBIUS]" font-family="Arial" font-size="19.53" font-weight="700" letter-spacing="0" style="line-height:1.25;-inkscape-font-specification:&quot;Arial, Bold&quot;" word-spacing="0"><path d="M53.86 33.84V15.92h4.75v2.11h-2.2v13.7h2.2v2.11zm12.8-3.93h-2.68V19.8q-1.47 1.37-3.46 2.03V19.4q1.05-.34 2.28-1.3 1.23-.96 1.68-2.23h2.18zm13.08-10.56-2.59.28q-.1-.8-.5-1.18-.4-.38-1.04-.38-.84 0-1.44.76-.58.77-.73 3.18 1-1.18 2.49-1.18 1.68 0 2.87 1.27 1.2 1.28 1.2 3.3 0 2.15-1.26 3.45-1.26 1.3-3.23 1.3-2.12 0-3.48-1.65-1.37-1.65-1.37-5.4 0-3.84 1.43-5.54 1.42-1.7 3.69-1.7 1.59 0 2.63.9 1.05.89 1.33 2.59zm-6.07 5.84q0 1.31.6 2.03.6.7 1.37.7.75 0 1.24-.58.5-.58.5-1.9 0-1.37-.53-2-.54-.64-1.34-.64-.77 0-1.3.61-.54.6-.54 1.78zm12.14-9.27v17.92h-4.75v-2.1h2.2V18h-2.2v-2.09zm2.73 11.3h2.68v1.92q0 1.17-.2 1.83-.2.68-.76 1.21-.56.54-1.42.84l-.52-1.1q.81-.27 1.15-.74.35-.46.37-1.27h-1.3zm10.91 6.62V15.92h4.75v2.11H102v13.7h2.2v2.11zm5.11-3.93 4.78-7.3-4.33-6.69h3.3l2.8 4.5 2.75-4.5h3.27l-4.35 6.8 4.78 7.19h-3.4l-3.1-4.84-3.11 4.84zm19.08-10.13v2.13h-1.83V26q0 1.24.04 1.45.06.2.24.34.2.13.46.13.37 0 1.08-.26l.23 2.08q-.94.4-2.12.4-.73 0-1.3-.23-.59-.25-.87-.63-.26-.4-.37-1.05-.08-.47-.08-1.9v-4.4h-1.23v-2.14h1.23v-2.02l2.69-1.56v3.58zm5.57-3.86v17.92h-4.75v-2.1h2.2V18h-2.2v-2.09zm2.73 11.3h2.68v1.92q0 1.17-.2 1.83-.2.68-.77 1.21-.55.54-1.41.84l-.52-1.1q.8-.27 1.15-.74.34-.46.36-1.27h-1.3zm10.9 2.69V15.92h4.22l2.54 9.54 2.5-9.54h4.24v13.99h-2.62V18.9l-2.78 11h-2.71l-2.77-11v11Zm16.32-13.99h5.58q1.66 0 2.48.15.82.13 1.45.57.65.44 1.08 1.17.43.73.43 1.63 0 .98-.53 1.8-.53.83-1.43 1.24 1.27.37 1.96 1.26.69.9.69 2.11 0 .96-.45 1.86-.44.9-1.21 1.44-.76.54-1.89.66-.7.08-3.4.1h-4.76zm2.82 2.33v3.23h1.85q1.65 0 2.05-.04.72-.09 1.13-.5.42-.42.42-1.1 0-.65-.36-1.05-.35-.4-1.06-.5-.42-.04-2.41-.04zm0 5.56v3.74h2.61q1.53 0 1.94-.09.63-.11 1.02-.55.4-.45.4-1.2 0-.62-.3-1.06-.31-.44-.9-.64-.56-.2-2.5-.2zm11.19 3.42h2.68v1.91q0 1.17-.2 1.83-.2.68-.77 1.21-.55.54-1.4.84l-.53-1.1q.8-.27 1.15-.74.34-.46.36-1.27h-1.3zm11.85-4.88-1.44-1.11q.69-.78 1.43-1.48l.37-.37q-.23-.03-1.36-.31-.81-.2-1.07-.3l.57-1.67q1.24.5 2.23 1.11-.23-1.55-.23-2.54h1.7q0 .7-.26 2.56l.82-.37q.86-.4 1.58-.67l.5 1.73q-1.05.24-2.44.46l1.14 1.3q.34.38.54.63l-1.45.96-1.3-2.12q-.57 1.03-1.33 2.2zm6.66 11.5V15.91h4.75v2.11h-2.2v13.7h2.2v2.11zm5.34-14.07h1.49V19q0-1.27.27-1.9.27-.63 1-1.02.73-.4 1.85-.4 1.14 0 2.24.34l-.36 1.87q-.64-.16-1.23-.16t-.84.28q-.25.27-.25 1.04v.72h2v2.1h-2v8.03h-2.68v-8.03h-1.49zm7.68 10.13V15.92h2.68v13.99zm12.1 0v-1.52q-.56.81-1.47 1.28-.9.46-1.9.46-1.02 0-1.83-.44-.8-.45-1.17-1.26-.36-.81-.36-2.24v-6.41h2.68v4.65q0 2.14.14 2.62.15.48.55.77.39.27.99.27.68 0 1.23-.37.54-.38.74-.93.2-.57.2-2.74v-4.27h2.68V29.9zm3.97 0 3.65-5.22-3.5-4.91h3.27l1.8 2.78 1.89-2.78h3.14l-3.43 4.8 3.75 5.33h-3.3L226 26.77l-2.08 3.14zm15.86-13.99v17.92h-4.75v-2.1h2.2V18h-2.2v-2.09zm3.31 6.54v-2.68h2.68v2.68zm0 7.45v-2.68h2.68v2.68zm5.99 0V15.92h2.68v13.99zm5.43-11.5v-2.49h2.68v2.48zm0 11.5V19.78h2.68V29.9zm14.64 0h-2.68v-5.17q0-1.64-.17-2.12-.18-.49-.57-.75-.38-.27-.92-.27-.7 0-1.25.38t-.76 1.01q-.2.63-.2 2.33v4.59h-2.68V19.78h2.48v1.48q1.33-1.71 3.34-1.71.89 0 1.62.32.74.32 1.11.81.38.5.53 1.13.15.63.15 1.8zm8.58-3.23 2.67.45q-.51 1.47-1.63 2.24-1.1.76-2.77.76-2.65 0-3.91-1.72-1-1.39-1-3.5 0-2.51 1.31-3.93 1.32-1.43 3.33-1.43 2.26 0 3.57 1.5 1.3 1.48 1.25 4.56h-6.72q.03 1.2.65 1.86.62.66 1.54.66.63 0 1.06-.34.43-.35.65-1.1zm.15-2.7q-.02-1.17-.6-1.77-.57-.61-1.39-.61-.88 0-1.45.64t-.56 1.73zm6.85-1.11-2.43-.44q.41-1.47 1.41-2.18 1-.7 2.98-.7 1.8 0 2.67.43.88.42 1.23 1.07.36.65.36 2.4l-.03 3.13q0 1.33.13 1.97.13.63.48 1.36h-2.65q-.1-.27-.26-.8-.06-.23-.1-.31-.68.67-1.46 1-.78.33-1.67.33-1.56 0-2.47-.84-.9-.85-.9-2.15 0-.86.41-1.53t1.15-1.03q.74-.36 2.13-.63 1.88-.35 2.6-.65v-.27q0-.77-.37-1.1-.38-.33-1.44-.33-.72 0-1.12.28-.4.28-.65.99zm3.59 2.17q-.52.17-1.63.41-1.12.24-1.46.47-.53.37-.53.94t.42.98q.42.4 1.07.4.73 0 1.38-.47.5-.36.64-.89.1-.34.1-1.3zm7.84 4.87h-2.68V19.78h2.49v1.44q.64-1.02 1.14-1.35.52-.32 1.17-.32.91 0 1.76.5l-.83 2.34q-.68-.44-1.26-.44-.56 0-.95.32-.4.3-.62 1.11-.22.81-.22 3.4zm5.55-7.45v-2.68h2.68v2.68zm0 7.45v-2.68h2.68v2.68zm6.5-7.45v-2.68h2.68v2.68zm0 7.45v-2.68h2.68v2.68zm6.5-7.45v-2.68h2.69v2.68zm0 7.45v-2.68h2.69v2.68zm6.51-7.45v-2.68h2.68v2.68zm0 7.45v-2.68h2.68v2.68zm5.98 3.93V15.92h4.75v2.11h-2.2v13.7h2.2v2.11zm6.32-14.06h2.47v1.38q1.32-1.61 3.16-1.61.97 0 1.68.4.72.4 1.18 1.2.66-.8 1.44-1.2.77-.4 1.65-.4 1.11 0 1.89.46.77.44 1.15 1.32.28.65.28 2.1v6.48h-2.68v-5.8q0-1.5-.28-1.94-.37-.57-1.15-.57-.56 0-1.05.34-.5.34-.72 1.01-.22.66-.22 2.1v4.86h-2.68v-5.56q0-1.47-.14-1.9-.15-.43-.45-.64-.3-.21-.81-.21-.62 0-1.12.33-.5.34-.71.97-.21.62-.21 2.08v4.93h-2.68zm16.95 4.92q0-1.34.65-2.59.66-1.25 1.86-1.9 1.22-.66 2.7-.66 2.3 0 3.77 1.5 1.47 1.48 1.47 3.76 0 2.3-1.49 3.82-1.48 1.5-3.73 1.5-1.39 0-2.66-.63-1.26-.62-1.92-1.84-.65-1.22-.65-2.96zm2.74.14q0 1.5.72 2.3.71.81 1.76.81t1.76-.8q.71-.8.71-2.33 0-1.49-.71-2.29-.7-.8-1.76-.8-1.05 0-1.76.8-.72.8-.72 2.31zm9.7 5.07V15.92h2.67v5.04q1.24-1.41 2.94-1.41 1.85 0 3.06 1.34t1.21 3.85q0 2.59-1.24 4-1.23 1.4-2.99 1.4-.87 0-1.72-.43-.84-.44-1.45-1.3v1.5zm2.65-5.29q0 1.58.5 2.33.7 1.07 1.85 1.07.89 0 1.5-.76.64-.76.64-2.4 0-1.73-.63-2.49-.63-.77-1.61-.77-.97 0-1.6.75-.65.75-.65 2.27zm9.39-6.22v-2.48h2.68v2.48zm0 11.5V19.79h2.68V29.9zm12.1 0V28.4q-.56.81-1.47 1.28-.9.46-1.9.46-1.01 0-1.82-.44-.82-.45-1.18-1.26t-.36-2.24v-6.41h2.68v4.65q0 2.14.14 2.62.16.48.55.77.39.27.99.27.69 0 1.23-.37.54-.38.74-.93.2-.57.2-2.74v-4.27h2.68V29.9zm4.31-2.88 2.7-.41q.17.78.69 1.19.52.4 1.47.4 1.04 0 1.56-.38.36-.27.36-.72 0-.3-.2-.5t-.9-.36q-3.23-.71-4.1-1.3-1.2-.82-1.2-2.28 0-1.32 1.04-2.22 1.04-.9 3.22-.9 2.08 0 3.09.68 1.01.68 1.4 2l-2.54.47q-.16-.59-.62-.9-.44-.32-1.28-.32-1.06 0-1.52.3-.3.2-.3.54 0 .29.26.49.37.27 2.5.75 2.15.49 3 1.2.84.71.84 1.99 0 1.4-1.17 2.4-1.16 1-3.44 1-2.07 0-3.28-.85-1.2-.83-1.58-2.27zm15.52-11.1v17.92h-4.75v-2.1h2.2V18h-2.2v-2.09zm3.31 6.54v-2.68h2.68v2.68zm0 7.45v-2.68h2.68v2.68zM417 15.87q2.03 0 3.18 1.45 1.36 1.71 1.36 5.69 0 3.97-1.37 5.7-1.14 1.43-3.17 1.43-2.04 0-3.3-1.56-1.24-1.57-1.24-5.6 0-3.95 1.37-5.68 1.14-1.43 3.17-1.43zm0 2.22q-.49 0-.87.31-.38.3-.59 1.1-.28 1.05-.28 3.51t.25 3.39q.25.91.62 1.22.38.3.87.3t.87-.3q.38-.32.59-1.12.28-1.03.28-3.49t-.25-3.38q-.25-.92-.63-1.23-.37-.31-.86-.31zm6.9 11.82v-2.68h2.69v2.68zm4.9-3.6 2.67-.28q.11.9.68 1.44.56.53 1.3.53.83 0 1.41-.68.59-.69.59-2.06 0-1.29-.59-1.93-.57-.64-1.5-.64-1.15 0-2.06 1.02l-2.18-.32 1.38-7.28h7.08v2.51h-5.05L432.1 21q.9-.45 1.83-.45 1.78 0 3.02 1.3t1.24 3.36q0 1.73-1 3.08-1.36 1.85-3.79 1.85-1.93 0-3.15-1.04t-1.46-2.79zm11.33.92h2.68v1.91q0 1.17-.2 1.83-.2.68-.76 1.21-.56.54-1.42.84l-.52-1.1q.81-.27 1.15-.74.35-.46.37-1.27h-1.3zm16.86-4.77v-2.68h2.68v2.68zm0 7.45v-2.68h2.68v2.68zm6.5-7.45v-2.68h2.69v2.68zm0 7.45v-2.68h2.69v2.68zm6.51-7.45v-2.68h2.68v2.68zm0 7.45v-2.68h2.68v2.68zm6.5-7.45v-2.68h2.69v2.68zm0 7.45v-2.68h2.69v2.68zm6.51-7.45v-2.68h2.68v2.68zm0 7.45v-2.68h2.68v2.68zm6.5-7.45v-2.68h2.69v2.68zm0 7.45v-2.68h2.69v2.68zm6.51-7.45v-2.68h2.68v2.68zm0 7.45v-2.68h2.68v2.68zm6.5-7.45v-2.68h2.68v2.68zm0 7.45v-2.68h2.68v2.68zm6.5-7.45v-2.68h2.69v2.68zm0 7.45v-2.68h2.69v2.68zm6.51-7.45v-2.68h2.68v2.68zm0 7.45v-2.68h2.68v2.68zm16.78-2.68h2.68v1.91q0 1.17-.2 1.83-.2.68-.76 1.21-.56.54-1.41.84l-.53-1.1q.81-.27 1.16-.74.34-.46.36-1.27h-1.3zm10.91 6.61V15.92h4.75v2.11h-2.2v13.7h2.2v2.11zm6.55-3.93V15.92h9.59v2.37h-6.76v3.3h5.83v2.37h-5.83v5.95zm12 0V16.04h2.82v11.51h7.02v2.36zm11.83-13.99h2.82v7.58q0 1.8.1 2.33.19.86.87 1.39.68.51 1.87.51 1.2 0 1.8-.49.62-.5.74-1.2.13-.72.13-2.38v-7.74h2.82v7.35q0 2.52-.23 3.55-.23 1.04-.85 1.76-.6.71-1.64 1.14-1.03.42-2.69.42-2 0-3.04-.45-1.03-.47-1.63-1.2-.6-.75-.8-1.56-.27-1.2-.27-3.55zm12.7 13.99 4.78-7.3-4.33-6.69h3.3l2.8 4.5 2.75-4.5h3.27l-4.34 6.8 4.77 7.19h-3.4l-3.1-4.84-3.11 4.84zm18.14-13.99v17.92h-4.74v-2.1h2.2V18h-2.2v-2.09zm3.31 6.54v-2.68h2.68v2.68zm0 7.45v-2.68h2.68v2.68zm6.09 0V16.04h2.82v11.51h7.02v2.36zm11.77 0V15.92h2.82v13.99zm5.54 0V15.92h2.75l5.72 9.34v-9.34h2.62v13.99h-2.83l-5.64-9.12v9.12zm14.08 0V15.92h10.37v2.37h-7.55v3.1h7.02v2.35h-7.02v3.81h7.81v2.36zm25.64 0h-3.08l-1.22-3.18h-5.59l-1.15 3.18h-3l5.45-13.99h2.99zm-5.2-5.54-1.93-5.19-1.89 5.2zm6.7 5.54V15.92h5.94q2.25 0 3.26.38 1.02.38 1.63 1.34.6.96.6 2.2 0 1.58-.92 2.6-.92 1.03-2.76 1.3.91.53 1.5 1.17.6.64 1.62 2.27l1.7 2.73h-3.37l-2.04-3.05q-1.1-1.63-1.5-2.05-.4-.43-.84-.58-.45-.16-1.42-.16h-.57v5.84zm2.83-8.07h2.08q2.04 0 2.54-.18.5-.17.8-.59.28-.42.28-1.05 0-.7-.38-1.13-.37-.44-1.06-.55-.34-.05-2.06-.05h-2.2zm11.77.62v-2.68h2.68v2.68zm0 7.45v-2.68h2.68v2.68zm6.5-7.45v-2.68h2.68v2.68zm0 7.45v-2.68h2.68v2.68zm5.98 3.93V15.92h4.75v2.11h-2.2v13.7h2.2v2.11zm6.5-3.93V15.92h4.22l2.54 9.54 2.5-9.54h4.24v13.99h-2.62V18.9l-2.78 11h-2.72l-2.76-11v11zM721.67 23q0-2.14.64-3.59.48-1.06 1.3-1.91.83-.85 1.81-1.26 1.3-.56 3.02-.56 3.09 0 4.94 1.92 1.86 1.92 1.86 5.33 0 3.39-1.85 5.3-1.84 1.91-4.92 1.91-3.12 0-4.96-1.9-1.84-1.9-1.84-5.24zm2.91-.1q0 2.38 1.1 3.61 1.1 1.22 2.78 1.22 1.7 0 2.77-1.21 1.09-1.22 1.09-3.65 0-2.4-1.06-3.59-1.05-1.18-2.8-1.18-1.74 0-2.81 1.2t-1.07 3.6zm12.87-6.98h5.59q1.66 0 2.47.15.82.13 1.46.57.65.44 1.07 1.17.43.73.43 1.63 0 .98-.53 1.8-.52.83-1.43 1.24 1.28.37 1.96 1.26.7.9.7 2.11 0 .96-.46 1.86-.44.9-1.2 1.44-.77.54-1.9.66-.7.08-3.4.1h-4.76zm2.82 2.33v3.23h1.85q1.65 0 2.05-.04.73-.09 1.14-.5.42-.42.42-1.1 0-.65-.37-1.05-.35-.4-1.05-.5-.42-.04-2.42-.04zm0 5.56v3.74h2.61q1.53 0 1.94-.09.63-.11 1.02-.55.4-.45.4-1.2 0-.62-.3-1.06-.3-.44-.89-.64-.57-.2-2.5-.2zm11.19 6.1V15.92h2.82v13.99zm5.5-13.99h2.82v7.58q0 1.8.1 2.33.18.86.86 1.39.69.51 1.87.51 1.2 0 1.81-.49.61-.5.74-1.2.12-.72.12-2.38v-7.74h2.82v7.35q0 2.52-.23 3.55-.23 1.04-.85 1.76-.6.71-1.64 1.14-1.03.42-2.69.42-2 0-3.04-.45-1.03-.47-1.63-1.2-.6-.75-.79-1.56-.28-1.2-.28-3.55zm13.4 9.44 2.75-.27q.25 1.38 1 2.03.76.65 2.05.65 1.37 0 2.05-.57.7-.59.7-1.36 0-.5-.3-.84-.28-.35-1-.6-.5-.18-2.27-.62-2.27-.56-3.18-1.38-1.3-1.15-1.3-2.81 0-1.07.6-2 .62-.93 1.75-1.42 1.15-.49 2.76-.49 2.63 0 3.96 1.16 1.33 1.15 1.4 3.08l-2.82.12q-.18-1.07-.78-1.54-.6-.48-1.79-.48-1.23 0-1.92.5-.45.33-.45.87 0 .5.42.85.53.45 2.6.94 2.05.48 3.03 1 1 .52 1.55 1.43.56.9.56 2.22 0 1.2-.67 2.25-.66 1.05-1.88 1.57-1.22.5-3.05.5-2.65 0-4.07-1.22-1.42-1.23-1.7-3.57zM787.8 15.92v17.92h-4.75v-2.1h2.2V18h-2.2v-2.09z"/></g></g></svg>