<svg width="600" height="600" viewBox="0 0 158.75 158.75" xml:space="preserve" xmlns:xlink="http://www.w3.org/1999/xlink" xmlns="http://www.w3.org/2000/svg"><defs><linearGradient id="b"><stop offset="0" stop-color="#fe4703"/><stop offset="1" stop-color="#fff"/></linearGradient><linearGradient id="a"><stop offset="0" stop-color="#ff5600"/><stop offset="1" stop-color="#fff"/></linearGradient><linearGradient id="c"><stop offset=".282" stop-color="#f4f4f4"/><stop offset=".436" stop-color="#c3e4ee"/><stop offset=".754" stop-color="#2274ff"/></linearGradient><linearGradient xlink:href="#d" id="f" x1="5.83" x2="12.91" y1="6.7" y2="13.2" gradientUnits="userSpaceOnUse"/><linearGradient id="d"><stop offset="0" stop-color="#4c4c4c"/><stop offset="1" stop-color="#0d0d0d"/></linearGradient><radialGradient xlink:href="#c" id="e" cx="7.18" cy="8.2" r="6.59" fx="7.18" fy="8.2" gradientTransform="matrix(.9 .5558 -.5314 .8606 5.08 -2.85)" gradientUnits="userSpaceOnUse"/><filter id="g" width="1.832" height="1.832" x="-.416" y="-.416" color-interpolation-filters="sRGB"><feGaussianBlur stdDeviation=".13"/></filter></defs><path fill="#e6e6e6" d="M105.57 147.2s-1.63 1.67-3.13 2.65c-1.64 1-3.22 1.7-3.22 1.7h6.38z" color="#000" font-family="Gill Sans Ultra Bold" font-size="44.68" font-weight="400" letter-spacing="0" overflow="visible" paint-order="markers stroke fill" style="line-height:1.25;-inkscape-font-specification:&quot;Gill Sans Ultra Bold, Normal&quot;;font-variant-ligatures:normal;font-variant-position:normal;font-variant-caps:normal;font-variant-numeric:normal;font-variant-alternates:normal;font-variant-east-asian:normal;font-feature-settings:normal;font-variation-settings:normal;text-indent:0;text-align:start;text-decoration-line:none;text-decoration-style:solid;text-decoration-color:#000;text-transform:none;text-orientation:mixed;white-space:normal;shape-padding:0;shape-margin:0;inline-size:0;isolation:auto;mix-blend-mode:normal;solid-color:#000;solid-opacity:1" word-spacing="0"/><path fill="#fe4703" d="M91.67 108.25c-13.15.81-24.64 13.93-21.81 27.27 1.42 7.3 7.03 14.28 14.4 16.02l12.41.04c2.74-1.02 8.58-4.4 8.9-8.5V125.1c-5.35-9.7-18.6-8.85-24.66-1.5-6 8.27-.8 19.87 7.06 21.16 5.43.88 9.26-.58 11.74-3.81 2.74-3.76 2.99-8 1.12-11.38-2.71-6.62-15.11-7.5-16.04 1.93.27 4.77 4.44 8.59 6.8 7.34 3.54-.75 2.84-4.99.6-6.06-2.64-1.27-3.4.27-3.63-1.64-.33-2.59 1.96-3.85 6.2-2.94 6.03 3.08 3.85 11.45-1.43 12.94a8.39 8.39 0 0 1-9.11-2.68c-2.45-2.93-2.33-7.49-1.26-10.36 3.28-6.88 14.13-8.16 18.7-1.53 6.23 7.35.73 19.51-8.52 20.81-10.19 2.23-19.8-8.32-17.53-18.28 1.77-11.1 15.86-16.33 25.44-12.3 2.02.75 3.84 1.93 4.6 2.5l.02-3.36v-4.11c-1.02-.8-2.04-1.4-4.1-2.2a24.4 24.4 0 0 0-7.25-1.37c-.89-.06-1.77-.07-2.65-.02z" color="#000" font-family="Gill Sans Ultra Bold" font-size="44.68" font-weight="400" letter-spacing="0" overflow="visible" paint-order="markers stroke fill" style="line-height:1.25;-inkscape-font-specification:&quot;Gill Sans Ultra Bold, Normal&quot;;font-variant-ligatures:normal;font-variant-position:normal;font-variant-caps:normal;font-variant-numeric:normal;font-variant-alternates:normal;font-variant-east-asian:normal;font-feature-settings:normal;font-variation-settings:normal;text-indent:0;text-align:start;text-decoration-line:none;text-decoration-style:solid;text-decoration-color:#000;text-transform:none;text-orientation:mixed;white-space:normal;shape-padding:0;shape-margin:0;inline-size:0;isolation:auto;mix-blend-mode:normal;solid-color:#000;solid-opacity:1" word-spacing="0"/><path fill="#fbfbfb" d="M45.46 106.82a46.44 46.44 0 0 0-1.8 3.65l.02 41.13 6.78-.01h9.09c-5.88-8.34-7.48-18.87-5.43-28.66z" color="#000" font-family="Gill Sans Ultra Bold" font-size="44.68" font-weight="400" letter-spacing="0" overflow="visible" paint-order="markers stroke fill" style="line-height:1.25;-inkscape-font-specification:&quot;Gill Sans Ultra Bold, Normal&quot;;font-variant-ligatures:normal;font-variant-position:normal;font-variant-caps:normal;font-variant-numeric:normal;font-variant-alternates:normal;font-variant-east-asian:normal;font-feature-settings:normal;font-variation-settings:normal;text-indent:0;text-align:start;text-decoration-line:none;text-decoration-style:solid;text-decoration-color:#000;text-transform:none;text-orientation:mixed;white-space:normal;shape-padding:0;shape-margin:0;inline-size:0;isolation:auto;mix-blend-mode:normal;solid-color:#000;solid-opacity:1" word-spacing="0"/><path fill="#fe4703" d="M92.1 94.4c-14.04.62-27.14 10.03-32.66 22.81l-.65 14.41-2.02-3.76c-.02.25-.07.49-.08.74a33.92 33.92 0 0 0 7 22.99h12.6c-11.25-7.77-13.52-24.91-5.04-35.54 7.51-10.55 22.79-14.46 34.35-8.69 1.56-.05 4.4-.06 6.48-.08h11.06c-7.06-7.58-17.04-12.47-27.44-12.86-1.21-.07-2.4-.08-3.6-.03z" color="#000" font-family="Gill Sans Ultra Bold" font-size="44.68" font-weight="400" letter-spacing="0" overflow="visible" paint-order="markers stroke fill" style="line-height:1.25;-inkscape-font-specification:&quot;Gill Sans Ultra Bold, Normal&quot;;font-variant-ligatures:normal;font-variant-position:normal;font-variant-caps:normal;font-variant-numeric:normal;font-variant-alternates:normal;font-variant-east-asian:normal;font-feature-settings:normal;font-variation-settings:normal;text-indent:0;text-align:start;text-decoration-line:none;text-decoration-style:solid;text-decoration-color:#000;text-transform:none;text-orientation:mixed;white-space:normal;shape-padding:0;shape-margin:0;inline-size:0;isolation:auto;mix-blend-mode:normal;solid-color:#000;solid-opacity:1" word-spacing="0"/><path fill="#fbfbfb" d="M93.27 79.12c-5.2.12-10.42.97-15.44 2.46l18.6 6.98-36 6.52-.64 14.23a35.9 35.9 0 0 1 4.47-5.5c12.65-13.75 34.84-16.87 50.83-7.2 5.2 2.9 12.1 10.66 13.17 10.66l16.73.01c-.04-2.86-4.68-8-7.67-11.1-10.54-10.46-25.13-16.53-39.94-17a56.13 56.13 0 0 0-4.1-.06z" color="#000" font-family="Gill Sans Ultra Bold" font-size="44.68" font-weight="400" letter-spacing="0" overflow="visible" paint-order="markers stroke fill" style="line-height:1.25;-inkscape-font-specification:&quot;Gill Sans Ultra Bold, Normal&quot;;font-variant-ligatures:normal;font-variant-position:normal;font-variant-caps:normal;font-variant-numeric:normal;font-variant-alternates:normal;font-variant-east-asian:normal;font-feature-settings:normal;font-variation-settings:normal;text-indent:0;text-align:start;text-decoration-line:none;text-decoration-style:solid;text-decoration-color:#000;text-transform:none;text-orientation:mixed;white-space:normal;shape-padding:0;shape-margin:0;inline-size:0;isolation:auto;mix-blend-mode:normal;solid-color:#000;solid-opacity:1" word-spacing="0"/><path fill="#e5e5e5" d="M95.3 56.06c-10.7.02-21.4 2.2-31.31 6.26L62.17 75.7l7.38 2.77c10.71-5.13 22.9-7.14 34.7-5.07 16.25 2.53 31.1 12.03 40.74 25.28V72.16h-39.43V56.63c-3.4-.38-6.83-.59-10.25-.57z" color="#000" font-family="Gill Sans Ultra Bold" font-size="44.68" font-weight="400" letter-spacing="0" overflow="visible" paint-order="markers stroke fill" style="line-height:1.25;-inkscape-font-specification:&quot;Gill Sans Ultra Bold, Normal&quot;;font-variant-ligatures:normal;font-variant-position:normal;font-variant-caps:normal;font-variant-numeric:normal;font-variant-alternates:normal;font-variant-east-asian:normal;font-feature-settings:normal;font-variation-settings:normal;text-indent:0;text-align:start;text-decoration-line:none;text-decoration-style:solid;text-decoration-color:#000;text-transform:none;text-orientation:mixed;white-space:normal;shape-padding:0;shape-margin:0;inline-size:0;isolation:auto;mix-blend-mode:normal;solid-color:#000;solid-opacity:1" word-spacing="0"/><path fill="#ccc" d="M96.56 26.98a112.51 112.51 0 0 0-52.9 13.1v27.68l.08.04c.66-.54 1.33-1.05 2-1.56L67.1 39.45 64.96 55.2a81.16 81.16 0 0 1 40.65-5.45l.02-3 53.12.01c-.04-1.02-7.57-6.27-12.28-8.47A115.09 115.09 0 0 0 96.56 27z" color="#000" font-family="Gill Sans Ultra Bold" font-size="44.68" font-weight="400" letter-spacing="0" overflow="visible" paint-order="markers stroke fill" style="line-height:1.25;-inkscape-font-specification:&quot;Gill Sans Ultra Bold, Normal&quot;;font-variant-ligatures:normal;font-variant-position:normal;font-variant-caps:normal;font-variant-numeric:normal;font-variant-alternates:normal;font-variant-east-asian:normal;font-feature-settings:normal;font-variation-settings:normal;text-indent:0;text-align:start;text-decoration-line:none;text-decoration-style:solid;text-decoration-color:#000;text-transform:none;text-orientation:mixed;white-space:normal;shape-padding:0;shape-margin:0;inline-size:0;isolation:auto;mix-blend-mode:normal;solid-color:#000;solid-opacity:1" word-spacing="0"/><path fill="#b2b2b2" d="M43.66 11.64v21.63c30.2-16.9 68.33-18.1 99.68-3.53 5.34 2.44 10.49 5.28 15.41 8.48V11.64Z" color="#000" font-family="Gill Sans Ultra Bold" font-size="44.68" font-weight="400" letter-spacing="0" overflow="visible" paint-order="markers stroke fill" style="line-height:1.25;-inkscape-font-specification:&quot;Gill Sans Ultra Bold, Normal&quot;;font-variant-ligatures:normal;font-variant-position:normal;font-variant-caps:normal;font-variant-numeric:normal;font-variant-alternates:normal;font-variant-east-asian:normal;font-feature-settings:normal;font-variation-settings:normal;text-indent:0;text-align:start;text-decoration-line:none;text-decoration-style:solid;text-decoration-color:#000;text-transform:none;text-orientation:mixed;white-space:normal;shape-padding:0;shape-margin:0;inline-size:0;isolation:auto;mix-blend-mode:normal;solid-color:#000;solid-opacity:1" word-spacing="0"/><path fill="#fff" fill-rule="evenodd" d="M92.94 135.32a1.08 1.08 0 0 1-1.07 1.08 1.08 1.08 0 0 1-1.08-1.08 1.08 1.08 0 0 1 1.07-1.08 1.08 1.08 0 0 1 1.08 1.08"/><path fill="url(#e)" fill-rule="evenodd" d="M13.51 5.1c.44.77-2.18 2.89-2.29 3.76-.1.88 1.95 3.55 1.36 4.2-.6.64-3.43-1.19-4.3-1.02-.86.17-2.76 2.95-3.56 2.58-.8-.36.07-3.62-.36-4.39C3.93 9.46.69 8.51.8 7.63c.1-.87 3.47-1.05 4.06-1.7.6-.64.51-4.01 1.38-4.18.86-.18 2.07 2.97 2.87 3.34.8.37 3.97-.76 4.4 0z" enable-background="accumulate" overflow="visible" style="marker:none" transform="matrix(6.56268 4.51395 -4.52425 6.58286 39.085 -4.688)"/><path style="-inkscape-stroke:none" d="M-30.844 9.714c4.98.362 9.761-3.049 10.625-8.13a9.253 9.253 0 0 0-.128-3.705l-1.858-.147a7.524 7.524 0 0 1 .262 3.56c-.753 4.428-5.21 7.344-9.596 6.576a8.72 8.72 0 0 1-2.592-.896.875.875 0 0 0-1.184.36.875.875 0 0 0 .36 1.184c.973.519 2.025.883 3.113 1.074.332.058.666.1.998.124zm.435-3.222c3.359.153 6.563-2.196 7.028-5.673.423-3.16-1.73-6.335-5.016-6.72a5.272 5.272 0 0 0-2.09.183l-1.187 2.758A3.549 3.549 0 0 1-28.6-4.163c2.254.264 3.783 2.518 3.485 4.749-.36 2.69-3.052 4.5-5.713 4.11-2.735-.4-4.675-2.849-4.795-5.526l-1.736.257c.23 3.41 2.72 6.48 6.276 7 .225.033.45.055.674.065zm.137-3.225C-28.413 3.373-26.53 2-26.54-.038a2.845 2.845 0 0 0-.747-1.913c-.478-.524-1.238-.889-2.062-.779a.875.875 0 0 0-.75.981.875.875 0 0 0 .982.753c.218-.029.367.04.537.225.17.186.29.494.291.742.005.916-.947 1.604-1.883 1.55-1.37-.078-2.34-1.459-2.212-2.827l-1.762.26c.008 2.145 1.578 4.182 3.874 4.313zm6.592-8.185-1.752-3.478a8.67 8.67 0 0 0-2.191-.665 8.374 8.374 0 0 0-1.383-.108l-.772 1.798a6.638 6.638 0 0 1 1.871.037c1.708.28 3.168 1.175 4.227 2.416z" transform="scale(-3.52404) rotate(-9.737 -189.992 -82.487)" color="#000" fill="#0579ff" fill-rule="evenodd"/><path fill="none" stroke="url(#f)" stroke-width=".85" d="M13.51 5.1c.44.77-2.18 2.89-2.29 3.76-.1.88 1.95 3.55 1.36 4.2-.6.64-3.43-1.19-4.3-1.02-.86.17-2.76 2.95-3.56 2.58-.8-.36.07-3.62-.36-4.39C3.93 9.46.69 8.51.8 7.63c.1-.87 3.47-1.05 4.06-1.7.6-.64.51-4.01 1.38-4.18.86-.18 2.07 2.97 2.87 3.34.8.37 3.97-.76 4.4 0z" enable-background="accumulate" overflow="visible" style="marker:none" transform="matrix(6.56268 4.51395 -4.52425 6.58286 39.085 -4.688)"/><path fill="none" stroke="#fff" stroke-linejoin="round" stroke-width="2.23" d="m43.15 26.6-13.29 3.06-4.27 13.9-7.3-12.51-14.12.53 9.24-11.12L8.95 7.43l13.08 5.48 11.25-8.56-1.32 14.56Z" enable-background="accumulate" overflow="visible" style="marker:none" transform="rotate(-5.99 368.58 90.682) scale(2.28781)"/><path fill="#fffdfc" fill-rule="evenodd" d="M8.5 7.99a.37.37 0 0 1-.38.37.37.37 0 0 1-.37-.37.37.37 0 0 1 .37-.38.37.37 0 0 1 .37.37" filter="url(#g)" transform="scale(6.93916) rotate(30.97 .878 8.496)"/></svg>