<svg xmlns="http://www.w3.org/2000/svg" width="2997" height="180" viewBox="0 0 792.96 47.63"><g fill="#011f6a"><rect width="792.12" height="47.15" x=".59" y=".24" fill="#2a4079" fill-rule="evenodd" rx="15.78" ry="13.37"/><path fill="#3588e3" d="M28.92 35.29s-.28.29-.54.46c-.29.17-.56.3-.56.3h1.1zM26.5 28.51c-2.28.14-4.28 2.43-3.79 4.74.25 1.28 1.23 2.49 2.5 2.8h2.17c.47-.18 1.49-.77 1.54-1.48v-3.13c-.93-1.68-3.23-1.54-4.29-.26-1.04 1.44-.14 3.46 1.23 3.68.95.16 1.61-.1 2.04-.66.48-.65.52-1.39.2-1.98-.47-1.15-2.63-1.3-2.8.34.06.83.78 1.5 1.2 1.28.6-.14.49-.87.1-1.06-.46-.22-.6.05-.64-.28-.05-.45.35-.68 1.08-.52 1.05.54.67 2-.25 2.25-.59.2-1.21-.02-1.58-.46-.43-.51-.4-1.3-.22-1.8.57-1.2 2.46-1.42 3.25-.27 1.09 1.28.13 3.4-1.48 3.62-1.77.39-3.44-1.45-3.05-3.18.31-1.93 2.76-2.84 4.43-2.14.35.13.67.34.8.44V29.14a2.56 2.56 0 0 0-.71-.39 4.24 4.24 0 0 0-1.72-.24zM18.47 28.26c-.12.21-.22.42-.32.64v7.15h2.77a6.39 6.39 0 0 1-.95-4.99z" color="#000" font-family="Gill Sans Ultra Bold" font-size="44.68" font-weight="400" letter-spacing="0" overflow="visible" paint-order="markers stroke fill" style="line-height:1.25;-inkscape-font-specification:&quot;Gill Sans Ultra Bold, Normal&quot;;font-variant-ligatures:normal;font-variant-position:normal;font-variant-caps:normal;font-variant-numeric:normal;font-variant-alternates:normal;font-variant-east-asian:normal;font-feature-settings:normal;font-variation-settings:normal;text-indent:0;text-align:start;text-decoration-line:none;text-decoration-style:solid;text-decoration-color:#000;text-transform:none;text-orientation:mixed;white-space:normal;shape-padding:0;shape-margin:0;inline-size:0;isolation:auto;mix-blend-mode:normal;solid-color:#000;solid-opacity:1" word-spacing="0"/><path fill="#3588e3" d="M26.58 26.1a6.69 6.69 0 0 0-5.68 3.97l-.11 2.5-.36-.65v.13a5.9 5.9 0 0 0 1.2 4h2.2a4.4 4.4 0 0 1-.88-6.18 4.88 4.88 0 0 1 5.98-1.51l1.13-.02h1.92a6.97 6.97 0 0 0-5.4-2.24z" color="#000" font-family="Gill Sans Ultra Bold" font-size="44.68" font-weight="400" letter-spacing="0" overflow="visible" paint-order="markers stroke fill" style="line-height:1.25;-inkscape-font-specification:&quot;Gill Sans Ultra Bold, Normal&quot;;font-variant-ligatures:normal;font-variant-position:normal;font-variant-caps:normal;font-variant-numeric:normal;font-variant-alternates:normal;font-variant-east-asian:normal;font-feature-settings:normal;font-variation-settings:normal;text-indent:0;text-align:start;text-decoration-line:none;text-decoration-style:solid;text-decoration-color:#000;text-transform:none;text-orientation:mixed;white-space:normal;shape-padding:0;shape-margin:0;inline-size:0;isolation:auto;mix-blend-mode:normal;solid-color:#000;solid-opacity:1" word-spacing="0"/><path fill="#3588e3" d="M26.78 23.44c-.9.03-1.8.17-2.68.43l3.23 1.22-6.26 1.13-.11 2.48a7.23 7.23 0 0 1 9.62-2.2c.9.5 2.1 1.84 2.3 1.84h2.9c0-.5-.81-1.39-1.33-1.93a10.41 10.41 0 0 0-7.67-2.96z" color="#000" font-family="Gill Sans Ultra Bold" font-size="44.68" font-weight="400" letter-spacing="0" overflow="visible" paint-order="markers stroke fill" style="line-height:1.25;-inkscape-font-specification:&quot;Gill Sans Ultra Bold, Normal&quot;;font-variant-ligatures:normal;font-variant-position:normal;font-variant-caps:normal;font-variant-numeric:normal;font-variant-alternates:normal;font-variant-east-asian:normal;font-feature-settings:normal;font-variation-settings:normal;text-indent:0;text-align:start;text-decoration-line:none;text-decoration-style:solid;text-decoration-color:#000;text-transform:none;text-orientation:mixed;white-space:normal;shape-padding:0;shape-margin:0;inline-size:0;isolation:auto;mix-blend-mode:normal;solid-color:#000;solid-opacity:1" word-spacing="0"/><path fill="#3588e3" d="M27.14 19.43c-1.86 0-3.72.39-5.45 1.1l-.32 2.32 1.29.48c1.86-.89 3.98-1.24 6.03-.88a11 11 0 0 1 7.1 4.4v-4.62h-6.87v-2.7c-.59-.06-1.19-.1-1.78-.1z" color="#000" font-family="Gill Sans Ultra Bold" font-size="44.68" font-weight="400" letter-spacing="0" overflow="visible" paint-order="markers stroke fill" style="line-height:1.25;-inkscape-font-specification:&quot;Gill Sans Ultra Bold, Normal&quot;;font-variant-ligatures:normal;font-variant-position:normal;font-variant-caps:normal;font-variant-numeric:normal;font-variant-alternates:normal;font-variant-east-asian:normal;font-feature-settings:normal;font-variation-settings:normal;text-indent:0;text-align:start;text-decoration-line:none;text-decoration-style:solid;text-decoration-color:#000;text-transform:none;text-orientation:mixed;white-space:normal;shape-padding:0;shape-margin:0;inline-size:0;isolation:auto;mix-blend-mode:normal;solid-color:#000;solid-opacity:1" word-spacing="0"/><path fill="#3588e3" d="M27.36 14.38c-3.2 0-6.39.77-9.2 2.27v4.82l.36-.27 3.71-4.66-.37 2.74c2.23-.9 4.68-1.25 7.07-.94v-.53h9.24c0-.17-1.31-1.09-2.13-1.47a20.02 20.02 0 0 0-8.68-1.96z" color="#000" font-family="Gill Sans Ultra Bold" font-size="44.68" font-weight="400" letter-spacing="0" overflow="visible" paint-order="markers stroke fill" style="line-height:1.25;-inkscape-font-specification:&quot;Gill Sans Ultra Bold, Normal&quot;;font-variant-ligatures:normal;font-variant-position:normal;font-variant-caps:normal;font-variant-numeric:normal;font-variant-alternates:normal;font-variant-east-asian:normal;font-feature-settings:normal;font-variation-settings:normal;text-indent:0;text-align:start;text-decoration-line:none;text-decoration-style:solid;text-decoration-color:#000;text-transform:none;text-orientation:mixed;white-space:normal;shape-padding:0;shape-margin:0;inline-size:0;isolation:auto;mix-blend-mode:normal;solid-color:#000;solid-opacity:1" word-spacing="0"/><path fill="#3588e3" d="M18.15 11.7v3.77a19.34 19.34 0 0 1 20.02.86v-4.62z" color="#000" font-family="Gill Sans Ultra Bold" font-size="44.68" font-weight="400" letter-spacing="0" overflow="visible" paint-order="markers stroke fill" style="line-height:1.25;-inkscape-font-specification:&quot;Gill Sans Ultra Bold, Normal&quot;;font-variant-ligatures:normal;font-variant-position:normal;font-variant-caps:normal;font-variant-numeric:normal;font-variant-alternates:normal;font-variant-east-asian:normal;font-feature-settings:normal;font-variation-settings:normal;text-indent:0;text-align:start;text-decoration-line:none;text-decoration-style:solid;text-decoration-color:#000;text-transform:none;text-orientation:mixed;white-space:normal;shape-padding:0;shape-margin:0;inline-size:0;isolation:auto;mix-blend-mode:normal;solid-color:#000;solid-opacity:1" word-spacing="0"/><path fill="none" stroke="#fff" stroke-linecap="round" stroke-linejoin="round" stroke-width=".93" d="M17.7 21.09v-9.84h20.05v7.04h-8.37v3.48h6.86v7.03h-6.82v7.73H17.78Z"/><path fill="#fff" stroke="#000" stroke-width=".05" d="m12.99 19.1 5.27 2.43 3.8-4.72-.62 6.01 5.78 2.22-6.13 1.3-.32 5.78-3-5.1-5.98 1.6 4.2-4.5z"/><path fill="#fff" fill-rule="evenodd" d="m22.76 15.3-4.6 5.77-6.65-3.2 4.07 6.16-5.1 5.33 7.11-1.97 3.5 6.5.33-7.37 7.26-1.31-1.22-.46-5.7-2.14zM21.7 17.8l-.72 5.3 5 1.87-5.25.96-.24 5.34-2.54-4.71-5.15 1.42 3.7-3.86-2.95-4.46 4.82 2.32z" color="#000" font-family="sans-serif" font-weight="400" overflow="visible" style="line-height:normal;font-variant-ligatures:normal;font-variant-position:normal;font-variant-caps:normal;font-variant-numeric:normal;font-variant-alternates:normal;font-variant-east-asian:normal;font-feature-settings:normal;font-variation-settings:normal;text-indent:0;text-align:start;text-decoration-line:none;text-decoration-style:solid;text-decoration-color:#000;text-transform:none;text-orientation:mixed;white-space:normal;shape-padding:0;shape-margin:0;inline-size:0;isolation:auto;mix-blend-mode:normal;solid-color:#000;solid-opacity:1"/><path fill="#fff" fill-rule="evenodd" d="M26.73 33.22a.19.19 0 0 1-.19.19.19.19 0 0 1-.19-.19.19.19 0 0 1 .19-.19.19.19 0 0 1 .19.19"/><text xml:space="preserve" x="52.47" y="29.91" fill="#d9d9d9" stroke-width="1.22" font-family="Arial" font-size="19.53" font-weight="700" letter-spacing="0" style="line-height:1.25;-inkscape-font-specification:&quot;Arial, Bold&quot;;font-variant-ligatures:normal;font-variant-caps:normal;font-variant-numeric:normal;font-variant-east-asian:normal" word-spacing="0"><tspan x="52.47" y="29.91" style="-inkscape-font-specification:&quot;Arial, Bold&quot;;font-variant-ligatures:normal;font-variant-caps:normal;font-variant-numeric:normal;font-variant-east-asian:normal"><tspan style="-inkscape-font-specification:&quot;Arial, Bold&quot;;font-variant-ligatures:normal;font-variant-caps:normal;font-variant-numeric:normal;font-variant-east-asian:normal">[16], [Xt], MB, *[flux]:linear::::[mobius]:0.5,  ::::::::::  , [FLUX]:LINEAR::[MOBIUS</tspan>]</tspan></text></g></svg>