<svg width="2817" height="180" viewBox="0 0 745.33 47.63" xmlns:xlink="http://www.w3.org/1999/xlink" xmlns="http://www.w3.org/2000/svg"><defs><linearGradient xlink:href="#a" id="b" x1="23.201" y1="3.505" x2="22.741" y2="26.46" gradientUnits="userSpaceOnUse" gradientTransform="matrix(1.573 0 0 1.73278 -19.974 -2.401)"/><linearGradient id="a"><stop offset="0" stop-color="#d3d7cf"/><stop offset="1" stop-color="#fff"/></linearGradient></defs><rect width="745.22" height="47.61" x=".03" y=".01" fill="#1a1a1a" fill-rule="evenodd" rx="7.858" ry="7.94"/><path d="M38.25 33.39V15.32h4.79v2.13h-2.22v13.81h2.22v2.13zm12.9-3.97h-2.7V19.24a9.3 9.3 0 0 1-3.49 2.04v-2.45c.707-.227 1.473-.66 2.3-1.3.827-.653 1.393-1.41 1.7-2.27h2.2zm13.2-10.65-2.62.3c-.067-.547-.233-.947-.5-1.2s-.617-.38-1.05-.38c-.573 0-1.057.253-1.45.76-.393.513-.64 1.58-.74 3.2.667-.793 1.5-1.19 2.5-1.19 1.133 0 2.1.433 2.9 1.3.807.853 1.21 1.96 1.21 3.32 0 1.44-.423 2.597-1.27 3.47-.847.867-1.933 1.3-3.26 1.3-1.42 0-2.587-.55-3.5-1.65-.92-1.107-1.38-2.92-1.38-5.44 0-2.58.477-4.44 1.43-5.58.953-1.147 2.193-1.72 3.72-1.72 1.067 0 1.95.3 2.65.9.707.6 1.157 1.47 1.35 2.61zm-6.13 5.9c0 .873.2 1.55.6 2.03.4.48.863.72 1.39.72.5 0 .917-.197 1.25-.59.333-.393.5-1.033.5-1.92 0-.92-.18-1.59-.54-2.01-.36-.433-.81-.65-1.35-.65-.52 0-.957.207-1.31.62-.36.4-.54 1-.54 1.8zm12.23-9.35V33.4h-4.78v-2.13h2.22V17.43h-2.22v-2.1zm2.75 11.4h2.7v1.93c0 .78-.067 1.393-.2 1.84-.133.453-.39.86-.77 1.22-.367.36-.84.643-1.42.85l-.53-1.12c.547-.18.937-.427 1.17-.74.227-.313.347-.74.36-1.28h-1.3zm11 6.67V15.32H89v2.13h-2.22v13.81H89v2.13zm5.15-3.97 4.82-7.36-4.36-6.74h3.32l2.83 4.53 2.77-4.53h3.3l-4.39 6.85 4.82 7.25h-3.43l-3.13-4.88-3.13 4.88zm19.23-10.21v2.15h-1.84v4.11c0 .833.013 1.323.04 1.47a.62.62 0 0 0 .24.33c.133.093.29.14.47.14.247 0 .607-.087 1.08-.26l.23 2.1c-.627.267-1.337.4-2.13.4-.487 0-.927-.08-1.32-.24-.393-.167-.68-.38-.86-.64-.18-.267-.307-.62-.38-1.06-.06-.313-.09-.947-.09-1.9v-4.45h-1.24v-2.15h1.24v-2.03l2.72-1.58v3.6zm5.62-3.89V33.4h-4.8v-2.13h2.23V17.43h-2.22v-2.1zm2.74 11.4h2.7v1.93c0 .78-.067 1.393-.2 1.84-.133.453-.39.86-.77 1.22-.367.36-.84.643-1.42.85l-.53-1.12c.547-.18.937-.427 1.17-.74.227-.313.347-.74.36-1.28h-1.3zm11.05 2.7v-14.1h9.66v2.39h-6.81v3.33h5.88v2.39h-5.88v5.99zm11.32-3.74 2.61-.32c.08.667.303 1.177.67 1.53.367.353.81.53 1.33.53.56 0 1.027-.213 1.4-.64.387-.42.58-.99.58-1.71 0-.68-.183-1.217-.55-1.61-.367-.4-.81-.6-1.33-.6-.347 0-.76.067-1.24.2l.3-2.2c.727.02 1.283-.137 1.67-.47.38-.34.57-.79.57-1.35 0-.467-.14-.843-.42-1.13-.28-.28-.653-.42-1.12-.42-.467 0-.863.16-1.19.48-.327.32-.527.787-.6 1.4l-2.48-.42c.173-.853.433-1.533.78-2.04.347-.513.833-.913 1.46-1.2.627-.3 1.327-.45 2.1-.45 1.333 0 2.4.423 3.2 1.27.653.693.98 1.477.98 2.35 0 1.233-.673 2.22-2.02 2.96.8.173 1.443.56 1.93 1.16.487.6.73 1.33.73 2.19 0 1.233-.453 2.287-1.36 3.16-.9.867-2.023 1.3-3.37 1.3-1.273 0-2.33-.363-3.17-1.09-.84-.733-1.327-1.693-1.46-2.88zm20.65-1.45 2.76.88c-.42 1.533-1.123 2.677-2.11 3.43-.98.747-2.227 1.12-3.74 1.12-1.867 0-3.407-.64-4.62-1.92-1.2-1.28-1.8-3.03-1.8-5.25 0-2.34.603-4.16 1.81-5.46 1.213-1.3 2.807-1.95 4.78-1.95 1.727 0 3.127.51 4.2 1.53.64.6 1.12 1.467 1.44 2.6l-2.81.67c-.167-.733-.517-1.31-1.05-1.73-.527-.427-1.167-.64-1.92-.64-1.047 0-1.897.377-2.55 1.13-.647.747-.97 1.96-.97 3.64 0 1.787.32 3.053.96 3.8.64.76 1.473 1.14 2.5 1.14.753 0 1.403-.24 1.95-.72.547-.48.937-1.237 1.17-2.27zm5.12 2.48h2.7v1.94c0 .78-.067 1.393-.2 1.84-.133.453-.39.86-.77 1.22-.373.36-.847.643-1.42.85l-.53-1.12c.54-.18.927-.427 1.16-.74.233-.313.357-.74.37-1.28h-1.31zm10.99 2.7V15.33h4.25l2.56 9.62 2.53-9.62h4.27v14.1h-2.65v-11.1l-2.8 11.1h-2.73l-2.79-11.1v11.1zm16.44-14.09h5.64c1.113 0 1.943.05 2.49.15a3.59 3.59 0 0 1 1.47.57c.433.3.793.697 1.08 1.19.293.487.44 1.033.44 1.64 0 .66-.18 1.267-.54 1.82-.353.547-.833.96-1.44 1.24.86.247 1.52.673 1.98 1.28.46.6.69 1.307.69 2.12 0 .64-.15 1.263-.45 1.87-.293.6-.7 1.087-1.22 1.46-.513.353-1.147.573-1.9.66-.48.053-1.627.087-3.44.1h-4.8zm2.85 2.35v3.26h1.87c1.107 0 1.793-.017 2.06-.05.487-.06.87-.227 1.15-.5.28-.28.42-.647.42-1.1 0-.44-.123-.793-.37-1.06-.233-.28-.587-.447-1.06-.5-.287-.033-1.1-.05-2.44-.05zm0 5.6v3.77h2.63c1.027 0 1.68-.03 1.96-.09a1.71 1.71 0 0 0 1.02-.55c.267-.3.4-.7.4-1.2 0-.427-.1-.787-.3-1.08-.2-.293-.5-.51-.9-.65-.38-.133-1.217-.2-2.51-.2zm11.28 3.44h2.7v1.94c0 .78-.067 1.393-.2 1.84-.133.453-.39.86-.77 1.22-.373.36-.85.643-1.43.85l-.52-1.12c.54-.18.927-.427 1.16-.74.227-.313.347-.74.36-1.28h-1.3zm11.95-4.9-1.46-1.13c.467-.52.95-1.02 1.45-1.5l.37-.36a28.26 28.26 0 0 1-1.37-.32c-.547-.133-.907-.233-1.08-.3l.57-1.69c.84.34 1.59.717 2.25 1.13-.153-1.047-.23-1.9-.23-2.56h1.7c0 .467-.083 1.327-.25 2.58l.82-.38c.58-.26 1.113-.483 1.6-.67l.5 1.74c-.707.16-1.527.317-2.46.47l1.15 1.3.55.64-1.47.97-1.3-2.14c-.387.693-.833 1.43-1.34 2.21zm6.7 11.58V15.32h4.8v2.13h-2.23v13.81h2.22v2.13zm5.39-14.18h1.5v-.77c0-.867.09-1.51.27-1.93.187-.42.52-.76 1-1.02.5-.267 1.123-.4 1.87-.4a7.61 7.61 0 0 1 2.26.34l-.36 1.88c-.433-.1-.847-.15-1.24-.15s-.677.093-.85.28c-.167.18-.25.53-.25 1.05v.72h2.02v2.12h-2.02v8.09h-2.7v-8.09h-1.5zm7.74 10.2V15.33h2.7v14.1zm12.19 0V27.9c-.373.54-.863.97-1.47 1.29-.6.313-1.24.47-1.92.47-.68 0-1.293-.153-1.84-.46-.547-.3-.94-.72-1.18-1.26-.247-.547-.37-1.3-.37-2.26V19.2h2.7v4.69c0 1.433.05 2.313.15 2.64.1.32.28.577.54.77.267.187.6.28 1 .28.467 0 .88-.127 1.24-.38.367-.253.617-.567.75-.94.133-.38.2-1.3.2-2.76v-4.3h2.7v10.2zm4 0 3.69-5.25-3.53-4.95h3.3l1.8 2.8 1.9-2.8h3.18l-3.46 4.83 3.78 5.38h-3.32l-2.08-3.17-2.1 3.17zm16-14.09V33.4h-4.8v-2.13h2.23V17.43h-2.22v-2.1zm3.33 6.59v-2.7h2.7v2.7zm0 7.5v-2.7h2.7v2.7zm6.04 0V15.33h2.7v14.1zm5.47-11.59v-2.5h2.7v2.5zm0 11.6V19.2h2.7v10.2zm14.75 0h-2.7V24.2c0-1.107-.057-1.82-.17-2.14a1.467 1.467 0 0 0-.57-.76c-.253-.18-.563-.27-.93-.27-.467 0-.887.13-1.26.39-.373.253-.63.593-.77 1.02-.133.42-.2 1.2-.2 2.34v4.63h-2.7V19.2h2.5v1.5c.893-1.153 2.017-1.73 3.37-1.73.6 0 1.143.107 1.63.32.493.213.867.487 1.12.82.253.333.43.71.53 1.13.1.427.15 1.033.15 1.82zm8.65-3.25 2.7.45c-.347.987-.897 1.74-1.65 2.26-.74.513-1.673.77-2.8.77-1.773 0-3.087-.58-3.94-1.74-.667-.933-1-2.107-1-3.52 0-1.693.44-3.017 1.32-3.97.887-.96 2.007-1.44 3.36-1.44 1.513 0 2.713.5 3.6 1.5.867 1 1.283 2.537 1.25 4.61h-6.77c.02.8.24 1.423.66 1.87.413.447.93.67 1.55.67.427 0 .783-.117 1.07-.35.287-.227.503-.597.65-1.11zm.16-2.73c-.02-.787-.22-1.38-.6-1.78a1.859 1.859 0 0 0-1.41-.62c-.593 0-1.08.217-1.46.65-.387.427-.577 1.01-.57 1.75zm6.9-1.12-2.45-.44c.273-.987.747-1.72 1.42-2.2.673-.467 1.673-.7 3-.7 1.2 0 2.1.143 2.7.43.587.28.997.64 1.23 1.08.247.44.37 1.247.37 2.42l-.03 3.15c0 .9.04 1.567.12 2 .093.413.26.867.5 1.36h-2.68c-.067-.18-.153-.447-.26-.8a1.854 1.854 0 0 0-.1-.32 4.96 4.96 0 0 1-1.47 1.01 4.276 4.276 0 0 1-1.69.34c-1.047 0-1.877-.287-2.49-.86-.6-.567-.9-1.287-.9-2.16 0-.58.137-1.093.41-1.54.28-.453.667-.8 1.16-1.04.5-.24 1.217-.45 2.15-.63 1.267-.24 2.143-.463 2.63-.67v-.27c0-.513-.13-.88-.39-1.1-.253-.227-.737-.34-1.45-.34-.48 0-.857.1-1.13.3-.267.18-.483.507-.65.98zm3.62 2.2c-.347.113-.897.247-1.65.4-.747.167-1.237.327-1.47.48-.353.247-.53.563-.53.95 0 .38.14.707.42.98.287.273.647.41 1.08.41.487 0 .953-.16 1.4-.48.327-.24.54-.54.64-.9.067-.227.1-.66.1-1.3zm7.9 4.9h-2.7V19.2h2.5v1.45c.433-.687.82-1.14 1.16-1.36.347-.213.737-.32 1.17-.32.613 0 1.207.167 1.78.5l-.84 2.36c-.453-.293-.877-.44-1.27-.44-.373 0-.693.107-.96.32-.267.2-.473.573-.62 1.12-.147.547-.22 1.687-.22 3.42zm5.6-7.51v-2.7h2.7v2.7zm0 7.5v-2.7h2.7v2.7zm6.55-7.5v-2.7h2.7v2.7zm0 7.5v-2.7h2.7v2.7zm6.55-7.5v-2.7h2.7v2.7zm0 7.5v-2.7h2.7v2.7zm6.56-7.5v-2.7h2.7v2.7zm0 7.5v-2.7h2.7v2.7zm6.03 3.98V15.32h4.79v2.13h-2.22v13.81h2.22v2.13zm6.36-14.18h2.5v1.39c.887-1.08 1.943-1.62 3.17-1.62.653 0 1.22.133 1.7.4.487.267.883.673 1.19 1.22.447-.547.93-.953 1.45-1.22.52-.267 1.073-.4 1.66-.4.753 0 1.387.153 1.9.46.527.3.917.743 1.17 1.33.187.44.28 1.147.28 2.12v6.53h-2.7v-5.84c0-1.013-.093-1.667-.28-1.96-.253-.387-.64-.58-1.16-.58-.373 0-.727.117-1.06.35-.333.227-.573.567-.72 1.02-.147.44-.22 1.14-.22 2.1v4.9h-2.7v-5.59c0-.993-.05-1.633-.15-1.92-.093-.287-.243-.503-.45-.65-.2-.133-.473-.2-.82-.2-.413 0-.787.11-1.12.33-.333.227-.573.55-.72.97-.147.42-.22 1.12-.22 2.1v4.97h-2.7zm17.09 4.96c0-.9.22-1.767.66-2.6a4.508 4.508 0 0 1 1.87-1.93c.813-.44 1.72-.66 2.72-.66 1.547 0 2.813.5 3.8 1.5.987 1 1.48 2.267 1.48 3.8 0 1.547-.5 2.83-1.5 3.85-.993 1.013-2.247 1.52-3.76 1.52a5.918 5.918 0 0 1-2.68-.64 4.32 4.32 0 0 1-1.93-1.85c-.44-.82-.66-1.82-.66-3zm2.76.14c0 1.013.24 1.79.72 2.33.487.533 1.08.8 1.78.8a2.27 2.27 0 0 0 1.77-.8c.48-.54.72-1.323.72-2.35 0-1-.24-1.767-.72-2.3a2.239 2.239 0 0 0-1.77-.81c-.7 0-1.293.267-1.78.8-.48.54-.72 1.317-.72 2.33zm9.77 5.1V15.33h2.7v5.08c.833-.947 1.82-1.42 2.96-1.42 1.247 0 2.277.45 3.09 1.35.813.9 1.22 2.193 1.22 3.88 0 1.74-.417 3.08-1.25 4.02-.827.947-1.833 1.42-3.02 1.42-.58 0-1.157-.147-1.73-.44-.56-.293-1.047-.727-1.46-1.3v1.5zm2.68-5.32c0 1.06.167 1.843.5 2.35.467.713 1.09 1.07 1.87 1.07.6 0 1.107-.253 1.52-.76.42-.513.63-1.317.63-2.41 0-1.167-.21-2.007-.63-2.52-.427-.52-.97-.78-1.63-.78-.647 0-1.183.253-1.61.76-.433.5-.65 1.263-.65 2.29zm9.46-6.27v-2.5h2.7v2.5zm0 11.6V19.2h2.7v10.2zm12.2 0v-1.53c-.38.54-.873.97-1.48 1.29-.6.313-1.237.47-1.91.47-.687 0-1.303-.153-1.85-.46-.54-.3-.933-.72-1.18-1.26-.247-.547-.37-1.3-.37-2.26V19.2h2.7v4.69c0 1.433.05 2.313.15 2.64.1.32.283.577.55.77.267.187.6.28 1 .28.46 0 .873-.127 1.24-.38s.617-.567.75-.94c.133-.38.2-1.3.2-2.76v-4.3h2.7v10.2zm4.35-2.92 2.7-.41c.12.527.357.927.71 1.2.353.267.847.4 1.48.4.7 0 1.227-.127 1.58-.38.233-.18.35-.42.35-.72 0-.2-.063-.37-.19-.51-.133-.133-.433-.253-.9-.36-2.18-.48-3.563-.917-4.15-1.31-.8-.553-1.2-1.32-1.2-2.3 0-.887.347-1.63 1.04-2.23.7-.6 1.783-.9 3.25-.9 1.4 0 2.437.227 3.11.68.68.453 1.147 1.127 1.4 2.02l-2.54.47c-.107-.4-.317-.707-.63-.92-.3-.207-.733-.31-1.3-.31-.707 0-1.213.1-1.52.3-.2.133-.3.313-.3.54 0 .2.087.367.26.5.247.173 1.087.423 2.52.75 1.44.333 2.447.733 3.02 1.2.56.487.84 1.157.84 2.01 0 .933-.39 1.74-1.17 2.42-.78.667-1.937 1-3.47 1-1.393 0-2.493-.28-3.3-.84a3.932 3.932 0 0 1-1.6-2.3zm15.64-11.18V33.4h-4.79v-2.13h2.22V17.43h-2.22v-2.1zm3.33 6.59v-2.7h2.7v2.7zm0 7.5v-2.7h2.7v2.7zm10.03-14.15c1.367 0 2.433.49 3.2 1.47.92 1.153 1.38 3.067 1.38 5.74 0 2.667-.463 4.58-1.39 5.74-.76.967-1.823 1.45-3.19 1.45-1.373 0-2.48-.527-3.32-1.58-.84-1.06-1.26-2.94-1.26-5.64 0-2.653.463-4.563 1.39-5.73.76-.967 1.823-1.45 3.19-1.45zm0 2.24c-.327 0-.617.107-.87.32-.26.207-.46.58-.6 1.12-.187.693-.28 1.87-.28 3.53 0 1.653.083 2.787.25 3.4.167.62.377 1.033.63 1.24.253.2.543.3.87.3.327 0 .617-.1.87-.3.26-.213.46-.59.6-1.13.187-.687.28-1.857.28-3.51 0-1.66-.083-2.793-.25-3.4-.167-.627-.377-1.043-.63-1.25a1.312 1.312 0 0 0-.87-.32zm6.96 11.92v-2.7h2.7v2.7zm4.93-3.63 2.7-.28c.067.613.293 1.097.68 1.45.373.353.807.53 1.3.53.567 0 1.047-.227 1.44-.68.387-.467.58-1.16.58-2.08 0-.867-.193-1.513-.58-1.94-.387-.433-.89-.65-1.51-.65-.78 0-1.477.343-2.09 1.03l-2.2-.32 1.4-7.34h7.14v2.53h-5.1l-.42 2.4a4 4 0 0 1 1.84-.46c1.2 0 2.217.437 3.05 1.31.833.873 1.25 2.007 1.25 3.4 0 1.16-.333 2.193-1 3.1-.92 1.247-2.197 1.87-3.83 1.87-1.3 0-2.36-.35-3.18-1.05-.82-.7-1.31-1.64-1.47-2.82zm11.42.92h2.7v1.94c0 .78-.067 1.393-.2 1.84-.133.453-.39.86-.77 1.22-.367.36-.84.643-1.42.85l-.53-1.12c.547-.18.933-.427 1.16-.74.233-.313.357-.74.37-1.28h-1.3zm13.002 6.68V15.32h4.79v2.13h-2.22v13.81h2.22v2.13zm6.6-3.97v-14.1h9.67v2.39h-6.82v3.33h5.89v2.39h-5.89v5.99zm12.09 0V15.44h2.85v11.6h7.07v2.38zm11.93-14.1h2.85v7.64c0 1.207.033 1.99.1 2.35.12.58.41 1.047.87 1.4.46.34 1.086.51 1.88.51.806 0 1.416-.163 1.83-.49.406-.333.653-.74.74-1.22.08-.48.12-1.28.12-2.4v-7.79h2.85v7.4c0 1.693-.077 2.893-.23 3.6-.154.693-.44 1.28-.86 1.76-.407.48-.957.863-1.65 1.15-.694.287-1.597.43-2.71.43-1.347 0-2.37-.157-3.07-.47-.694-.313-1.24-.713-1.64-1.2-.4-.507-.667-1.03-.8-1.57-.187-.813-.28-2.007-.28-3.58zm12.8 14.1 4.82-7.36-4.36-6.74h3.32l2.83 4.53 2.77-4.53h3.3l-4.39 6.85 4.82 7.25h-3.43l-3.13-4.88-3.13 4.88zm18.29-14.1V33.4h-4.79v-2.13h2.22V17.43h-2.22v-2.1zm3.34 6.59v-2.7h2.7v2.7zm0 7.5v-2.7h2.7v2.7zm6.13 0V15.45h2.84v11.6h7.08v2.38zm11.86 0V15.33h2.85v14.1zm5.59 0V15.33h2.76l5.76 9.41v-9.4h2.65v14.09h-2.86l-5.68-9.2v9.2zm14.19 0V15.33h10.45v2.39h-7.6v3.12h7.07v2.38h-7.08v3.83h7.88v2.38zm25.84 0h-3.1l-1.23-3.2h-5.63l-1.17 3.2h-3.01l5.48-14.09h3.01zm-5.24-5.57-1.94-5.23-1.9 5.23zm6.76 5.58v-14.1h5.98c1.506 0 2.6.13 3.28.39.686.247 1.236.693 1.65 1.34.406.647.61 1.387.61 2.22 0 1.06-.31 1.937-.93 2.63-.62.687-1.55 1.12-2.79 1.3.613.353 1.12.747 1.52 1.18.4.427.943 1.19 1.63 2.29l1.72 2.75h-3.4l-2.06-3.07c-.734-1.093-1.234-1.783-1.5-2.07-.267-.287-.554-.48-.86-.58-.3-.113-.777-.17-1.43-.17h-.58v5.89zm2.84-8.14h2.1c1.366 0 2.22-.057 2.56-.17.34-.113.606-.313.8-.6.193-.28.29-.63.29-1.05 0-.48-.127-.863-.38-1.15-.254-.293-.61-.48-1.07-.56-.234-.027-.927-.04-2.08-.04h-2.22zm11.86.63v-2.7h2.7v2.7zm0 7.5v-2.7h2.7v2.7zm6.56-7.5v-2.7h2.7v2.7zm0 7.5v-2.7h2.7v2.7zm6.03 3.98V15.32h4.79v2.13h-2.23v13.81h2.23v2.13zm6.54-3.97v-14.1h4.26l2.56 9.62 2.53-9.62h4.27v14.1h-2.65v-11.1l-2.8 11.1h-2.73l-2.8-11.1v11.1zm15.87-6.96c0-1.44.213-2.647.64-3.62.32-.72.753-1.363 1.3-1.93.56-.573 1.17-.997 1.83-1.27.88-.373 1.893-.56 3.04-.56 2.08 0 3.74.643 4.98 1.93 1.253 1.293 1.88 3.087 1.88 5.38 0 2.273-.62 4.053-1.86 5.34-1.234 1.287-2.887 1.93-4.96 1.93-2.094 0-3.76-.64-5-1.92-1.234-1.28-1.85-3.04-1.85-5.28zm2.93-.1c0 1.6.366 2.81 1.1 3.63.733.82 1.67 1.23 2.81 1.23 1.133 0 2.063-.407 2.79-1.22.733-.82 1.1-2.047 1.1-3.68 0-1.613-.357-2.817-1.07-3.61-.707-.8-1.647-1.2-2.82-1.2-1.174 0-2.12.407-2.84 1.22-.714.8-1.07 2.01-1.07 3.63zm12.97-7.04h5.63c1.113 0 1.943.05 2.49.15a3.518 3.518 0 0 1 1.47.57c.433.3.796.697 1.09 1.19a3.17 3.17 0 0 1 .43 1.64c0 .66-.18 1.267-.54 1.82-.354.547-.834.96-1.44 1.24.86.247 1.52.673 1.98 1.28.466.6.7 1.307.7 2.12a4.1 4.1 0 0 1-.46 1.87c-.294.6-.7 1.087-1.22 1.46-.514.353-1.147.573-1.9.66-.48.053-1.627.087-3.44.1h-4.8zm2.84 2.35v3.26h1.87c1.106 0 1.793-.017 2.06-.05.486-.06.87-.227 1.15-.5.28-.28.42-.647.42-1.1 0-.44-.12-.793-.36-1.06-.24-.28-.597-.447-1.07-.5-.28-.033-1.09-.05-2.43-.05zm0 5.6v3.77h2.64c1.02 0 1.67-.03 1.95-.09.42-.073.763-.257 1.03-.55.266-.3.4-.7.4-1.2 0-.427-.1-.787-.3-1.08-.214-.293-.514-.51-.9-.65-.387-.133-1.227-.2-2.52-.2zm11.28 6.15v-14.1h2.84v14.1zm5.54-14.1h2.84v7.64c0 1.207.033 1.99.1 2.35.126.58.416 1.047.87 1.4.466.34 1.096.51 1.89.51.8 0 1.406-.163 1.82-.49.413-.333.66-.74.74-1.22.086-.48.13-1.28.13-2.4v-7.79h2.84v7.4c0 1.693-.077 2.893-.23 3.6-.154.693-.437 1.28-.85 1.76-.414.48-.967.863-1.66 1.15-.687.287-1.587.43-2.7.43-1.354 0-2.377-.157-3.07-.47-.694-.313-1.244-.713-1.65-1.2-.4-.507-.667-1.03-.8-1.57-.18-.813-.27-2.007-.27-3.58zm13.51 9.51 2.77-.27c.166.933.503 1.617 1.01 2.05.513.433 1.203.65 2.07.65.913 0 1.6-.19 2.06-.57.466-.4.7-.857.7-1.37 0-.333-.1-.617-.3-.85-.187-.233-.524-.437-1.01-.61-.334-.113-1.094-.32-2.28-.62-1.527-.373-2.597-.837-3.21-1.39-.867-.773-1.3-1.72-1.3-2.84 0-.713.2-1.38.6-2 .413-.633 1.003-1.113 1.77-1.44.766-.327 1.69-.49 2.77-.49 1.773 0 3.106.39 4 1.17.893.773 1.36 1.807 1.4 3.1l-2.84.13c-.12-.733-.384-1.253-.79-1.56-.4-.32-1-.48-1.8-.48-.82 0-1.467.167-1.94.5-.3.22-.45.513-.45.88 0 .333.14.62.42.86.36.3 1.233.613 2.62.94 1.386.327 2.41.667 3.07 1.02a3.83 3.83 0 0 1 1.55 1.43c.38.6.57 1.347.57 2.24 0 .807-.224 1.563-.67 2.27-.447.707-1.08 1.233-1.9 1.58-.827.333-1.85.5-3.07.5-1.78 0-3.147-.407-4.1-1.22-.96-.833-1.534-2.037-1.72-3.61zm17.58-9.51V33.4h-4.8v-2.13h2.23V17.43h-2.22v-2.1z" transform="matrix(.98965 0 0 .98965 6.284 .25)" fill="#d9d9d9" stroke-width="1.22" aria-label="[16], [Xt], F3C, MB, *[flux]:linear::::[mobius]:0.5, :::::::::: , [FLUX]:LINEAR::[MOBIUS]" font-family="Arial" font-size="19.53" font-weight="700" letter-spacing="0" style="line-height:1.25;-inkscape-font-specification:'Arial, Bold'" word-spacing="0"/><path style="marker:none" d="M.807 1.15v30.398H12.99l-3.86 15.241 25.286-15.241h12.782V1.15Z" color="#000" overflow="visible" fill="url(#b)" fill-rule="evenodd" stroke="#2e3436" stroke-width="1.542" stroke-linejoin="round" transform="translate(7.706 10.63) scale(.61421)"/><path style="marker:none" d="M2.085 2.191v27.94h12.174l-2.946 13.847L33.93 30.13h11.913V2.191Z" color="#000" overflow="visible" fill="none" stroke="#fff" stroke-width="1.028" stroke-miterlimit="6" transform="translate(7.706 10.63) scale(.61421)"/><text xml:space="preserve" style="line-height:0%;-inkscape-font-specification:Tahoma;text-align:start" x="4.052" y="11.815" font-weight="400" font-size="15.608" font-family="Tahoma" letter-spacing="0" word-spacing="0" stroke-width="1.301" transform="translate(7.706 10.63) scale(.61421)"><tspan x="4.052" y="11.815" style="line-height:1.25"> </tspan></text><path style="line-height:1.25;-inkscape-font-specification:'Gill Sans Ultra Bold, Normal';font-variant-ligatures:normal;font-variant-position:normal;font-variant-caps:normal;font-variant-numeric:normal;font-variant-alternates:normal;font-variant-east-asian:normal;font-feature-settings:normal;font-variation-settings:normal;text-indent:0;text-align:start;text-decoration-line:none;text-decoration-style:solid;text-decoration-color:#000;text-transform:none;text-orientation:mixed;white-space:normal;shape-padding:0;shape-margin:0;inline-size:0;isolation:auto;mix-blend-mode:normal;solid-color:#000;solid-opacity:1" d="M17.64 20.46a7.867 7.867 0 0 0-.305.618l.004 6.968 1.148-.002h1.54c-.994-1.414-1.267-3.197-.919-4.856z" opacity=".7" fill="#1858d9" transform="translate(7.706 10.63) scale(.61421)"/><path style="line-height:1.25;-inkscape-font-specification:'Gill Sans Ultra Bold, Normal';font-variant-ligatures:normal;font-variant-position:normal;font-variant-caps:normal;font-variant-numeric:normal;font-variant-alternates:normal;font-variant-east-asian:normal;font-feature-settings:normal;font-variation-settings:normal;text-indent:0;text-align:start;text-decoration-line:none;text-decoration-style:solid;text-decoration-color:#000;text-transform:none;text-orientation:mixed;white-space:normal;shape-padding:0;shape-margin:0;inline-size:0;isolation:auto;mix-blend-mode:normal;solid-color:#000;solid-opacity:1" d="M25.469 20.702c-2.228.137-4.175 2.36-3.696 4.619.24 1.237 1.191 2.42 2.44 2.714l2.102.007c.464-.172 1.454-.747 1.507-1.441v-3.042c-.905-1.645-3.152-1.502-4.177-.256-1.015 1.402-.137 3.368 1.194 3.584.922.15 1.57-.097 1.991-.645.464-.636.505-1.354.19-1.927-.461-1.121-2.56-1.272-2.718.327.046.807.752 1.455 1.151 1.244.601-.128.483-.845.103-1.027-.446-.215-.575.046-.614-.278-.057-.439.332-.652 1.049-.499 1.024.524.653 1.94-.242 2.193a1.421 1.421 0 0 1-1.545-.454c-.414-.496-.392-1.27-.211-1.756.556-1.165 2.394-1.382 3.168-.259 1.055 1.246.123 3.307-1.443 3.527-1.727.378-3.356-1.41-2.97-3.097.3-1.88 2.685-2.767 4.31-2.081.34.124.65.324.78.42v-.569l.002-.696c-.172-.137-.346-.239-.694-.374a4.134 4.134 0 0 0-1.228-.232c-.15-.01-.3-.01-.45-.002z" fill="#1858d9" transform="translate(7.706 10.63) scale(.61421)"/><path style="line-height:1.25;-inkscape-font-specification:'Gill Sans Ultra Bold, Normal';font-variant-ligatures:normal;font-variant-position:normal;font-variant-caps:normal;font-variant-numeric:normal;font-variant-alternates:normal;font-variant-east-asian:normal;font-feature-settings:normal;font-variation-settings:normal;text-indent:0;text-align:start;text-decoration-line:none;text-decoration-style:solid;text-decoration-color:#000;text-transform:none;text-orientation:mixed;white-space:normal;shape-padding:0;shape-margin:0;inline-size:0;isolation:auto;mix-blend-mode:normal;solid-color:#000;solid-opacity:1" d="M27.823 27.298s-.276.285-.53.45c-.278.171-.546.29-.546.29l1.081-.003z" opacity=".7" fill="#1858d9" transform="translate(7.706 10.63) scale(.61421)"/><path fill="#1858d9" d="M25.539 18.353c-2.377.107-4.595 1.703-5.532 3.868l-.109 2.44-.341-.637c-.005.041-.012.082-.015.125a5.746 5.746 0 0 0 1.187 3.895h2.133c-1.906-1.315-2.29-4.221-.853-6.021 1.272-1.788 3.86-2.448 5.818-1.472.264-.007.745-.01 1.098-.014H30.8c-1.196-1.283-2.887-2.112-4.65-2.177a5.641 5.641 0 0 0-.609-.007z" color="#000" font-family="'Gill Sans Ultra Bold'" font-size="44.68" font-weight="400" letter-spacing="0" overflow="visible" paint-order="markers stroke fill" style="line-height:1.25;-inkscape-font-specification:'Gill Sans Ultra Bold, Normal';font-variant-ligatures:normal;font-variant-position:normal;font-variant-caps:normal;font-variant-numeric:normal;font-variant-alternates:normal;font-variant-east-asian:normal;font-feature-settings:normal;font-variation-settings:normal;text-indent:0;text-align:start;text-decoration-line:none;text-decoration-style:solid;text-decoration-color:#000;text-transform:none;text-orientation:mixed;white-space:normal;shape-padding:0;shape-margin:0;inline-size:0;isolation:auto;mix-blend-mode:normal;solid-color:#000;solid-opacity:1" word-spacing="0" transform="translate(7.706 10.63) scale(.61421)"/><path fill="#1858d9" d="M25.74 15.766a9.998 9.998 0 0 0-2.616.418l3.15 1.183-6.1 1.104-.107 2.41a6.082 6.082 0 0 1 .758-.931c2.143-2.33 5.903-2.858 8.61-1.22.883.491 2.051 1.805 2.232 1.805l2.832.002c-.005-.483-.791-1.355-1.296-1.879-1.787-1.774-4.259-2.801-6.767-2.883a9.508 9.508 0 0 0-.696-.009z" color="#000" font-family="'Gill Sans Ultra Bold'" font-size="44.68" font-weight="400" letter-spacing="0" overflow="visible" paint-order="markers stroke fill" style="line-height:1.25;-inkscape-font-specification:'Gill Sans Ultra Bold, Normal';font-variant-ligatures:normal;font-variant-position:normal;font-variant-caps:normal;font-variant-numeric:normal;font-variant-alternates:normal;font-variant-east-asian:normal;font-feature-settings:normal;font-variation-settings:normal;text-indent:0;text-align:start;text-decoration-line:none;text-decoration-style:solid;text-decoration-color:#000;text-transform:none;text-orientation:mixed;white-space:normal;shape-padding:0;shape-margin:0;inline-size:0;isolation:auto;mix-blend-mode:normal;solid-color:#000;solid-opacity:1" word-spacing="0" opacity=".7" transform="translate(7.706 10.63) scale(.61421)"/><path fill="#1858d9" d="M95.5 54.72a82.92 82.92 0 0 0-31.1 6.2l-1.8 13.3 7.33 2.76c10.63-5.1 22.72-7.1 34.44-5.04 16.14 2.51 30.88 11.95 40.46 25.1V70.7h-36.686a2.464 2.464 45 0 1-2.464-2.464V55.29a85.86 85.86 0 0 0-10.18-.57Z" color="#000" font-family="'Gill Sans Ultra Bold'" font-size="44.68" font-weight="400" letter-spacing="0" overflow="visible" paint-order="markers stroke fill" style="line-height:1.25;-inkscape-font-specification:'Gill Sans Ultra Bold, Normal';font-variant-ligatures:normal;font-variant-position:normal;font-variant-caps:normal;font-variant-numeric:normal;font-variant-alternates:normal;font-variant-east-asian:normal;font-feature-settings:normal;font-variation-settings:normal;text-indent:0;text-align:start;text-decoration-line:none;text-decoration-style:solid;text-decoration-color:#000;text-transform:none;text-orientation:mixed;white-space:normal;shape-padding:0;shape-margin:0;inline-size:0;isolation:auto;mix-blend-mode:normal;solid-color:#000;solid-opacity:1" word-spacing="0" transform="matrix(.1048 0 0 .1048 13.72 12.18)" opacity=".8"/><path fill="#1858d9" d="M96.74 25.85a111.7 111.7 0 0 0-52.52 13v27.48l.08.05c.65-.54 1.32-1.05 1.99-1.56l21.2-26.6-2.12 15.64a80.58 80.58 0 0 1 40.36-5.4l.002-.287a2.72 2.72 135.197 0 1 2.721-2.702l50.037.009c-.04-1.01-7.52-6.22-12.2-8.4a114.27 114.27 0 0 0-49.55-11.23Z" color="#000" font-family="'Gill Sans Ultra Bold'" font-size="44.68" font-weight="400" letter-spacing="0" overflow="visible" paint-order="markers stroke fill" style="line-height:1.25;-inkscape-font-specification:'Gill Sans Ultra Bold, Normal';font-variant-ligatures:normal;font-variant-position:normal;font-variant-caps:normal;font-variant-numeric:normal;font-variant-alternates:normal;font-variant-east-asian:normal;font-feature-settings:normal;font-variation-settings:normal;text-indent:0;text-align:start;text-decoration-line:none;text-decoration-style:solid;text-decoration-color:#000;text-transform:none;text-orientation:mixed;white-space:normal;shape-padding:0;shape-margin:0;inline-size:0;isolation:auto;mix-blend-mode:normal;solid-color:#000;solid-opacity:1" word-spacing="0" transform="matrix(.1048 0 0 .1048 13.72 12.18)" opacity=".9"/><path fill="#1858d9" d="M17.335 4.335v3.667c5.116-2.865 11.577-3.066 16.886-.597.905.41 1.776.894 2.61 1.436V4.333Z" color="#000" font-family="'Gill Sans Ultra Bold'" font-size="44.68" font-weight="400" letter-spacing="0" overflow="visible" paint-order="markers stroke fill" style="line-height:1.25;-inkscape-font-specification:'Gill Sans Ultra Bold, Normal';font-variant-ligatures:normal;font-variant-position:normal;font-variant-caps:normal;font-variant-numeric:normal;font-variant-alternates:normal;font-variant-east-asian:normal;font-feature-settings:normal;font-variation-settings:normal;text-indent:0;text-align:start;text-decoration-line:none;text-decoration-style:solid;text-decoration-color:#000;text-transform:none;text-orientation:mixed;white-space:normal;shape-padding:0;shape-margin:0;inline-size:0;isolation:auto;mix-blend-mode:normal;solid-color:#000;solid-opacity:1" word-spacing="0" transform="translate(7.706 10.63) scale(.61421)"/><path fill="none" stroke="#fff" stroke-linecap="round" stroke-linejoin="round" stroke-width=".54971795" d="M18.083 18.905v-5.889h11.992v4.217h-5.007v2.08h4.103v4.204h-4.08v4.622h-6.963Z"/><path fill="#fff" stroke="#000" stroke-width=".02886787" d="m15.265 17.72 3.15 1.446 2.27-2.821-.365 3.596 3.456 1.329-3.668.775-.188 3.457-1.799-3.045-3.573.953 2.515-2.693z"/><path fill="#1858d9" fill-rule="evenodd" d="M69.246 32.739 44.26 64.08 7.974 46.578a.506.506 131.166 0 0-.643.735L29.52 80.94 1.598 110.138a.47.47 59.139 0 0 .465.778L41 100.16l19.118 35.57a.479.479 167.158 0 0 .9-.205L62.83 95.18l39.73-7.189a.481.481 95.136 0 0 .084-.924L97.31 85.07l-32.47-12.2 5.404-39.704a.563.563 23.157 0 0-.998-.427ZM64.46 45.32l-4.11 30.25 28.58 10.72-30.04 5.44-1.36 30.5-14.46-26.9-29.43 8.13 21.1-22.05-16.8-25.48L45.42 69.2Z" color="#000" font-family="sans-serif" font-weight="400" overflow="visible" style="line-height:normal;font-variant-ligatures:normal;font-variant-position:normal;font-variant-caps:normal;font-variant-numeric:normal;font-variant-alternates:normal;font-variant-east-asian:normal;font-feature-settings:normal;font-variation-settings:normal;text-indent:0;text-align:start;text-decoration-line:none;text-decoration-style:solid;text-decoration-color:#000;text-transform:none;text-orientation:mixed;white-space:normal;shape-padding:0;shape-margin:0;inline-size:0;isolation:auto;mix-blend-mode:normal;solid-color:#000;solid-opacity:1" transform="matrix(.1048 0 0 .1048 13.72 12.18)"/><path fill="#fff" fill-rule="evenodd" d="M23.482 26.16a.112.112 0 0 1-.112.113.112.112 0 0 1-.113-.112.112.112 0 0 1 .113-.113.112.112 0 0 1 .112.113"/></svg>