<svg width="3140" height="180" viewBox="0 0 830.79 47.63" xmlns:xlink="http://www.w3.org/1999/xlink" xmlns="http://www.w3.org/2000/svg"><defs><linearGradient xlink:href="#a" id="b" x1="23.201" y1="3.505" x2="22.741" y2="26.46" gradientUnits="userSpaceOnUse" gradientTransform="matrix(1.573 0 0 1.73278 -19.974 -2.401)"/><linearGradient id="a"><stop style="stop-color:#d3d7cf;stop-opacity:1" offset="0"/><stop style="stop-color:white;stop-opacity:1" offset="1"/></linearGradient></defs><rect width="830.73" height="47.61" x=".03" y=".01" fill="#2a4079" fill-rule="evenodd" rx="8.76" ry="7.94" style="fill:#1a1a1a;fill-opacity:1"/><path d="M38.25 33.39V15.32h4.79v2.13h-2.22v13.81h2.22v2.13zm12.9-3.97h-2.7V19.24q-1.48 1.38-3.49 2.04v-2.45q1.06-.34 2.3-1.3 1.24-.98 1.7-2.27h2.2zm13.2-10.65-2.62.3q-.1-.82-.5-1.2t-1.05-.38q-.86 0-1.45.76-.59.77-.74 3.2 1-1.19 2.5-1.19 1.7 0 2.9 1.3 1.21 1.28 1.21 3.32 0 2.16-1.27 3.47-1.27 1.3-3.26 1.3-2.13 0-3.5-1.65-1.38-1.66-1.38-5.44 0-3.87 1.43-5.58 1.43-1.72 3.72-1.72 1.6 0 2.65.9 1.06.9 1.35 2.61zm-6.13 5.9q0 1.31.6 2.03.6.72 1.39.72.75 0 1.25-.59t.5-1.92q0-1.38-.54-2.01-.54-.65-1.35-.65-.78 0-1.31.62-.54.6-.54 1.8zm12.23-9.35V33.4h-4.78v-2.13h2.22V17.43h-2.22v-2.1zm2.75 11.4h2.7v1.93q0 1.17-.2 1.84-.2.68-.77 1.22-.55.54-1.42.85l-.53-1.12q.82-.27 1.17-.74.34-.47.36-1.28h-1.3zm11 6.67V15.32H89v2.13h-2.22v13.81H89v2.13zm5.15-3.97 4.82-7.36-4.36-6.74h3.32l2.83 4.53 2.77-4.53h3.3l-4.39 6.85 4.82 7.25h-3.43l-3.13-4.88-3.13 4.88zm19.23-10.21v2.15h-1.84v4.11q0 1.25.04 1.47.06.2.24.33.2.14.47.14.37 0 1.08-.26l.23 2.1q-.94.4-2.13.4-.73 0-1.32-.24-.59-.25-.86-.64-.27-.4-.38-1.06-.09-.47-.09-1.9v-4.45h-1.24v-2.15h1.24v-2.03l2.72-1.58v3.6zm5.62-3.89V33.4h-4.8v-2.13h2.23V17.43h-2.22v-2.1zm2.74 11.4h2.7v1.93q0 1.17-.2 1.84-.2.68-.77 1.22-.55.54-1.42.85l-.53-1.12q.82-.27 1.17-.74.34-.47.36-1.28h-1.3zm11.05 2.7v-14.1h9.66v2.39h-6.81v3.33h5.88v2.39h-5.88v5.99zm11.32-3.74 2.61-.32q.12 1 .67 1.53t1.33.53q.84 0 1.4-.64.58-.63.58-1.71 0-1.02-.55-1.61-.55-.6-1.33-.6-.52 0-1.24.2l.3-2.2q1.09.03 1.67-.47.57-.51.57-1.35 0-.7-.42-1.13-.42-.42-1.12-.42-.7 0-1.19.48t-.6 1.4l-2.48-.42q.26-1.28.78-2.04.52-.77 1.46-1.2.94-.45 2.1-.45 2 0 3.2 1.27.98 1.04.98 2.35 0 1.85-2.02 2.96 1.2.26 1.93 1.16.73.9.73 2.19 0 1.85-1.36 3.16-1.35 1.3-3.37 1.3-1.91 0-3.17-1.09-1.26-1.1-1.46-2.88zm20.65-1.45 2.76.88q-.63 2.3-2.11 3.43-1.47 1.12-3.74 1.12-2.8 0-4.62-1.92-1.8-1.92-1.8-5.25 0-3.51 1.81-5.46 1.82-1.95 4.78-1.95 2.59 0 4.2 1.53.96.9 1.44 2.6l-2.81.67q-.25-1.1-1.05-1.73-.79-.64-1.92-.64-1.57 0-2.55 1.13-.97 1.12-.97 3.64 0 2.68.96 3.8.96 1.14 2.5 1.14 1.13 0 1.95-.72.82-.72 1.17-2.27zm5.12 2.48h2.7v1.94q0 1.17-.2 1.84-.2.68-.77 1.22-.56.54-1.42.85l-.53-1.12q.81-.27 1.16-.74.35-.47.37-1.28h-1.31zm10.99 2.7V15.33h4.25l2.56 9.62 2.53-9.62h4.27v14.1h-2.65v-11.1l-2.8 11.1h-2.73l-2.79-11.1v11.1zm16.44-14.09h5.64q1.67 0 2.49.15.82.13 1.47.57.65.45 1.08 1.19.44.73.44 1.64 0 .99-.54 1.82-.53.82-1.44 1.24 1.29.37 1.98 1.28.69.9.69 2.12 0 .96-.45 1.87-.44.9-1.22 1.46-.77.53-1.9.66-.72.08-3.44.1h-4.8zm2.85 2.35v3.26h1.87q1.66 0 2.06-.05.73-.09 1.15-.5.42-.42.42-1.1 0-.66-.37-1.06-.35-.42-1.06-.5-.43-.05-2.44-.05zm0 5.6v3.77h2.63q1.54 0 1.96-.09.63-.11 1.02-.55.4-.45.4-1.2 0-.64-.3-1.08-.3-.44-.9-.65-.57-.2-2.51-.2zm11.28 3.44h2.7v1.94q0 1.17-.2 1.84-.2.68-.77 1.22-.56.54-1.43.85l-.52-1.12q.81-.27 1.16-.74.34-.47.36-1.28h-1.3zm11.95-4.9-1.46-1.13q.7-.78 1.45-1.5l.37-.36q-.24-.04-1.37-.32-.82-.2-1.08-.3l.57-1.69q1.26.51 2.25 1.13-.23-1.57-.23-2.56h1.7q0 .7-.25 2.58l.82-.38q.87-.39 1.6-.67l.5 1.74q-1.06.24-2.46.47l1.15 1.3.55.64-1.47.97-1.3-2.14q-.58 1.04-1.34 2.21zm6.7 11.58V15.32h4.8v2.13h-2.23v13.81h2.22v2.13zm5.39-14.18h1.5v-.77q0-1.3.27-1.93.28-.63 1-1.02.75-.4 1.87-.4 1.16 0 2.26.34l-.36 1.88q-.65-.15-1.24-.15t-.85.28q-.25.27-.25 1.05v.72h2.02v2.12h-2.02v8.09h-2.7v-8.09h-1.5zm7.74 10.2V15.33h2.7v14.1zm12.19 0V27.9q-.56.81-1.47 1.29-.9.47-1.92.47t-1.84-.46q-.82-.45-1.18-1.26-.37-.82-.37-2.26V19.2h2.7v4.69q0 2.15.15 2.64.15.48.54.77.4.28 1 .28.7 0 1.24-.38.55-.38.75-.94.2-.57.2-2.76v-4.3h2.7v10.2zm4 0 3.69-5.25-3.53-4.95h3.3l1.8 2.8 1.9-2.8h3.18l-3.46 4.83 3.78 5.38h-3.32l-2.08-3.17-2.1 3.17zm16-14.09V33.4h-4.8v-2.13h2.23V17.43h-2.22v-2.1zm3.33 6.59v-2.7h2.7v2.7zm0 7.5v-2.7h2.7v2.7zm6.04 0V15.33h2.7v14.1zm5.47-11.59v-2.5h2.7v2.5zm0 11.6V19.2h2.7v10.2zm14.75 0h-2.7V24.2q0-1.66-.17-2.14-.17-.49-.57-.76-.38-.27-.93-.27-.7 0-1.26.39-.56.38-.77 1.02-.2.63-.2 2.34v4.63h-2.7V19.2h2.5v1.5q1.34-1.73 3.37-1.73.9 0 1.63.32.74.32 1.12.82.38.5.53 1.13.15.64.15 1.82zm8.65-3.25 2.7.45q-.52 1.48-1.65 2.26-1.11.77-2.8.77-2.66 0-3.94-1.74-1-1.4-1-3.52 0-2.54 1.32-3.97 1.33-1.44 3.36-1.44 2.27 0 3.6 1.5 1.3 1.5 1.25 4.61h-6.77q.03 1.2.66 1.87.62.67 1.55.67.64 0 1.07-.35.43-.34.65-1.11zm.16-2.73q-.03-1.18-.6-1.78-.58-.62-1.41-.62-.89 0-1.46.65-.58.64-.57 1.75zm6.9-1.12-2.45-.44q.41-1.48 1.42-2.2 1.01-.7 3-.7 1.8 0 2.7.43.88.42 1.23 1.08.37.66.37 2.42l-.03 3.15q0 1.35.12 2 .14.62.5 1.36h-2.68q-.1-.27-.26-.8-.06-.24-.1-.32-.69.67-1.47 1.01-.8.34-1.69.34-1.57 0-2.49-.86-.9-.85-.9-2.16 0-.87.41-1.54.42-.68 1.16-1.04.75-.36 2.15-.63 1.9-.36 2.63-.67v-.27q0-.77-.39-1.1-.38-.34-1.45-.34-.72 0-1.13.3-.4.27-.65.98zm3.62 2.2q-.52.17-1.65.4-1.12.25-1.47.48-.53.37-.53.95 0 .57.42.98.43.41 1.08.41.73 0 1.4-.48.49-.36.64-.9.1-.34.1-1.3zm7.9 4.9h-2.7V19.2h2.5v1.45q.65-1.03 1.16-1.36.52-.32 1.17-.32.92 0 1.78.5l-.84 2.36q-.68-.44-1.27-.44-.56 0-.96.32-.4.3-.62 1.12-.22.82-.22 3.42zm5.6-7.51v-2.7h2.7v2.7zm0 7.5v-2.7h2.7v2.7zm6.55-7.5v-2.7h2.7v2.7zm0 7.5v-2.7h2.7v2.7zm6.55-7.5v-2.7h2.7v2.7zm0 7.5v-2.7h2.7v2.7zm6.56-7.5v-2.7h2.7v2.7zm0 7.5v-2.7h2.7v2.7zm6.03 3.98V15.32h4.79v2.13h-2.22v13.81h2.22v2.13zm6.36-14.18h2.5v1.39q1.33-1.62 3.17-1.62.98 0 1.7.4.73.4 1.19 1.22.67-.82 1.45-1.22.78-.4 1.66-.4 1.13 0 1.9.46.79.45 1.17 1.33.28.66.28 2.12v6.53h-2.7v-5.84q0-1.52-.28-1.96-.38-.58-1.16-.58-.56 0-1.06.35-.5.34-.72 1.02-.22.66-.22 2.1v4.9h-2.7v-5.59q0-1.49-.15-1.92-.14-.43-.45-.65-.3-.2-.82-.2-.62 0-1.12.33-.5.34-.72.97-.22.63-.22 2.1v4.97h-2.7zm17.09 4.96q0-1.35.66-2.6.66-1.27 1.87-1.93 1.22-.66 2.72-.66 2.32 0 3.8 1.5t1.48 3.8q0 2.32-1.5 3.85-1.49 1.52-3.76 1.52-1.4 0-2.68-.64-1.27-.63-1.93-1.85-.66-1.23-.66-3zm2.76.14q0 1.52.72 2.33.73.8 1.78.8 1.06 0 1.77-.8.72-.81.72-2.35 0-1.5-.72-2.3-.7-.81-1.77-.81-1.05 0-1.78.8-.72.81-.72 2.33zm9.77 5.1V15.33h2.7v5.08q1.25-1.42 2.96-1.42 1.87 0 3.09 1.35 1.22 1.35 1.22 3.88 0 2.61-1.25 4.02-1.24 1.42-3.02 1.42-.87 0-1.73-.44-.84-.44-1.46-1.3v1.5zm2.68-5.32q0 1.59.5 2.35.7 1.07 1.87 1.07.9 0 1.52-.76.63-.77.63-2.41 0-1.75-.63-2.52-.64-.78-1.63-.78-.97 0-1.61.76-.65.75-.65 2.29zm9.46-6.27v-2.5h2.7v2.5zm0 11.6V19.2h2.7v10.2zm12.2 0v-1.53q-.57.81-1.48 1.29-.9.47-1.91.47-1.03 0-1.85-.46-.81-.45-1.18-1.26-.37-.82-.37-2.26V19.2h2.7v4.69q0 2.15.15 2.64.15.48.55.77.4.28 1 .28.69 0 1.24-.38t.75-.94q.2-.57.2-2.76v-4.3h2.7v10.2zm4.35-2.92 2.7-.41q.18.79.71 1.2.53.4 1.48.4 1.05 0 1.58-.38.35-.27.35-.72 0-.3-.19-.51-.2-.2-.9-.36-3.27-.72-4.15-1.31-1.2-.83-1.2-2.3 0-1.33 1.04-2.23 1.05-.9 3.25-.9 2.1 0 3.11.68 1.02.68 1.4 2.02l-2.54.47q-.16-.6-.63-.92-.45-.31-1.3-.31-1.06 0-1.52.3-.3.2-.3.54 0 .3.26.5.37.26 2.52.75 2.16.5 3.02 1.2.84.73.84 2.01 0 1.4-1.17 2.42-1.17 1-3.47 1-2.09 0-3.3-.84-1.22-.85-1.6-2.3zm15.64-11.18V33.4h-4.79v-2.13h2.22V17.43h-2.22v-2.1zm3.33 6.59v-2.7h2.7v2.7zm0 7.5v-2.7h2.7v2.7zm10.03-14.15q2.05 0 3.2 1.47 1.38 1.73 1.38 5.74 0 4-1.39 5.74-1.14 1.45-3.19 1.45-2.06 0-3.32-1.58-1.26-1.59-1.26-5.64 0-3.98 1.39-5.73 1.14-1.45 3.19-1.45zm0 2.24q-.49 0-.87.32-.39.31-.6 1.12-.28 1.04-.28 3.53 0 2.48.25 3.4.25.93.63 1.24.38.3.87.3t.87-.3q.39-.32.6-1.13.28-1.03.28-3.51 0-2.49-.25-3.4-.25-.94-.63-1.25-.38-.32-.87-.32zm6.96 11.92v-2.7h2.7v2.7zm4.93-3.63 2.7-.28q.1.92.68 1.45.56.53 1.3.53.85 0 1.44-.68.58-.7.58-2.08 0-1.3-.58-1.94-.58-.65-1.51-.65-1.17 0-2.09 1.03l-2.2-.32 1.4-7.34h7.14v2.53h-5.1l-.42 2.4q.9-.46 1.84-.46 1.8 0 3.05 1.31 1.25 1.31 1.25 3.4 0 1.74-1 3.1-1.38 1.87-3.83 1.87-1.95 0-3.18-1.05-1.23-1.05-1.47-2.82zm11.42.92h2.7v1.94q0 1.17-.2 1.84-.2.68-.77 1.22-.55.54-1.42.85l-.53-1.12q.82-.27 1.16-.74.35-.47.37-1.28h-1.3zm17-4.8v-2.7h2.7v2.7zm0 7.5v-2.7h2.7v2.7zm6.55-7.5v-2.7h2.7v2.7zm0 7.5v-2.7h2.7v2.7zm6.56-7.5v-2.7h2.7v2.7zm0 7.5v-2.7h2.7v2.7zm6.56-7.5v-2.7h2.7v2.7zm0 7.5v-2.7h2.7v2.7zm6.55-7.5v-2.7h2.7v2.7zm0 7.5v-2.7h2.7v2.7zm6.56-7.5v-2.7h2.7v2.7zm0 7.5v-2.7h2.7v2.7zm6.56-7.5v-2.7h2.7v2.7zm0 7.5v-2.7h2.7v2.7zm6.55-7.5v-2.7h2.7v2.7zm0 7.5v-2.7h2.7v2.7zm6.56-7.5v-2.7h2.7v2.7zm0 7.5v-2.7h2.7v2.7zm6.55-7.5v-2.7h2.7v2.7zm0 7.5v-2.7h2.7v2.7zm16.91-2.7h2.7v1.94q0 1.17-.2 1.84-.2.68-.76 1.22-.56.54-1.43.85l-.53-1.12q.82-.27 1.17-.74.34-.47.36-1.28h-1.3zm11 6.68V15.32h4.79v2.13h-2.22v13.81h2.22v2.13zm6.6-3.97v-14.1h9.67v2.39h-6.82v3.33h5.89v2.39h-5.89v5.99zm12.09 0V15.44h2.85v11.6h7.07v2.38zm11.93-14.1h2.85v7.64q0 1.81.1 2.35.18.87.87 1.4.69.51 1.88.51 1.21 0 1.83-.49.61-.5.74-1.22.12-.72.12-2.4v-7.79h2.85v7.4q0 2.54-.23 3.6-.23 1.04-.86 1.76-.61.72-1.65 1.15-1.04.43-2.71.43-2.02 0-3.07-.47-1.04-.47-1.64-1.2-.6-.76-.8-1.57-.28-1.22-.28-3.58zm12.8 14.1 4.82-7.36-4.36-6.74h3.32l2.83 4.53 2.77-4.53h3.3l-4.39 6.85 4.82 7.25h-3.43l-3.13-4.88-3.13 4.88zm18.29-14.1V33.4h-4.79v-2.13h2.22V17.43h-2.22v-2.1zm3.34 6.59v-2.7h2.7v2.7zm0 7.5v-2.7h2.7v2.7zm6.13 0V15.45h2.84v11.6h7.08v2.38zm11.86 0V15.33h2.85v14.1zm5.59 0V15.33H671l5.76 9.41v-9.4h2.65v14.09h-2.86l-5.68-9.2v9.2zm14.19 0V15.33h10.45v2.39h-7.6v3.12h7.07v2.38h-7.08v3.83h7.88v2.38zm25.84 0h-3.1l-1.23-3.2h-5.63l-1.17 3.2h-3.01l5.48-14.09h3.01zm-5.24-5.57-1.94-5.23-1.9 5.23zm6.76 5.58v-14.1h5.98q2.26 0 3.28.39 1.03.37 1.65 1.34.61.97.61 2.22 0 1.59-.93 2.63-.93 1.03-2.79 1.3.92.53 1.52 1.18.6.64 1.63 2.29l1.72 2.75h-3.4L717 26.35q-1.1-1.64-1.5-2.07-.4-.43-.86-.58-.45-.17-1.43-.17h-.58v5.89zm2.84-8.14h2.1q2.05 0 2.56-.17.51-.17.8-.6.29-.42.29-1.05 0-.72-.38-1.15-.38-.44-1.07-.56-.35-.04-2.08-.04h-2.22zm11.86.63v-2.7h2.7v2.7zm0 7.5v-2.7h2.7v2.7zm6.56-7.5v-2.7h2.7v2.7zm0 7.5v-2.7h2.7v2.7zm6.03 3.98V15.32h4.79v2.13h-2.23v13.81h2.23v2.13zm6.54-3.97v-14.1h4.26l2.56 9.62 2.53-9.62h4.27v14.1h-2.65v-11.1l-2.8 11.1h-2.73l-2.8-11.1v11.1zm15.87-6.96q0-2.16.64-3.62.48-1.08 1.3-1.93.84-.86 1.83-1.27 1.32-.56 3.04-.56 3.12 0 4.98 1.93 1.88 1.94 1.88 5.38 0 3.41-1.86 5.34-1.85 1.93-4.96 1.93-3.14 0-5-1.92-1.85-1.92-1.85-5.28zm2.93-.1q0 2.4 1.1 3.63t2.81 1.23q1.7 0 2.79-1.22 1.1-1.23 1.1-3.68 0-2.42-1.07-3.61-1.06-1.2-2.82-1.2-1.76 0-2.84 1.22-1.07 1.2-1.07 3.63zm12.97-7.04h5.63q1.67 0 2.49.15.83.13 1.47.57.65.45 1.09 1.19.43.73.43 1.64 0 .99-.54 1.82-.53.82-1.44 1.24 1.29.37 1.98 1.28.7.9.7 2.12 0 .96-.46 1.87-.44.9-1.22 1.46-.77.53-1.9.66-.72.08-3.44.1h-4.8zm2.84 2.35v3.26h1.87q1.66 0 2.06-.05.73-.09 1.15-.5.42-.42.42-1.1 0-.66-.36-1.06-.36-.42-1.07-.5-.42-.05-2.43-.05zm0 5.6v3.77h2.64q1.53 0 1.95-.09.63-.11 1.03-.55.4-.45.4-1.2 0-.64-.3-1.08-.32-.44-.9-.65-.58-.2-2.52-.2zm11.28 6.15v-14.1h2.84v14.1zm5.54-14.1h2.84v7.64q0 1.81.1 2.35.19.87.87 1.4.7.51 1.89.51 1.2 0 1.82-.49.62-.5.74-1.22.13-.72.13-2.4v-7.79h2.84v7.4q0 2.54-.23 3.6-.23 1.04-.85 1.76t-1.66 1.15q-1.03.43-2.7.43-2.03 0-3.07-.47t-1.65-1.2q-.6-.76-.8-1.57-.27-1.22-.27-3.58zm13.51 9.51 2.77-.27q.25 1.4 1.01 2.05.77.65 2.07.65 1.37 0 2.06-.57.7-.6.7-1.37 0-.5-.3-.85-.28-.35-1.01-.61-.5-.17-2.28-.62-2.29-.56-3.21-1.39-1.3-1.16-1.3-2.84 0-1.07.6-2 .62-.95 1.77-1.44t2.77-.49q2.66 0 4 1.17 1.34 1.16 1.4 3.1l-2.84.13q-.18-1.1-.79-1.56-.6-.48-1.8-.48-1.23 0-1.94.5-.45.33-.45.88 0 .5.42.86.54.45 2.62.94 2.08.49 3.07 1.02 1 .52 1.55 1.43.57.9.57 2.24 0 1.21-.67 2.27t-1.9 1.58q-1.24.5-3.07.5-2.67 0-4.1-1.22-1.44-1.25-1.72-3.61zm17.58-9.51V33.4h-4.8v-2.13h2.23V17.43h-2.22v-2.1z" transform="matrix(.98965 0 0 .98965 6.284 .25)" fill="#d9d9d9" stroke-width="1.22" aria-label="[16], [Xt], F3C, MB, *[flux]:linear::::[mobius]:0.5, :::::::::: , [FLUX]:LINEAR::[MOBIUS]" font-family="Arial" font-size="19.53" font-weight="700" letter-spacing="0" style="line-height:1.25;-inkscape-font-specification:'Arial, Bold'" word-spacing="0"/><path style="color:#000;display:inline;overflow:visible;visibility:visible;fill:url(#b);fill-opacity:1;fill-rule:evenodd;stroke:#2e3436;stroke-width:1.54233;stroke-linecap:butt;stroke-linejoin:round;stroke-miterlimit:4;stroke-dasharray:none;stroke-dashoffset:0;stroke-opacity:1;marker:none" d="M.807 1.15v30.398H12.99l-3.86 15.241 25.286-15.241h12.782V1.15Z" transform="translate(7.706 10.63) scale(.61421)"/><path style="color:#000;display:inline;overflow:visible;visibility:visible;fill:none;stroke:#fff;stroke-width:1.02822;stroke-linecap:butt;stroke-linejoin:miter;stroke-miterlimit:6;stroke-dasharray:none;stroke-dashoffset:0;stroke-opacity:1;marker:none" d="M2.085 2.191v27.94h12.174l-2.946 13.847L33.93 30.13h11.913V2.191Z" transform="translate(7.706 10.63) scale(.61421)"/><text xml:space="preserve" style="font-style:normal;font-variant:normal;font-weight:400;font-stretch:normal;font-size:15.6079px;line-height:0%;font-family:Tahoma;-inkscape-font-specification:Tahoma;text-align:start;letter-spacing:0;word-spacing:0;writing-mode:lr-tb;text-anchor:start;fill:#000;fill-opacity:1;stroke:none;stroke-width:1.30065" x="4.052" y="11.815" transform="translate(7.706 10.63) scale(.61421)"><tspan x="4.052" y="11.815" style="font-size:15.6079px;line-height:1.25;stroke-width:1.30065"> </tspan></text><path style="line-height:1.25;-inkscape-font-specification:'Gill Sans Ultra Bold, Normal';font-variant-ligatures:normal;font-variant-position:normal;font-variant-caps:normal;font-variant-numeric:normal;font-variant-alternates:normal;font-variant-east-asian:normal;font-feature-settings:normal;font-variation-settings:normal;text-indent:0;text-align:start;text-decoration-line:none;text-decoration-style:solid;text-decoration-color:#000;text-transform:none;text-orientation:mixed;white-space:normal;shape-padding:0;shape-margin:0;inline-size:0;opacity:.7;isolation:auto;mix-blend-mode:normal;solid-color:#000;solid-opacity:1;fill:#1858d9;fill-opacity:1;stroke-width:.170617" d="M17.64 20.46a7.867 7.867 0 0 0-.305.618l.004 6.968 1.148-.002h1.54c-.994-1.414-1.267-3.197-.919-4.856z" transform="translate(7.706 10.63) scale(.61421)"/><path style="line-height:1.25;-inkscape-font-specification:'Gill Sans Ultra Bold, Normal';font-variant-ligatures:normal;font-variant-position:normal;font-variant-caps:normal;font-variant-numeric:normal;font-variant-alternates:normal;font-variant-east-asian:normal;font-feature-settings:normal;font-variation-settings:normal;text-indent:0;text-align:start;text-decoration-line:none;text-decoration-style:solid;text-decoration-color:#000;text-transform:none;text-orientation:mixed;white-space:normal;shape-padding:0;shape-margin:0;inline-size:0;isolation:auto;mix-blend-mode:normal;solid-color:#000;solid-opacity:1;fill:#1858d9;fill-opacity:1;stroke-width:.170617" d="M25.469 20.702c-2.228.137-4.175 2.36-3.696 4.619.24 1.237 1.191 2.42 2.44 2.714l2.102.007c.464-.172 1.454-.747 1.507-1.441v-3.042c-.905-1.645-3.152-1.502-4.177-.256-1.015 1.402-.137 3.368 1.194 3.584.922.15 1.57-.097 1.991-.645.464-.636.505-1.354.19-1.927-.461-1.121-2.56-1.272-2.718.327.046.807.752 1.455 1.151 1.244.601-.128.483-.845.103-1.027-.446-.215-.575.046-.614-.278-.057-.439.332-.652 1.049-.499 1.024.524.653 1.94-.242 2.193a1.421 1.421 0 0 1-1.545-.454c-.414-.496-.392-1.27-.211-1.756.556-1.165 2.394-1.382 3.168-.259 1.055 1.246.123 3.307-1.443 3.527-1.727.378-3.356-1.41-2.97-3.097.3-1.88 2.685-2.767 4.31-2.081.34.124.65.324.78.42v-.569l.002-.696c-.172-.137-.346-.239-.694-.374a4.134 4.134 0 0 0-1.228-.232c-.15-.01-.3-.01-.45-.002z" transform="translate(7.706 10.63) scale(.61421)"/><path style="line-height:1.25;-inkscape-font-specification:'Gill Sans Ultra Bold, Normal';font-variant-ligatures:normal;font-variant-position:normal;font-variant-caps:normal;font-variant-numeric:normal;font-variant-alternates:normal;font-variant-east-asian:normal;font-feature-settings:normal;font-variation-settings:normal;text-indent:0;text-align:start;text-decoration-line:none;text-decoration-style:solid;text-decoration-color:#000;text-transform:none;text-orientation:mixed;white-space:normal;shape-padding:0;shape-margin:0;inline-size:0;opacity:.7;isolation:auto;mix-blend-mode:normal;solid-color:#000;solid-opacity:1;fill:#1858d9;fill-opacity:1;stroke-width:.170617" d="M27.823 27.298s-.276.285-.53.45c-.278.171-.546.29-.546.29l1.081-.003z" transform="translate(7.706 10.63) scale(.61421)"/><path fill="#1858d9" d="M25.539 18.353c-2.377.107-4.595 1.703-5.532 3.868l-.109 2.44-.341-.637c-.005.041-.012.082-.015.125a5.746 5.746 0 0 0 1.187 3.895h2.133c-1.906-1.315-2.29-4.221-.853-6.021 1.272-1.788 3.86-2.448 5.818-1.472.264-.007.745-.01 1.098-.014H30.8c-1.196-1.283-2.887-2.112-4.65-2.177a5.641 5.641 0 0 0-.609-.007z" color="#000" font-family="'Gill Sans Ultra Bold'" font-size="44.68" font-weight="400" letter-spacing="0" overflow="visible" paint-order="markers stroke fill" style="line-height:1.25;-inkscape-font-specification:'Gill Sans Ultra Bold, Normal';font-variant-ligatures:normal;font-variant-position:normal;font-variant-caps:normal;font-variant-numeric:normal;font-variant-alternates:normal;font-variant-east-asian:normal;font-feature-settings:normal;font-variation-settings:normal;text-indent:0;text-align:start;text-decoration-line:none;text-decoration-style:solid;text-decoration-color:#000;text-transform:none;text-orientation:mixed;white-space:normal;shape-padding:0;shape-margin:0;inline-size:0;isolation:auto;mix-blend-mode:normal;solid-color:#000;solid-opacity:1;stroke-width:.170617" word-spacing="0" transform="translate(7.706 10.63) scale(.61421)"/><path fill="#1858d9" d="M25.74 15.766a9.998 9.998 0 0 0-2.616.418l3.15 1.183-6.1 1.104-.107 2.41a6.082 6.082 0 0 1 .758-.931c2.143-2.33 5.903-2.858 8.61-1.22.883.491 2.051 1.805 2.232 1.805l2.832.002c-.005-.483-.791-1.355-1.296-1.879-1.787-1.774-4.259-2.801-6.767-2.883a9.508 9.508 0 0 0-.696-.009z" color="#000" font-family="'Gill Sans Ultra Bold'" font-size="44.68" font-weight="400" letter-spacing="0" overflow="visible" paint-order="markers stroke fill" style="line-height:1.25;-inkscape-font-specification:'Gill Sans Ultra Bold, Normal';font-variant-ligatures:normal;font-variant-position:normal;font-variant-caps:normal;font-variant-numeric:normal;font-variant-alternates:normal;font-variant-east-asian:normal;font-feature-settings:normal;font-variation-settings:normal;text-indent:0;text-align:start;text-decoration-line:none;text-decoration-style:solid;text-decoration-color:#000;text-transform:none;text-orientation:mixed;white-space:normal;shape-padding:0;shape-margin:0;inline-size:0;opacity:.7;isolation:auto;mix-blend-mode:normal;solid-color:#000;solid-opacity:1;stroke-width:.170617" word-spacing="0" transform="translate(7.706 10.63) scale(.61421)"/><path fill="#1858d9" d="M95.5 54.72a82.92 82.92 0 0 0-31.1 6.2l-1.8 13.3 7.33 2.76c10.63-5.1 22.72-7.1 34.44-5.04 16.14 2.51 30.88 11.95 40.46 25.1V70.7h-36.686a2.464 2.464 45 0 1-2.464-2.464V55.29a85.86 85.86 0 0 0-10.18-.57Z" color="#000" font-family="'Gill Sans Ultra Bold'" font-size="44.68" font-weight="400" letter-spacing="0" overflow="visible" paint-order="markers stroke fill" style="line-height:1.25;-inkscape-font-specification:'Gill Sans Ultra Bold, Normal';font-variant-ligatures:normal;font-variant-position:normal;font-variant-caps:normal;font-variant-numeric:normal;font-variant-alternates:normal;font-variant-east-asian:normal;font-feature-settings:normal;font-variation-settings:normal;text-indent:0;text-align:start;text-decoration-line:none;text-decoration-style:solid;text-decoration-color:#000;text-transform:none;text-orientation:mixed;white-space:normal;shape-padding:0;shape-margin:0;inline-size:0;opacity:.8;isolation:auto;mix-blend-mode:normal;solid-color:#000;solid-opacity:1" word-spacing="0" transform="matrix(.1048 0 0 .1048 13.72 12.18)"/><path fill="#1858d9" d="M96.74 25.85a111.7 111.7 0 0 0-52.52 13v27.48l.08.05c.65-.54 1.32-1.05 1.99-1.56l21.2-26.6-2.12 15.64a80.58 80.58 0 0 1 40.36-5.4l.002-.287a2.72 2.72 135.197 0 1 2.721-2.702l50.037.009c-.04-1.01-7.52-6.22-12.2-8.4a114.27 114.27 0 0 0-49.55-11.23Z" color="#000" font-family="'Gill Sans Ultra Bold'" font-size="44.68" font-weight="400" letter-spacing="0" overflow="visible" paint-order="markers stroke fill" style="line-height:1.25;-inkscape-font-specification:'Gill Sans Ultra Bold, Normal';font-variant-ligatures:normal;font-variant-position:normal;font-variant-caps:normal;font-variant-numeric:normal;font-variant-alternates:normal;font-variant-east-asian:normal;font-feature-settings:normal;font-variation-settings:normal;text-indent:0;text-align:start;text-decoration-line:none;text-decoration-style:solid;text-decoration-color:#000;text-transform:none;text-orientation:mixed;white-space:normal;shape-padding:0;shape-margin:0;inline-size:0;opacity:.9;isolation:auto;mix-blend-mode:normal;solid-color:#000;solid-opacity:1" word-spacing="0" transform="matrix(.1048 0 0 .1048 13.72 12.18)"/><path fill="#1858d9" d="M17.335 4.335v3.667c5.116-2.865 11.577-3.066 16.886-.597.905.41 1.776.894 2.61 1.436V4.333Z" color="#000" font-family="'Gill Sans Ultra Bold'" font-size="44.68" font-weight="400" letter-spacing="0" overflow="visible" paint-order="markers stroke fill" style="line-height:1.25;-inkscape-font-specification:'Gill Sans Ultra Bold, Normal';font-variant-ligatures:normal;font-variant-position:normal;font-variant-caps:normal;font-variant-numeric:normal;font-variant-alternates:normal;font-variant-east-asian:normal;font-feature-settings:normal;font-variation-settings:normal;text-indent:0;text-align:start;text-decoration-line:none;text-decoration-style:solid;text-decoration-color:#000;text-transform:none;text-orientation:mixed;white-space:normal;shape-padding:0;shape-margin:0;inline-size:0;isolation:auto;mix-blend-mode:normal;solid-color:#000;solid-opacity:1;stroke-width:.170617" word-spacing="0" transform="translate(7.706 10.63) scale(.61421)"/><path fill="none" stroke="#fff" stroke-linecap="round" stroke-linejoin="round" stroke-width=".54971795" d="M18.083 18.905v-5.889h11.992v4.217h-5.007v2.08h4.103v4.204h-4.08v4.622h-6.963Z"/><path fill="#fff" stroke="#000" stroke-width=".047" d="m12.306 11.544 5.13 2.354 3.694-4.593-.594 5.856 5.627 2.163-5.971 1.263-.308 5.628-2.927-4.958-5.818 1.551 4.094-4.385z" style="fill:#fff;fill-opacity:1" transform="translate(7.706 10.63) scale(.61421)"/><path fill="#fff" fill-rule="evenodd" d="M69.246 32.739 44.26 64.08 7.974 46.578a.506.506 131.166 0 0-.643.735L29.52 80.94 1.598 110.138a.47.47 59.139 0 0 .465.778L41 100.16l19.118 35.57a.479.479 167.158 0 0 .9-.205L62.83 95.18l39.73-7.189a.481.481 95.136 0 0 .084-.924L97.31 85.07l-32.47-12.2 5.404-39.704a.563.563 23.157 0 0-.998-.427ZM64.46 45.32l-4.11 30.25 28.58 10.72-30.04 5.44-1.36 30.5-14.46-26.9-29.43 8.13 21.1-22.05-16.8-25.48L45.42 69.2Z" color="#000" font-family="sans-serif" font-weight="400" overflow="visible" style="line-height:normal;font-variant-ligatures:normal;font-variant-position:normal;font-variant-caps:normal;font-variant-numeric:normal;font-variant-alternates:normal;font-variant-east-asian:normal;font-feature-settings:normal;font-variation-settings:normal;text-indent:0;text-align:start;text-decoration-line:none;text-decoration-style:solid;text-decoration-color:#000;text-transform:none;text-orientation:mixed;white-space:normal;shape-padding:0;shape-margin:0;inline-size:0;isolation:auto;mix-blend-mode:normal;solid-color:#000;solid-opacity:1;fill:#1858d9;fill-opacity:1" transform="matrix(.1048 0 0 .1048 13.72 12.18)"/><path fill="#fff" fill-rule="evenodd" d="M25.684 25.287a.183.183 0 0 1-.183.182.183.183 0 0 1-.182-.182.183.183 0 0 1 .182-.183.183.183 0 0 1 .183.183" style="stroke-width:.170617" transform="translate(7.706 10.63) scale(.61421)"/></svg>