<svg width="48" height="48" xmlns:xlink="http://www.w3.org/1999/xlink" xmlns="http://www.w3.org/2000/svg"><defs><linearGradient id="h" x1="18.466" y1="6.619" x2="15.924" y2="13.603" gradientUnits="userSpaceOnUse"><stop offset="0" stop-color="#eaba00"/><stop offset="1" stop-color="#ffe24a"/></linearGradient><linearGradient id="j" x1="18.466" y1="6.619" x2="15.924" y2="13.603" gradientUnits="userSpaceOnUse"><stop offset="0" stop-color="#ffd00d"/><stop offset="1" stop-color="#ffea66"/></linearGradient><linearGradient id="l"><stop offset="0" stop-color="#fff"/><stop offset="1" stop-color="#fff" stop-opacity="0"/></linearGradient><linearGradient id="v" x1="2" y1="21.614" x2="4.833" y2="21.614" xlink:href="#f" gradientTransform="rotate(-6.94 -5.214 27.34)scale(1.49491)"/><linearGradient id="f" x1="5.505" y1="11.477" x2="8.546" y2="14.519" gradientUnits="userSpaceOnUse"><stop offset="0" stop-color="#11a119"/><stop offset="1" stop-color="#37ae3d"/></linearGradient><linearGradient id="u" x1="2.265" y1="17.799" x2="5.379" y2="18.933" xlink:href="#f" gradientTransform="rotate(-6.94 -5.214 27.34)scale(1.49491)"/><linearGradient id="t" x1="3.639" y1="14.285" x2="6.883" y2="16.158" xlink:href="#f" gradientTransform="rotate(-6.94 -5.214 27.34)scale(1.49491)"/><linearGradient id="r" x1="8.808" y1="8.486" x2="10.988" y2="13.161" xlink:href="#g" gradientTransform="rotate(-6.94 -5.214 27.34)scale(1.49491)"/><linearGradient id="g" x1="18.466" y1="6.619" x2="15.924" y2="13.603" gradientUnits="userSpaceOnUse"><stop offset="0" stop-color="#cfa40c"/><stop offset="1" stop-color="#edd480"/></linearGradient><linearGradient id="q" x1="13.17" y1="6.51" x2="13.17" y2="12.997" xlink:href="#h" gradientTransform="rotate(-6.94 -5.214 27.34)scale(1.49491)"/><linearGradient id="o" x1="24.588" y1="9.748" x2="18.776" y2="15.56" xlink:href="#i" gradientTransform="rotate(-6.94 -5.214 27.34)scale(1.49491)"/><linearGradient id="i" x1="29.662" y1="18.026" x2="21.419" y2="20.234" gradientUnits="userSpaceOnUse"><stop offset="0" stop-color="red"/><stop offset="1" stop-color="#ff6a6a"/></linearGradient><linearGradient xlink:href="#i" id="n" gradientUnits="userSpaceOnUse" x1="29.662" y1="18.026" x2="21.419" y2="20.234" gradientTransform="rotate(-6.94 -5.214 27.34)scale(1.49491)"/><linearGradient xlink:href="#j" id="p" gradientUnits="userSpaceOnUse" x1="18.466" y1="6.619" x2="15.924" y2="13.603" gradientTransform="rotate(-6.94 -5.214 27.34)scale(1.49491)"/><linearGradient xlink:href="#f" id="s" gradientUnits="userSpaceOnUse" x1="5.505" y1="11.477" x2="8.546" y2="14.519" gradientTransform="rotate(-6.94 -5.214 27.34)scale(1.49491)"/><linearGradient xlink:href="#l" id="w" x1="33.032" y1="30.953" x2="39.578" y2="30.172" gradientUnits="userSpaceOnUse" gradientTransform="translate(.398 -.663)"/><linearGradient xlink:href="#l" id="x" gradientUnits="userSpaceOnUse" x1="33.04" y1="30.991" x2="37.669" y2="26.063" gradientTransform="translate(-4.59 -9.234)"/><linearGradient xlink:href="#l" id="y" gradientUnits="userSpaceOnUse" gradientTransform="translate(-10.877 -12.715)" x1="33.04" y1="30.969" x2="35.272" y2="25.089"/><linearGradient xlink:href="#l" id="z" gradientUnits="userSpaceOnUse" gradientTransform="translate(-15.954 -13.456)" x1="33.151" y1="30.925" x2="33.04" y2="25.741"/><linearGradient xlink:href="#l" id="A" gradientUnits="userSpaceOnUse" gradientTransform="translate(-21.356 -12.147)" x1="33.284" y1="30.947" x2="32.184" y2="26.957"/><filter id="m" x="-.061" y="-.094" width="1.121" height="1.188" color-interpolation-filters="sRGB"><feGaussianBlur stdDeviation="1.06"/></filter></defs><g style="mix-blend-mode:normal" transform="translate(-.63 7.258)scale(1.019)" opacity=".1" stroke-width=".5" filter="url(#m)"><path d="M40.406 14.688a22 22 0 0 1 1.518 2.137 22.37 22.37 0 0 1 3.27 11.324L33.64 29.556a15.5 15.5 0 0 0-2.234-6.39zM25.61 17.778a15.1 15.1 0 0 1 4.633 3.77l8.37-8.85a23.2 23.2 0 0 0-8.152-5.257ZM20.957 16.32a13.2 13.2 0 0 1 3.7 1.004l4.011-10.46a19 19 0 0 0-7.065-.574ZM20.059 6.53c-1.82.356-3.577.982-5.212 1.858l1.77 8.275a10.8 10.8 0 0 1 3.705-.395zM13.301 9.3a22 22 0 0 0-3.414 2.785l3.38 6.244a11.3 11.3 0 0 1 2.018-1.178zM8.164 13.999a23 23 0 0 0-1.849 2.653l4.223 4.401c.541-.729 1.12-1.418 1.852-2.073zM5.46 18.245a21.3 21.3 0 0 0-1.416 3.83l4.77 1.995q.49-1.157 1.168-2.214zM3.72 23.48a23 23 0 0 0-.423 4.314l4.422.376q.144-1.169.463-2.303zM7.605 29.712a16 16 0 0 0 .213 2.986l-3.917.477a21.4 21.4 0 0 1-.56-3.807Z"/></g><g stroke="#fff" stroke-width=".5"><path d="M40.406 14.688a22 22 0 0 1 1.518 2.137 22.37 22.37 0 0 1 3.27 11.324L33.64 29.556a15.5 15.5 0 0 0-2.234-6.39z" fill="url(#n)" stroke-width=".706" transform="translate(-3.235 .854)scale(1.06209)"/><path d="M25.61 17.778a15.1 15.1 0 0 1 4.633 3.77l8.37-8.85a23.2 23.2 0 0 0-8.152-5.257Z" fill="url(#o)" stroke-width=".706" transform="translate(-3.235 .854)scale(1.06209)"/><path d="M20.957 16.32a13.2 13.2 0 0 1 3.7 1.004l4.011-10.46a19 19 0 0 0-7.065-.574Z" fill="url(#p)" stroke-width=".603" transform="translate(-3.235 .854)scale(1.06209)"/><path d="M20.059 6.53c-1.82.356-3.577.982-5.212 1.858l1.77 8.275a10.8 10.8 0 0 1 3.705-.395z" fill="url(#q)" stroke-width=".603" transform="translate(-3.235 .854)scale(1.06209)"/><path d="M13.301 9.3a22 22 0 0 0-3.414 2.785l3.38 6.244a11.3 11.3 0 0 1 2.018-1.178z" fill="url(#r)" stroke-width=".603" transform="translate(-3.235 .854)scale(1.06209)"/><path d="M8.164 13.999a23 23 0 0 0-1.849 2.653l4.223 4.401c.541-.729 1.12-1.418 1.852-2.073z" fill="url(#s)" stroke-width=".499" transform="translate(-3.235 .854)scale(1.06209)"/><path d="M5.46 18.245a21.3 21.3 0 0 0-1.416 3.83l4.77 1.995q.49-1.157 1.168-2.214z" fill="url(#t)" stroke-width=".499" transform="translate(-3.235 .854)scale(1.06209)"/><path d="M3.72 23.48a23 23 0 0 0-.423 4.314l4.422.376q.144-1.169.463-2.303z" fill="url(#u)" stroke-width=".499" transform="translate(-3.235 .854)scale(1.06209)"/><path d="M7.605 29.712a16 16 0 0 0 .213 2.986l-3.917.477a21.4 21.4 0 0 1-.56-3.807Z" fill="url(#v)" stroke-width=".499" transform="translate(-3.235 .854)scale(1.06209)"/></g><g stroke-linecap="round" stroke-linejoin="bevel" paint-order="stroke fill markers"><path d="m33.913 30.196 10.391-1.312" stroke="url(#w)" stroke-width="2"/><path d="m28.837 21.471 7.032-7.72" opacity=".85" stroke="url(#x)" stroke-width="1.5"/><path d="m22.263 17.923 3.474-9.046" opacity=".7" stroke="url(#y)" stroke-width=".8"/><path d="m17.186 17.183-.216-8.185" opacity=".5" stroke="url(#z)" stroke-width=".8"/><path d="m11.806 18.536-1.63-5.975" opacity=".3" stroke="url(#A)" stroke-width=".8"/></g></svg>