<svg width="48" height="48" xmlns:xlink="http://www.w3.org/1999/xlink" xmlns="http://www.w3.org/2000/svg"><defs><linearGradient id="m"><stop offset="0" stop-color="#9307ff"/><stop offset="1" stop-color="#ff07b5"/></linearGradient><linearGradient id="l"><stop offset="0" stop-color="#25ff07"/><stop offset="1" stop-color="#4507ff"/></linearGradient><linearGradient id="k"><stop offset="0" stop-color="#0791ff"/><stop offset="1" stop-color="#07ffeb"/></linearGradient><linearGradient id="j"><stop offset="0" stop-color="#ff0707"/><stop offset="1" stop-color="#ff6407"/></linearGradient><linearGradient id="i"><stop offset="0" stop-color="#ff8207"/><stop offset="1" stop-color="#ffee07"/></linearGradient><linearGradient id="h"><stop offset="0" stop-color="#fff"/><stop offset="1" stop-color="#fff" stop-opacity="0"/></linearGradient><linearGradient id="g"><stop offset="0" stop-color="#fff"/><stop offset="1" stop-color="#fff" stop-opacity="0"/></linearGradient><linearGradient id="f"><stop offset="0" stop-color="#fff"/><stop offset="1" stop-color="#fff" stop-opacity="0"/></linearGradient><linearGradient id="e"><stop offset="0" stop-color="#fff"/><stop offset="1" stop-color="#fff" stop-opacity="0"/></linearGradient><linearGradient id="d"><stop offset="0" stop-color="#fff"/><stop offset="1" stop-color="#fff" stop-opacity="0"/></linearGradient><linearGradient id="a"><stop offset="0" stop-color="#1a1a1a"/><stop offset="1"/></linearGradient><linearGradient id="c"><stop offset="0" stop-color="#ffae05" stop-opacity="0"/><stop offset=".416" stop-color="#7b7b7b" stop-opacity="0"/><stop offset="1" stop-color="#fff"/></linearGradient><linearGradient xlink:href="#a" id="z" x1="5.83" x2="12.91" y1="6.7" y2="13.2" gradientUnits="userSpaceOnUse"/><linearGradient xlink:href="#d" id="x" x1="8.72" y1="11.07" x2="35.557" y2="11.07" gradientUnits="userSpaceOnUse"/><linearGradient xlink:href="#e" id="v" x1="10.167" y1="12.498" x2="11.013" y2="20.692" gradientUnits="userSpaceOnUse"/><linearGradient xlink:href="#f" id="t" x1="8.106" y1="27.055" x2="32.966" y2="22.165" gradientUnits="userSpaceOnUse"/><linearGradient xlink:href="#g" id="r" x1="30.564" y1="35.787" x2="3.419" y2="27.681" gradientUnits="userSpaceOnUse"/><linearGradient xlink:href="#h" id="p" x1="24.947" y1="44.997" x2="29.248" y2="40.399" gradientUnits="userSpaceOnUse"/><linearGradient xlink:href="#i" id="u" x1="20.563" y1="16.473" x2="19.137" y2="21.736" gradientUnits="userSpaceOnUse"/><linearGradient xlink:href="#j" id="w" x1="28.032" y1="10.432" x2="27.037" y2="13.568" gradientUnits="userSpaceOnUse"/><linearGradient xlink:href="#k" id="s" x1="26.912" y1="24.209" x2="26.317" y2="27.451" gradientUnits="userSpaceOnUse"/><linearGradient xlink:href="#l" id="q" x1="19.152" y1="27.653" x2="19.243" y2="31.268" gradientUnits="userSpaceOnUse"/><linearGradient xlink:href="#m" id="o" x1="22.89" y1="32.462" x2="25.245" y2="42.721" gradientUnits="userSpaceOnUse"/><linearGradient xlink:href="#n" id="B" x1="7.598" y1="7.681" x2="12.404" y2="12.336" gradientUnits="userSpaceOnUse" gradientTransform="matrix(1.12453 -.29235 .29238 1.1244 47.126 26.974)"/><linearGradient id="n"><stop offset="0" stop-color="#eeeeec"/><stop offset="1" stop-color="#d2d2cc"/></linearGradient><radialGradient xlink:href="#c" id="y" cx="7.18" cy="8.2" r="6.59" fx="7.18" fy="8.2" gradientTransform="matrix(.9 .5558 -.5314 .8606 5.08 -2.85)" gradientUnits="userSpaceOnUse"/><filter id="A" width="1.832" height="1.832" x="-.416" y="-.416" color-interpolation-filters="sRGB"><feGaussianBlur stdDeviation=".13"/></filter></defs><g paint-order="markers stroke fill"><path d="M13.306 33.265s2.189-1.668 6.672-1.71c1.693-.017 4.491 2.048 6.596 3.1 2.477 1.239 3.684.865 3.684.865l-4.06 11.088-7.912-11.295Z" fill="url(#o)" stroke="#000" stroke-width=".5" stroke-linecap="round" stroke-linejoin="round"/><path d="M17.186 34.62s.858-.982 4.773.02c1.862.476 2.33 1.57 3.313 3.949 1.057 2.56 3.976 1.874 3.976 1.874l-3.05 6.145-5.919-7.92z" fill="url(#p)"/><path d="M8.42 32.889s8.425-3.571 11.614-3.007c4.886.864 5.488 3.646 10.412 3.834 1.127.043 2.368-1.203 2.368-1.203s-.214 1.166-6.691-2.782c-8.758-5.337-21.011-2.48-21.011-2.48l-3.57 4.66 1.24 1.654z" fill="url(#q)" stroke="#000" stroke-width=".5" stroke-linecap="round" stroke-linejoin="round"/><path d="M8.42 32.889s8.425-3.571 11.614-3.007c4.886.864 5.488 3.646 10.412 3.834 1.127.043 1.225-2.266 1.225-2.266s.245 4.022-6-.283c-9.475-6.534-23.35-.328-23.35-.328L2.1 33.054l2.25.83z" fill="url(#r)"/><path d="M10.75 19.846s5.187 3.796 11.652 4.247 18.192-1.992 18.192-1.992l5.3 4.097-.414 2.143-12.93 3.42S26.5 26.687 20.071 25.86s-13.268-.075-13.268-.075z" fill="url(#s)" stroke="#000" stroke-width=".5" stroke-linecap="round" stroke-linejoin="round"/><path d="M8.624 23.939s7.018-.651 13.565 1.35c13.841 4.232 23.694 2.686 23.694 2.686l-.84 1.014-3.124.867-9.369 1.905S26.5 26.687 20.071 25.86s-13.268-.075-13.268-.075z" fill="url(#t)"/><path d="M38.715 21.124s-4.172-1.466-8.796-1.767-8.006 3.797-13.23 2.105c-5.225-1.691-6.616-3.458-6.616-3.458L7.63 10.863s7.931 1.992 13.193 4.36 15.561 3.946 15.561 3.946z" fill="url(#u)" stroke="#000" stroke-width=".5" stroke-linecap="round" stroke-linejoin="round"/><path d="M38.715 21.124S34.524 18.7 29.9 18.399c-4.624-.3-7.687.582-12.254-1.86-4.842-2.591-8.25-2.557-8.25-2.557l-1.767-3.12s7.931 1.993 13.193 4.36c5.262 2.369 15.561 3.947 15.561 3.947z" fill="url(#v)"/><path d="M34.843 17.365s-6.615.15-16.275-4.548S8.72 4.774 8.72 4.774l12.178 5.224 6.465-3.796s3.383-1.692 5.45-.338 2.744 1.841 2.744 1.841z" fill="url(#w)" stroke="#000" stroke-width=".5" stroke-linecap="round" stroke-linejoin="round"/><path d="M34.843 17.365s-6.615.15-16.275-4.548S8.72 4.774 8.72 4.774l10.743 6.606c2.549 1.012 5.318 2.096 8.141 2.032 2.965-.068 7.953-5.707 7.953-5.707z" fill="url(#x)"/></g><path fill="url(#y)" fill-rule="evenodd" stroke="url(#z)" stroke-width=".85" d="M13.51 5.1c.44.77-2.18 2.89-2.29 3.76-.1.88 1.95 3.55 1.36 4.2-.6.64-3.43-1.19-4.3-1.02-.86.17-2.76 2.95-3.56 2.58-.8-.36.07-3.62-.36-4.39S.69 8.51.8 7.63c.1-.87 3.47-1.05 4.06-1.7.6-.64.51-4.01 1.38-4.18.86-.18 2.07 2.97 2.87 3.34s3.97-.76 4.4 0z" enable-background="accumulate" overflow="visible" style="marker:none" transform="matrix(2.647 2.2616 -2.267 2.6553 22.22 -16.85)"/><path fill="#fffdfc" fill-rule="evenodd" d="M8.5 7.99a.37.37 0 0 1-.38.37.37.37 0 0 1-.37-.37.37.37 0 0 1 .37-.38.37.37 0 0 1 .37.37" filter="url(#A)" transform="rotate(36.96 28.44 21)scale(3.0331)"/><g color="#000"><ellipse ry="7.464" rx="7.418" cy="40.233" cx="40.28" style="marker:none" overflow="visible" stroke="#fff" stroke-width=".608" enable-background="accumulate"/><path style="marker:none" d="M60.644 33.586a2.176 2.176 0 1 1-4.21 1.095 2.176 2.176 0 0 1 4.21-1.095zM56.64 26.83a1.255 1.255 0 0 0-.9 1.533l.514 1.978c-.045.235-.07.448-.186.536-.092.07-.254.073-.428.07l-1.918-1.125a1.28 1.28 0 0 0-1.75.455 1.28 1.28 0 0 0 .455 1.75l1.87 1.097c.104.168.173.321.156.447s-.117.259-.263.393l-2.054.534a1.255 1.255 0 0 0-.901 1.534c.175.675.86 1.076 1.534.901l1.978-.514c.235.044.448.07.536.185.07.093.072.254.07.429l-1.126 1.917a1.28 1.28 0 0 0 .455 1.75 1.28 1.28 0 0 0 1.75-.455l1.098-1.87c.168-.104.321-.173.447-.156s.259.117.393.263l.535 2.054c.175.675.86 1.076 1.534.9a1.255 1.255 0 0 0 .9-1.533l-.514-1.978c.044-.235.07-.447.186-.536.092-.07.254-.072.428-.07l1.917 1.126a1.28 1.28 0 0 0 1.75-.455 1.28 1.28 0 0 0-.455-1.75l-1.869-1.098c-.104-.167-.174-.32-.157-.446.017-.127.118-.26.264-.394l2.054-.534a1.255 1.255 0 0 0 .9-1.534 1.255 1.255 0 0 0-1.533-.9l-1.978.514c-.235-.044-.448-.07-.536-.186-.07-.092-.073-.254-.07-.428l1.125-1.917a1.28 1.28 0 0 0-.455-1.75 1.28 1.28 0 0 0-1.75.455l-1.098 1.87c-.167.103-.32.173-.446.156-.127-.017-.26-.118-.394-.263l-.534-2.055a1.255 1.255 0 0 0-1.534-.9z" overflow="visible" fill="none" stroke="#000" stroke-width=".859" enable-background="accumulate" transform="matrix(.70607 0 0 .71045 -.91 16.215)"/><path d="M60.479 33.088a2.176 2.176 0 1 1-4.211 1.095 2.176 2.176 0 0 1 4.21-1.095zm-4.005-6.756a1.255 1.255 0 0 0-.901 1.534l.514 1.978c-.044.234-.07.447-.185.535-.093.07-.254.073-.429.071l-1.917-1.126a1.28 1.28 0 0 0-1.75.455 1.28 1.28 0 0 0 .455 1.75l1.87 1.098c.103.167.173.32.156.446s-.118.26-.263.394L51.969 34a1.255 1.255 0 0 0-.9 1.533c.175.675.859 1.077 1.533.901l1.979-.514c.234.044.447.07.535.186.07.092.073.253.071.428l-1.126 1.917a1.28 1.28 0 0 0 .455 1.75 1.28 1.28 0 0 0 1.75-.455l1.098-1.87c.167-.103.32-.173.447-.156.126.017.258.118.393.263l.534 2.054c.175.675.86 1.076 1.534.901a1.255 1.255 0 0 0 .9-1.534l-.513-1.978c.044-.234.07-.447.185-.535.093-.07.254-.073.429-.071l1.917 1.126a1.28 1.28 0 0 0 1.75-.455 1.28 1.28 0 0 0-.455-1.75l-1.87-1.098c-.104-.167-.173-.32-.156-.446.017-.127.117-.26.263-.394l2.054-.534a1.255 1.255 0 0 0 .901-1.534 1.255 1.255 0 0 0-1.534-.9l-1.978.514c-.235-.044-.447-.07-.536-.186-.07-.092-.072-.253-.07-.428l1.126-1.917a1.28 1.28 0 0 0-.455-1.75 1.28 1.28 0 0 0-1.75.455l-1.098 1.87c-.168.103-.321.173-.447.156s-.259-.118-.393-.263l-.534-2.054a1.255 1.255 0 0 0-1.534-.901z" style="marker:none" overflow="visible" fill="url(#B)" fill-rule="evenodd" stroke="#888a85" stroke-width=".429" enable-background="accumulate" transform="matrix(.70607 0 0 .71045 -.91 16.215)"/></g></svg>