<svg width="48" height="48" xmlns:xlink="http://www.w3.org/1999/xlink" xmlns="http://www.w3.org/2000/svg"><defs><linearGradient id="a"><stop offset="0" stop-color="#d3d7cf"/><stop offset="1" stop-color="#fff"/></linearGradient><linearGradient xlink:href="#a" id="g" x1="23.201" y1="3.505" x2="22.741" y2="26.46" gradientUnits="userSpaceOnUse" gradientTransform="matrix(1.573 0 0 1.73278 -19.974 -2.401)"/><linearGradient id="b"><stop offset="0" stop-color="#dfeaa1"/><stop offset="1" stop-color="#9db029"/></linearGradient><linearGradient id="c"><stop offset="0" stop-color="#2e3436" stop-opacity=".691"/><stop offset="1" stop-color="#2e3436" stop-opacity="0"/></linearGradient><linearGradient id="d"><stop offset="0" stop-color="#f4f4f4"/><stop offset=".312" stop-color="#229ad9"/><stop offset=".616" stop-color="#0647aa"/></linearGradient><linearGradient xlink:href="#e" id="i" x1="-30.491" y1="-.025" x2="-24.766" y2="7.276" gradientUnits="userSpaceOnUse" gradientTransform="matrix(-.40668 .02664 -.02664 -.40668 2.187 38.665)"/><linearGradient id="e"><stop offset=".003" stop-color="#002468"/><stop offset="1" stop-color="#1180ff"/></linearGradient><linearGradient xlink:href="#f" id="j" x1="3.443" x2="14.19" y1="8.025" y2="10.383" gradientUnits="userSpaceOnUse" gradientTransform="matrix(.70035 .59838 -.59981 .70255 12.701 25.568)"/><linearGradient id="f"><stop offset="0" stop-color="#333"/><stop offset="1" stop-color="#0d0d0d"/></linearGradient><radialGradient xlink:href="#d" id="h" cx="7.18" cy="8.2" r="6.59" fx="7.18" fy="8.2" gradientTransform="matrix(.29694 .92902 -.88837 .28663 17.969 26.605)" gradientUnits="userSpaceOnUse"/><filter id="k" width="1.832" height="1.832" x="-.416" y="-.416" color-interpolation-filters="sRGB"><feGaussianBlur stdDeviation=".13"/></filter></defs><path style="marker:none" d="M.807 1.15v30.398H12.99l-3.86 15.241 25.286-15.241h12.782V1.15Z" color="#000" overflow="visible" fill="url(#g)" fill-rule="evenodd" stroke="#2e3436" stroke-width="1.542" stroke-linejoin="round"/><path style="marker:none" d="M2.085 2.191v27.94h12.174l-2.946 13.847L33.93 30.13h11.913V2.191Z" color="#000" overflow="visible" fill="none" stroke="#fff" stroke-width="1.028" stroke-miterlimit="6"/><text xml:space="preserve" style="line-height:0%;-inkscape-font-specification:Tahoma;text-align:start" x="4.052" y="11.815" font-weight="400" font-size="15.608" font-family="Tahoma" letter-spacing="0" word-spacing="0" stroke-width="1.301"><tspan x="4.052" y="11.815" style="line-height:1.25"> </tspan></text><path fill="url(#h)" fill-rule="evenodd" d="M19.104 37.235c-.154.804-3.26.726-3.859 1.271-.598.559-.764 3.661-1.567 3.765-.804.09-1.688-2.889-2.4-3.29-.704-.395-3.702.421-4.04-.317-.345-.732 2.22-2.502 2.38-3.3.162-.798-1.538-3.405-.933-3.957.592-.551 3.06 1.339 3.863 1.235.804-.09 2.763-2.512 3.474-2.11.71.387-.332 3.325.007 4.063.338.739 3.236 1.842 3.082 2.633z" enable-background="accumulate" overflow="visible" style="marker:none" transform="scale(2.20987) rotate(-5.082 -309.23 45.953)"/><path style="-inkscape-stroke:none" d="M14.472 33.893c-2.035-.015-3.889 1.5-4.105 3.589a3.763 3.763 0 0 0 .151 1.503l.76.01a3.066 3.066 0 0 1-.202-1.44c.189-1.821 1.924-3.126 3.728-2.93.371.04.737.14 1.078.295a.357.357 0 0 0 .472-.178.357.357 0 0 0-.178-.472 4.26 4.26 0 0 0-1.704-.377zm-.09 1.321c-1.371.028-2.611 1.068-2.708 2.495-.088 1.296.873 2.53 2.219 2.599.291.015.578-.033.845-.13l.409-1.153a1.446 1.446 0 0 1-1.218.57c-.924-.047-1.606-.922-1.544-1.838.075-1.104 1.122-1.91 2.214-1.823 1.123.09 1.977 1.034 2.097 2.12l.7-.151c-.185-1.38-1.28-2.563-2.74-2.68a2.792 2.792 0 0 0-.275-.008zm.03 1.316c-.76.006-1.489.614-1.43 1.443.02.29.146.558.354.758.209.2.528.329.86.262a.357.357 0 0 0 .279-.419.357.357 0 0 0-.42-.28c-.088.018-.15-.006-.224-.077a.495.495 0 0 1-.139-.294c-.026-.372.343-.678.725-.68.56-.006.99.53.975 1.09l.71-.152c-.06-.873-.754-1.66-1.69-1.651zm-2.464 3.504.805 1.368a3.533 3.533 0 0 0 1.475.219l.266-.752c-.248.046-.504.06-.762.035a2.873 2.873 0 0 1-1.784-.87z" color="#000" fill="url(#i)" fill-rule="evenodd" transform="scale(2.20987) rotate(-5.082 -309.23 45.953)"/><path fill="none" stroke="url(#j)" stroke-width=".784" d="M19.104 37.235c-.154.804-3.26.726-3.859 1.271-.598.559-.764 3.661-1.567 3.765-.804.09-1.688-2.889-2.4-3.29-.704-.395-3.702.421-4.04-.317-.345-.732 2.22-2.502 2.38-3.3.162-.798-1.538-3.405-.933-3.957.592-.551 3.06 1.339 3.863 1.235.804-.09 2.763-2.512 3.474-2.11.71.387-.332 3.325.007 4.063.338.739 3.236 1.842 3.082 2.633z" enable-background="accumulate" overflow="visible" style="marker:none" transform="scale(2.20987) rotate(-5.082 -309.23 45.953)"/><path fill="none" stroke="#fff" stroke-linejoin="round" stroke-width=".59" d="m18.24 37.064-3.517.81-1.13 3.677-1.931-3.31-3.736.14 2.444-2.941-1.18-3.448 3.461 1.45 2.977-2.265-.35 3.852z" enable-background="accumulate" overflow="visible" style="marker:none" transform="scale(2.20987) rotate(-5.082 -309.23 45.953)"/><path fill="#fffdfc" fill-rule="evenodd" d="M8.5 7.99a.37.37 0 0 1-.38.37.37.37 0 0 1-.37-.37.37.37 0 0 1 .37-.38.37.37 0 0 1 .37.37" filter="url(#k)" transform="scale(1.77345) rotate(31.878 9.199 17.903)"/></svg>