<svg xmlns="http://www.w3.org/2000/svg" xmlns:xlink="http://www.w3.org/1999/xlink" viewBox="0 0 12.7 12.7"><defs><linearGradient id="e"><stop offset="0" stop-color="#0502ff"/><stop offset="1" stop-color="#009bd6"/></linearGradient><linearGradient id="c"><stop offset="0" stop-color="#abff43"/><stop offset="1" stop-color="#fff800"/></linearGradient><linearGradient id="k"><stop offset="0" stop-color="#8100fe"/><stop offset="1" stop-color="#0300ef"/></linearGradient><linearGradient id="o"><stop offset="0" stop-color="#fcff61"/><stop offset="1" stop-color="#ffad0c"/></linearGradient><linearGradient id="m"><stop offset="0" stop-color="#ffd800"/><stop offset="1" stop-color="#ff3f00"/></linearGradient><linearGradient id="g"><stop offset="0" stop-color="#0ee"/><stop offset="1" stop-color="#0083e1"/></linearGradient><linearGradient id="q"><stop offset="0" stop-color="#f30000"/><stop offset="1" stop-color="#ffa100"/></linearGradient><linearGradient xlink:href="#a" id="s" x1=".76" x2="3.06" y1="11.07" y2="12.34" gradientTransform="matrix(.898 0 0 .8454 .03 1.61)" gradientUnits="userSpaceOnUse"/><linearGradient id="a"><stop offset="0" stop-color="#1f0"/><stop offset="1" stop-color="#1f0"/></linearGradient><linearGradient xlink:href="#b" id="t" x1=".931" x2="3.038" y1="10.659" y2="11.754" gradientTransform="translate(-.2 .52) scale(.9803)" gradientUnits="userSpaceOnUse"/><linearGradient id="b"><stop offset="0" stop-color="#fff"/><stop offset="1" stop-color="#9eff97"/></linearGradient><linearGradient xlink:href="#c" id="v" x1="3.94" x2="6.39" y1="11.1" y2="12.42" gradientTransform="matrix(.898 0 0 .8454 .4 1.68)" gradientUnits="userSpaceOnUse"/><linearGradient xlink:href="#d" id="w" x1="3.24" x2="6.43" y1="10.47" y2="10.47" gradientTransform="translate(-.01 .58) scale(.9803)" gradientUnits="userSpaceOnUse"/><linearGradient id="d"><stop offset="0" stop-color="#ccffdb"/><stop offset="1" stop-color="#8dffc3" stop-opacity=".49"/></linearGradient><linearGradient xlink:href="#e" id="y" x1="7.09" x2="9.55" y1="11.07" y2="12.43" gradientTransform="matrix(.898 0 0 .8454 .78 1.6)" gradientUnits="userSpaceOnUse"/><linearGradient xlink:href="#f" id="z" x1="7.117" x2="9.37" y1="10.669" y2="11.842" gradientTransform="translate(.17 .5) scale(.9803)" gradientUnits="userSpaceOnUse"/><linearGradient id="f"><stop offset="0" stop-color="#fff"/><stop offset="1" stop-color="#81a1ff"/></linearGradient><linearGradient xlink:href="#g" id="B" x1="10.16" x2="12.7" y1="11.23" y2="12.43" gradientTransform="matrix(.898 0 0 .8454 1.23 1.58)" gradientUnits="userSpaceOnUse"/><linearGradient xlink:href="#h" id="C" x1="9.911" x2="12.69" y1="10.058" y2="11.139" gradientTransform="translate(.45 .48) scale(.9803)" gradientUnits="userSpaceOnUse"/><linearGradient id="h"><stop offset="0" stop-color="#fff"/><stop offset="1" stop-color="#fff" stop-opacity=".49"/></linearGradient><linearGradient xlink:href="#i" id="E" x1="2.19" x2="4.75" y1="8.21" y2="9.36" gradientTransform="matrix(.898 0 0 .8454 .18 1.24)" gradientUnits="userSpaceOnUse"/><linearGradient id="i"><stop offset="0" stop-color="#00e2af"/><stop offset="1" stop-color="#0cff5d"/></linearGradient><linearGradient xlink:href="#j" id="F" x1="2.363" x2="4.708" y1="7.957" y2="8.949" gradientTransform="translate(-.17 .38) scale(.9803)" gradientUnits="userSpaceOnUse"/><linearGradient id="j"><stop offset="0" stop-color="#fff"/><stop offset="1" stop-color="#81ff78" stop-opacity=".49"/></linearGradient><linearGradient xlink:href="#k" id="H" x1="5.37" x2="7.91" y1="8.16" y2="9.36" gradientTransform="matrix(.898 0 0 .8454 3.85 1.19)" gradientUnits="userSpaceOnUse"/><linearGradient xlink:href="#l" id="I" x1="5.511" x2="7.838" y1="7.914" y2="8.949" gradientTransform="translate(3.27 .33) scale(.9803)" gradientUnits="userSpaceOnUse"/><linearGradient id="l"><stop offset="0" stop-color="#fff"/><stop offset="1" stop-color="#53c6ff"/></linearGradient><linearGradient xlink:href="#m" id="K" x1="3.77" x2="6.27" y1="5.04" y2="6.31" gradientTransform="matrix(.898 0 0 .8454 .37 .8)" gradientUnits="userSpaceOnUse"/><linearGradient xlink:href="#n" id="L" x1="4.057" x2="6.969" y1="4.561" y2="6.212" gradientTransform="translate(-.16 .2) scale(.9803)" gradientUnits="userSpaceOnUse"/><linearGradient id="n"><stop offset="0" stop-color="#fff"/><stop offset="1" stop-color="#ffbba5" stop-opacity=".48"/></linearGradient><linearGradient xlink:href="#o" id="N" x1="6.85" x2="9.43" y1="5.21" y2="6.32" gradientTransform="matrix(.898 0 0 .8454 .82 .8)" gradientUnits="userSpaceOnUse"/><linearGradient xlink:href="#p" id="O" x1="7.36" x2="9.995" y1="4.413" y2="6.065" gradientTransform="translate(.07 .2) scale(.9803)" gradientUnits="userSpaceOnUse"/><linearGradient id="p"><stop offset="0" stop-color="#fff"/><stop offset="1" stop-color="#ffb985" stop-opacity=".48"/></linearGradient><linearGradient xlink:href="#q" id="Q" x1="5.26" x2="7.8" y1="2.08" y2="3.27" gradientTransform="matrix(.898 0 0 .8454 .55 .4)" gradientUnits="userSpaceOnUse"/><linearGradient xlink:href="#r" id="R" x1="4.81" x2="8" y1="1.81" y2="1.81" gradientTransform="translate(-.14 .06) scale(.9803)" gradientUnits="userSpaceOnUse"/><linearGradient id="r"><stop offset="0" stop-color="#fcc"/><stop offset="1" stop-color="#ffa9a9" stop-opacity=".82"/></linearGradient><filter id="G" width="1.161" height="1.161" x="-.079" y="-.109" color-interpolation-filters="sRGB"><feGaussianBlur/></filter><filter id="u" width="1.161" height="1.161" x="-.08" y="-.109" color-interpolation-filters="sRGB"><feGaussianBlur/></filter><filter id="x" width="1.161" height="1.161" x="-.079" y="-.108" color-interpolation-filters="sRGB"><feGaussianBlur/></filter><filter id="M" width="1.161" height="1.161" x="-.079" y="-.109" color-interpolation-filters="sRGB"><feGaussianBlur/></filter><filter id="P" width="1.161" height="1.161" x="-.079" y="-.109" color-interpolation-filters="sRGB"><feGaussianBlur/></filter><filter id="S" width="1.161" height="1.161" x="-.079" y="-.109" color-interpolation-filters="sRGB"><feGaussianBlur/></filter><filter id="D" width="1.161" height="1.161" x="-.079" y="-.109" color-interpolation-filters="sRGB"><feGaussianBlur/></filter><filter id="A" width="1.161" height="1.161" x="-.079" y="-.108" color-interpolation-filters="sRGB"><feGaussianBlur/></filter><filter id="J" width="1.161" height="1.161" x="-.079" y="-.109" color-interpolation-filters="sRGB"><feGaussianBlur/></filter><filter id="T" width="2.176" height="2.176" x="-.588" y="-.588" color-interpolation-filters="sRGB"><feGaussianBlur stdDeviation=".073"/></filter><filter id="U" width="2.176" height="2.176" x="-.588" y="-.588" color-interpolation-filters="sRGB"><feGaussianBlur stdDeviation=".073"/></filter><filter id="V" width="2.176" height="2.176" x="-.588" y="-.588" color-interpolation-filters="sRGB"><feGaussianBlur stdDeviation=".073"/></filter><filter id="W" width="2.176" height="2.176" x="-.588" y="-.588" color-interpolation-filters="sRGB"><feGaussianBlur stdDeviation=".073"/></filter><filter id="X" width="2.176" height="2.176" x="-.588" y="-.588" color-interpolation-filters="sRGB"><feGaussianBlur stdDeviation=".073"/></filter><filter id="Y" width="2.176" height="2.176" x="-.588" y="-.588" color-interpolation-filters="sRGB"><feGaussianBlur stdDeviation=".073"/></filter><filter id="Z" width="2.176" height="2.176" x="-.588" y="-.588" color-interpolation-filters="sRGB"><feGaussianBlur stdDeviation=".073"/></filter><filter id="aa" width="2.176" height="2.176" x="-.588" y="-.588" color-interpolation-filters="sRGB"><feGaussianBlur stdDeviation=".073"/></filter><filter id="ab" width="2.176" height="2.176" x="-.588" y="-.588" color-interpolation-filters="sRGB"><feGaussianBlur stdDeviation=".073"/></filter></defs><g fill="none" stroke="#000" stroke-linecap="round" paint-order="markers stroke fill"><path stroke-linejoin="round" stroke-width=".251" d="M6.167.607.12 11.96l12.474.028Z" opacity=".5"/><path stroke-width=".265" d="m3.455 6.47 5.606.005-2.709 5.115z" opacity=".5"/><path stroke-linejoin="round" stroke-width=".265" d="m6.259 6.197-1.43-2.522h2.745z" opacity=".5"/><path stroke-width=".265" d="M3.315 11.64 1.959 9.18h2.66zm6.051 0L8.004 9.202h2.63z" opacity=".5"/></g><path d="m2.617 8.01-.103.035v.133zM2.515 6.6v.018l.01-.01-.007-.008z" style="line-height:1.25;-inkscape-font-specification:&quot;Gill Sans Ultra Bold, Normal&quot;;font-variant-ligatures:normal;font-variant-position:normal;font-variant-caps:normal;font-variant-numeric:normal;font-variant-alternates:normal;font-variant-east-asian:normal;font-feature-settings:normal;font-variation-settings:normal;text-indent:0;text-align:start;text-decoration-line:none;text-decoration-style:solid;text-decoration-color:#000;text-transform:none;text-orientation:mixed;white-space:normal;shape-padding:0;shape-margin:0;inline-size:0;isolation:auto;mix-blend-mode:normal;solid-color:#000;solid-opacity:1"/><path fill="url(#s)" stroke="url(#t)" stroke-width=".27" d="m.08 12.1 1.37-2.58L2.9 12.1Z" filter="url(#u)" style="mix-blend-mode:normal" transform="translate(.454 .564) scale(.9213)"/><path fill="url(#v)" stroke="url(#w)" stroke-width=".27" d="M3.31 12.17 4.68 9.6l1.47 2.58Z" filter="url(#x)" style="mix-blend-mode:normal" transform="translate(.487 .498) scale(.9213)"/><path fill="url(#y)" stroke="url(#z)" stroke-width=".27" d="M6.52 12.1 7.9 9.53l1.47 2.57Z" filter="url(#A)" style="mix-blend-mode:normal" transform="translate(-2.566 -4.93) scale(.9213)"/><path fill="url(#B)" stroke="url(#C)" stroke-linecap="round" stroke-width=".27" d="m9.8 12.09 1.37-2.58 1.47 2.58z" filter="url(#D)" style="mix-blend-mode:normal" transform="translate(-2.557 -4.922) scale(.9213)"/><path fill="url(#E)" stroke="url(#F)" stroke-width=".27" d="m1.61 9.15 1.37-2.57 1.47 2.57Z" filter="url(#G)" style="mix-blend-mode:normal" transform="translate(.496 .531) scale(.9213)"/><path fill="url(#H)" stroke="url(#I)" stroke-width=".27" d="m8.12 9.1 1.36-2.57 1.47 2.57Z" filter="url(#J)" style="mix-blend-mode:normal" transform="translate(-2.566 -4.916) scale(.9213)"/><path fill="url(#K)" stroke="url(#L)" stroke-width=".27" d="m3.16 6.14 1.37-2.58L6 6.14Z" filter="url(#M)" style="mix-blend-mode:normal" transform="translate(3.65 6.066) scale(.9213)"/><path fill="url(#N)" stroke="url(#O)" stroke-width=".27" d="m6.46 6.14 1.37-2.57 1.46 2.57Z" filter="url(#P)" style="mix-blend-mode:normal" transform="translate(2.075 3.309) scale(.9213)"/><path fill="url(#Q)" stroke="url(#R)" stroke-linecap="square" stroke-width=".27" d="M4.72 3.16 6.09.6l1.46 2.58Z" filter="url(#S)" style="mix-blend-mode:normal" transform="translate(5.23 8.807) scale(.9213)"/><circle cx="9.971" cy="8.632" r=".149" fill="#fff" filter="url(#T)" paint-order="markers stroke fill" style="mix-blend-mode:normal" transform="rotate(.06 42.038 14.143)"/><circle cx="11.538" cy="11.373" r=".149" fill="#fff" filter="url(#U)" paint-order="markers stroke fill" style="mix-blend-mode:normal" transform="rotate(.06 42.038 14.143)"/><circle cx="8.529" cy="11.398" r=".149" fill="#fff" filter="url(#V)" paint-order="markers stroke fill" style="mix-blend-mode:normal" transform="rotate(.06 42.038 14.143)"/><circle cx="8.388" cy="5.883" r=".149" fill="#fff" filter="url(#W)" paint-order="markers stroke fill" style="mix-blend-mode:normal" transform="rotate(.06 42.038 14.143)"/><circle cx="6.793" cy="3.105" r=".149" fill="#fff" filter="url(#X)" paint-order="markers stroke fill" style="mix-blend-mode:normal" transform="rotate(.06 42.038 14.143)"/><circle cx="5.354" cy="5.883" r=".149" fill="#fff" filter="url(#Y)" paint-order="markers stroke fill" style="mix-blend-mode:normal" transform="rotate(.06 42.038 14.143)"/><circle cx="3.932" cy="8.653" r=".149" fill="#fff" filter="url(#Z)" paint-order="markers stroke fill" style="mix-blend-mode:normal" transform="rotate(.06 42.038 14.143)"/><circle cx="5.519" cy="11.39" r=".149" fill="#fff" filter="url(#aa)" paint-order="markers stroke fill" style="mix-blend-mode:normal" transform="rotate(.06 42.038 14.143)"/><circle cx="2.51" cy="11.414" r=".149" fill="#fff" filter="url(#ab)" paint-order="markers stroke fill" style="mix-blend-mode:normal" transform="rotate(.06 42.038 14.143)"/></svg>