<svg width="64mm" height="64mm" viewBox="0 0 64 64" xmlns="http://www.w3.org/2000/svg"><path d="M58.612 26.146A17.913 17.913 0 0 1 43.87 46.748 17.913 17.913 0 0 1 23.27 32.006 17.913 17.913 0 0 1 38.01 11.404a17.913 17.913 0 0 1 20.602 14.742Z" fill="#fff"/><path d="M37.593 8.889c-11.12 1.843-18.684 12.414-16.84 23.534 1.843 11.12 12.414 18.686 23.534 16.842C55.407 47.422 62.973 36.85 61.13 25.73c-1.843-11.12-12.416-18.684-23.536-16.84zm.834 5.033a15.322 15.322 0 0 1 17.668 12.641A15.322 15.322 0 0 1 43.453 44.23 15.322 15.322 0 0 1 25.786 31.59a15.322 15.322 0 0 1 12.641-17.667z" fill="#404040"/><path d="M7.618 33.802a16.382 16.382 0 0 1 22.434-5.784 16.382 16.382 0 0 1 5.784 22.434 16.382 16.382 0 0 1-22.434 5.784 16.382 16.382 0 0 1-5.784-22.434z" fill="#fff"/><path d="M12.132 58.387c8.955 5.284 20.572 2.288 25.856-6.667 5.283-8.954 2.287-20.57-6.668-25.854-8.954-5.284-20.57-2.289-25.853 6.666-5.284 8.955-2.29 20.571 6.665 25.855zm2.539-4.303A13.846 13.846 0 0 1 9.77 35.071a13.844 13.844 0 0 1 19.011-4.902 13.846 13.846 0 0 1 4.904 19.012 13.847 13.847 0 0 1-19.014 4.903z" fill="#404040"/><path d="M38.797 22.214a15.524 16.354.004 0 1-15.176 16.714A15.524 16.354.004 0 1 7.758 22.94 15.524 16.354.004 0 1 22.933 6.227a15.524 16.354.004 0 1 15.864 15.987Z" fill="#fff"/><path d="M22.882 3.816c-9.944.232-17.752 8.913-17.535 19.18.216 10.268 8.38 18.575 18.325 18.343 9.944-.232 17.752-8.913 17.536-19.18-.216-10.268-8.382-18.575-18.326-18.343zm.102 4.823c7.198-.168 13.237 5.84 13.4 13.632.165 7.793-5.615 14.077-12.813 14.245-7.199.168-13.238-5.84-13.402-13.632-.164-7.793 5.616-14.077 12.815-14.245z" fill="#868686"/></svg>