<svg width="48" height="48" xmlns:xlink="http://www.w3.org/1999/xlink" xmlns="http://www.w3.org/2000/svg"><defs><linearGradient id="f"><stop offset="0" stop-color="#a36d35"/><stop offset="1" stop-color="#3f1d00"/></linearGradient><linearGradient id="e"><stop offset="0" stop-color="#b15a00"/><stop offset="1" stop-color="#3b1c00"/></linearGradient><linearGradient id="d"><stop offset="0" stop-color="#ff850c"/><stop offset="1" stop-color="#682f00"/></linearGradient><linearGradient id="a"><stop offset="0" stop-color="#4c4c4c"/><stop offset="1" stop-color="#0d0d0d"/></linearGradient><linearGradient id="c"><stop offset="0" stop-color="#ff3705"/><stop offset=".522" stop-color="#f4da01"/><stop offset="1" stop-color="#f0e600"/></linearGradient><linearGradient xlink:href="#a" id="h" x1="5.83" x2="12.91" y1="6.7" y2="13.2" gradientUnits="userSpaceOnUse"/><linearGradient xlink:href="#d" id="l" x1="52.799" y1="6.447" x2="58.353" y2="12.058" gradientUnits="userSpaceOnUse"/><linearGradient xlink:href="#e" id="j" x1="52.971" y1="6.577" x2="57.615" y2="11.781" gradientUnits="userSpaceOnUse"/><linearGradient xlink:href="#f" id="k" x1="52.506" y1="6.75" x2="57.952" y2="11.51" gradientUnits="userSpaceOnUse"/><radialGradient xlink:href="#c" id="g" cx="7.772" cy="8.085" r="6.59" fx="7.772" fy="8.085" gradientTransform="matrix(.9 .5558 -.5314 .8606 5.08 -2.85)" gradientUnits="userSpaceOnUse"/><filter id="i" width="1" height="1" x="0" y="0" color-interpolation-filters="sRGB"><feGaussianBlur/></filter><path fill="#fffdfc" d="M8.5 7.99a.37.37 0 0 1-.38.37.37.37 0 0 1-.37-.37.37.37 0 0 1 .37-.38.37.37 0 0 1 .37.37" id="reuse-0"/></defs><path fill="url(#g)" fill-rule="evenodd" stroke="url(#h)" stroke-width=".85" d="M13.51 5.1c.44.77-2.18 2.89-2.29 3.76-.1.88 1.95 3.55 1.36 4.2-.6.64-3.43-1.19-4.3-1.02-.86.17-2.76 2.95-3.56 2.58-.8-.36.07-3.62-.36-4.39S.69 8.51.8 7.63c.1-.87 3.47-1.05 4.06-1.7.6-.64.51-4.01 1.38-4.18.86-.18 2.07 2.97 2.87 3.34s3.97-.76 4.4 0Z" enable-background="accumulate" overflow="visible" style="marker:none" transform="matrix(2.647 2.2616 -2.267 2.6553 22.22 -16.85)"/><path fill="none" stroke="#fff" stroke-width="2.23" d="m43.15 26.6-13.29 3.06-4.27 13.9-7.3-12.51-14.12.53 9.24-11.12L8.95 7.43l13.08 5.48 11.25-8.56-1.32 14.56Z" enable-background="accumulate" overflow="visible" style="marker:none"/><use fill-rule="evenodd" filter="url(#i)" transform="rotate(36.96 26.116 22.277)scale(3.0331)" xlink:href="#reuse-0"/><g transform="translate(-36.868 19.905)scale(1.10317)"><circle cx="55.197" cy="9.228" r="3.364" fill="#ffba25" stroke="url(#j)" stroke-linecap="round" stroke-linejoin="round" paint-order="markers stroke fill"/><use fill-rule="evenodd" filter="url(#i)" transform="rotate(36.96 60.183 61.821)scale(2.83776)" xlink:href="#reuse-0"/></g><g transform="translate(-34.97 12.438)scale(1.14534)"><circle cx="55.197" cy="9.228" r="3.364" fill="#ffba25" stroke="url(#k)" stroke-linecap="round" stroke-linejoin="round" paint-order="markers stroke fill"/><use fill-rule="evenodd" filter="url(#i)" transform="rotate(36.96 72.507 55.32)scale(3.58885)" xlink:href="#reuse-0"/></g><g transform="translate(-10.069 17.682)scale(.80905)"><circle cx="55.197" cy="9.228" r="3.364" fill="#ffba25" stroke="#682f00" stroke-linecap="round" stroke-linejoin="round" paint-order="markers stroke fill"/><use fill-rule="evenodd" filter="url(#i)" transform="rotate(36.96 74.135 54.805)scale(3.7134)" style="mix-blend-mode:normal" xlink:href="#reuse-0"/></g><g transform="translate(-20.288 6.373)scale(.86868)"><circle cx="55.197" cy="9.228" r="3.364" fill="#ffba25" stroke="#682f00" stroke-linecap="round" stroke-linejoin="round" paint-order="markers stroke fill"/><use fill-rule="evenodd" filter="url(#i)" transform="rotate(36.96 60.183 61.821)scale(2.83776)" xlink:href="#reuse-0"/></g><g transform="translate(-21.511 17.774)scale(.67413)"><circle cx="55.197" cy="9.228" r="3.364" fill="#ffba25" stroke="#682f00" stroke-linecap="round" stroke-linejoin="round" paint-order="markers stroke fill"/><use fill-rule="evenodd" filter="url(#i)" transform="rotate(36.96 60.183 61.821)scale(2.83776)" xlink:href="#reuse-0"/></g><g transform="translate(-21.912 7.897)scale(.67413)"><circle cx="55.197" cy="9.228" r="3.364" fill="#ffba25" stroke="#682f00" stroke-linecap="round" stroke-linejoin="round" paint-order="markers stroke fill"/><use fill-rule="evenodd" filter="url(#i)" transform="rotate(36.96 60.183 61.821)scale(2.83776)" xlink:href="#reuse-0"/></g><g transform="translate(-38.433 7.798)scale(1.05155)"><circle cx="55.197" cy="9.228" r="3.364" fill="#ffba25" stroke="url(#l)" stroke-linecap="round" stroke-linejoin="round" paint-order="markers stroke fill"/><use fill-rule="evenodd" filter="url(#i)" transform="rotate(36.96 60.183 61.821)scale(2.83776)" xlink:href="#reuse-0"/></g><g transform="translate(-33.618 20.488)scale(.82197)"><circle cx="55.197" cy="9.228" r="3.364" fill="#ffba25" stroke="#682f00" stroke-linecap="round" stroke-linejoin="round" paint-order="markers stroke fill"/><use fill-rule="evenodd" filter="url(#i)" transform="rotate(36.96 74.634 54.131)scale(3.73042)" style="mix-blend-mode:normal" xlink:href="#reuse-0"/></g><g transform="translate(-4.831 30.245)scale(.53309)"><circle cx="55.197" cy="9.228" r="3.364" fill="#ffba25" stroke="#682f00" stroke-linecap="round" stroke-linejoin="round" paint-order="markers stroke fill"/><use fill-rule="evenodd" filter="url(#i)" transform="rotate(36.96 60.183 61.821)scale(2.83776)" xlink:href="#reuse-0"/></g><g transform="translate(-36.283 15.957)scale(1.02354)"><circle cx="55.197" cy="9.228" r="3.364" fill="#ffba25" stroke="#682f00" stroke-linecap="round" stroke-linejoin="round" paint-order="markers stroke fill"/><use fill-rule="evenodd" filter="url(#i)" transform="rotate(36.96 70.043 56.9)scale(3.43103)" style="mix-blend-mode:normal" xlink:href="#reuse-0"/></g></svg>