<svg xmlns="http://www.w3.org/2000/svg" xmlns:xlink="http://www.w3.org/1999/xlink" viewBox="0 0 48 48"><defs><linearGradient id="b"><stop offset="0" stop-color="#5f5f5f"/><stop offset="1" stop-color="#dedede"/></linearGradient><linearGradient id="a"><stop offset=".255" stop-color="#ff0e0e"/><stop offset="1" stop-color="#ff0101"/></linearGradient><linearGradient id="c"><stop offset=".116" stop-color="#fff"/><stop offset=".436" stop-color="#e7e7e7"/><stop offset=".687" stop-color="#fff"/></linearGradient><linearGradient xlink:href="#a" id="f" x1="1.792" x2="13.537" y1="7.777" y2="9.102" gradientUnits="userSpaceOnUse"/><linearGradient xlink:href="#b" id="e" x1="-30.491" x2="-24.766" y1="-.025" y2="7.276" gradientUnits="userSpaceOnUse"/><radialGradient xlink:href="#c" id="d" cx="7.18" cy="8.2" r="6.59" fx="7.18" fy="8.2" gradientTransform="matrix(.9 .5558 -.5314 .8606 5.08 -2.85)" gradientUnits="userSpaceOnUse"/><filter id="g" width="1.832" height="1.832" x="-.416" y="-.416" color-interpolation-filters="sRGB"><feGaussianBlur stdDeviation=".13"/></filter></defs><path fill="url(#d)" fill-rule="evenodd" d="M13.51 5.1c.44.77-2.18 2.89-2.29 3.76-.1.88 1.95 3.55 1.36 4.2-.6.64-3.43-1.19-4.3-1.02-.86.17-2.76 2.95-3.56 2.58-.8-.36.07-3.62-.36-4.39C3.93 9.46.69 8.51.8 7.63c.1-.87 3.47-1.05 4.06-1.7.6-.64.51-4.01 1.38-4.18.86-.18 2.07 2.97 2.87 3.34.8.37 3.97-.76 4.4 0z" enable-background="accumulate" overflow="visible" style="marker:none" transform="matrix(2.647 2.2616 -2.267 2.6553 22.22 -16.85)"/><path fill="url(#e)" fill-rule="evenodd" d="M-30.844 9.714c4.98.362 9.761-3.049 10.625-8.13a9.253 9.253 0 0 0-.128-3.705l-1.858-.147a7.524 7.524 0 0 1 .262 3.56c-.753 4.428-5.21 7.344-9.596 6.576a8.72 8.72 0 0 1-2.592-.896.875.875 0 0 0-1.184.36.875.875 0 0 0 .36 1.184c.973.519 2.025.883 3.113 1.074.332.058.666.1.998.124zm.435-3.222c3.359.153 6.563-2.196 7.028-5.673.423-3.16-1.73-6.335-5.016-6.72a5.272 5.272 0 0 0-2.09.183l-1.187 2.758A3.549 3.549 0 0 1-28.6-4.163c2.254.264 3.783 2.518 3.485 4.749-.36 2.69-3.052 4.5-5.713 4.11-2.735-.4-4.675-2.849-4.795-5.526l-1.736.257c.23 3.41 2.72 6.48 6.276 7 .225.033.45.055.674.065zm.137-3.225C-28.413 3.373-26.53 2-26.54-.038a2.845 2.845 0 0 0-.747-1.913c-.478-.524-1.238-.889-2.062-.779a.875.875 0 0 0-.75.981.875.875 0 0 0 .982.753c.218-.029.367.04.537.225.17.186.29.494.291.742.005.916-.947 1.604-1.883 1.55-1.37-.078-2.34-1.459-2.212-2.827l-1.762.26c.008 2.145 1.578 4.182 3.874 4.313zm6.592-8.185-1.752-3.478a8.67 8.67 0 0 0-2.191-.665 8.374 8.374 0 0 0-1.383-.108l-.772 1.798a6.638 6.638 0 0 1 1.871.037c1.708.28 3.168 1.175 4.227 2.416z" color="#000" style="-inkscape-stroke:none" transform="rotate(176.25 -9.294 16.038) scale(1.5403)"/><path fill="none" stroke="url(#f)" stroke-width=".85" d="M13.51 5.1c.44.77-2.18 2.89-2.29 3.76-.1.88 1.95 3.55 1.36 4.2-.6.64-3.43-1.19-4.3-1.02-.86.17-2.76 2.95-3.56 2.58-.8-.36.07-3.62-.36-4.39C3.93 9.46.69 8.51.8 7.63c.1-.87 3.47-1.05 4.06-1.7.6-.64.51-4.01 1.38-4.18.86-.18 2.07 2.97 2.87 3.34.8.37 3.97-.76 4.4 0z" enable-background="accumulate" overflow="visible" style="marker:none" transform="matrix(2.647 2.2616 -2.267 2.6553 22.22 -16.85)"/><path fill="none" stroke="#272727" stroke-linejoin="round" stroke-width="2.23" d="m43.15 26.6-13.29 3.06-4.27 13.9-7.3-12.51-14.12.53 9.24-11.12L8.95 7.43l13.08 5.48 11.25-8.56-1.32 14.56Z" enable-background="accumulate" overflow="visible" style="marker:none"/><path fill="#fffdfc" fill-rule="evenodd" d="M8.5 7.99a.37.37 0 0 1-.38.37.37.37 0 0 1-.37-.37.37.37 0 0 1 .37-.38.37.37 0 0 1 .37.37" filter="url(#g)" transform="rotate(36.96 28.44 21) scale(3.0331)"/></svg>