<svg width="100" height="100" viewBox="0 0 48 48" xmlns="http://www.w3.org/2000/svg"><path fill="#ff3d00" d="M46.1 35.4a5.75 5.75 0 0 1-4.836 4.605c-3.8.576-10.133 1.267-17.272 1.267-7.023 0-13.356-.691-17.271-1.267a5.75 5.75 0 0 1-4.836-4.606C1.425 32.751.964 28.836.964 24c0-4.836.46-8.75.92-11.4a5.75 5.75 0 0 1 4.837-4.605c3.8-.576 10.133-1.267 17.271-1.267 7.14 0 13.357.691 17.272 1.267a5.75 5.75 0 0 1 4.836 4.606c.46 2.648 1.036 6.563 1.036 11.399-.115 4.836-.575 8.75-1.036 11.4z" style="stroke-width:1.15143"/><path fill="#fff" d="M19.387 32.06V15.94L33.204 24Z" style="stroke-width:1.15143"/></svg>