<svg xmlns="http://www.w3.org/2000/svg" xmlns:xlink="http://www.w3.org/1999/xlink" viewBox="0 0 158.75 158.751"><defs><linearGradient id="c"><stop offset="0" stop-color="#f4f4f4"/><stop offset=".312" stop-color="#229ad9"/><stop offset=".616" stop-color="#0647aa"/></linearGradient><linearGradient xlink:href="#a" id="e" x1="-30.491" x2="-24.766" y1="-.025" y2="7.276" gradientTransform="matrix(-.4067 .0266 -.0266 -.4067 2.187 38.665)" gradientUnits="userSpaceOnUse"/><linearGradient id="a"><stop offset=".003" stop-color="#002468"/><stop offset="1" stop-color="#1180ff"/></linearGradient><linearGradient xlink:href="#b" id="f" x1="3.443" x2="14.19" y1="8.025" y2="10.383" gradientTransform="matrix(.7004 .5984 -.5998 .7026 12.701 25.568)" gradientUnits="userSpaceOnUse"/><linearGradient id="b"><stop offset="0" stop-color="#333"/><stop offset="1" stop-color="#0d0d0d"/></linearGradient><radialGradient xlink:href="#c" id="d" cx="7.18" cy="8.2" r="6.59" fx="7.18" fy="8.2" gradientTransform="matrix(.297 .929 -.8884 .2866 17.969 26.605)" gradientUnits="userSpaceOnUse"/><filter id="g" width="1.832" height="1.832" x="-.416" y="-.416" color-interpolation-filters="sRGB"><feGaussianBlur stdDeviation=".13"/></filter></defs><g paint-order="stroke fill markers"><path fill="#1a1a1a" d="M103.397 144.217s-1.556 1.6-2.987 2.53a28.964 28.964 0 0 1-3.073 1.632l6.091-.012z" color="#000" enable-background="accumulate" font-family="Gill Sans Ultra Bold" font-size="44.675" font-weight="400" letter-spacing="0" opacity=".8" overflow="visible" style="line-height:1.25;-inkscape-font-specification:&quot;Gill Sans Ultra Bold, Normal&quot;;font-variant-ligatures:normal;font-variant-position:normal;font-variant-caps:normal;font-variant-numeric:normal;font-variant-alternates:normal;font-variant-east-asian:normal;font-feature-settings:normal;font-variation-settings:normal;text-indent:0;text-align:start;text-decoration-line:none;text-decoration-style:solid;text-decoration-color:#000;text-transform:none;text-orientation:mixed;white-space:normal;shape-padding:0;shape-margin:0;inline-size:0;isolation:auto;mix-blend-mode:normal;solid-color:#000;solid-opacity:1" transform="translate(-4.689 -3.855) scale(1.0236)" word-spacing="0"/><path fill="#1a1a1a" d="M90.132 107.044c-12.556.77-23.523 13.297-20.822 26.023 1.356 6.976 6.715 13.64 13.742 15.3l11.854.037c2.61-.975 8.188-4.207 8.485-8.12v-17.149c-5.102-9.26-17.756-8.454-23.53-1.44-5.728 7.905-.774 18.977 6.734 20.203 5.188.847 8.842-.547 11.212-3.636 2.612-3.589 2.85-7.632 1.07-10.866-2.592-6.31-14.43-7.163-15.318 1.85.258 4.547 4.24 8.194 6.493 7.006 3.376-.717 2.717-4.761.581-5.788-2.522-1.214-3.247.258-3.475-1.565-.309-2.469 1.878-3.679 5.918-2.808 5.761 2.946 3.678 10.932-1.36 12.35-3.268 1.122-6.674-.128-8.702-2.554-2.338-2.798-2.22-7.149-1.2-9.888 3.137-6.57 13.494-7.794 17.854-1.466 5.942 7.02.693 18.633-8.132 19.87-9.726 2.132-18.91-7.943-16.74-17.452 1.697-10.59 15.14-15.59 24.29-11.731 1.928.704 3.662 1.829 4.398 2.38 0 0 .008-1.756.006-3.209.006-1.53.012-3.927.012-3.927-.98-.762-1.958-1.338-3.92-2.102a23.296 23.296 0 0 0-6.92-1.305 19.775 19.775 0 0 0-2.53-.013z" color="#000" enable-background="accumulate" font-family="Gill Sans Ultra Bold" font-size="44.675" font-weight="400" letter-spacing="0" overflow="visible" style="line-height:1.25;-inkscape-font-specification:&quot;Gill Sans Ultra Bold, Normal&quot;;font-variant-ligatures:normal;font-variant-position:normal;font-variant-caps:normal;font-variant-numeric:normal;font-variant-alternates:normal;font-variant-east-asian:normal;font-feature-settings:normal;font-variation-settings:normal;text-indent:0;text-align:start;text-decoration-line:none;text-decoration-style:solid;text-decoration-color:#000;text-transform:none;text-orientation:mixed;white-space:normal;shape-padding:0;shape-margin:0;inline-size:0;isolation:auto;mix-blend-mode:normal;solid-color:#000;solid-opacity:1" transform="translate(-4.689 -3.855) scale(1.0236)" word-spacing="0"/><path fill="#1a1a1a" d="M46.015 105.678a44.333 44.333 0 0 0-1.713 3.481l.019 39.263 6.474-.012h8.67c-5.605-7.962-7.14-18.015-5.182-27.359z" color="#000" enable-background="accumulate" font-family="Gill Sans Ultra Bold" font-size="44.675" font-weight="400" letter-spacing="0" opacity=".1" overflow="visible" style="line-height:1.25;-inkscape-font-specification:&quot;Gill Sans Ultra Bold, Normal&quot;;font-variant-ligatures:normal;font-variant-position:normal;font-variant-caps:normal;font-variant-numeric:normal;font-variant-alternates:normal;font-variant-east-asian:normal;font-feature-settings:normal;font-variation-settings:normal;text-indent:0;text-align:start;text-decoration-line:none;text-decoration-style:solid;text-decoration-color:#000;text-transform:none;text-orientation:mixed;white-space:normal;shape-padding:0;shape-margin:0;inline-size:0;isolation:auto;mix-blend-mode:normal;solid-color:#000;solid-opacity:1" transform="translate(-4.689 -3.855) scale(1.0236)" word-spacing="0"/><path fill="#1a1a1a" d="M90.534 93.81c-13.394.601-25.896 9.586-31.174 21.787l-.618 13.753-1.93-3.586c-.017.234-.061.463-.074.698-.567 7.81 1.893 15.765 6.685 21.948h12.028c-10.743-7.412-12.906-23.778-4.817-33.92 7.177-10.078 21.755-13.804 32.794-8.299 1.484-.044 4.198-.06 6.184-.074h10.556c-6.74-7.238-16.262-11.91-26.195-12.276a31.517 31.517 0 0 0-3.439-.03z" color="#000" enable-background="accumulate" font-family="Gill Sans Ultra Bold" font-size="44.675" font-weight="400" letter-spacing="0" overflow="visible" style="line-height:1.25;-inkscape-font-specification:&quot;Gill Sans Ultra Bold, Normal&quot;;font-variant-ligatures:normal;font-variant-position:normal;font-variant-caps:normal;font-variant-numeric:normal;font-variant-alternates:normal;font-variant-east-asian:normal;font-feature-settings:normal;font-variation-settings:normal;text-indent:0;text-align:start;text-decoration-line:none;text-decoration-style:solid;text-decoration-color:#000;text-transform:none;text-orientation:mixed;white-space:normal;shape-padding:0;shape-margin:0;inline-size:0;isolation:auto;mix-blend-mode:normal;solid-color:#000;solid-opacity:1" transform="translate(-4.689 -3.855) scale(1.0236)" word-spacing="0"/><path fill="#1a1a1a" d="M91.66 79.235c-4.97.117-9.948.92-14.737 2.35l17.748 6.66-34.365 6.22-.612 13.587a34.271 34.271 0 0 1 4.273-5.244c12.075-13.132 33.258-16.105 48.52-6.876 4.97 2.765 11.555 10.17 12.573 10.172l15.967.013c-.034-2.73-4.469-7.64-7.322-10.594-10.057-9.988-23.987-15.785-38.125-16.239a53.578 53.578 0 0 0-3.92-.05z" color="#000" enable-background="accumulate" font-family="Gill Sans Ultra Bold" font-size="44.675" font-weight="400" letter-spacing="0" opacity=".1" overflow="visible" style="line-height:1.25;-inkscape-font-specification:&quot;Gill Sans Ultra Bold, Normal&quot;;font-variant-ligatures:normal;font-variant-position:normal;font-variant-caps:normal;font-variant-numeric:normal;font-variant-alternates:normal;font-variant-east-asian:normal;font-feature-settings:normal;font-variation-settings:normal;text-indent:0;text-align:start;text-decoration-line:none;text-decoration-style:solid;text-decoration-color:#000;text-transform:none;text-orientation:mixed;white-space:normal;shape-padding:0;shape-margin:0;inline-size:0;isolation:auto;mix-blend-mode:normal;solid-color:#000;solid-opacity:1" transform="translate(-4.689 -3.855) scale(1.0236)" word-spacing="0"/><path fill="#1a1a1a" d="M93.602 57.225c-10.222.02-20.428 2.1-29.894 5.968L61.97 75.976l7.05 2.646c10.22-4.895 21.847-6.819 33.116-4.842 15.513 2.414 29.682 11.49 38.891 24.13V72.593H105.98a2.588 2.588 45 0 1-2.588-2.588V57.77a82.544 82.544 0 0 0-9.79-.545z" color="#000" enable-background="accumulate" font-family="Gill Sans Ultra Bold" font-size="44.675" font-weight="400" letter-spacing="0" opacity=".4" overflow="visible" style="line-height:1.25;-inkscape-font-specification:&quot;Gill Sans Ultra Bold, Normal&quot;;font-variant-ligatures:normal;font-variant-position:normal;font-variant-caps:normal;font-variant-numeric:normal;font-variant-alternates:normal;font-variant-east-asian:normal;font-feature-settings:normal;font-variation-settings:normal;text-indent:0;text-align:start;text-decoration-line:none;text-decoration-style:solid;text-decoration-color:#000;text-transform:none;text-orientation:mixed;white-space:normal;shape-padding:0;shape-margin:0;inline-size:0;isolation:auto;mix-blend-mode:normal;solid-color:#000;solid-opacity:1" transform="translate(-4.689 -3.855) scale(1.0236)" word-spacing="0"/><path fill="#1a1a1a" d="M94.795 29.465c-17.513-.02-35.036 4.257-50.493 12.51v26.413l.08.043c.626-.516 1.27-1.001 1.911-1.497L66.676 41.37l-2.04 15.028c12.227-4.961 25.692-6.88 38.804-5.195l.002-.36a2.525 2.525 135.194 0 1 2.525-2.509l48.195.012c-.04-.98-7.224-5.988-11.719-8.083-14.806-7.12-31.22-10.83-47.648-10.797Z" color="#000" enable-background="accumulate" font-family="Gill Sans Ultra Bold" font-size="44.675" font-weight="400" letter-spacing="0" opacity=".65" overflow="visible" style="line-height:1.25;-inkscape-font-specification:&quot;Gill Sans Ultra Bold, Normal&quot;;font-variant-ligatures:normal;font-variant-position:normal;font-variant-caps:normal;font-variant-numeric:normal;font-variant-alternates:normal;font-variant-east-asian:normal;font-feature-settings:normal;font-variation-settings:normal;text-indent:0;text-align:start;text-decoration-line:none;text-decoration-style:solid;text-decoration-color:#000;text-transform:none;text-orientation:mixed;white-space:normal;shape-padding:0;shape-margin:0;inline-size:0;isolation:auto;mix-blend-mode:normal;solid-color:#000;solid-opacity:1" transform="translate(-4.689 -3.855) scale(1.0236)" word-spacing="0"/><path fill="#1a1a1a" d="M44.302 14.821V35.47c28.823-16.14 65.23-17.281 95.148-3.37a113.08 113.08 0 0 1 14.712 8.094V14.821Z" color="#000" enable-background="accumulate" font-family="Gill Sans Ultra Bold" font-size="44.675" font-weight="400" letter-spacing="0" opacity=".9" overflow="visible" style="line-height:1.25;-inkscape-font-specification:&quot;Gill Sans Ultra Bold, Normal&quot;;font-variant-ligatures:normal;font-variant-position:normal;font-variant-caps:normal;font-variant-numeric:normal;font-variant-alternates:normal;font-variant-east-asian:normal;font-feature-settings:normal;font-variation-settings:normal;text-indent:0;text-align:start;text-decoration-line:none;text-decoration-style:solid;text-decoration-color:#000;text-transform:none;text-orientation:mixed;white-space:normal;shape-padding:0;shape-margin:0;inline-size:0;isolation:auto;mix-blend-mode:normal;solid-color:#000;solid-opacity:1" transform="translate(-4.689 -3.855) scale(1.0236)" word-spacing="0"/><path fill="#73bde3" fill-rule="evenodd" d="M88.817 132.166a1.053 1.053 0 0 1-1.053 1.054 1.053 1.053 0 0 1-1.054-1.052 1.053 1.053 0 0 1 1.052-1.055 1.053 1.053 0 0 1 1.055 1.05"/></g><path fill="none" stroke="#fff" stroke-linecap="round" stroke-linejoin="round" stroke-width="5.552" d="M37.966 100.303c-.004 22.499-.008 24.955.018 47.454-.104 1.453 1.06 2.698 2.451 2.94 1.388.276 2.81-.007 4.216.085 18.956-.03 37.915.005 56.87-.099 1.908-.354 2.659-2.57 2.372-4.288V107.55c12.057-.038 24.116 0 36.17-.122 1.878-.394 2.597-2.581 2.32-4.285-.016-11.02.049-22.045-.053-33.064-.383-1.886-2.577-2.614-4.285-2.333h-34.18l.05-19.417c16.526-.008 33.055.058 49.58-.038 1.886-.383 2.613-2.578 2.333-4.285-.024-11.044.062-22.091-.062-33.132-.35-1.62-2.121-2.384-3.64-2.31h0c-11.751.093-23.507.02-35.26.042-25.476.004-50.953-.012-76.427.026-1.856.303-2.834 2.408-2.487 4.131.024 22.5.02 27.665.015 50.164" paint-order="markers stroke fill"/><path fill="url(#d)" fill-rule="evenodd" d="M19.104 37.235c-.154.804-3.26.726-3.859 1.271-.598.559-.764 3.661-1.567 3.765-.804.09-1.688-2.889-2.4-3.29-.704-.395-3.702.421-4.04-.317-.345-.732 2.22-2.502 2.38-3.3.162-.798-1.538-3.405-.933-3.957.592-.551 3.06 1.339 3.863 1.235.804-.09 2.763-2.512 3.474-2.11.71.387-.332 3.325.007 4.063.338.739 3.236 1.842 3.082 2.633z" enable-background="accumulate" overflow="visible" style="marker:none" transform="rotate(-5.08 -2556.4 895.814) scale(8.7669)"/><path fill="url(#e)" fill-rule="evenodd" d="M14.472 33.893c-2.035-.015-3.889 1.5-4.105 3.589a3.763 3.763 0 0 0 .151 1.503l.76.01a3.066 3.066 0 0 1-.202-1.44c.189-1.821 1.924-3.126 3.728-2.93.371.04.737.14 1.078.295a.357.357 0 0 0 .472-.178.357.357 0 0 0-.178-.472 4.26 4.26 0 0 0-1.704-.377zm-.09 1.321c-1.371.028-2.611 1.068-2.708 2.495-.088 1.296.873 2.53 2.219 2.599.291.015.578-.033.845-.13l.409-1.153a1.446 1.446 0 0 1-1.218.57c-.924-.047-1.606-.922-1.544-1.838.075-1.104 1.122-1.91 2.214-1.823 1.123.09 1.977 1.034 2.097 2.12l.7-.151c-.185-1.38-1.28-2.563-2.74-2.68a2.792 2.792 0 0 0-.275-.008zm.03 1.316c-.76.006-1.489.614-1.43 1.443.02.29.146.558.354.758.209.2.528.329.86.262a.357.357 0 0 0 .279-.419.357.357 0 0 0-.42-.28c-.088.018-.15-.006-.224-.077a.495.495 0 0 1-.139-.294c-.026-.372.343-.678.725-.68.56-.006.99.53.975 1.09l.71-.152c-.06-.873-.754-1.66-1.69-1.651zm-2.464 3.504.805 1.368a3.533 3.533 0 0 0 1.475.219l.266-.752a2.73 2.73 0 0 1-.762.035 2.873 2.873 0 0 1-1.784-.87z" color="#000" style="-inkscape-stroke:none" transform="rotate(-5.08 -2556.4 895.814) scale(8.7669)"/><path fill="none" stroke="url(#f)" stroke-width=".784" d="M19.104 37.235c-.154.804-3.26.726-3.859 1.271-.598.559-.764 3.661-1.567 3.765-.804.09-1.688-2.889-2.4-3.29-.704-.395-3.702.421-4.04-.317-.345-.732 2.22-2.502 2.38-3.3.162-.798-1.538-3.405-.933-3.957.592-.551 3.06 1.339 3.863 1.235.804-.09 2.763-2.512 3.474-2.11.71.387-.332 3.325.007 4.063.338.739 3.236 1.842 3.082 2.633z" enable-background="accumulate" overflow="visible" style="marker:none" transform="rotate(-5.08 -2556.4 895.814) scale(8.7669)"/><path fill="none" stroke="#fff" stroke-linejoin="round" stroke-width=".59" d="m18.24 37.064-3.517.81-1.13 3.677-1.931-3.31-3.736.14 2.444-2.941-1.18-3.448 3.461 1.45 2.977-2.265-.35 3.852z" enable-background="accumulate" overflow="visible" style="marker:none" transform="rotate(-5.08 -2556.4 895.814) scale(8.7669)"/><path fill="#fffdfc" fill-rule="evenodd" d="M8.5 7.99a.37.37 0 0 1-.38.37.37.37 0 0 1-.37-.37.37.37 0 0 1 .37-.38.37.37 0 0 1 .37.37" filter="url(#g)" transform="rotate(31.88 15.815 58.379) scale(7.0355)"/></svg>