<svg xmlns="http://www.w3.org/2000/svg" width="48" height="48" viewBox="0 0 12.7 12.7"><path fill="#002cd8" d="M29.81 46.5s-.56.57-1.08.9c-.56.35-1.1.6-1.1.6l2.19-.01-.01-1.5z" style="line-height:1.25;-inkscape-font-specification:&quot;Gill Sans Ultra Bold, Normal&quot;;font-variant-ligatures:normal;font-variant-position:normal;font-variant-caps:normal;font-variant-numeric:normal;font-variant-alternates:normal;font-variant-east-asian:normal;font-feature-settings:normal;font-variation-settings:normal;text-indent:0;text-align:start;text-decoration-line:none;text-decoration-style:solid;text-decoration-color:#000;text-transform:none;text-orientation:mixed;white-space:normal;shape-padding:0;shape-margin:0;inline-size:0;isolation:auto;mix-blend-mode:normal;solid-color:#000;solid-opacity:1" transform="scale(.2646)"/><path fill="#0029d8" d="M14.92 34.49a11.63 11.63 0 0 0-1.87 5.65c-.2 2.8.68 5.65 2.4 7.87h4.32c-3.25-2.24-4.3-6.75-2.82-10.3z" style="line-height:1.25;-inkscape-font-specification:&quot;Gill Sans Ultra Bold, Normal&quot;;font-variant-ligatures:normal;font-variant-position:normal;font-variant-caps:normal;font-variant-numeric:normal;font-variant-alternates:normal;font-variant-east-asian:normal;font-feature-settings:normal;font-variation-settings:normal;text-indent:0;text-align:start;text-decoration-line:none;text-decoration-style:solid;text-decoration-color:#000;text-transform:none;text-orientation:mixed;white-space:normal;shape-padding:0;shape-margin:0;inline-size:0;isolation:auto;mix-blend-mode:normal;solid-color:#000;solid-opacity:1" transform="scale(.2646)"/><path fill="#8800d8" d="M25.03 33.17c-4.5.27-8.44 4.77-7.47 9.34.49 2.5 2.41 4.9 4.93 5.49l4.26.01c.94-.35 2.94-1.5 3.04-2.91v-6.16c-1.83-3.32-6.37-3.03-8.44-.52-2.06 2.84-.28 6.81 2.42 7.25 1.86.3 3.17-.19 4.02-1.3a3.57 3.57 0 0 0 .38-3.9c-.93-2.26-5.17-2.57-5.5.66.1 1.64 1.53 2.94 2.34 2.52 1.2-.26.97-1.7.2-2.08-.9-.43-1.16.1-1.24-.56-.11-.88.67-1.32 2.12-1 2.07 1.05 1.32 3.91-.48 4.42-1.18.4-2.4-.04-3.13-.91-.84-1-.8-2.57-.43-3.55 1.13-2.36 4.84-2.8 6.4-.53 2.14 2.52.26 6.69-2.91 7.13-3.5.77-6.79-2.85-6-6.26.6-3.8 5.43-5.6 8.71-4.2.7.24 1.31.65 1.58.85V34.4c-.35-.28-.7-.49-1.4-.76a8.37 8.37 0 0 0-3.4-.47z" style="line-height:1.25;-inkscape-font-specification:&quot;Gill Sans Ultra Bold, Normal&quot;;font-variant-ligatures:normal;font-variant-position:normal;font-variant-caps:normal;font-variant-numeric:normal;font-variant-alternates:normal;font-variant-east-asian:normal;font-feature-settings:normal;font-variation-settings:normal;text-indent:0;text-align:start;text-decoration-line:none;text-decoration-style:solid;text-decoration-color:#000;text-transform:none;text-orientation:mixed;white-space:normal;shape-padding:0;shape-margin:0;inline-size:0;isolation:auto;mix-blend-mode:normal;solid-color:#000;solid-opacity:1" transform="scale(.2646)"/><path d="m9 30.48-.41.14v.53z" style="line-height:1.25;-inkscape-font-specification:&quot;Gill Sans Ultra Bold, Normal&quot;;font-variant-ligatures:normal;font-variant-position:normal;font-variant-caps:normal;font-variant-numeric:normal;font-variant-alternates:normal;font-variant-east-asian:normal;font-feature-settings:normal;font-variation-settings:normal;text-indent:0;text-align:start;text-decoration-line:none;text-decoration-style:solid;text-decoration-color:#000;text-transform:none;text-orientation:mixed;white-space:normal;shape-padding:0;shape-margin:0;inline-size:0;isolation:auto;mix-blend-mode:normal;solid-color:#000;solid-opacity:1" transform="scale(.2646)"/><path fill="#0ba200" d="m11.8 29.5-.47.17a16.36 16.36 0 0 0-2.74 4.26v14.09h5.43c-3.04-4.33-2.75-10.38.2-14.65z" style="line-height:1.25;-inkscape-font-specification:&quot;Gill Sans Ultra Bold, Normal&quot;;font-variant-ligatures:normal;font-variant-position:normal;font-variant-caps:normal;font-variant-numeric:normal;font-variant-alternates:normal;font-variant-east-asian:normal;font-feature-settings:normal;font-variation-settings:normal;text-indent:0;text-align:start;text-decoration-line:none;text-decoration-style:solid;text-decoration-color:#000;text-transform:none;text-orientation:mixed;white-space:normal;shape-padding:0;shape-margin:0;inline-size:0;isolation:auto;mix-blend-mode:normal;solid-color:#000;solid-opacity:1" transform="scale(.2646)"/><path fill="#0029d8" d="M25.19 28.42a12.9 12.9 0 0 0-7.94 3.35l.11 5.11a9.6 9.6 0 0 1 12.46-4.02l2.22-.02h3.78a13.72 13.72 0 0 0-10.63-4.42Z" style="line-height:1.25;-inkscape-font-specification:&quot;Gill Sans Ultra Bold, Normal&quot;;font-variant-ligatures:normal;font-variant-position:normal;font-variant-caps:normal;font-variant-numeric:normal;font-variant-alternates:normal;font-variant-east-asian:normal;font-feature-settings:normal;font-variation-settings:normal;text-indent:0;text-align:start;text-decoration-line:none;text-decoration-style:solid;text-decoration-color:#000;text-transform:none;text-orientation:mixed;white-space:normal;shape-padding:0;shape-margin:0;inline-size:0;isolation:auto;mix-blend-mode:normal;solid-color:#000;solid-opacity:1" transform="scale(.2646)"/><path d="M8.59 24.87v.07l.04-.04-.03-.03Z" style="line-height:1.25;-inkscape-font-specification:&quot;Gill Sans Ultra Bold, Normal&quot;;font-variant-ligatures:normal;font-variant-position:normal;font-variant-caps:normal;font-variant-numeric:normal;font-variant-alternates:normal;font-variant-east-asian:normal;font-feature-settings:normal;font-variation-settings:normal;text-indent:0;text-align:start;text-decoration-line:none;text-decoration-style:solid;text-decoration-color:#000;text-transform:none;text-orientation:mixed;white-space:normal;shape-padding:0;shape-margin:0;inline-size:0;isolation:auto;mix-blend-mode:normal;solid-color:#000;solid-opacity:1" transform="scale(.2646)"/><path fill="#0ba200" d="M25.59 23.19c-1.28.03-2.56.19-3.82.46l5.6 1.69-10.2 2.56.04 2.32a14.3 14.3 0 0 1 15.86-1.04c1.78 1 4.14 3.65 4.51 3.65h5.73c-.01-.97-1.6-2.74-2.63-3.8A20.51 20.51 0 0 0 25.6 23.2Z" style="line-height:1.25;-inkscape-font-specification:&quot;Gill Sans Ultra Bold, Normal&quot;;font-variant-ligatures:normal;font-variant-position:normal;font-variant-caps:normal;font-variant-numeric:normal;font-variant-alternates:normal;font-variant-east-asian:normal;font-feature-settings:normal;font-variation-settings:normal;text-indent:0;text-align:start;text-decoration-line:none;text-decoration-style:solid;text-decoration-color:#000;text-transform:none;text-orientation:mixed;white-space:normal;shape-padding:0;shape-margin:0;inline-size:0;isolation:auto;mix-blend-mode:normal;solid-color:#000;solid-opacity:1" transform="scale(.2646)"/><path fill="#ffec00" d="M13.47 18.37c-.94.47-1.84 1-2.71 1.58l1.26.5zM26.29 15.29c-2.91 0-5.83.47-8.6 1.35l-.4 5.67 1 .3a19.62 19.62 0 0 1 11.06-1.38 21.67 21.67 0 0 1 13.96 8.66V20.8h-13.5v-5.32a29.6 29.6 0 0 0-3.52-.2z" style="line-height:1.25;-inkscape-font-specification:&quot;Gill Sans Ultra Bold, Normal&quot;;font-variant-ligatures:normal;font-variant-position:normal;font-variant-caps:normal;font-variant-numeric:normal;font-variant-alternates:normal;font-variant-east-asian:normal;font-feature-settings:normal;font-variation-settings:normal;text-indent:0;text-align:start;text-decoration-line:none;text-decoration-style:solid;text-decoration-color:#000;text-transform:none;text-orientation:mixed;white-space:normal;shape-padding:0;shape-margin:0;inline-size:0;isolation:auto;mix-blend-mode:normal;solid-color:#000;solid-opacity:1" transform="scale(.2646)"/><path fill="#ff8b00" d="M26.72 5.33A38.54 38.54 0 0 0 8.6 9.82v9.26l.21.09c2.1-1.7 4.46-3.1 6.96-4.13l2.24-3.23-.17 2.48a27.61 27.61 0 0 1 11.98-1.16V12.1h18.2c-.01-.35-2.59-2.15-4.2-2.9a39.42 39.42 0 0 0-17.1-3.87Z" style="line-height:1.25;-inkscape-font-specification:&quot;Gill Sans Ultra Bold, Normal&quot;;font-variant-ligatures:normal;font-variant-position:normal;font-variant-caps:normal;font-variant-numeric:normal;font-variant-alternates:normal;font-variant-east-asian:normal;font-feature-settings:normal;font-variation-settings:normal;text-indent:0;text-align:start;text-decoration-line:none;text-decoration-style:solid;text-decoration-color:#000;text-transform:none;text-orientation:mixed;white-space:normal;shape-padding:0;shape-margin:0;inline-size:0;isolation:auto;mix-blend-mode:normal;solid-color:#000;solid-opacity:1" transform="scale(.2646)"/><path fill="#e80000" d="M8.6.07v7.41a38.08 38.08 0 0 1 34.14-1.2c1.83.83 3.6 1.8 5.28 2.9V.08H8.6Z" style="line-height:1.25;-inkscape-font-specification:&quot;Gill Sans Ultra Bold, Normal&quot;;font-variant-ligatures:normal;font-variant-position:normal;font-variant-caps:normal;font-variant-numeric:normal;font-variant-alternates:normal;font-variant-east-asian:normal;font-feature-settings:normal;font-variation-settings:normal;text-indent:0;text-align:start;text-decoration-line:none;text-decoration-style:solid;text-decoration-color:#000;text-transform:none;text-orientation:mixed;white-space:normal;shape-padding:0;shape-margin:0;inline-size:0;isolation:auto;mix-blend-mode:normal;solid-color:#000;solid-opacity:1" transform="scale(.2646)"/><path fill="#fff" fill-rule="evenodd" d="M4.96 2.57 3.12 5.22l-3-1.2 1.96 2.56L.01 9.06 3.06 8l1.71 2.73L4.7 7.5l3.13-.78-.54-.17-2.55-.76ZM1.08 4.73c-.72-3.15-.36-1.58 0 0z" color="#000" font-family="sans-serif" font-weight="400" overflow="visible" style="line-height:normal;font-variant-ligatures:normal;font-variant-position:normal;font-variant-caps:normal;font-variant-numeric:normal;font-variant-alternates:normal;font-variant-east-asian:normal;font-feature-settings:normal;font-variation-settings:normal;text-indent:0;text-align:start;text-decoration-line:none;text-decoration-style:solid;text-decoration-color:#000;text-transform:none;text-orientation:mixed;white-space:normal;shape-padding:0;shape-margin:0;inline-size:0;isolation:auto;mix-blend-mode:normal;solid-color:#000;solid-opacity:1"/></svg>