<svg xmlns="http://www.w3.org/2000/svg" xmlns:xlink="http://www.w3.org/1999/xlink" viewBox="0 0 48 48"><defs><linearGradient id="b"><stop offset="0" stop-color="#fff"/><stop offset=".193" stop-color="#b5b5b5"/><stop offset=".464" stop-color="#fff"/></linearGradient><linearGradient id="a"><stop offset="0" stop-color="#1a1a1a"/><stop offset="1"/></linearGradient><linearGradient id="c"><stop offset="0" stop-color="#ffae05" stop-opacity="0"/><stop offset=".416" stop-color="#7b7b7b" stop-opacity="0"/><stop offset="1" stop-color="#cecece"/></linearGradient><linearGradient xlink:href="#a" id="e" x1="5.83" x2="12.91" y1="6.7" y2="13.2" gradientUnits="userSpaceOnUse"/><linearGradient xlink:href="#b" id="h" x1="5.83" x2="12.91" y1="6.7" y2="13.2" gradientTransform="matrix(.3989 1.515 -1.5191 .4005 32.948 7.772)" gradientUnits="userSpaceOnUse"/><radialGradient xlink:href="#c" id="d" cx="7.18" cy="8.2" r="6.59" fx="7.18" fy="8.2" gradientTransform="matrix(.9 .5558 -.5314 .8606 5.08 -2.85)" gradientUnits="userSpaceOnUse"/><radialGradient xlink:href="#c" id="g" cx="7.18" cy="8.2" r="6.59" fx="7.18" fy="8.2" gradientTransform="matrix(-.4853 1.5861 -1.5193 -.4603 39.304 14.326)" gradientUnits="userSpaceOnUse"/><filter id="f" width="1.832" height="1.832" x="-.416" y="-.416" color-interpolation-filters="sRGB"><feGaussianBlur stdDeviation=".13"/></filter></defs><path fill="url(#d)" fill-rule="evenodd" stroke="url(#e)" stroke-width=".85" d="M13.51 5.1c.44.77-2.18 2.89-2.29 3.76-.1.88 1.95 3.55 1.36 4.2-.6.64-3.43-1.19-4.3-1.02-.86.17-2.76 2.95-3.56 2.58-.8-.36.07-3.62-.36-4.39C3.93 9.46.69 8.51.8 7.63c.1-.87 3.47-1.05 4.06-1.7.6-.64.51-4.01 1.38-4.18.86-.18 2.07 2.97 2.87 3.34.8.37 3.97-.76 4.4 0Z" enable-background="accumulate" overflow="visible" style="marker:none" transform="matrix(2.647 2.2616 -2.267 2.6553 22.22 -16.85)"/><path fill="#fffdfc" fill-rule="evenodd" d="M8.5 7.99a.37.37 0 0 1-.38.37.37.37 0 0 1-.37-.37.37.37 0 0 1 .37-.38.37.37 0 0 1 .37.37" filter="url(#f)" transform="rotate(36.96 26.977 20.926) scale(3.0331)"/><path fill="url(#g)" fill-rule="evenodd" stroke="url(#h)" stroke-width="1.333" d="M30.59 30.282c-.995.975-5.26-2.145-6.626-1.963-1.376.2-4.615 4.376-5.837 3.742-1.212-.652.44-5.673-.166-6.923-.601-1.234-5.582-3-5.34-4.36.228-1.356 5.528-1.343 6.526-2.303.998-.96 1.149-6.25 2.53-6.435 1.361-.197 2.979 4.836 4.202 5.47 1.211.653 6.295-.834 6.9.416.616 1.231-3.686 4.326-3.93 5.686-.242 1.36 2.739 5.71 1.756 6.666z" enable-background="accumulate" overflow="visible" style="marker:none"/></svg>