<svg xmlns="http://www.w3.org/2000/svg" width="256" height="256" viewBox="0 0 67.73 67.73"><path d="M12.19.29v67.37h29.79V46.3h19.03V29.4H41.88V17.16h25.66V.22Z" opacity=".03"/><path fill="#1340ff" d="M42.03 65.55s-.8.8-1.52 1.27c-.8.5-1.55.84-1.55.84l3.08-.01-.02-2.11zM21.08 48.66a16.36 16.36 0 0 0-2.63 7.95c-.28 3.94.96 7.94 3.38 11.07h6.07c-4.57-3.15-6.05-9.5-3.96-14.5z" opacity=".3" style="line-height:1.25;-inkscape-font-specification:&quot;Gill Sans Ultra Bold, Normal&quot;;font-variant-ligatures:normal;font-variant-position:normal;font-variant-caps:normal;font-variant-numeric:normal;font-variant-alternates:normal;font-variant-east-asian:normal;font-feature-settings:normal;font-variation-settings:normal;text-indent:0;text-align:start;text-decoration-line:none;text-decoration-style:solid;text-decoration-color:#000;text-transform:none;text-orientation:mixed;white-space:normal;shape-padding:0;shape-margin:0;inline-size:0;isolation:auto;mix-blend-mode:normal;solid-color:#000;solid-opacity:1"/><path fill="#a100ff" d="M35.3 46.8c-6.33.38-11.87 6.71-10.5 13.14.68 3.52 3.38 6.9 6.93 7.72l6 .02c1.31-.5 4.13-2.11 4.27-4.1v-8.66c-2.58-4.67-8.96-4.26-11.87-.73-2.9 4-.4 9.58 3.4 10.2 2.62.42 4.46-.27 5.65-1.83a5.02 5.02 0 0 0 .54-5.49c-1.3-3.18-7.27-3.61-7.74.93.14 2.3 2.15 4.14 3.3 3.55 1.68-.37 1.36-2.4.27-2.93-1.26-.6-1.63.14-1.74-.79-.15-1.24.94-1.85 2.98-1.4 2.91 1.47 1.86 5.5-.67 6.21a4.06 4.06 0 0 1-4.4-1.28c-1.19-1.4-1.13-3.61-.61-4.99 1.59-3.32 6.8-3.94 9-.75 3.01 3.55.37 9.41-4.1 10.03-4.91 1.09-9.54-4-8.43-8.8.84-5.35 7.64-7.88 12.25-5.91.99.34 1.84.91 2.22 1.2v-3.6c-.49-.4-.98-.7-1.97-1.07a11.77 11.77 0 0 0-4.78-.67Z" opacity=".3" style="line-height:1.25;-inkscape-font-specification:&quot;Gill Sans Ultra Bold, Normal&quot;;font-variant-ligatures:normal;font-variant-position:normal;font-variant-caps:normal;font-variant-numeric:normal;font-variant-alternates:normal;font-variant-east-asian:normal;font-feature-settings:normal;font-variation-settings:normal;text-indent:0;text-align:start;text-decoration-line:none;text-decoration-style:solid;text-decoration-color:#000;text-transform:none;text-orientation:mixed;white-space:normal;shape-padding:0;shape-margin:0;inline-size:0;isolation:auto;mix-blend-mode:normal;solid-color:#000;solid-opacity:1"/><path d="m12.75 43.02-.57.2v.74z" style="line-height:1.25;-inkscape-font-specification:&quot;Gill Sans Ultra Bold, Normal&quot;;font-variant-ligatures:normal;font-variant-position:normal;font-variant-caps:normal;font-variant-numeric:normal;font-variant-alternates:normal;font-variant-east-asian:normal;font-feature-settings:normal;font-variation-settings:normal;text-indent:0;text-align:start;text-decoration-line:none;text-decoration-style:solid;text-decoration-color:#000;text-transform:none;text-orientation:mixed;white-space:normal;shape-padding:0;shape-margin:0;inline-size:0;isolation:auto;mix-blend-mode:normal;solid-color:#000;solid-opacity:1"/><path fill="#0ba200" d="m16.7 41.64-.67.24a23.01 23.01 0 0 0-3.85 6v19.81h7.63c-4.27-6.09-3.86-14.6.29-20.6z" opacity=".3" style="line-height:1.25;-inkscape-font-specification:&quot;Gill Sans Ultra Bold, Normal&quot;;font-variant-ligatures:normal;font-variant-position:normal;font-variant-caps:normal;font-variant-numeric:normal;font-variant-alternates:normal;font-variant-east-asian:normal;font-feature-settings:normal;font-variation-settings:normal;text-indent:0;text-align:start;text-decoration-line:none;text-decoration-style:solid;text-decoration-color:#000;text-transform:none;text-orientation:mixed;white-space:normal;shape-padding:0;shape-margin:0;inline-size:0;isolation:auto;mix-blend-mode:normal;solid-color:#000;solid-opacity:1"/><path fill="#1340ff" d="M35.53 40.12a18.15 18.15 0 0 0-11.17 4.71l.15 7.2a13.5 13.5 0 0 1 17.53-5.66l3.12-.03h5.32a19.3 19.3 0 0 0-14.95-6.22z" opacity=".3" style="line-height:1.25;-inkscape-font-specification:&quot;Gill Sans Ultra Bold, Normal&quot;;font-variant-ligatures:normal;font-variant-position:normal;font-variant-caps:normal;font-variant-numeric:normal;font-variant-alternates:normal;font-variant-east-asian:normal;font-feature-settings:normal;font-variation-settings:normal;text-indent:0;text-align:start;text-decoration-line:none;text-decoration-style:solid;text-decoration-color:#000;text-transform:none;text-orientation:mixed;white-space:normal;shape-padding:0;shape-margin:0;inline-size:0;isolation:auto;mix-blend-mode:normal;solid-color:#000;solid-opacity:1"/><path d="M12.18 35.13v.1l.05-.06-.04-.04z" style="line-height:1.25;-inkscape-font-specification:&quot;Gill Sans Ultra Bold, Normal&quot;;font-variant-ligatures:normal;font-variant-position:normal;font-variant-caps:normal;font-variant-numeric:normal;font-variant-alternates:normal;font-variant-east-asian:normal;font-feature-settings:normal;font-variation-settings:normal;text-indent:0;text-align:start;text-decoration-line:none;text-decoration-style:solid;text-decoration-color:#000;text-transform:none;text-orientation:mixed;white-space:normal;shape-padding:0;shape-margin:0;inline-size:0;isolation:auto;mix-blend-mode:normal;solid-color:#000;solid-opacity:1"/><path fill="#0ba200" d="M36.09 32.76c-1.8.05-3.6.27-5.37.65l7.87 2.38-14.34 3.6.05 3.26a20.12 20.12 0 0 1 22.31-1.46c2.5 1.4 5.83 5.13 6.35 5.13h8.06c-.02-1.36-2.25-3.85-3.7-5.34a28.85 28.85 0 0 0-21.22-8.2z" opacity=".3" style="line-height:1.25;-inkscape-font-specification:&quot;Gill Sans Ultra Bold, Normal&quot;;font-variant-ligatures:normal;font-variant-position:normal;font-variant-caps:normal;font-variant-numeric:normal;font-variant-alternates:normal;font-variant-east-asian:normal;font-feature-settings:normal;font-variation-settings:normal;text-indent:0;text-align:start;text-decoration-line:none;text-decoration-style:solid;text-decoration-color:#000;text-transform:none;text-orientation:mixed;white-space:normal;shape-padding:0;shape-margin:0;inline-size:0;isolation:auto;mix-blend-mode:normal;solid-color:#000;solid-opacity:1"/><path d="M19.04 25.98c-1.32.66-2.59 1.41-3.81 2.23l1.77.7z" style="line-height:1.25;-inkscape-font-specification:&quot;Gill Sans Ultra Bold, Normal&quot;;font-variant-ligatures:normal;font-variant-position:normal;font-variant-caps:normal;font-variant-numeric:normal;font-variant-alternates:normal;font-variant-east-asian:normal;font-feature-settings:normal;font-variation-settings:normal;text-indent:0;text-align:start;text-decoration-line:none;text-decoration-style:solid;text-decoration-color:#000;text-transform:none;text-orientation:mixed;white-space:normal;shape-padding:0;shape-margin:0;inline-size:0;isolation:auto;mix-blend-mode:normal;solid-color:#000;solid-opacity:1"/><path fill="#ffec00" d="M37.07 21.65c-4.09 0-8.2.66-12.1 1.9l-.56 7.98 1.41.42A27.6 27.6 0 0 1 41.38 30a30.48 30.48 0 0 1 19.64 12.18V29.4h-19v-7.48a41.64 41.64 0 0 0-4.95-.28z" opacity=".3" style="line-height:1.25;-inkscape-font-specification:&quot;Gill Sans Ultra Bold, Normal&quot;;font-variant-ligatures:normal;font-variant-position:normal;font-variant-caps:normal;font-variant-numeric:normal;font-variant-alternates:normal;font-variant-east-asian:normal;font-feature-settings:normal;font-variation-settings:normal;text-indent:0;text-align:start;text-decoration-line:none;text-decoration-style:solid;text-decoration-color:#000;text-transform:none;text-orientation:mixed;white-space:normal;shape-padding:0;shape-margin:0;inline-size:0;isolation:auto;mix-blend-mode:normal;solid-color:#000;solid-opacity:1"/><path fill="#ff8b00" d="M37.68 7.64a54.21 54.21 0 0 0-25.49 6.32v13.02l.3.13a39.56 39.56 0 0 1 9.79-5.81l3.15-4.54-.24 3.48a38.84 38.84 0 0 1 16.85-1.63v-1.45h25.6c-.01-.49-3.64-3.02-5.9-4.08a55.45 55.45 0 0 0-24.06-5.44Z" opacity=".3" style="line-height:1.25;-inkscape-font-specification:&quot;Gill Sans Ultra Bold, Normal&quot;;font-variant-ligatures:normal;font-variant-position:normal;font-variant-caps:normal;font-variant-numeric:normal;font-variant-alternates:normal;font-variant-east-asian:normal;font-feature-settings:normal;font-variation-settings:normal;text-indent:0;text-align:start;text-decoration-line:none;text-decoration-style:solid;text-decoration-color:#000;text-transform:none;text-orientation:mixed;white-space:normal;shape-padding:0;shape-margin:0;inline-size:0;isolation:auto;mix-blend-mode:normal;solid-color:#000;solid-opacity:1"/><path fill="#e80000" d="M12.19.24v10.42a53.57 53.57 0 0 1 48.02-1.68 55.17 55.17 0 0 1 7.43 4.08V.26H12.2Z" opacity=".3" style="line-height:1.25;-inkscape-font-specification:&quot;Gill Sans Ultra Bold, Normal&quot;;font-variant-ligatures:normal;font-variant-position:normal;font-variant-caps:normal;font-variant-numeric:normal;font-variant-alternates:normal;font-variant-east-asian:normal;font-feature-settings:normal;font-variation-settings:normal;text-indent:0;text-align:start;text-decoration-line:none;text-decoration-style:solid;text-decoration-color:#000;text-transform:none;text-orientation:mixed;white-space:normal;shape-padding:0;shape-margin:0;inline-size:0;isolation:auto;mix-blend-mode:normal;solid-color:#000;solid-opacity:1"/><path fill="#fff" stroke="#fff" stroke-linejoin="round" stroke-width="5.66" d="m25.4 16.96-8.32 11.72-14.04-5.6 9.4 12.17-9.29 11.04 13.76-4.93 7.53 13.31-.5-15.57 13.13-3.4-12.8-4.13z" paint-order="stroke fill markers"/><path fill="#d9d9d9" d="m25.4 16.96-8.32 11.72-14.04-5.6 9.4 12.17-9.3 11.04 13.77-4.93 7.53 13.31-.5-15.57 13.13-3.4-12.8-4.13Z" opacity=".3" paint-order="stroke fill markers"/></svg>