<svg width="48" height="48" xmlns:xlink="http://www.w3.org/1999/xlink" xmlns="http://www.w3.org/2000/svg"><defs><linearGradient id="k"><stop offset="0" stop-color="#fff"/><stop offset="1" stop-color="#fff" stop-opacity="0"/></linearGradient><linearGradient id="v" x1="2" y1="21.614" x2="4.833" y2="21.614" xlink:href="#f" gradientTransform="rotate(-6.94 -5.214 27.34)scale(1.49491)"/><linearGradient id="f" x1="5.505" y1="11.477" x2="8.546" y2="14.519" gradientUnits="userSpaceOnUse"><stop offset="0" stop-color="#11a119"/><stop offset="1" stop-color="#37ae3d"/></linearGradient><linearGradient id="u" x1="2.265" y1="17.799" x2="5.379" y2="18.933" xlink:href="#f" gradientTransform="rotate(-6.94 -5.214 27.34)scale(1.49491)"/><linearGradient id="t" x1="3.639" y1="14.285" x2="6.883" y2="16.158" xlink:href="#f" gradientTransform="rotate(-6.94 -5.214 27.34)scale(1.49491)"/><linearGradient id="r" x1="8.808" y1="8.486" x2="10.988" y2="13.161" xlink:href="#g" gradientTransform="rotate(-6.94 -5.214 27.34)scale(1.49491)"/><linearGradient id="g" x1="18.466" y1="6.619" x2="15.924" y2="13.603" gradientUnits="userSpaceOnUse"><stop offset="0" stop-color="#cfa40c"/><stop offset="1" stop-color="#edd480"/></linearGradient><linearGradient id="q" x1="13.17" y1="6.51" x2="13.17" y2="12.997" xlink:href="#g" gradientTransform="rotate(-6.94 -5.214 27.34)scale(1.49491)"/><linearGradient id="o" x1="24.588" y1="9.748" x2="18.776" y2="15.56" xlink:href="#h" gradientTransform="rotate(-6.94 -5.214 27.34)scale(1.49491)"/><linearGradient id="h" x1="29.662" y1="18.026" x2="21.419" y2="20.234" gradientUnits="userSpaceOnUse"><stop offset="0" stop-color="red"/><stop offset="1" stop-color="#ff6a6a"/></linearGradient><linearGradient xlink:href="#h" id="n" gradientUnits="userSpaceOnUse" x1="29.662" y1="18.026" x2="21.419" y2="20.234" gradientTransform="rotate(-6.94 -5.214 27.34)scale(1.49491)"/><linearGradient xlink:href="#g" id="p" gradientUnits="userSpaceOnUse" x1="18.466" y1="6.619" x2="15.924" y2="13.603" gradientTransform="rotate(-6.94 -5.214 27.34)scale(1.49491)"/><linearGradient xlink:href="#f" id="s" gradientUnits="userSpaceOnUse" x1="5.505" y1="11.477" x2="8.546" y2="14.519" gradientTransform="rotate(-6.94 -5.214 27.34)scale(1.49491)"/><linearGradient xlink:href="#k" id="w" x1="33.032" y1="30.953" x2="39.578" y2="30.172" gradientUnits="userSpaceOnUse"/><linearGradient xlink:href="#k" id="x" gradientUnits="userSpaceOnUse" x1="33.04" y1="30.991" x2="37.669" y2="26.063" gradientTransform="translate(-4.546 -8.836)"/><linearGradient xlink:href="#k" id="y" gradientUnits="userSpaceOnUse" gradientTransform="translate(-10.877 -12.715)" x1="33.04" y1="30.969" x2="35.272" y2="25.089"/><linearGradient xlink:href="#k" id="z" gradientUnits="userSpaceOnUse" gradientTransform="translate(-15.954 -13.456)" x1="33.151" y1="30.925" x2="33.04" y2="25.741"/><linearGradient xlink:href="#k" id="A" gradientUnits="userSpaceOnUse" gradientTransform="translate(-21.356 -12.147)" x1="33.284" y1="30.947" x2="32.184" y2="26.957"/><linearGradient id="l"><stop offset="0" stop-color="#eeeeec"/><stop offset="1" stop-color="#d2d2cc"/></linearGradient><linearGradient xlink:href="#l" id="B" x1="7.598" y1="7.681" x2="12.404" y2="12.336" gradientUnits="userSpaceOnUse" gradientTransform="matrix(1.12453 -.29235 .29238 1.1244 47.126 26.974)"/><filter id="m" x="-.061" y="-.094" width="1.121" height="1.188" color-interpolation-filters="sRGB"><feGaussianBlur stdDeviation="1.06"/></filter></defs><g style="mix-blend-mode:normal" transform="translate(-.63 7.258)scale(1.019)" opacity=".1" stroke-width=".5" filter="url(#m)"><path d="M40.406 14.688a22 22 0 0 1 1.518 2.137 22.37 22.37 0 0 1 3.27 11.324L33.64 29.556a15.5 15.5 0 0 0-2.234-6.39zM25.61 17.778a15.1 15.1 0 0 1 4.633 3.77l8.37-8.85a23.2 23.2 0 0 0-8.152-5.257ZM20.957 16.32a13.2 13.2 0 0 1 3.7 1.004l4.011-10.46a19 19 0 0 0-7.065-.574ZM20.059 6.53c-1.82.356-3.577.982-5.212 1.858l1.77 8.275a10.8 10.8 0 0 1 3.705-.395zM13.301 9.3a22 22 0 0 0-3.414 2.785l3.38 6.244a11.3 11.3 0 0 1 2.018-1.178zM8.164 13.999a23 23 0 0 0-1.849 2.653l4.223 4.401c.541-.729 1.12-1.418 1.852-2.073zM5.46 18.245a21.3 21.3 0 0 0-1.416 3.83l4.77 1.995q.49-1.157 1.168-2.214zM3.72 23.48a23 23 0 0 0-.423 4.314l4.422.376q.144-1.169.463-2.303zM7.605 29.712a16 16 0 0 0 .213 2.986l-3.917.477a21.4 21.4 0 0 1-.56-3.807Z"/></g><g stroke="#fff" stroke-width=".5"><path d="M40.406 14.688a22 22 0 0 1 1.518 2.137 22.37 22.37 0 0 1 3.27 11.324L33.64 29.556a15.5 15.5 0 0 0-2.234-6.39z" fill="url(#n)" stroke-width=".706" transform="translate(-3.235 .854)scale(1.06209)"/><path d="M25.61 17.778a15.1 15.1 0 0 1 4.633 3.77l8.37-8.85a23.2 23.2 0 0 0-8.152-5.257Z" fill="url(#o)" stroke-width=".706" transform="translate(-3.235 .854)scale(1.06209)"/><path d="M20.957 16.32a13.2 13.2 0 0 1 3.7 1.004l4.011-10.46a19 19 0 0 0-7.065-.574Z" fill="url(#p)" stroke-width=".603" transform="translate(-3.235 .854)scale(1.06209)"/><path d="M20.059 6.53c-1.82.356-3.577.982-5.212 1.858l1.77 8.275a10.8 10.8 0 0 1 3.705-.395z" fill="url(#q)" stroke-width=".603" transform="translate(-3.235 .854)scale(1.06209)"/><path d="M13.301 9.3a22 22 0 0 0-3.414 2.785l3.38 6.244a11.3 11.3 0 0 1 2.018-1.178z" fill="url(#r)" stroke-width=".603" transform="translate(-3.235 .854)scale(1.06209)"/><path d="M8.164 13.999a23 23 0 0 0-1.849 2.653l4.223 4.401c.541-.729 1.12-1.418 1.852-2.073z" fill="url(#s)" stroke-width=".499" transform="translate(-3.235 .854)scale(1.06209)"/><path d="M5.46 18.245a21.3 21.3 0 0 0-1.416 3.83l4.77 1.995q.49-1.157 1.168-2.214z" fill="url(#t)" stroke-width=".499" transform="translate(-3.235 .854)scale(1.06209)"/><path d="M3.72 23.48a23 23 0 0 0-.423 4.314l4.422.376q.144-1.169.463-2.303z" fill="url(#u)" stroke-width=".499" transform="translate(-3.235 .854)scale(1.06209)"/><path d="M7.605 29.712a16 16 0 0 0 .213 2.986l-3.917.477a21.4 21.4 0 0 1-.56-3.807Z" fill="url(#v)" stroke-width=".499" transform="translate(-3.235 .854)scale(1.06209)"/></g><g stroke-linecap="round" stroke-linejoin="bevel" paint-order="stroke fill markers"><path d="m33.516 30.86 10.39-1.313" stroke="url(#w)"/><path d="m28.881 21.869 7.032-7.72" opacity=".85" stroke="url(#x)"/><path d="m22.263 17.923 3.474-9.046" opacity=".7" stroke="url(#y)" stroke-width=".8"/><path d="m17.186 17.183-.216-8.185" opacity=".5" stroke="url(#z)" stroke-width=".8"/><path d="m11.806 18.536-1.63-5.975" opacity=".3" stroke="url(#A)" stroke-width=".8"/></g><circle cx="39.025" cy="40.466" r=".714" fill="#fff" paint-order="fill markers stroke"/><circle cx="33.645" cy="39.079" r=".507" fill="#fff" paint-order="fill markers stroke"/><circle cx="39.035" cy="40.469" r=".714" fill="#fff" paint-order="fill markers stroke"/><ellipse ry="7.464" rx="7.418" cy="40.237" cx="40.284" style="marker:none" color="#000" overflow="visible" stroke="#fff" stroke-width=".608" enable-background="accumulate"/><g color="#000"><path style="marker:none" d="M60.644 33.586a2.176 2.176 0 1 1-4.21 1.095 2.176 2.176 0 0 1 4.21-1.095zM56.64 26.83a1.255 1.255 0 0 0-.9 1.533l.514 1.978c-.045.235-.07.448-.186.536-.092.07-.254.073-.428.07l-1.918-1.125a1.28 1.28 0 0 0-1.75.455 1.28 1.28 0 0 0 .455 1.75l1.87 1.097c.104.168.173.321.156.447s-.117.259-.263.393l-2.054.534a1.255 1.255 0 0 0-.901 1.534c.175.675.86 1.076 1.534.901l1.978-.514c.235.044.448.07.536.185.07.093.072.254.07.429l-1.126 1.917a1.28 1.28 0 0 0 .455 1.75 1.28 1.28 0 0 0 1.75-.455l1.098-1.87c.168-.104.321-.173.447-.156s.259.117.393.263l.535 2.054c.175.675.86 1.076 1.534.9a1.255 1.255 0 0 0 .9-1.533l-.514-1.978c.044-.235.07-.447.186-.536.092-.07.254-.072.428-.07l1.917 1.126a1.28 1.28 0 0 0 1.75-.455 1.28 1.28 0 0 0-.455-1.75l-1.869-1.098c-.104-.167-.174-.32-.157-.446.017-.127.118-.26.264-.394l2.054-.534a1.255 1.255 0 0 0 .9-1.534 1.255 1.255 0 0 0-1.533-.9l-1.978.514c-.235-.044-.448-.07-.536-.186-.07-.092-.073-.254-.07-.428l1.125-1.917a1.28 1.28 0 0 0-.455-1.75 1.28 1.28 0 0 0-1.75.455l-1.098 1.87c-.167.103-.32.173-.446.156-.127-.017-.26-.118-.394-.263l-.534-2.055a1.255 1.255 0 0 0-1.534-.9z" overflow="visible" fill="none" stroke="#000" stroke-width=".859" enable-background="accumulate" transform="matrix(.70607 0 0 .71045 -.905 16.218)"/><path d="M60.479 33.088a2.176 2.176 0 1 1-4.211 1.095 2.176 2.176 0 0 1 4.21-1.095zm-4.005-6.756a1.255 1.255 0 0 0-.901 1.534l.514 1.978c-.044.234-.07.447-.185.535-.093.07-.254.073-.429.071l-1.917-1.126a1.28 1.28 0 0 0-1.75.455 1.28 1.28 0 0 0 .455 1.75l1.87 1.098c.103.167.173.32.156.446s-.118.26-.263.394L51.969 34a1.255 1.255 0 0 0-.9 1.533c.175.675.859 1.077 1.533.901l1.979-.514c.234.044.447.07.535.186.07.092.073.253.071.428l-1.126 1.917a1.28 1.28 0 0 0 .455 1.75 1.28 1.28 0 0 0 1.75-.455l1.098-1.87c.167-.103.32-.173.447-.156.126.017.258.118.393.263l.534 2.054c.175.675.86 1.076 1.534.901a1.255 1.255 0 0 0 .9-1.534l-.513-1.978c.044-.234.07-.447.185-.535.093-.07.254-.073.429-.071l1.917 1.126a1.28 1.28 0 0 0 1.75-.455 1.28 1.28 0 0 0-.455-1.75l-1.87-1.098c-.104-.167-.173-.32-.156-.446.017-.127.117-.26.263-.394l2.054-.534a1.255 1.255 0 0 0 .901-1.534 1.255 1.255 0 0 0-1.534-.9l-1.978.514c-.235-.044-.447-.07-.536-.186-.07-.092-.072-.253-.07-.428l1.126-1.917a1.28 1.28 0 0 0-.455-1.75 1.28 1.28 0 0 0-1.75.455l-1.098 1.87c-.168.103-.321.173-.447.156s-.259-.118-.393-.263l-.534-2.054a1.255 1.255 0 0 0-1.534-.901z" style="marker:none" overflow="visible" fill="url(#B)" fill-rule="evenodd" stroke="#888a85" stroke-width=".429" enable-background="accumulate" transform="matrix(.70607 0 0 .71045 -.905 16.218)"/></g></svg>