<svg width="48" height="48" xmlns:xlink="http://www.w3.org/1999/xlink" xmlns="http://www.w3.org/2000/svg"><defs><path fill="#fffdfc" fill-rule="evenodd" d="M8.5 7.99a.37.37 0 0 1-.38.37.37.37 0 0 1-.37-.37.37.37 0 0 1 .37-.38.37.37 0 0 1 .37.37" filter="url(#l)" id="reuse-0"/></defs><defs><linearGradient id="a"><stop offset="0" stop-color="#4c4c4c"/><stop offset="1" stop-color="#0d0d0d"/></linearGradient><linearGradient id="i"><stop offset="0" stop-color="#ffdb08"/><stop offset="1" stop-color="#998300"/></linearGradient><linearGradient id="h"><stop offset="0" stop-color="#08acff"/><stop offset="1" stop-color="#069"/></linearGradient><linearGradient id="g"><stop offset="0" stop-color="#1fff05"/><stop offset="1" stop-color="#109900"/></linearGradient><linearGradient id="f"><stop offset="0" stop-color="#ff1404"/><stop offset="1" stop-color="#861d15"/></linearGradient><linearGradient id="c"><stop offset="0" stop-color="#4d4d4d"/><stop offset="1" stop-color="#2c2c2c"/></linearGradient><linearGradient id="e"><stop offset="0" stop-color="#4c4c4c"/><stop offset="1" stop-color="#0d0d0d"/></linearGradient><linearGradient id="b"><stop offset="0" stop-color="#b5b5b5"/><stop offset="1" stop-color="#fff" stop-opacity="0"/></linearGradient><linearGradient xlink:href="#a" id="k" x1="5.83" x2="12.91" y1="6.7" y2="13.2" gradientUnits="userSpaceOnUse"/><linearGradient xlink:href="#c" id="m" x1="25.47" y1="24.208" x2="45.783" y2="38.346" gradientUnits="userSpaceOnUse"/><linearGradient id="d"><stop offset="0" stop-color="#ff8f05"/><stop offset=".522" stop-color="#fee30b"/><stop offset="1" stop-color="#fff"/></linearGradient><linearGradient xlink:href="#e" id="s" gradientUnits="userSpaceOnUse" x1="5.83" y1="6.7" x2="12.91" y2="13.2"/><linearGradient xlink:href="#f" id="n" x1="28.395" y1="20.758" x2="32.894" y2="25.368" gradientUnits="userSpaceOnUse"/><linearGradient xlink:href="#g" id="o" x1="28.395" y1="27.368" x2="32.894" y2="31.977" gradientUnits="userSpaceOnUse"/><linearGradient xlink:href="#h" id="p" x1="28.395" y1="33.894" x2="32.894" y2="38.503" gradientUnits="userSpaceOnUse"/><linearGradient xlink:href="#i" id="q" x1="28.395" y1="40.503" x2="32.894" y2="45.112" gradientUnits="userSpaceOnUse"/><radialGradient xlink:href="#b" id="j" cx="7.18" cy="8.2" r="6.59" fx="7.18" fy="8.2" gradientTransform="matrix(.9 .5558 -.5314 .8606 5.08 -2.85)" gradientUnits="userSpaceOnUse"/><radialGradient xlink:href="#d" id="r" cx="7.18" cy="8.2" r="6.59" fx="7.18" fy="8.2" gradientTransform="matrix(.9 .5558 -.5314 .8606 5.08 -2.85)" gradientUnits="userSpaceOnUse"/><filter id="l" width="1.832" height="1.832" x="-.416" y="-.416" color-interpolation-filters="sRGB"><feGaussianBlur stdDeviation=".13"/></filter><filter id="t" width="1.832" height="1.832" x="-.416" y="-.416" color-interpolation-filters="sRGB"><feGaussianBlur stdDeviation=".13"/></filter></defs><path fill="url(#j)" fill-rule="evenodd" stroke="url(#k)" stroke-width=".85" d="M13.51 5.1c.44.77-2.18 2.89-2.29 3.76-.1.88 1.95 3.55 1.36 4.2-.6.64-3.43-1.19-4.3-1.02-.86.17-2.76 2.95-3.56 2.58-.8-.36.07-3.62-.36-4.39C3.93 9.46.69 8.51.8 7.63c.1-.87 3.47-1.05 4.06-1.7.6-.64.51-4.01 1.38-4.18.86-.18 2.07 2.97 2.87 3.34.8.37 3.97-.76 4.4 0Z" enable-background="accumulate" overflow="visible" style="marker:none" transform="matrix(2.647 2.2616 -2.267 2.6553 22.22 -16.85)"/><use fill-rule="evenodd" filter="url(#l)" transform="rotate(36.96 28.44 21) scale(3.0331)" xlink:href="#reuse-0"/><g paint-order="markers stroke fill"><path d="M28.278 19.196h13.796a2.708 2.708 45 0 1 2.709 2.708v21.824a2.551 2.551 135 0 1-2.552 2.551h-13.6a2.72 2.72 45 0 1-2.719-2.719V21.562a2.365 2.365 135 0 1 2.366-2.366z" fill="#fff" stroke="url(#m)" stroke-width="2" stroke-linecap="round"/><path d="M29.685 21.758h1.901a.307.307 45 0 1 .308.308v1.985a.316.316 135 0 1-.317.317h-1.814a.368.368 45 0 1-.368-.368v-1.952a.29.29 135 0 1 .29-.29z" transform="translate(0 -.413)" fill="#ff1404" stroke="url(#n)" stroke-width="2" stroke-linecap="round" stroke-linejoin="round"/><path d="M29.698 28.368h1.862a.334.334 45 0 1 .334.334v1.958a.316.316 135 0 1-.317.317h-1.834a.347.347 45 0 1-.348-.348v-1.958a.303.303 135 0 1 .303-.303z" transform="translate(0 -.752)" fill="#1fff05" stroke="url(#o)" stroke-width="2" stroke-linecap="round" stroke-linejoin="round"/><path d="M29.725 34.894h1.855a.314.314 45 0 1 .314.314v1.972a.323.323 135 0 1-.323.323h-1.828a.347.347 45 0 1-.348-.348v-1.932a.33.33 135 0 1 .33-.33z" transform="translate(0 -.752)" fill="#08acff" stroke="url(#p)" stroke-width="2" stroke-linecap="round" stroke-linejoin="round"/><path d="M35.022 22.486h7.713v.601h-7.713zM35.022 28.642h7.713v.601h-7.713zM35.022 35.127h7.713v.601h-7.713zM35.022 42.415h7.713v.601h-7.713z"/></g><path fill="url(#r)" fill-rule="evenodd" stroke="url(#s)" stroke-width=".85" d="M13.51 5.1c.44.77-2.18 2.89-2.29 3.76-.1.88 1.95 3.55 1.36 4.2-.6.64-3.43-1.19-4.3-1.02-.86.17-2.76 2.95-3.56 2.58-.8-.36.07-3.62-.36-4.39C3.93 9.46.69 8.51.8 7.63c.1-.87 3.47-1.05 4.06-1.7.6-.64.51-4.01 1.38-4.18.86-.18 2.07 2.97 2.87 3.34.8.37 3.97-.76 4.4 0z" enable-background="accumulate" overflow="visible" style="marker:none" transform="matrix(.3741 .31964 -.3204 .37528 30.478 36.793)"/><path fill="none" stroke="#fff" stroke-linejoin="round" stroke-width="2.23" d="m43.15 26.6-13.29 3.06-4.27 13.9-7.3-12.51-14.12.53 9.24-11.12L8.95 7.43l13.08 5.48 11.25-8.56-1.32 14.56Z" enable-background="accumulate" overflow="visible" style="marker:none" transform="translate(27.337 39.175) scale(.14133)"/><use fill-rule="evenodd" filter="url(#t)" transform="matrix(.34253 .25774 -.25774 .34253 29.93 37.354)" xlink:href="#reuse-0"/></svg>