<svg xmlns="http://www.w3.org/2000/svg" xmlns:xlink="http://www.w3.org/1999/xlink" width="48" height="48" viewBox="0 0 12.7 12.7"><defs/><defs><linearGradient id="f"><stop offset="0" stop-color="#fff"/><stop offset="1" stop-color="#454545"/></linearGradient><linearGradient id="e"><stop offset="0" stop-color="#f07cff"/><stop offset="1" stop-color="#b415ca"/></linearGradient><linearGradient id="d"><stop offset="0" stop-color="#f1bb3c"/><stop offset="1" stop-color="#e88b00"/></linearGradient><linearGradient id="c"><stop offset="0" stop-color="#4cee52"/><stop offset="1" stop-color="#147b18"/></linearGradient><linearGradient id="b"><stop offset="0" stop-color="#2670ff"/><stop offset="1" stop-color="#173d87"/></linearGradient><linearGradient id="a"><stop offset="0" stop-color="#f60d0d"/><stop offset="1" stop-color="#920a0a"/></linearGradient><linearGradient id="h" x1="7.804" x2="9.361" y1="5.277" y2="4.475" gradientUnits="userSpaceOnUse" xlink:href="#a"/><linearGradient id="i" x1="7.765" x2="9.637" y1="7.161" y2="8.564" gradientUnits="userSpaceOnUse" xlink:href="#b"/><linearGradient id="k" x1="5.354" x2="2.334" y1="6.1" y2="5.799" gradientUnits="userSpaceOnUse" xlink:href="#d"/><linearGradient id="l" x1="6.588" x2="5.215" y1="4.543" y2="2.639" gradientUnits="userSpaceOnUse" xlink:href="#e"/><linearGradient id="g" x1="9.255" x2="7.232" y1="3.299" y2="5.304" gradientUnits="userSpaceOnUse" xlink:href="#f"/><linearGradient id="j" x1="5.847" x2="5.113" y1="7.784" y2="10.223" gradientUnits="userSpaceOnUse" xlink:href="#c"/><filter id="m" width="1.341" height="1.341" x="-.171" y="-.171" color-interpolation-filters="sRGB"><feGaussianBlur stdDeviation=".342"/></filter><filter id="n" width="1.096" height="1.096" x="-.048" y="-.048" color-interpolation-filters="sRGB"><feGaussianBlur stdDeviation=".037"/></filter></defs><circle cx="6.356" cy="6.339" r="5.974" fill="gray" fill-rule="evenodd" stroke="url(#g)" stroke-width=".628" paint-order="markers fill stroke"/><circle cx="6.348" cy="6.314" r="4.482" fill="gray" fill-rule="evenodd" stroke="#383838" stroke-width=".472" paint-order="markers fill stroke"/><path fill-rule="evenodd" stroke="#383838" stroke-linejoin="round" stroke-width=".012" d="M7.42 4.253l1.035 2.412-1.975 1.73L4.225 7.05l.58-2.56z" paint-order="markers fill stroke"/><path fill="url(#h)" d="M6.44 1.966l2.015 4.699 2.209-.48c-.016-1.722-1.178-3.368-2.798-3.954a4.29 4.29 0 00-1.426-.265z"/><path fill="url(#i)" d="M10.446 4.918L6.481 8.394l-.386 2.225c1.746.138 3.513-.916 4.22-2.52.457-.995.491-2.145.131-3.18z"/><path fill="url(#j)" d="M2.105 6.976c.28 1.898 2.072 3.516 3.99 3.643 1.098.066 1.946-.224 2.768-.78L4.225 7.052z"/><path fill="url(#k)" d="M3.241 3.295c-1.259 1.283-1.566 3.394-.707 4.977.261.477.595.932 1.03 1.265.036.029.056.047.097.077l1.145-5.122z"/><path fill="url(#l)" d="M6.357 1.965c-1.625-.01-3.226.984-3.899 2.466-.05.108-.072.179-.113.268l5.075-.446-.98-2.287h-.083z"/><path fill="#ffebeb" fill-rule="evenodd" d="M7.45 5.596c.026 1.192-.96 2.29-2.149 2.392-1.181.152-2.377-.71-2.606-1.878-.28-1.158.447-2.44 1.584-2.794 1.121-.404 2.475.18 2.95 1.272.145.315.221.661.221 1.008z" filter="url(#m)" opacity=".369"/><path fill="#fff" fill-rule="evenodd" d="M4.844 6.985c.016.52-.482.976-1 .915-.52-.03-.93-.565-.824-1.076.076-.515.645-.877 1.144-.727.394.1.686.482.68.888z" filter="url(#n)"/></svg>