<svg xmlns="http://www.w3.org/2000/svg" xmlns:xlink="http://www.w3.org/1999/xlink" viewBox="0 0 48 48"><defs><path id="n" fill="#fffdfc" fill-rule="evenodd" d="M8.5 7.99a.37.37 0 0 1-.38.37.37.37 0 0 1-.37-.37.37.37 0 0 1 .37-.38.37.37 0 0 1 .37.37" filter="url(#a)"/></defs><defs><linearGradient id="j"><stop offset="0" stop-color="#7b4d00"/><stop offset="1" stop-color="#ffca74"/></linearGradient><linearGradient id="i"><stop offset="0" stop-color="#774b00"/><stop offset="1" stop-color="#fbdfc4"/></linearGradient><linearGradient id="h"><stop offset="0" stop-color="#9f6500"/><stop offset="1" stop-color="#ffecbd"/></linearGradient><linearGradient id="g"><stop offset="0" stop-color="#faac17"/><stop offset="1" stop-color="#fddea5"/></linearGradient><linearGradient id="f"><stop offset="0" stop-color="#f37000"/><stop offset="1" stop-color="#ffbd87"/></linearGradient><linearGradient id="e"><stop offset="0" stop-color="#ffdb29"/><stop offset="1" stop-color="#fff7d7"/></linearGradient><linearGradient id="d"><stop offset=".55" stop-color="#fff"/><stop offset="1" stop-color="#fff" stop-opacity="0"/></linearGradient><linearGradient id="c"><stop offset=".455" stop-color="#fff"/><stop offset="1" stop-color="#fff" stop-opacity="0"/></linearGradient><linearGradient id="b"><stop offset="0" stop-color="#4d4d4d"/><stop offset="1" stop-color="#0d0d0d"/></linearGradient><linearGradient id="k"><stop offset="0" stop-color="#ffae05" stop-opacity="0"/><stop offset=".416" stop-color="#7b7b7b" stop-opacity="0"/><stop offset="1" stop-color="#cecece" stop-opacity="0"/></linearGradient><linearGradient xlink:href="#b" id="x" x1="5.83" x2="12.91" y1="6.7" y2="13.2" gradientUnits="userSpaceOnUse"/><linearGradient xlink:href="#c" id="v" x1="36.084" x2="30.671" y1="28.491" y2="14.734" gradientUnits="userSpaceOnUse"/><linearGradient xlink:href="#d" id="s" x1="7.56" x2="27.435" y1="26.229" y2="21.1" gradientUnits="userSpaceOnUse"/><linearGradient id="l"><stop offset="0" stop-color="#fff"/><stop offset=".522" stop-color="#fedc53"/><stop offset="1" stop-color="#eda800"/></linearGradient><linearGradient xlink:href="#e" id="o" x1="23.693" x2="23.781" y1="16.789" y2="19.796" gradientUnits="userSpaceOnUse"/><linearGradient xlink:href="#f" id="q" x1="20.686" x2="21.75" y1="26.536" y2="24.582" gradientUnits="userSpaceOnUse"/><linearGradient xlink:href="#g" id="t" x1="30.647" x2="28.553" y1="20.072" y2="20.71" gradientUnits="userSpaceOnUse"/><linearGradient xlink:href="#h" id="p" x1="24.407" x2="24.645" y1="17.954" y2="20.886" gradientUnits="userSpaceOnUse"/><linearGradient xlink:href="#i" id="u" x1="29.594" x2="27.613" y1="18.343" y2="19.846" gradientUnits="userSpaceOnUse"/><linearGradient xlink:href="#j" id="r" x1="22.603" x2="23.967" y1="27.476" y2="24.995" gradientUnits="userSpaceOnUse"/><radialGradient xlink:href="#k" id="w" cx="7.18" cy="8.2" r="6.59" fx="7.18" fy="8.2" gradientTransform="matrix(.9 .5558 -.5314 .8606 5.08 -2.85)" gradientUnits="userSpaceOnUse"/><radialGradient xlink:href="#l" id="m" cx="7.18" cy="8.2" r="6.59" fx="7.18" fy="8.2" gradientTransform="matrix(1.1223 3.5113 -3.3576 1.0833 42.135 -12.936)" gradientUnits="userSpaceOnUse"/><filter id="y" width="1.832" height="1.832" x="-.416" y="-.416" color-interpolation-filters="sRGB"><feGaussianBlur stdDeviation=".13"/></filter><filter id="a" width="1.832" height="1.832" x="-.416" y="-.416" color-interpolation-filters="sRGB"><feGaussianBlur stdDeviation=".13"/></filter></defs><path fill="url(#m)" fill-rule="evenodd" d="M46.427 27.239c-.581 3.04-12.322 2.743-14.586 4.804-2.26 2.11-2.886 13.837-5.921 14.228-3.04.343-6.382-10.917-9.07-12.433-2.662-1.493-13.993 1.591-15.272-1.2-1.302-2.766 8.392-9.454 9-12.471.606-3.017-5.816-12.868-3.53-14.955 2.237-2.084 11.565 5.06 14.6 4.668C24.689 9.537 32.09.385 34.779 1.9c2.684 1.467-1.254 12.568.025 15.36s12.231 6.96 11.647 9.951z" enable-background="accumulate" overflow="visible" style="marker:none"/><use xlink:href="#n" fill-rule="evenodd" filter="url(#a)" transform="rotate(36.96 28.455 21.008) scale(3.0331)"/><g paint-order="markers stroke fill"><path fill="url(#o)" stroke="url(#p)" stroke-linecap="round" stroke-linejoin="round" stroke-width=".5" d="M7.968 13.118s4.06 3.42 10.187 4.548c6.126 1.128 14.922-4.51 16.312-5.262 1.391-.752.076 4.172.076 4.172s-7.142 4.435-15.11 2.932c-7.969-1.504-11.427-5.225-11.427-5.225Z"/><path fill="url(#q)" stroke="url(#r)" stroke-linecap="round" stroke-linejoin="round" stroke-width=".5" d="M10.524 20.71s9.096 1.955 13.832 6.014c4.736 4.06 6.428 7.856 6.428 7.856l-.977 2.518s-4.058-8.852-10.262-10.26c-9.434-2.143-16.237 3.27-16.237 3.27z"/><path fill="url(#s)" d="M7.521 24.139s11.222-.358 15.958 3.702c4.736 4.06 6.507 7.855 6.507 7.855l-.18 1.402s-4.057-8.852-10.26-10.26c-9.435-2.143-16.238 3.27-16.238 3.27z"/><path fill="url(#t)" stroke="url(#u)" stroke-linecap="round" stroke-linejoin="round" stroke-width=".5" d="M23.943 8.27s2.957 10.39 7.33 15.147c4.284 4.66 7.216 6.916 7.216 6.916l8.833-3.458s-13.832-2.368-17.966-9.21C25.458 11.219 26.46 6.278 26.46 6.278Z"/><path fill="url(#v)" d="M23.943 8.27s2.957 10.39 7.33 15.147c4.284 4.66 7.216 6.916 7.216 6.916l4.839-1.343S32.324 24.78 28.19 17.94c-3.898-6.448-2.744-11.287-2.744-11.287Z"/></g><path fill="none" stroke="#fff" stroke-linejoin="round" stroke-width="2.23" d="m43.15 26.6-13.29 3.06-4.27 13.9-7.3-12.51-14.12.53 9.24-11.12L8.95 7.43l13.08 5.48 11.25-8.56-1.32 14.56Z" enable-background="accumulate" overflow="visible" style="marker:none" transform="translate(.008 -.008)"/><path fill="url(#w)" fill-rule="evenodd" stroke="url(#x)" stroke-width=".85" d="M13.51 5.1c.44.77-2.18 2.89-2.29 3.76-.1.88 1.95 3.55 1.36 4.2-.6.64-3.43-1.19-4.3-1.02-.86.17-2.76 2.95-3.56 2.58-.8-.36.07-3.62-.36-4.39C3.93 9.46.69 8.51.8 7.63c.1-.87 3.47-1.05 4.06-1.7.6-.64.51-4.01 1.38-4.18.86-.18 2.07 2.97 2.87 3.34.8.37 3.97-.76 4.4 0z" enable-background="accumulate" overflow="visible" style="marker:none" transform="matrix(2.647 2.2616 -2.267 2.6553 22.22 -16.85)"/><use xlink:href="#n" fill-rule="evenodd" filter="url(#y)" transform="rotate(36.96 28.44 21) scale(3.0331)"/></svg>