<?xml version="1.0" encoding="UTF-8" standalone="no"?><svg width="48" height="48" sodipodi:docname="iconStarSwapCyanSmallSVG.svg" inkscape:version="1.4 (86a8ad7, 2024-10-11)" xmlns:inkscape="http://www.inkscape.org/namespaces/inkscape" xmlns:sodipodi="http://sodipodi.sourceforge.net/DTD/sodipodi-0.dtd" xmlns:xlink="http://www.w3.org/1999/xlink" xmlns="http://www.w3.org/2000/svg"><sodipodi:namedview pagecolor="#505050" bordercolor="#ffffff" borderopacity="1" inkscape:showpageshadow="0" inkscape:pageopacity="0" inkscape:pagecheckerboard="1" inkscape:deskcolor="#505050" inkscape:zoom="18.813" inkscape:cx="23.894" inkscape:cy="24.159" inkscape:window-width="3840" inkscape:window-height="2126" inkscape:window-x="-11" inkscape:window-y="-11" inkscape:window-maximized="1" inkscape:current-layer="svg6"/><defs><linearGradient id="a"><stop offset="0" stop-color="#4c4c4c"/><stop offset="1" stop-color="#0d0d0d"/></linearGradient><linearGradient id="b"><stop offset="0" stop-color="#39bdff" style="stop-color:#b8ebff;stop-opacity:1"/><stop offset=".672" stop-color="#39bdff" style="stop-color:#29d0ff;stop-opacity:1"/><stop offset="1" stop-color="#0038a0" style="stop-color:#0077b4;stop-opacity:1"/></linearGradient><linearGradient xlink:href="#a" id="d" x1="5.83" x2="12.91" y1="6.7" y2="13.2" gradientUnits="userSpaceOnUse" gradientTransform="matrix(1.31541 1.1239 -1.12657 1.31954 23.095 3.707)"/><radialGradient xlink:href="#b" id="c" cx="7.18" cy="8.2" r="6.59" fx="7.18" fy="8.2" gradientTransform="matrix(.55772 1.7449 -1.66854 .53836 32.988 5.656)" gradientUnits="userSpaceOnUse"/><filter id="e" width="1.832" height="1.832" x="-.416" y="-.416" color-interpolation-filters="sRGB"><feGaussianBlur stdDeviation=".13"/></filter></defs><path fill="url(#c)" fill-rule="evenodd" stroke="url(#d)" stroke-width="1.473" d="M35.12 25.62c-.288 1.511-6.123 1.364-7.248 2.388-1.123 1.05-1.434 6.876-2.943 7.07-1.51.171-3.17-5.424-4.507-6.178-1.323-.742-6.954.79-7.59-.596-.646-1.375 4.171-4.699 4.473-6.198.302-1.5-2.89-6.394-1.754-7.432 1.112-1.035 5.748 2.515 7.256 2.32 1.51-.17 5.188-4.718 6.524-3.965 1.334.73-.623 6.246.013 7.633.635 1.388 6.078 3.46 5.788 4.945z" enable-background="accumulate" overflow="visible" style="fill:url(#c);stroke:url(#d);marker:none"/><path fill="none" stroke="#fff" stroke-linejoin="round" stroke-width="2.23" d="m33.496 25.3-6.605 1.52-2.122 6.908-3.627-6.217-7.017.263 4.591-5.526-2.216-6.475 6.5 2.723 5.59-4.254-.655 7.236z" enable-background="accumulate" overflow="visible" style="marker:none;stroke-width:1.5;stroke-dasharray:none"/><path fill="#fffdfc" fill-rule="evenodd" d="M8.5 7.99a.37.37 0 0 1-.38.37.37.37 0 0 1-.37-.37.37.37 0 0 1 .37-.38.37.37 0 0 1 .37.37" filter="url(#e)" transform="matrix(1.2044 .90627 -.90627 1.2044 21.167 5.68)"/></svg>