<svg width="48" height="48" xmlns:xlink="http://www.w3.org/1999/xlink" xmlns="http://www.w3.org/2000/svg"><defs><linearGradient id="d"><stop offset="0" stop-color="#0f0f0f"/><stop offset="1" stop-color="#e5e5e5"/></linearGradient><linearGradient id="a"><stop offset="0"/><stop offset=".194" stop-color="#3f3f3f"/><stop offset=".832" stop-color="#fff"/></linearGradient><linearGradient id="c"><stop offset=".282" stop-color="#f4f4f4"/><stop offset=".436" stop-color="#d9d9d9"/><stop offset=".754" stop-color="#919191"/></linearGradient><linearGradient xlink:href="#a" id="h" x1="1.554" x2="13.512" y1="7.78" y2="9.144" gradientUnits="userSpaceOnUse"/><linearGradient xlink:href="#d" id="g" x1="-31.192" y1="-.936" x2="-24.123" y2="8.01" gradientUnits="userSpaceOnUse"/><linearGradient xlink:href="#e" id="j" x1="7.598" y1="7.681" x2="12.404" y2="12.336" gradientUnits="userSpaceOnUse" gradientTransform="matrix(1.12453 -.29235 .29238 1.1244 47.126 26.974)"/><linearGradient id="e"><stop offset="0" stop-color="#eeeeec"/><stop offset="1" stop-color="#d2d2cc"/></linearGradient><radialGradient xlink:href="#c" id="f" cx="7.18" cy="8.2" r="6.59" fx="7.18" fy="8.2" gradientTransform="matrix(.9 .5558 -.5314 .8606 5.08 -2.85)" gradientUnits="userSpaceOnUse"/><filter id="i" width="1.832" height="1.832" x="-.416" y="-.416" color-interpolation-filters="sRGB"><feGaussianBlur stdDeviation=".13"/></filter></defs><path fill="url(#f)" fill-rule="evenodd" d="M13.51 5.1c.44.77-2.18 2.89-2.29 3.76-.1.88 1.95 3.55 1.36 4.2-.6.64-3.43-1.19-4.3-1.02-.86.17-2.76 2.95-3.56 2.58-.8-.36.07-3.62-.36-4.39S.69 8.51.8 7.63c.1-.87 3.47-1.05 4.06-1.7.6-.64.51-4.01 1.38-4.18.86-.18 2.07 2.97 2.87 3.34s3.97-.76 4.4 0z" enable-background="accumulate" overflow="visible" style="marker:none" transform="matrix(2.647 2.2616 -2.267 2.6553 22.22 -16.85)"/><path style="-inkscape-stroke:none" d="M-30.844 9.714c4.98.362 9.761-3.049 10.625-8.13a9.3 9.3 0 0 0-.128-3.705l-1.858-.147a7.5 7.5 0 0 1 .262 3.56c-.753 4.428-5.21 7.344-9.596 6.576a8.7 8.7 0 0 1-2.592-.896.875.875 0 0 0-1.184.36.875.875 0 0 0 .36 1.184c.973.519 2.025.883 3.113 1.074q.499.088.998.124m.435-3.222c3.359.153 6.563-2.196 7.028-5.673.423-3.16-1.73-6.335-5.016-6.72a5.3 5.3 0 0 0-2.09.183l-1.187 2.758A3.55 3.55 0 0 1-28.6-4.163c2.254.264 3.783 2.518 3.485 4.749-.36 2.69-3.052 4.5-5.713 4.11-2.735-.4-4.675-2.849-4.795-5.526l-1.736.257c.23 3.41 2.72 6.48 6.276 7q.338.05.674.065m.137-3.225C-28.413 3.373-26.53 2-26.54-.038a2.85 2.85 0 0 0-.747-1.913c-.478-.524-1.238-.889-2.062-.779a.875.875 0 0 0-.75.981.875.875 0 0 0 .982.753c.218-.029.367.04.537.225.17.186.29.494.291.742.005.916-.947 1.604-1.883 1.55-1.37-.078-2.34-1.459-2.212-2.827l-1.762.26c.008 2.145 1.578 4.182 3.874 4.313m6.592-8.185-1.752-3.478a8.7 8.7 0 0 0-2.191-.665 8.4 8.4 0 0 0-1.383-.108l-.772 1.798a6.6 6.6 0 0 1 1.871.037c1.708.28 3.168 1.175 4.227 2.416" transform="rotate(176.253 -9.294 16.038)scale(1.54036)" color="#000" fill="url(#g)" fill-rule="evenodd"/><path fill="none" stroke="url(#h)" stroke-width=".85" d="M13.51 5.1c.44.77-2.18 2.89-2.29 3.76-.1.88 1.95 3.55 1.36 4.2-.6.64-3.43-1.19-4.3-1.02-.86.17-2.76 2.95-3.56 2.58-.8-.36.07-3.62-.36-4.39S.69 8.51.8 7.63c.1-.87 3.47-1.05 4.06-1.7.6-.64.51-4.01 1.38-4.18.86-.18 2.07 2.97 2.87 3.34s3.97-.76 4.4 0z" enable-background="accumulate" overflow="visible" style="marker:none" transform="matrix(2.647 2.2616 -2.267 2.6553 22.22 -16.85)"/><path fill="none" stroke="#fb0000" stroke-width="2.23" d="m43.15 26.6-13.29 3.06-4.27 13.9-7.3-12.51-14.12.53 9.24-11.12L8.95 7.43l13.08 5.48 11.25-8.56-1.32 14.56Z" enable-background="accumulate" overflow="visible" style="marker:none"/><path fill="#fffdfc" fill-rule="evenodd" d="M8.5 7.99a.37.37 0 0 1-.38.37.37.37 0 0 1-.37-.37.37.37 0 0 1 .37-.38.37.37 0 0 1 .37.37" filter="url(#i)" transform="rotate(36.96 28.44 21)scale(3.0331)"/><circle cx="39.018" cy="40.459" r=".714" fill="#fff" paint-order="fill markers stroke"/><circle cx="33.638" cy="39.072" r=".507" fill="#fff" paint-order="fill markers stroke"/><circle cx="39.027" cy="40.462" r=".714" fill="#fff" paint-order="fill markers stroke"/><ellipse ry="7.464" rx="7.418" cy="40.23" cx="40.277" style="marker:none" color="#000" overflow="visible" stroke="#fff" stroke-width=".608" enable-background="accumulate"/><g color="#000"><path style="marker:none" d="M60.644 33.586a2.176 2.176 0 1 1-4.21 1.095 2.176 2.176 0 0 1 4.21-1.095zM56.64 26.83a1.255 1.255 0 0 0-.9 1.533l.514 1.978c-.045.235-.07.448-.186.536-.092.07-.254.073-.428.07l-1.918-1.125a1.28 1.28 0 0 0-1.75.455 1.28 1.28 0 0 0 .455 1.75l1.87 1.097c.104.168.173.321.156.447s-.117.259-.263.393l-2.054.534a1.255 1.255 0 0 0-.901 1.534c.175.675.86 1.076 1.534.901l1.978-.514c.235.044.448.07.536.185.07.093.072.254.07.429l-1.126 1.917a1.28 1.28 0 0 0 .455 1.75 1.28 1.28 0 0 0 1.75-.455l1.098-1.87c.168-.104.321-.173.447-.156s.259.117.393.263l.535 2.054c.175.675.86 1.076 1.534.9a1.255 1.255 0 0 0 .9-1.533l-.514-1.978c.044-.235.07-.447.186-.536.092-.07.254-.072.428-.07l1.917 1.126a1.28 1.28 0 0 0 1.75-.455 1.28 1.28 0 0 0-.455-1.75l-1.869-1.098c-.104-.167-.174-.32-.157-.446.017-.127.118-.26.264-.394l2.054-.534a1.255 1.255 0 0 0 .9-1.534 1.255 1.255 0 0 0-1.533-.9l-1.978.514c-.235-.044-.448-.07-.536-.186-.07-.092-.073-.254-.07-.428l1.125-1.917a1.28 1.28 0 0 0-.455-1.75 1.28 1.28 0 0 0-1.75.455l-1.098 1.87c-.167.103-.32.173-.446.156-.127-.017-.26-.118-.394-.263l-.534-2.055a1.255 1.255 0 0 0-1.534-.9z" overflow="visible" fill="none" stroke="#000" stroke-width=".859" enable-background="accumulate" transform="matrix(.70607 0 0 .71045 -.913 16.211)"/><path d="M60.479 33.088a2.176 2.176 0 1 1-4.211 1.095 2.176 2.176 0 0 1 4.21-1.095zm-4.005-6.756a1.255 1.255 0 0 0-.901 1.534l.514 1.978c-.044.234-.07.447-.185.535-.093.07-.254.073-.429.071l-1.917-1.126a1.28 1.28 0 0 0-1.75.455 1.28 1.28 0 0 0 .455 1.75l1.87 1.098c.103.167.173.32.156.446s-.118.26-.263.394L51.969 34a1.255 1.255 0 0 0-.9 1.533c.175.675.859 1.077 1.533.901l1.979-.514c.234.044.447.07.535.186.07.092.073.253.071.428l-1.126 1.917a1.28 1.28 0 0 0 .455 1.75 1.28 1.28 0 0 0 1.75-.455l1.098-1.87c.167-.103.32-.173.447-.156.126.017.258.118.393.263l.534 2.054c.175.675.86 1.076 1.534.901a1.255 1.255 0 0 0 .9-1.534l-.513-1.978c.044-.234.07-.447.185-.535.093-.07.254-.073.429-.071l1.917 1.126a1.28 1.28 0 0 0 1.75-.455 1.28 1.28 0 0 0-.455-1.75l-1.87-1.098c-.104-.167-.173-.32-.156-.446.017-.127.117-.26.263-.394l2.054-.534a1.255 1.255 0 0 0 .901-1.534 1.255 1.255 0 0 0-1.534-.9l-1.978.514c-.235-.044-.447-.07-.536-.186-.07-.092-.072-.253-.07-.428l1.126-1.917a1.28 1.28 0 0 0-.455-1.75 1.28 1.28 0 0 0-1.75.455l-1.098 1.87c-.168.103-.321.173-.447.156s-.259-.118-.393-.263l-.534-2.054a1.255 1.255 0 0 0-1.534-.901z" style="marker:none" overflow="visible" fill="url(#j)" fill-rule="evenodd" stroke="#888a85" stroke-width=".429" enable-background="accumulate" transform="matrix(.70607 0 0 .71045 -.913 16.211)"/></g></svg>