<svg xmlns="http://www.w3.org/2000/svg" xmlns:xlink="http://www.w3.org/1999/xlink" width="600" height="600" viewBox="0 0 158.75 158.75"><defs><linearGradient id="a"><stop offset="0" stop-color="red"/><stop offset="1" stop-color="red" stop-opacity="0"/></linearGradient><linearGradient xlink:href="#a" id="b" x1="36.9" x2="12.91" y1="86.5" y2="86.5" gradientUnits="userSpaceOnUse"/></defs><path fill="#ff0006" d="M102.78 150.77s-1.72 1.76-3.3 2.8c-1.73 1.05-3.4 1.79-3.4 1.79h6.73z" color="#000" font-family="'Gill Sans Ultra Bold'" font-size="44.68" font-weight="400" letter-spacing="0" opacity=".8" overflow="visible" paint-order="markers stroke fill" style="line-height:1.25;-inkscape-font-specification:&quot;Gill Sans Ultra Bold, Normal&quot;;font-variant-ligatures:normal;font-variant-position:normal;font-variant-caps:normal;font-variant-numeric:normal;font-variant-alternates:normal;font-variant-east-asian:normal;font-feature-settings:normal;font-variation-settings:normal;text-indent:0;text-align:start;text-decoration-line:none;text-decoration-style:solid;text-decoration-color:#000;text-transform:none;text-orientation:mixed;white-space:normal;shape-padding:0;shape-margin:0;inline-size:0;isolation:auto;mix-blend-mode:normal;solid-color:#000;solid-opacity:1" word-spacing="0"/><path fill="#ff0006" d="M88.12 109.7c-13.87.86-25.98 14.69-23 28.76 1.5 7.7 7.41 15.05 15.19 16.89l13.08.04c2.9-1.07 9.05-4.64 9.39-8.96v-18.96c-5.65-10.23-19.62-9.33-26-1.58-6.33 8.72-.85 20.95 7.44 22.31 5.72.93 9.76-.61 12.38-4.02 2.89-3.96 3.15-8.43 1.18-12-2.86-6.98-15.94-7.9-16.92 2.04.29 5.03 4.69 9.06 7.17 7.74 3.74-.8 3-5.26.64-6.4-2.79-1.33-3.59.3-3.83-1.72-.35-2.73 2.07-4.06 6.54-3.1 6.36 3.25 4.06 12.07-1.51 13.64a8.85 8.85 0 0 1-9.6-2.82c-2.59-3.1-2.46-7.9-1.34-10.93 3.46-7.25 14.9-8.6 19.72-1.61 6.57 7.75.77 20.57-8.98 21.94-10.75 2.35-20.88-8.77-18.49-19.27 1.87-11.7 16.73-17.22 26.83-12.97 2.13.79 4.05 2.03 4.85 2.63l.02-3.54v-4.33a15.24 15.24 0 0 0-4.32-2.32 25.73 25.73 0 0 0-7.65-1.45c-.94-.06-1.86-.07-2.8-.02z" color="#000" font-family="'Gill Sans Ultra Bold'" font-size="44.68" font-weight="400" letter-spacing="0" overflow="visible" paint-order="markers stroke fill" style="line-height:1.25;-inkscape-font-specification:&quot;Gill Sans Ultra Bold, Normal&quot;;font-variant-ligatures:normal;font-variant-position:normal;font-variant-caps:normal;font-variant-numeric:normal;font-variant-alternates:normal;font-variant-east-asian:normal;font-feature-settings:normal;font-variation-settings:normal;text-indent:0;text-align:start;text-decoration-line:none;text-decoration-style:solid;text-decoration-color:#000;text-transform:none;text-orientation:mixed;white-space:normal;shape-padding:0;shape-margin:0;inline-size:0;isolation:auto;mix-blend-mode:normal;solid-color:#000;solid-opacity:1" word-spacing="0"/><path fill="#ff0006" d="M39.4 108.2a48.97 48.97 0 0 0-1.9 3.84l.01 43.37H54.25c-6.2-8.8-7.89-19.9-5.73-30.23z" color="#000" font-family="'Gill Sans Ultra Bold'" font-size="44.68" font-weight="400" letter-spacing="0" opacity=".75" overflow="visible" paint-order="markers stroke fill" style="line-height:1.25;-inkscape-font-specification:&quot;Gill Sans Ultra Bold, Normal&quot;;font-variant-ligatures:normal;font-variant-position:normal;font-variant-caps:normal;font-variant-numeric:normal;font-variant-alternates:normal;font-variant-east-asian:normal;font-feature-settings:normal;font-variation-settings:normal;text-indent:0;text-align:start;text-decoration-line:none;text-decoration-style:solid;text-decoration-color:#000;text-transform:none;text-orientation:mixed;white-space:normal;shape-padding:0;shape-margin:0;inline-size:0;isolation:auto;mix-blend-mode:normal;solid-color:#000;solid-opacity:1" word-spacing="0"/><path fill="#ff0006" d="M88.57 95.1c-14.8.65-28.62 10.57-34.44 24.05l-.68 15.2-2.13-3.97c-.02.26-.08.52-.09.78a35.77 35.77 0 0 0 7.38 24.24h13.3c-11.87-8.2-14.27-26.26-5.32-37.47 7.92-11.13 24.03-15.25 36.22-9.17 1.64-.05 4.64-.06 6.83-.08h11.66c-7.44-8-17.96-13.15-28.93-13.56a38.01 38.01 0 0 0-3.8-.03Z" color="#000" font-family="'Gill Sans Ultra Bold'" font-size="44.68" font-weight="400" letter-spacing="0" overflow="visible" paint-order="markers stroke fill" style="line-height:1.25;-inkscape-font-specification:&quot;Gill Sans Ultra Bold, Normal&quot;;font-variant-ligatures:normal;font-variant-position:normal;font-variant-caps:normal;font-variant-numeric:normal;font-variant-alternates:normal;font-variant-east-asian:normal;font-feature-settings:normal;font-variation-settings:normal;text-indent:0;text-align:start;text-decoration-line:none;text-decoration-style:solid;text-decoration-color:#000;text-transform:none;text-orientation:mixed;white-space:normal;shape-padding:0;shape-margin:0;inline-size:0;isolation:auto;mix-blend-mode:normal;solid-color:#000;solid-opacity:1" word-spacing="0"/><path fill="#ff0006" d="M89.8 78.98a62.48 62.48 0 0 0-16.27 2.6l19.6 7.36-37.95 6.87-.68 15a37.86 37.86 0 0 1 4.72-5.8c13.33-14.49 36.73-17.78 53.6-7.58 5.48 3.05 12.75 11.24 13.88 11.24h17.64c-.04-3-4.93-8.43-8.08-11.7-11.12-11.03-26.5-17.43-42.12-17.92a59.19 59.19 0 0 0-4.32-.07z" color="#000" font-family="'Gill Sans Ultra Bold'" font-size="44.68" font-weight="400" letter-spacing="0" opacity=".75" overflow="visible" paint-order="markers stroke fill" style="line-height:1.25;-inkscape-font-specification:&quot;Gill Sans Ultra Bold, Normal&quot;;font-variant-ligatures:normal;font-variant-position:normal;font-variant-caps:normal;font-variant-numeric:normal;font-variant-alternates:normal;font-variant-east-asian:normal;font-feature-settings:normal;font-variation-settings:normal;text-indent:0;text-align:start;text-decoration-line:none;text-decoration-style:solid;text-decoration-color:#000;text-transform:none;text-orientation:mixed;white-space:normal;shape-padding:0;shape-margin:0;inline-size:0;isolation:auto;mix-blend-mode:normal;solid-color:#000;solid-opacity:1" word-spacing="0"/><path fill="#ff0006" d="M91.95 54.67a87.87 87.87 0 0 0-33.02 6.6l-1.92 14.1 7.78 2.93c11.3-5.41 24.15-7.53 36.6-5.35 17.13 2.67 32.79 12.69 42.95 26.66V71.64h-41.57V55.27c-3.59-.4-7.2-.62-10.81-.6Z" color="#000" font-family="'Gill Sans Ultra Bold'" font-size="44.68" font-weight="400" letter-spacing="0" opacity=".85" overflow="visible" paint-order="markers stroke fill" style="line-height:1.25;-inkscape-font-specification:&quot;Gill Sans Ultra Bold, Normal&quot;;font-variant-ligatures:normal;font-variant-position:normal;font-variant-caps:normal;font-variant-numeric:normal;font-variant-alternates:normal;font-variant-east-asian:normal;font-feature-settings:normal;font-variation-settings:normal;text-indent:0;text-align:start;text-decoration-line:none;text-decoration-style:solid;text-decoration-color:#000;text-transform:none;text-orientation:mixed;white-space:normal;shape-padding:0;shape-margin:0;inline-size:0;isolation:auto;mix-blend-mode:normal;solid-color:#000;solid-opacity:1" word-spacing="0"/><path fill="#ff0006" d="M93.28 24a118.64 118.64 0 0 0-55.79 13.82V67l.09.05c.7-.57 1.4-1.11 2.1-1.65l22.53-28.25-2.26 16.61a85.58 85.58 0 0 1 42.87-5.75l.02-3.16 56.01.01c-.04-1.07-7.98-6.61-12.95-8.93a121.36 121.36 0 0 0-52.62-11.9Z" color="#000" font-family="'Gill Sans Ultra Bold'" font-size="44.68" font-weight="400" letter-spacing="0" opacity=".85" overflow="visible" paint-order="markers stroke fill" style="line-height:1.25;-inkscape-font-specification:&quot;Gill Sans Ultra Bold, Normal&quot;;font-variant-ligatures:normal;font-variant-position:normal;font-variant-caps:normal;font-variant-numeric:normal;font-variant-alternates:normal;font-variant-east-asian:normal;font-feature-settings:normal;font-variation-settings:normal;text-indent:0;text-align:start;text-decoration-line:none;text-decoration-style:solid;text-decoration-color:#000;text-transform:none;text-orientation:mixed;white-space:normal;shape-padding:0;shape-margin:0;inline-size:0;isolation:auto;mix-blend-mode:normal;solid-color:#000;solid-opacity:1" word-spacing="0"/><path fill="#ff0006" d="M37.5 7.83v22.8c31.84-17.82 72.05-19.08 105.1-3.72a125.4 125.4 0 0 1 16.25 8.95V7.83Z" color="#000" font-family="'Gill Sans Ultra Bold'" font-size="44.68" font-weight="400" letter-spacing="0" overflow="visible" paint-order="markers stroke fill" style="line-height:1.25;-inkscape-font-specification:&quot;Gill Sans Ultra Bold, Normal&quot;;font-variant-ligatures:normal;font-variant-position:normal;font-variant-caps:normal;font-variant-numeric:normal;font-variant-alternates:normal;font-variant-east-asian:normal;font-feature-settings:normal;font-variation-settings:normal;text-indent:0;text-align:start;text-decoration-line:none;text-decoration-style:solid;text-decoration-color:#000;text-transform:none;text-orientation:mixed;white-space:normal;shape-padding:0;shape-margin:0;inline-size:0;isolation:auto;mix-blend-mode:normal;solid-color:#000;solid-opacity:1" word-spacing="0"/><path fill="url(#b)" fill-rule="evenodd" d="m65.43 29.63-27.9 34.98-40.28-19.43 24.66 37.34-30.94 32.32 43.13-11.92 21.18 39.4 2-44.68 44.02-7.96-7.4-2.78-34.48-12.95ZM58.99 44.7l-4.37 32.12L84.97 88.2l-31.9 5.78-1.45 32.38-15.35-28.55-31.25 8.63 22.41-23.43L9.6 55.95l29.2 14.08Z" color="#000" font-family="sans-serif" font-weight="400" overflow="visible" style="line-height:normal;font-variant-ligatures:normal;font-variant-position:normal;font-variant-caps:normal;font-variant-numeric:normal;font-variant-alternates:normal;font-variant-east-asian:normal;font-feature-settings:normal;font-variation-settings:normal;text-indent:0;text-align:start;text-decoration-line:none;text-decoration-style:solid;text-decoration-color:#000;text-transform:none;text-orientation:mixed;white-space:normal;shape-padding:0;shape-margin:0;inline-size:0;isolation:auto;mix-blend-mode:normal;solid-color:#000;solid-opacity:1"/><path fill="#fff" fill-rule="evenodd" d="M89.46 138.25a1.14 1.14 0 0 1-1.13 1.13 1.14 1.14 0 0 1-1.14-1.13 1.14 1.14 0 0 1 1.13-1.14 1.14 1.14 0 0 1 1.14 1.14"/></svg>