<svg viewBox="0 0 512 512" xml:space="preserve" xmlns:xlink="http://www.w3.org/1999/xlink" xmlns="http://www.w3.org/2000/svg"><defs><linearGradient id="a"><stop offset="0" stop-color="#fff"/><stop offset="1" stop-color="#101010"/></linearGradient><linearGradient xlink:href="#a" id="b" x1="7.047" y1="-47.494" x2="412.083" y2="439.419" gradientUnits="userSpaceOnUse"/></defs><path fill="#57565c" d="m429.981 349.78 50.364 29.779-7.973 13.5-52.265-30.908-156.265 89.955v23.323h-15.673v-22.717L89.146 361.169l-51.054 29.414-7.816-13.584 50.709-29.215v-186.18L63.138 151.05l7.983-13.489 20.261 11.985 156.787-90.258V0h15.673v59.894l158.501 91.24 19.884-11.462 7.826 13.583-20.072 11.567z"/><path d="m322.513 157.257-7.837 13.573 23.562 13.594 7.826-13.584-23.551-13.583zm0 0-7.837 13.573 23.562 13.594 7.826-13.584-23.551-13.583zM429.981 349.78V164.822l20.072-11.567-7.826-13.584-19.884 11.463-158.501-91.24V0h-15.673v59.288L91.382 149.546l-20.261-11.985-7.983 13.49 17.847 10.553v186.18l-50.709 29.215 7.816 13.584 51.054-29.414 159.023 91.544v22.716h15.673v-23.322l156.264-89.955 52.266 30.908 7.973-13.5-50.364-29.78zM96.659 170.872l39.706 23.479V256h15.673v-52.381l39.706 23.479v56.874l-95.086 54.784.001-167.884zm167.183-29.351 43.593 25.14 7.826-13.584-51.419-29.654V77.981l142.796 82.192-94.804 54.617-47.992-27.826v-45.443zm0 292.498V325.036l47.219-27.376 39.037 23.082-42.632 24.597 7.837 13.584 50.28-29.017 39.027 23.082-140.768 81.031zm82.223-263.178-23.552-13.584-7.837 13.573 23.562 13.594 7.827-13.583zm-69.423 192.282 7.837 13.584 22.988-13.27-7.837-13.573-22.988 13.259z" fill="#898890"/><path fill="#933ec5" d="m459.083 148.055-7.824-13.581 22.644-13.046 7.824 13.581z"/><path d="m429.981 164.817 20.07-11.563-7.824-13.581-19.889 11.457-158.496-91.236V0h-15.673v59.292L91.385 149.545l-20.264-11.984-7.979 13.491 17.843 10.551v186.182l-50.714 29.216 7.824 13.581 51.055-29.413 159.019 91.538v22.721h15.673v-23.322l156.269-89.955 52.26 30.904 7.978-13.491-50.366-29.785V164.817h-.002zM414.307 340.51l-39.706-23.481V196.721l39.706-22.875V340.51zm-95.085-56.23v-55.654l39.706-22.875v102.01l-39.706-23.481zm-119.57 13.23 48.518 28.129v45.428l-88.193-50.701 39.675-22.856zm64.19-92.426 32.319 18.738-32.319 18.619v-37.357zm-15.673 37.178-32.261-19.078 32.261-18.705v37.783zm0-55.901-47.731 27.673-39.033-23.083 86.764-50.036v45.446zm-7.708 69.55-33.043 19.036V236.37l33.043 19.541zm7.708 13.648v37.962l-32.843-19.041 32.843-18.921zm15.673.18 31.744 18.773-31.744 18.405v-37.178zm7.709-13.65 31.998-18.434v37.356l-31.998-18.922zm135.086-95.911-94.8 54.615-47.993-27.826v-45.448l43.591 25.138 7.83-13.577-51.422-29.653V77.979l142.794 82.199zM248.169 77.377v45.447l-102.254 58.969-39.033-23.083 141.287-81.333zm-151.51 93.495 39.706 23.481V256h15.673v-52.379l39.706 23.481v56.875l-95.086 54.779.001-167.884zm8.194 181.251 39.418-22.709 103.898 59.731v45.477l-143.316-82.499zm158.989 81.898V325.033l47.214-27.373 39.038 23.086-42.628 24.597 7.833 13.575 50.283-29.014 39.032 23.082-140.772 81.035z" stroke="url(#b)" stroke-width="10" paint-order="stroke fill markers"/><path d="m299.652 349.867 7.832 13.576-22.989 13.262-7.832-13.576zM314.684 170.843l7.831-13.578 23.554 13.584-7.83 13.578zM248.172 485.878h15.673V512h-15.673zM459.092 148.05l-7.824-13.582 22.636-13.04 7.824 13.58zM54.16 145.732l-22.487-13.297 7.978-13.492 22.487 13.297zM136.368 265.404h15.673v26.122h-15.673z"/></svg>