<svg width="48" height="48" xmlns:xlink="http://www.w3.org/1999/xlink" xmlns="http://www.w3.org/2000/svg"><defs><linearGradient id="a"><stop offset="0" stop-color="#4c4c4c"/><stop offset="1" stop-color="#0d0d0d"/></linearGradient><linearGradient id="b"><stop offset="0" stop-color="#b8ebff"/><stop offset=".672" stop-color="#29d0ff"/><stop offset="1" stop-color="#0077b4"/></linearGradient><linearGradient xlink:href="#a" id="c" x1="5.83" x2="12.91" y1="6.7" y2="13.2" gradientUnits="userSpaceOnUse" gradientTransform="matrix(1.31541 1.1239 -1.12657 1.31954 35.174 3.707)"/><filter id="d" width="1.054" height="1.054" x="-.027" y="-.027" color-interpolation-filters="sRGB"><feGaussianBlur stdDeviation=".009"/></filter></defs><path fill="#11cdff" fill-rule="evenodd" stroke="url(#c)" stroke-width="1.473" d="M47.2 25.62c-.289 1.511-6.123 1.364-7.248 2.388-1.123 1.05-1.435 6.876-2.943 7.07-1.51.171-3.171-5.424-4.507-6.178-1.323-.742-6.954.79-7.59-.596-.646-1.375 4.17-4.699 4.473-6.198.301-1.5-2.89-6.394-1.754-7.432 1.112-1.035 5.747 2.515 7.256 2.32 1.51-.17 5.188-4.718 6.524-3.965 1.334.73-.623 6.246.012 7.633.636 1.388 6.079 3.46 5.788 4.945z" enable-background="accumulate" overflow="visible" style="marker:none"/><path fill="none" stroke="#fff" stroke-linejoin="round" stroke-width="1.5" d="m45.575 25.3-6.604 1.52-2.122 6.908-3.628-6.217-7.017.263 4.592-5.526-2.216-6.475 6.5 2.723 5.59-4.254-.655 7.236z" enable-background="accumulate" overflow="visible" style="marker:none"/><path fill="#fffdfc" fill-rule="evenodd" d="M8.5 7.99a.37.37 0 0 1-.38.37.37.37 0 0 1-.37-.37.37.37 0 0 1 .37-.38.37.37 0 0 1 .37.37" filter="url(#d)" transform="scale(1.50728) rotate(36.96 5.204 34.946)" style="mix-blend-mode:normal"/></svg>