<svg width="48" height="48" xmlns:xlink="http://www.w3.org/1999/xlink" xmlns="http://www.w3.org/2000/svg"><defs><linearGradient id="p"><stop offset="0" stop-color="#969696"/><stop offset=".913" stop-color="#1e1e1e"/></linearGradient><linearGradient id="o"><stop offset="0" stop-color="#a9a9a9"/><stop offset=".434" stop-color="#fff"/></linearGradient><linearGradient id="n"><stop offset=".181" stop-color="#4e4e4e"/><stop offset=".714" stop-color="#fff"/><stop offset="1" stop-color="#fff"/></linearGradient><linearGradient id="a"><stop offset="0" stop-color="#dfeaa1"/><stop offset="1" stop-color="#9db029"/></linearGradient><linearGradient id="b"><stop offset="0" stop-color="#2e3436" stop-opacity=".691"/><stop offset="1" stop-color="#2e3436" stop-opacity="0"/></linearGradient><linearGradient xlink:href="#c" id="t" gradientUnits="userSpaceOnUse" x1="24" y1="29.167" x2="24" y2="8.341" gradientTransform="matrix(.95647 0 0 .95644 .997 -.003)"/><linearGradient id="c"><stop offset="0" stop-color="#672179"/><stop offset="1" stop-color="#c666bc"/></linearGradient><linearGradient xlink:href="#d" id="u" gradientUnits="userSpaceOnUse" x1="32" y1="7.746" x2="48.063" y2="7.746" gradientTransform="matrix(.95647 0 0 .95644 .997 -.003)"/><linearGradient id="d"><stop offset="0" stop-color="#894f98"/><stop offset="1" stop-color="#321c37"/></linearGradient><linearGradient xlink:href="#e" id="v" gradientUnits="userSpaceOnUse" x1="12.77" y1="8.325" x2="6.802" y2="4.77" gradientTransform="matrix(.95647 0 0 .95644 .997 -.003)"/><linearGradient id="e"><stop offset="0" stop-color="#361f3c"/><stop offset="1" stop-color="#6a3d76"/></linearGradient><linearGradient xlink:href="#f" id="w" gradientUnits="userSpaceOnUse" x1="24.389" y1="19.365" x2="33.325" y2="5.016" gradientTransform="matrix(.95647 0 0 .95644 .997 -.003)"/><linearGradient id="f"><stop offset="0" stop-color="#6f2b8c"/><stop offset="1" stop-color="#ad7fa8"/></linearGradient><linearGradient xlink:href="#g" id="x" gradientUnits="userSpaceOnUse" x1="24.516" y1="14.73" x2="32.563" y2="1.016" gradientTransform="matrix(.95647 0 0 .95644 .997 -.003)"/><linearGradient id="g"><stop offset="0" stop-color="#361f3c"/><stop offset="1" stop-color="#894f99"/></linearGradient><linearGradient xlink:href="#h" id="y" x1="18.238" y1="2.256" x2="24.573" y2="29.779" gradientUnits="userSpaceOnUse"/><linearGradient id="h"><stop offset="0" stop-color="#fff"/><stop offset="1" stop-color="#fff" stop-opacity="0"/></linearGradient><linearGradient xlink:href="#i" id="z" gradientUnits="userSpaceOnUse" x1="27.069" y1="13.164" x2="26.266" y2="44.864" gradientTransform="matrix(.95647 0 0 .95644 .997 -.003)"/><linearGradient id="i"><stop offset="0" stop-color="#ffd00d"/><stop offset=".5" stop-color="#ff8841"/><stop offset="1" stop-color="#a40000"/></linearGradient><linearGradient xlink:href="#j" id="A" gradientUnits="userSpaceOnUse" x1="24.911" y1="13.164" x2="23.853" y2="46.705" gradientTransform="matrix(.95647 0 0 .95644 .997 -.003)"/><linearGradient id="j"><stop offset="0" stop-color="#ffec6c"/><stop offset=".625" stop-color="#ffa337"/><stop offset="1" stop-color="#c36000"/></linearGradient><linearGradient xlink:href="#k" id="B" x1="24.496" y1="30.877" x2="24.018" y2="44.528" gradientUnits="userSpaceOnUse"/><linearGradient id="k"><stop offset="0" stop-color="#fce94f"/><stop offset="1" stop-color="#fce94f" stop-opacity="0"/></linearGradient><linearGradient xlink:href="#l" id="C" gradientUnits="userSpaceOnUse" x1="34.189" y1="4.512" x2="47.531" y2="10.175"/><linearGradient id="l"><stop offset="0" stop-color="#c4a000"/><stop offset="1" stop-color="#c4a000" stop-opacity="0"/></linearGradient><linearGradient xlink:href="#l" id="D" x1="14.634" y1="4.512" x2="26.324" y2="22.746" gradientUnits="userSpaceOnUse"/><linearGradient xlink:href="#m" id="E" gradientUnits="userSpaceOnUse" x1="33.046" y1="4.195" x2="21.182" y2="22.564"/><linearGradient id="m"><stop offset="0" stop-color="#ffd412"/><stop offset="1" stop-color="#c4a000" stop-opacity="0"/></linearGradient><linearGradient xlink:href="#n" id="r" x1="110.418" y1="132.245" x2="412.808" y2="434.635" gradientUnits="userSpaceOnUse" gradientTransform="matrix(.9873 0 0 .98808 6.04 .713)"/><linearGradient xlink:href="#o" id="q" x1="110.418" y1="104.806" x2="412.808" y2="407.196" gradientUnits="userSpaceOnUse"/><linearGradient xlink:href="#p" id="s" x1="374.856" y1="100.579" x2="458.178" y2="17.257" gradientUnits="userSpaceOnUse"/></defs><g stroke="#000" stroke-width=".771"><g stroke-width="10.818"><path fill="url(#q)" d="m357.613.002 54.878 54.879 62.944 62.944V512H47.791V.002z" transform="translate(-.045 .476) scale(.09184)"/><path d="M53.225 415.291 253.24 220.404l11.684-11.694 6.475-6.48 10.792-10.8 12.801-12.812L413.358 63.273l56.803 56.667v386.626l-416.936.042z" fill="url(#r)" stroke="none" transform="translate(-.045 .476) scale(.09184)"/><path d="m470.568 120.07-112.969-2.234-1.887-112.38Z" fill="url(#s)" stroke="none" transform="translate(-.045 .476) scale(.09184)"/></g><path fill="#fff" paint-order="stroke fill markers" stroke="none" d="M2.965 4.886h19.146v7.594H2.965z"/></g><path d="m37.902 6.91 4.76 4.755.005 34.843-37.327-.004L5.243 1.44l27.185.028Z" fill="none" stroke="#fff" stroke-width=".99352512"/><path style="line-height:1.25;-inkscape-font-specification:&quot;Corbel, Bold&quot;" d="M5.232 8.35h1.56V6.964h.615v3.365h-.616V8.865H5.232v1.464h-.616V6.964h.616Zm4.16 1.561q.173 0 .361-.035.189-.035.383-.1v.475q-.116.05-.355.095-.239.046-.495.046-.26 0-.493-.066-.231-.068-.405-.216-.173-.148-.277-.385-.1-.236-.1-.573 0-.332.095-.581.096-.249.257-.412.16-.164.367-.244.209-.083.43-.083.231 0 .425.07.196.07.337.221.143.151.221.39.08.237.08.56-.002.127-.007.215H8.62q.013.168.076.289.063.118.163.193.103.073.24.109.135.032.293.032zm-.24-1.614q-.113 0-.2.043-.089.04-.154.113-.063.07-.1.166-.038.095-.051.203h.958q0-.108-.03-.203-.028-.096-.086-.166-.055-.073-.14-.113-.083-.043-.197-.043Zm3.058 1.773h-.01q-.05.052-.12.108-.071.055-.162.105-.09.048-.2.078-.111.03-.24.03-.173 0-.324-.055-.15-.053-.259-.153-.108-.103-.17-.247-.061-.145-.061-.324 0-.196.07-.352.073-.156.201-.264.129-.108.307-.164.179-.057.395-.057.158 0 .292.02.133.02.233.048v-.099q0-.085-.03-.163-.027-.08-.093-.14-.063-.064-.166-.099-.103-.038-.251-.038-.181 0-.362.04t-.393.121V8q.184-.08.39-.123.206-.043.433-.045.266 0 .465.065.201.065.334.181.136.113.201.27.068.155.068.339v.917q0 .242.005.415l.01.31h-.538zm-.048-.78q-.085-.02-.196-.035-.11-.018-.224-.018-.218 0-.347.088-.125.086-.125.264 0 .083.027.146.03.06.078.1.05.041.116.061.065.02.138.02.09 0 .171-.022.08-.025.149-.06.068-.038.12-.084.056-.045.093-.088zm2.314.626q.088 0 .166-.022.08-.023.15-.06.071-.038.124-.084.055-.045.093-.088V8.506q-.106-.086-.236-.141-.131-.058-.277-.058-.093 0-.196.038-.1.037-.186.128-.083.09-.141.251-.055.161-.055.41 0 .367.14.574.144.206.418.208zm-1.174-.757q0-.319.088-.568.088-.251.238-.42.154-.17.35-.254.196-.085.407-.085.098 0 .186.017.088.018.166.048.078.03.146.068.068.038.126.078h.005q-.003-.05-.005-.14V6.687h.596v2.916q0 .242.005.415l.01.31h-.538l-.025-.26h-.01q-.053.064-.129.124-.073.06-.163.105-.088.043-.196.068-.106.026-.232.026-.198 0-.382-.07-.18-.071-.327-.217-.143-.148-.231-.385-.086-.239-.086-.56zm4.252.752q.173 0 .362-.035.188-.035.382-.1v.475q-.116.05-.355.095-.238.046-.495.046-.259 0-.493-.066-.231-.068-.405-.216-.173-.148-.276-.385-.1-.236-.1-.573 0-.332.095-.581.095-.249.256-.412.161-.164.367-.244.209-.083.43-.083.232 0 .425.07.196.07.337.221.144.151.222.39.08.237.08.56-.003.127-.008.215h-1.596q.012.168.075.289.063.118.164.193.103.073.239.109.135.032.294.032zm-.24-1.614q-.112 0-.2.043-.088.04-.154.113-.063.07-.1.166-.038.095-.05.203h.957q0-.108-.03-.203-.027-.096-.085-.166-.056-.073-.141-.113-.083-.043-.196-.043zm3.074.068h-.05q-.275 0-.483.083-.207.08-.32.249v1.632h-.596V7.892h.493l.055.34h.01q.106-.187.29-.292.186-.108.445-.108.09 0 .156.01z" aria-label="Header" font-weight="700" font-size="5.15" font-family="Corbel" letter-spacing="0" word-spacing="0" transform="translate(.437 .414) scale(.98273)"/><path d="m23.893 45.459 22.537-31.17L34.77 7.17 23.953 25.066 13.134 7.171 1.476 14.289Z" fill="url(#t)" fill-rule="evenodd" stroke="#361f3c" transform="matrix(.54886 0 0 .54886 21.727 22.156)"/><path d="M46.49 14.276 40.402 5.03 32.4.727l2.263 6.55Z" style="marker:none" color="#000" overflow="visible" fill="url(#u)" fill-rule="evenodd" stroke="#361f3c" stroke-linejoin="bevel" transform="matrix(.54886 0 0 .54886 21.727 22.156)"/><path d="m28.908 26.187 1.4-3.733 4.6 7.566-.034 5.833z" fill="#5c3566" fill-rule="evenodd" stroke="#361f3c" stroke-linejoin="bevel" stroke-width=".54886"/><path d="M1.168 14.289 7.51 4.916 15.64.74l-2.39 6.423Z" fill="#ad7fa8" fill-rule="evenodd" stroke="url(#v)" stroke-linejoin="bevel" transform="matrix(.54886 0 0 .54886 21.727 22.156)"/><path d="m34.762 7.284-2.55-6.8-8.077 14.148-.243 10.506Z" style="marker:none" color="#000" overflow="visible" fill="url(#w)" fill-rule="evenodd" stroke="url(#x)" stroke-linejoin="bevel" transform="matrix(.54886 0 0 .54886 21.727 22.156)"/><path d="m34.841 46.227 11.603-16.075-5.465-3.273-6.105 10.089-6.138-10.09-5.432 3.274Z" fill="none" stroke="#fce94f" stroke-width=".54886"/><path d="m23.886 42.262 19.743-27.446-8.18-4.885-11.313 18.572L12.38 9.931l-8.183 4.885Z" fill="none" stroke="url(#y)" transform="matrix(.54886 0 0 .54886 21.727 22.156)"/><path d="M39.833 21.737c.39-1.846.51-3.658-.839-5.695-.258 4.059-1.49 3.01-2.359 6.149-.423-4.385-1.98-5.405-2.049-9.125-3.082 5.31.163 9.22-3.658 13.92-.795-2.387 1.303-5.039-.595-7.468-1.854 7.043-4.112 3.407-5.897 10.356-.465-1.38-1.105-2.723-1.944-3.914-.912 1.912-2.049 3.56-1.452 5.753-4.328-4.899-.483-7.317-2.983-11.644-.673 4.098-1.962 2.544-2.828 6.333-1.088-1.386-.85-2.726-1.102-4.26-.659-1.789-1.367-2.036-2.378-3.629 1.051 6.382-1.894 4.081-1.278 6.504L23.89 43.78z" fill="url(#z)" fill-rule="evenodd" stroke="url(#A)" transform="matrix(.54886 0 0 .54886 21.727 22.156)"/><path d="M39.432 21.297c-.109-1.082.42-1.95-.297-3.386-.89 3.374-2.072 2.289-2.82 4.991-.608-4.019-1.827-3.864-2.068-7.615-.285 4.877-.406 9.762-3.697 13.809-1.352-2.602-.026-5.346.1-8.288-2.929 7.617-3.919 2.551-6.297 11.747-.4-1.189-1.073-3.924-1.795-4.95-.785 1.648-1.764 3.917-1.25 5.805-5.002-4.887-2.663-7.637-3.115-11.606-1.065 3.528-2.114 2.312-2.86 6-2.576-2.64-.546-5.036-2.753-7.158.176 3.067-1.388 2.36-1.222 4.265l12.475 17.365z" fill="none" stroke="url(#B)" transform="matrix(.54886 0 0 .54886 21.727 22.156)"/><path d="m23.54 28.896 2.588-3.706 3.386-1.803-.932 2.505Z" fill="none" stroke="#fce94f" stroke-width=".27443"/><path d="m44.695 12.575-4.843-7.09-6.194-3.279 1.73 4.737Z" style="marker:none" color="#000" overflow="visible" fill="none" stroke="url(#C)" stroke-width=".5" transform="matrix(.54886 0 0 .54886 21.727 22.156)"/><path d="m13.868 7.254 1.943-4.98 7.47 12.45v7.772z" fill="none" stroke="url(#D)" stroke-width=".5" transform="matrix(.54886 0 0 .54886 21.727 22.156)"/><path d="m33.908 7.133-1.822-4.92-7.226 12.45-.183 7.651Z" style="marker:none" color="#000" overflow="visible" fill="none" stroke="url(#E)" stroke-width=".5" transform="matrix(.54886 0 0 .54886 21.727 22.156)"/></svg>