<svg xmlns="http://www.w3.org/2000/svg" xmlns:xlink="http://www.w3.org/1999/xlink" viewBox="0 0 48 48"><defs><path id="i" fill="#fffdfc" fill-rule="evenodd" d="M8.5 7.99a.37.37 0 0 1-.38.37.37.37 0 0 1-.37-.37.37.37 0 0 1 .37-.38.37.37 0 0 1 .37.37" filter="url(#a)"/></defs><defs><filter id="a" width="1.832" height="1.832" x="-.416" y="-.416" color-interpolation-filters="sRGB"><feGaussianBlur stdDeviation=".13"/></filter><filter id="k" width="1.832" height="1.832" x="-.416" y="-.416" color-interpolation-filters="sRGB"><feGaussianBlur stdDeviation=".13"/></filter><filter id="m" width="1.832" height="1.832" x="-.416" y="-.416" color-interpolation-filters="sRGB"><feGaussianBlur stdDeviation=".13"/></filter><filter id="n" width="1.832" height="1.832" x="-.416" y="-.416" color-interpolation-filters="sRGB"><feGaussianBlur stdDeviation=".13"/></filter><filter id="o" width="1.832" height="1.832" x="-.416" y="-.416" color-interpolation-filters="sRGB"><feGaussianBlur stdDeviation=".13"/></filter><filter id="p" width="1.832" height="1.832" x="-.416" y="-.416" color-interpolation-filters="sRGB"><feGaussianBlur stdDeviation=".13"/></filter><filter id="q" width="1.832" height="1.832" x="-.416" y="-.416" color-interpolation-filters="sRGB"><feGaussianBlur stdDeviation=".13"/></filter><filter id="s" width="1.832" height="1.832" x="-.416" y="-.416" color-interpolation-filters="sRGB"><feGaussianBlur stdDeviation=".13"/></filter><filter id="t" width="1.832" height="1.832" x="-.416" y="-.416" color-interpolation-filters="sRGB"><feGaussianBlur stdDeviation=".13"/></filter><filter id="u" width="1.832" height="1.832" x="-.416" y="-.416" color-interpolation-filters="sRGB"><feGaussianBlur stdDeviation=".13"/></filter><filter id="v" width="1.832" height="1.832" x="-.416" y="-.416" color-interpolation-filters="sRGB"><feGaussianBlur stdDeviation=".13"/></filter><linearGradient id="e"><stop offset="0" stop-color="#fea652"/><stop offset="1" stop-color="#682f00"/></linearGradient><linearGradient id="d"><stop offset="0" stop-color="#fb830c"/><stop offset="1" stop-color="#682f00"/></linearGradient><linearGradient id="c"><stop offset="0" stop-color="#ff850c"/><stop offset="1" stop-color="#682f00"/></linearGradient><linearGradient id="b"><stop offset="0" stop-color="#4c4c4c"/><stop offset="1" stop-color="#0d0d0d"/></linearGradient><linearGradient id="f"><stop offset="0" stop-color="#ff3705"/><stop offset=".522" stop-color="#f4da01"/><stop offset="1" stop-color="#f0e600"/></linearGradient><linearGradient xlink:href="#b" id="h" x1="5.83" x2="12.91" y1="6.7" y2="13.2" gradientUnits="userSpaceOnUse"/><linearGradient xlink:href="#c" id="r" x1="52.799" x2="58.353" y1="6.447" y2="12.058" gradientUnits="userSpaceOnUse"/><linearGradient xlink:href="#d" id="j" x1="52.971" x2="57.615" y1="6.577" y2="11.781" gradientUnits="userSpaceOnUse"/><linearGradient xlink:href="#e" id="l" x1="52.506" x2="57.952" y1="6.75" y2="11.51" gradientUnits="userSpaceOnUse"/><radialGradient xlink:href="#f" id="g" cx="7.18" cy="8.2" r="6.59" fx="7.18" fy="8.2" gradientTransform="matrix(.9 .5558 -.5314 .8606 5.08 -2.85)" gradientUnits="userSpaceOnUse"/></defs><path fill="url(#g)" fill-rule="evenodd" stroke="url(#h)" stroke-width=".85" d="M13.51 5.1c.44.77-2.18 2.89-2.29 3.76-.1.88 1.95 3.55 1.36 4.2-.6.64-3.43-1.19-4.3-1.02-.86.17-2.76 2.95-3.56 2.58-.8-.36.07-3.62-.36-4.39C3.93 9.46.69 8.51.8 7.63c.1-.87 3.47-1.05 4.06-1.7.6-.64.51-4.01 1.38-4.18.86-.18 2.07 2.97 2.87 3.34.8.37 3.97-.76 4.4 0Z" enable-background="accumulate" overflow="visible" style="marker:none" transform="matrix(2.647 2.2616 -2.267 2.6553 22.22 -16.85)"/><path fill="none" stroke="#fff" stroke-linejoin="round" stroke-width="2.23" d="m43.15 26.6-13.29 3.06-4.27 13.9-7.3-12.51-14.12.53 9.24-11.12L8.95 7.43l13.08 5.48 11.25-8.56-1.32 14.56Z" enable-background="accumulate" overflow="visible" style="marker:none"/><use xlink:href="#i" fill-rule="evenodd" filter="url(#a)" transform="rotate(36.96 28.44 21) scale(3.0331)"/><g transform="translate(-36.868 19.905) scale(1.1032)"><circle cx="55.197" cy="9.228" r="3.364" fill="#ffba25" stroke="url(#j)" stroke-linecap="round" stroke-linejoin="round" paint-order="markers stroke fill"/><use xlink:href="#i" fill-rule="evenodd" filter="url(#k)" transform="rotate(36.96 60.184 61.821) scale(2.8378)"/></g><g transform="translate(-16.108 17.08) scale(.8152)"><circle cx="55.197" cy="9.228" r="3.364" fill="#ffba25" stroke="url(#l)" stroke-linecap="round" stroke-linejoin="round" paint-order="markers stroke fill"/><use xlink:href="#i" fill-rule="evenodd" filter="url(#m)" transform="rotate(36.96 60.184 61.821) scale(2.8378)"/></g><g transform="translate(4.57 19.935) scale(.5477)"><circle cx="55.197" cy="9.228" r="3.364" fill="#ffba25" stroke="#682f00" stroke-linecap="round" stroke-linejoin="round" paint-order="markers stroke fill"/><use xlink:href="#i" fill-rule="evenodd" filter="url(#n)" transform="rotate(36.96 60.184 61.821) scale(2.8378)"/></g><g transform="translate(-20.288 6.373) scale(.8687)"><circle cx="55.197" cy="9.228" r="3.364" fill="#ffba25" stroke="#682f00" stroke-linecap="round" stroke-linejoin="round" paint-order="markers stroke fill"/><use xlink:href="#i" fill-rule="evenodd" filter="url(#o)" transform="rotate(36.96 60.184 61.821) scale(2.8378)"/></g><g transform="translate(-21.511 17.774) scale(.6741)"><circle cx="55.197" cy="9.228" r="3.364" fill="#ffba25" stroke="#682f00" stroke-linecap="round" stroke-linejoin="round" paint-order="markers stroke fill"/><use xlink:href="#i" fill-rule="evenodd" filter="url(#p)" transform="rotate(36.96 60.184 61.821) scale(2.8378)"/></g><g transform="translate(-21.912 7.897) scale(.6741)"><circle cx="55.197" cy="9.228" r="3.364" fill="#ffba25" stroke="#682f00" stroke-linecap="round" stroke-linejoin="round" paint-order="markers stroke fill"/><use xlink:href="#i" fill-rule="evenodd" filter="url(#q)" transform="rotate(36.96 60.184 61.821) scale(2.8378)"/></g><g transform="translate(-38.433 7.798) scale(1.0515)"><circle cx="55.197" cy="9.228" r="3.364" fill="#ffba25" stroke="url(#r)" stroke-linecap="round" stroke-linejoin="round" paint-order="markers stroke fill"/><use xlink:href="#i" fill-rule="evenodd" filter="url(#s)" transform="rotate(36.96 60.184 61.821) scale(2.8378)"/></g><g transform="matrix(.533 0 0 .533 -17.167 22.809)"><circle cx="55.197" cy="9.228" r="3.364" fill="#ffba25" stroke="#682f00" stroke-linecap="round" stroke-linejoin="round" paint-order="markers stroke fill"/><use xlink:href="#i" fill-rule="evenodd" filter="url(#t)" transform="rotate(36.96 60.184 61.821) scale(2.8378)"/></g><g transform="matrix(.533 0 0 .533 -4.831 30.245)"><circle cx="55.197" cy="9.228" r="3.364" fill="#ffba25" stroke="#682f00" stroke-linecap="round" stroke-linejoin="round" paint-order="markers stroke fill"/><use xlink:href="#i" fill-rule="evenodd" filter="url(#u)" transform="rotate(36.96 60.184 61.821) scale(2.8378)"/></g><g transform="translate(-24.594 18.03) scale(.8103)"><circle cx="55.197" cy="9.228" r="3.364" fill="#ffba25" stroke="#682f00" stroke-linecap="round" stroke-linejoin="round" paint-order="markers stroke fill"/><use xlink:href="#i" fill-rule="evenodd" filter="url(#v)" transform="rotate(36.96 60.184 61.821) scale(2.8378)"/></g></svg>