<svg width="48" height="48" xmlns:xlink="http://www.w3.org/1999/xlink" xmlns="http://www.w3.org/2000/svg"><defs><linearGradient id="c"><stop offset="0" stop-color="#0f0f0f"/><stop offset="1" stop-color="#e5e5e5"/></linearGradient><linearGradient id="a"><stop offset="0" stop-color="#4c4c4c"/><stop offset="1" stop-color="#0d0d0d"/></linearGradient><linearGradient id="b"><stop offset=".282" stop-color="#f4f4f4"/><stop offset=".436" stop-color="#d9d9d9"/><stop offset=".754" stop-color="#919191"/></linearGradient><linearGradient xlink:href="#a" id="g" x1="5.83" x2="12.91" y1="6.7" y2="13.2" gradientUnits="userSpaceOnUse"/><linearGradient xlink:href="#c" id="f" x1="-31.192" y1="-.936" x2="-24.033" y2="8.223" gradientUnits="userSpaceOnUse"/><linearGradient xlink:href="#d" id="i" x1="7.598" y1="7.681" x2="12.404" y2="12.336" gradientUnits="userSpaceOnUse" gradientTransform="matrix(1.12453 -.29235 .29238 1.1244 47.126 26.974)"/><linearGradient id="d"><stop offset="0" stop-color="#eeeeec"/><stop offset="1" stop-color="#d2d2cc"/></linearGradient><radialGradient xlink:href="#b" id="e" cx="7.18" cy="8.2" r="6.59" fx="7.18" fy="8.2" gradientTransform="matrix(.9 .5558 -.5314 .8606 5.08 -2.85)" gradientUnits="userSpaceOnUse"/><filter id="h" width="1.832" height="1.832" x="-.416" y="-.416" color-interpolation-filters="sRGB"><feGaussianBlur stdDeviation=".13"/></filter></defs><path fill="url(#e)" fill-rule="evenodd" d="M13.51 5.1c.44.77-2.18 2.89-2.29 3.76-.1.88 1.95 3.55 1.36 4.2-.6.64-3.43-1.19-4.3-1.02-.86.17-2.76 2.95-3.56 2.58-.8-.36.07-3.62-.36-4.39C3.93 9.46.69 8.51.8 7.63c.1-.87 3.47-1.05 4.06-1.7.6-.64.51-4.01 1.38-4.18.86-.18 2.07 2.97 2.87 3.34.8.37 3.97-.76 4.4 0z" enable-background="accumulate" overflow="visible" style="marker:none" transform="matrix(2.647 2.2616 -2.267 2.6553 22.22 -16.85)"/><path style="-inkscape-stroke:none" d="M-30.844 9.714c4.98.362 9.761-3.049 10.625-8.13a9.253 9.253 0 0 0-.128-3.705l-1.858-.147a7.524 7.524 0 0 1 .262 3.56c-.753 4.428-5.21 7.344-9.596 6.576a8.72 8.72 0 0 1-2.592-.896.875.875 0 0 0-1.184.36.875.875 0 0 0 .36 1.184c.973.519 2.025.883 3.113 1.074.332.058.666.1.998.124zm.435-3.222c3.359.153 6.563-2.196 7.028-5.673.423-3.16-1.73-6.335-5.016-6.72a5.272 5.272 0 0 0-2.09.183l-1.187 2.758A3.549 3.549 0 0 1-28.6-4.163c2.254.264 3.783 2.518 3.485 4.749-.36 2.69-3.052 4.5-5.713 4.11-2.735-.4-4.675-2.849-4.795-5.526l-1.736.257c.23 3.41 2.72 6.48 6.276 7 .225.033.45.055.674.065zm.137-3.225C-28.413 3.373-26.53 2-26.54-.038a2.845 2.845 0 0 0-.747-1.913c-.478-.524-1.238-.889-2.062-.779a.875.875 0 0 0-.75.981.875.875 0 0 0 .982.753c.218-.029.367.04.537.225.17.186.29.494.291.742.005.916-.947 1.604-1.883 1.55-1.37-.078-2.34-1.459-2.212-2.827l-1.762.26c.008 2.145 1.578 4.182 3.874 4.313zm6.592-8.185-1.752-3.478a8.67 8.67 0 0 0-2.191-.665 8.374 8.374 0 0 0-1.383-.108l-.772 1.798a6.638 6.638 0 0 1 1.871.037c1.708.28 3.168 1.175 4.227 2.416z" transform="matrix(-1.53706 .10068 -.10068 -1.53706 -17.52 32.65)" color="#000" fill="url(#f)" fill-rule="evenodd"/><path fill="none" stroke="url(#g)" stroke-width=".85" d="M13.51 5.1c.44.77-2.18 2.89-2.29 3.76-.1.88 1.95 3.55 1.36 4.2-.6.64-3.43-1.19-4.3-1.02-.86.17-2.76 2.95-3.56 2.58-.8-.36.07-3.62-.36-4.39C3.93 9.46.69 8.51.8 7.63c.1-.87 3.47-1.05 4.06-1.7.6-.64.51-4.01 1.38-4.18.86-.18 2.07 2.97 2.87 3.34.8.37 3.97-.76 4.4 0z" enable-background="accumulate" overflow="visible" style="marker:none" transform="matrix(2.647 2.2616 -2.267 2.6553 22.22 -16.85)"/><path fill="none" stroke="#fff" stroke-linejoin="round" stroke-width="2.23" d="m43.15 26.6-13.29 3.06-4.27 13.9-7.3-12.51-14.12.53 9.24-11.12L8.95 7.43l13.08 5.48 11.25-8.56-1.32 14.56Z" enable-background="accumulate" overflow="visible" style="marker:none"/><path fill="#fffdfc" fill-rule="evenodd" d="M8.5 7.99a.37.37 0 0 1-.38.37.37.37 0 0 1-.37-.37.37.37 0 0 1 .37-.38.37.37 0 0 1 .37.37" filter="url(#h)" transform="rotate(36.96 28.44 21) scale(3.0331)"/><path fill="#fff" paint-order="stroke fill markers" d="M22.09 22.217h20.228v20.227H22.09z"/><path class="st0" d="M22.09 22.217V36.25c.567-.906 1.387-1.594 2.46-2.04.587-.237 1.255-.359 2.095-.384 1.447-.04 2.586-.648 3.386-1.802.566-.82.779-1.806.592-2.778a3.45 3.45 0 0 0-1.478-2.252c-1.33-.89-3.092-.612-3.998.633-.708.971-.607 2.317.233 3.071.648.577 1.574.638 2.201.137.466-.37.608-1.007.324-1.457-.141-.223-.39-.35-.612-.32-.122.02-.203.072-.233.142-.025.071-.005.157.071.253.07.092.096.198.07.31a.458.458 0 0 1-.227.298c-.258.146-.597.1-.85-.117-.35-.298-.466-.804-.299-1.285.274-.8 1.18-1.245 2.06-1.022a2.194 2.194 0 0 1 1.361 1.037 2.5 2.5 0 0 1 .233 1.918c-.38 1.387-1.75 2.277-3.249 2.105-1.675-.187-2.98-1.604-3.092-3.365a4.12 4.12 0 0 1 2.363-3.963 4.663 4.663 0 0 1 6.124 2.1c.87 1.69.83 3.422-.122 5.147-.678 1.225-.769 2.47-.273 3.7.688 1.695 2.51 2.641 4.251 2.201 1.594-.405 2.591-1.948 2.267-3.512-.268-1.3-1.493-2.156-2.728-1.908-.936.187-1.583 1.053-1.437 1.928.081.486.425.87.86.962.284.06.507 0 .699-.177a.397.397 0 0 0 .132-.38c-.02-.116-.097-.167-.213-.152-.202.03-.324-.035-.39-.101-.065-.06-.141-.182-.121-.39.025-.283.268-.541.582-.632.562-.162 1.204.192 1.457.804.32.775-.015 1.721-.78 2.207-1.021.648-2.388.374-3.177-.628-.972-1.234-.774-3.051.45-4.14a3.585 3.585 0 0 1 2.642-.89 3.752 3.752 0 0 1 2.621 1.336 4.237 4.237 0 0 1 .992 3.122 4.507 4.507 0 0 1-1.61 3.077c-1.785 1.498-4.442 1.508-6.315.02-.653-.52-1.113-1.189-1.472-1.776a3.99 3.99 0 0 0-5.117-1.513 3.45 3.45 0 0 0-1.796 2.07 3.233 3.233 0 0 0 .263 2.591 2.791 2.791 0 0 0 1.771 1.331c.699.162 1.402.046 1.979-.34.86-.576 1.19-1.674.764-2.55-.304-.627-.977-.971-1.594-.82-.41.102-.653.345-.734.72-.05.237.015.42.187.546.046.035.122.07.193.05.055-.015.106-.07.136-.152a.409.409 0 0 1 .223-.242.44.44 0 0 1 .354.025c.253.121.4.41.365.739-.046.46-.43.865-.942.976-.728.162-1.523-.273-1.847-1.012-.44-1.002-.04-2.206.931-2.803a2.756 2.756 0 0 1 2.141-.324c.78.197 1.432.693 1.847 1.397.85 1.462.501 3.294-.79 4.438h14.044V22.217Z" fill="#ff4713"/><ellipse ry="6.618" rx="6.577" cy="41.119" cx="41.108" style="marker:none" color="#000" overflow="visible" stroke="#fff" stroke-width=".539" enable-background="accumulate"/><g color="#000"><path style="marker:none" d="M60.644 33.586a2.176 2.176 0 1 1-4.21 1.095 2.176 2.176 0 0 1 4.21-1.095zM56.64 26.83a1.255 1.255 0 0 0-.9 1.533l.514 1.978c-.045.235-.07.448-.186.536-.092.07-.254.073-.428.07l-1.918-1.125a1.282 1.282 0 0 0-1.75.455 1.281 1.281 0 0 0 .455 1.75l1.87 1.097c.104.168.173.321.156.447-.017.126-.117.259-.263.393l-2.054.534a1.255 1.255 0 0 0-.901 1.534c.175.675.86 1.076 1.534.901l1.978-.514c.235.044.448.07.536.185.07.093.072.254.07.429l-1.126 1.917a1.281 1.281 0 0 0 .455 1.75 1.282 1.282 0 0 0 1.75-.455l1.098-1.87c.168-.104.321-.173.447-.156.126.017.259.117.393.263l.535 2.054c.175.675.86 1.076 1.534.9a1.255 1.255 0 0 0 .9-1.533l-.514-1.978c.044-.235.07-.447.186-.536.092-.07.254-.072.428-.07l1.917 1.126a1.281 1.281 0 0 0 1.75-.455 1.281 1.281 0 0 0-.455-1.75l-1.869-1.098c-.104-.167-.174-.32-.157-.446.017-.127.118-.26.264-.394l2.054-.534a1.255 1.255 0 0 0 .9-1.534 1.255 1.255 0 0 0-1.533-.9l-1.978.514c-.235-.044-.448-.07-.536-.186-.07-.092-.073-.254-.07-.428l1.125-1.917a1.281 1.281 0 0 0-.455-1.75 1.282 1.282 0 0 0-1.75.455l-1.098 1.87c-.167.103-.32.173-.446.156-.127-.017-.26-.118-.394-.263l-.534-2.055a1.255 1.255 0 0 0-1.534-.9z" overflow="visible" fill="none" stroke="#000" stroke-width=".859" enable-background="accumulate" transform="matrix(.62607 0 0 .62996 4.585 19.821)"/><path d="M60.479 33.088a2.176 2.176 0 1 1-4.211 1.095 2.176 2.176 0 0 1 4.21-1.095zm-4.005-6.756a1.255 1.255 0 0 0-.901 1.534l.514 1.978c-.044.234-.07.447-.185.535-.093.07-.254.073-.429.071l-1.917-1.126a1.282 1.282 0 0 0-1.75.455 1.281 1.281 0 0 0 .455 1.75l1.87 1.098c.103.167.173.32.156.446-.017.126-.118.26-.263.394L51.969 34a1.255 1.255 0 0 0-.9 1.533c.175.675.859 1.077 1.533.901l1.979-.514c.234.044.447.07.535.186.07.092.073.253.071.428l-1.126 1.917a1.281 1.281 0 0 0 .455 1.75 1.281 1.281 0 0 0 1.75-.455l1.098-1.87c.167-.103.32-.173.447-.156.126.017.258.118.393.263l.534 2.054c.175.675.86 1.076 1.534.901a1.255 1.255 0 0 0 .9-1.534l-.513-1.978c.044-.234.07-.447.185-.535.093-.07.254-.073.429-.071l1.917 1.126a1.282 1.282 0 0 0 1.75-.455 1.281 1.281 0 0 0-.455-1.75l-1.87-1.098c-.104-.167-.173-.32-.156-.446.017-.127.117-.26.263-.394l2.054-.534a1.255 1.255 0 0 0 .901-1.534 1.255 1.255 0 0 0-1.534-.9l-1.978.514c-.235-.044-.447-.07-.536-.186-.07-.092-.072-.253-.07-.428l1.126-1.917a1.281 1.281 0 0 0-.455-1.75 1.281 1.281 0 0 0-1.75.455l-1.098 1.87c-.168.103-.321.173-.447.156-.126-.017-.259-.118-.393-.263l-.534-2.054a1.255 1.255 0 0 0-1.534-.901z" style="marker:none" overflow="visible" fill="url(#i)" fill-rule="evenodd" stroke="#888a85" stroke-width=".429" enable-background="accumulate" transform="matrix(.62607 0 0 .62996 4.585 19.821)"/></g></svg>