<svg width="64mm" height="64mm" viewBox="0 0 64 64" xmlns:xlink="http://www.w3.org/1999/xlink" xmlns="http://www.w3.org/2000/svg"><defs><linearGradient id="m"><stop offset="0" stop-color="#7b2800"/><stop offset=".503" stop-color="#ffa10e"/><stop offset="1" stop-color="#ffe93d"/></linearGradient><linearGradient id="l"><stop offset="0" stop-color="#ffd827"/><stop offset="1" stop-color="#b33f00"/></linearGradient><linearGradient id="k"><stop offset="0" stop-color="#009dee"/><stop offset="1" stop-color="#003753"/></linearGradient><linearGradient id="j"><stop offset="0" stop-color="#b2b2b2"/><stop offset="1" stop-color="#484848"/></linearGradient><linearGradient id="i"><stop offset="0" stop-color="#6fff6f"/><stop offset="1" stop-color="#005800"/></linearGradient><linearGradient id="h"><stop offset="0" stop-color="#c2ffdb"/><stop offset=".255" stop-color="#6fff6f"/><stop offset="1" stop-color="#004d00"/></linearGradient><linearGradient id="g"><stop offset="0" stop-color="#fff"/><stop offset=".468" stop-color="#dadada"/><stop offset="1" stop-color="#6e6e6e"/></linearGradient><linearGradient id="f"><stop offset="0" stop-color="#fff"/><stop offset=".513" stop-color="#d0d0d0"/><stop offset="1" stop-color="#676767"/></linearGradient><linearGradient id="e"><stop offset="0" stop-color="#fff"/><stop offset=".741" stop-color="#d3d3d3"/><stop offset=".994" stop-color="#8e8e8e"/></linearGradient><linearGradient id="d"><stop offset="0" stop-color="#fff"/><stop offset=".399" stop-color="#6fff6f"/><stop offset="1" stop-color="#007d00"/></linearGradient><linearGradient id="c"><stop offset=".113" stop-color="#fff"/><stop offset=".244" stop-color="#fff4b7"/><stop offset=".396" stop-color="#ffdc17"/><stop offset=".705" stop-color="#ffc71e"/><stop offset="1" stop-color="#9d4800"/></linearGradient><linearGradient id="b"><stop offset=".198" stop-color="#fff"/><stop offset=".398" stop-color="#3deaff"/><stop offset=".545" stop-color="#02b7ff"/><stop offset=".73" stop-color="#0ae"/><stop offset="1" stop-color="#006d99"/></linearGradient><linearGradient id="a"><stop offset=".142" stop-color="#fff"/><stop offset=".669" stop-color="#d7d7d7"/><stop offset="1" stop-color="#8d8d8d"/></linearGradient><linearGradient xlink:href="#a" id="y" x1="10.148" y1="5.12" x2="35.432" y2="39.969" gradientUnits="userSpaceOnUse"/><linearGradient xlink:href="#b" id="p" x1="23.651" y1="14.587" x2="43.913" y2="55.855" gradientUnits="userSpaceOnUse"/><linearGradient xlink:href="#c" id="t" x1="-20.459" y1="-18.821" x2="-60.891" y2="-30.538" gradientUnits="userSpaceOnUse"/><linearGradient xlink:href="#d" id="x" x1="34.063" y1="36.533" x2="60.969" y2="61.622" gradientUnits="userSpaceOnUse" gradientTransform="translate(-.04 -.234)"/><linearGradient xlink:href="#h" id="s" x1="40.025" y1="51.3" x2="61.612" y2="63.024" gradientUnits="userSpaceOnUse" gradientTransform="matrix(.66382 -.33402 .43012 1.41934 -5.857 -6.344)"/><linearGradient xlink:href="#i" id="o" x1="54.059" y1="45.594" x2="62.957" y2="63.336" gradientUnits="userSpaceOnUse" gradientTransform="translate(.39 .117)"/><linearGradient xlink:href="#j" id="A" x1="15.555" y1="11.552" x2="30.07" y2="35.01" gradientUnits="userSpaceOnUse"/><linearGradient xlink:href="#k" id="r" x1="28.995" y1="22.531" x2="41.349" y2="53.158" gradientUnits="userSpaceOnUse"/><linearGradient xlink:href="#l" id="w" x1="-28.175" y1="-18.696" x2="-56.278" y2="-31.224" gradientUnits="userSpaceOnUse"/><linearGradient xlink:href="#m" id="u" x1="-62.22" y1="-25.308" x2="-18.692" y2="-25.308" gradientUnits="userSpaceOnUse"/><linearGradient xlink:href="#n" id="E" x1="7.598" y1="7.681" x2="12.404" y2="12.336" gradientUnits="userSpaceOnUse" gradientTransform="matrix(1.12453 -.29235 .29238 1.1244 47.126 26.974)"/><linearGradient id="n"><stop offset="0" stop-color="#eeeeec"/><stop offset="1" stop-color="#d2d2cc"/></linearGradient><radialGradient xlink:href="#e" id="z" cx="22.484" cy="23.108" fx="22.484" fy="23.108" r="13.917" gradientTransform="matrix(.54506 .85524 -.88595 .5605 30.701 -9.074)" gradientUnits="userSpaceOnUse"/><radialGradient xlink:href="#f" id="q" cx="35.62" cy="35.459" fx="35.62" fy="35.459" r="15.154" gradientUnits="userSpaceOnUse" gradientTransform="rotate(72.063 41.544 31.245)scale(1.22763 1.07673)"/><radialGradient xlink:href="#g" id="v" cx="-40.187" cy="-25.201" fx="-40.187" fy="-25.201" r="14.157" gradientUnits="userSpaceOnUse" gradientTransform="rotate(200.522 -44.48 -25.978)scale(1.21365 1)"/><filter id="B" x="-.621" y="-.621" width="2.241" height="2.241" color-interpolation-filters="sRGB"><feGaussianBlur stdDeviation=".707"/></filter><filter id="C" x="-.663" y="-.535" width="2.325" height="2.069" color-interpolation-filters="sRGB"><feGaussianBlur stdDeviation="0.707 0.726"/></filter><filter id="D" x="-.621" y="-.621" width="2.241" height="2.241" color-interpolation-filters="sRGB"><feGaussianBlur stdDeviation=".707"/></filter></defs><path d="M63.5 63.513 52.09 27.128l-10.845 4.995Z" fill="url(#o)" stroke="#295732" stroke-width=".945" stroke-linecap="round" stroke-linejoin="round"/><circle cx="35.273" cy="35.309" transform="rotate(-9.414)" r="22.482" fill="url(#p)" stroke="#006080" stroke-width="1.63" stroke-linecap="round" stroke-linejoin="round"/><circle cx="35.62" cy="35.459" r="14.044" transform="rotate(-9.414)" fill="url(#q)" stroke="url(#r)" stroke-width="2.221" stroke-linecap="round" stroke-linejoin="round"/><path d="M63.512 63.483 33.416 41.34 34 58.062Z" fill="url(#s)" stroke="#295732" stroke-width=".985" stroke-linecap="round" stroke-linejoin="round"/><circle cx="-40.456" cy="-25.308" r="21.002" transform="rotate(-149.458)" fill="url(#t)" stroke="url(#u)" stroke-width="1.523" stroke-linecap="round" stroke-linejoin="round"/><circle cx="-40.187" cy="-25.201" r="13.12" transform="rotate(-149.458)" fill="url(#v)" stroke="url(#w)" stroke-width="2.075" stroke-linecap="round" stroke-linejoin="round"/><path d="M63.505 63.506 40.207 33.32l-8.446 8.439Z" fill="url(#x)" stroke="#295732" stroke-width=".945" stroke-linecap="round" stroke-linejoin="round"/><ellipse cx="22.467" cy="23.045" transform="rotate(-1.339)skewX(-.133)" rx="20.607" ry="21.709" fill="url(#y)" stroke="#838383" stroke-width="1.533" stroke-linecap="round" stroke-linejoin="round"/><ellipse cx="22.484" cy="23.108" transform="rotate(-1.339)skewX(-.133)" rx="12.872" ry="13.561" fill="url(#z)" stroke="url(#A)" stroke-width="2.09" stroke-linecap="round" stroke-linejoin="round"/><circle cx="17.468" cy="16.687" r="1.368" fill="#fff"/><circle style="mix-blend-mode:normal" cx="29.039" cy="29.412" r="1.368" transform="translate(-23.577 -23.832)scale(1.79036)" fill="#fff" filter="url(#B)"/><path style="mix-blend-mode:normal" transform="translate(-26.424 -3.209)scale(1.79036)" d="M30.32 29.412a1.28 1.63 0 0 1-1.159 1.623 1.28 1.63 0 0 1-1.38-1.314 1.28 1.63 0 0 1 .898-1.872 1.28 1.63 0 0 1 1.549.958l-1.189.605z" fill="#fff" filter="url(#C)"/><circle style="mix-blend-mode:normal" cx="29.039" cy="29.412" r="1.368" transform="translate(-4.998 -17.249)scale(1.79036)" fill="#fff" filter="url(#D)"/><ellipse ry="10.028" rx="9.966" cy="53.585" cx="53.641" style="marker:none" color="#000" overflow="visible" stroke="#fff" stroke-width=".817" enable-background="accumulate"/><g color="#000"><path style="marker:none" d="M60.644 33.586a2.176 2.176 0 1 1-4.21 1.095 2.176 2.176 0 0 1 4.21-1.095zM56.64 26.83a1.255 1.255 0 0 0-.9 1.533l.514 1.978c-.045.235-.07.448-.186.536-.092.07-.254.073-.428.07l-1.918-1.125a1.28 1.28 0 0 0-1.75.455 1.28 1.28 0 0 0 .455 1.75l1.87 1.097c.104.168.173.321.156.447s-.117.259-.263.393l-2.054.534a1.255 1.255 0 0 0-.901 1.534c.175.675.86 1.076 1.534.901l1.978-.514c.235.044.448.07.536.185.07.093.072.254.07.429l-1.126 1.917a1.28 1.28 0 0 0 .455 1.75 1.28 1.28 0 0 0 1.75-.455l1.098-1.87c.168-.104.321-.173.447-.156s.259.117.393.263l.535 2.054c.175.675.86 1.076 1.534.9a1.255 1.255 0 0 0 .9-1.533l-.514-1.978c.044-.235.07-.447.186-.536.092-.07.254-.072.428-.07l1.917 1.126a1.28 1.28 0 0 0 1.75-.455 1.28 1.28 0 0 0-.455-1.75l-1.869-1.098c-.104-.167-.174-.32-.157-.446.017-.127.118-.26.264-.394l2.054-.534a1.255 1.255 0 0 0 .9-1.534 1.255 1.255 0 0 0-1.533-.9l-1.978.514c-.235-.044-.448-.07-.536-.186-.07-.092-.073-.254-.07-.428l1.125-1.917a1.28 1.28 0 0 0-.455-1.75 1.28 1.28 0 0 0-1.75.455l-1.098 1.87c-.167.103-.32.173-.446.156-.127-.017-.26-.118-.394-.263l-.534-2.055a1.255 1.255 0 0 0-1.534-.9z" overflow="visible" fill="none" stroke="#000" stroke-width=".859" enable-background="accumulate" transform="matrix(.94861 0 0 .9545 -1.697 21.315)"/><path d="M60.479 33.088a2.176 2.176 0 1 1-4.211 1.095 2.176 2.176 0 0 1 4.21-1.095zm-4.005-6.756a1.255 1.255 0 0 0-.901 1.534l.514 1.978c-.044.234-.07.447-.185.535-.093.07-.254.073-.429.071l-1.917-1.126a1.28 1.28 0 0 0-1.75.455 1.28 1.28 0 0 0 .455 1.75l1.87 1.098c.103.167.173.32.156.446s-.118.26-.263.394L51.969 34a1.255 1.255 0 0 0-.9 1.533c.175.675.859 1.077 1.533.901l1.979-.514c.234.044.447.07.535.186.07.092.073.253.071.428l-1.126 1.917a1.28 1.28 0 0 0 .455 1.75 1.28 1.28 0 0 0 1.75-.455l1.098-1.87c.167-.103.32-.173.447-.156.126.017.258.118.393.263l.534 2.054c.175.675.86 1.076 1.534.901a1.255 1.255 0 0 0 .9-1.534l-.513-1.978c.044-.234.07-.447.185-.535.093-.07.254-.073.429-.071l1.917 1.126a1.28 1.28 0 0 0 1.75-.455 1.28 1.28 0 0 0-.455-1.75l-1.87-1.098c-.104-.167-.173-.32-.156-.446.017-.127.117-.26.263-.394l2.054-.534a1.255 1.255 0 0 0 .901-1.534 1.255 1.255 0 0 0-1.534-.9l-1.978.514c-.235-.044-.447-.07-.536-.186-.07-.092-.072-.253-.07-.428l1.126-1.917a1.28 1.28 0 0 0-.455-1.75 1.28 1.28 0 0 0-1.75.455l-1.098 1.87c-.168.103-.321.173-.447.156s-.259-.118-.393-.263l-.534-2.054a1.255 1.255 0 0 0-1.534-.901z" style="marker:none" overflow="visible" fill="url(#E)" fill-rule="evenodd" stroke="#888a85" stroke-width=".429" enable-background="accumulate" transform="matrix(.94861 0 0 .9545 -1.697 21.315)"/></g></svg>