<svg width="48" height="48" xmlns:xlink="http://www.w3.org/1999/xlink" xmlns="http://www.w3.org/2000/svg"><defs><linearGradient id="c"><stop offset="0" stop-color="#0f0f0f"/><stop offset="1" stop-color="#e5e5e5"/></linearGradient><linearGradient id="a"><stop offset="0" stop-color="#4c4c4c"/><stop offset="1" stop-color="#0d0d0d"/></linearGradient><linearGradient id="b"><stop offset=".282" stop-color="#f4f4f4"/><stop offset=".436" stop-color="#d9d9d9"/><stop offset=".754" stop-color="#919191"/></linearGradient><linearGradient xlink:href="#a" id="j" x1="5.83" x2="12.91" y1="6.7" y2="13.2" gradientUnits="userSpaceOnUse"/><linearGradient xlink:href="#c" id="i" x1="-31.192" y1="-.936" x2="-24.033" y2="8.223" gradientUnits="userSpaceOnUse"/><linearGradient xlink:href="#d" id="l" x1="-20.459" y1="-18.821" x2="-60.891" y2="-30.538" gradientUnits="userSpaceOnUse"/><linearGradient id="d"><stop offset=".113" stop-color="#fff"/><stop offset=".244" stop-color="#b7f8ff"/><stop offset=".48" stop-color="#17d1ff"/><stop offset=".705" stop-color="#00aaf2"/><stop offset="1" stop-color="#004c8d"/></linearGradient><linearGradient xlink:href="#e" id="m" x1="-62.22" y1="-25.308" x2="-18.692" y2="-25.308" gradientUnits="userSpaceOnUse"/><linearGradient id="e"><stop offset=".001" stop-color="#002839"/><stop offset=".503" stop-color="#0ea4ff"/><stop offset="1" stop-color="#3dd2ff"/></linearGradient><linearGradient id="f"><stop offset="0" stop-color="#fff"/><stop offset=".468" stop-color="#dadada"/><stop offset="1" stop-color="#6e6e6e"/></linearGradient><linearGradient xlink:href="#g" id="o" x1="-28.175" y1="-18.696" x2="-56.278" y2="-31.224" gradientUnits="userSpaceOnUse"/><linearGradient id="g"><stop offset="0" stop-color="#82f4ff"/><stop offset="1" stop-color="#23b6ff"/></linearGradient><radialGradient xlink:href="#b" id="h" cx="7.18" cy="8.2" r="6.59" fx="7.18" fy="8.2" gradientTransform="matrix(.9 .5558 -.5314 .8606 5.08 -2.85)" gradientUnits="userSpaceOnUse"/><radialGradient xlink:href="#f" id="n" cx="-40.187" cy="-25.201" fx="-40.187" fy="-25.201" r="14.157" gradientUnits="userSpaceOnUse" gradientTransform="matrix(-1.13663 -.42546 .35057 -.93654 -77.03 -65.9)"/><filter id="k" width="1.832" height="1.832" x="-.416" y="-.416" color-interpolation-filters="sRGB"><feGaussianBlur stdDeviation=".13"/></filter><filter id="p" x="-.663" y="-.535" width="2.325" height="2.069" color-interpolation-filters="sRGB"><feGaussianBlur stdDeviation="0.707 0.726"/></filter></defs><path fill="url(#h)" fill-rule="evenodd" d="M13.51 5.1c.44.77-2.18 2.89-2.29 3.76-.1.88 1.95 3.55 1.36 4.2-.6.64-3.43-1.19-4.3-1.02-.86.17-2.76 2.95-3.56 2.58-.8-.36.07-3.62-.36-4.39C3.93 9.46.69 8.51.8 7.63c.1-.87 3.47-1.05 4.06-1.7.6-.64.51-4.01 1.38-4.18.86-.18 2.07 2.97 2.87 3.34.8.37 3.97-.76 4.4 0z" enable-background="accumulate" overflow="visible" style="marker:none" transform="matrix(2.647 2.2616 -2.267 2.6553 22.22 -16.85)"/><path style="-inkscape-stroke:none" d="M-30.844 9.714c4.98.362 9.761-3.049 10.625-8.13a9.253 9.253 0 0 0-.128-3.705l-1.858-.147a7.524 7.524 0 0 1 .262 3.56c-.753 4.428-5.21 7.344-9.596 6.576a8.72 8.72 0 0 1-2.592-.896.875.875 0 0 0-1.184.36.875.875 0 0 0 .36 1.184c.973.519 2.025.883 3.113 1.074.332.058.666.1.998.124zm.435-3.222c3.359.153 6.563-2.196 7.028-5.673.423-3.16-1.73-6.335-5.016-6.72a5.272 5.272 0 0 0-2.09.183l-1.187 2.758A3.549 3.549 0 0 1-28.6-4.163c2.254.264 3.783 2.518 3.485 4.749-.36 2.69-3.052 4.5-5.713 4.11-2.735-.4-4.675-2.849-4.795-5.526l-1.736.257c.23 3.41 2.72 6.48 6.276 7 .225.033.45.055.674.065zm.137-3.225C-28.413 3.373-26.53 2-26.54-.038a2.845 2.845 0 0 0-.747-1.913c-.478-.524-1.238-.889-2.062-.779a.875.875 0 0 0-.75.981.875.875 0 0 0 .982.753c.218-.029.367.04.537.225.17.186.29.494.291.742.005.916-.947 1.604-1.883 1.55-1.37-.078-2.34-1.459-2.212-2.827l-1.762.26c.008 2.145 1.578 4.182 3.874 4.313zm6.592-8.185-1.752-3.478a8.67 8.67 0 0 0-2.191-.665 8.374 8.374 0 0 0-1.383-.108l-.772 1.798a6.638 6.638 0 0 1 1.871.037c1.708.28 3.168 1.175 4.227 2.416z" transform="matrix(-1.53706 .10068 -.10068 -1.53706 -17.52 32.65)" color="#000" fill="url(#i)" fill-rule="evenodd"/><path fill="none" stroke="url(#j)" stroke-width=".85" d="M13.51 5.1c.44.77-2.18 2.89-2.29 3.76-.1.88 1.95 3.55 1.36 4.2-.6.64-3.43-1.19-4.3-1.02-.86.17-2.76 2.95-3.56 2.58-.8-.36.07-3.62-.36-4.39C3.93 9.46.69 8.51.8 7.63c.1-.87 3.47-1.05 4.06-1.7.6-.64.51-4.01 1.38-4.18.86-.18 2.07 2.97 2.87 3.34.8.37 3.97-.76 4.4 0z" enable-background="accumulate" overflow="visible" style="marker:none" transform="matrix(2.647 2.2616 -2.267 2.6553 22.22 -16.85)"/><path fill="none" stroke="#fff" stroke-linejoin="round" stroke-width="2.23" d="m43.15 26.6-13.29 3.06-4.27 13.9-7.3-12.51-14.12.53 9.24-11.12L8.95 7.43l13.08 5.48 11.25-8.56-1.32 14.56Z" enable-background="accumulate" overflow="visible" style="marker:none"/><path fill="#fffdfc" fill-rule="evenodd" d="M8.5 7.99a.37.37 0 0 1-.38.37.37.37 0 0 1-.37-.37.37.37 0 0 1 .37-.38.37.37 0 0 1 .37.37" filter="url(#k)" transform="rotate(36.96 28.44 21) scale(3.0331)"/><g transform="matrix(.53262 0 0 .53262 -.116 13.85)"><circle cx="-40.456" cy="-25.308" r="21.002" transform="rotate(-149.458)" fill="url(#l)" stroke="url(#m)" stroke-width="1.523" stroke-linecap="round" stroke-linejoin="round"/><circle cx="-40.187" cy="-25.201" r="13.12" transform="rotate(-149.458)" fill="url(#n)" stroke="url(#o)" stroke-width="2.075" stroke-linecap="round" stroke-linejoin="round"/><path style="mix-blend-mode:normal" transform="matrix(1.79036 0 0 1.79036 -26.424 -3.209)" d="M30.32 29.412a1.28 1.63 0 0 1-1.159 1.623 1.28 1.63 0 0 1-1.38-1.314 1.28 1.63 0 0 1 .898-1.872 1.28 1.63 0 0 1 1.549.958l-1.189.605z" fill="#fff" filter="url(#p)"/><circle cx="8.598" cy="33.316" r="1.129" transform="matrix(1.87752 0 0 1.87752 .219 -25.997)" fill="#fff" paint-order="stroke fill markers"/></g></svg>