<svg width="48" height="48" xmlns:xlink="http://www.w3.org/1999/xlink" xmlns="http://www.w3.org/2000/svg"><defs><linearGradient id="a"><stop offset="0" stop-color="#dfeaa1"/><stop offset="1" stop-color="#9db029"/></linearGradient><linearGradient id="b"><stop offset="0" stop-color="#2e3436" stop-opacity=".691"/><stop offset="1" stop-color="#2e3436" stop-opacity="0"/></linearGradient><linearGradient xlink:href="#c" id="n" gradientUnits="userSpaceOnUse" x1="24" y1="29.167" x2="24" y2="8.341" gradientTransform="matrix(.95647 0 0 .95644 .997 -.003)"/><linearGradient id="c"><stop offset="0" stop-color="#672179"/><stop offset="1" stop-color="#c666bc"/></linearGradient><linearGradient xlink:href="#d" id="o" gradientUnits="userSpaceOnUse" x1="32" y1="7.746" x2="48.063" y2="7.746" gradientTransform="matrix(.95647 0 0 .95644 .997 -.003)"/><linearGradient id="d"><stop offset="0" stop-color="#894f98"/><stop offset="1" stop-color="#321c37"/></linearGradient><linearGradient xlink:href="#e" id="p" gradientUnits="userSpaceOnUse" x1="12.77" y1="8.325" x2="6.802" y2="4.77" gradientTransform="matrix(.95647 0 0 .95644 .997 -.003)"/><linearGradient id="e"><stop offset="0" stop-color="#361f3c"/><stop offset="1" stop-color="#6a3d76"/></linearGradient><linearGradient xlink:href="#f" id="q" gradientUnits="userSpaceOnUse" x1="24.389" y1="19.365" x2="33.325" y2="5.016" gradientTransform="matrix(.95647 0 0 .95644 .997 -.003)"/><linearGradient id="f"><stop offset="0" stop-color="#6f2b8c"/><stop offset="1" stop-color="#ad7fa8"/></linearGradient><linearGradient xlink:href="#g" id="r" gradientUnits="userSpaceOnUse" x1="24.516" y1="14.73" x2="32.563" y2="1.016" gradientTransform="matrix(.95647 0 0 .95644 .997 -.003)"/><linearGradient id="g"><stop offset="0" stop-color="#361f3c"/><stop offset="1" stop-color="#894f99"/></linearGradient><linearGradient xlink:href="#h" id="s" x1="18.238" y1="2.256" x2="24.573" y2="29.779" gradientUnits="userSpaceOnUse"/><linearGradient id="h"><stop offset="0" stop-color="#fff"/><stop offset="1" stop-color="#fff" stop-opacity="0"/></linearGradient><linearGradient xlink:href="#i" id="t" gradientUnits="userSpaceOnUse" x1="27.069" y1="13.164" x2="26.266" y2="44.864" gradientTransform="matrix(.95647 0 0 .95644 .997 -.003)"/><linearGradient id="i"><stop offset="0" stop-color="#ffd00d"/><stop offset=".5" stop-color="#ff8841"/><stop offset="1" stop-color="#a40000"/></linearGradient><linearGradient xlink:href="#j" id="u" gradientUnits="userSpaceOnUse" x1="24.911" y1="13.164" x2="23.853" y2="46.705" gradientTransform="matrix(.95647 0 0 .95644 .997 -.003)"/><linearGradient id="j"><stop offset="0" stop-color="#ffec6c"/><stop offset=".625" stop-color="#ffa337"/><stop offset="1" stop-color="#c36000"/></linearGradient><linearGradient xlink:href="#k" id="v" x1="24.496" y1="30.877" x2="24.018" y2="44.528" gradientUnits="userSpaceOnUse"/><linearGradient id="k"><stop offset="0" stop-color="#fce94f"/><stop offset="1" stop-color="#fce94f" stop-opacity="0"/></linearGradient><linearGradient xlink:href="#l" id="w" gradientUnits="userSpaceOnUse" x1="34.189" y1="4.512" x2="47.531" y2="10.175"/><linearGradient id="l"><stop offset="0" stop-color="#c4a000"/><stop offset="1" stop-color="#c4a000" stop-opacity="0"/></linearGradient><linearGradient xlink:href="#l" id="x" x1="14.634" y1="4.512" x2="26.324" y2="22.746" gradientUnits="userSpaceOnUse"/><linearGradient xlink:href="#m" id="y" gradientUnits="userSpaceOnUse" x1="33.046" y1="4.195" x2="21.182" y2="22.564"/><linearGradient id="m"><stop offset="0" stop-color="#ffd412"/><stop offset="1" stop-color="#c4a000" stop-opacity="0"/></linearGradient></defs><path fill="#cfcfcf" d="M3.976.063h28.955L38.06 5.19l5.882 5.883v36.838H3.976z"/><path opacity=".08" fill="#040000" d="M43.942 47.912H3.976v-8.637L22.66 20.592l1.107-1.106.612-.613L25.4 17.85l1.212-1.212L38.06 5.191l5.882 5.883z"/><path fill="#777" d="M43.942 11.075H32.93V.063z"/><path fill="#fff" paint-order="stroke fill markers" d="M2.573 4.55h19.482v7.728H2.573z"/><text xml:space="preserve" style="line-height:0%;-inkscape-font-specification:&quot;Arial, Normal&quot;;font-variant-ligatures:normal;font-variant-caps:normal;font-variant-numeric:normal;font-variant-east-asian:normal;text-align:start" x="4.301" y="9.986" font-weight="400" font-size="4.602" font-family="Arial" letter-spacing="0" word-spacing="0" stroke-width=".384"><tspan x="4.301" y="9.986" style="line-height:1.25;-inkscape-font-specification:&quot;Arial, Normal&quot;;font-variant-ligatures:normal;font-variant-caps:normal;font-variant-numeric:normal;font-variant-east-asian:normal">Header </tspan></text><path d="m23.893 45.459 22.537-31.17L34.77 7.17 23.953 25.066 13.134 7.171 1.476 14.289Z" fill="url(#n)" fill-rule="evenodd" stroke="#361f3c" transform="matrix(.5585 0 0 .5585 21.665 22.124)"/><path d="M46.49 14.276 40.402 5.03 32.4.727l2.263 6.55Z" style="marker:none" color="#000" overflow="visible" fill="url(#o)" fill-rule="evenodd" stroke="#361f3c" stroke-linejoin="bevel" transform="matrix(.5585 0 0 .5585 21.665 22.124)"/><path d="m28.971 26.226 1.425-3.799 4.68 7.7-.034 5.935z" fill="#5c3566" fill-rule="evenodd" stroke="#361f3c" stroke-linejoin="bevel" stroke-width=".55851"/><path d="M1.168 14.289 7.51 4.916 15.64.74l-2.39 6.423Z" fill="#ad7fa8" fill-rule="evenodd" stroke="url(#p)" stroke-linejoin="bevel" transform="matrix(.5585 0 0 .5585 21.665 22.124)"/><path d="m34.762 7.284-2.55-6.8-8.077 14.148-.243 10.506Z" style="marker:none" color="#000" overflow="visible" fill="url(#q)" fill-rule="evenodd" stroke="url(#r)" stroke-linejoin="bevel" transform="matrix(.5585 0 0 .5585 21.665 22.124)"/><path d="m35.01 46.618 11.806-16.357-5.562-3.331-6.212 10.266-6.245-10.266-5.528 3.33Z" fill="none" stroke="#fce94f" stroke-width=".55851"/><path d="m23.886 42.262 19.743-27.446-8.18-4.885-11.313 18.572L12.38 9.931l-8.183 4.885Z" fill="none" stroke="url(#s)" transform="matrix(.5585 0 0 .5585 21.665 22.124)"/><path d="M39.833 21.737c.39-1.846.51-3.658-.839-5.695-.258 4.059-1.49 3.01-2.359 6.149-.423-4.385-1.98-5.405-2.049-9.125-3.082 5.31.163 9.22-3.658 13.92-.795-2.387 1.303-5.039-.595-7.468-1.854 7.043-4.112 3.407-5.897 10.356-.465-1.38-1.105-2.723-1.944-3.914-.912 1.912-2.049 3.56-1.452 5.753-4.328-4.899-.483-7.317-2.983-11.644-.673 4.098-1.962 2.544-2.828 6.333-1.088-1.386-.85-2.726-1.102-4.26-.659-1.789-1.367-2.036-2.378-3.629 1.051 6.382-1.894 4.081-1.278 6.504L23.89 43.78z" fill="url(#t)" fill-rule="evenodd" stroke="url(#u)" transform="matrix(.5585 0 0 .5585 21.665 22.124)"/><path d="M39.432 21.297c-.109-1.082.42-1.95-.297-3.386-.89 3.374-2.072 2.289-2.82 4.991-.608-4.019-1.827-3.864-2.068-7.615-.285 4.877-.406 9.762-3.697 13.809-1.352-2.602-.026-5.346.1-8.288-2.929 7.617-3.919 2.551-6.297 11.747-.4-1.189-1.073-3.924-1.795-4.95-.785 1.648-1.764 3.917-1.25 5.805-5.002-4.887-2.663-7.637-3.115-11.606-1.065 3.528-2.114 2.312-2.86 6-2.576-2.64-.546-5.036-2.753-7.158.176 3.067-1.388 2.36-1.222 4.265l12.475 17.365z" fill="none" stroke="url(#v)" transform="matrix(.5585 0 0 .5585 21.665 22.124)"/><path d="m23.508 28.982 2.635-3.77 3.445-1.836-.948 2.55Z" fill="none" stroke="#fce94f" stroke-width=".279255"/><path d="m44.695 12.575-4.843-7.09-6.194-3.279 1.73 4.737Z" style="marker:none" color="#000" overflow="visible" fill="none" stroke="url(#w)" stroke-width=".5" transform="matrix(.5585 0 0 .5585 21.665 22.124)"/><path d="m13.868 7.254 1.943-4.98 7.47 12.45v7.772z" fill="none" stroke="url(#x)" stroke-width=".5" transform="matrix(.5585 0 0 .5585 21.665 22.124)"/><path d="m33.908 7.133-1.822-4.92-7.226 12.45-.183 7.651Z" style="marker:none" color="#000" overflow="visible" fill="none" stroke="url(#y)" stroke-width=".5" transform="matrix(.5585 0 0 .5585 21.665 22.124)"/></svg>