<svg xmlns="http://www.w3.org/2000/svg" viewBox="0 0 48 48"><path fill="#fff" d="M105.872 145.2s-1.802 1.67-3.292 2.64c-1.63 1-3.2 1.821-3.2 1.821l6.522-.02zM91.89 106.54c-13.06.8-24.47 13.83-21.66 27.07 1.41 7.25 6.98 14.301 14.3 16.031l12.32.04c2.72-1.01 8.732-4.501 9.042-8.571v-17.83c-5.3-9.64-18.682-8.8-24.692-1.5-5.95 8.22-.8 19.74 7 21.01 5.4.88 9.2-.57 11.67-3.78 2.72-3.73 2.96-7.94 1.11-11.3-2.7-6.57-15-7.45-15.93 1.92.27 4.73 4.41 8.53 6.75 7.29 3.52-.75 2.83-4.95.6-6.02-2.61-1.26-3.37.27-3.6-1.63-.33-2.57 1.95-3.82 6.15-2.92 6 3.07 3.83 11.37-1.42 12.85a8.33 8.33 0 0 1-9.05-2.66c-2.43-2.91-2.3-7.44-1.24-10.29 3.26-6.83 14.03-8.1 18.57-1.52 6.18 7.3.72 19.38-8.46 20.67-10.12 2.22-19.67-8.26-17.41-18.15 1.76-11.02 15.74-16.22 25.26-12.2 2 .73 3.9 1.9 4.67 2.47v-3.34l.01-4.08c-1.01-.8-2.12-1.4-4.16-2.19a24.23 24.23 0 0 0-7.2-1.36c-.88-.06-1.76-.06-2.63-.01zM46 105.12a46.109 46.109 0 0 0-1.78 3.62l.02 40.961 6.73-.01H60c-5.83-8.29-7.43-18.861-5.39-28.581Z" color="#000" font-family="'Gill Sans Ultra Bold'" font-size="44.68" font-weight="400" letter-spacing="0" overflow="visible" paint-order="markers stroke fill" style="line-height:1.25;-inkscape-font-specification:&quot;Gill Sans Ultra Bold, Normal&quot;;font-variant-ligatures:normal;font-variant-position:normal;font-variant-caps:normal;font-variant-numeric:normal;font-variant-alternates:normal;font-variant-east-asian:normal;font-feature-settings:normal;font-variation-settings:normal;text-indent:0;text-align:start;text-decoration-line:none;text-decoration-style:solid;text-decoration-color:#000;text-transform:none;text-orientation:mixed;white-space:normal;shape-padding:0;shape-margin:0;inline-size:0;isolation:auto;mix-blend-mode:normal;solid-color:#000;solid-opacity:1" transform="translate(-1.273 -.847) scale(.3103)" word-spacing="0"/><path fill="#fff" d="M92.3 92.77c-13.93.63-26.93 9.98-32.42 22.67l-.64 14.3-2-3.73c-.03.24-.07.48-.09.73-.545 8.204 1.931 16.446 6.96 22.951h12.5c-11.17-7.71-13.42-24.861-5-35.411 7.147-10.041 21.372-14.014 32.64-9.299.818.343 2.179.652 3.066.639 1.505-.022 3.36-.036 4.834-.05h10.98c-7.01-7.52-16.92-12.38-27.25-12.76-1.2-.08-2.39-.09-3.57-.04Z" color="#000" font-family="'Gill Sans Ultra Bold'" font-size="44.68" font-weight="400" letter-spacing="0" overflow="visible" paint-order="markers stroke fill" style="line-height:1.25;-inkscape-font-specification:&quot;Gill Sans Ultra Bold, Normal&quot;;font-variant-ligatures:normal;font-variant-position:normal;font-variant-caps:normal;font-variant-numeric:normal;font-variant-alternates:normal;font-variant-east-asian:normal;font-feature-settings:normal;font-variation-settings:normal;text-indent:0;text-align:start;text-decoration-line:none;text-decoration-style:solid;text-decoration-color:#000;text-transform:none;text-orientation:mixed;white-space:normal;shape-padding:0;shape-margin:0;inline-size:0;isolation:auto;mix-blend-mode:normal;solid-color:#000;solid-opacity:1" transform="translate(-1.273 -.847) scale(.3103)" word-spacing="0"/><path fill="#fff" d="M93.48 77.61a58.6 58.6 0 0 0-15.33 2.45l18.46 6.93-35.75 6.47-.63 14.13a35.65 35.65 0 0 1 4.44-5.46c12.56-13.66 34.6-16.75 50.47-7.15 5.17 2.88 12.02 10.58 13.08 10.58l16.6.01c-.03-2.83-4.64-7.94-7.6-11.01-10.47-10.4-24.96-16.42-39.66-16.9a55.73 55.73 0 0 0-4.08-.05z" color="#000" font-family="'Gill Sans Ultra Bold'" font-size="44.68" font-weight="400" letter-spacing="0" overflow="visible" paint-order="markers stroke fill" style="line-height:1.25;-inkscape-font-specification:&quot;Gill Sans Ultra Bold, Normal&quot;;font-variant-ligatures:normal;font-variant-position:normal;font-variant-caps:normal;font-variant-numeric:normal;font-variant-alternates:normal;font-variant-east-asian:normal;font-feature-settings:normal;font-variation-settings:normal;text-indent:0;text-align:start;text-decoration-line:none;text-decoration-style:solid;text-decoration-color:#000;text-transform:none;text-orientation:mixed;white-space:normal;shape-padding:0;shape-margin:0;inline-size:0;isolation:auto;mix-blend-mode:normal;solid-color:#000;solid-opacity:1" transform="translate(-1.273 -.847) scale(.3103)" word-spacing="0"/><path fill="#fff" d="M95.5 54.72a82.92 82.92 0 0 0-31.1 6.2l-1.8 13.3 7.33 2.76c10.63-5.1 22.72-7.1 34.44-5.04 16.14 2.51 30.88 11.95 40.46 25.1V70.7h-36.612a2.538 2.538 45 0 1-2.538-2.538V55.29a85.86 85.86 0 0 0-10.18-.57Z" color="#000" font-family="'Gill Sans Ultra Bold'" font-size="44.68" font-weight="400" letter-spacing="0" overflow="visible" paint-order="markers stroke fill" style="line-height:1.25;-inkscape-font-specification:&quot;Gill Sans Ultra Bold, Normal&quot;;font-variant-ligatures:normal;font-variant-position:normal;font-variant-caps:normal;font-variant-numeric:normal;font-variant-alternates:normal;font-variant-east-asian:normal;font-feature-settings:normal;font-variation-settings:normal;text-indent:0;text-align:start;text-decoration-line:none;text-decoration-style:solid;text-decoration-color:#000;text-transform:none;text-orientation:mixed;white-space:normal;shape-padding:0;shape-margin:0;inline-size:0;isolation:auto;mix-blend-mode:normal;solid-color:#000;solid-opacity:1" transform="translate(-1.273 -.847) scale(.3103)" word-spacing="0"/><path fill="#fff" d="M96.74 25.85a111.7 111.7 0 0 0-52.52 13v27.48l.08.05c.65-.54 1.32-1.05 1.99-1.56l21.2-26.6-2.12 15.64a80.58 80.58 0 0 1 40.36-5.4l.001-.138a2.75 2.75 135.205 0 1 2.75-2.73l50.009.01c-.04-1.01-7.52-6.342-12.2-8.522a114.27 114.27 0 0 0-49.55-11.23Z" color="#000" font-family="'Gill Sans Ultra Bold'" font-size="44.68" font-weight="400" letter-spacing="0" overflow="visible" paint-order="markers stroke fill" style="line-height:1.25;-inkscape-font-specification:&quot;Gill Sans Ultra Bold, Normal&quot;;font-variant-ligatures:normal;font-variant-position:normal;font-variant-caps:normal;font-variant-numeric:normal;font-variant-alternates:normal;font-variant-east-asian:normal;font-feature-settings:normal;font-variation-settings:normal;text-indent:0;text-align:start;text-decoration-line:none;text-decoration-style:solid;text-decoration-color:#000;text-transform:none;text-orientation:mixed;white-space:normal;shape-padding:0;shape-margin:0;inline-size:0;isolation:auto;mix-blend-mode:normal;solid-color:#000;solid-opacity:1" transform="translate(-1.273 -.847) scale(.3103)" word-spacing="0"/><path fill="#fff" d="M44.22 10.61V32.1c29.98-16.79 67.85-17.97 98.97-3.5 5.3 2.41 10.41 5.24 15.3 8.42V10.6Z" color="#000" font-family="'Gill Sans Ultra Bold'" font-size="44.68" font-weight="400" letter-spacing="0" overflow="visible" paint-order="markers stroke fill" style="line-height:1.25;-inkscape-font-specification:&quot;Gill Sans Ultra Bold, Normal&quot;;font-variant-ligatures:normal;font-variant-position:normal;font-variant-caps:normal;font-variant-numeric:normal;font-variant-alternates:normal;font-variant-east-asian:normal;font-feature-settings:normal;font-variation-settings:normal;text-indent:0;text-align:start;text-decoration-line:none;text-decoration-style:solid;text-decoration-color:#000;text-transform:none;text-orientation:mixed;white-space:normal;shape-padding:0;shape-margin:0;inline-size:0;isolation:auto;mix-blend-mode:normal;solid-color:#000;solid-opacity:1" transform="translate(-1.273 -.847) scale(.3103)" word-spacing="0"/><path fill="none" stroke="#ff1515" stroke-linecap="round" stroke-linejoin="round" stroke-width="1.642" d="M11.646 19.068V1.63h35.515v12.488H32.333v6.157h12.15v12.45H32.4v13.69H11.78Z"/><path fill="#ff1717" stroke="#000" stroke-width=".087" d="m3.301 15.558 9.332 4.282 6.719-8.354-1.08 10.651 10.235 3.935-10.862 2.297-.559 10.238-5.325-9.019L1.178 32.41l7.449-7.976z"/><path fill="#fff" fill-rule="evenodd" d="M66.563 36.104 44.26 64.08 10.765 47.924a1.36 1.36 131.166 0 0-1.727 1.975L29.52 80.94 4.686 106.909a1.702 1.702 59.139 0 0 1.684 2.817L41 100.16l17.005 31.64a1.71 1.71 167.158 0 0 3.213-.733L62.83 95.18l36.307-6.57a1.439 1.439 95.136 0 0 .249-2.763l-2.076-.777-32.47-12.2 4.824-35.44a1.75 1.75 23.157 0 0-3.101-1.326ZM64.46 45.32l-4.11 30.25 28.58 10.72-30.04 5.44-1.36 30.5-14.46-26.9-29.43 8.13 21.1-22.05-16.8-25.48L45.42 69.2Z" color="#000" font-family="sans-serif" font-weight="400" overflow="visible" style="line-height:normal;font-variant-ligatures:normal;font-variant-position:normal;font-variant-caps:normal;font-variant-numeric:normal;font-variant-alternates:normal;font-variant-east-asian:normal;font-feature-settings:normal;font-variation-settings:normal;text-indent:0;text-align:start;text-decoration-line:none;text-decoration-style:solid;text-decoration-color:#000;text-transform:none;text-orientation:mixed;white-space:normal;shape-padding:0;shape-margin:0;inline-size:0;isolation:auto;mix-blend-mode:normal;solid-color:#000;solid-opacity:1" transform="translate(-1.273 -.847) scale(.3103)"/><path fill="#ff0b0b" fill-rule="evenodd" d="M27.635 40.556a.332.332 0 0 1-.332.332.332.332 0 0 1-.332-.332.332.332 0 0 1 .332-.332.332.332 0 0 1 .332.332"/></svg>