<svg width="48" height="48" xmlns:xlink="http://www.w3.org/1999/xlink" xmlns="http://www.w3.org/2000/svg"><defs><linearGradient id="g"><stop offset="0" stop-color="#e5ffcb"/><stop offset=".18" stop-color="#b8e986"/><stop offset=".514" stop-color="#b8e986"/><stop offset="1" stop-color="#6e8c53"/></linearGradient><linearGradient id="f"><stop offset="0" stop-color="#dbffce"/><stop offset=".137" stop-color="#b8e986"/><stop offset="1" stop-color="#b8e986" stop-opacity="0"/></linearGradient><linearGradient id="e"><stop offset="0" stop-color="#b8e986"/><stop offset="1" stop-color="#b8e986" stop-opacity="0"/></linearGradient><linearGradient id="a"><stop offset="0" stop-color="#333"/><stop offset="1" stop-color="#0d0d0d"/></linearGradient><linearGradient id="b"><stop offset="0" stop-color="#f4f4f4"/><stop offset=".312" stop-color="#229ad9"/><stop offset=".616" stop-color="#0647aa"/></linearGradient><linearGradient id="c"><stop offset="0" stop-color="#39bdff"/><stop offset="1" stop-color="#0038a0"/></linearGradient><linearGradient id="d"><stop offset="0" stop-color="#4c4c4c"/><stop offset="1" stop-color="#0d0d0d"/></linearGradient><linearGradient xlink:href="#e" id="h" x1="-.456" y1="23.386" x2="47.335" y2="23.386" gradientUnits="userSpaceOnUse"/><linearGradient xlink:href="#f" id="i" gradientUnits="userSpaceOnUse" x1="8.584" y1="5.262" x2="38.703" y2="38.889"/><linearGradient xlink:href="#g" id="j" x1="17.191" y1="16.461" x2="33.055" y2="34.316" gradientUnits="userSpaceOnUse"/></defs><path d="M25.032.015a2.5 2.5 0 0 0-2.671 2.318 2.5 2.5 0 0 0 2.318 2.67l.312.021.307.028.303.03.302.036.301.041.297.047.297.05.295.055.293.061.29.064.29.069.29.076.284.078.285.084.188.059a2.5 2.5 0 0 0 3.133-1.639 2.5 2.5 0 0 0-1.639-3.133l-.229-.072-.365-.108-.369-.101-.369-.096-.371-.088-.373-.084-.375-.076-.377-.07L27.3.27l-.379-.058-.38-.053-.386-.045-.382-.04-.387-.034zm-5.58.273-.265.047-.377.07-.375.076-.373.084-.371.088-.37.096-.367.101-.367.108-.363.115-.362.12-.36.126-.358.133-.356.137-.353.144-.328.14a2.5 2.5 0 0 0-1.315 3.284 2.5 2.5 0 0 0 3.283 1.313l.29-.123.275-.114.277-.107.28-.104.279-.097.281-.094.283-.088.285-.084.287-.078.288-.076.289-.069.29-.064.294-.06.295-.055.224-.04a2.5 2.5 0 0 0 2.045-2.884A2.5 2.5 0 0 0 19.452.288Zm14.246 2.773a2.5 2.5 0 0 0-1.54 1.133A2.5 2.5 0 0 0 33 7.628c.231.14.465.29.701.45l-.017-.015.265.182.246.174.243.178.24.18.234.183.233.187.226.19.225.193.22.197.217.2.215.205.22.217a2.5 2.5 0 0 0 3.536-.03 2.5 2.5 0 0 0-.03-3.535l-.25-.246-.273-.26-.277-.256-.281-.252-.287-.246-.291-.242-.293-.238-.301-.235-.303-.228-.307-.225-.31-.218-.309-.211-.01-.006a23.162 23.162 0 0 0-.892-.57 2.5 2.5 0 0 0-1.893-.29zM9.284 4.704l-.14.105-.3.235-.294.238-.291.242-.285.246-.283.252-.278.256-.273.26-.27.264-.263.27-.26.273-.256.277-.252.281-.246.287-.242.291-.094.114a2.5 2.5 0 0 0 .377 3.515 2.5 2.5 0 0 0 3.516-.375l.066-.082.19-.228.193-.225.197-.22.2-.217.204-.215.207-.21.21-.206.214-.205.217-.2.22-.197.225-.193.229-.19.23-.187.237-.184.107-.082a2.5 2.5 0 0 0 .488-3.5 2.5 2.5 0 0 0-3.5-.49zm30.707 5.656a2.5 2.5 0 0 0-.82 3.44l.043.068.156.266.153.265.148.268.143.267.136.27.133.271.127.272.123.273.117.276.114.275.107.278.104.279.097.28.094.28.025.084a2.5 2.5 0 0 0 3.133 1.639 2.5 2.5 0 0 0 1.639-3.133l-.04-.123-.118-.363-.127-.36-.133-.357-.137-.355-.144-.356-.153-.351-.156-.35-.162-.346-.168-.345-.176-.344-.18-.34-.187-.338-.191-.336-.198-.332-.062-.101a2.5 2.5 0 0 0-3.44-.82ZM5.634 12.136a2.5 2.5 0 0 0-3.344 1.148l-.017.033-.162.346-.157.35-.15.351-.145.356-.138.355-.133.358-.127.359-.12.363-.114.363-.108.366-.101.369-.096.369-.088.371-.084.373-.049.242a2.5 2.5 0 0 0 1.947 2.951A2.5 2.5 0 0 0 5.4 19.612l.04-.201.065-.291.07-.289.075-.29.078-.284.084-.285.088-.284.093-.28.1-.28.102-.28.109-.277.111-.275.12-.276.12-.273.127-.268a2.5 2.5 0 0 0-1.148-3.343zm38.477 7.3a2.5 2.5 0 0 0-2.317 2.67v.006l.018.31.011.313.008.313.002.297v.039l-.002.297-.008.312-.011.313-.018.31-.021.307-.028.306-.031.303-.035.303-.041.3-.047.298-.05.296-.055.295-.061.293-.064.291-.032.127a2.5 2.5 0 0 0 1.848 3.016 2.5 2.5 0 0 0 3.016-1.848l.039-.168.084-.373.076-.375.07-.377.065-.379.058-.379.053-.382.045-.383.04-.385.034-.385.027-.388.022-.389.015-.39.008-.393.004-.373a2.5 2.5 0 0 0-.012-.028 2.5 2.5 0 0 0 .012-.011l-.004-.373-.008-.393-.015-.39-.022-.39-.004-.046a2.5 2.5 0 0 0-2.67-2.317ZM2.446 21.583a2.5 2.5 0 0 0-2.4 2.596l.014.36.021.39.028.388.033.385.04.385.046.383.052.382.059.38.064.378.07.377.077.375.084.373.088.371.096.37.056.205a2.5 2.5 0 0 0 3.076 1.744 2.5 2.5 0 0 0 1.745-3.076l-.045-.165-.075-.287-.07-.289-.064-.29-.06-.294-.056-.295-.05-.296-.045-.297-.041-.301-.037-.303-.032-.303-.027-.306-.022-.307-.017-.31-.012-.32a2.5 2.5 0 0 0-2.596-2.403zm40.735 9.197a2.5 2.5 0 0 0-3.381 1.037l-.129.244-.148.268-.153.266-.156.265-.162.262-.164.256-.166.254-.17.25-.174.246-.178.242-.18.24-.183.235-.187.23-.19.229-.152.175a2.5 2.5 0 0 0 .262 3.528 2.5 2.5 0 0 0 3.525-.262l.178-.207.242-.291.238-.295.234-.299.229-.303.225-.306.218-.313.215-.314.211-.32.205-.323.203-.328.198-.332.191-.336.188-.338.148-.279a2.5 2.5 0 0 0-1.037-3.38zm-39.223.67a2.5 2.5 0 0 0-.928 3.412l.147.252.197.332.201.328.205.323.211.32.215.314.22.313.224.306.23.303.232.3.239.294.242.291.246.287.252.281.215.235a2.5 2.5 0 0 0 3.533.144 2.5 2.5 0 0 0 .145-3.533l-.188-.203-.197-.22-.194-.225-.189-.229-.188-.23-.183-.235-.18-.24-.178-.242-.171-.246-.172-.25-.166-.254-.164-.256-.162-.262-.157-.265-.125-.22a2.5 2.5 0 0 0-3.412-.925zm31.963 6.537a2.5 2.5 0 0 0-1.865.422l-.106.074-.25.17-.252.166-.257.164-.262.162-.266.157-.265.152-.268.148-.268.141-.27.139-.27.133-.272.127-.273.123-.276.117-.275.111-.02.008a2.5 2.5 0 0 0-1.424 3.236 2.5 2.5 0 0 0 3.237 1.424l.058-.023.356-.145.351-.15.35-.157.346-.162.345-.17.344-.173.34-.182.338-.186.336-.193.332-.197.328-.201.324-.206.319-.21.316-.215.135-.096a2.5 2.5 0 0 0 .601-3.484 2.5 2.5 0 0 0-1.617-1.024zm-22.582.781a2.5 2.5 0 0 0-3.463.711 2.5 2.5 0 0 0 .711 3.463l.113.075.323.205.328.2.332.198.336.193.338.186.34.182.343.173.346.17.348.162.35.157.35.15.354.145.356.138.357.133.098.033a2.5 2.5 0 0 0 3.185-1.531 2.5 2.5 0 0 0-1.53-3.186l-.058-.021-.279-.102-.277-.109-.276-.111-.275-.117-.273-.123-.272-.127-.271-.133-.27-.139-.267-.14-.268-.149-.266-.152-.265-.157-.262-.162-.256-.164Zm12.607 2.836-.043.006-.302.035-.303.032-.307.027-.306.022-.31.017-.311.012-.315.008-.316.002-.317-.002-.312-.008-.313-.012-.31-.017-.307-.022-.306-.027-.016-.002a2.5 2.5 0 0 0-2.744 2.23 2.5 2.5 0 0 0 2.23 2.744l.057.006.385.033.388.028.389.021.39.016.393.008.393.004.392-.004.393-.008.39-.016.39-.021.388-.028.387-.033.382-.04.385-.046.082-.011a2.5 2.5 0 0 0 2.139-2.815 2.5 2.5 0 0 0-2.815-2.139z" overflow="visible" fill="url(#i)" stroke-linecap="round" transform="matrix(.9778 0 0 .9778 .52 .519)" stroke="#000" paint-order="stroke fill markers"/><path d="M43.144 23.441c0 3.574-.881 6.87-2.643 9.89a19.613 19.613 0 0 1-7.17 7.17c-3.018 1.761-6.315 2.642-9.89 2.642-3.573 0-6.87-.88-9.888-2.642a19.613 19.613 0 0 1-7.17-7.17C4.62 30.31 3.74 27.014 3.74 23.44c0-3.574.881-6.87 2.643-9.89a19.613 19.613 0 0 1 7.17-7.17c3.018-1.76 6.315-2.642 9.889-2.642 3.574 0 6.87.881 9.89 2.643a19.613 19.613 0 0 1 7.17 7.17c1.76 3.018 2.642 6.315 2.642 9.89z" paint-order="stroke fill markers"/><path style="marker:none" d="M21.375 9.768c-.512 0-.954.186-1.328.56a1.82 1.82 0 0 0-.563 1.33v7.563h-7.562c-.512 0-.956.186-1.33.56-.374.374-.56.818-.56 1.33v3.782c0 .512.186.955.56 1.33.374.374.818.56 1.33.56h7.562v7.563c0 .512.189.956.563 1.33.374.374.816.56 1.328.56h3.781c.512 0 .956-.186 1.33-.56a1.82 1.82 0 0 0 .563-1.33v-7.563h7.562c.512 0 .954-.186 1.328-.56a1.82 1.82 0 0 0 .563-1.33V21.11a1.82 1.82 0 0 0-.563-1.33 1.813 1.813 0 0 0-1.328-.56H27.05v-7.563a1.82 1.82 0 0 0-.563-1.33 1.818 1.818 0 0 0-1.33-.56h-3.781z" color="#000" overflow="visible" fill="url(#j)"/><path d="M48 38.44c0 1.735-.427 3.334-1.282 4.8a9.52 9.52 0 0 1-3.48 3.48c-1.465.855-3.065 1.282-4.8 1.282-1.735 0-3.335-.427-4.8-1.282a9.52 9.52 0 0 1-3.48-3.48c-.855-1.466-1.283-3.065-1.283-4.8 0-1.735.428-3.335 1.283-4.8a9.52 9.52 0 0 1 3.48-3.48c1.465-.855 3.065-1.283 4.8-1.283 1.735 0 3.335.428 4.8 1.283a9.52 9.52 0 0 1 3.48 3.48c.855 1.465 1.282 3.065 1.282 4.8z" fill="#ff6868"/><path d="m42.946 35.059-1.127-1.127a.766.766 0 0 0-.564-.23.766.766 0 0 0-.563.23l-6.762 6.762a.766.766 0 0 0-.229.563c0 .223.076.41.229.563l1.127 1.127c.152.153.34.23.563.23.223 0 .411-.077.564-.23l6.762-6.761a.766.766 0 0 0 .228-.564.766.766 0 0 0-.228-.563z"/><path d="m41.819 42.947 1.127-1.127a.766.766 0 0 0 .228-.563.766.766 0 0 0-.228-.563l-6.762-6.762a.766.766 0 0 0-.564-.23.766.766 0 0 0-.563.23l-1.127 1.127a.766.766 0 0 0-.229.563c0 .223.076.411.229.564l6.762 6.761c.152.153.34.23.563.23.223 0 .411-.077.564-.23z"/></svg>