<?xml version="1.0" encoding="UTF-8" standalone="no"?><svg width="48" height="48" sodipodi:docname="iconStarSwapRedCopyPasteInfos2SVG.svg" inkscape:version="1.3.2 (091e20e, 2023-11-25, custom)" xmlns:inkscape="http://www.inkscape.org/namespaces/inkscape" xmlns:sodipodi="http://sodipodi.sourceforge.net/DTD/sodipodi-0.dtd" xmlns:xlink="http://www.w3.org/1999/xlink" xmlns="http://www.w3.org/2000/svg"><sodipodi:namedview pagecolor="#505050" bordercolor="#ffffff" borderopacity="1" inkscape:showpageshadow="0" inkscape:pageopacity="0" inkscape:pagecheckerboard="1" inkscape:deskcolor="#505050" inkscape:zoom="37.625" inkscape:cx="22.206" inkscape:cy="23.761" inkscape:window-width="3840" inkscape:window-height="2126" inkscape:window-x="-11" inkscape:window-y="-11" inkscape:window-maximized="1" inkscape:current-layer="g7"/><defs><linearGradient id="m" inkscape:collect="always"><stop style="stop-color:#fff;stop-opacity:1" offset="0"/><stop style="stop-color:#fff;stop-opacity:0" offset="1"/></linearGradient><linearGradient id="l" inkscape:collect="always"><stop style="stop-color:#fff;stop-opacity:1" offset="0"/><stop style="stop-color:#fff;stop-opacity:0" offset="1"/></linearGradient><linearGradient id="k" inkscape:collect="always"><stop style="stop-color:#fff;stop-opacity:1" offset="0"/><stop style="stop-color:#fff;stop-opacity:0" offset="1"/></linearGradient><linearGradient id="j" inkscape:collect="always"><stop style="stop-color:#fff;stop-opacity:1" offset="0"/><stop style="stop-color:#fff;stop-opacity:0" offset="1"/></linearGradient><linearGradient id="i" inkscape:collect="always"><stop style="stop-color:#fbf5f5;stop-opacity:1" offset="0"/><stop style="stop-color:#d58585;stop-opacity:1" offset="1"/></linearGradient><linearGradient id="h" inkscape:collect="always"><stop style="stop-color:#ffdb08;stop-opacity:1" offset="0"/><stop style="stop-color:#998300;stop-opacity:1" offset="1"/></linearGradient><linearGradient id="g" inkscape:collect="always"><stop style="stop-color:#08acff;stop-opacity:1" offset="0"/><stop style="stop-color:#069;stop-opacity:1" offset="1"/></linearGradient><linearGradient id="f" inkscape:collect="always"><stop style="stop-color:#1fff05;stop-opacity:1" offset="0"/><stop style="stop-color:#109900;stop-opacity:1" offset="1"/></linearGradient><linearGradient id="e" inkscape:collect="always"><stop style="stop-color:#ff1404;stop-opacity:1" offset="0"/><stop style="stop-color:#861d15;stop-opacity:1" offset="1"/></linearGradient><linearGradient id="c" inkscape:collect="always"><stop style="stop-color:#4d4d4d;stop-opacity:1" offset="0"/><stop style="stop-color:#2c2c2c;stop-opacity:1" offset="1"/></linearGradient><linearGradient id="a"><stop offset="0" stop-color="#4c4c4c"/><stop offset="1" stop-color="#0d0d0d"/></linearGradient><linearGradient id="b"><stop offset="0" stop-color="#ff655c"/><stop offset="1" stop-color="#c30d00"/></linearGradient><linearGradient xlink:href="#a" id="z" x1="5.83" x2="12.91" y1="6.7" y2="13.2" gradientUnits="userSpaceOnUse"/><radialGradient xlink:href="#b" id="G" cx="7.18" cy="8.2" r="6.59" fx="7.18" fy="8.2" gradientTransform="matrix(.9 .5558 -.5314 .8606 5.08 -2.85)" gradientUnits="userSpaceOnUse"/><filter id="A" width="1.832" height="1.832" x="-.416" y="-.416" color-interpolation-filters="sRGB"><feGaussianBlur stdDeviation=".13"/></filter><linearGradient inkscape:collect="always" xlink:href="#c" id="B" x1="25.47" y1="24.208" x2="45.783" y2="38.346" gradientUnits="userSpaceOnUse"/><radialGradient xlink:href="#d" id="H" cx="7.18" cy="8.2" r="6.59" fx="7.18" fy="8.2" gradientTransform="matrix(.9 .5558 -.5314 .8606 5.08 -2.85)" gradientUnits="userSpaceOnUse"/><linearGradient id="d"><stop offset="0" stop-color="#ffeabe" style="stop-color:#ff8f05;stop-opacity:1"/><stop offset=".522" stop-color="#ffeabe" style="stop-color:#fee30b;stop-opacity:1"/><stop offset="1" stop-color="#434343" style="stop-color:#fff;stop-opacity:1"/></linearGradient><filter id="I" width="1.832" height="1.832" x="-.416" y="-.416" color-interpolation-filters="sRGB"><feGaussianBlur stdDeviation=".13"/></filter><linearGradient inkscape:collect="always" xlink:href="#e" id="C" x1="28.395" y1="20.758" x2="32.894" y2="25.368" gradientUnits="userSpaceOnUse"/><linearGradient inkscape:collect="always" xlink:href="#f" id="D" x1="28.395" y1="27.368" x2="32.894" y2="31.977" gradientUnits="userSpaceOnUse"/><linearGradient inkscape:collect="always" xlink:href="#g" id="E" x1="28.395" y1="33.894" x2="32.894" y2="38.503" gradientUnits="userSpaceOnUse"/><linearGradient inkscape:collect="always" xlink:href="#h" id="F" x1="28.395" y1="40.503" x2="32.894" y2="45.112" gradientUnits="userSpaceOnUse"/><filter inkscape:collect="always" style="color-interpolation-filters:sRGB" id="s" x="-.48" y="-.48" width="1.96" height="1.96"><feGaussianBlur inkscape:collect="always" stdDeviation=".718"/></filter><filter inkscape:collect="always" style="color-interpolation-filters:sRGB" id="t" x="-.48" y="-.48" width="1.96" height="1.96"><feGaussianBlur inkscape:collect="always" stdDeviation=".718"/></filter><filter inkscape:collect="always" style="color-interpolation-filters:sRGB" id="u" x="-.48" y="-.48" width="1.96" height="1.96"><feGaussianBlur inkscape:collect="always" stdDeviation=".718"/></filter><filter inkscape:collect="always" style="color-interpolation-filters:sRGB" id="v" x="-.48" y="-.48" width="1.96" height="1.96"><feGaussianBlur inkscape:collect="always" stdDeviation=".718"/></filter><filter inkscape:collect="always" style="color-interpolation-filters:sRGB" id="w" x="-.48" y="-.48" width="1.96" height="1.96"><feGaussianBlur inkscape:collect="always" stdDeviation=".718"/></filter><filter inkscape:collect="always" style="color-interpolation-filters:sRGB" id="x" x="-.48" y="-.48" width="1.96" height="1.96"><feGaussianBlur inkscape:collect="always" stdDeviation=".718"/></filter><filter inkscape:collect="always" style="color-interpolation-filters:sRGB" id="y" x="-.48" y="-.48" width="1.96" height="1.96"><feGaussianBlur inkscape:collect="always" stdDeviation=".718"/></filter><radialGradient inkscape:collect="always" xlink:href="#i" id="n" cx="24.844" cy="22.304" fx="24.844" fy="22.304" r="20.606" gradientTransform="matrix(1 0 0 1.0055 0 -.123)" gradientUnits="userSpaceOnUse"/><linearGradient inkscape:collect="always" xlink:href="#j" id="o" x1="27.124" y1="10.096" x2="34.683" y2="10.096" gradientUnits="userSpaceOnUse"/><linearGradient inkscape:collect="always" xlink:href="#k" id="r" x1="9.768" y1="11.023" x2="17.486" y2="11.023" gradientUnits="userSpaceOnUse"/><linearGradient inkscape:collect="always" xlink:href="#l" id="q" x1="13.374" y1="31.183" x2="19.923" y2="31.183" gradientUnits="userSpaceOnUse"/><linearGradient inkscape:collect="always" xlink:href="#m" id="p" x1="17.929" y1="24.67" x2="25.488" y2="24.67" gradientUnits="userSpaceOnUse"/></defs><path style="color:#000;fill:url(#n);fill-opacity:1;stroke-linejoin:round;-inkscape-stroke:none" d="M34.598 1.592a1.115 1.115 0 0 0-.808.22L23.05 9.98l-12.486-5.23c-.887-.372-1.797.478-1.486 1.388l4.257 12.438-8.84 10.638c-.614.742-.063 1.861.899 1.827l13.453-.504 6.963 11.931c.49.84 1.744.695 2.03-.234l4.08-13.285 12.663-2.914c.946-.218 1.181-1.457.381-2.006l-10.652-7.32L35.575 2.8a1.115 1.115 0 0 0-.977-1.208Z" sodipodi:nodetypes="ccccccccccccccccc"/><path style="fill:#d81616;fill-opacity:1;stroke:none;stroke-width:2.41025;stroke-linecap:round;stroke-linejoin:round;stroke-opacity:1;paint-order:stroke markers fill" d="M31.741 26.352a2.478 2.478 0 1 1-4.188-2.648c.731-1.157 3.946-2.484 4.34-2.23.345.222.58 3.721-.152 4.878z" sodipodi:nodetypes="sssss"/><path style="fill:#d81616;fill-opacity:1;stroke:none;stroke-width:1.5;stroke-linecap:round;stroke-linejoin:round;stroke-opacity:1;paint-order:stroke markers fill;stroke-dasharray:none" d="M27.098 34.375a2.934 2.934 0 1 1-4.96-3.135c.866-1.37 4.672-2.941 5.14-2.64.408.263.686 4.406-.18 5.775z" sodipodi:nodetypes="sssss"/><path style="fill:#d81616;fill-opacity:1;stroke:url(#o);stroke-width:1.5;stroke-linecap:round;stroke-linejoin:round;stroke-opacity:1;paint-order:stroke markers fill;stroke-dasharray:none" d="M33.356 12.359a2.973 2.973 0 0 1-5.026-3.177c.878-1.388 4.735-2.98 5.209-2.675.413.266.694 4.464-.183 5.852Z" sodipodi:nodetypes="sssss"/><path style="fill:#d81616;fill-opacity:1;stroke:none;stroke-width:1.5;stroke-linecap:round;stroke-linejoin:round;stroke-opacity:1;paint-order:stroke markers fill;stroke-dasharray:none" d="M27.847 18.621a2.478 2.478 0 1 1-4.188-2.647c.731-1.157 3.945-2.484 4.34-2.23.345.222.58 3.72-.152 4.877z" sodipodi:nodetypes="sssss"/><path style="fill:#d81616;fill-opacity:1;stroke:url(#p);stroke-width:1.5;stroke-linecap:round;stroke-linejoin:round;stroke-opacity:1;paint-order:stroke fill markers;stroke-dasharray:none" d="M24.161 26.933a2.973 2.973 0 1 1-5.026-3.177c.878-1.388 4.735-2.98 5.209-2.675.413.266.694 4.464-.183 5.852z" sodipodi:nodetypes="sssss"/><path style="fill:#d81616;fill-opacity:1;stroke:url(#q);stroke-width:1.5;stroke-linecap:round;stroke-linejoin:round;stroke-opacity:1;paint-order:stroke markers fill;stroke-dasharray:none" d="M18.692 33.071a2.478 2.478 0 0 1-4.188-2.648c.73-1.156 3.945-2.483 4.34-2.229.345.222.579 3.72-.152 4.877z" sodipodi:nodetypes="sssss"/><path style="fill:#d81616;fill-opacity:1;stroke:url(#r);stroke-width:1.5;stroke-linecap:round;stroke-linejoin:round;stroke-dasharray:none;stroke-opacity:1;paint-order:stroke markers fill" d="M16.144 13.345a3.051 3.051 0 1 1-5.158-3.26c.9-1.425 4.86-3.059 5.345-2.746.425.273.713 4.582-.187 6.006z" sodipodi:nodetypes="sssss"/><path style="fill:#d81616;fill-opacity:1;stroke:none;stroke-width:1.5;stroke-linecap:round;stroke-linejoin:round;stroke-opacity:1;paint-order:stroke markers fill;stroke-dasharray:none" d="M20.93 19.534a3.025 3.025 0 0 1-5.113-3.233c.893-1.412 4.818-3.032 5.3-2.721.42.27.707 4.542-.186 5.954z" sodipodi:nodetypes="sssss"/><path style="fill:#d81616;fill-opacity:1;stroke:none;stroke-width:1.5;stroke-linecap:round;stroke-linejoin:round;stroke-dasharray:none;paint-order:stroke markers fill" d="M15.738 26.021a2.478 2.478 0 1 1-4.189-2.648c.731-1.156 3.946-2.483 4.34-2.23.345.223.58 3.721-.151 4.878z" sodipodi:nodetypes="sssss"/><path style="fill:#d81616;fill-opacity:1;stroke:#fff;stroke-width:1.5;stroke-linecap:round;stroke-linejoin:round;stroke-dasharray:none;stroke-opacity:1;paint-order:stroke markers fill" d="M10.314 33.035a3.02 3.02 0 0 1-5.107-3.229c.892-1.41 4.81-3.028 5.292-2.718.42.27.706 4.537-.185 5.947z" sodipodi:nodetypes="sssss"/><path style="opacity:.698694;fill:#fff;stroke-width:5.585;stroke-linecap:round;stroke-linejoin:round;paint-order:stroke markers fill;filter:url(#s)" transform="matrix(.7279 0 0 .7279 24.133 14.99)" d="M-3.482 14.551a1.794 1.794 0 0 1-1.794 1.795A1.794 1.794 0 0 1-7.07 14.55a1.794 1.794 0 0 1 1.794-1.794 1.794 1.794 0 0 1 1.794 1.794z"/><path style="opacity:.698694;fill:#fff;stroke-width:5.585;stroke-linecap:round;stroke-linejoin:round;paint-order:stroke markers fill;filter:url(#t)" transform="matrix(.7279 0 0 .7279 20.782 7.433)" d="M-3.482 14.551a1.794 1.794 0 0 1-1.794 1.795A1.794 1.794 0 0 1-7.07 14.55a1.794 1.794 0 0 1 1.794-1.794 1.794 1.794 0 0 1 1.794 1.794z"/><path style="opacity:.698694;fill:#fff;stroke-width:5.585;stroke-linecap:round;stroke-linejoin:round;paint-order:stroke markers fill;filter:url(#u)" transform="matrix(.7279 0 0 .7279 28.699 6.795)" d="M-3.482 14.551a1.794 1.794 0 0 1-1.794 1.795A1.794 1.794 0 0 1-7.07 14.55a1.794 1.794 0 0 1 1.794-1.794 1.794 1.794 0 0 1 1.794 1.794z"/><path style="opacity:.698694;fill:#fff;stroke-width:5.585;stroke-linecap:round;stroke-linejoin:round;paint-order:stroke markers fill;filter:url(#v)" transform="matrix(.7279 0 0 .7279 33.227 .19)" d="M-3.482 14.551a1.794 1.794 0 0 1-1.794 1.795A1.794 1.794 0 0 1-7.07 14.55a1.794 1.794 0 0 1 1.794-1.794 1.794 1.794 0 0 1 1.794 1.794z"/><path style="opacity:.698694;fill:#fff;stroke-width:5.585;stroke-linecap:round;stroke-linejoin:round;paint-order:stroke markers fill;filter:url(#w)" transform="matrix(.7279 0 0 .7279 16.905 14.483)" d="M-3.482 14.551a1.794 1.794 0 0 1-1.794 1.795A1.794 1.794 0 0 1-7.07 14.55a1.794 1.794 0 0 1 1.794-1.794 1.794 1.794 0 0 1 1.794 1.794z"/><path style="opacity:.698694;fill:#fff;stroke-width:5.585;stroke-linecap:round;stroke-linejoin:round;paint-order:stroke markers fill;filter:url(#x)" transform="matrix(.7279 0 0 .7279 26.925 22.207)" d="M-3.482 14.551a1.794 1.794 0 0 1-1.794 1.795A1.794 1.794 0 0 1-7.07 14.55a1.794 1.794 0 0 1 1.794-1.794 1.794 1.794 0 0 1 1.794 1.794z"/><path style="opacity:.698694;fill:#fff;stroke-width:5.585;stroke-linecap:round;stroke-linejoin:round;paint-order:stroke markers fill;filter:url(#y)" transform="matrix(.81104 0 0 .81104 16.406 -.219)" d="M-3.482 14.551a1.794 1.794 0 0 1-1.794 1.795A1.794 1.794 0 0 1-7.07 14.55a1.794 1.794 0 0 1 1.794-1.794 1.794 1.794 0 0 1 1.794 1.794z"/><path style="opacity:.360075;fill:#fff;stroke-width:3.49062;stroke-linecap:round;stroke-linejoin:round;paint-order:stroke markers fill" d="M19.27 20.186a.332.332 0 0 1-.333.332.332.332 0 0 1-.332-.332.332.332 0 0 1 .332-.332.332.332 0 0 1 .332.332zM23.04 27.402a.332.332 0 0 1-.332.332.332.332 0 0 1-.333-.332.332.332 0 0 1 .333-.332.332.332 0 0 1 .332.332zM15.063 26.252a.332.332 0 0 1-.332.333.332.332 0 0 1-.332-.333.332.332 0 0 1 .332-.332.332.332 0 0 1 .332.332zM14.744 13.598a.332.332 0 0 1-.332.332.332.332 0 0 1-.332-.332.332.332 0 0 1 .332-.332.332.332 0 0 1 .332.332z"/><path style="color:#000;fill:url(#z);fill-rule:evenodd;-inkscape-stroke:none" d="M6.154 1.334a.912.912 0 0 0-.539.363 2.005 2.005 0 0 0-.273.547c-.14.399-.231.87-.313 1.348-.081.478-.153.961-.238 1.347-.085.387-.221.68-.24.7l-.004.004-.002.002c-.019.02-.3.181-.678.296-.378.116-.854.225-1.324.344-.47.12-.934.244-1.32.414a2.02 2.02 0 0 0-.524.315.905.905 0 0 0-.32.564c-.03.242.06.462.178.629.117.167.267.302.435.43.337.256.759.486 1.19.71.43.226.868.444 1.21.643.343.2.581.42.596.448.016.027.08.347.073.744-.009.397-.052.884-.084 1.369-.033.484-.055.963-.012 1.383.021.21.056.406.137.593.08.187.22.378.441.479a.91.91 0 0 0 .652.021 1.99 1.99 0 0 0 .54-.28c.346-.242.695-.572 1.04-.911.346-.34.686-.69.98-.953.295-.263.577-.42.606-.426.034-.007.359.032.735.162.375.13.826.322 1.277.502.451.18.901.352 1.314.442.207.044.405.071.608.054a.909.909 0 0 0 .596-.265l.002-.004.002-.002a.91.91 0 0 0 .216-.616c.001-.203-.04-.397-.101-.6-.123-.404-.33-.838-.545-1.273-.216-.435-.442-.868-.602-1.232-.159-.361-.222-.676-.218-.713.004-.032.139-.326.378-.64.241-.316.564-.685.875-1.057.312-.373.611-.746.823-1.111.106-.183.192-.366.236-.565.03-.133 0-.304-.034-.453l-.806.123-.002-.004.762-.117c-.013-.034.037.027.018-.006l-.002.003.029-.008-.041-.196a.906.906 0 0 0-.518-.399 2.013 2.013 0 0 0-.601-.086c-.422-.007-.896.056-1.375.127-.48.072-.962.154-1.356.194-.393.04-.714.001-.742-.012-.028-.013-.268-.234-.494-.56-.227-.326-.48-.746-.738-1.157-.259-.41-.52-.812-.801-1.127a2 2 0 0 0-.461-.4.904.904 0 0 0-.64-.127Zm.17.832h.002c-.024.005-.026-.01.033.025.06.036.158.118.264.237.212.237.463.611.715 1.011.252.4.505.827.758 1.19.252.363.464.676.836.848.372.172.746.13 1.185.085.44-.044.928-.129 1.395-.199.467-.07.915-.123 1.234-.117.16.003.286.023.352.045.054.018.042.015.035.006l.008.014c-.011-.02.001-.025-.014.043a1.287 1.287 0 0 1-.14.324c-.16.275-.44.63-.743.992-.302.362-.629.735-.896 1.086-.268.35-.498.646-.55 1.05v.003l-.001.004c-.046.405.109.749.287 1.154.178.405.409.844.62 1.267.21.424.398.836.491 1.143.047.153.067.279.067.35 0 .064-.007.057.004.043.013-.012.021-.006-.043 0a1.358 1.358 0 0 1-.356-.04c-.313-.068-.738-.222-1.178-.398-.44-.176-.898-.37-1.316-.516-.418-.145-.773-.271-1.174-.193h-.002c-.402.08-.68.333-1.008.627-.328.294-.673.648-1.01.979-.336.33-.667.636-.929.818-.13.09-.244.149-.31.17-.067.02-.063.008-.042.017l-.002-.002h-.001c.022.01.015.023-.012-.04a1.297 1.297 0 0 1-.074-.344c-.033-.317-.014-.769.017-1.24.032-.472.075-.967.084-1.409.01-.442.02-.818-.18-1.176-.2-.358-.528-.545-.91-.767-.382-.223-.826-.443-1.246-.662-.42-.22-.813-.44-1.066-.633a1.329 1.329 0 0 1-.258-.244c-.04-.057-.025-.055-.027-.033v-.006c-.003.025-.018.022.035-.024a1.33 1.33 0 0 1 .306-.175c.293-.13.728-.254 1.186-.37.458-.116.943-.227 1.365-.355.422-.128.78-.236 1.057-.54.277-.298.355-.664.45-1.093.094-.43.166-.921.245-1.387.08-.465.17-.908.276-1.209.053-.15.112-.262.154-.318.042-.056.047-.043.025-.039Z" transform="matrix(2.647 2.2616 -2.267 2.6553 22.22 -16.85)" sodipodi:nodetypes="csssscccsssscssssccssscsssscsscscccsccscssssccccccccscssssssscccssssssscscccccscccsssscsccsccsssccccsssccsssscccsssscsssscc"/><path style="color:#000;fill:#fff;stroke-linejoin:round;-inkscape-stroke:none" d="M33.414 3.244a1.115 1.115 0 0 0-.809.219l-10.738 8.17-12.486-5.23A1.115 1.115 0 0 0 7.895 7.79l4.257 12.438-8.84 10.638a1.115 1.115 0 0 0 .899 1.826l13.453-.504 6.963 11.932a1.115 1.115 0 0 0 2.03-.234l4.08-13.285L43.4 27.687a1.115 1.115 0 0 0 .381-2.005l-10.652-7.32 1.262-13.91a1.115 1.115 0 0 0-.977-1.208ZM31.941 6.77 30.85 18.809a1.115 1.115 0 0 0 .478 1.02l9.1 6.255-10.819 2.49a1.115 1.115 0 0 0-.814.758L25.27 40.801l-6.017-10.313a1.115 1.115 0 0 0-1.006-.552l-11.625.435 7.645-9.2a1.115 1.115 0 0 0 .197-1.071L10.81 9.418l10.789 4.52a1.115 1.115 0 0 0 1.105-.141z"/><path fill="#fffdfc" fill-rule="evenodd" d="M8.5 7.99a.37.37 0 0 1-.38.37.37.37 0 0 1-.37-.37.37.37 0 0 1 .37-.38.37.37 0 0 1 .37.37" filter="url(#A)" transform="rotate(36.96 28.44 21) scale(3.0331)"/><g inkscape:groupmode="layer" inkscape:label="Layer 1"><path style="fill:#fff;fill-opacity:1;stroke:url(#B);stroke-width:2;stroke-linecap:round;stroke-dasharray:none;stroke-opacity:1;paint-order:markers stroke fill" inkscape:path-effect="#path-effect6" sodipodi:type="rect" d="M28.278 19.196h13.796a2.708 2.708 45 0 1 2.709 2.708v21.824a2.551 2.551 135 0 1-2.552 2.551h-13.6a2.72 2.72 45 0 1-2.719-2.719V21.562a2.365 2.365 135 0 1 2.366-2.366z"/><path style="fill:#ff1404;fill-opacity:1;stroke:url(#C);stroke-width:2;stroke-linecap:round;stroke-linejoin:round;stroke-dasharray:none;stroke-opacity:1;paint-order:markers stroke fill" inkscape:path-effect="#path-effect1" sodipodi:type="rect" d="M29.685 21.758h1.901a.307.307 45 0 1 .308.308v1.985a.316.316 135 0 1-.317.317h-1.814a.368.368 45 0 1-.368-.368v-1.952a.29.29 135 0 1 .29-.29z" transform="translate(0 -.413)"/><path style="fill:#1fff05;fill-opacity:1;stroke:url(#D);stroke-width:2;stroke-linecap:round;stroke-linejoin:round;stroke-dasharray:none;paint-order:markers stroke fill" inkscape:path-effect="#path-effect2" sodipodi:type="rect" d="M29.698 28.368h1.862a.334.334 45 0 1 .334.334v1.958a.316.316 135 0 1-.317.317h-1.834a.347.347 45 0 1-.348-.348v-1.958a.303.303 135 0 1 .303-.303z" transform="translate(0 -.752)"/><path style="fill:#08acff;fill-opacity:1;stroke:url(#E);stroke-width:2;stroke-linecap:round;stroke-linejoin:round;stroke-dasharray:none;paint-order:markers stroke fill" inkscape:path-effect="#path-effect3" sodipodi:type="rect" d="M29.725 34.894h1.855a.314.314 45 0 1 .314.314v1.972a.323.323 135 0 1-.323.323h-1.828a.347.347 45 0 1-.348-.348v-1.932a.33.33 135 0 1 .33-.33z" transform="translate(0 -.752)"/><path style="fill:#000;fill-opacity:1;stroke:none;stroke-width:1;stroke-linecap:round;stroke-linejoin:round;stroke-dasharray:none;stroke-opacity:1;paint-order:markers stroke fill" d="M35.022 22.486h7.713v.601h-7.713zM35.022 28.642h7.713v.601h-7.713zM35.022 35.127h7.713v.601h-7.713zM35.022 42.415h7.713v.601h-7.713z"/></g><g transform="translate(27.337 39.175) scale(.14133)" style="display:inline"><path fill="url(#G)" fill-rule="evenodd" stroke="url(#z)" stroke-width=".85" d="M13.51 5.1c.44.77-2.18 2.89-2.29 3.76-.1.88 1.95 3.55 1.36 4.2-.6.64-3.43-1.19-4.3-1.02-.86.17-2.76 2.95-3.56 2.58-.8-.36.07-3.62-.36-4.39C3.93 9.46.69 8.51.8 7.63c.1-.87 3.47-1.05 4.06-1.7.6-.64.51-4.01 1.38-4.18.86-.18 2.07 2.97 2.87 3.34.8.37 3.97-.76 4.4 0z" enable-background="accumulate" overflow="visible" style="fill:url(#H);stroke:url(#linearGradient1);marker:none" transform="matrix(2.647 2.2616 -2.267 2.6553 22.22 -16.85)"/><path fill="none" stroke="#fff" stroke-linejoin="round" stroke-width="2.23" d="m43.15 26.6-13.29 3.06-4.27 13.9-7.3-12.51-14.12.53 9.24-11.12L8.95 7.43l13.08 5.48 11.25-8.56-1.32 14.56Z" enable-background="accumulate" overflow="visible" style="marker:none"/><path fill="#fffdfc" fill-rule="evenodd" d="M8.5 7.99a.37.37 0 0 1-.38.37.37.37 0 0 1-.37-.37.37.37 0 0 1 .37-.38.37.37 0 0 1 .37.37" filter="url(#A)" transform="rotate(36.96 28.44 21) scale(3.0331)" style="filter:url(#I)"/></g></svg>