<svg width="600" height="600" viewBox="0 0 158.75 158.75" xml:space="preserve" xmlns:xlink="http://www.w3.org/1999/xlink" xmlns="http://www.w3.org/2000/svg"><defs><linearGradient id="b"><stop offset="0" stop-color="#fe4703"/><stop offset="1" stop-color="#fff"/></linearGradient><linearGradient id="a"><stop offset="0" stop-color="#ff5600"/><stop offset="1" stop-color="#fff"/></linearGradient><linearGradient xlink:href="#c" id="e" gradientUnits="userSpaceOnUse" x1="4.682" y1="3.659" x2="11.11" y2="11.418" gradientTransform="matrix(11.68201 0 0 11.63937 -13.427 -8.222)"/><linearGradient id="c"><stop offset="0" stop-color="#4080d2"/><stop offset="1" stop-color="#12497c"/></linearGradient><linearGradient xlink:href="#d" id="f" gradientUnits="userSpaceOnUse" x1="4.53" y1="3.666" x2="9.895" y2="10.4" gradientTransform="matrix(9.92157 0 0 9.88373 .61 4.7)"/><linearGradient id="d"><stop offset="0" stop-color="#fff"/><stop offset="1" stop-color="#fff" stop-opacity="0"/></linearGradient></defs><ellipse style="marker:none" cx="79.416" cy="79.322" rx="69.422" ry="68.86" color="#000" overflow="visible" fill="none" stroke="#006bed" stroke-width="19.948" stroke-linecap="round"/><ellipse style="marker:none" cx="79.723" cy="79.43" rx="54.732" ry="54.532" color="#000" overflow="visible" fill="#5283c8" stroke="url(#e)" stroke-width="9.974" stroke-linecap="round"/><ellipse style="marker:none" cx="79.723" cy="79.13" rx="46.484" ry="46.307" color="#000" overflow="visible" fill="none" stroke="url(#f)" stroke-width="4.987" stroke-linecap="round"/><path d="M56.245 52.44h31.042q7.76 0 11.897 3.844 4.174 3.844 4.174 9.518 0 4.759-2.966 8.163-1.976 2.27-5.783 3.588 5.783 1.39 8.492 4.795 2.746 3.368 2.746 8.493 0 4.173-1.94 7.504-1.94 3.332-5.308 5.272-2.087 1.208-6.297 1.757-5.6.732-7.43.732H56.244Zm16.729 21.05h7.211q3.88 0 5.382-1.318 1.537-1.355 1.537-3.88 0-2.344-1.537-3.661-1.501-1.318-5.272-1.318h-7.321zm0 21.085h8.456q4.283 0 6.04-1.5 1.757-1.538 1.757-4.1 0-2.38-1.757-3.808-1.72-1.464-6.077-1.464h-8.42z" style="-inkscape-font-specification:&quot;Arial, Heavy&quot;" aria-label="B" font-weight="900" font-size="74.971" font-family="Arial" fill="#fff" paint-order="stroke fill markers"/></svg>