<?xml version="1.0" encoding="UTF-8" standalone="no"?><svg width="48" height="48" sodipodi:docname="icon_optionEnabledSmallSVG.svg" inkscape:version="1.4 (86a8ad7, 2024-10-11)" xmlns:inkscape="http://www.inkscape.org/namespaces/inkscape" xmlns:sodipodi="http://sodipodi.sourceforge.net/DTD/sodipodi-0.dtd" xmlns:xlink="http://www.w3.org/1999/xlink" xmlns="http://www.w3.org/2000/svg"><sodipodi:namedview pagecolor="#505050" bordercolor="#ffffff" borderopacity="1" inkscape:showpageshadow="0" inkscape:pageopacity="0" inkscape:pagecheckerboard="1" inkscape:deskcolor="#505050" inkscape:zoom="26.605" inkscape:cx="24.075" inkscape:cy="30.032" inkscape:window-width="3840" inkscape:window-height="2126" inkscape:window-x="-11" inkscape:window-y="-11" inkscape:window-maximized="1" inkscape:current-layer="svg6"/><defs><linearGradient id="a"><stop offset="0" stop-color="#4c4c4c"/><stop offset="1" stop-color="#0d0d0d"/></linearGradient><linearGradient id="b"><stop offset="0" stop-color="#ffeabe" style="stop-color:#ff3705;stop-opacity:1"/><stop offset=".522" stop-color="#ffeabe" style="stop-color:#f4da01;stop-opacity:1"/><stop offset="1" stop-color="#434343" style="stop-color:#f0e600;stop-opacity:1"/></linearGradient><linearGradient xlink:href="#a" id="d" x1="5.83" x2="12.91" y1="6.7" y2="13.2" gradientUnits="userSpaceOnUse" gradientTransform="matrix(1.81695 1.5524 -1.55611 1.82265 22.765 -4.036)"/><radialGradient xlink:href="#b" id="c" cx="7.18" cy="8.2" r="6.59" fx="7.18" fy="8.2" gradientTransform="matrix(.77037 2.4102 -2.30472 .74362 36.43 -1.344)" gradientUnits="userSpaceOnUse"/><filter id="e" width="1.832" height="1.832" x="-.416" y="-.416" color-interpolation-filters="sRGB"><feGaussianBlur stdDeviation=".13"/></filter></defs><path fill="url(#c)" fill-rule="evenodd" stroke="url(#d)" stroke-width="1.491" d="M39.376 26.233c-.399 2.086-8.458 1.883-10.012 3.298-1.55 1.449-1.98 9.498-4.064 9.766-2.086.235-4.38-7.493-6.226-8.534-1.827-1.025-9.605 1.092-10.483-.824-.894-1.898 5.76-6.49 6.177-8.56.417-2.071-3.992-8.833-2.422-10.266 1.535-1.43 7.938 3.473 10.022 3.204 2.086-.235 7.166-6.517 9.012-5.476 1.842 1.007-.86 8.627.017 10.543.878 1.916 8.396 4.778 7.995 6.83z" enable-background="accumulate" overflow="visible" style="fill:url(#c);stroke:url(#d);stroke-width:2.04636;stroke-dasharray:none;marker:none"/><path fill="none" stroke="#fff" stroke-linejoin="round" stroke-width="2.23" d="m37.132 25.79-9.123 2.1-2.93 9.54-5.011-8.586-9.693.364 6.343-7.633-3.062-8.944 8.979 3.761 7.722-5.876-.906 9.995z" enable-background="accumulate" overflow="visible" style="stroke-width:2.04636;stroke-dasharray:none;marker:none"/><path fill="#fffdfc" fill-rule="evenodd" d="M8.5 7.99a.37.37 0 0 1-.38.37.37.37 0 0 1-.37-.37.37.37 0 0 1 .37-.38.37.37 0 0 1 .37.37" filter="url(#e)" transform="rotate(36.96 12.012 29.42) scale(2.08198)"/></svg>