<svg width="600" height="600" viewBox="0 0 158.75 158.75" xml:space="preserve" xmlns:xlink="http://www.w3.org/1999/xlink" xmlns="http://www.w3.org/2000/svg"><defs><linearGradient id="b"><stop offset="0" stop-color="#fe4703"/><stop offset="1" stop-color="#fff"/></linearGradient><linearGradient id="a"><stop offset="0" stop-color="#ff5600"/><stop offset="1" stop-color="#fff"/></linearGradient><linearGradient x1="26.649" y1="20.604" x2="135.665" y2="114.398" id="f" xlink:href="#c" gradientUnits="userSpaceOnUse" gradientTransform="matrix(.66276 0 0 .66915 -4.55 -13.784)"/><linearGradient id="c"><stop offset="0" stop-color="#5a9fd4"/><stop offset="1" stop-color="#306998"/></linearGradient><linearGradient x1="150.961" y1="192.352" x2="112.031" y2="137.273" id="g" xlink:href="#d" gradientUnits="userSpaceOnUse" gradientTransform="matrix(.66276 0 0 .66915 -4.55 -13.784)"/><linearGradient id="d"><stop offset="0" stop-color="#ffd43b"/><stop offset="1" stop-color="#ffe873"/></linearGradient><linearGradient id="e"><stop offset="0" stop-color="#b8b8b8" stop-opacity=".498"/><stop offset="1" stop-color="#7f7f7f" stop-opacity="0"/></linearGradient><radialGradient cx="61.519" cy="132.286" r="29.037" fx="61.519" fy="132.286" id="h" xlink:href="#e" gradientUnits="userSpaceOnUse" gradientTransform="matrix(0 -.2827 1.24255 0 -85.5 167.844)"/></defs><path d="M77.814.004c-5.4.025-10.557.486-15.095 1.289-13.368 2.361-15.795 7.304-15.795 16.42v12.04h31.59v4.012H35.068c-9.18 0-17.22 5.519-19.734 16.016-2.9 12.032-3.029 19.54 0 32.104 2.246 9.352 7.608 16.016 16.789 16.016h10.86V83.469c0-10.427 9.022-19.624 19.735-19.624H94.27c8.783 0 15.795-7.232 15.795-16.052v-30.08c0-8.56-7.222-14.991-15.795-16.42C88.845.389 83.214-.021 77.814.004ZM60.73 9.687c3.263 0 5.927 2.708 5.927 6.038 0 3.318-2.664 6.001-5.927 6.001-3.275 0-5.928-2.683-5.928-6 0-3.33 2.653-6.039 5.928-6.039z" fill="url(#f)"/><path d="M114.005 33.765v14.028c0 10.875-9.22 20.028-19.734 20.028H62.72c-8.643 0-15.795 7.397-15.795 16.052v30.08c0 8.56 7.445 13.596 15.795 16.052 10 2.94 19.588 3.472 31.552 0 7.953-2.302 15.795-6.936 15.795-16.052v-12.04H78.513v-4.012h47.347c9.181 0 12.602-6.404 15.795-16.016 3.298-9.895 3.158-19.41 0-32.104-2.269-9.14-6.602-16.016-15.795-16.016zM96.26 109.94c3.275 0 5.928 2.683 5.928 6.001 0 3.33-2.653 6.038-5.928 6.038-3.263 0-5.927-2.708-5.927-6.038 0-3.318 2.664-6.001 5.927-6.001z" fill="url(#g)"/><path d="M121.204 150.453a42.332 8.209 0 1 1-84.664 0 42.332 8.209 0 1 1 84.664 0z" opacity=".444" fill="url(#h)"/></svg>