<svg xmlns="http://www.w3.org/2000/svg" xmlns:xlink="http://www.w3.org/1999/xlink" viewBox="0 0 48 48"><defs><path id="o" fill="#fffdfc" fill-rule="evenodd" d="M8.5 7.99a.37.37 0 0 1-.38.37.37.37 0 0 1-.37-.37.37.37 0 0 1 .37-.38.37.37 0 0 1 .37.37" filter="url(#a)"/></defs><defs><linearGradient id="b"><stop offset="0" stop-color="#4c4c4c"/><stop offset="1" stop-color="#0d0d0d"/></linearGradient><linearGradient id="g"><stop offset="0" stop-color="#08acff"/><stop offset="1" stop-color="#069"/></linearGradient><linearGradient id="f"><stop offset="0" stop-color="#1fff05"/><stop offset="1" stop-color="#109900"/></linearGradient><linearGradient id="e"><stop offset="0" stop-color="#ff1404"/><stop offset="1" stop-color="#861d15"/></linearGradient><linearGradient id="c"><stop offset="0" stop-color="#4d4d4d"/><stop offset="1" stop-color="#2c2c2c"/></linearGradient><linearGradient id="d"><stop offset="0" stop-color="#4c4c4c"/><stop offset="1" stop-color="#0d0d0d"/></linearGradient><linearGradient id="i"><stop offset="0" stop-color="#b5b5b5"/><stop offset="1" stop-color="#fff" stop-opacity="0"/></linearGradient><linearGradient xlink:href="#b" id="n" x1="5.83" x2="12.91" y1="6.7" y2="13.2" gradientUnits="userSpaceOnUse"/><linearGradient xlink:href="#c" id="p" x1="25.47" x2="45.783" y1="24.208" y2="38.346" gradientUnits="userSpaceOnUse"/><linearGradient id="j"><stop offset="0" stop-color="#ff8f05"/><stop offset=".522" stop-color="#fee30b"/><stop offset="1" stop-color="#fff"/></linearGradient><linearGradient xlink:href="#d" id="u" x1="5.83" x2="12.91" y1="6.7" y2="13.2" gradientUnits="userSpaceOnUse"/><linearGradient xlink:href="#e" id="q" x1="28.395" x2="32.894" y1="20.758" y2="25.368" gradientUnits="userSpaceOnUse"/><linearGradient xlink:href="#f" id="r" x1="28.395" x2="32.894" y1="27.368" y2="31.977" gradientUnits="userSpaceOnUse"/><linearGradient xlink:href="#g" id="s" x1="28.395" x2="32.894" y1="33.894" y2="38.503" gradientUnits="userSpaceOnUse"/><linearGradient id="h"><stop offset="0" stop-color="#fff"/><stop offset="1" stop-color="#fff" stop-opacity="0"/></linearGradient><linearGradient xlink:href="#h" id="k" x1="7.56" x2="27.435" y1="26.229" y2="21.1" gradientTransform="translate(64.028 9.74)" gradientUnits="userSpaceOnUse"/><linearGradient xlink:href="#h" id="l" x1="36.084" x2="30.671" y1="28.491" y2="14.734" gradientTransform="translate(64.028 9.74)" gradientUnits="userSpaceOnUse"/><radialGradient xlink:href="#i" id="m" cx="7.18" cy="8.2" r="6.59" fx="7.18" fy="8.2" gradientTransform="matrix(.9 .5558 -.5314 .8606 5.08 -2.85)" gradientUnits="userSpaceOnUse"/><radialGradient xlink:href="#j" id="t" cx="7.18" cy="8.2" r="6.59" fx="7.18" fy="8.2" gradientTransform="matrix(.9 .5558 -.5314 .8606 5.08 -2.85)" gradientUnits="userSpaceOnUse"/><filter id="a" width="1.832" height="1.832" x="-.416" y="-.416" color-interpolation-filters="sRGB"><feGaussianBlur stdDeviation=".13"/></filter><filter id="v" width="1.832" height="1.832" x="-.416" y="-.416" color-interpolation-filters="sRGB"><feGaussianBlur stdDeviation=".13"/></filter></defs><g paint-order="markers stroke fill"><path fill="#393939" stroke="#000" stroke-linecap="round" stroke-linejoin="round" stroke-width=".5" d="M8.262 13.157s4.06 3.42 10.186 4.548c6.127 1.127 14.922-4.51 16.313-5.262 1.39-.752.075 4.172.075 4.172s-7.141 4.435-15.11 2.931C11.758 18.043 8.3 14.322 8.3 14.322z" opacity=".85"/><path fill="#6f6f6f" stroke="#000" stroke-linecap="round" stroke-linejoin="round" stroke-width=".5" d="M10.818 20.75s9.096 1.954 13.832 6.013c4.736 4.06 6.427 7.856 6.427 7.856l-.977 2.518s-4.057-8.852-10.261-10.261C10.405 24.733 3.6 30.146 3.6 30.146z" opacity=".85"/><path fill="url(#k)" d="M71.549 33.879s11.222-.358 15.958 3.701c4.736 4.06 6.507 7.856 6.507 7.856l-.18 1.402s-4.057-8.852-10.26-10.261c-9.435-2.143-16.238 3.27-16.238 3.27z" transform="translate(-63.734 -9.701)"/><path fill="#505050" stroke="#000" stroke-linecap="round" stroke-linejoin="round" stroke-width=".5" d="M24.237 8.308s2.956 10.391 7.33 15.148c4.284 4.66 7.216 6.916 7.216 6.916l8.833-3.458s-13.832-2.368-17.967-9.21c-3.897-6.447-2.894-11.388-2.894-11.388Z" opacity=".85"/><path fill="url(#l)" d="M87.97 18.009S90.928 28.4 95.3 33.157c4.285 4.66 7.217 6.916 7.217 6.916l4.838-1.344s-11.003-4.208-15.138-11.05c-3.897-6.447-2.743-11.286-2.743-11.286z" transform="translate(-63.734 -9.701)"/></g><path fill="url(#m)" fill-rule="evenodd" stroke="url(#n)" stroke-width=".85" d="M13.51 5.1c.44.77-2.18 2.89-2.29 3.76-.1.88 1.95 3.55 1.36 4.2-.6.64-3.43-1.19-4.3-1.02-.86.17-2.76 2.95-3.56 2.58-.8-.36.07-3.62-.36-4.39C3.93 9.46.69 8.51.8 7.63c.1-.87 3.47-1.05 4.06-1.7.6-.64.51-4.01 1.38-4.18.86-.18 2.07 2.97 2.87 3.34.8.37 3.97-.76 4.4 0Z" enable-background="accumulate" overflow="visible" style="marker:none" transform="matrix(2.647 2.2616 -2.267 2.6553 22.22 -16.85)"/><use xlink:href="#o" fill-rule="evenodd" filter="url(#a)" transform="rotate(36.96 28.44 21) scale(3.0331)"/><g paint-order="markers stroke fill"><path fill="#fff" stroke="url(#p)" stroke-linecap="round" stroke-width="2" d="M28.278 19.196h13.796a2.708 2.708 45 0 1 2.709 2.708v21.824a2.551 2.551 135 0 1-2.552 2.551h-13.6a2.72 2.72 45 0 1-2.719-2.719V21.562a2.365 2.365 135 0 1 2.366-2.366z"/><path fill="#ff1404" stroke="url(#q)" stroke-linecap="round" stroke-linejoin="round" stroke-width="2" d="M29.685 21.758h1.901a.307.307 45 0 1 .308.308v1.985a.316.316 135 0 1-.317.317h-1.814a.368.368 45 0 1-.368-.368v-1.952a.29.29 135 0 1 .29-.29z" transform="translate(0 -.413)"/><path fill="#1fff05" stroke="url(#r)" stroke-linecap="round" stroke-linejoin="round" stroke-width="2" d="M29.698 28.368h1.862a.334.334 45 0 1 .334.334v1.958a.316.316 135 0 1-.317.317h-1.834a.347.347 45 0 1-.348-.348v-1.958a.303.303 135 0 1 .303-.303z" transform="translate(0 -.752)"/><path fill="#08acff" stroke="url(#s)" stroke-linecap="round" stroke-linejoin="round" stroke-width="2" d="M29.725 34.894h1.855a.314.314 45 0 1 .314.314v1.972a.323.323 135 0 1-.323.323h-1.828a.347.347 45 0 1-.348-.348v-1.932a.33.33 135 0 1 .33-.33z" transform="translate(0 -.752)"/><path d="M35.022 22.486h7.713v.601h-7.713zm0 6.156h7.713v.601h-7.713zm0 6.485h7.713v.601h-7.713zm0 7.288h7.713v.601h-7.713z"/></g><path fill="url(#t)" fill-rule="evenodd" stroke="url(#u)" stroke-width=".85" d="M13.51 5.1c.44.77-2.18 2.89-2.29 3.76-.1.88 1.95 3.55 1.36 4.2-.6.64-3.43-1.19-4.3-1.02-.86.17-2.76 2.95-3.56 2.58-.8-.36.07-3.62-.36-4.39C3.93 9.46.69 8.51.8 7.63c.1-.87 3.47-1.05 4.06-1.7.6-.64.51-4.01 1.38-4.18.86-.18 2.07 2.97 2.87 3.34.8.37 3.97-.76 4.4 0z" enable-background="accumulate" overflow="visible" style="marker:none" transform="matrix(.3741 .3196 -.3204 .3753 30.478 36.793)"/><path fill="none" stroke="#fff" stroke-linejoin="round" stroke-width="2.23" d="m43.15 26.6-13.29 3.06-4.27 13.9-7.3-12.51-14.12.53 9.24-11.12L8.95 7.43l13.08 5.48 11.25-8.56-1.32 14.56Z" enable-background="accumulate" overflow="visible" style="marker:none" transform="translate(27.337 39.175) scale(.1413)"/><use xlink:href="#o" fill-rule="evenodd" filter="url(#v)" transform="rotate(36.95 -40.926 63.453) scale(.4286)"/></svg>