<svg width="48" height="48" xmlns:xlink="http://www.w3.org/1999/xlink" xmlns="http://www.w3.org/2000/svg"><defs><path fill="#fffdfc" fill-rule="evenodd" d="M8.5 7.99a.37.37 0 0 1-.38.37.37.37 0 0 1-.37-.37.37.37 0 0 1 .37-.38.37.37 0 0 1 .37.37" filter="url(#r)" id="reuse-0"/></defs><defs><linearGradient id="a"><stop offset="0" stop-color="#1a1a1a"/><stop offset="1"/></linearGradient><linearGradient id="b"><stop offset="0" stop-color="#ffae05" stop-opacity="0"/><stop offset=".416" stop-color="#7b7b7b" stop-opacity="0"/><stop offset="1" stop-color="#cecece"/></linearGradient><linearGradient xlink:href="#c" id="s" x1="25.47" y1="24.208" x2="45.783" y2="38.346" gradientUnits="userSpaceOnUse"/><linearGradient id="c"><stop offset="0" stop-color="#4d4d4d"/><stop offset="1" stop-color="#2c2c2c"/></linearGradient><linearGradient xlink:href="#d" id="t" x1="28.395" y1="20.758" x2="32.894" y2="25.368" gradientUnits="userSpaceOnUse"/><linearGradient id="d"><stop offset="0" stop-color="#ff1404"/><stop offset="1" stop-color="#861d15"/></linearGradient><linearGradient xlink:href="#e" id="u" x1="28.395" y1="27.368" x2="32.894" y2="31.977" gradientUnits="userSpaceOnUse"/><linearGradient id="e"><stop offset="0" stop-color="#1fff05"/><stop offset="1" stop-color="#109900"/></linearGradient><linearGradient xlink:href="#f" id="v" x1="28.395" y1="33.894" x2="32.894" y2="38.503" gradientUnits="userSpaceOnUse"/><linearGradient id="f"><stop offset="0" stop-color="#08acff"/><stop offset="1" stop-color="#069"/></linearGradient><linearGradient id="g"><stop offset="0" stop-color="#ff8f05"/><stop offset=".522" stop-color="#fee30b"/><stop offset="1" stop-color="#fff"/></linearGradient><linearGradient xlink:href="#h" id="x" gradientUnits="userSpaceOnUse" x1="5.83" y1="6.7" x2="12.91" y2="13.2"/><linearGradient id="h"><stop offset="0" stop-color="#4c4c4c"/><stop offset="1" stop-color="#0d0d0d"/></linearGradient><linearGradient xlink:href="#i" id="k" x1="7.718" y1="16.074" x2="35.358" y2="16.074" gradientUnits="userSpaceOnUse" gradientTransform="translate(.066 -.004)"/><linearGradient id="i"><stop offset="0" stop-color="#d9d9d9"/><stop offset="1" stop-color="gray"/></linearGradient><linearGradient xlink:href="#i" id="l" x1="3.058" y1="28.904" x2="31.034" y2="28.904" gradientUnits="userSpaceOnUse" gradientTransform="translate(.066 -.004)"/><linearGradient xlink:href="#j" id="m" x1="7.56" y1="26.229" x2="27.435" y2="21.1" gradientUnits="userSpaceOnUse" gradientTransform="translate(.066 -.004)"/><linearGradient id="j"><stop offset="0" stop-color="#fff"/><stop offset="1" stop-color="#fff" stop-opacity="0"/></linearGradient><linearGradient xlink:href="#i" id="n" x1="41.058" y1="27.138" x2="25.772" y2="9.096" gradientUnits="userSpaceOnUse" gradientTransform="translate(.066 -.004)"/><linearGradient xlink:href="#j" id="o" x1="36.084" y1="28.491" x2="30.671" y2="14.734" gradientUnits="userSpaceOnUse" gradientTransform="translate(.066 -.004)"/><linearGradient xlink:href="#a" id="q" x1="5.83" x2="12.91" y1="6.7" y2="13.2" gradientUnits="userSpaceOnUse" gradientTransform="matrix(2.647 2.2616 -2.267 2.6553 22.286 -16.854)"/><radialGradient xlink:href="#g" id="w" cx="7.18" cy="8.2" r="6.59" fx="7.18" fy="8.2" gradientTransform="matrix(.9 .5558 -.5314 .8606 5.08 -2.85)" gradientUnits="userSpaceOnUse"/><radialGradient xlink:href="#b" id="p" cx="7.18" cy="8.2" r="6.59" fx="7.18" fy="8.2" gradientTransform="matrix(1.1223 3.51126 -3.3576 1.08334 42.194 -12.933)" gradientUnits="userSpaceOnUse"/><filter id="y" width="1.832" height="1.832" x="-.416" y="-.416" color-interpolation-filters="sRGB"><feGaussianBlur stdDeviation=".13"/></filter><filter id="r" width="1.832" height="1.832" x="-.416" y="-.416" color-interpolation-filters="sRGB"><feGaussianBlur stdDeviation=".13"/></filter></defs><path d="M8.034 13.114s4.06 3.42 10.187 4.548c6.126 1.127 14.922-4.51 16.312-5.262 1.391-.752.075 4.172.075 4.172s-7.141 4.435-15.11 2.932C11.53 18 8.072 14.279 8.072 14.279Z" fill="url(#k)" stroke="#000" stroke-width=".5" stroke-linecap="round" stroke-linejoin="round" paint-order="markers stroke fill"/><path d="M10.59 20.706s9.096 1.955 13.832 6.014c4.736 4.06 6.428 7.856 6.428 7.856l-.977 2.518s-4.058-8.852-10.262-10.261c-9.434-2.142-16.237 3.27-16.237 3.27z" fill="url(#l)" stroke="#000" stroke-width=".5" stroke-linecap="round" stroke-linejoin="round" paint-order="markers stroke fill"/><path d="M7.587 24.135s11.222-.358 15.958 3.702c4.736 4.059 6.507 7.855 6.507 7.855l-.18 1.402s-4.057-8.852-10.26-10.261c-9.435-2.142-16.238 3.27-16.238 3.27z" fill="url(#m)" paint-order="markers stroke fill"/><path d="M24.009 8.265s2.957 10.391 7.33 15.148c4.284 4.66 7.216 6.916 7.216 6.916l8.833-3.458s-13.832-2.368-17.967-9.21c-3.897-6.447-2.894-11.388-2.894-11.388Z" fill="url(#n)" stroke="#000" stroke-width=".5" stroke-linecap="round" stroke-linejoin="round" paint-order="markers stroke fill"/><path d="M24.009 8.265s2.957 10.391 7.33 15.148c4.284 4.66 7.216 6.916 7.216 6.916l4.839-1.344s-11.004-4.208-15.138-11.05C24.358 11.489 25.512 6.65 25.512 6.65Z" fill="url(#o)" paint-order="markers stroke fill"/><path fill="url(#p)" fill-rule="evenodd" stroke="url(#q)" stroke-width="2.964" d="M46.485 27.242c-.58 3.04-12.322 2.744-14.585 4.805-2.26 2.11-2.886 13.836-5.922 14.228-3.039.342-6.381-10.917-9.07-12.433-2.661-1.494-13.993 1.59-15.272-1.2-1.301-2.766 8.392-9.455 9-12.472.607-3.017-5.816-12.867-3.53-14.955 2.237-2.084 11.566 5.06 14.601 4.668 3.04-.342 10.44-9.494 13.129-7.978 2.684 1.467-1.254 12.568.025 15.36 1.279 2.791 12.232 6.96 11.647 9.95z" enable-background="accumulate" overflow="visible" style="marker:none"/><use fill-rule="evenodd" filter="url(#r)" transform="rotate(36.96 28.48 21.097) scale(3.0331)" xlink:href="#reuse-0"/><path d="M28.278 19.196h13.796a2.708 2.708 45 0 1 2.709 2.708v21.824a2.551 2.551 135 0 1-2.552 2.551h-13.6a2.72 2.72 45 0 1-2.719-2.719V21.562a2.365 2.365 135 0 1 2.366-2.366z" transform="translate(.122 -.113)" fill="#fff" stroke="url(#s)" stroke-width="2" stroke-linecap="round" paint-order="markers stroke fill"/><path d="M29.685 21.758h1.901a.307.307 45 0 1 .308.308v1.985a.316.316 135 0 1-.317.317h-1.814a.368.368 45 0 1-.368-.368v-1.952a.29.29 135 0 1 .29-.29z" transform="translate(.122 -.526)" fill="#ff1404" stroke="url(#t)" stroke-width="2" stroke-linecap="round" stroke-linejoin="round" paint-order="markers stroke fill"/><path d="M29.698 28.368h1.862a.334.334 45 0 1 .334.334v1.958a.316.316 135 0 1-.317.317h-1.834a.347.347 45 0 1-.348-.348v-1.958a.303.303 135 0 1 .303-.303z" transform="translate(.122 -.865)" fill="#1fff05" stroke="url(#u)" stroke-width="2" stroke-linecap="round" stroke-linejoin="round" paint-order="markers stroke fill"/><path d="M29.725 34.894h1.855a.314.314 45 0 1 .314.314v1.972a.323.323 135 0 1-.323.323h-1.828a.347.347 45 0 1-.348-.348v-1.932a.33.33 135 0 1 .33-.33z" transform="translate(.122 -.865)" fill="#08acff" stroke="url(#v)" stroke-width="2" stroke-linecap="round" stroke-linejoin="round" paint-order="markers stroke fill"/><path paint-order="markers stroke fill" d="M35.144 22.373h7.713v.601h-7.713zM35.144 28.529h7.713v.601h-7.713zM35.144 35.014h7.713v.601h-7.713zM35.144 42.302h7.713v.601h-7.713z"/><path fill="url(#w)" fill-rule="evenodd" stroke="url(#x)" stroke-width=".85" d="M13.51 5.1c.44.77-2.18 2.89-2.29 3.76-.1.88 1.95 3.55 1.36 4.2-.6.64-3.43-1.19-4.3-1.02-.86.17-2.76 2.95-3.56 2.58-.8-.36.07-3.62-.36-4.39C3.93 9.46.69 8.51.8 7.63c.1-.87 3.47-1.05 4.06-1.7.6-.64.51-4.01 1.38-4.18.86-.18 2.07 2.97 2.87 3.34.8.37 3.97-.76 4.4 0z" enable-background="accumulate" overflow="visible" style="marker:none" transform="matrix(.3741 .31964 -.3204 .37528 30.6 36.68)"/><path fill="none" stroke="#fff" stroke-linejoin="round" stroke-width="2.23" d="m43.15 26.6-13.29 3.06-4.27 13.9-7.3-12.51-14.12.53 9.24-11.12L8.95 7.43l13.08 5.48 11.25-8.56-1.32 14.56Z" enable-background="accumulate" overflow="visible" style="marker:none" transform="translate(27.46 39.062) scale(.14133)"/><use fill-rule="evenodd" filter="url(#y)" transform="scale(.42867) rotate(36.96 -94.921 148.319)" xlink:href="#reuse-0"/></svg>