<svg width="48" height="48" xmlns:xlink="http://www.w3.org/1999/xlink" xmlns="http://www.w3.org/2000/svg"><defs><linearGradient id="a"><stop offset="0" stop-color="#4c4c4c"/><stop offset="1" stop-color="#0d0d0d"/></linearGradient><linearGradient id="b"><stop offset="0" stop-color="#b8ebff"/><stop offset=".672" stop-color="#29d0ff"/><stop offset="1" stop-color="#0077b4"/></linearGradient><linearGradient xlink:href="#a" id="g" x1="5.83" x2="12.91" y1="6.7" y2="13.2" gradientUnits="userSpaceOnUse" gradientTransform="matrix(1.31541 1.1239 -1.12657 1.31954 35.174 3.707)"/><linearGradient xlink:href="#c" id="i" x1="-20.459" y1="-18.821" x2="-60.891" y2="-30.538" gradientUnits="userSpaceOnUse"/><linearGradient id="c"><stop offset=".113" stop-color="#fff"/><stop offset=".244" stop-color="#b7f8ff"/><stop offset=".48" stop-color="#17d1ff"/><stop offset=".705" stop-color="#00aaf2"/><stop offset="1" stop-color="#004c8d"/></linearGradient><linearGradient xlink:href="#d" id="j" x1="-62.22" y1="-25.308" x2="-18.692" y2="-25.308" gradientUnits="userSpaceOnUse"/><linearGradient id="d"><stop offset=".001" stop-color="#002839"/><stop offset=".503" stop-color="#0ea4ff"/><stop offset="1" stop-color="#3dd2ff"/></linearGradient><linearGradient id="e"><stop offset="0" stop-color="#fff"/><stop offset=".468" stop-color="#dadada"/><stop offset="1" stop-color="#6e6e6e"/></linearGradient><linearGradient xlink:href="#f" id="l" x1="-28.175" y1="-18.696" x2="-56.278" y2="-31.224" gradientUnits="userSpaceOnUse"/><linearGradient id="f"><stop offset="0" stop-color="#82f4ff"/><stop offset="1" stop-color="#23b6ff"/></linearGradient><filter id="h" width="1.054" height="1.054" x="-.027" y="-.027" color-interpolation-filters="sRGB"><feGaussianBlur stdDeviation=".009"/></filter><filter id="m" x="-.663" y="-.535" width="2.325" height="2.069" color-interpolation-filters="sRGB"><feGaussianBlur stdDeviation="0.707 0.726"/></filter><radialGradient xlink:href="#e" id="k" cx="-40.187" cy="-25.201" fx="-40.187" fy="-25.201" r="14.157" gradientUnits="userSpaceOnUse" gradientTransform="matrix(-1.13663 -.42546 .35057 -.93654 -77.03 -65.9)"/></defs><path fill="#11cdff" fill-rule="evenodd" stroke="url(#g)" stroke-width="1.473" d="M47.2 25.62c-.289 1.511-6.123 1.364-7.248 2.388-1.123 1.05-1.435 6.876-2.943 7.07-1.51.171-3.171-5.424-4.507-6.178-1.323-.742-6.954.79-7.59-.596-.646-1.375 4.17-4.699 4.473-6.198.301-1.5-2.89-6.394-1.754-7.432 1.112-1.035 5.747 2.515 7.256 2.32 1.51-.17 5.188-4.718 6.524-3.965 1.334.73-.623 6.246.012 7.633.636 1.388 6.079 3.46 5.788 4.945z" enable-background="accumulate" overflow="visible" style="marker:none"/><path fill="none" stroke="#fff" stroke-linejoin="round" stroke-width="1.5" d="m45.575 25.3-6.604 1.52-2.122 6.908-3.628-6.217-7.017.263 4.592-5.526-2.216-6.475 6.5 2.723 5.59-4.254-.655 7.236z" enable-background="accumulate" overflow="visible" style="marker:none"/><path fill="#fffdfc" fill-rule="evenodd" d="M8.5 7.99a.37.37 0 0 1-.38.37.37.37 0 0 1-.37-.37.37.37 0 0 1 .37-.38.37.37 0 0 1 .37.37" filter="url(#h)" transform="scale(1.50728) rotate(36.96 5.204 34.946)" style="mix-blend-mode:normal"/><g transform="matrix(.53262 0 0 .53262 -.107 13.84)"><circle cx="-40.456" cy="-25.308" r="21.002" transform="rotate(-149.458)" fill="url(#i)" stroke="url(#j)" stroke-width="1.523" stroke-linecap="round" stroke-linejoin="round"/><circle cx="-40.187" cy="-25.201" r="13.12" transform="rotate(-149.458)" fill="url(#k)" stroke="url(#l)" stroke-width="2.075" stroke-linecap="round" stroke-linejoin="round"/><path style="mix-blend-mode:normal" transform="matrix(1.79036 0 0 1.79036 -26.424 -3.209)" d="M30.32 29.412a1.28 1.63 0 0 1-1.159 1.623 1.28 1.63 0 0 1-1.38-1.314 1.28 1.63 0 0 1 .898-1.872 1.28 1.63 0 0 1 1.549.958l-1.189.605z" fill="#fff" filter="url(#m)"/><circle cx="8.598" cy="33.316" r="1.129" transform="matrix(1.87752 0 0 1.87752 .219 -25.997)" fill="#fff" paint-order="stroke fill markers"/></g></svg>