<svg xmlns="http://www.w3.org/2000/svg" xmlns:xlink="http://www.w3.org/1999/xlink" width="48" height="48"><defs><linearGradient id="a"><stop offset="0" style="stop-color:#d3d7cf;stop-opacity:1"/><stop offset="1" style="stop-color:white;stop-opacity:1"/></linearGradient><linearGradient xlink:href="#a" id="n" x1="23.201" x2="22.741" y1="3.505" y2="26.46" gradientTransform="matrix(1.573 0 0 1.73278 -19.974 -2.401)" gradientUnits="userSpaceOnUse"/><linearGradient xlink:href="#f" id="o" x1="22.89" x2="25.245" y1="32.462" y2="42.721" gradientUnits="userSpaceOnUse"/><linearGradient id="f"><stop offset="0" style="stop-color:#9307ff;stop-opacity:1"/><stop offset="1" style="stop-color:#ff07b5;stop-opacity:1"/></linearGradient><linearGradient xlink:href="#g" id="p" x1="24.947" x2="29.248" y1="44.997" y2="40.399" gradientUnits="userSpaceOnUse"/><linearGradient id="g"><stop offset="0" style="stop-color:#fff;stop-opacity:1"/><stop offset="1" style="stop-color:#fff;stop-opacity:0"/></linearGradient><linearGradient xlink:href="#h" id="q" x1="19.152" x2="19.243" y1="27.653" y2="31.268" gradientUnits="userSpaceOnUse"/><linearGradient id="h"><stop offset="0" style="stop-color:#25ff07;stop-opacity:1"/><stop offset="1" style="stop-color:#4507ff;stop-opacity:1"/></linearGradient><linearGradient xlink:href="#g" id="r" x1="30.564" x2="3.419" y1="35.787" y2="27.681" gradientUnits="userSpaceOnUse"/><linearGradient xlink:href="#i" id="s" x1="26.912" x2="26.317" y1="24.209" y2="27.451" gradientUnits="userSpaceOnUse"/><linearGradient id="i"><stop offset="0" style="stop-color:#0791ff;stop-opacity:1"/><stop offset="1" style="stop-color:#07ffeb;stop-opacity:1"/></linearGradient><linearGradient xlink:href="#g" id="t" x1="8.106" x2="32.966" y1="27.055" y2="22.165" gradientUnits="userSpaceOnUse"/><linearGradient xlink:href="#j" id="u" x1="20.563" x2="19.137" y1="16.473" y2="21.736" gradientUnits="userSpaceOnUse"/><linearGradient id="j"><stop offset="0" style="stop-color:#ff8207;stop-opacity:1"/><stop offset="1" style="stop-color:#ffee07;stop-opacity:1"/></linearGradient><linearGradient xlink:href="#g" id="v" x1="10.167" x2="11.013" y1="12.498" y2="20.692" gradientUnits="userSpaceOnUse"/><linearGradient xlink:href="#k" id="w" x1="28.032" x2="27.037" y1="10.432" y2="13.568" gradientUnits="userSpaceOnUse"/><linearGradient id="k"><stop offset="0" style="stop-color:#ff0707;stop-opacity:1"/><stop offset="1" style="stop-color:#ff6407;stop-opacity:1"/></linearGradient><linearGradient xlink:href="#g" id="x" x1="8.72" x2="35.557" y1="11.07" y2="11.07" gradientUnits="userSpaceOnUse"/><linearGradient id="l"><stop offset="0" stop-color="#ffeabe" style="stop-color:#ffae05;stop-opacity:0"/><stop offset=".416" stop-color="#ffeabe" style="stop-color:#7b7b7b;stop-opacity:0"/><stop offset="1" stop-color="#434343" style="stop-color:#fff;stop-opacity:1"/></linearGradient><linearGradient xlink:href="#m" id="z" x1="5.83" x2="12.91" y1="6.7" y2="13.2" gradientUnits="userSpaceOnUse"/><linearGradient id="m"><stop offset="0" stop-color="#4c4c4c" style="stop-color:#1a1a1a;stop-opacity:1"/><stop offset="1" stop-color="#0d0d0d" style="stop-color:#000;stop-opacity:1"/></linearGradient><radialGradient xlink:href="#l" id="y" cx="7.18" cy="8.2" r="6.59" fx="7.18" fy="8.2" gradientTransform="matrix(.9 .5558 -.5314 .8606 5.08 -2.85)" gradientUnits="userSpaceOnUse"/><filter id="A" width="1.832" height="1.832" x="-.416" y="-.416" color-interpolation-filters="sRGB"><feGaussianBlur stdDeviation=".13"/></filter></defs><path d="M.807 1.15v30.398H12.99l-3.86 15.241 25.286-15.241h12.782V1.15Z" style="color:#000;display:inline;overflow:visible;visibility:visible;fill:url(#n);fill-opacity:1;fill-rule:evenodd;stroke:#2e3436;stroke-width:1.54233;stroke-linecap:butt;stroke-linejoin:round;stroke-miterlimit:4;stroke-dasharray:none;stroke-dashoffset:0;stroke-opacity:1;marker:none"/><path d="M2.085 2.191v27.94h12.174l-2.946 13.847L33.93 30.13h11.913V2.191Z" style="color:#000;display:inline;overflow:visible;visibility:visible;fill:none;stroke:#fff;stroke-width:1.02822;stroke-linecap:butt;stroke-linejoin:miter;stroke-miterlimit:6;stroke-dasharray:none;stroke-dashoffset:0;stroke-opacity:1;marker:none"/><text xml:space="preserve" x="4.052" y="11.815" style="font-style:normal;font-variant:normal;font-weight:400;font-stretch:normal;font-size:15.6079px;line-height:0%;font-family:Tahoma;-inkscape-font-specification:Tahoma;text-align:start;letter-spacing:0;word-spacing:0;writing-mode:lr-tb;text-anchor:start;fill:#000;fill-opacity:1;stroke:none;stroke-width:1.30065"><tspan x="4.052" y="11.815" style="font-size:15.6079px;line-height:1.25;stroke-width:1.30065"> </tspan></text><path d="M13.306 33.265s2.189-1.668 6.672-1.71c1.693-.017 4.491 2.048 6.596 3.1 2.477 1.239 3.684.865 3.684.865l-4.06 11.088-7.912-11.295Z" style="fill:url(#o);fill-opacity:1;stroke:#000;stroke-width:.5;stroke-linecap:round;stroke-linejoin:round;paint-order:markers stroke fill" transform="translate(9.82 3.076)scale(.58884)"/><path d="M17.186 34.62s.858-.982 4.773.02c1.862.476 2.33 1.57 3.313 3.949 1.057 2.56 3.976 1.874 3.976 1.874l-3.05 6.145-5.919-7.92z" style="fill:url(#p);fill-opacity:1;stroke:none;stroke-width:.5;stroke-linecap:round;stroke-linejoin:round;paint-order:markers stroke fill" transform="translate(9.82 3.076)scale(.58884)"/><path d="M8.42 32.889s8.425-3.571 11.614-3.007c4.886.864 5.488 3.646 10.412 3.834 1.127.043 2.368-1.203 2.368-1.203s-.214 1.166-6.691-2.782c-8.758-5.337-21.011-2.48-21.011-2.48l-3.57 4.66 1.24 1.654z" style="fill:url(#q);fill-opacity:1;stroke:#000;stroke-width:.5;stroke-linecap:round;stroke-linejoin:round;paint-order:markers stroke fill" transform="translate(9.82 3.076)scale(.58884)"/><path d="M8.42 32.889s8.425-3.571 11.614-3.007c4.886.864 5.488 3.646 10.412 3.834 1.127.043 1.225-2.266 1.225-2.266s.245 4.022-6-.283c-9.475-6.534-23.35-.328-23.35-.328L2.1 33.054l2.25.83z" style="fill:url(#r);fill-opacity:1;stroke:none;stroke-width:.5;stroke-linecap:round;stroke-linejoin:round;paint-order:markers stroke fill" transform="translate(9.82 3.076)scale(.58884)"/><path d="M10.75 19.846s5.187 3.796 11.652 4.247 18.192-1.992 18.192-1.992l5.3 4.097-.414 2.143-12.93 3.42S26.5 26.687 20.071 25.86s-13.268-.075-13.268-.075z" style="fill:url(#s);fill-opacity:1;stroke:#000;stroke-width:.5;stroke-linecap:round;stroke-linejoin:round;paint-order:markers stroke fill" transform="translate(9.82 3.076)scale(.58884)"/><path d="M8.624 23.939s7.018-.651 13.565 1.35c13.841 4.232 23.694 2.686 23.694 2.686l-.84 1.014-3.124.867-9.369 1.905S26.5 26.687 20.071 25.86s-13.268-.075-13.268-.075z" style="fill:url(#t);fill-opacity:1;stroke:none;stroke-width:.5;stroke-linecap:round;stroke-linejoin:round;paint-order:markers stroke fill" transform="translate(9.82 3.076)scale(.58884)"/><path d="M38.715 21.124s-4.172-1.466-8.796-1.767-8.006 3.797-13.23 2.105c-5.225-1.691-6.616-3.458-6.616-3.458L7.63 10.863s7.931 1.992 13.193 4.36 15.561 3.946 15.561 3.946z" style="fill:url(#u);fill-opacity:1;stroke:#000;stroke-width:.5;stroke-linecap:round;stroke-linejoin:round;paint-order:markers stroke fill" transform="translate(9.82 3.076)scale(.58884)"/><path d="M38.715 21.124S34.524 18.7 29.9 18.399c-4.624-.3-7.687.582-12.254-1.86-4.842-2.591-8.25-2.557-8.25-2.557l-1.767-3.12s7.931 1.993 13.193 4.36c5.262 2.369 15.561 3.947 15.561 3.947z" style="fill:url(#v);fill-opacity:1;stroke:none;stroke-width:.5;stroke-linecap:round;stroke-linejoin:round;paint-order:markers stroke fill" transform="translate(9.82 3.076)scale(.58884)"/><path d="M34.843 17.365s-6.615.15-16.275-4.548S8.72 4.774 8.72 4.774l12.178 5.224 6.465-3.796s3.383-1.692 5.45-.338 2.744 1.841 2.744 1.841z" style="fill:url(#w);stroke:#000;stroke-width:.5;stroke-linecap:round;stroke-linejoin:round;paint-order:markers stroke fill" transform="translate(9.82 3.076)scale(.58884)"/><path d="M34.843 17.365s-6.615.15-16.275-4.548S8.72 4.774 8.72 4.774l10.743 6.606c2.549 1.012 5.318 2.096 8.141 2.032 2.965-.068 7.953-5.707 7.953-5.707z" style="fill:url(#x);fill-opacity:1;stroke:none;stroke-width:.5;stroke-linecap:round;stroke-linejoin:round;paint-order:markers stroke fill" transform="translate(9.82 3.076)scale(.58884)"/><path fill="url(#y)" fill-rule="evenodd" stroke="url(#z)" stroke-width=".85" d="M13.51 5.1c.44.77-2.18 2.89-2.29 3.76-.1.88 1.95 3.55 1.36 4.2-.6.64-3.43-1.19-4.3-1.02-.86.17-2.76 2.95-3.56 2.58-.8-.36.07-3.62-.36-4.39S.69 8.51.8 7.63c.1-.87 3.47-1.05 4.06-1.7.6-.64.51-4.01 1.38-4.18.86-.18 2.07 2.97 2.87 3.34s3.97-.76 4.4 0z" enable-background="accumulate" overflow="visible" style="display:inline;opacity:1;fill:url(#y);stroke:url(#z);marker:none" transform="matrix(1.55865 1.33171 -1.3349 1.56354 22.904 -6.845)"/><path fill="#fffdfc" fill-rule="evenodd" d="M8.5 7.99a.37.37 0 0 1-.38.37.37.37 0 0 1-.37-.37.37.37 0 0 1 .37-.38.37.37 0 0 1 .37.37" filter="url(#A)" style="display:inline" transform="rotate(36.96 17.054 28.595)scale(1.786)"/></svg>