<svg width="48" height="48" xmlns:xlink="http://www.w3.org/1999/xlink" xmlns="http://www.w3.org/2000/svg"><defs><linearGradient id="a"><stop offset="0" stop-color="#4c4c4c"/><stop offset="1" stop-color="#0d0d0d"/></linearGradient><linearGradient id="b"><stop offset="0" stop-color="#39bdff" style="stop-color:#b8ebff;stop-opacity:1"/><stop offset=".672" stop-color="#39bdff" style="stop-color:#29d0ff;stop-opacity:1"/><stop offset="1" stop-color="#0038a0" style="stop-color:#0077b4;stop-opacity:1"/></linearGradient><linearGradient xlink:href="#a" id="d" x1="5.83" x2="12.91" y1="6.7" y2="13.2" gradientUnits="userSpaceOnUse" gradientTransform="matrix(2.02518 1.73032 -1.73445 2.03153 22.628 -7.25)"/><radialGradient xlink:href="#b" id="c" cx="7.18" cy="8.2" r="6.59" fx="7.18" fy="8.2" gradientTransform="matrix(.85866 2.68641 -2.56885 .82885 37.86 -4.25)" gradientUnits="userSpaceOnUse"/><filter id="e" width="1.832" height="1.832" x="-.416" y="-.416" color-interpolation-filters="sRGB"><feGaussianBlur stdDeviation=".13"/></filter></defs><path fill="url(#c)" fill-rule="evenodd" stroke="url(#d)" stroke-width="2.267" d="M41.143 26.487c-.445 2.326-9.428 2.1-11.16 3.676-1.728 1.615-2.207 10.586-4.53 10.886-2.325.262-4.882-8.353-6.939-9.513-2.036-1.142-10.706 1.218-11.684-.918-.996-2.116 6.42-7.233 6.885-9.542.464-2.308-4.45-9.844-2.7-11.441 1.711-1.595 8.848 3.87 11.17 3.571 2.326-.262 7.989-7.264 10.045-6.104 2.054 1.122-.959 9.615.02 11.751.978 2.136 9.358 5.326 8.91 7.614z" enable-background="accumulate" overflow="visible" style="fill:url(#c);stroke:url(#d);marker:none"/><path fill="none" stroke="#fff" stroke-linejoin="round" stroke-width="2.23" d="m38.642 25.993-10.168 2.34-3.267 10.636-5.585-9.572-10.803.406 7.069-8.508-3.412-9.97 10.007 4.194 8.607-6.55-1.01 11.14Z" enable-background="accumulate" overflow="visible" style="stroke-width:1.9;stroke-dasharray:none;marker:none"/><path fill="#fffdfc" fill-rule="evenodd" d="M8.5 7.99a.37.37 0 0 1-.38.37.37.37 0 0 1-.37-.37.37.37 0 0 1 .37-.38.37.37 0 0 1 .37.37" filter="url(#e)" transform="scale(2.1) rotate(36.96 6.952 11.768)"/></svg>