<svg xmlns="http://www.w3.org/2000/svg" xml:space="preserve" width="600" height="600" viewBox="0 0 158.75 158.75"><defs><linearGradient id="r"><stop offset="0" stop-color="#9db6ff"/><stop offset="1" stop-color="#9db6ff" stop-opacity=".49"/></linearGradient><linearGradient id="q"><stop offset="0" stop-color="#abffe6"/><stop offset="1" stop-color="#81ffda" stop-opacity=".51"/></linearGradient><linearGradient id="p"><stop offset="0" stop-color="#ffe9a8"/><stop offset="1" stop-color="#ffe28d" stop-opacity=".49"/></linearGradient><linearGradient id="o"><stop offset="0" stop-color="#ffb4b4"/><stop offset="1" stop-color="#ff9797" stop-opacity=".5"/></linearGradient><linearGradient id="n"><stop offset="0" stop-color="#ffaeef"/><stop offset="1" stop-color="#ff81e7" stop-opacity=".46"/></linearGradient><linearGradient id="m"><stop offset="0" stop-color="#ffd887"/><stop offset="1" stop-color="#ffd378" stop-opacity=".5"/></linearGradient><linearGradient id="l"><stop offset="0" stop-color="#fff3a5"/><stop offset="1" stop-color="#fff3a5" stop-opacity=".48"/></linearGradient><linearGradient id="k"><stop offset="0" stop-color="#85ffe6"/><stop offset="1" stop-color="#85ffe6" stop-opacity=".48"/></linearGradient><linearGradient id="j"><stop offset="0" stop-color="#c9ffd4"/><stop offset="1" stop-color="#a9ffba" stop-opacity=".5"/></linearGradient><linearGradient id="i"><stop offset="0" stop-color="#0f0"/><stop offset="1" stop-color="#0f0" stop-opacity="0"/></linearGradient><linearGradient id="h"><stop offset="0" stop-color="#00ffd0"/><stop offset="1" stop-color="#00ffd0" stop-opacity="0"/></linearGradient><linearGradient id="g"><stop offset="0" stop-color="#ffe600"/><stop offset="1" stop-color="#ffe600" stop-opacity="0"/></linearGradient><linearGradient id="f"><stop offset="0" stop-color="#ff00eb"/><stop offset="1" stop-color="#ff00eb" stop-opacity="0"/></linearGradient><linearGradient id="e"><stop offset="0" stop-color="#ffa425"/><stop offset="1" stop-color="#ffa425" stop-opacity="0"/></linearGradient><linearGradient id="d"><stop offset="0" stop-color="#00f"/><stop offset="1" stop-color="#00f" stop-opacity="0"/></linearGradient><linearGradient id="c"><stop offset="0" stop-color="#00ffac"/><stop offset="1" stop-color="#00ffac" stop-opacity="0"/></linearGradient><linearGradient id="b"><stop offset="0" stop-color="#ffeb00"/><stop offset="1" stop-color="#ffeb00" stop-opacity="0"/></linearGradient><linearGradient id="a"><stop offset="0" stop-color="red"/><stop offset="1" stop-color="red" stop-opacity="0"/></linearGradient></defs><path fill="#fff" d="M53.76 125.68c0 .63-.72 1.13-1.63 1.13-1.04.1-1.77-.4-1.77-1.13 0-.63.73-1.14 1.64-1.14.95-.1 1.76.41 1.76 1.14zm-9.8-1.42c-.22.63.41 1.35 1.36 1.54.82.32 1.76 0 1.95-.63.2-.63-.4-1.35-1.35-1.64-.82-.22-1.74.1-1.96.73zm13.93-.54c-.91.22-1.54.82-1.45 1.55.1.63.92 1.04 1.86.82.92-.23 1.55-.82 1.45-1.45-.1-.6-.94-1.01-1.86-.92zM78.63 2.96c-43.71 0-77.15 33.19-77.15 76.9 0 34.94 22 64.85 53.42 75.37 4.03.73 5.45-1.76 5.45-3.8 0-1.96-.1-12.74-.1-19.36 0 0-22.05 4.73-26.69-9.39 0 0-3.59-9.17-8.76-11.53 0 0-7.21-4.95.5-4.85 0 0 7.86.63 12.17 8.13 6.9 12.16 18.47 8.66 22.98 6.58.72-5.04 2.77-8.54 5.04-10.62-17.62-1.95-35.4-4.5-35.4-34.82 0-8.67 2.4-13.01 7.45-18.56-.82-2.05-3.5-10.5.81-21.4 6.6-2.05 21.75 8.51 21.75 8.51a74.04 74.04 0 0 1 19.79-2.68c6.71 0 13.49.92 19.79 2.68 0 0 15.16-10.59 21.74-8.5 4.32 10.93 1.64 19.34.82 21.39 5.04 5.58 8.13 9.93 8.13 18.56 0 30.41-18.56 32.84-36.17 34.82 2.9 2.5 5.35 7.22 5.35 14.62 0 10.62-.1 23.76-.1 26.35 0 2.05 1.46 4.54 5.46 3.81 31.51-10.46 52.88-40.37 52.88-75.31 0-43.71-35.45-76.9-79.16-76.9zm-46.51 108.7c-.41.3-.32 1.03.22 1.63.5.5 1.22.73 1.63.32.41-.32.32-1.04-.22-1.64-.5-.5-1.23-.73-1.63-.32zm-3.4-2.56c-.23.41.09.91.72 1.23.5.31 1.13.22 1.35-.22.22-.41-.1-.92-.72-1.23-.63-.19-1.14-.1-1.36.22zm10.2 11.22c-.5.4-.31 1.35.41 1.95.73.73 1.64.82 2.05.32.41-.41.22-1.36-.41-1.96-.7-.72-1.64-.82-2.05-.31zm-3.6-4.63c-.5.31-.5 1.13 0 1.86.51.72 1.36 1.04 1.77.72.5-.4.5-1.23 0-1.95-.44-.73-1.26-1.04-1.76-.63z"/></svg>