<svg width="64mm" height="64mm" viewBox="0 0 64 64" xmlns:xlink="http://www.w3.org/1999/xlink" xmlns="http://www.w3.org/2000/svg"><defs><linearGradient xlink:href="#a" id="f" x1="-20.459" y1="-18.821" x2="-60.891" y2="-30.538" gradientUnits="userSpaceOnUse"/><linearGradient id="a"><stop offset=".113" stop-color="#fff"/><stop offset=".244" stop-color="#ffccb7"/><stop offset=".48" stop-color="#ff3e17"/><stop offset=".705" stop-color="#f20000"/><stop offset="1" stop-color="#8d0000"/></linearGradient><linearGradient xlink:href="#b" id="g" x1="-62.22" y1="-25.308" x2="-18.692" y2="-25.308" gradientUnits="userSpaceOnUse"/><linearGradient id="b"><stop offset=".001" stop-color="#c00900"/><stop offset=".503" stop-color="#ff3e0e"/><stop offset="1" stop-color="#ff563d"/></linearGradient><linearGradient id="c"><stop offset="0" stop-color="#fff"/><stop offset=".384" stop-color="#dadada"/><stop offset=".804" stop-color="#6e6e6e"/><stop offset="1" stop-color="#555"/></linearGradient><linearGradient xlink:href="#d" id="i" x1="-28.175" y1="-18.696" x2="-56.278" y2="-31.224" gradientUnits="userSpaceOnUse"/><linearGradient id="d"><stop offset="0" stop-color="#ff4c27"/><stop offset="1" stop-color="#b30000"/></linearGradient><linearGradient xlink:href="#e" id="k" x1="7.598" y1="7.681" x2="12.404" y2="12.336" gradientUnits="userSpaceOnUse" gradientTransform="matrix(1.12453 -.29235 .29238 1.1244 47.126 26.974)"/><linearGradient id="e"><stop offset="0" stop-color="#eeeeec"/><stop offset="1" stop-color="#d2d2cc"/></linearGradient><radialGradient xlink:href="#c" id="h" cx="-40.187" cy="-25.201" fx="-40.187" fy="-25.201" r="14.157" gradientUnits="userSpaceOnUse" gradientTransform="rotate(200.522 -44.48 -25.978)scale(1.21365 1)"/><filter id="j" x="-.663" y="-.535" width="2.325" height="2.069" color-interpolation-filters="sRGB"><feGaussianBlur stdDeviation="0.707 0.726"/></filter></defs><path d="M58.612 26.146A17.913 17.913 0 0 1 43.87 46.748 17.913 17.913 0 0 1 23.27 32.006 17.913 17.913 0 0 1 38.01 11.404a17.913 17.913 0 0 1 20.602 14.742" fill="#fff"/><path d="M37.593 8.889c-11.12 1.843-18.684 12.414-16.84 23.534 1.843 11.12 12.414 18.686 23.534 16.842C55.407 47.422 62.973 36.85 61.13 25.73c-1.843-11.12-12.416-18.684-23.536-16.84m.834 5.033a15.32 15.32 0 0 1 17.668 12.641A15.32 15.32 0 0 1 43.453 44.23 15.32 15.32 0 0 1 25.786 31.59a15.32 15.32 0 0 1 12.641-17.667" fill="#404040"/><path d="M7.618 33.802a16.38 16.38 0 0 1 22.434-5.784 16.38 16.38 0 0 1 5.784 22.434 16.38 16.38 0 0 1-22.434 5.784 16.38 16.38 0 0 1-5.784-22.434" fill="#fff"/><path d="M12.132 58.387c8.955 5.284 20.572 2.288 25.856-6.667 5.283-8.954 2.287-20.57-6.668-25.854s-20.57-2.289-25.853 6.666-2.29 20.571 6.665 25.855m2.539-4.303A13.846 13.846 0 0 1 9.77 35.071a13.844 13.844 0 0 1 19.011-4.902 13.846 13.846 0 0 1 4.904 19.012 13.847 13.847 0 0 1-19.014 4.903" fill="#404040"/><g transform="translate(-.187 -20.537)"><circle cx="-40.456" cy="-25.308" r="21.002" transform="rotate(-149.458)" fill="url(#f)" stroke="url(#g)" stroke-width="1.523" stroke-linecap="round" stroke-linejoin="round"/><circle cx="-40.187" cy="-25.201" r="13.12" transform="rotate(-149.458)" fill="url(#h)" stroke="url(#i)" stroke-width="2.075" stroke-linecap="round" stroke-linejoin="round"/><path style="mix-blend-mode:normal" transform="translate(-26.424 -3.209)scale(1.79036)" d="M30.32 29.412a1.28 1.63 0 0 1-1.159 1.623 1.28 1.63 0 0 1-1.38-1.314 1.28 1.63 0 0 1 .898-1.872 1.28 1.63 0 0 1 1.549.958l-1.189.605z" fill="#fff" filter="url(#j)"/></g><circle cx="16.023" cy="15.571" r="3.437" fill="#fff"/><ellipse ry="10.028" rx="9.966" cy="53.573" cx="53.627" style="marker:none" color="#000" overflow="visible" stroke="#fff" stroke-width=".817" enable-background="accumulate"/><g color="#000"><path style="marker:none" d="M60.644 33.586a2.176 2.176 0 1 1-4.21 1.095 2.176 2.176 0 0 1 4.21-1.095zM56.64 26.83a1.255 1.255 0 0 0-.9 1.533l.514 1.978c-.045.235-.07.448-.186.536-.092.07-.254.073-.428.07l-1.918-1.125a1.28 1.28 0 0 0-1.75.455 1.28 1.28 0 0 0 .455 1.75l1.87 1.097c.104.168.173.321.156.447s-.117.259-.263.393l-2.054.534a1.255 1.255 0 0 0-.901 1.534c.175.675.86 1.076 1.534.901l1.978-.514c.235.044.448.07.536.185.07.093.072.254.07.429l-1.126 1.917a1.28 1.28 0 0 0 .455 1.75 1.28 1.28 0 0 0 1.75-.455l1.098-1.87c.168-.104.321-.173.447-.156s.259.117.393.263l.535 2.054c.175.675.86 1.076 1.534.9a1.255 1.255 0 0 0 .9-1.533l-.514-1.978c.044-.235.07-.447.186-.536.092-.07.254-.072.428-.07l1.917 1.126a1.28 1.28 0 0 0 1.75-.455 1.28 1.28 0 0 0-.455-1.75l-1.869-1.098c-.104-.167-.174-.32-.157-.446.017-.127.118-.26.264-.394l2.054-.534a1.255 1.255 0 0 0 .9-1.534 1.255 1.255 0 0 0-1.533-.9l-1.978.514c-.235-.044-.448-.07-.536-.186-.07-.092-.073-.254-.07-.428l1.125-1.917a1.28 1.28 0 0 0-.455-1.75 1.28 1.28 0 0 0-1.75.455l-1.098 1.87c-.167.103-.32.173-.446.156-.127-.017-.26-.118-.394-.263l-.534-2.055a1.255 1.255 0 0 0-1.534-.9z" overflow="visible" fill="none" stroke="#000" stroke-width=".859" enable-background="accumulate" transform="matrix(.94861 0 0 .9545 -1.711 21.304)"/><path d="M60.479 33.088a2.176 2.176 0 1 1-4.211 1.095 2.176 2.176 0 0 1 4.21-1.095zm-4.005-6.756a1.255 1.255 0 0 0-.901 1.534l.514 1.978c-.044.234-.07.447-.185.535-.093.07-.254.073-.429.071l-1.917-1.126a1.28 1.28 0 0 0-1.75.455 1.28 1.28 0 0 0 .455 1.75l1.87 1.098c.103.167.173.32.156.446s-.118.26-.263.394L51.969 34a1.255 1.255 0 0 0-.9 1.533c.175.675.859 1.077 1.533.901l1.979-.514c.234.044.447.07.535.186.07.092.073.253.071.428l-1.126 1.917a1.28 1.28 0 0 0 .455 1.75 1.28 1.28 0 0 0 1.75-.455l1.098-1.87c.167-.103.32-.173.447-.156.126.017.258.118.393.263l.534 2.054c.175.675.86 1.076 1.534.901a1.255 1.255 0 0 0 .9-1.534l-.513-1.978c.044-.234.07-.447.185-.535.093-.07.254-.073.429-.071l1.917 1.126a1.28 1.28 0 0 0 1.75-.455 1.28 1.28 0 0 0-.455-1.75l-1.87-1.098c-.104-.167-.173-.32-.156-.446.017-.127.117-.26.263-.394l2.054-.534a1.255 1.255 0 0 0 .901-1.534 1.255 1.255 0 0 0-1.534-.9l-1.978.514c-.235-.044-.447-.07-.536-.186-.07-.092-.072-.253-.07-.428l1.126-1.917a1.28 1.28 0 0 0-.455-1.75 1.28 1.28 0 0 0-1.75.455l-1.098 1.87c-.168.103-.321.173-.447.156s-.259-.118-.393-.263l-.534-2.054a1.255 1.255 0 0 0-1.534-.901z" style="marker:none" overflow="visible" fill="url(#k)" fill-rule="evenodd" stroke="#888a85" stroke-width=".429" enable-background="accumulate" transform="matrix(.94861 0 0 .9545 -1.711 21.304)"/></g></svg>