<svg xmlns="http://www.w3.org/2000/svg" xmlns:xlink="http://www.w3.org/1999/xlink" width="48" height="48"><defs><linearGradient id="g"><stop offset="0" style="stop-color:#fff;stop-opacity:1"/><stop offset=".42" style="stop-color:#fb0000;stop-opacity:1"/><stop offset="1" style="stop-color:#fb0000;stop-opacity:.22485209"/></linearGradient><linearGradient id="f"><stop offset=".096" style="stop-color:#fff;stop-opacity:1"/><stop offset=".167" style="stop-color:#fff;stop-opacity:.68047339"/><stop offset="1" style="stop-color:#fff;stop-opacity:0"/></linearGradient><linearGradient id="e"><stop offset=".098" style="stop-color:#fff;stop-opacity:1"/><stop offset=".226" style="stop-color:#fff;stop-opacity:.69230771"/><stop offset=".652" style="stop-color:#fff;stop-opacity:.30196078"/><stop offset="1" style="stop-color:#fff;stop-opacity:0"/></linearGradient><linearGradient id="d"><stop offset="0" style="stop-color:#ff0505;stop-opacity:.88520712"/><stop offset="1" style="stop-color:#ff0505;stop-opacity:.30177516"/></linearGradient><linearGradient id="a"><stop offset="0" stop-color="#4c4c4c"/><stop offset="1" stop-color="#0d0d0d" style="stop-color:#0d0d0d;stop-opacity:1"/></linearGradient><linearGradient id="b"><stop offset="0" stop-color="#ff655c" style="stop-color:#b5b5b5;stop-opacity:1"/><stop offset="1" stop-color="#c30d00" style="stop-color:#fff;stop-opacity:.54319525"/></linearGradient><linearGradient xlink:href="#a" id="k" x1="5.83" x2="12.91" y1="6.7" y2="13.2" gradientTransform="matrix(1.30996 2.50412 -2.52585 1.71022 31.018 -14.706)" gradientUnits="userSpaceOnUse"/><linearGradient xlink:href="#d" id="i" x1="24.345" x2="24.401" y1="16.99" y2="31.545" gradientTransform="matrix(.99346 0 0 1.49262 .157 -10.13)" gradientUnits="userSpaceOnUse"/><linearGradient xlink:href="#e" id="p" x1="5.123" x2="6.882" y1="9.98" y2="19.22" gradientUnits="userSpaceOnUse"/><linearGradient xlink:href="#f" id="o" x1="44.361" x2="40.146" y1="36.189" y2="24.415" gradientUnits="userSpaceOnUse"/><linearGradient xlink:href="#g" id="n" x1="2.631" x2="45.217" y1="19.102" y2="19.102" gradientUnits="userSpaceOnUse"/><linearGradient id="h"><stop offset=".282" stop-color="#39bdff" style="stop-color:#f4f4f4;stop-opacity:1"/><stop offset=".436" stop-color="#39bdff" style="stop-color:#c3e4ee;stop-opacity:1"/><stop offset=".754" stop-color="#0038a0" style="stop-color:#2274ff;stop-opacity:1"/></linearGradient><linearGradient xlink:href="#a" id="m" x1="5.83" x2="12.91" y1="6.7" y2="13.2" gradientUnits="userSpaceOnUse"/><radialGradient xlink:href="#b" id="j" cx="7.18" cy="8.2" r="6.59" fx="7.18" fy="8.2" gradientTransform="matrix(-.2249 3.20424 -2.86986 .14113 44.872 -6.859)" gradientUnits="userSpaceOnUse"/><radialGradient xlink:href="#h" id="l" cx="7.18" cy="8.2" r="6.59" fx="7.18" fy="8.2" gradientTransform="matrix(.9 .5558 -.5314 .8606 5.08 -2.85)" gradientUnits="userSpaceOnUse"/><filter id="q" width="2.283" height="2.283" x="-.642" y="-.642" style="color-interpolation-filters:sRGB"><feGaussianBlur stdDeviation=".156"/></filter></defs><rect width="45.579" height="45.342" x="1.219" y="1.343" ry="3.383" style="display:inline;opacity:1;fill:url(#i);fill-opacity:.676439;stroke:#000;stroke-width:2.57672;stroke-linecap:round;stroke-linejoin:round;stroke-dasharray:none;stroke-dashoffset:0;stroke-opacity:1;paint-order:fill markers stroke"/><g style="display:inline"><path fill="url(#j)" fill-rule="evenodd" d="M13.51 5.1c.44.77-2.18 2.89-2.29 3.76-.1.88 1.95 3.55 1.36 4.2-.6.64-3.43-1.19-4.3-1.02-.86.17-2.76 2.95-3.56 2.58-.8-.36.07-3.62-.36-4.39S.69 8.51.8 7.63c.1-.87 3.47-1.05 4.06-1.7.6-.64.51-4.01 1.38-4.18.86-.18 2.07 2.97 2.87 3.34s3.97-.76 4.4 0z" enable-background="accumulate" overflow="visible" style="display:inline;fill:url(#l);stroke:none;stroke-width:.850138;stroke-dasharray:none;marker:none" transform="matrix(1.57935 1.3494 -1.35262 1.5843 23.55 -.352)"/><path d="M-30.844 9.714c4.98.362 9.761-3.049 10.625-8.13a9.3 9.3 0 0 0-.128-3.705l-1.858-.147a7.5 7.5 0 0 1 .262 3.56c-.753 4.428-5.21 7.344-9.596 6.576a8.7 8.7 0 0 1-2.592-.896.875.875 0 0 0-1.184.36.875.875 0 0 0 .36 1.184c.973.519 2.025.883 3.113 1.074q.499.088.998.124m.435-3.222c3.359.153 6.563-2.196 7.028-5.673.423-3.16-1.73-6.335-5.016-6.72a5.3 5.3 0 0 0-2.09.183l-1.187 2.758A3.55 3.55 0 0 1-28.6-4.163c2.254.264 3.783 2.518 3.485 4.749-.36 2.69-3.052 4.5-5.713 4.11-2.735-.4-4.675-2.849-4.795-5.526l-1.736.257c.23 3.41 2.72 6.48 6.276 7q.338.05.674.065m.137-3.225C-28.413 3.373-26.53 2-26.54-.038a2.85 2.85 0 0 0-.747-1.913c-.478-.524-1.238-.889-2.062-.779a.875.875 0 0 0-.75.981.875.875 0 0 0 .982.753c.218-.029.367.04.537.225.17.186.29.494.291.742.005.916-.947 1.604-1.883 1.55-1.37-.078-2.34-1.459-2.212-2.827l-1.762.26c.008 2.145 1.578 4.182 3.874 4.313m6.592-8.185-1.752-3.478a8.7 8.7 0 0 0-2.191-.665 8.4 8.4 0 0 0-1.383-.108l-.772 1.798a6.6 6.6 0 0 1 1.871.037c1.708.28 3.168 1.175 4.227 2.416" style="color:#000;display:inline;fill:#0579ff;fill-opacity:1;fill-rule:evenodd;stroke-linecap:round;-inkscape-stroke:none" transform="rotate(176.253 -.558 14.589)scale(.91907)"/><path fill="url(#j)" stroke="url(#k)" stroke-width=".85" d="M13.51 5.1c.44.77-2.18 2.89-2.29 3.76-.1.88 1.95 3.55 1.36 4.2-.6.64-3.43-1.19-4.3-1.02-.86.17-2.76 2.95-3.56 2.58-.8-.36.07-3.62-.36-4.39S.69 8.51.8 7.63c.1-.87 3.47-1.05 4.06-1.7.6-.64.51-4.01 1.38-4.18.86-.18 2.07 2.97 2.87 3.34s3.97-.76 4.4 0z" enable-background="accumulate" overflow="visible" style="display:inline;fill:none;stroke:url(#m);marker:none" transform="matrix(1.57935 1.3494 -1.35262 1.5843 23.55 -.352)"/><path fill="none" stroke="#fff" stroke-linejoin="round" stroke-width="2.23" d="m43.15 26.6-13.29 3.06-4.27 13.9-7.3-12.51-14.12.53 9.24-11.12L8.95 7.43l13.08 5.48 11.25-8.56-1.32 14.56Z" enable-background="accumulate" overflow="visible" style="display:inline;marker:none" transform="translate(10.292 9.702)scale(.59666)"/></g><g style="display:inline"><path d="M2.631 11.374V21.92c0 .453.21 1.123.512 1.46 1.39 1.553 5.751 5.35 14.786 4.81 11.314-.676 12.855-7.292 19.433-10.223 3.026-1.35 4.93-1.95 6.105-2.206.947-.206 1.75-.917 1.75-1.895V11.1a1.136 1.136 44.899 0 0-1.14-1.136l-40.183.141a1.267 1.267 134.899 0 0-1.263 1.268" style="display:inline;opacity:.25;fill:url(#n);fill-opacity:1;stroke:none;stroke-width:1;stroke-linecap:round;stroke-linejoin:round;stroke-dasharray:none;stroke-dashoffset:0;stroke-opacity:.566775;paint-order:fill markers stroke" transform="matrix(.99346 0 0 1.5173 .157 -11.542)"/><path d="M45.462 22.338V35.74a1.096 1.096 135 0 1-1.096 1.095H2.94a.094.094 80.722 0 1-.03-.182l.35-.117a52 52 167.435 0 1 10.57-2.356l14.994-1.728a9.534 9.534 131.713 0 0 8.443-9.471v-.229a1.456 1.456 135.066 0 1 1.459-1.456l5.708.014a1.03 1.03 45.066 0 1 1.027 1.028" style="display:inline;opacity:1;fill:url(#o);stroke:none;stroke-width:1;stroke-linecap:round;stroke-linejoin:round;stroke-dasharray:none;stroke-dashoffset:0;stroke-opacity:.566775;paint-order:fill markers stroke" transform="matrix(.99346 0 0 1.49262 -.216 -10.591)"/><path d="M3.875 9.674h41.069v.139a7.755 7.755 135 0 1-7.756 7.755H10.676a7.407 7.407 45 0 1-7.407-7.407.55.55 141.248 0 1 .606-.487" style="display:inline;opacity:1;fill:url(#p);fill-opacity:1;stroke:none;stroke-width:2;stroke-linecap:round;stroke-linejoin:round;stroke-dasharray:none;stroke-dashoffset:0;stroke-opacity:1;paint-order:fill markers stroke" transform="matrix(.99346 0 0 1.5173 .157 -10.816)"/><circle cx="6.632" cy="41.36" r="1.203" style="opacity:1;fill:#fff;fill-opacity:1;stroke:none;stroke-width:.888889;stroke-linecap:round;stroke-linejoin:round;stroke-dasharray:none;stroke-dashoffset:0;stroke-opacity:.566775;paint-order:fill markers stroke"/><circle cx="6.98" cy="7.224" r=".977" style="display:inline;fill:#fff;fill-opacity:1;stroke:none;stroke-width:.722222;stroke-linecap:round;stroke-linejoin:round;stroke-dasharray:none;stroke-dashoffset:0;stroke-opacity:.566775;paint-order:fill markers stroke"/><circle cx="39.024" cy="40.459" r=".714" style="display:inline;fill:#fff;fill-opacity:1;stroke:none;stroke-width:.527777;stroke-linecap:round;stroke-linejoin:round;stroke-dasharray:none;stroke-dashoffset:0;stroke-opacity:.566775;paint-order:fill markers stroke"/><circle cx="24.25" cy="22.455" r=".291" style="display:inline;fill:#fff;fill-opacity:1;stroke:none;stroke-width:.215278;stroke-linecap:round;stroke-linejoin:round;stroke-dasharray:none;stroke-dashoffset:0;stroke-opacity:.566775;paint-order:fill markers stroke;filter:url(#q)"/><path d="M2.264 2.1a.75.75 0 0 0-.752.752v42.623c0 .415.336.752.752.752h43.67a.75.75 0 0 0 .752-.752V2.852a.75.75 0 0 0-.752-.752Zm1.698 1.504H44.49a.69.69 45 0 1 .692.691v39.143a1.285 1.285 135 0 1-1.285 1.285H4.384a1.37 1.37 45 0 1-1.368-1.368V4.55a.947.947 135 0 1 .946-.946" style="color:#000;fill:#fff;stroke-linecap:round;stroke-linejoin:round;-inkscape-stroke:none;paint-order:markers stroke fill"/></g></svg>