<svg viewBox="0 0 48 48" xmlns:xlink="http://www.w3.org/1999/xlink" xmlns="http://www.w3.org/2000/svg"><defs><linearGradient id="h"><stop offset="0" stop-color="#fff"/><stop offset="1" stop-color="#fff" stop-opacity="0"/></linearGradient><linearGradient id="g"><stop offset="0" stop-color="#fff"/><stop offset="1" stop-color="#fff" stop-opacity="0"/></linearGradient><linearGradient id="f"><stop offset="0" stop-color="#ff5151"/><stop offset=".181" stop-color="#fffa59"/><stop offset=".341" stop-color="#5fff56"/><stop offset=".5" stop-color="#4efff7"/><stop offset=".662" stop-color="#2e4cff"/><stop offset=".82" stop-color="#ff49fb"/><stop offset="1" stop-color="#ff4f4f"/></linearGradient><linearGradient id="e"><stop offset="0" stop-color="#fff"/><stop offset=".42" stop-color="#fb0000"/><stop offset="1" stop-color="#fb0000" stop-opacity=".225"/></linearGradient><linearGradient id="d"><stop offset=".096" stop-color="#fff"/><stop offset=".167" stop-color="#fff" stop-opacity=".68"/><stop offset="1" stop-color="#fff" stop-opacity="0"/></linearGradient><linearGradient id="c"><stop offset=".098" stop-color="#fff"/><stop offset=".226" stop-color="#fff" stop-opacity=".692"/><stop offset=".652" stop-color="#fff" stop-opacity=".302"/><stop offset="1" stop-color="#fff" stop-opacity="0"/></linearGradient><linearGradient id="b"><stop offset="0" stop-color="#ff0505" stop-opacity=".885"/><stop offset="1" stop-color="#ff0505" stop-opacity=".302"/></linearGradient><linearGradient id="a"><stop offset="0" stop-color="#191919"/><stop offset="1" stop-color="#0d0d0d"/></linearGradient><linearGradient id="i"><stop offset="0" stop-color="#ff8f05"/><stop offset=".522" stop-color="#fee30b"/><stop offset="1" stop-color="#fff"/></linearGradient><linearGradient xlink:href="#a" id="l" x1="5.83" x2="12.91" y1="6.7" y2="13.2" gradientUnits="userSpaceOnUse"/><linearGradient xlink:href="#b" id="n" x1="24.345" x2="24.401" y1="16.99" y2="31.545" gradientTransform="matrix(.9935 0 0 1.4926 .157 -10.13)" gradientUnits="userSpaceOnUse"/><linearGradient xlink:href="#c" id="q" x1="5.123" x2="6.882" y1="9.98" y2="19.22" gradientUnits="userSpaceOnUse"/><linearGradient xlink:href="#d" id="p" x1="44.361" x2="40.146" y1="36.189" y2="24.415" gradientUnits="userSpaceOnUse"/><linearGradient xlink:href="#e" id="o" x1="2.631" x2="45.217" y1="19.102" y2="19.102" gradientUnits="userSpaceOnUse"/><linearGradient xlink:href="#f" id="s" x1="5.927" x2="39.215" y1="-4.623" y2="-4.623" gradientTransform="matrix(.6441 0 0 .9022 9.686 44.859)" gradientUnits="userSpaceOnUse"/><linearGradient xlink:href="#g" id="t" x1="15.947" x2="17.728" y1="38.714" y2="44.375" gradientUnits="userSpaceOnUse"/><linearGradient xlink:href="#h" id="u" x1="32.757" x2="16.67" y1="42.68" y2="42.718" gradientUnits="userSpaceOnUse"/><linearGradient xlink:href="#j" id="v" x1="7.598" y1="7.681" x2="12.404" y2="12.336" gradientUnits="userSpaceOnUse" gradientTransform="matrix(1.12453 -.29235 .29238 1.1244 47.126 26.974)"/><linearGradient id="j"><stop offset="0" stop-color="#eeeeec"/><stop offset="1" stop-color="#d2d2cc"/></linearGradient><filter id="m" width="1.832" height="1.832" x="-.416" y="-.416" color-interpolation-filters="sRGB"><feGaussianBlur stdDeviation=".13"/></filter><filter id="r" width="2.287" height="2.287" x="-.643" y="-.643" color-interpolation-filters="sRGB"><feGaussianBlur stdDeviation=".156"/></filter><radialGradient xlink:href="#i" id="k" cx="7.18" cy="8.2" r="6.59" fx="7.18" fy="8.2" gradientTransform="matrix(.9 .5558 -.5314 .8606 5.08 -2.85)" gradientUnits="userSpaceOnUse"/></defs><path fill="url(#k)" fill-rule="evenodd" stroke="url(#l)" stroke-width=".85" d="M13.51 5.1c.44.77-2.18 2.89-2.29 3.76-.1.88 1.95 3.55 1.36 4.2-.6.64-3.43-1.19-4.3-1.02-.86.17-2.76 2.95-3.56 2.58-.8-.36.07-3.62-.36-4.39S.69 8.51.8 7.63c.1-.87 3.47-1.05 4.06-1.7.6-.64.51-4.01 1.38-4.18.86-.18 2.07 2.97 2.87 3.34s3.97-.76 4.4 0z" enable-background="accumulate" overflow="visible" style="marker:none" transform="matrix(1.575 1.3457 -1.3489 1.58 23.54 -.285)"/><path fill="none" stroke="#fff" stroke-linejoin="round" stroke-width="2.23" d="m43.15 26.6-13.29 3.06-4.27 13.9-7.3-12.51-14.12.53 9.24-11.12L8.95 7.43l13.08 5.48 11.25-8.56-1.32 14.56Z" enable-background="accumulate" overflow="visible" style="marker:none" transform="translate(10.319 9.74)scale(.595)"/><path fill="#fffdfc" fill-rule="evenodd" d="M8.5 7.99a.37.37 0 0 1-.38.37.37.37 0 0 1-.37-.37.37.37 0 0 1 .37-.38.37.37 0 0 1 .37.37" filter="url(#m)" transform="rotate(36.96 7.508 32.803)scale(1.8047)"/><path d="M4.602 1.343h38.813a3.376 3.376 0 0 1 3.383 3.383V40.09c0 1.874-4.594 6.595-6.468 6.595H4.602a3.376 3.376 0 0 1-3.383-3.383V4.726a3.376 3.376 0 0 1 3.383-3.383" fill="url(#n)" fill-opacity=".676" stroke="#000" stroke-width="2.577" stroke-linecap="round" stroke-linejoin="round" paint-order="fill markers stroke"/><path fill="url(#o)" d="M2.631 11.374V21.92c0 .453.21 1.123.512 1.46 1.39 1.553 5.751 5.35 14.786 4.81 11.314-.676 12.855-7.292 19.433-10.223 3.026-1.35 4.93-1.95 6.105-2.206.947-.206 1.75-.917 1.75-1.895V11.1a1.136 1.136 44.899 0 0-1.14-1.136l-40.183.141a1.267 1.267 134.899 0 0-1.263 1.268Z" opacity=".25" paint-order="fill markers stroke" transform="matrix(.9935 0 0 1.5173 .157 -11.542)"/><path fill="url(#p)" d="M45.462 22.338V35.74a1.096 1.096 135 0 1-1.096 1.095H2.94a.094.094 80.722 0 1-.03-.182l.35-.117a52 52 167.435 0 1 10.57-2.356l14.994-1.728a9.534 9.534 131.713 0 0 8.443-9.471v-.229a1.456 1.456 135.066 0 1 1.459-1.456l5.708.014a1.03 1.03 45.066 0 1 1.027 1.028z" paint-order="fill markers stroke" transform="matrix(.9935 0 0 1.4926 -.216 -10.591)"/><path fill="url(#q)" d="M3.875 9.674h41.069v.139a7.755 7.755 135 0 1-7.756 7.755H10.676a7.407 7.407 45 0 1-7.407-7.407.55.55 141.248 0 1 .606-.487" paint-order="fill markers stroke" transform="matrix(.9935 0 0 1.5173 .157 -10.816)"/><circle cx="6.632" cy="41.36" r="1.203" fill="#fff" paint-order="fill markers stroke"/><circle cx="6.98" cy="7.224" r=".977" fill="#fff" paint-order="fill markers stroke"/><circle cx="39.024" cy="40.459" r=".714" fill="#fff" paint-order="fill markers stroke"/><circle cx="24.25" cy="22.455" r=".291" fill="#fff" filter="url(#r)" paint-order="fill markers stroke"/><path fill="#fff" d="M2.264 2.1a.75.75 0 0 0-.752.752v42.623c0 .415.336.752.752.752h42.077c.415 0 2.294-2.006 2.294-2.421l.051-40.954a.75.75 0 0 0-.752-.752Zm1.698 1.504H44.49c.382 0 .692.309.692.691v39.143c0 .71-.575 1.285-1.285 1.285H4.384a1.37 1.37 0 0 1-1.368-1.368V4.55c0-.522.424-.945.946-.946" color="#000" paint-order="markers stroke fill" style="-inkscape-stroke:none"/><path fill="url(#s)" stroke="#fff" stroke-linecap="round" stroke-linejoin="round" stroke-width=".762" d="M13.826 38.145h20.798v5.086H13.826z" paint-order="markers stroke fill"/><path fill="url(#t)" d="M13.688 41.196s1.275-1.116 3.907-1.302c2.63-.186 3.455 2.153 6.644 2.285s6.406-2.1 8.186-2.338c1.781-.24 2.366-.187 2.366-.187V38.06H13.58Z" paint-order="markers stroke fill"/><path fill="url(#u)" d="M14.039 42.492h20.41v.526h-20.41z" paint-order="markers stroke fill"/><circle cx="33.644" cy="39.072" r=".507" fill="#fff" paint-order="fill markers stroke"/><circle cx="39.033" cy="40.462" r=".714" fill="#fff" paint-order="fill markers stroke"/><ellipse ry="7.464" rx="7.418" cy="40.229" cx="40.283" style="marker:none" color="#000" overflow="visible" stroke="#fff" stroke-width=".608" enable-background="accumulate"/><g color="#000"><path style="marker:none" d="M60.644 33.586a2.176 2.176 0 1 1-4.21 1.095 2.176 2.176 0 0 1 4.21-1.095zM56.64 26.83a1.255 1.255 0 0 0-.9 1.533l.514 1.978c-.045.235-.07.448-.186.536-.092.07-.254.073-.428.07l-1.918-1.125a1.28 1.28 0 0 0-1.75.455 1.28 1.28 0 0 0 .455 1.75l1.87 1.097c.104.168.173.321.156.447s-.117.259-.263.393l-2.054.534a1.255 1.255 0 0 0-.901 1.534c.175.675.86 1.076 1.534.901l1.978-.514c.235.044.448.07.536.185.07.093.072.254.07.429l-1.126 1.917a1.28 1.28 0 0 0 .455 1.75 1.28 1.28 0 0 0 1.75-.455l1.098-1.87c.168-.104.321-.173.447-.156s.259.117.393.263l.535 2.054c.175.675.86 1.076 1.534.9a1.255 1.255 0 0 0 .9-1.533l-.514-1.978c.044-.235.07-.447.186-.536.092-.07.254-.072.428-.07l1.917 1.126a1.28 1.28 0 0 0 1.75-.455 1.28 1.28 0 0 0-.455-1.75l-1.869-1.098c-.104-.167-.174-.32-.157-.446.017-.127.118-.26.264-.394l2.054-.534a1.255 1.255 0 0 0 .9-1.534 1.255 1.255 0 0 0-1.533-.9l-1.978.514c-.235-.044-.448-.07-.536-.186-.07-.092-.073-.254-.07-.428l1.125-1.917a1.28 1.28 0 0 0-.455-1.75 1.28 1.28 0 0 0-1.75.455l-1.098 1.87c-.167.103-.32.173-.446.156-.127-.017-.26-.118-.394-.263l-.534-2.055a1.255 1.255 0 0 0-1.534-.9z" overflow="visible" fill="none" stroke="#000" stroke-width=".859" enable-background="accumulate" transform="matrix(.70607 0 0 .71045 -.906 16.211)"/><path d="M60.479 33.088a2.176 2.176 0 1 1-4.211 1.095 2.176 2.176 0 0 1 4.21-1.095zm-4.005-6.756a1.255 1.255 0 0 0-.901 1.534l.514 1.978c-.044.234-.07.447-.185.535-.093.07-.254.073-.429.071l-1.917-1.126a1.28 1.28 0 0 0-1.75.455 1.28 1.28 0 0 0 .455 1.75l1.87 1.098c.103.167.173.32.156.446s-.118.26-.263.394L51.969 34a1.255 1.255 0 0 0-.9 1.533c.175.675.859 1.077 1.533.901l1.979-.514c.234.044.447.07.535.186.07.092.073.253.071.428l-1.126 1.917a1.28 1.28 0 0 0 .455 1.75 1.28 1.28 0 0 0 1.75-.455l1.098-1.87c.167-.103.32-.173.447-.156.126.017.258.118.393.263l.534 2.054c.175.675.86 1.076 1.534.901a1.255 1.255 0 0 0 .9-1.534l-.513-1.978c.044-.234.07-.447.185-.535.093-.07.254-.073.429-.071l1.917 1.126a1.28 1.28 0 0 0 1.75-.455 1.28 1.28 0 0 0-.455-1.75l-1.87-1.098c-.104-.167-.173-.32-.156-.446.017-.127.117-.26.263-.394l2.054-.534a1.255 1.255 0 0 0 .901-1.534 1.255 1.255 0 0 0-1.534-.9l-1.978.514c-.235-.044-.447-.07-.536-.186-.07-.092-.072-.253-.07-.428l1.126-1.917a1.28 1.28 0 0 0-.455-1.75 1.28 1.28 0 0 0-1.75.455l-1.098 1.87c-.168.103-.321.173-.447.156s-.259-.118-.393-.263l-.534-2.054a1.255 1.255 0 0 0-1.534-.901z" style="marker:none" overflow="visible" fill="url(#v)" fill-rule="evenodd" stroke="#888a85" stroke-width=".429" enable-background="accumulate" transform="matrix(.70607 0 0 .71045 -.906 16.211)"/></g></svg>