<svg xmlns="http://www.w3.org/2000/svg" xmlns:xlink="http://www.w3.org/1999/xlink" viewBox="0 0 48 48"><defs><linearGradient id="a"><stop offset="0" stop-color="#454545"/><stop offset="1"/></linearGradient><linearGradient id="b"><stop offset="0" stop-color="#ff382f"/><stop offset="1" stop-color="#fc0000"/></linearGradient><linearGradient xlink:href="#a" id="d" x1="5.83" x2="12.91" y1="6.7" y2="13.2" gradientTransform="matrix(1.977 1.6892 -1.6933 1.9833 23.054 -6.189)" gradientUnits="userSpaceOnUse"/><radialGradient xlink:href="#b" id="c" cx="7.18" cy="8.2" r="6.59" fx="7.18" fy="8.2" gradientTransform="matrix(.8383 2.6226 -2.5078 .8092 37.923 -3.26)" gradientUnits="userSpaceOnUse"/><filter id="e" width="1.832" height="1.832" x="-.416" y="-.416" color-interpolation-filters="sRGB"><feGaussianBlur stdDeviation=".13"/></filter></defs><path fill="url(#c)" fill-rule="evenodd" stroke="url(#d)" stroke-width="2.213" d="M41.129 26.747c-.434 2.27-9.204 2.05-10.894 3.59-1.688 1.576-2.156 10.334-4.423 10.626-2.27.256-4.767-8.154-6.774-9.286-1.989-1.116-10.452 1.188-11.408-.897-.972-2.065 6.268-7.061 6.722-9.315.454-2.253-4.343-9.61-2.636-11.17 1.671-1.557 8.639 3.78 10.906 3.487 2.27-.256 7.798-7.092 9.806-5.96 2.005 1.096-.936 9.388.019 11.473.955 2.085 9.136 5.199 8.699 7.432z" enable-background="accumulate" overflow="visible" style="marker:none"/><path fill="none" stroke="#fff" stroke-linejoin="round" stroke-width="1.5" d="m39.42 26.077-8.771 1.918a3.52 3.52 137.507 0 0-2.608 2.389l-2.757 8.83-4.677-7.976a3.378 3.378 29.073 0 0-3-1.668l-9.015.23 6.122-7.295a2.942 2.942 100.578 0 0 .53-2.842l-2.98-8.73 8.557 3.664a3.195 3.195 173.055 0 0 3.183-.388l7.402-5.593-.929 8.932a3.829 3.829 65.105 0 0 1.652 3.56z" enable-background="accumulate" overflow="visible" style="marker:none" transform="translate(1.408 1.407) scale(.9547)"/><path fill="#fffdfc" fill-rule="evenodd" d="M8.5 7.99a.37.37 0 0 1-.38.37.37.37 0 0 1-.37-.37.37.37 0 0 1 .37-.38.37.37 0 0 1 .37.37" filter="url(#e)" transform="rotate(36.96 13.176 29.037) scale(2.2655)"/></svg>