<svg xmlns="http://www.w3.org/2000/svg" xmlns:xlink="http://www.w3.org/1999/xlink" viewBox="0 0 48 48"><defs><linearGradient id="c"><stop offset="0" stop-color="#fff"/><stop offset="1" stop-color="#fff" stop-opacity="0"/></linearGradient><linearGradient id="b"><stop offset="0" stop-color="#fff"/><stop offset="1" stop-color="#fff" stop-opacity="0"/></linearGradient><linearGradient id="a"><stop offset="0" stop-color="#1a1a1a"/><stop offset="1"/></linearGradient><linearGradient id="d"><stop offset="0" stop-color="#ffae05" stop-opacity="0"/><stop offset=".416" stop-color="#7b7b7b" stop-opacity="0"/><stop offset="1" stop-color="#cecece"/></linearGradient><linearGradient xlink:href="#a" id="h" x1="5.83" x2="12.91" y1="6.7" y2="13.2" gradientUnits="userSpaceOnUse"/><linearGradient xlink:href="#b" id="f" x1="36.084" x2="30.671" y1="28.491" y2="14.734" gradientUnits="userSpaceOnUse"/><linearGradient xlink:href="#c" id="e" x1="7.56" x2="27.435" y1="26.229" y2="21.1" gradientUnits="userSpaceOnUse"/><radialGradient xlink:href="#d" id="g" cx="7.18" cy="8.2" r="6.59" fx="7.18" fy="8.2" gradientTransform="matrix(.9 .5558 -.5314 .8606 5.08 -2.85)" gradientUnits="userSpaceOnUse"/><filter id="i" width="1.832" height="1.832" x="-.416" y="-.416" color-interpolation-filters="sRGB"><feGaussianBlur stdDeviation=".13"/></filter></defs><g paint-order="markers stroke fill"><path fill="#ffb207" stroke="#000" stroke-linecap="round" stroke-linejoin="round" stroke-width=".5" d="M7.968 13.118s4.06 3.42 10.187 4.548c6.126 1.128 14.922-4.51 16.312-5.262 1.391-.752.076 4.172.076 4.172s-7.142 4.435-15.11 2.932c-7.969-1.504-11.427-5.225-11.427-5.225Z"/><path fill="#fc9c17" stroke="#000" stroke-linecap="round" stroke-linejoin="round" stroke-width=".5" d="M10.524 20.71s9.096 1.955 13.832 6.014c4.736 4.06 6.428 7.856 6.428 7.856l-.977 2.518s-4.058-8.852-10.262-10.26c-9.434-2.143-16.237 3.27-16.237 3.27z"/><path fill="url(#e)" d="M7.521 24.139s11.222-.358 15.958 3.702c4.736 4.06 6.507 7.855 6.507 7.855l-.18 1.402s-4.057-8.852-10.26-10.26c-9.435-2.143-16.238 3.27-16.238 3.27z"/><path fill="#fcbf17" stroke="#000" stroke-linecap="round" stroke-linejoin="round" stroke-width=".5" d="M23.943 8.27s2.957 10.39 7.33 15.147c4.284 4.66 7.216 6.916 7.216 6.916l8.833-3.458s-13.832-2.368-17.966-9.21C25.458 11.219 26.46 6.278 26.46 6.278Z"/><path fill="url(#f)" d="M23.943 8.27s2.957 10.39 7.33 15.147c4.284 4.66 7.216 6.916 7.216 6.916l4.839-1.343S32.324 24.78 28.19 17.94c-3.898-6.448-2.744-11.287-2.744-11.287Z"/></g><path fill="url(#g)" fill-rule="evenodd" stroke="url(#h)" stroke-width=".85" d="M13.51 5.1c.44.77-2.18 2.89-2.29 3.76-.1.88 1.95 3.55 1.36 4.2-.6.64-3.43-1.19-4.3-1.02-.86.17-2.76 2.95-3.56 2.58-.8-.36.07-3.62-.36-4.39C3.93 9.46.69 8.51.8 7.63c.1-.87 3.47-1.05 4.06-1.7.6-.64.51-4.01 1.38-4.18.86-.18 2.07 2.97 2.87 3.34.8.37 3.97-.76 4.4 0z" enable-background="accumulate" overflow="visible" style="marker:none" transform="matrix(2.647 2.2616 -2.267 2.6553 22.22 -16.85)"/><path fill="#fffdfc" fill-rule="evenodd" d="M8.5 7.99a.37.37 0 0 1-.38.37.37.37 0 0 1-.37-.37.37.37 0 0 1 .37-.38.37.37 0 0 1 .37.37" filter="url(#i)" transform="rotate(36.96 28.44 21) scale(3.0331)"/></svg>