<svg xmlns="http://www.w3.org/2000/svg" xmlns:xlink="http://www.w3.org/1999/xlink" viewBox="0 0 48 48"><defs><linearGradient xlink:href="#a" id="g" x1="9.26" x2="7.23" y1="3.3" y2="5.3" gradientTransform="translate(62.717 -8.208) scale(3.7795)" gradientUnits="userSpaceOnUse"/><linearGradient id="a"><stop offset="0" stop-color="#fff"/><stop offset="1" stop-color="#454545"/></linearGradient><linearGradient xlink:href="#b" id="h" x1="7.8" x2="9.36" y1="5.28" y2="4.47" gradientTransform="translate(62.717 -8.208) scale(3.7795)" gradientUnits="userSpaceOnUse"/><linearGradient id="b"><stop offset="0" stop-color="#f60d0d"/><stop offset="1" stop-color="#920a0a"/></linearGradient><linearGradient xlink:href="#c" id="i" x1="7.95" x2="9.64" y1="7.04" y2="8.56" gradientTransform="translate(62.717 -8.208) scale(3.7795)" gradientUnits="userSpaceOnUse"/><linearGradient id="c"><stop offset="0" stop-color="#e40700"/><stop offset="1" stop-color="#5a0900"/></linearGradient><linearGradient xlink:href="#d" id="j" x1="6.07" x2="5.11" y1="8.09" y2="10.22" gradientTransform="translate(62.717 -8.208) scale(3.7795)" gradientUnits="userSpaceOnUse"/><linearGradient id="d"><stop offset="0" stop-color="#ad0300"/><stop offset="1" stop-color="#350100"/></linearGradient><linearGradient xlink:href="#e" id="k" x1="4.26" x2="2.17" y1="5.92" y2="6.02" gradientTransform="translate(62.717 -8.208) scale(3.7795)" gradientUnits="userSpaceOnUse"/><linearGradient id="e"><stop offset="0" stop-color="#830100"/><stop offset="1" stop-color="#140100"/></linearGradient><linearGradient xlink:href="#f" id="l" x1="5.42" x2="5.21" y1="4.53" y2="2.64" gradientTransform="translate(62.717 -8.208) scale(3.7795)" gradientUnits="userSpaceOnUse"/><linearGradient id="f"><stop offset="0" stop-color="#ff6360"/><stop offset="1" stop-color="#b10001"/></linearGradient><filter id="m" width="1.34" height="1.339" x="-.17" y="-.169" color-interpolation-filters="sRGB"><feGaussianBlur stdDeviation=".34"/></filter><filter id="n" width="1.105" height="1.105" x="-.052" y="-.052" color-interpolation-filters="sRGB"><feGaussianBlur stdDeviation=".04"/></filter></defs><g transform="translate(-62.808 8.232)"><circle cx="86.754" cy="15.754" r="22.564" fill="gray" fill-rule="evenodd" stroke="url(#g)" stroke-width="2.381" paint-order="markers fill stroke"/><circle cx="86.717" cy="15.641" r="16.932" fill="gray" fill-rule="evenodd" stroke="#383838" stroke-width="1.776" paint-order="markers fill stroke"/><path fill-rule="evenodd" stroke="#383838" stroke-linejoin="round" stroke-width=".038" d="m90.76 7.855 3.894 9.147-7.408 6.538-8.58-5.14 2.192-9.676z" paint-order="markers fill stroke"/><path fill="url(#h)" d="m87.057-.762 7.634 17.764 8.315-1.815A16.44 16.44 0 0 0 92.424.22a16.214 16.214 0 0 0-5.367-.982Z"/><path fill="url(#i)" d="M102.213 10.387 87.208 23.502l-1.474 8.429a16.176 16.176 0 0 0 16.44-21.544Z"/><path fill="url(#j)" d="M70.654 18.173a16.97 16.97 0 0 0 15.118 13.758c4.157.264 7.332-.832 10.431-2.948l-17.5-10.545Z"/><path fill="url(#k)" d="M74.962 4.265a16.403 16.403 0 0 0-2.645 18.784c.982 1.814 2.23 3.515 3.855 4.8l.378.264L80.896 8.8z"/><path fill="url(#l)" d="M86.754-.762a16.403 16.403 0 0 0-14.74 9.297l-.416 1.02 19.163-1.7-3.704-8.617Z"/><path fill="#ffebeb" fill-rule="evenodd" d="M7.45 5.6A2.42 2.42 0 0 1 5.3 7.99 2.42 2.42 0 0 1 2.7 6.1a2.42 2.42 0 0 1 1.58-2.8 2.42 2.42 0 0 1 3.17 2.3Z" filter="url(#m)" opacity=".37" transform="translate(62.717 -8.208) scale(3.7795)"/><path fill="#fff" fill-rule="evenodd" d="M4.84 6.99a.92.92 0 0 1-1 .91.92.92 0 0 1-.82-1.08.92.92 0 0 1 1.14-.72c.4.1.69.48.68.88z" filter="url(#n)" transform="translate(62.717 -8.208) scale(3.7795)"/></g><path fill="#f10000" d="M105.69 145.2s-1.62 1.67-3.11 2.64c-1.63 1-3.2 1.7-3.2 1.7l6.34-.02zm-13.8-38.66c-13.06.8-24.47 13.83-21.66 27.07 1.41 7.25 6.98 14.18 14.3 15.91l12.32.04c2.72-1.01 8.52-4.38 8.83-8.45v-17.83c-5.3-9.64-18.47-8.8-24.48-1.5-5.95 8.22-.8 19.74 7 21.01 5.4.88 9.2-.57 11.67-3.78 2.72-3.73 2.96-7.94 1.11-11.3-2.7-6.57-15-7.45-15.93 1.92.27 4.73 4.41 8.53 6.75 7.29 3.52-.75 2.83-4.95.6-6.02-2.61-1.26-3.37.27-3.6-1.63-.33-2.57 1.95-3.82 6.15-2.92 6 3.07 3.83 11.37-1.42 12.85a8.33 8.33 0 0 1-9.05-2.66c-2.43-2.91-2.3-7.44-1.24-10.29 3.26-6.83 14.03-8.1 18.57-1.52 6.18 7.3.72 19.38-8.46 20.67-10.12 2.22-19.67-8.26-17.41-18.15 1.76-11.02 15.74-16.22 25.26-12.2 2 .73 3.81 1.9 4.58 2.47v-3.34l.01-4.08c-1.01-.8-2.03-1.4-4.07-2.19a24.23 24.23 0 0 0-7.2-1.36c-.88-.06-1.76-.06-2.63-.01zM46 105.12a46.11 46.11 0 0 0-1.78 3.62l.02 40.84 6.73-.01H60c-5.83-8.29-7.43-18.74-5.39-28.46z" color="#000" font-family="'Gill Sans Ultra Bold'" font-size="44.68" font-weight="400" letter-spacing="0" overflow="visible" paint-order="markers stroke fill" style="line-height:1.25;-inkscape-font-specification:&quot;Gill Sans Ultra Bold, Normal&quot;;font-variant-ligatures:normal;font-variant-position:normal;font-variant-caps:normal;font-variant-numeric:normal;font-variant-alternates:normal;font-variant-east-asian:normal;font-feature-settings:normal;font-variation-settings:normal;text-indent:0;text-align:start;text-decoration-line:none;text-decoration-style:solid;text-decoration-color:#000;text-transform:none;text-orientation:mixed;white-space:normal;shape-padding:0;shape-margin:0;inline-size:0;isolation:auto;mix-blend-mode:normal;solid-color:#000;solid-opacity:1" transform="matrix(.179 0 0 .179 19.577 20.259)" word-spacing="0"/><path fill="#f10000" d="M92.3 92.77c-13.93.63-26.93 9.98-32.42 22.67l-.64 14.3-2-3.73c-.03.24-.07.48-.09.73a33.68 33.68 0 0 0 6.96 22.83h12.5c-11.17-7.71-13.42-24.74-5-35.29 7.46-10.48 22.63-14.35 34.1-8.63 1.55-.04 4.37-.06 6.44-.08h10.98c-7.01-7.52-16.92-12.38-27.25-12.76-1.2-.08-2.39-.09-3.57-.04Z" color="#000" font-family="'Gill Sans Ultra Bold'" font-size="44.68" font-weight="400" letter-spacing="0" overflow="visible" paint-order="markers stroke fill" style="line-height:1.25;-inkscape-font-specification:&quot;Gill Sans Ultra Bold, Normal&quot;;font-variant-ligatures:normal;font-variant-position:normal;font-variant-caps:normal;font-variant-numeric:normal;font-variant-alternates:normal;font-variant-east-asian:normal;font-feature-settings:normal;font-variation-settings:normal;text-indent:0;text-align:start;text-decoration-line:none;text-decoration-style:solid;text-decoration-color:#000;text-transform:none;text-orientation:mixed;white-space:normal;shape-padding:0;shape-margin:0;inline-size:0;isolation:auto;mix-blend-mode:normal;solid-color:#000;solid-opacity:1" transform="matrix(.179 0 0 .179 19.577 20.259)" word-spacing="0"/><path fill="#f10000" d="M93.48 77.61a58.6 58.6 0 0 0-15.33 2.45l18.46 6.93-35.75 6.47-.63 14.13a35.65 35.65 0 0 1 4.44-5.46c12.56-13.66 34.6-16.75 50.47-7.15 5.17 2.88 12.02 10.58 13.08 10.58l16.6.01c-.03-2.83-4.64-7.94-7.6-11.01-10.47-10.4-24.96-16.42-39.66-16.9a55.73 55.73 0 0 0-4.08-.05z" color="#000" font-family="'Gill Sans Ultra Bold'" font-size="44.68" font-weight="400" letter-spacing="0" overflow="visible" paint-order="markers stroke fill" style="line-height:1.25;-inkscape-font-specification:&quot;Gill Sans Ultra Bold, Normal&quot;;font-variant-ligatures:normal;font-variant-position:normal;font-variant-caps:normal;font-variant-numeric:normal;font-variant-alternates:normal;font-variant-east-asian:normal;font-feature-settings:normal;font-variation-settings:normal;text-indent:0;text-align:start;text-decoration-line:none;text-decoration-style:solid;text-decoration-color:#000;text-transform:none;text-orientation:mixed;white-space:normal;shape-padding:0;shape-margin:0;inline-size:0;isolation:auto;mix-blend-mode:normal;solid-color:#000;solid-opacity:1" transform="matrix(.179 0 0 .179 19.577 20.259)" word-spacing="0"/><path fill="#f10000" d="M95.5 54.72a82.92 82.92 0 0 0-31.1 6.2l-1.8 13.3 7.33 2.76c10.63-5.1 22.72-7.1 34.44-5.04 16.14 2.51 30.88 11.95 40.46 25.1V70.7h-39.15V55.29a85.86 85.86 0 0 0-10.18-.57Z" color="#000" font-family="'Gill Sans Ultra Bold'" font-size="44.68" font-weight="400" letter-spacing="0" overflow="visible" paint-order="markers stroke fill" style="line-height:1.25;-inkscape-font-specification:&quot;Gill Sans Ultra Bold, Normal&quot;;font-variant-ligatures:normal;font-variant-position:normal;font-variant-caps:normal;font-variant-numeric:normal;font-variant-alternates:normal;font-variant-east-asian:normal;font-feature-settings:normal;font-variation-settings:normal;text-indent:0;text-align:start;text-decoration-line:none;text-decoration-style:solid;text-decoration-color:#000;text-transform:none;text-orientation:mixed;white-space:normal;shape-padding:0;shape-margin:0;inline-size:0;isolation:auto;mix-blend-mode:normal;solid-color:#000;solid-opacity:1" transform="matrix(.179 0 0 .179 19.577 20.259)" word-spacing="0"/><path fill="#f10000" d="M96.74 25.85a111.7 111.7 0 0 0-52.52 13v27.48l.08.05c.65-.54 1.32-1.05 1.99-1.56l21.2-26.6-2.12 15.64a80.58 80.58 0 0 1 40.36-5.4l.02-2.99 52.74.01c-.04-1.01-7.52-6.22-12.2-8.4a114.27 114.27 0 0 0-49.55-11.23Z" color="#000" font-family="'Gill Sans Ultra Bold'" font-size="44.68" font-weight="400" letter-spacing="0" overflow="visible" paint-order="markers stroke fill" style="line-height:1.25;-inkscape-font-specification:&quot;Gill Sans Ultra Bold, Normal&quot;;font-variant-ligatures:normal;font-variant-position:normal;font-variant-caps:normal;font-variant-numeric:normal;font-variant-alternates:normal;font-variant-east-asian:normal;font-feature-settings:normal;font-variation-settings:normal;text-indent:0;text-align:start;text-decoration-line:none;text-decoration-style:solid;text-decoration-color:#000;text-transform:none;text-orientation:mixed;white-space:normal;shape-padding:0;shape-margin:0;inline-size:0;isolation:auto;mix-blend-mode:normal;solid-color:#000;solid-opacity:1" transform="matrix(.179 0 0 .179 19.577 20.259)" word-spacing="0"/><path fill="#f10000" d="M44.22 10.61V32.1c29.98-16.79 67.85-17.97 98.97-3.5 5.3 2.41 10.41 5.24 15.3 8.42V10.6Z" color="#000" font-family="'Gill Sans Ultra Bold'" font-size="44.68" font-weight="400" letter-spacing="0" overflow="visible" paint-order="markers stroke fill" style="line-height:1.25;-inkscape-font-specification:&quot;Gill Sans Ultra Bold, Normal&quot;;font-variant-ligatures:normal;font-variant-position:normal;font-variant-caps:normal;font-variant-numeric:normal;font-variant-alternates:normal;font-variant-east-asian:normal;font-feature-settings:normal;font-variation-settings:normal;text-indent:0;text-align:start;text-decoration-line:none;text-decoration-style:solid;text-decoration-color:#000;text-transform:none;text-orientation:mixed;white-space:normal;shape-padding:0;shape-margin:0;inline-size:0;isolation:auto;mix-blend-mode:normal;solid-color:#000;solid-opacity:1" transform="matrix(.179 0 0 .179 19.577 20.259)" word-spacing="0"/><path fill="none" stroke="#fff" stroke-linecap="round" stroke-linejoin="round" stroke-width=".947" d="M27.028 31.743V21.687h20.48v7.202h-8.55v3.55h7.006v7.18h-6.969v7.895h-11.89Z"/><path fill="#fff" stroke="#000" stroke-width=".05" d="m22.215 29.72 5.382 2.469 3.875-4.818-.623 6.142 5.902 2.27-6.264 1.324-.322 5.904-3.071-5.2-6.103 1.626 4.295-4.6z"/><path fill="#fff" fill-rule="evenodd" d="M66.563 36.104 44.26 64.08 10.765 47.924a1.36 1.36 131.166 0 0-1.727 1.975L29.52 80.94 4.686 106.909a1.702 1.702 59.139 0 0 1.684 2.817L41 100.16l17.005 31.64a1.71 1.71 167.158 0 0 3.213-.733L62.83 95.18l36.307-6.57a1.439 1.439 95.136 0 0 .249-2.763l-2.076-.777-32.47-12.2 4.824-35.44a1.75 1.75 23.157 0 0-3.101-1.326ZM64.46 45.32l-4.11 30.25 28.58 10.72-30.04 5.44-1.36 30.5-14.46-26.9-29.43 8.13 21.1-22.05-16.8-25.48L45.42 69.2Z" color="#000" font-family="sans-serif" font-weight="400" overflow="visible" style="line-height:normal;font-variant-ligatures:normal;font-variant-position:normal;font-variant-caps:normal;font-variant-numeric:normal;font-variant-alternates:normal;font-variant-east-asian:normal;font-feature-settings:normal;font-variation-settings:normal;text-indent:0;text-align:start;text-decoration-line:none;text-decoration-style:solid;text-decoration-color:#000;text-transform:none;text-orientation:mixed;white-space:normal;shape-padding:0;shape-margin:0;inline-size:0;isolation:auto;mix-blend-mode:normal;solid-color:#000;solid-opacity:1" transform="matrix(.179 0 0 .179 19.577 20.259)"/><path fill="#fff" fill-rule="evenodd" d="M36.248 44.135a.191.191 0 0 1-.191.192.191.191 0 0 1-.192-.192.191.191 0 0 1 .192-.191.191.191 0 0 1 .191.191"/></svg>
