<svg width="64mm" height="64mm" viewBox="0 0 64 64" xmlns:xlink="http://www.w3.org/1999/xlink" xmlns="http://www.w3.org/2000/svg"><defs><linearGradient xlink:href="#a" id="e" x1="-20.459" y1="-18.821" x2="-60.891" y2="-30.538" gradientUnits="userSpaceOnUse"/><linearGradient id="a"><stop offset=".113" stop-color="#fff"/><stop offset=".244" stop-color="#ffccb7"/><stop offset=".48" stop-color="#ff3e17"/><stop offset=".705" stop-color="#f20000"/><stop offset="1" stop-color="#8d0000"/></linearGradient><linearGradient xlink:href="#b" id="f" x1="-62.22" y1="-25.308" x2="-18.692" y2="-25.308" gradientUnits="userSpaceOnUse"/><linearGradient id="b"><stop offset=".001" stop-color="#c00900"/><stop offset=".503" stop-color="#ff3e0e"/><stop offset="1" stop-color="#ff563d"/></linearGradient><linearGradient id="c"><stop offset="0" stop-color="#fff"/><stop offset=".468" stop-color="#dadada"/><stop offset="1" stop-color="#6e6e6e"/></linearGradient><linearGradient xlink:href="#d" id="h" x1="-28.175" y1="-18.696" x2="-56.278" y2="-31.224" gradientUnits="userSpaceOnUse"/><linearGradient id="d"><stop offset="0" stop-color="#ff4c27"/><stop offset="1" stop-color="#b30000"/></linearGradient><radialGradient xlink:href="#c" id="g" cx="-40.187" cy="-25.201" fx="-40.187" fy="-25.201" r="14.157" gradientUnits="userSpaceOnUse" gradientTransform="matrix(-1.13663 -.42546 .35057 -.93654 -77.03 -65.9)"/><filter id="i" x="-.663" y="-.535" width="2.325" height="2.069" color-interpolation-filters="sRGB"><feGaussianBlur stdDeviation="0.707 0.726"/></filter></defs><circle cx="35.633" cy="35.381" r="17.913" transform="rotate(-9.414)" fill="#fff" stroke="#404040" stroke-width="5.102" stroke-linecap="round" stroke-linejoin="round"/><circle cx="-40.12" cy="-25.241" r="16.382" transform="rotate(-149.458)" fill="#fff" stroke="#404040" stroke-width="4.995" stroke-linecap="round" stroke-linejoin="round"/><g transform="translate(-.187 -20.537)"><circle cx="-40.456" cy="-25.308" r="21.002" transform="rotate(-149.458)" fill="url(#e)" stroke="url(#f)" stroke-width="1.523" stroke-linecap="round" stroke-linejoin="round"/><circle cx="-40.187" cy="-25.201" r="13.12" transform="rotate(-149.458)" fill="url(#g)" stroke="url(#h)" stroke-width="2.075" stroke-linecap="round" stroke-linejoin="round"/><path style="mix-blend-mode:normal" transform="matrix(1.79036 0 0 1.79036 -26.424 -3.209)" d="M30.32 29.412a1.28 1.63 0 0 1-1.159 1.623 1.28 1.63 0 0 1-1.38-1.314 1.28 1.63 0 0 1 .898-1.872 1.28 1.63 0 0 1 1.549.958l-1.189.605z" fill="#fff" filter="url(#i)"/></g><circle cx="16.023" cy="15.571" r="1.368" fill="#fff"/></svg>