<svg width="48" height="48" xmlns:xlink="http://www.w3.org/1999/xlink" xmlns="http://www.w3.org/2000/svg"><defs><linearGradient id="n"><stop offset="0" stop-color="#fff"/><stop offset="1" stop-color="#fff" stop-opacity="0"/></linearGradient><linearGradient id="a"><stop offset="0" stop-color="#d3d7cf"/><stop offset="1" stop-color="#fff"/></linearGradient><linearGradient xlink:href="#a" id="o" x1="23.201" y1="3.505" x2="22.741" y2="26.46" gradientUnits="userSpaceOnUse" gradientTransform="matrix(1.573 0 0 1.73278 -19.974 -2.401)"/><linearGradient id="h" x1="29.662" y1="18.026" x2="21.419" y2="20.234" gradientUnits="userSpaceOnUse"><stop offset="0" stop-color="red"/><stop offset="1" stop-color="#ff6a6a"/></linearGradient><linearGradient id="i" x1="18.466" y1="6.619" x2="15.924" y2="13.603" gradientUnits="userSpaceOnUse"><stop offset="0" stop-color="#cfa40c"/><stop offset="1" stop-color="#edd480"/></linearGradient><linearGradient id="j" x1="5.505" y1="11.477" x2="8.546" y2="14.519" gradientUnits="userSpaceOnUse"><stop offset="0" stop-color="#11a119"/><stop offset="1" stop-color="#37ae3d"/></linearGradient><linearGradient id="k"><stop offset="0" stop-color="#fff"/><stop offset="1" stop-color="#fff" stop-opacity="0"/></linearGradient><linearGradient xlink:href="#k" id="B" gradientUnits="userSpaceOnUse" gradientTransform="translate(-10.877 -12.715)" x1="33.04" y1="30.969" x2="35.272" y2="25.089"/><linearGradient xlink:href="#k" id="C" gradientUnits="userSpaceOnUse" gradientTransform="translate(-15.954 -13.456)" x1="33.151" y1="30.925" x2="33.04" y2="25.741"/><linearGradient xlink:href="#h" id="q" gradientUnits="userSpaceOnUse" x1="29.662" y1="18.026" x2="21.419" y2="20.234" gradientTransform="rotate(-6.94 -.11 56.14)scale(1.58773)"/><linearGradient id="r" x1="24.588" y1="9.748" x2="18.776" y2="15.56" xlink:href="#h" gradientTransform="rotate(-6.94 -.11 56.14)scale(1.58773)"/><linearGradient xlink:href="#l" id="s" gradientUnits="userSpaceOnUse" x1="18.466" y1="6.619" x2="15.924" y2="13.603" gradientTransform="rotate(-6.94 -.11 56.14)scale(1.58773)"/><linearGradient id="l" x1="18.466" y1="6.619" x2="15.924" y2="13.603" gradientUnits="userSpaceOnUse"><stop offset="0" stop-color="#ffd00d"/><stop offset="1" stop-color="#ffea66"/></linearGradient><linearGradient id="t" x1="13.17" y1="6.51" x2="13.17" y2="12.997" xlink:href="#m" gradientTransform="rotate(-6.94 -.11 56.14)scale(1.58773)"/><linearGradient id="m" x1="18.466" y1="6.619" x2="15.924" y2="13.603" gradientUnits="userSpaceOnUse"><stop offset="0" stop-color="#eaba00"/><stop offset="1" stop-color="#ffe24a"/></linearGradient><linearGradient id="u" x1="8.808" y1="8.486" x2="10.988" y2="13.161" xlink:href="#i" gradientTransform="rotate(-6.94 -.11 56.14)scale(1.58773)"/><linearGradient xlink:href="#j" id="v" gradientUnits="userSpaceOnUse" x1="5.505" y1="11.477" x2="8.546" y2="14.519" gradientTransform="rotate(-6.94 -.11 56.14)scale(1.58773)"/><linearGradient id="w" x1="3.639" y1="14.285" x2="6.883" y2="16.158" xlink:href="#j" gradientTransform="rotate(-6.94 -.11 56.14)scale(1.58773)"/><linearGradient id="x" x1="2.265" y1="17.799" x2="5.379" y2="18.933" xlink:href="#j" gradientTransform="rotate(-6.94 -.11 56.14)scale(1.58773)"/><linearGradient id="y" x1="2" y1="21.614" x2="4.833" y2="21.614" xlink:href="#j" gradientTransform="rotate(-6.94 -.11 56.14)scale(1.58773)"/><linearGradient xlink:href="#n" id="z" x1="33.032" y1="30.953" x2="39.578" y2="30.172" gradientUnits="userSpaceOnUse" gradientTransform="translate(.398 -.663)"/><linearGradient xlink:href="#n" id="A" gradientUnits="userSpaceOnUse" x1="33.04" y1="30.991" x2="37.669" y2="26.063" gradientTransform="translate(-4.59 -9.234)"/><linearGradient xlink:href="#k" id="D" gradientUnits="userSpaceOnUse" gradientTransform="translate(-21.356 -12.147)" x1="33.284" y1="30.947" x2="32.184" y2="26.957"/><filter id="p" x="-.568" y="-.668" width="2.136" height="2.336" color-interpolation-filters="sRGB"><feGaussianBlur stdDeviation="1.06"/></filter></defs><path style="marker:none" d="M.807 1.15v30.398H12.99l-3.86 15.241 25.286-15.241h12.782V1.15Z" color="#000" overflow="visible" fill="url(#o)" fill-rule="evenodd" stroke="#2e3436" stroke-width="1.542" stroke-linejoin="round"/><path style="marker:none" d="M2.085 2.191v27.94h12.174l-2.946 13.847L33.93 30.13h11.913V2.191Z" color="#000" overflow="visible" fill="none" stroke="#fff" stroke-width="1.028" stroke-miterlimit="6"/><text xml:space="preserve" style="line-height:0%;-inkscape-font-specification:Tahoma;text-align:start" x="4.052" y="11.815" font-weight="400" font-size="15.608" font-family="Tahoma" letter-spacing="0" word-spacing="0" stroke-width="1.301"><tspan x="4.052" y="11.815" style="line-height:1.25"> </tspan></text><path d="M40.406 14.688a22 22 0 0 1 1.518 2.137 22.37 22.37 0 0 1 3.27 11.324L33.64 29.556a15.5 15.5 0 0 0-2.234-6.39z" style="mix-blend-mode:normal" transform="translate(4.834 4.436)scale(.8707)" opacity=".1" filter="url(#p)"/><path d="M25.61 17.778a15.1 15.1 0 0 1 4.633 3.77l8.37-8.85a23.2 23.2 0 0 0-8.152-5.257Z" style="mix-blend-mode:normal" transform="translate(4.834 4.436)scale(.8707)" opacity=".1" filter="url(#p)"/><path d="M20.957 16.32a13.2 13.2 0 0 1 3.7 1.004l4.011-10.46a19 19 0 0 0-7.065-.574Z" style="mix-blend-mode:normal" transform="translate(4.834 4.436)scale(.8707)" opacity=".1" filter="url(#p)"/><path d="M20.059 6.53c-1.82.356-3.577.982-5.212 1.858l1.77 8.275a10.8 10.8 0 0 1 3.705-.395z" style="mix-blend-mode:normal" transform="translate(4.834 4.436)scale(.8707)" opacity=".1" filter="url(#p)"/><path d="M13.301 9.3a22 22 0 0 0-3.414 2.785l3.38 6.244a11.3 11.3 0 0 1 2.018-1.178z" style="mix-blend-mode:normal" transform="translate(4.834 4.436)scale(.8707)" opacity=".1" filter="url(#p)"/><path d="M8.164 13.999a23 23 0 0 0-1.849 2.653l4.223 4.401c.541-.729 1.12-1.418 1.852-2.073z" style="mix-blend-mode:normal" transform="translate(4.834 4.436)scale(.8707)" opacity=".1" filter="url(#p)"/><path d="M5.46 18.245a21.3 21.3 0 0 0-1.416 3.83l4.77 1.995q.49-1.157 1.168-2.214z" style="mix-blend-mode:normal" transform="translate(4.834 4.436)scale(.8707)" opacity=".1" filter="url(#p)"/><path d="M3.72 23.48a23 23 0 0 0-.423 4.314l4.422.376q.144-1.169.463-2.303z" style="mix-blend-mode:normal" transform="translate(4.834 4.436)scale(.8707)" opacity=".1" filter="url(#p)"/><path d="M7.605 29.712a16 16 0 0 0 .213 2.986l-3.917.477a21.4 21.4 0 0 1-.56-3.807Z" style="mix-blend-mode:normal" transform="translate(4.834 4.436)scale(.8707)" opacity=".1" filter="url(#p)"/><path d="M39.68 16.454a23 23 0 0 1 1.612 2.27 23.76 23.76 0 0 1 3.474 12.027l-12.273 1.494a16.5 16.5 0 0 0-2.373-6.787Z" fill="url(#q)" stroke="#fff" stroke-width=".75" transform="translate(5.371 -1.766)scale(.85446)"/><path d="M23.965 19.736a16 16 0 0 1 4.921 4.004l8.89-9.399a24.7 24.7 0 0 0-8.658-5.584Z" fill="url(#r)" stroke="#fff" stroke-width=".75" transform="translate(5.371 -1.766)scale(.85446)"/><path d="M19.023 18.188a14 14 0 0 1 3.93 1.066l4.26-11.11a20.2 20.2 0 0 0-7.503-.61Z" fill="url(#s)" stroke="#fff" stroke-width=".64" transform="translate(5.371 -1.766)scale(.85446)"/><path d="M18.07 7.789a19.8 19.8 0 0 0-5.536 1.974l1.88 8.789a11.5 11.5 0 0 1 3.935-.42z" fill="url(#t)" stroke="#fff" stroke-width=".64" transform="translate(5.371 -1.766)scale(.85446)"/><path d="M10.893 10.732a23 23 0 0 0-3.626 2.957l3.59 6.633A12 12 0 0 1 13 19.07z" fill="url(#u)" stroke="#fff" stroke-width=".64" transform="translate(5.371 -1.766)scale(.85446)"/><path d="M5.436 15.723a24.5 24.5 0 0 0-1.963 2.817l4.484 4.675c.575-.774 1.19-1.506 1.967-2.202z" fill="url(#v)" stroke="#fff" stroke-width=".53" transform="translate(5.371 -1.766)scale(.85446)"/><path d="M2.564 20.232A22.6 22.6 0 0 0 1.06 24.3l5.067 2.119c.346-.818.76-1.605 1.24-2.352z" fill="url(#w)" stroke="#fff" stroke-width=".53" transform="translate(5.371 -1.766)scale(.85446)"/><path d="M.717 25.793a24.5 24.5 0 0 0-.45 4.581l4.696.4q.154-1.242.493-2.447Z" fill="url(#x)" stroke="#fff" stroke-width=".53" transform="translate(5.371 -1.766)scale(.85446)"/><path d="M4.843 32.411a17 17 0 0 0 .226 3.172l-4.161.506a23 23 0 0 1-.594-4.043Z" fill="url(#y)" stroke="#fff" stroke-width=".53" transform="translate(5.371 -1.766)scale(.85446)"/><path d="m33.913 30.196 10.391-1.312" stroke="url(#z)" stroke-width="2" stroke-linecap="round" stroke-linejoin="bevel" paint-order="stroke fill markers" transform="translate(5.371 -1.766)scale(.85446)"/><path d="m28.837 21.471 7.032-7.72" opacity=".85" stroke="url(#A)" stroke-width="1.5" stroke-linecap="round" stroke-linejoin="bevel" paint-order="stroke fill markers" transform="translate(5.371 -1.766)scale(.85446)"/><path d="m22.263 17.923 3.474-9.046" opacity=".7" stroke="url(#B)" stroke-width=".8" stroke-linecap="round" stroke-linejoin="bevel" paint-order="stroke fill markers" transform="translate(5.371 -1.766)scale(.85446)"/><path d="m17.186 17.183-.216-8.185" opacity=".5" stroke="url(#C)" stroke-width=".8" stroke-linecap="round" stroke-linejoin="bevel" paint-order="stroke fill markers" transform="translate(5.371 -1.766)scale(.85446)"/><path d="m11.806 18.536-1.63-5.975" opacity=".3" stroke="url(#D)" stroke-width=".8" stroke-linecap="round" stroke-linejoin="bevel" paint-order="stroke fill markers" transform="translate(5.371 -1.766)scale(.85446)"/></svg>