<svg width="48" height="48" xmlns="http://www.w3.org/2000/svg"><defs><linearGradient id="a"><stop offset="0" stop-color="#333"/><stop offset="1" stop-color="#0d0d0d"/></linearGradient><linearGradient id="b"><stop offset="0" stop-color="#f4f4f4"/><stop offset=".312" stop-color="#229ad9"/><stop offset=".616" stop-color="#0647aa"/></linearGradient><linearGradient id="c"><stop offset="0" stop-color="#39bdff"/><stop offset="1" stop-color="#0038a0"/></linearGradient><linearGradient id="d"><stop offset="0" stop-color="#4c4c4c"/><stop offset="1" stop-color="#0d0d0d"/></linearGradient></defs><path d="M45.38 22.692c0 4.117-1.014 7.913-3.042 11.389a22.587 22.587 0 0 1-8.257 8.257c-3.477 2.029-7.273 3.043-11.389 3.043s-7.912-1.014-11.389-3.043a22.587 22.587 0 0 1-8.257-8.257C1.018 30.605.003 26.809.003 22.692c0-4.116 1.015-7.912 3.043-11.388a22.587 22.587 0 0 1 8.257-8.257C14.78 1.018 18.576.004 22.692.004s7.912 1.014 11.389 3.043a22.587 22.587 0 0 1 8.257 8.257c2.028 3.476 3.043 7.272 3.043 11.388z"/><path d="M35.927 24.583v-3.781c0-.512-.187-.956-.561-1.33a1.817 1.817 0 0 0-1.33-.561H11.348c-.512 0-.956.187-1.33.561a1.817 1.817 0 0 0-.561 1.33v3.781c0 .512.187.955.561 1.33.374.374.818.56 1.33.56h22.688c.512 0 .956-.186 1.33-.56.374-.375.561-.818.561-1.33z" style="marker:none" color="#000" overflow="visible" fill="#b8e986"/><path d="M20.801 35.927h3.782c.512 0 .955-.187 1.33-.56.373-.375.56-.818.56-1.33V11.348c0-.512-.187-.955-.56-1.33a1.817 1.817 0 0 0-1.33-.56H20.8c-.512 0-.955.186-1.33.56a1.817 1.817 0 0 0-.56 1.33v22.689c0 .512.187.955.56 1.33.375.373.818.56 1.33.56z" style="marker:none" color="#000" overflow="visible" fill="#b8e986"/><path d="M48 38.44c0 1.735-.427 3.334-1.282 4.8a9.52 9.52 0 0 1-3.48 3.48c-1.465.855-3.065 1.282-4.8 1.282-1.735 0-3.335-.427-4.8-1.282a9.52 9.52 0 0 1-3.48-3.48c-.855-1.466-1.283-3.065-1.283-4.8 0-1.735.428-3.335 1.283-4.8a9.52 9.52 0 0 1 3.48-3.48c1.465-.855 3.065-1.283 4.8-1.283 1.735 0 3.335.428 4.8 1.283a9.52 9.52 0 0 1 3.48 3.48c.855 1.465 1.282 3.065 1.282 4.8z" fill="#ff6868"/><path d="m42.946 35.059-1.127-1.127a.766.766 0 0 0-.564-.23.766.766 0 0 0-.563.23l-6.762 6.762a.766.766 0 0 0-.229.563c0 .223.076.41.229.563l1.127 1.127c.152.153.34.23.563.23.223 0 .411-.077.564-.23l6.762-6.761a.766.766 0 0 0 .228-.564.766.766 0 0 0-.228-.563z"/><path d="m41.819 42.947 1.127-1.127a.766.766 0 0 0 .228-.563.766.766 0 0 0-.228-.563l-6.762-6.762a.766.766 0 0 0-.564-.23.766.766 0 0 0-.563.23l-1.127 1.127a.766.766 0 0 0-.229.563c0 .223.076.411.229.564l6.762 6.761c.152.153.34.23.563.23.223 0 .411-.077.564-.23z"/></svg>