<svg xmlns="http://www.w3.org/2000/svg" xmlns:xlink="http://www.w3.org/1999/xlink" viewBox="0 0 48 48"><defs><linearGradient id="h"><stop offset="0" stop-color="#fff"/><stop offset="1" stop-color="#fff" stop-opacity="0"/></linearGradient><linearGradient id="g"><stop offset="0" stop-color="#fff"/><stop offset="1" stop-color="#fff" stop-opacity="0"/></linearGradient><linearGradient id="f"><stop offset="0" stop-color="#ff5151"/><stop offset=".181" stop-color="#fffa59"/><stop offset=".341" stop-color="#5fff56"/><stop offset=".5" stop-color="#4efff7"/><stop offset=".662" stop-color="#2e4cff"/><stop offset=".82" stop-color="#ff49fb"/><stop offset="1" stop-color="#ff4f4f"/></linearGradient><linearGradient id="e"><stop offset="0" stop-color="#fff"/><stop offset=".42" stop-color="#0078fb"/><stop offset="1" stop-color="#0068fb" stop-opacity=".225"/></linearGradient><linearGradient id="d"><stop offset=".096" stop-color="#fff"/><stop offset=".167" stop-color="#fff" stop-opacity=".68"/><stop offset="1" stop-color="#fff" stop-opacity="0"/></linearGradient><linearGradient id="c"><stop offset=".098" stop-color="#fff"/><stop offset=".226" stop-color="#fff" stop-opacity=".692"/><stop offset=".652" stop-color="#fff" stop-opacity=".302"/><stop offset="1" stop-color="#fff" stop-opacity="0"/></linearGradient><linearGradient id="b"><stop offset="0" stop-color="#059bff" stop-opacity=".885"/><stop offset="1" stop-color="#0562ff" stop-opacity=".302"/></linearGradient><linearGradient id="a"><stop offset="0" stop-color="#191919"/><stop offset="1" stop-color="#0d0d0d"/></linearGradient><linearGradient id="i"><stop offset="0" stop-color="#ff8f05"/><stop offset=".522" stop-color="#fee30b"/><stop offset="1" stop-color="#fff"/></linearGradient><linearGradient xlink:href="#a" id="k" x1="5.83" x2="12.91" y1="6.7" y2="13.2" gradientUnits="userSpaceOnUse"/><linearGradient xlink:href="#b" id="m" x1="24.345" x2="24.401" y1="16.99" y2="31.545" gradientTransform="matrix(.9935 0 0 1.4926 .157 -10.13)" gradientUnits="userSpaceOnUse"/><linearGradient xlink:href="#c" id="p" x1="5.123" x2="6.882" y1="9.98" y2="19.22" gradientUnits="userSpaceOnUse"/><linearGradient xlink:href="#d" id="o" x1="44.361" x2="40.146" y1="36.189" y2="24.415" gradientUnits="userSpaceOnUse"/><linearGradient xlink:href="#e" id="n" x1="2.631" x2="45.217" y1="19.102" y2="19.102" gradientUnits="userSpaceOnUse"/><linearGradient xlink:href="#f" id="r" x1="5.927" x2="39.215" y1="-4.623" y2="-4.623" gradientTransform="matrix(.6441 0 0 .9022 9.686 44.859)" gradientUnits="userSpaceOnUse"/><linearGradient xlink:href="#g" id="s" x1="15.947" x2="17.728" y1="38.714" y2="44.375" gradientUnits="userSpaceOnUse"/><linearGradient xlink:href="#h" id="t" x1="32.757" x2="16.67" y1="42.68" y2="42.718" gradientUnits="userSpaceOnUse"/><filter id="l" width="1.832" height="1.832" x="-.416" y="-.416" color-interpolation-filters="sRGB"><feGaussianBlur stdDeviation=".13"/></filter><filter id="q" width="2.283" height="2.283" x="-.642" y="-.642" color-interpolation-filters="sRGB"><feGaussianBlur stdDeviation=".156"/></filter><radialGradient xlink:href="#i" id="j" cx="7.18" cy="8.2" r="6.59" fx="7.18" fy="8.2" gradientTransform="matrix(.9 .5558 -.5314 .8606 5.08 -2.85)" gradientUnits="userSpaceOnUse"/></defs><path fill="url(#j)" fill-rule="evenodd" stroke="url(#k)" stroke-width=".85" d="M13.51 5.1c.44.77-2.18 2.89-2.29 3.76-.1.88 1.95 3.55 1.36 4.2-.6.64-3.43-1.19-4.3-1.02-.86.17-2.76 2.95-3.56 2.58-.8-.36.07-3.62-.36-4.39C3.93 9.46.69 8.51.8 7.63c.1-.87 3.47-1.05 4.06-1.7.6-.64.51-4.01 1.38-4.18.86-.18 2.07 2.97 2.87 3.34.8.37 3.97-.76 4.4 0z" enable-background="accumulate" overflow="visible" style="marker:none" transform="matrix(1.575 1.3457 -1.3489 1.58 23.54 -.285)"/><path fill="none" stroke="#fff" stroke-linejoin="round" stroke-width="2.23" d="m43.15 26.6-13.29 3.06-4.27 13.9-7.3-12.51-14.12.53 9.24-11.12L8.95 7.43l13.08 5.48 11.25-8.56-1.32 14.56Z" enable-background="accumulate" overflow="visible" style="marker:none" transform="matrix(.595 0 0 .595 10.319 9.74)"/><path fill="#fffdfc" fill-rule="evenodd" d="M8.5 7.99a.37.37 0 0 1-.38.37.37.37 0 0 1-.37-.37.37.37 0 0 1 .37-.38.37.37 0 0 1 .37.37" filter="url(#l)" transform="rotate(36.96 7.508 32.803) scale(1.8047)"/><rect width="45.579" height="45.342" x="1.219" y="1.343" fill="url(#m)" fill-opacity=".676" stroke="#000" stroke-linecap="round" stroke-linejoin="round" stroke-width="2.577" paint-order="fill markers stroke" ry="3.383"/><path fill="url(#n)" d="M2.631 11.374V21.92c0 .453.21 1.123.512 1.46 1.39 1.553 5.751 5.35 14.786 4.81 11.314-.676 12.855-7.292 19.433-10.223 3.026-1.35 4.93-1.95 6.105-2.206.947-.206 1.75-.917 1.75-1.895V11.1a1.136 1.136 44.899 0 0-1.14-1.136l-40.183.141a1.267 1.267 134.899 0 0-1.263 1.268Z" opacity=".25" paint-order="fill markers stroke" transform="matrix(.9935 0 0 1.5173 .157 -11.542)"/><path fill="url(#o)" d="M45.462 22.338V35.74a1.096 1.096 135 0 1-1.096 1.095H2.94a.094.094 80.722 0 1-.03-.182l.35-.117a51.873 51.873 167.435 0 1 10.57-2.356l14.994-1.728a9.534 9.534 131.713 0 0 8.443-9.471v-.229a1.456 1.456 135.066 0 1 1.459-1.456l5.708.014a1.028 1.028 45.066 0 1 1.027 1.028z" paint-order="fill markers stroke" transform="matrix(.9935 0 0 1.4926 -.216 -10.591)"/><path fill="url(#p)" d="M3.875 9.674h41.069v.139a7.755 7.755 135 0 1-7.756 7.755H10.676a7.407 7.407 45 0 1-7.407-7.407.55.55 141.248 0 1 .606-.487Z" paint-order="fill markers stroke" transform="matrix(.9935 0 0 1.5173 .157 -10.816)"/><circle cx="6.632" cy="41.36" r="1.203" fill="#fff" paint-order="fill markers stroke"/><circle cx="6.98" cy="7.224" r=".977" fill="#fff" paint-order="fill markers stroke"/><circle cx="39.024" cy="40.459" r=".714" fill="#fff" paint-order="fill markers stroke"/><circle cx="24.25" cy="22.455" r=".291" fill="#fff" filter="url(#q)" paint-order="fill markers stroke"/><path fill="#fff" d="M2.264 2.1a.752.752 0 0 0-.752.752v42.623c0 .415.336.752.752.752h43.67a.752.752 0 0 0 .752-.752V2.852a.752.752 0 0 0-.752-.752Zm1.698 1.504H44.49a.691.691 45 0 1 .692.691v39.143a1.285 1.285 135 0 1-1.285 1.285H4.384a1.368 1.368 45 0 1-1.368-1.368V4.55a.947.947 135 0 1 .946-.946Z" color="#000" paint-order="markers stroke fill" style="-inkscape-stroke:none"/><path fill="url(#r)" stroke="#fff" stroke-linecap="round" stroke-linejoin="round" stroke-width=".762" d="M13.826 38.145h20.798v5.086H13.826z" paint-order="markers stroke fill"/><path fill="url(#s)" d="M13.688 41.196s1.275-1.116 3.907-1.302c2.63-.186 3.455 2.153 6.644 2.285 3.19.133 6.406-2.1 8.186-2.338 1.781-.24 2.366-.187 2.366-.187V38.06H13.58Z" paint-order="markers stroke fill"/><path fill="url(#t)" d="M14.039 42.492h20.41v.526h-20.41z" paint-order="markers stroke fill"/><circle cx="33.644" cy="39.072" r=".507" fill="#fff" paint-order="fill markers stroke"/></svg>