<svg width="64mm" height="64mm" viewBox="0 0 64 64" xmlns:xlink="http://www.w3.org/1999/xlink" xmlns="http://www.w3.org/2000/svg"><defs><linearGradient xlink:href="#a" id="e" x1="-20.459" y1="-18.821" x2="-60.891" y2="-30.538" gradientUnits="userSpaceOnUse"/><linearGradient id="a"><stop offset=".113" stop-color="#fff"/><stop offset=".244" stop-color="#ffccb7"/><stop offset=".48" stop-color="#ff3e17"/><stop offset=".705" stop-color="#f20000"/><stop offset="1" stop-color="#8d0000"/></linearGradient><linearGradient xlink:href="#b" id="f" x1="-62.22" y1="-25.308" x2="-18.692" y2="-25.308" gradientUnits="userSpaceOnUse"/><linearGradient id="b"><stop offset=".001" stop-color="#c00900"/><stop offset=".503" stop-color="#ff3e0e"/><stop offset="1" stop-color="#ff563d"/></linearGradient><linearGradient id="c"><stop offset="0" stop-color="#fff"/><stop offset=".468" stop-color="#dadada"/><stop offset="1" stop-color="#6e6e6e"/></linearGradient><linearGradient xlink:href="#d" id="h" x1="-28.175" y1="-18.696" x2="-56.278" y2="-31.224" gradientUnits="userSpaceOnUse"/><linearGradient id="d"><stop offset="0" stop-color="#ff4c27"/><stop offset="1" stop-color="#b30000"/></linearGradient><radialGradient xlink:href="#c" id="g" cx="-40.187" cy="-25.201" fx="-40.187" fy="-25.201" r="14.157" gradientUnits="userSpaceOnUse" gradientTransform="matrix(-1.13663 -.42546 .35057 -.93654 -77.03 -65.9)"/><filter id="i" x="-.663" y="-.535" width="2.325" height="2.069" color-interpolation-filters="sRGB"><feGaussianBlur stdDeviation="0.707 0.726"/></filter></defs><path d="M58.612 26.146A17.913 17.913 0 0 1 43.87 46.748 17.913 17.913 0 0 1 23.27 32.006 17.913 17.913 0 0 1 38.01 11.404a17.913 17.913 0 0 1 20.602 14.742Z" fill="#fff"/><path d="M37.593 8.889c-11.12 1.843-18.684 12.414-16.84 23.534 1.843 11.12 12.414 18.686 23.534 16.842C55.407 47.422 62.973 36.85 61.13 25.73c-1.843-11.12-12.416-18.684-23.536-16.84zm.834 5.033a15.322 15.322 0 0 1 17.668 12.641A15.322 15.322 0 0 1 43.453 44.23 15.322 15.322 0 0 1 25.786 31.59a15.322 15.322 0 0 1 12.641-17.667z" fill="#404040"/><g transform="translate(-.218 -.119)"><circle cx="-40.456" cy="-25.308" r="21.002" transform="rotate(-149.458)" fill="url(#e)" stroke="url(#f)" stroke-width="1.523" stroke-linecap="round" stroke-linejoin="round"/><circle cx="-40.187" cy="-25.201" r="13.12" transform="rotate(-149.458)" fill="url(#g)" stroke="url(#h)" stroke-width="2.075" stroke-linecap="round" stroke-linejoin="round"/><path style="mix-blend-mode:normal" transform="matrix(1.79036 0 0 1.79036 -26.424 -3.209)" d="M30.32 29.412a1.28 1.63 0 0 1-1.159 1.623 1.28 1.63 0 0 1-1.38-1.314 1.28 1.63 0 0 1 .898-1.872 1.28 1.63 0 0 1 1.549.958l-1.189.605z" fill="#fff" filter="url(#i)"/></g><path d="M38.797 22.214a15.524 16.354.004 0 1-15.176 16.714A15.524 16.354.004 0 1 7.758 22.94 15.524 16.354.004 0 1 22.933 6.227a15.524 16.354.004 0 1 15.864 15.987Z" fill="#fff"/><path d="M22.882 3.816c-9.944.232-17.752 8.913-17.535 19.18.216 10.268 8.38 18.575 18.325 18.343 9.944-.232 17.752-8.913 17.536-19.18-.216-10.268-8.382-18.575-18.326-18.343zm.102 4.823c7.198-.168 13.237 5.84 13.4 13.632.165 7.793-5.615 14.077-12.813 14.245-7.199.168-13.238-5.84-13.402-13.632-.164-7.793 5.616-14.077 12.815-14.245z" fill="#868686"/></svg>