<svg width="48" height="48" xmlns:xlink="http://www.w3.org/1999/xlink" xmlns="http://www.w3.org/2000/svg"><defs><path fill="#fffdfc" fill-rule="evenodd" d="M8.5 7.99a.37.37 0 0 1-.38.37.37.37 0 0 1-.37-.37.37.37 0 0 1 .37-.38.37.37 0 0 1 .37.37" filter="url(#k)" id="reuse-0"/></defs><defs><linearGradient id="a"><stop offset="0" stop-color="#1a1a1a"/><stop offset="1"/></linearGradient><linearGradient id="b"><stop offset="0" stop-color="#ffae05" stop-opacity="0"/><stop offset=".416" stop-color="#7b7b7b" stop-opacity="0"/><stop offset="1" stop-color="#cecece"/></linearGradient><linearGradient xlink:href="#a" id="j" x1="5.83" x2="12.91" y1="6.7" y2="13.2" gradientUnits="userSpaceOnUse" gradientTransform="matrix(2.647 2.2616 -2.267 2.6553 22.298 -16.87)"/><linearGradient xlink:href="#c" id="l" x1="25.47" y1="24.208" x2="45.783" y2="38.346" gradientUnits="userSpaceOnUse"/><linearGradient id="c"><stop offset="0" stop-color="#4d4d4d"/><stop offset="1" stop-color="#2c2c2c"/></linearGradient><linearGradient xlink:href="#d" id="m" x1="28.395" y1="20.758" x2="32.894" y2="25.368" gradientUnits="userSpaceOnUse"/><linearGradient id="d"><stop offset="0" stop-color="#ff1404"/><stop offset="1" stop-color="#861d15"/></linearGradient><linearGradient xlink:href="#e" id="n" x1="28.395" y1="27.368" x2="32.894" y2="31.977" gradientUnits="userSpaceOnUse"/><linearGradient id="e"><stop offset="0" stop-color="#1fff05"/><stop offset="1" stop-color="#109900"/></linearGradient><linearGradient xlink:href="#f" id="o" x1="28.395" y1="33.894" x2="32.894" y2="38.503" gradientUnits="userSpaceOnUse"/><linearGradient id="f"><stop offset="0" stop-color="#08acff"/><stop offset="1" stop-color="#069"/></linearGradient><linearGradient id="g"><stop offset="0" stop-color="#ff8f05"/><stop offset=".522" stop-color="#fee30b"/><stop offset="1" stop-color="#fff"/></linearGradient><linearGradient xlink:href="#h" id="q" gradientUnits="userSpaceOnUse" x1="5.83" y1="6.7" x2="12.91" y2="13.2"/><linearGradient id="h"><stop offset="0" stop-color="#4c4c4c"/><stop offset="1" stop-color="#0d0d0d"/></linearGradient><radialGradient xlink:href="#g" id="p" cx="7.18" cy="8.2" r="6.59" fx="7.18" fy="8.2" gradientTransform="matrix(.9 .5558 -.5314 .8606 5.08 -2.85)" gradientUnits="userSpaceOnUse"/><radialGradient xlink:href="#b" id="i" cx="7.18" cy="8.2" r="6.59" fx="7.18" fy="8.2" gradientTransform="matrix(1.1223 3.51126 -3.3576 1.08334 42.206 -12.949)" gradientUnits="userSpaceOnUse"/><filter id="r" width="1.832" height="1.832" x="-.416" y="-.416" color-interpolation-filters="sRGB"><feGaussianBlur stdDeviation=".13"/></filter><filter id="k" width="1.832" height="1.832" x="-.416" y="-.416" color-interpolation-filters="sRGB"><feGaussianBlur stdDeviation=".13"/></filter></defs><path fill="url(#i)" fill-rule="evenodd" stroke="url(#j)" stroke-width="2.964" d="M46.497 27.226c-.58 3.04-12.322 2.744-14.585 4.805-2.26 2.11-2.886 13.836-5.922 14.228-3.039.342-6.381-10.917-9.07-12.433-2.661-1.494-13.993 1.59-15.272-1.201-1.301-2.765 8.392-9.454 9-12.471.607-3.017-5.816-12.867-3.53-14.955 2.238-2.084 11.566 5.06 14.601 4.668 3.04-.342 10.44-9.494 13.13-7.978 2.684 1.467-1.255 12.568.024 15.36 1.28 2.791 12.232 6.96 11.647 9.95z" enable-background="accumulate" overflow="visible" style="marker:none" opacity=".33"/><use fill-rule="evenodd" filter="url(#k)" transform="rotate(36.96 28.51 21.107) scale(3.0331)" xlink:href="#reuse-0"/><path d="M28.278 19.196h13.796a2.708 2.708 45 0 1 2.709 2.708v21.824a2.551 2.551 135 0 1-2.552 2.551h-13.6a2.72 2.72 45 0 1-2.719-2.719V21.562a2.365 2.365 135 0 1 2.366-2.366z" transform="translate(.122 -.113)" fill="#fff" stroke="url(#l)" stroke-width="2" stroke-linecap="round" paint-order="markers stroke fill"/><path d="M29.685 21.758h1.901a.307.307 45 0 1 .308.308v1.985a.316.316 135 0 1-.317.317h-1.814a.368.368 45 0 1-.368-.368v-1.952a.29.29 135 0 1 .29-.29z" transform="translate(.122 -.526)" fill="#ff1404" stroke="url(#m)" stroke-width="2" stroke-linecap="round" stroke-linejoin="round" paint-order="markers stroke fill"/><path d="M29.698 28.368h1.862a.334.334 45 0 1 .334.334v1.958a.316.316 135 0 1-.317.317h-1.834a.347.347 45 0 1-.348-.348v-1.958a.303.303 135 0 1 .303-.303z" transform="translate(.122 -.865)" fill="#1fff05" stroke="url(#n)" stroke-width="2" stroke-linecap="round" stroke-linejoin="round" paint-order="markers stroke fill"/><path d="M29.725 34.894h1.855a.314.314 45 0 1 .314.314v1.972a.323.323 135 0 1-.323.323h-1.828a.347.347 45 0 1-.348-.348v-1.932a.33.33 135 0 1 .33-.33z" transform="translate(.122 -.865)" fill="#08acff" stroke="url(#o)" stroke-width="2" stroke-linecap="round" stroke-linejoin="round" paint-order="markers stroke fill"/><path paint-order="markers stroke fill" d="M35.144 22.373h7.713v.601h-7.713zM35.144 28.529h7.713v.601h-7.713zM35.144 35.014h7.713v.601h-7.713zM35.144 42.302h7.713v.601h-7.713z"/><path fill="url(#p)" fill-rule="evenodd" stroke="url(#q)" stroke-width=".85" d="M13.51 5.1c.44.77-2.18 2.89-2.29 3.76-.1.88 1.95 3.55 1.36 4.2-.6.64-3.43-1.19-4.3-1.02-.86.17-2.76 2.95-3.56 2.58-.8-.36.07-3.62-.36-4.39C3.93 9.46.69 8.51.8 7.63c.1-.87 3.47-1.05 4.06-1.7.6-.64.51-4.01 1.38-4.18.86-.18 2.07 2.97 2.87 3.34.8.37 3.97-.76 4.4 0z" enable-background="accumulate" overflow="visible" style="marker:none" transform="matrix(.3741 .31964 -.3204 .37528 30.6 36.68)"/><path fill="none" stroke="#fff" stroke-linejoin="round" stroke-width="2.23" d="m43.15 26.6-13.29 3.06-4.27 13.9-7.3-12.51-14.12.53 9.24-11.12L8.95 7.43l13.08 5.48 11.25-8.56-1.32 14.56Z" enable-background="accumulate" overflow="visible" style="marker:none" transform="translate(27.46 39.062) scale(.14133)"/><use fill-rule="evenodd" filter="url(#r)" transform="scale(.42867) rotate(36.96 -94.921 148.319)" xlink:href="#reuse-0"/></svg>