<svg xmlns="http://www.w3.org/2000/svg" xmlns:xlink="http://www.w3.org/1999/xlink" width="48" height="48"><defs><linearGradient id="l" x1="5.505" x2="8.546" y1="11.477" y2="14.519" gradientUnits="userSpaceOnUse"><stop offset="0" stop-color="#11a119" style="stop-color:#fff;stop-opacity:0"/><stop offset="1" stop-color="#37ae3d" style="stop-color:#fff;stop-opacity:1"/></linearGradient><linearGradient id="n"><stop offset="0" style="stop-color:#fff;stop-opacity:1"/><stop offset="1" style="stop-color:#fff;stop-opacity:0"/></linearGradient><linearGradient id="m"><stop offset="0" style="stop-color:#000;stop-opacity:1"/><stop offset="1" style="stop-color:#000;stop-opacity:0"/></linearGradient><linearGradient id="a"><stop offset="0" style="stop-color:#d3d7cf;stop-opacity:1"/><stop offset="1" style="stop-color:white;stop-opacity:1"/></linearGradient><linearGradient xlink:href="#a" id="o" x1="23.201" x2="22.741" y1="3.505" y2="26.46" gradientTransform="matrix(1.573 0 0 1.73278 -19.974 -2.401)" gradientUnits="userSpaceOnUse"/><linearGradient id="h" x1="29.662" x2="21.419" y1="18.026" y2="20.234" gradientUnits="userSpaceOnUse"><stop offset="0" stop-color="red"/><stop offset="1" stop-color="#ff6a6a"/></linearGradient><linearGradient xlink:href="#h" id="r" x1="24.588" x2="18.776" y1="9.748" y2="15.56" gradientTransform="rotate(-6.94 -5.214 27.34)scale(1.49491)"/><linearGradient id="i" x1="18.466" x2="15.924" y1="6.619" y2="13.603" gradientUnits="userSpaceOnUse"><stop offset="0" stop-color="#cfa40c"/><stop offset="1" stop-color="#edd480"/></linearGradient><linearGradient xlink:href="#i" id="t" x1="13.17" x2="13.17" y1="6.51" y2="12.997" gradientTransform="rotate(-6.94 -5.214 27.34)scale(1.49491)"/><linearGradient xlink:href="#i" id="u" x1="8.808" x2="10.988" y1="8.486" y2="13.161" gradientTransform="rotate(-6.94 -5.214 27.34)scale(1.49491)"/><linearGradient id="j" x1="5.505" x2="8.546" y1="11.477" y2="14.519" gradientUnits="userSpaceOnUse"><stop offset="0" stop-color="#11a119"/><stop offset="1" stop-color="#37ae3d"/></linearGradient><linearGradient xlink:href="#j" id="w" x1="3.639" x2="6.883" y1="14.285" y2="16.158" gradientTransform="rotate(-6.94 -5.214 27.34)scale(1.49491)"/><linearGradient xlink:href="#j" id="x" x1="2.265" x2="5.379" y1="17.799" y2="18.933" gradientTransform="rotate(-6.94 -5.214 27.34)scale(1.49491)"/><linearGradient xlink:href="#j" id="y" x1="2" x2="4.833" y1="21.614" y2="21.614" gradientTransform="rotate(-6.94 -5.214 27.34)scale(1.49491)"/><linearGradient xlink:href="#h" id="q" x1="29.662" x2="21.419" y1="18.026" y2="20.234" gradientTransform="rotate(-6.94 -5.214 27.34)scale(1.49491)" gradientUnits="userSpaceOnUse"/><linearGradient xlink:href="#i" id="s" x1="18.466" x2="15.924" y1="6.619" y2="13.603" gradientTransform="rotate(-6.94 -5.214 27.34)scale(1.49491)" gradientUnits="userSpaceOnUse"/><linearGradient xlink:href="#j" id="v" x1="5.505" x2="8.546" y1="11.477" y2="14.519" gradientTransform="rotate(-6.94 -5.214 27.34)scale(1.49491)" gradientUnits="userSpaceOnUse"/><linearGradient xlink:href="#k" id="D" x1="33.032" x2="39.578" y1="30.953" y2="30.172" gradientUnits="userSpaceOnUse"/><linearGradient id="k"><stop offset="0" style="stop-color:#fff;stop-opacity:1"/><stop offset="1" style="stop-color:#fff;stop-opacity:0"/></linearGradient><linearGradient xlink:href="#k" id="B" x1="33.04" x2="37.669" y1="30.991" y2="26.063" gradientTransform="translate(-4.546 -8.836)" gradientUnits="userSpaceOnUse"/><linearGradient xlink:href="#k" id="E" x1="33.284" x2="32.184" y1="30.947" y2="26.957" gradientTransform="translate(-21.356 -12.147)" gradientUnits="userSpaceOnUse"/><linearGradient xlink:href="#l" id="C" x1="25.293" x2="22.538" y1="10.328" y2="17.286" gradientUnits="userSpaceOnUse"/><linearGradient xlink:href="#m" id="z" x1="33.016" x2="44.197" y1="30.203" y2="29.733" gradientUnits="userSpaceOnUse"/><linearGradient xlink:href="#n" id="A" x1="33.016" x2="44.406" y1="30.203" y2="30.203" gradientUnits="userSpaceOnUse"/><filter id="p" width="1.121" height="1.188" x="-.061" y="-.094" style="color-interpolation-filters:sRGB"><feGaussianBlur stdDeviation="1.06"/></filter></defs><path d="M.807 1.15v30.398H12.99l-3.86 15.241 25.286-15.241h12.782V1.15Z" style="color:#000;display:inline;overflow:visible;visibility:visible;fill:url(#o);fill-opacity:1;fill-rule:evenodd;stroke:#2e3436;stroke-width:1.54233;stroke-linecap:butt;stroke-linejoin:round;stroke-miterlimit:4;stroke-dasharray:none;stroke-dashoffset:0;stroke-opacity:1;marker:none"/><path d="M2.085 2.191v27.94h12.174l-2.946 13.847L33.93 30.13h11.913V2.191Z" style="color:#000;display:inline;overflow:visible;visibility:visible;fill:none;stroke:#fff;stroke-width:1.02822;stroke-linecap:butt;stroke-linejoin:miter;stroke-miterlimit:6;stroke-dasharray:none;stroke-dashoffset:0;stroke-opacity:1;marker:none"/><text xml:space="preserve" x="4.052" y="11.815" style="font-style:normal;font-variant:normal;font-weight:400;font-stretch:normal;font-size:15.6079px;line-height:0%;font-family:Tahoma;-inkscape-font-specification:Tahoma;text-align:start;letter-spacing:0;word-spacing:0;writing-mode:lr-tb;text-anchor:start;fill:#000;fill-opacity:1;stroke:none;stroke-width:1.30065"><tspan x="4.052" y="11.815" style="font-size:15.6079px;line-height:1.25;stroke-width:1.30065"> </tspan></text><g style="display:inline"><g style="display:inline;opacity:.1;mix-blend-mode:normal;fill:#000;fill-opacity:1;stroke:none;stroke-width:.5;stroke-dasharray:none;stroke-opacity:1;filter:url(#p)" transform="translate(4.981 4.305)scale(.86255)"><path d="M40.406 14.688a22 22 0 0 1 1.518 2.137 22.37 22.37 0 0 1 3.27 11.324L33.64 29.556a15.5 15.5 0 0 0-2.234-6.39zM25.61 17.778a15.1 15.1 0 0 1 4.633 3.77l8.37-8.85a23.2 23.2 0 0 0-8.152-5.257ZM20.957 16.32a13.2 13.2 0 0 1 3.7 1.004l4.011-10.46a19 19 0 0 0-7.065-.574ZM20.059 6.53c-1.82.356-3.577.982-5.212 1.858l1.77 8.275a10.8 10.8 0 0 1 3.705-.395z" style="fill:#000;fill-opacity:1;stroke:none;stroke-width:.5;stroke-dasharray:none;stroke-opacity:1"/><path d="M13.301 9.3a22 22 0 0 0-3.414 2.785l3.38 6.244a11.3 11.3 0 0 1 2.018-1.178zM8.164 13.999a23 23 0 0 0-1.849 2.653l4.223 4.401c.541-.729 1.12-1.418 1.852-2.073z" style="fill:#000;fill-opacity:1;stroke:none;stroke-width:.500163;stroke-dasharray:none;stroke-opacity:1"/><path d="M5.46 18.245a21.3 21.3 0 0 0-1.416 3.83l4.77 1.995q.49-1.157 1.168-2.214zM3.72 23.48a23 23 0 0 0-.423 4.314l4.422.376q.144-1.169.463-2.303zM7.605 29.712a16 16 0 0 0 .213 2.986l-3.917.477a21.4 21.4 0 0 1-.56-3.807Z" style="fill:#000;fill-opacity:1;stroke:none;stroke-width:.5;stroke-dasharray:none;stroke-opacity:1"/></g><g style="stroke:#fff;stroke-width:.5;stroke-dasharray:none;stroke-opacity:1"><path d="M40.406 14.688a22 22 0 0 1 1.518 2.137 22.37 22.37 0 0 1 3.27 11.324L33.64 29.556a15.5 15.5 0 0 0-2.234-6.39z" style="fill:url(#q);stroke:#fff;stroke-width:.706155;stroke-dasharray:none;stroke-opacity:1" transform="translate(2.776 -1.116)scale(.89902)"/><path d="M25.61 17.778a15.1 15.1 0 0 1 4.633 3.77l8.37-8.85a23.2 23.2 0 0 0-8.152-5.257Z" style="fill:url(#r);stroke:#fff;stroke-width:.706155;stroke-dasharray:none;stroke-opacity:1" transform="translate(2.776 -1.116)scale(.89902)"/><path d="M20.957 16.32a13.2 13.2 0 0 1 3.7 1.004l4.011-10.46a19 19 0 0 0-7.065-.574Z" style="fill:url(#s);stroke:#fff;stroke-width:.602585;stroke-dasharray:none;stroke-opacity:1" transform="translate(2.776 -1.116)scale(.89902)"/><path d="M20.059 6.53c-1.82.356-3.577.982-5.212 1.858l1.77 8.275a10.8 10.8 0 0 1 3.705-.395z" style="fill:url(#t);stroke:#fff;stroke-width:.602585;stroke-dasharray:none;stroke-opacity:1" transform="translate(2.776 -1.116)scale(.89902)"/><path d="M13.301 9.3a22 22 0 0 0-3.414 2.785l3.38 6.244a11.3 11.3 0 0 1 2.018-1.178z" style="fill:url(#u);stroke:#fff;stroke-width:.602585;stroke-dasharray:none;stroke-opacity:1" transform="translate(2.776 -1.116)scale(.89902)"/><path d="M8.164 13.999a23 23 0 0 0-1.849 2.653l4.223 4.401c.541-.729 1.12-1.418 1.852-2.073z" style="fill:url(#v);stroke:#fff;stroke-width:.499016;stroke-dasharray:none;stroke-opacity:1" transform="translate(2.776 -1.116)scale(.89902)"/><path d="M5.46 18.245a21.3 21.3 0 0 0-1.416 3.83l4.77 1.995q.49-1.157 1.168-2.214z" style="fill:url(#w);stroke:#fff;stroke-width:.499016;stroke-dasharray:none;stroke-opacity:1" transform="translate(2.776 -1.116)scale(.89902)"/><path d="M3.72 23.48a23 23 0 0 0-.423 4.314l4.422.376q.144-1.169.463-2.303z" style="fill:url(#x);stroke:#fff;stroke-width:.499016;stroke-dasharray:none;stroke-opacity:1" transform="translate(2.776 -1.116)scale(.89902)"/><path d="M7.605 29.712a16 16 0 0 0 .213 2.986l-3.917.477a21.4 21.4 0 0 1-.56-3.807Z" style="fill:url(#y);stroke:#fff;stroke-width:.499016;stroke-dasharray:none;stroke-opacity:1" transform="translate(2.776 -1.116)scale(.89902)"/></g><path d="m33.516 30.86 10.39-1.313" style="opacity:1;fill:url(#z);stroke:url(#A);stroke-width:1;stroke-linecap:round;stroke-linejoin:bevel;stroke-dasharray:none;stroke-opacity:1;paint-order:stroke fill markers" transform="translate(5.514 -1.84)scale(.84646)"/><path d="m28.881 21.869 7.032-7.72" style="opacity:.85;fill:#000;stroke:url(#B);stroke-width:1;stroke-linecap:round;stroke-linejoin:bevel;stroke-dasharray:none;stroke-opacity:1;paint-order:stroke fill markers" transform="translate(5.514 -1.84)scale(.84646)"/><path d="m22.263 17.923 3.474-9.046" style="opacity:.7;fill:#000;stroke:url(#C);stroke-width:.8;stroke-linecap:round;stroke-linejoin:bevel;stroke-dasharray:none;stroke-opacity:1;paint-order:stroke fill markers;fill-opacity:1" transform="translate(5.514 -1.84)scale(.84646)"/><path d="m17.186 17.183-.216-8.185" style="opacity:.5;fill:#000;stroke:url(#D);stroke-width:.8;stroke-linecap:round;stroke-linejoin:bevel;stroke-dasharray:none;stroke-opacity:1;paint-order:stroke fill markers" transform="translate(5.514 -1.84)scale(.84646)"/><path d="m11.806 18.536-1.63-5.975" style="opacity:.3;fill:#000;stroke:url(#E);stroke-width:.8;stroke-linecap:round;stroke-linejoin:bevel;stroke-dasharray:none;stroke-opacity:1;paint-order:stroke fill markers" transform="translate(5.514 -1.84)scale(.84646)"/></g></svg>