<?xml version="1.0" encoding="UTF-8" standalone="no"?><svg width="48" height="48" sodipodi:version=".32" inkscape:version="1.3.2 (091e20e, 2023-11-25, custom)" sodipodi:docname="icon_cvex_compileSVG.svg" xmlns:inkscape="http://www.inkscape.org/namespaces/inkscape" xmlns:sodipodi="http://sodipodi.sourceforge.net/DTD/sodipodi-0.dtd" xmlns:xlink="http://www.w3.org/1999/xlink" xmlns="http://www.w3.org/2000/svg"><defs><linearGradient inkscape:collect="always" id="a"><stop style="stop-color:#d3d7cf;stop-opacity:1" offset="0"/><stop style="stop-color:white;stop-opacity:1" offset="1"/></linearGradient><linearGradient inkscape:collect="always" xlink:href="#a" id="o" x1="23.201" y1="3.505" x2="22.741" y2="26.46" gradientUnits="userSpaceOnUse" gradientTransform="matrix(1.573 0 0 1.73278 -19.974 -2.401)"/><linearGradient id="b"><stop style="stop-color:#dfeaa1;stop-opacity:1" offset="0"/><stop style="stop-color:#9db029;stop-opacity:1" offset="1"/></linearGradient><linearGradient id="c"><stop style="stop-color:#2e3436;stop-opacity:.69072163" offset="0"/><stop style="stop-color:#2e3436;stop-opacity:0" offset="1"/></linearGradient><linearGradient inkscape:collect="always" xlink:href="#d" id="p" gradientUnits="userSpaceOnUse" x1="24" y1="29.167" x2="24" y2="8.341" gradientTransform="matrix(.95647 0 0 .95644 .997 -.003)"/><linearGradient id="d"><stop style="stop-color:#672179;stop-opacity:1" offset="0"/><stop style="stop-color:#c666bc;stop-opacity:1" offset="1"/></linearGradient><linearGradient inkscape:collect="always" xlink:href="#e" id="q" gradientUnits="userSpaceOnUse" x1="32" y1="7.746" x2="48.063" y2="7.746" gradientTransform="matrix(.95647 0 0 .95644 .997 -.003)"/><linearGradient id="e"><stop style="stop-color:#894f98;stop-opacity:1" offset="0"/><stop style="stop-color:#321c37;stop-opacity:1" offset="1"/></linearGradient><linearGradient inkscape:collect="always" xlink:href="#f" id="r" gradientUnits="userSpaceOnUse" x1="12.77" y1="8.325" x2="6.802" y2="4.77" gradientTransform="matrix(.95647 0 0 .95644 .997 -.003)"/><linearGradient id="f"><stop style="stop-color:#361f3c;stop-opacity:1" offset="0"/><stop style="stop-color:#6a3d76;stop-opacity:1" offset="1"/></linearGradient><linearGradient inkscape:collect="always" xlink:href="#g" id="s" gradientUnits="userSpaceOnUse" x1="24.389" y1="19.365" x2="33.325" y2="5.016" gradientTransform="matrix(.95647 0 0 .95644 .997 -.003)"/><linearGradient id="g"><stop style="stop-color:#6f2b8c;stop-opacity:1" offset="0"/><stop style="stop-color:#ad7fa8;stop-opacity:1" offset="1"/></linearGradient><linearGradient id="h"><stop style="stop-color:#361f3c;stop-opacity:1" offset="0"/><stop style="stop-color:#894f99;stop-opacity:1" offset="1"/></linearGradient><linearGradient inkscape:collect="always" xlink:href="#i" id="t" x1="18.238" y1="2.256" x2="24.573" y2="29.779" gradientUnits="userSpaceOnUse"/><linearGradient inkscape:collect="always" id="i"><stop style="stop-color:white;stop-opacity:1" offset="0"/><stop style="stop-color:white;stop-opacity:0" offset="1"/></linearGradient><linearGradient inkscape:collect="always" xlink:href="#j" id="u" gradientUnits="userSpaceOnUse" x1="27.069" y1="13.164" x2="26.266" y2="44.864" gradientTransform="matrix(.95647 0 0 .95644 .997 -.003)"/><linearGradient id="j"><stop style="stop-color:#ffd00d;stop-opacity:1" offset="0"/><stop offset=".5" style="stop-color:#ff8841;stop-opacity:1"/><stop style="stop-color:#a40000;stop-opacity:1" offset="1"/></linearGradient><linearGradient id="k"><stop style="stop-color:#ffec6c;stop-opacity:1" offset="0"/><stop offset=".625" style="stop-color:#ffa337;stop-opacity:1"/><stop style="stop-color:#c36000;stop-opacity:1" offset="1"/></linearGradient><linearGradient inkscape:collect="always" xlink:href="#l" id="v" x1="24.496" y1="30.877" x2="24.018" y2="44.528" gradientUnits="userSpaceOnUse"/><linearGradient inkscape:collect="always" id="l"><stop style="stop-color:#fce94f;stop-opacity:1" offset="0"/><stop style="stop-color:#fce94f;stop-opacity:0" offset="1"/></linearGradient><linearGradient inkscape:collect="always" xlink:href="#m" id="w" gradientUnits="userSpaceOnUse" x1="34.189" y1="4.512" x2="47.531" y2="10.175"/><linearGradient inkscape:collect="always" id="m"><stop style="stop-color:#c4a000;stop-opacity:1" offset="0"/><stop style="stop-color:#c4a000;stop-opacity:0" offset="1"/></linearGradient><linearGradient inkscape:collect="always" xlink:href="#m" id="x" x1="14.634" y1="4.512" x2="26.324" y2="22.746" gradientUnits="userSpaceOnUse"/><linearGradient inkscape:collect="always" xlink:href="#n" id="y" gradientUnits="userSpaceOnUse" x1="33.046" y1="4.195" x2="21.182" y2="22.564"/><linearGradient id="n" inkscape:collect="always"><stop offset="0" style="stop-color:#ffd412;stop-opacity:1"/><stop offset="1" style="stop-color:#c4a000;stop-opacity:0"/></linearGradient></defs><sodipodi:namedview pagecolor="#ffffff" bordercolor="#666666" borderopacity="1" inkscape:pageopacity="0" inkscape:pageshadow="2" inkscape:zoom="22.627" inkscape:cx="12.662" inkscape:cy="22.627" inkscape:current-layer="layer1" showgrid="true" inkscape:grid-bbox="false" inkscape:document-units="px" inkscape:window-width="3840" inkscape:window-height="2126" inkscape:window-x="-11" inkscape:window-y="-11" inkscape:window-maximized="1" inkscape:showpageshadow="0" inkscape:pagecheckerboard="1" inkscape:deskcolor="#505050"/><g inkscape:label="Layer 1" inkscape:groupmode="layer"><path style="color:#000;display:inline;overflow:visible;visibility:visible;fill:url(#o);fill-opacity:1;fill-rule:evenodd;stroke:#2e3436;stroke-width:1.54233;stroke-linecap:butt;stroke-linejoin:round;stroke-miterlimit:4;stroke-dasharray:none;stroke-dashoffset:0;stroke-opacity:1;marker:none" d="M.807 1.15v30.398H12.99l-3.86 15.241 25.286-15.241h12.782V1.15Z" sodipodi:nodetypes="cccccccc" inkscape:connector-curvature="0"/><path style="color:#000;display:inline;overflow:visible;visibility:visible;fill:none;stroke:#fff;stroke-width:1.02822;stroke-linecap:butt;stroke-linejoin:miter;stroke-miterlimit:6;stroke-dasharray:none;stroke-dashoffset:0;stroke-opacity:1;marker:none" d="M2.085 2.191v27.94h12.174l-2.946 13.847L33.93 30.13h11.913V2.191Z" sodipodi:nodetypes="cccccccc" inkscape:connector-curvature="0"/><text xml:space="preserve" style="font-style:normal;font-variant:normal;font-weight:400;font-stretch:normal;font-size:15.6079px;line-height:0%;font-family:Tahoma;-inkscape-font-specification:Tahoma;text-align:start;letter-spacing:0;word-spacing:0;writing-mode:lr-tb;text-anchor:start;fill:#000;fill-opacity:1;stroke:none;stroke-width:1.30065" x="4.052" y="11.815"><tspan sodipodi:role="line" x="4.052" y="11.815" style="font-size:15.6079px;line-height:1.25;stroke-width:1.30065"> </tspan></text><g transform="matrix(.63582 0 0 .63582 9.357 3.473)"><path inkscape:connector-curvature="0" sodipodi:nodetypes="ccccccc" d="m23.893 45.459 22.537-31.17L34.77 7.17 23.953 25.066 13.134 7.171 1.476 14.289Z" style="fill:url(#p);fill-opacity:1;fill-rule:evenodd;stroke:#361f3c;stroke-width:1px;stroke-linecap:butt;stroke-linejoin:miter;stroke-opacity:1"/><path inkscape:connector-curvature="0" sodipodi:nodetypes="ccccc" d="M46.49 14.276 40.402 5.03 32.4.727l2.263 6.55Z" style="color:#000;display:inline;overflow:visible;visibility:visible;fill:url(#q);fill-opacity:1;fill-rule:evenodd;stroke:#361f3c;stroke-width:1px;stroke-linecap:butt;stroke-linejoin:bevel;stroke-miterlimit:4;stroke-dasharray:none;stroke-dashoffset:0;stroke-opacity:1;marker:none"/><path inkscape:connector-curvature="0" d="m13.082 7.345 2.55-6.801 8.381 13.785-.06 10.627z" style="fill:#5c3566;fill-opacity:1;fill-rule:evenodd;stroke:#361f3c;stroke-width:1px;stroke-linecap:butt;stroke-linejoin:bevel;stroke-opacity:1"/><path inkscape:connector-curvature="0" sodipodi:nodetypes="ccccc" d="M1.168 14.289 7.51 4.916 15.64.74l-2.39 6.423Z" style="fill:#ad7fa8;fill-opacity:1;fill-rule:evenodd;stroke:url(#r);stroke-width:1px;stroke-linecap:butt;stroke-linejoin:bevel;stroke-opacity:1"/><path inkscape:connector-curvature="0" sodipodi:nodetypes="ccccc" d="m34.762 7.284-2.55-6.8-8.077 14.148-.243 10.506Z" style="color:#000;display:inline;overflow:visible;visibility:visible;fill:url(#s);fill-opacity:1;fill-rule:evenodd;stroke:url(#linearGradient13601);stroke-width:1px;stroke-linecap:butt;stroke-linejoin:bevel;stroke-miterlimit:4;stroke-dasharray:none;stroke-dashoffset:0;stroke-opacity:1;marker:none"/><path inkscape:connector-curvature="0" sodipodi:nodetypes="ccccccc" d="m23.893 43.857 21.14-29.288-9.958-5.964-11.122 18.382L12.77 8.605 2.872 14.57Z" style="fill:none;stroke:#fce94f;stroke-width:1px;stroke-linecap:butt;stroke-linejoin:miter;stroke-opacity:1"/><path inkscape:connector-curvature="0" sodipodi:nodetypes="ccccccc" d="m23.886 42.262 19.743-27.446-8.18-4.885-11.313 18.572L12.38 9.931l-8.183 4.885Z" style="fill:none;stroke:url(#t);stroke-width:1px;stroke-linecap:butt;stroke-linejoin:miter;stroke-opacity:1"/><path inkscape:connector-curvature="0" sodipodi:nodetypes="cccccccccccccccc" d="M39.833 21.737c.39-1.846.51-3.658-.839-5.695-.258 4.059-1.49 3.01-2.359 6.149-.423-4.385-1.98-5.405-2.049-9.125-3.082 5.31.163 9.22-3.658 13.92-.795-2.387 1.303-5.039-.595-7.468-1.854 7.043-4.112 3.407-5.897 10.356-.465-1.38-1.105-2.723-1.944-3.914-.912 1.912-2.049 3.56-1.452 5.753-4.328-4.899-.483-7.317-2.983-11.644-.673 4.098-1.962 2.544-2.828 6.333-1.088-1.386-.85-2.726-1.102-4.26-.659-1.789-1.367-2.036-2.378-3.629 1.051 6.382-1.894 4.081-1.278 6.504L23.89 43.78z" style="fill:url(#u);fill-opacity:1;fill-rule:evenodd;stroke:url(#linearGradient13595);stroke-width:1px;stroke-linecap:butt;stroke-linejoin:miter;stroke-opacity:1"/><path inkscape:connector-curvature="0" sodipodi:nodetypes="ccccccccccccccc" d="M39.432 21.297c-.109-1.082.42-1.95-.297-3.386-.89 3.374-2.072 2.289-2.82 4.991-.608-4.019-1.827-3.864-2.068-7.615-.285 4.877-.406 9.762-3.697 13.809-1.352-2.602-.026-5.346.1-8.288-2.929 7.617-3.919 2.551-6.297 11.747-.4-1.189-1.073-3.924-1.795-4.95-.785 1.648-1.764 3.917-1.25 5.805-5.002-4.887-2.663-7.637-3.115-11.606-1.065 3.528-2.114 2.312-2.86 6-2.576-2.64-.546-5.036-2.753-7.158.176 3.067-1.388 2.36-1.222 4.265l12.475 17.365z" style="fill:none;stroke:url(#v);stroke-width:1px;stroke-linecap:butt;stroke-linejoin:miter;stroke-opacity:1"/><path inkscape:connector-curvature="0" sodipodi:nodetypes="ccccc" d="m3.301 12.28 4.717-6.752 6.169-3.285-1.698 4.564Z" style="fill:none;stroke:#fce94f;stroke-width:.5;stroke-linecap:butt;stroke-linejoin:miter;stroke-miterlimit:4;stroke-dasharray:none;stroke-opacity:1"/><path inkscape:connector-curvature="0" sodipodi:nodetypes="ccccc" d="m44.695 12.575-4.843-7.09-6.194-3.279 1.73 4.737Z" style="color:#000;display:inline;overflow:visible;visibility:visible;fill:none;stroke:url(#w);stroke-width:.5;stroke-linecap:butt;stroke-linejoin:miter;stroke-miterlimit:4;stroke-dasharray:none;stroke-dashoffset:0;stroke-opacity:1;marker:none"/><path inkscape:connector-curvature="0" sodipodi:nodetypes="ccccc" d="m13.868 7.254 1.943-4.98 7.47 12.45v7.772z" style="fill:none;stroke:url(#x);stroke-width:.5;stroke-linecap:butt;stroke-linejoin:miter;stroke-miterlimit:4;stroke-dasharray:none;stroke-opacity:1"/><path inkscape:connector-curvature="0" sodipodi:nodetypes="ccccc" d="m33.908 7.133-1.822-4.92-7.226 12.45-.183 7.651Z" style="color:#000;display:inline;overflow:visible;visibility:visible;fill:none;stroke:url(#y);stroke-width:.5;stroke-linecap:butt;stroke-linejoin:miter;stroke-miterlimit:4;stroke-dasharray:none;stroke-dashoffset:0;stroke-opacity:1;marker:none"/></g></g></svg>