<svg width="48" height="48" xmlns:xlink="http://www.w3.org/1999/xlink" xmlns="http://www.w3.org/2000/svg"><defs><linearGradient id="p"><stop offset=".986" stop-color="#ffba25"/><stop offset="1" stop-color="#e67f21"/></linearGradient><linearGradient id="o"><stop offset=".984" stop-color="#ffba25"/><stop offset="1" stop-color="#e67f21"/></linearGradient><linearGradient id="n"><stop offset=".987" stop-color="#ffba25"/><stop offset="1" stop-color="#e67f21"/></linearGradient><linearGradient id="m"><stop offset=".985" stop-color="#ffba25"/><stop offset="1" stop-color="#e67f21"/></linearGradient><linearGradient id="l"><stop offset=".989" stop-color="#ffba25"/><stop offset="1" stop-color="#e67f21"/></linearGradient><linearGradient id="k"><stop offset=".99" stop-color="#ffba25"/><stop offset="1" stop-color="#e67f21"/></linearGradient><linearGradient id="j"><stop offset=".987" stop-color="#ffba25"/><stop offset="1" stop-color="#e67f21"/></linearGradient><linearGradient id="i"><stop offset=".972" stop-color="#ffba25"/><stop offset="1" stop-color="#e67f21"/></linearGradient><linearGradient id="h"><stop offset=".969" stop-color="#ffba25"/><stop offset="1" stop-color="#e67f21"/></linearGradient><linearGradient id="g"><stop offset=".988" stop-color="#ffba25"/><stop offset="1" stop-color="#e67f21"/></linearGradient><linearGradient id="f"><stop offset="0" stop-color="#a36d35"/><stop offset="1" stop-color="#3f1d00"/></linearGradient><linearGradient id="e"><stop offset="0" stop-color="#835325"/><stop offset="1" stop-color="#3b2d20"/></linearGradient><linearGradient id="d"><stop offset="0" stop-color="#764b1f"/><stop offset="1" stop-color="#341b00"/></linearGradient><linearGradient id="a"><stop offset="0" stop-color="#4c4c4c"/><stop offset="1" stop-color="#0d0d0d"/></linearGradient><linearGradient id="c"><stop offset="0" stop-color="#ff3705"/><stop offset=".522" stop-color="#f4da01"/><stop offset="1" stop-color="#f0e600"/></linearGradient><linearGradient xlink:href="#a" id="r" x1="5.83" x2="12.91" y1="6.7" y2="13.2" gradientUnits="userSpaceOnUse"/><linearGradient xlink:href="#d" id="C" x1="52.799" y1="6.447" x2="58.353" y2="12.058" gradientUnits="userSpaceOnUse" gradientTransform="translate(-38.433 7.798)scale(1.05155)"/><linearGradient xlink:href="#e" id="u" x1="52.971" y1="6.577" x2="57.615" y2="11.781" gradientUnits="userSpaceOnUse" gradientTransform="translate(-36.868 19.905)scale(1.10317)"/><linearGradient xlink:href="#f" id="w" x1="52.506" y1="6.75" x2="57.952" y2="11.51" gradientUnits="userSpaceOnUse" gradientTransform="translate(-34.97 12.438)scale(1.14534)"/><radialGradient xlink:href="#c" id="q" cx="7.772" cy="8.085" r="6.59" fx="7.772" fy="8.085" gradientTransform="matrix(.9 .5558 -.5314 .8606 5.08 -2.85)" gradientUnits="userSpaceOnUse"/><radialGradient xlink:href="#g" id="v" cx="27.084" cy="21.88" fx="27.084" fy="21.88" r="4.426" gradientUnits="userSpaceOnUse"/><radialGradient xlink:href="#h" id="x" cx="33.836" cy="24.547" fx="33.836" fy="24.547" r="3.126" gradientUnits="userSpaceOnUse"/><radialGradient xlink:href="#i" id="B" cx="18.444" cy="16.487" fx="18.444" fy="16.487" r="4.063" gradientUnits="userSpaceOnUse"/><radialGradient xlink:href="#j" id="y" cx="26.608" cy="13.6" fx="26.608" fy="13.6" r="3.357" gradientUnits="userSpaceOnUse"/><radialGradient xlink:href="#k" id="F" cx="19.198" cy="24.387" fx="19.198" fy="24.387" r="3.955" gradientUnits="userSpaceOnUse"/><radialGradient xlink:href="#l" id="t" cx="22.933" cy="29.033" fx="22.933" fy="29.033" r="4.263" gradientUnits="userSpaceOnUse"/><radialGradient xlink:href="#m" id="D" cx="11.001" cy="27.284" fx="11.001" fy="27.284" r="3.176" gradientUnits="userSpaceOnUse"/><radialGradient xlink:href="#n" id="A" cx="14.584" cy="13.404" fx="14.584" fy="13.404" r="2.605" gradientUnits="userSpaceOnUse"/><radialGradient xlink:href="#o" id="z" cx="15.022" cy="23.318" fx="15.022" fy="23.318" r="2.605" gradientUnits="userSpaceOnUse"/><radialGradient xlink:href="#p" id="E" cx="24.067" cy="34.6" fx="24.067" fy="34.6" r="2.06" gradientUnits="userSpaceOnUse"/><filter id="s" width="1" height="1" x="0" y="0" color-interpolation-filters="sRGB"><feGaussianBlur/></filter><path fill="#fffdfc" d="M8.5 7.99a.37.37 0 0 1-.38.37.37.37 0 0 1-.37-.37.37.37 0 0 1 .37-.38.37.37 0 0 1 .37.37" id="reuse-0"/></defs><path fill="url(#q)" fill-rule="evenodd" stroke="url(#r)" stroke-width=".85" d="M13.51 5.1c.44.77-2.18 2.89-2.29 3.76-.1.88 1.95 3.55 1.36 4.2-.6.64-3.43-1.19-4.3-1.02-.86.17-2.76 2.95-3.56 2.58-.8-.36.07-3.62-.36-4.39S.69 8.51.8 7.63c.1-.87 3.47-1.05 4.06-1.7.6-.64.51-4.01 1.38-4.18.86-.18 2.07 2.97 2.87 3.34s3.97-.76 4.4 0Z" enable-background="accumulate" overflow="visible" style="marker:none" transform="matrix(2.647 2.2616 -2.267 2.6553 22.22 -16.85)"/><path fill="none" stroke="#fff" stroke-width="2.23" d="m43.15 26.6-13.29 3.06-4.27 13.9-7.3-12.51-14.12.53 9.24-11.12L8.95 7.43l13.08 5.48 11.25-8.56-1.32 14.56Z" enable-background="accumulate" overflow="visible" style="marker:none"/><use fill-rule="evenodd" filter="url(#s)" transform="rotate(36.96 26.116 22.277)scale(3.0331)" xlink:href="#reuse-0"/><circle cx="24.023" cy="30.085" r="3.711" fill="url(#t)" stroke="url(#u)" stroke-width="1.103" stroke-linecap="round" stroke-linejoin="round" paint-order="markers stroke fill"/><use fill-rule="evenodd" filter="url(#s)" transform="rotate(36.96 18.178 22.994)scale(3.13055)" xlink:href="#reuse-0"/><circle cx="28.249" cy="23.007" r="3.853" fill="url(#v)" stroke="url(#w)" stroke-width="1.145" stroke-linecap="round" stroke-linejoin="round" paint-order="markers stroke fill"/><use fill-rule="evenodd" filter="url(#s)" transform="rotate(36.96 47.007 17.055)scale(4.11044)" xlink:href="#reuse-0"/><circle cx="34.588" cy="25.148" r="2.722" fill="url(#x)" stroke="#4e3014" stroke-width=".809" stroke-linecap="round" stroke-linejoin="round" paint-order="markers stroke fill"/><use fill-rule="evenodd" filter="url(#s)" transform="rotate(36.96 28.734 37.723)scale(3.00433)" style="mix-blend-mode:normal" xlink:href="#reuse-0"/><circle cx="27.66" cy="14.389" r="2.922" fill="url(#y)" stroke="#682f00" stroke-width=".869" stroke-linecap="round" stroke-linejoin="round" paint-order="markers stroke fill"/><use fill-rule="evenodd" filter="url(#s)" transform="rotate(36.96 43.765 20.612)scale(3.14496)" xlink:href="#reuse-0"/><circle cx="15.699" cy="23.995" r="2.268" fill="url(#z)" stroke="#682f00" stroke-width=".674" stroke-linecap="round" stroke-linejoin="round" paint-order="markers stroke fill"/><use fill-rule="evenodd" filter="url(#s)" transform="rotate(36.96 12.172 13.661)scale(2.44975)" xlink:href="#reuse-0"/><circle cx="15.298" cy="14.118" r="2.268" fill="url(#A)" stroke="#682f00" stroke-width=".674" stroke-linecap="round" stroke-linejoin="round" paint-order="markers stroke fill"/><use fill-rule="evenodd" filter="url(#s)" transform="rotate(36.96 27.988 7.633)scale(2.52131)" xlink:href="#reuse-0"/><circle cx="19.609" cy="17.501" r="3.537" fill="url(#B)" stroke="url(#C)" stroke-width="1.052" stroke-linecap="round" stroke-linejoin="round" paint-order="markers stroke fill"/><use fill-rule="evenodd" filter="url(#s)" transform="rotate(36.96 42.57 5.767)scale(3.59232)" xlink:href="#reuse-0"/><circle cx="11.753" cy="28.073" r="2.765" fill="url(#D)" stroke="#682f00" stroke-width=".822" stroke-linecap="round" stroke-linejoin="round" paint-order="markers stroke fill"/><use fill-rule="evenodd" filter="url(#s)" transform="rotate(36.96 13.886 4.444)scale(3.0663)" style="mix-blend-mode:normal" xlink:href="#reuse-0"/><circle cx="24.593" cy="35.164" r="1.793" fill="url(#E)" stroke="#682f00" stroke-width=".533" stroke-linecap="round" stroke-linejoin="round" paint-order="markers stroke fill"/><use fill-rule="evenodd" filter="url(#s)" transform="rotate(36.96 -10.756 38.307)scale(1.79902)" xlink:href="#reuse-0"/><circle cx="20.213" cy="25.402" r="3.443" fill="url(#F)" stroke="#583418" stroke-width="1.024" stroke-linecap="round" stroke-linejoin="round" paint-order="markers stroke fill"/><use fill-rule="evenodd" filter="url(#s)" transform="rotate(36.96 29.883 11.43)scale(3.5118)" style="mix-blend-mode:normal" xlink:href="#reuse-0"/></svg>