<svg width="48" height="48" xmlns:xlink="http://www.w3.org/1999/xlink" xmlns="http://www.w3.org/2000/svg"><defs><linearGradient id="a"><stop offset="0" stop-color="#d3d7cf"/><stop offset="1" stop-color="#fff"/></linearGradient><linearGradient xlink:href="#a" id="e" x1="23.201" y1="3.505" x2="22.741" y2="26.46" gradientUnits="userSpaceOnUse" gradientTransform="matrix(1.573 0 0 1.73278 -19.974 -2.401)"/><linearGradient xlink:href="#d" id="f" x1="7.598" y1="7.681" x2="12.404" y2="12.336" gradientUnits="userSpaceOnUse" gradientTransform="matrix(1.12453 -.29235 .29238 1.1244 47.126 26.974)"/><linearGradient id="d"><stop offset="0" stop-color="#eeeeec"/><stop offset="1" stop-color="#d2d2cc"/></linearGradient></defs><path style="marker:none" d="M.807 1.15v30.398H12.99l-3.86 15.241 25.286-15.241h12.782V1.15Z" color="#000" overflow="visible" fill="url(#e)" fill-rule="evenodd" stroke="#2e3436" stroke-width="1.542" stroke-linejoin="round"/><path style="marker:none" d="M2.085 2.191v27.94h12.174l-2.946 13.847L33.93 30.13h11.913V2.191Z" color="#000" overflow="visible" fill="none" stroke="#fff" stroke-width="1.028" stroke-miterlimit="6"/><text xml:space="preserve" style="line-height:0%;-inkscape-font-specification:Tahoma;text-align:start" x="4.052" y="11.815" font-weight="400" font-size="15.608" font-family="Tahoma" letter-spacing="0" word-spacing="0" stroke-width="1.301"><tspan x="4.052" y="11.815" style="line-height:1.25"> </tspan></text><path style="line-height:1.25;-inkscape-font-specification:&quot;Gill Sans Ultra Bold, Normal&quot;;font-variant-ligatures:normal;font-variant-position:normal;font-variant-caps:normal;font-variant-numeric:normal;font-variant-alternates:normal;font-variant-east-asian:normal;font-feature-settings:normal;font-variation-settings:normal;text-indent:0;text-align:start;text-decoration-line:none;text-decoration-style:solid;text-decoration-color:#000;text-transform:none;text-orientation:mixed;white-space:normal;shape-padding:0;shape-margin:0;inline-size:0;isolation:auto;mix-blend-mode:normal;solid-color:#000;solid-opacity:1" d="M17.64 20.46a8 8 0 0 0-.305.618l.004 6.968 1.148-.002h1.54c-.994-1.414-1.267-3.197-.919-4.856z" opacity=".7" fill="#1858d9"/><path style="line-height:1.25;-inkscape-font-specification:&quot;Gill Sans Ultra Bold, Normal&quot;;font-variant-ligatures:normal;font-variant-position:normal;font-variant-caps:normal;font-variant-numeric:normal;font-variant-alternates:normal;font-variant-east-asian:normal;font-feature-settings:normal;font-variation-settings:normal;text-indent:0;text-align:start;text-decoration-line:none;text-decoration-style:solid;text-decoration-color:#000;text-transform:none;text-orientation:mixed;white-space:normal;shape-padding:0;shape-margin:0;inline-size:0;isolation:auto;mix-blend-mode:normal;solid-color:#000;solid-opacity:1" d="M25.469 20.702c-2.228.137-4.175 2.36-3.696 4.619.24 1.237 1.191 2.42 2.44 2.714l2.102.007c.464-.172 1.454-.747 1.507-1.441v-3.042c-.905-1.645-3.152-1.502-4.177-.256-1.015 1.402-.137 3.368 1.194 3.584.922.15 1.57-.097 1.991-.645.464-.636.505-1.354.19-1.927-.461-1.121-2.56-1.272-2.718.327.046.807.752 1.455 1.151 1.244.601-.128.483-.845.103-1.027-.446-.215-.575.046-.614-.278-.057-.439.332-.652 1.049-.499 1.024.524.653 1.94-.242 2.193a1.42 1.42 0 0 1-1.545-.454c-.414-.496-.392-1.27-.211-1.756.556-1.165 2.394-1.382 3.168-.259 1.055 1.246.123 3.307-1.443 3.527-1.727.378-3.356-1.41-2.97-3.097.3-1.88 2.685-2.767 4.31-2.081.34.124.65.324.78.42v-.569l.002-.696c-.172-.137-.346-.239-.694-.374a4.1 4.1 0 0 0-1.228-.232q-.225-.015-.45-.002z" fill="#1858d9"/><path style="line-height:1.25;-inkscape-font-specification:&quot;Gill Sans Ultra Bold, Normal&quot;;font-variant-ligatures:normal;font-variant-position:normal;font-variant-caps:normal;font-variant-numeric:normal;font-variant-alternates:normal;font-variant-east-asian:normal;font-feature-settings:normal;font-variation-settings:normal;text-indent:0;text-align:start;text-decoration-line:none;text-decoration-style:solid;text-decoration-color:#000;text-transform:none;text-orientation:mixed;white-space:normal;shape-padding:0;shape-margin:0;inline-size:0;isolation:auto;mix-blend-mode:normal;solid-color:#000;solid-opacity:1" d="M27.823 27.298s-.276.285-.53.45c-.278.171-.546.29-.546.29l1.081-.003z" opacity=".7" fill="#1858d9"/><path fill="#1858d9" d="M25.539 18.353c-2.377.107-4.595 1.703-5.532 3.868l-.109 2.44-.341-.637q-.009.061-.015.125a5.75 5.75 0 0 0 1.187 3.895h2.133c-1.906-1.315-2.29-4.221-.853-6.021 1.272-1.788 3.86-2.448 5.818-1.472.264-.007.745-.01 1.098-.014H30.8c-1.196-1.283-2.887-2.112-4.65-2.177a6 6 0 0 0-.609-.007z" color="#000" font-family="'Gill Sans Ultra Bold'" font-size="44.68" font-weight="400" letter-spacing="0" overflow="visible" paint-order="markers stroke fill" style="line-height:1.25;-inkscape-font-specification:&quot;Gill Sans Ultra Bold, Normal&quot;;font-variant-ligatures:normal;font-variant-position:normal;font-variant-caps:normal;font-variant-numeric:normal;font-variant-alternates:normal;font-variant-east-asian:normal;font-feature-settings:normal;font-variation-settings:normal;text-indent:0;text-align:start;text-decoration-line:none;text-decoration-style:solid;text-decoration-color:#000;text-transform:none;text-orientation:mixed;white-space:normal;shape-padding:0;shape-margin:0;inline-size:0;isolation:auto;mix-blend-mode:normal;solid-color:#000;solid-opacity:1" word-spacing="0"/><path fill="#1858d9" d="M25.74 15.766a10 10 0 0 0-2.616.418l3.15 1.183-6.1 1.104-.107 2.41a6 6 0 0 1 .758-.931c2.143-2.33 5.903-2.858 8.61-1.22.883.491 2.051 1.805 2.232 1.805l2.832.002c-.005-.483-.791-1.355-1.296-1.879-1.787-1.774-4.259-2.801-6.767-2.883a10 10 0 0 0-.696-.009z" color="#000" font-family="'Gill Sans Ultra Bold'" font-size="44.68" font-weight="400" letter-spacing="0" overflow="visible" paint-order="markers stroke fill" style="line-height:1.25;-inkscape-font-specification:&quot;Gill Sans Ultra Bold, Normal&quot;;font-variant-ligatures:normal;font-variant-position:normal;font-variant-caps:normal;font-variant-numeric:normal;font-variant-alternates:normal;font-variant-east-asian:normal;font-feature-settings:normal;font-variation-settings:normal;text-indent:0;text-align:start;text-decoration-line:none;text-decoration-style:solid;text-decoration-color:#000;text-transform:none;text-orientation:mixed;white-space:normal;shape-padding:0;shape-margin:0;inline-size:0;isolation:auto;mix-blend-mode:normal;solid-color:#000;solid-opacity:1" word-spacing="0" opacity=".7"/><path fill="#1858d9" d="M95.5 54.72a82.9 82.9 0 0 0-31.1 6.2l-1.8 13.3 7.33 2.76c10.63-5.1 22.72-7.1 34.44-5.04 16.14 2.51 30.88 11.95 40.46 25.1V70.7h-36.686a2.464 2.464 45 0 1-2.464-2.464V55.29a86 86 0 0 0-10.18-.57" color="#000" font-family="'Gill Sans Ultra Bold'" font-size="44.68" font-weight="400" letter-spacing="0" overflow="visible" paint-order="markers stroke fill" style="line-height:1.25;-inkscape-font-specification:&quot;Gill Sans Ultra Bold, Normal&quot;;font-variant-ligatures:normal;font-variant-position:normal;font-variant-caps:normal;font-variant-numeric:normal;font-variant-alternates:normal;font-variant-east-asian:normal;font-feature-settings:normal;font-variation-settings:normal;text-indent:0;text-align:start;text-decoration-line:none;text-decoration-style:solid;text-decoration-color:#000;text-transform:none;text-orientation:mixed;white-space:normal;shape-padding:0;shape-margin:0;inline-size:0;isolation:auto;mix-blend-mode:normal;solid-color:#000;solid-opacity:1" word-spacing="0" transform="translate(9.79 2.525)scale(.17062)" opacity=".8"/><path fill="#1858d9" d="M96.74 25.85a111.7 111.7 0 0 0-52.52 13v27.48l.08.05c.65-.54 1.32-1.05 1.99-1.56l21.2-26.6-2.12 15.64a80.6 80.6 0 0 1 40.36-5.4l.002-.287a2.72 2.72 135.197 0 1 2.721-2.702l50.037.009c-.04-1.01-7.52-6.22-12.2-8.4a114.3 114.3 0 0 0-49.55-11.23" color="#000" font-family="'Gill Sans Ultra Bold'" font-size="44.68" font-weight="400" letter-spacing="0" overflow="visible" paint-order="markers stroke fill" style="line-height:1.25;-inkscape-font-specification:&quot;Gill Sans Ultra Bold, Normal&quot;;font-variant-ligatures:normal;font-variant-position:normal;font-variant-caps:normal;font-variant-numeric:normal;font-variant-alternates:normal;font-variant-east-asian:normal;font-feature-settings:normal;font-variation-settings:normal;text-indent:0;text-align:start;text-decoration-line:none;text-decoration-style:solid;text-decoration-color:#000;text-transform:none;text-orientation:mixed;white-space:normal;shape-padding:0;shape-margin:0;inline-size:0;isolation:auto;mix-blend-mode:normal;solid-color:#000;solid-opacity:1" word-spacing="0" transform="translate(9.79 2.525)scale(.17062)" opacity=".9"/><path fill="#1858d9" d="M17.335 4.335v3.667c5.116-2.865 11.577-3.066 16.886-.597.905.41 1.776.894 2.61 1.436V4.333Z" color="#000" font-family="'Gill Sans Ultra Bold'" font-size="44.68" font-weight="400" letter-spacing="0" overflow="visible" paint-order="markers stroke fill" style="line-height:1.25;-inkscape-font-specification:&quot;Gill Sans Ultra Bold, Normal&quot;;font-variant-ligatures:normal;font-variant-position:normal;font-variant-caps:normal;font-variant-numeric:normal;font-variant-alternates:normal;font-variant-east-asian:normal;font-feature-settings:normal;font-variation-settings:normal;text-indent:0;text-align:start;text-decoration-line:none;text-decoration-style:solid;text-decoration-color:#000;text-transform:none;text-orientation:mixed;white-space:normal;shape-padding:0;shape-margin:0;inline-size:0;isolation:auto;mix-blend-mode:normal;solid-color:#000;solid-opacity:1" word-spacing="0"/><path fill="none" stroke="#fff" stroke-linecap="round" stroke-linejoin="round" stroke-width=".895" d="M16.894 13.473V3.886h19.525v6.866h-8.152v3.385h6.68v6.845h-6.644v7.526H16.967Z"/><path fill="#fff" stroke="#000" stroke-width=".047" d="m12.306 11.544 5.13 2.354 3.694-4.593-.594 5.856 5.627 2.163-5.971 1.263-.308 5.628-2.927-4.958-5.818 1.551 4.094-4.385z"/><path fill="#1858d9" fill-rule="evenodd" d="M69.246 32.739 44.26 64.08 7.974 46.578a.506.506 131.166 0 0-.643.735L29.52 80.94 1.598 110.138a.47.47 59.139 0 0 .465.778L41 100.16l19.118 35.57a.479.479 167.158 0 0 .9-.205L62.83 95.18l39.73-7.189a.481.481 95.136 0 0 .084-.924L97.31 85.07l-32.47-12.2 5.404-39.704a.563.563 23.157 0 0-.998-.427M64.46 45.32l-4.11 30.25 28.58 10.72-30.04 5.44-1.36 30.5-14.46-26.9-29.43 8.13 21.1-22.05-16.8-25.48L45.42 69.2Z" color="#000" font-family="sans-serif" font-weight="400" overflow="visible" style="line-height:normal;font-variant-ligatures:normal;font-variant-position:normal;font-variant-caps:normal;font-variant-numeric:normal;font-variant-alternates:normal;font-variant-east-asian:normal;font-feature-settings:normal;font-variation-settings:normal;text-indent:0;text-align:start;text-decoration-line:none;text-decoration-style:solid;text-decoration-color:#000;text-transform:none;text-orientation:mixed;white-space:normal;shape-padding:0;shape-margin:0;inline-size:0;isolation:auto;mix-blend-mode:normal;solid-color:#000;solid-opacity:1" transform="translate(9.79 2.525)scale(.17062)"/><path fill="#fff" fill-rule="evenodd" d="M25.684 25.287a.183.183 0 0 1-.183.182.183.183 0 0 1-.182-.182.183.183 0 0 1 .182-.183.183.183 0 0 1 .183.183"/><ellipse ry="7.464" rx="7.418" cy="40.225" cx="40.268" style="marker:none" color="#000" overflow="visible" stroke="#fff" stroke-width=".608"/><g color="#000"><path style="marker:none" d="M60.644 33.586a2.176 2.176 0 1 1-4.21 1.095 2.176 2.176 0 0 1 4.21-1.095zM56.64 26.83a1.255 1.255 0 0 0-.9 1.533l.514 1.978c-.045.235-.07.448-.186.536-.092.07-.254.073-.428.07l-1.918-1.125a1.28 1.28 0 0 0-1.75.455 1.28 1.28 0 0 0 .455 1.75l1.87 1.097c.104.168.173.321.156.447s-.117.259-.263.393l-2.054.534a1.255 1.255 0 0 0-.901 1.534c.175.675.86 1.076 1.534.901l1.978-.514c.235.044.448.07.536.185.07.093.072.254.07.429l-1.126 1.917a1.28 1.28 0 0 0 .455 1.75 1.28 1.28 0 0 0 1.75-.455l1.098-1.87c.168-.104.321-.173.447-.156s.259.117.393.263l.535 2.054c.175.675.86 1.076 1.534.9a1.255 1.255 0 0 0 .9-1.533l-.514-1.978c.044-.235.07-.447.186-.536.092-.07.254-.072.428-.07l1.917 1.126a1.28 1.28 0 0 0 1.75-.455 1.28 1.28 0 0 0-.455-1.75l-1.869-1.098c-.104-.167-.174-.32-.157-.446.017-.127.118-.26.264-.394l2.054-.534a1.255 1.255 0 0 0 .9-1.534 1.255 1.255 0 0 0-1.533-.9l-1.978.514c-.235-.044-.448-.07-.536-.186-.07-.092-.073-.254-.07-.428l1.125-1.917a1.28 1.28 0 0 0-.455-1.75 1.28 1.28 0 0 0-1.75.455l-1.098 1.87c-.167.103-.32.173-.446.156-.127-.017-.26-.118-.394-.263l-.534-2.055a1.255 1.255 0 0 0-1.534-.9z" overflow="visible" fill="none" stroke="#000" stroke-width=".859" transform="matrix(.70607 0 0 .71045 -.92 16.207)"/><path d="M60.479 33.088a2.176 2.176 0 1 1-4.211 1.095 2.176 2.176 0 0 1 4.21-1.095zm-4.005-6.756a1.255 1.255 0 0 0-.901 1.534l.514 1.978c-.044.234-.07.447-.185.535-.093.07-.254.073-.429.071l-1.917-1.126a1.28 1.28 0 0 0-1.75.455 1.28 1.28 0 0 0 .455 1.75l1.87 1.098c.103.167.173.32.156.446s-.118.26-.263.394L51.969 34a1.255 1.255 0 0 0-.9 1.533c.175.675.859 1.077 1.533.901l1.979-.514c.234.044.447.07.535.186.07.092.073.253.071.428l-1.126 1.917a1.28 1.28 0 0 0 .455 1.75 1.28 1.28 0 0 0 1.75-.455l1.098-1.87c.167-.103.32-.173.447-.156.126.017.258.118.393.263l.534 2.054c.175.675.86 1.076 1.534.901a1.255 1.255 0 0 0 .9-1.534l-.513-1.978c.044-.234.07-.447.185-.535.093-.07.254-.073.429-.071l1.917 1.126a1.28 1.28 0 0 0 1.75-.455 1.28 1.28 0 0 0-.455-1.75l-1.87-1.098c-.104-.167-.173-.32-.156-.446.017-.127.117-.26.263-.394l2.054-.534a1.255 1.255 0 0 0 .901-1.534 1.255 1.255 0 0 0-1.534-.9l-1.978.514c-.235-.044-.447-.07-.536-.186-.07-.092-.072-.253-.07-.428l1.126-1.917a1.28 1.28 0 0 0-.455-1.75 1.28 1.28 0 0 0-1.75.455l-1.098 1.87c-.168.103-.321.173-.447.156s-.259-.118-.393-.263l-.534-2.054a1.255 1.255 0 0 0-1.534-.901z" style="marker:none" overflow="visible" fill="url(#f)" fill-rule="evenodd" stroke="#888a85" stroke-width=".429" transform="matrix(.70607 0 0 .71045 -.92 16.207)"/></g></svg>