<?xml version="1.0" encoding="UTF-8" standalone="no"?><svg width="48" height="48" sodipodi:docname="iconStarSwapRedCopyPasteFFSVG.svg" inkscape:version="1.3.2 (091e20e, 2023-11-25, custom)" xmlns:inkscape="http://www.inkscape.org/namespaces/inkscape" xmlns:sodipodi="http://sodipodi.sourceforge.net/DTD/sodipodi-0.dtd" xmlns:xlink="http://www.w3.org/1999/xlink" xmlns="http://www.w3.org/2000/svg"><sodipodi:namedview pagecolor="#505050" bordercolor="#ffffff" borderopacity="1" inkscape:showpageshadow="0" inkscape:pageopacity="0" inkscape:pagecheckerboard="1" inkscape:deskcolor="#505050" inkscape:zoom="18.813" inkscape:cx="23.256" inkscape:cy="27.216" inkscape:window-width="3840" inkscape:window-height="2126" inkscape:window-x="-11" inkscape:window-y="-11" inkscape:window-maximized="1" inkscape:current-layer="svg6"/><defs><linearGradient id="h" inkscape:collect="always"><stop style="stop-color:#ffdb08;stop-opacity:1" offset="0"/><stop style="stop-color:#998300;stop-opacity:1" offset="1"/></linearGradient><linearGradient id="g" inkscape:collect="always"><stop style="stop-color:#08acff;stop-opacity:1" offset="0"/><stop style="stop-color:#069;stop-opacity:1" offset="1"/></linearGradient><linearGradient id="f" inkscape:collect="always"><stop style="stop-color:#1fff05;stop-opacity:1" offset="0"/><stop style="stop-color:#109900;stop-opacity:1" offset="1"/></linearGradient><linearGradient id="e" inkscape:collect="always"><stop style="stop-color:#ff1404;stop-opacity:1" offset="0"/><stop style="stop-color:#861d15;stop-opacity:1" offset="1"/></linearGradient><linearGradient id="c" inkscape:collect="always"><stop style="stop-color:#4d4d4d;stop-opacity:1" offset="0"/><stop style="stop-color:#2c2c2c;stop-opacity:1" offset="1"/></linearGradient><linearGradient id="a"><stop offset="0" stop-color="#4c4c4c"/><stop offset="1" stop-color="#0d0d0d"/></linearGradient><linearGradient id="b"><stop offset="0" stop-color="#ff655c"/><stop offset="1" stop-color="#c30d00"/></linearGradient><linearGradient xlink:href="#a" id="m" x1="5.83" x2="12.91" y1="6.7" y2="13.2" gradientUnits="userSpaceOnUse"/><radialGradient xlink:href="#b" id="l" cx="7.18" cy="8.2" r="6.59" fx="7.18" fy="8.2" gradientTransform="matrix(.9 .5558 -.5314 .8606 5.08 -2.85)" gradientUnits="userSpaceOnUse"/><filter id="o" width="1.832" height="1.832" x="-.416" y="-.416" color-interpolation-filters="sRGB"><feGaussianBlur stdDeviation=".13"/></filter><linearGradient inkscape:collect="always" xlink:href="#c" id="p" x1="25.47" y1="24.208" x2="45.783" y2="38.346" gradientUnits="userSpaceOnUse"/><radialGradient xlink:href="#d" id="u" cx="7.18" cy="8.2" r="6.59" fx="7.18" fy="8.2" gradientTransform="matrix(.9 .5558 -.5314 .8606 5.08 -2.85)" gradientUnits="userSpaceOnUse"/><linearGradient id="d"><stop offset="0" stop-color="#ffeabe" style="stop-color:#ff8f05;stop-opacity:1"/><stop offset=".522" stop-color="#ffeabe" style="stop-color:#fee30b;stop-opacity:1"/><stop offset="1" stop-color="#434343" style="stop-color:#fff;stop-opacity:1"/></linearGradient><filter id="v" width="1.832" height="1.832" x="-.416" y="-.416" color-interpolation-filters="sRGB"><feGaussianBlur stdDeviation=".13"/></filter><linearGradient inkscape:collect="always" xlink:href="#e" id="q" x1="28.395" y1="20.758" x2="32.894" y2="25.368" gradientUnits="userSpaceOnUse"/><linearGradient inkscape:collect="always" xlink:href="#f" id="r" x1="28.395" y1="27.368" x2="32.894" y2="31.977" gradientUnits="userSpaceOnUse"/><linearGradient inkscape:collect="always" xlink:href="#g" id="s" x1="28.395" y1="33.894" x2="32.894" y2="38.503" gradientUnits="userSpaceOnUse"/><linearGradient inkscape:collect="always" xlink:href="#h" id="t" x1="28.395" y1="40.503" x2="32.894" y2="45.112" gradientUnits="userSpaceOnUse"/><linearGradient inkscape:collect="always" xlink:href="#i" id="n" x1="7.56" y1="26.229" x2="27.435" y2="21.1" gradientUnits="userSpaceOnUse" gradientTransform="translate(37.4 9.136)"/><linearGradient id="i" inkscape:collect="always"><stop style="stop-color:#fff;stop-opacity:1" offset="0"/><stop style="stop-color:#fff;stop-opacity:0" offset="1"/></linearGradient><linearGradient id="j"><stop offset="0" stop-color="#ffeabe" style="stop-color:#ffae05;stop-opacity:0"/><stop offset=".416" stop-color="#ffeabe" style="stop-color:#7b7b7b;stop-opacity:0"/><stop offset="1" stop-color="#434343" style="stop-color:#cecece;stop-opacity:1"/></linearGradient><linearGradient id="k"><stop offset="0" stop-color="#4c4c4c" style="stop-color:#1a1a1a;stop-opacity:1"/><stop offset="1" stop-color="#0d0d0d" style="stop-color:#000;stop-opacity:1"/></linearGradient></defs><g inkscape:label="star"><path fill="url(#l)" fill-rule="evenodd" stroke="url(#m)" stroke-width=".85" d="M13.51 5.1c.44.77-2.18 2.89-2.29 3.76-.1.88 1.95 3.55 1.36 4.2-.6.64-3.43-1.19-4.3-1.02-.86.17-2.76 2.95-3.56 2.58-.8-.36.07-3.62-.36-4.39C3.93 9.46.69 8.51.8 7.63c.1-.87 3.47-1.05 4.06-1.7.6-.64.51-4.01 1.38-4.18.86-.18 2.07 2.97 2.87 3.34.8.37 3.97-.76 4.4 0z" enable-background="accumulate" overflow="visible" style="display:inline;marker:none" transform="matrix(2.647 2.2616 -2.267 2.6553 22.22 -16.85)"/><g style="display:inline" transform="translate(-22.95 -1.175) scale(.75639)"><path style="display:inline;fill:#ff8f7e;fill-opacity:1;stroke:#000;stroke-width:.5;stroke-linecap:round;stroke-linejoin:round;stroke-dasharray:none;stroke-opacity:.33000001;paint-order:markers stroke fill" d="M45.369 22.254s4.059 3.42 10.186 4.548c6.126 1.127 14.922-4.51 16.312-5.263 1.391-.751.076 4.173.076 4.173s-7.142 4.435-15.11 2.931c-7.969-1.503-11.427-5.224-11.427-5.224z" inkscape:label="band03"/><path style="display:inline;fill:#fc5737;fill-opacity:1;stroke:#000;stroke-width:.5;stroke-linecap:round;stroke-linejoin:round;stroke-dasharray:none;stroke-opacity:.33000001;paint-order:markers stroke fill" d="M47.924 29.846s9.097 1.955 13.832 6.014c4.736 4.06 6.428 7.856 6.428 7.856l-.977 2.518s-4.058-8.852-10.262-10.261c-9.434-2.143-16.237 3.27-16.237 3.27z" sodipodi:nodetypes="csccscc" inkscape:label="band02_body"/><path style="display:inline;fill:url(#n);fill-opacity:1;stroke:none;stroke-width:1;stroke-linecap:round;stroke-linejoin:round;stroke-dasharray:none;stroke-opacity:1;paint-order:markers stroke fill" d="M44.921 33.275s11.222-.358 15.958 3.701c4.736 4.06 6.508 7.856 6.508 7.856l-.18 1.402s-4.058-8.852-10.262-10.261c-9.434-2.143-16.237 3.27-16.237 3.27z" sodipodi:nodetypes="csccscc" inkscape:label="band02_light"/><path style="display:inline;fill:#fd5842;fill-opacity:1;stroke:#000;stroke-width:.5;stroke-linecap:round;stroke-linejoin:round;stroke-dasharray:none;stroke-opacity:.33000001;paint-order:markers stroke fill" d="M61.343 17.405s2.957 10.39 7.33 15.147c4.284 4.661 7.216 6.916 7.216 6.916l8.833-3.458s-13.832-2.368-17.966-9.208c-3.898-6.448-2.895-11.39-2.895-11.39z" sodipodi:nodetypes="csccscc" inkscape:label="band01_body"/></g><path fill="none" stroke="#fff" stroke-linejoin="round" stroke-width="2.23" d="m43.15 26.6-13.29 3.06-4.27 13.9-7.3-12.51-14.12.53 9.24-11.12L8.95 7.43l13.08 5.48 11.25-8.56-1.32 14.56Z" enable-background="accumulate" overflow="visible" style="display:inline;marker:none"/><path fill="#fffdfc" fill-rule="evenodd" d="M8.5 7.99a.37.37 0 0 1-.38.37.37.37 0 0 1-.37-.37.37.37 0 0 1 .37-.38.37.37 0 0 1 .37.37" filter="url(#o)" transform="rotate(36.96 28.44 21) scale(3.0331)" style="display:inline"/></g><g inkscape:label="box"><path style="fill:#fff;fill-opacity:1;stroke:url(#p);stroke-width:2;stroke-linecap:round;stroke-dasharray:none;stroke-opacity:1;paint-order:markers stroke fill" inkscape:path-effect="#path-effect6" sodipodi:type="rect" d="M28.278 19.196h13.796a2.708 2.708 45 0 1 2.709 2.708v21.824a2.551 2.551 135 0 1-2.552 2.551h-13.6a2.72 2.72 45 0 1-2.719-2.719V21.562a2.365 2.365 135 0 1 2.366-2.366z"/><path style="fill:#ff1404;fill-opacity:1;stroke:url(#q);stroke-width:2;stroke-linecap:round;stroke-linejoin:round;stroke-dasharray:none;stroke-opacity:1;paint-order:markers stroke fill" inkscape:path-effect="#path-effect1" sodipodi:type="rect" d="M29.685 21.758h1.901a.307.307 45 0 1 .308.308v1.985a.316.316 135 0 1-.317.317h-1.814a.368.368 45 0 1-.368-.368v-1.952a.29.29 135 0 1 .29-.29z" transform="translate(0 -.413)"/><path style="fill:#1fff05;fill-opacity:1;stroke:url(#r);stroke-width:2;stroke-linecap:round;stroke-linejoin:round;stroke-dasharray:none;paint-order:markers stroke fill" inkscape:path-effect="#path-effect2" sodipodi:type="rect" d="M29.698 28.368h1.862a.334.334 45 0 1 .334.334v1.958a.316.316 135 0 1-.317.317h-1.834a.347.347 45 0 1-.348-.348v-1.958a.303.303 135 0 1 .303-.303z" transform="translate(0 -.752)"/><path style="fill:#08acff;fill-opacity:1;stroke:url(#s);stroke-width:2;stroke-linecap:round;stroke-linejoin:round;stroke-dasharray:none;paint-order:markers stroke fill" inkscape:path-effect="#path-effect3" sodipodi:type="rect" d="M29.725 34.894h1.855a.314.314 45 0 1 .314.314v1.972a.323.323 135 0 1-.323.323h-1.828a.347.347 45 0 1-.348-.348v-1.932a.33.33 135 0 1 .33-.33z" transform="translate(0 -.752)"/><path style="fill:#000;fill-opacity:1;stroke:none;stroke-width:1;stroke-linecap:round;stroke-linejoin:round;stroke-dasharray:none;stroke-opacity:1;paint-order:markers stroke fill" d="M35.022 22.486h7.713v.601h-7.713zM35.022 28.642h7.713v.601h-7.713zM35.022 35.127h7.713v.601h-7.713zM35.022 42.415h7.713v.601h-7.713z"/></g><g transform="translate(27.337 39.175) scale(.14133)" style="display:inline"><path fill="url(#l)" fill-rule="evenodd" stroke="url(#m)" stroke-width=".85" d="M13.51 5.1c.44.77-2.18 2.89-2.29 3.76-.1.88 1.95 3.55 1.36 4.2-.6.64-3.43-1.19-4.3-1.02-.86.17-2.76 2.95-3.56 2.58-.8-.36.07-3.62-.36-4.39C3.93 9.46.69 8.51.8 7.63c.1-.87 3.47-1.05 4.06-1.7.6-.64.51-4.01 1.38-4.18.86-.18 2.07 2.97 2.87 3.34.8.37 3.97-.76 4.4 0z" enable-background="accumulate" overflow="visible" style="fill:url(#u);stroke:url(#linearGradient1);marker:none" transform="matrix(2.647 2.2616 -2.267 2.6553 22.22 -16.85)"/><path fill="none" stroke="#fff" stroke-linejoin="round" stroke-width="2.23" d="m43.15 26.6-13.29 3.06-4.27 13.9-7.3-12.51-14.12.53 9.24-11.12L8.95 7.43l13.08 5.48 11.25-8.56-1.32 14.56Z" enable-background="accumulate" overflow="visible" style="marker:none"/><path fill="#fffdfc" fill-rule="evenodd" d="M8.5 7.99a.37.37 0 0 1-.38.37.37.37 0 0 1-.37-.37.37.37 0 0 1 .37-.38.37.37 0 0 1 .37.37" filter="url(#o)" transform="rotate(36.96 28.44 21) scale(3.0331)" style="filter:url(#v)"/></g></svg>