<svg width="600" height="600" viewBox="0 0 158.75 158.751" xmlns="http://www.w3.org/2000/svg"><defs><linearGradient id="r"><stop offset="0" stop-color="#9db6ff"/><stop offset="1" stop-color="#9db6ff" stop-opacity=".49"/></linearGradient><linearGradient id="q"><stop offset="0" stop-color="#abffe6"/><stop offset="1" stop-color="#81ffda" stop-opacity=".51"/></linearGradient><linearGradient id="p"><stop offset="0" stop-color="#ffe9a8"/><stop offset="1" stop-color="#ffe28d" stop-opacity=".49"/></linearGradient><linearGradient id="o"><stop offset="0" stop-color="#ffb4b4"/><stop offset="1" stop-color="#ff9797" stop-opacity=".5"/></linearGradient><linearGradient id="n"><stop offset="0" stop-color="#ffaeef"/><stop offset="1" stop-color="#ff81e7" stop-opacity=".46"/></linearGradient><linearGradient id="m"><stop offset="0" stop-color="#ffd887"/><stop offset="1" stop-color="#ffd378" stop-opacity=".5"/></linearGradient><linearGradient id="l"><stop offset="0" stop-color="#fff3a5"/><stop offset="1" stop-color="#fff3a5" stop-opacity=".48"/></linearGradient><linearGradient id="k"><stop offset="0" stop-color="#85ffe6"/><stop offset="1" stop-color="#85ffe6" stop-opacity=".48"/></linearGradient><linearGradient id="j"><stop offset="0" stop-color="#c9ffd4"/><stop offset="1" stop-color="#a9ffba" stop-opacity=".5"/></linearGradient><linearGradient id="i"><stop offset="0" stop-color="#0f0"/><stop offset="1" stop-color="#0f0" stop-opacity="0"/></linearGradient><linearGradient id="h"><stop offset="0" stop-color="#00ffd0"/><stop offset="1" stop-color="#00ffd0" stop-opacity="0"/></linearGradient><linearGradient id="g"><stop offset="0" stop-color="#ffe600"/><stop offset="1" stop-color="#ffe600" stop-opacity="0"/></linearGradient><linearGradient id="f"><stop offset="0" stop-color="#ff00eb"/><stop offset="1" stop-color="#ff00eb" stop-opacity="0"/></linearGradient><linearGradient id="e"><stop offset="0" stop-color="#ffa425"/><stop offset="1" stop-color="#ffa425" stop-opacity="0"/></linearGradient><linearGradient id="d"><stop offset="0" stop-color="#00f"/><stop offset="1" stop-color="#00f" stop-opacity="0"/></linearGradient><linearGradient id="c"><stop offset="0" stop-color="#00ffac"/><stop offset="1" stop-color="#00ffac" stop-opacity="0"/></linearGradient><linearGradient id="b"><stop offset="0" stop-color="#ffeb00"/><stop offset="1" stop-color="#ffeb00" stop-opacity="0"/></linearGradient><linearGradient id="a"><stop offset="0" stop-color="red"/><stop offset="1" stop-color="red" stop-opacity="0"/></linearGradient></defs><path style="line-height:1.25;-inkscape-font-specification:&quot;Gill Sans Ultra Bold, Normal&quot;;font-variant-ligatures:normal;font-variant-position:normal;font-variant-caps:normal;font-variant-numeric:normal;font-variant-alternates:normal;font-variant-east-asian:normal;font-feature-settings:normal;font-variation-settings:normal;text-indent:0;text-align:start;text-decoration-line:none;text-decoration-style:solid;text-decoration-color:#000;text-transform:none;text-orientation:mixed;white-space:normal;shape-padding:0;shape-margin:0;inline-size:0;isolation:auto;mix-blend-mode:normal;solid-color:#000;solid-opacity:1" d="M104.368 144.217s-1.556 1.6-2.987 2.53c-1.569.966-3.074 1.632-3.074 1.632l6.092-.012z" color="#000" font-weight="400" font-size="44.675" font-family="Gill Sans Ultra Bold" letter-spacing="0" word-spacing="0" overflow="visible" fill="#fff" paint-order="markers stroke fill" opacity=".8"/><path style="line-height:1.25;-inkscape-font-specification:&quot;Gill Sans Ultra Bold, Normal&quot;;font-variant-ligatures:normal;font-variant-position:normal;font-variant-caps:normal;font-variant-numeric:normal;font-variant-alternates:normal;font-variant-east-asian:normal;font-feature-settings:normal;font-variation-settings:normal;text-indent:0;text-align:start;text-decoration-line:none;text-decoration-style:solid;text-decoration-color:#000;text-transform:none;text-orientation:mixed;white-space:normal;shape-padding:0;shape-margin:0;inline-size:0;isolation:auto;mix-blend-mode:normal;solid-color:#000;solid-opacity:1" d="M91.103 107.044c-12.557.77-23.523 13.297-20.822 26.023 1.356 6.976 6.715 13.64 13.741 15.3l11.855.037c2.61-.975 8.188-4.207 8.485-8.12v-17.149c-5.102-9.26-17.756-8.454-23.53-1.44-5.729 7.905-.775 18.977 6.734 20.203 5.188.847 8.842-.547 11.211-3.636 2.613-3.589 2.85-7.632 1.07-10.866-2.591-6.31-14.43-7.163-15.318 1.85.259 4.547 4.24 8.194 6.494 7.006 3.376-.717 2.717-4.761.58-5.788-2.521-1.214-3.247.258-3.475-1.565-.308-2.469 1.879-3.679 5.919-2.808 5.761 2.946 3.678 10.932-1.36 12.35-3.268 1.122-6.675-.128-8.702-2.554-2.338-2.798-2.22-7.149-1.2-9.888 3.136-6.57 13.494-7.794 17.854-1.466 5.942 7.02.692 18.633-8.132 19.87-9.726 2.132-18.91-7.943-16.74-17.452 1.696-10.59 15.14-15.59 24.29-11.731 1.927.704 3.662 1.829 4.397 2.38 0 0 .008-1.756.006-3.209l.013-3.927c-.98-.762-1.958-1.338-3.92-2.102a23.296 23.296 0 0 0-6.92-1.305 19.775 19.775 0 0 0-2.53-.013z" color="#000" font-weight="400" font-size="44.675" font-family="Gill Sans Ultra Bold" letter-spacing="0" word-spacing="0" overflow="visible" fill="#fff" paint-order="markers stroke fill"/><path style="line-height:1.25;-inkscape-font-specification:&quot;Gill Sans Ultra Bold, Normal&quot;;font-variant-ligatures:normal;font-variant-position:normal;font-variant-caps:normal;font-variant-numeric:normal;font-variant-alternates:normal;font-variant-east-asian:normal;font-feature-settings:normal;font-variation-settings:normal;text-indent:0;text-align:start;text-decoration-line:none;text-decoration-style:solid;text-decoration-color:#000;text-transform:none;text-orientation:mixed;white-space:normal;shape-padding:0;shape-margin:0;inline-size:0;isolation:auto;mix-blend-mode:normal;solid-color:#000;solid-opacity:1" d="M46.986 105.678a44.333 44.333 0 0 0-1.713 3.481l.018 39.263 6.475-.012h8.67c-5.605-7.962-7.14-18.015-5.182-27.359z" color="#000" font-weight="400" font-size="44.675" font-family="Gill Sans Ultra Bold" letter-spacing="0" word-spacing="0" overflow="visible" fill="#fff" paint-order="markers stroke fill" opacity=".1"/><path style="line-height:1.25;-inkscape-font-specification:&quot;Gill Sans Ultra Bold, Normal&quot;;font-variant-ligatures:normal;font-variant-position:normal;font-variant-caps:normal;font-variant-numeric:normal;font-variant-alternates:normal;font-variant-east-asian:normal;font-feature-settings:normal;font-variation-settings:normal;text-indent:0;text-align:start;text-decoration-line:none;text-decoration-style:solid;text-decoration-color:#000;text-transform:none;text-orientation:mixed;white-space:normal;shape-padding:0;shape-margin:0;inline-size:0;isolation:auto;mix-blend-mode:normal;solid-color:#000;solid-opacity:1" d="M91.505 93.81c-13.394.601-25.896 9.586-31.174 21.787l-.618 13.753-1.93-3.586c-.018.234-.062.463-.074.698-.567 7.81 1.893 15.765 6.685 21.948h12.028c-10.743-7.412-12.906-23.778-4.817-33.92 7.176-10.078 21.755-13.804 32.794-8.299 1.483-.044 4.198-.06 6.184-.074h10.556c-6.74-7.238-16.263-11.91-26.196-12.276a31.517 31.517 0 0 0-3.438-.03z" color="#000" font-weight="400" font-size="44.675" font-family="Gill Sans Ultra Bold" letter-spacing="0" word-spacing="0" overflow="visible" fill="#fff" paint-order="markers stroke fill"/><path style="line-height:1.25;-inkscape-font-specification:&quot;Gill Sans Ultra Bold, Normal&quot;;font-variant-ligatures:normal;font-variant-position:normal;font-variant-caps:normal;font-variant-numeric:normal;font-variant-alternates:normal;font-variant-east-asian:normal;font-feature-settings:normal;font-variation-settings:normal;text-indent:0;text-align:start;text-decoration-line:none;text-decoration-style:solid;text-decoration-color:#000;text-transform:none;text-orientation:mixed;white-space:normal;shape-padding:0;shape-margin:0;inline-size:0;isolation:auto;mix-blend-mode:normal;solid-color:#000;solid-opacity:1" d="M92.63 79.235c-4.97.117-9.947.92-14.736 2.35l17.748 6.66-34.365 6.22-.612 13.587a34.271 34.271 0 0 1 4.273-5.244c12.074-13.132 33.258-16.105 48.52-6.876 4.97 2.765 11.555 10.17 12.573 10.172l15.967.013c-.034-2.73-4.47-7.64-7.322-10.594-10.058-9.988-23.988-15.785-38.125-16.239a53.578 53.578 0 0 0-3.92-.05z" color="#000" font-weight="400" font-size="44.675" font-family="Gill Sans Ultra Bold" letter-spacing="0" word-spacing="0" overflow="visible" fill="#fff" paint-order="markers stroke fill" opacity=".1"/><path style="line-height:1.25;-inkscape-font-specification:&quot;Gill Sans Ultra Bold, Normal&quot;;font-variant-ligatures:normal;font-variant-position:normal;font-variant-caps:normal;font-variant-numeric:normal;font-variant-alternates:normal;font-variant-east-asian:normal;font-feature-settings:normal;font-variation-settings:normal;text-indent:0;text-align:start;text-decoration-line:none;text-decoration-style:solid;text-decoration-color:#000;text-transform:none;text-orientation:mixed;white-space:normal;shape-padding:0;shape-margin:0;inline-size:0;isolation:auto;mix-blend-mode:normal;solid-color:#000;solid-opacity:1" d="M94.572 57.225c-10.221.02-20.428 2.1-29.894 5.968l-1.737 12.783 7.05 2.646c10.22-4.895 21.847-6.819 33.115-4.842 15.514 2.414 29.683 11.49 38.892 24.13V72.593h-37.636V57.77a82.545 82.545 0 0 0-9.79-.545z" color="#000" font-weight="400" font-size="44.675" font-family="Gill Sans Ultra Bold" letter-spacing="0" word-spacing="0" overflow="visible" fill="#fff" paint-order="markers stroke fill" opacity=".4"/><path style="line-height:1.25;-inkscape-font-specification:&quot;Gill Sans Ultra Bold, Normal&quot;;font-variant-ligatures:normal;font-variant-position:normal;font-variant-caps:normal;font-variant-numeric:normal;font-variant-alternates:normal;font-variant-east-asian:normal;font-feature-settings:normal;font-variation-settings:normal;text-indent:0;text-align:start;text-decoration-line:none;text-decoration-style:solid;text-decoration-color:#000;text-transform:none;text-orientation:mixed;white-space:normal;shape-padding:0;shape-margin:0;inline-size:0;isolation:auto;mix-blend-mode:normal;solid-color:#000;solid-opacity:1" d="M95.766 29.465c-17.513-.02-35.036 4.257-50.493 12.51v26.413l.08.043c.625-.516 1.27-1.001 1.91-1.497L67.648 41.37l-2.041 15.028c12.228-4.961 25.693-6.88 38.805-5.195l.019-2.87 50.703.013c-.04-.98-7.224-5.988-11.719-8.083-14.806-7.12-31.221-10.83-47.648-10.797Z" color="#000" font-weight="400" font-size="44.675" font-family="Gill Sans Ultra Bold" letter-spacing="0" word-spacing="0" overflow="visible" fill="#fff" paint-order="markers stroke fill" opacity=".65"/><path style="line-height:1.25;-inkscape-font-specification:&quot;Gill Sans Ultra Bold, Normal&quot;;font-variant-ligatures:normal;font-variant-position:normal;font-variant-caps:normal;font-variant-numeric:normal;font-variant-alternates:normal;font-variant-east-asian:normal;font-feature-settings:normal;font-variation-settings:normal;text-indent:0;text-align:start;text-decoration-line:none;text-decoration-style:solid;text-decoration-color:#000;text-transform:none;text-orientation:mixed;white-space:normal;shape-padding:0;shape-margin:0;inline-size:0;isolation:auto;mix-blend-mode:normal;solid-color:#000;solid-opacity:1" d="M45.273 14.821V35.47c28.823-16.14 65.23-17.281 95.148-3.37a113.08 113.08 0 0 1 14.712 8.094V14.821Z" color="#000" font-weight="400" font-size="44.675" font-family="Gill Sans Ultra Bold" letter-spacing="0" word-spacing="0" overflow="visible" fill="#fff" paint-order="markers stroke fill" opacity=".9"/><path style="line-height:normal;font-variant-ligatures:normal;font-variant-position:normal;font-variant-caps:normal;font-variant-numeric:normal;font-variant-alternates:normal;font-variant-east-asian:normal;font-feature-settings:normal;font-variation-settings:normal;text-indent:0;text-align:start;text-decoration-line:none;text-decoration-style:solid;text-decoration-color:#000;text-transform:none;text-orientation:mixed;white-space:normal;shape-padding:0;shape-margin:0;inline-size:0;isolation:auto;mix-blend-mode:normal;solid-color:#000;solid-opacity:1" d="M70.56 34.556 45.313 66.221 8.834 48.633 31.151 82.43l-28 29.255 39.037-10.776 19.175 35.666 1.81-40.452 39.85-7.214-6.694-2.51-31.222-11.72zm-5.826 13.631-3.953 29.08 27.477 10.309-28.88 5.23-1.309 29.32-13.902-25.85-28.292 7.811L36.166 82.88 20.001 58.39l26.433 12.742z" color="#000" font-weight="400" font-family="sans-serif" overflow="visible" opacity=".999" fill="#fff" fill-rule="evenodd"/><path d="M92.317 132.88a1.029 1.029 0 0 1-1.029 1.028 1.029 1.029 0 0 1-1.03-1.027 1.029 1.029 0 0 1 1.028-1.03 1.029 1.029 0 0 1 1.03 1.026" fill="#ff4f00" fill-rule="evenodd"/></svg>