<svg xmlns="http://www.w3.org/2000/svg" xmlns:xlink="http://www.w3.org/1999/xlink" width="48" height="48"><defs><linearGradient id="a"><stop offset="0" style="stop-color:#d3d7cf;stop-opacity:1"/><stop offset="1" style="stop-color:white;stop-opacity:1"/></linearGradient><linearGradient xlink:href="#a" id="j" x1="23.201" x2="22.741" y1="3.505" y2="26.46" gradientTransform="matrix(1.573 0 0 1.73278 -19.974 -2.401)" gradientUnits="userSpaceOnUse"/><linearGradient id="f"><stop offset="0" stop-color="#ffeabe" style="stop-color:#ffae05;stop-opacity:0"/><stop offset=".416" stop-color="#ffeabe" style="stop-color:#7b7b7b;stop-opacity:0"/><stop offset="1" stop-color="#434343" style="stop-color:#fff;stop-opacity:1"/></linearGradient><linearGradient xlink:href="#g" id="l" x1="5.83" x2="12.91" y1="6.7" y2="13.2" gradientUnits="userSpaceOnUse"/><linearGradient id="g"><stop offset="0" stop-color="#4c4c4c" style="stop-color:#1a1a1a;stop-opacity:1"/><stop offset="1" stop-color="#0d0d0d" style="stop-color:#000;stop-opacity:1"/></linearGradient><linearGradient id="h"><stop offset=".282" stop-color="#39bdff" style="stop-color:#f4f4f4;stop-opacity:1"/><stop offset=".436" stop-color="#39bdff" style="stop-color:#c3e4ee;stop-opacity:1"/><stop offset=".754" stop-color="#0038a0" style="stop-color:#2274ff;stop-opacity:1"/></linearGradient><linearGradient xlink:href="#i" id="n" x1="5.83" x2="12.91" y1="6.7" y2="13.2" gradientUnits="userSpaceOnUse"/><linearGradient id="i"><stop offset="0" stop-color="#4c4c4c"/><stop offset="1" stop-color="#0d0d0d"/></linearGradient><radialGradient xlink:href="#f" id="k" cx="7.18" cy="8.2" r="6.59" fx="7.18" fy="8.2" gradientTransform="matrix(.9 .5558 -.5314 .8606 5.08 -2.85)" gradientUnits="userSpaceOnUse"/><radialGradient xlink:href="#h" id="m" cx="7.18" cy="8.2" r="6.59" fx="7.18" fy="8.2" gradientTransform="matrix(.9 .5558 -.5314 .8606 5.08 -2.85)" gradientUnits="userSpaceOnUse"/><filter id="o" width="1.832" height="1.832" x="-.416" y="-.416" color-interpolation-filters="sRGB"><feGaussianBlur stdDeviation=".13"/></filter><filter id="p" width="1.832" height="1.832" x="-.416" y="-.416" color-interpolation-filters="sRGB"><feGaussianBlur stdDeviation=".13"/></filter></defs><path d="M.807 1.15v30.398H12.99l-3.86 15.241 25.286-15.241h12.782V1.15Z" style="color:#000;display:inline;overflow:visible;visibility:visible;fill:url(#j);fill-opacity:1;fill-rule:evenodd;stroke:#2e3436;stroke-width:1.54233;stroke-linecap:butt;stroke-linejoin:round;stroke-miterlimit:4;stroke-dasharray:none;stroke-dashoffset:0;stroke-opacity:1;marker:none"/><path d="M2.085 2.191v27.94h12.174l-2.946 13.847L33.93 30.13h11.913V2.191Z" style="color:#000;display:inline;overflow:visible;visibility:visible;fill:none;stroke:#fff;stroke-width:1.02822;stroke-linecap:butt;stroke-linejoin:miter;stroke-miterlimit:6;stroke-dasharray:none;stroke-dashoffset:0;stroke-opacity:1;marker:none"/><text xml:space="preserve" x="4.052" y="11.815" style="font-style:normal;font-variant:normal;font-weight:400;font-stretch:normal;font-size:15.6079px;line-height:0%;font-family:Tahoma;-inkscape-font-specification:Tahoma;text-align:start;letter-spacing:0;word-spacing:0;writing-mode:lr-tb;text-anchor:start;fill:#000;fill-opacity:1;stroke:none;stroke-width:1.30065"><tspan x="4.052" y="11.815" style="font-size:15.6079px;line-height:1.25;stroke-width:1.30065"> </tspan></text><path fill="url(#k)" fill-rule="evenodd" d="M13.51 5.1c.44.77-2.18 2.89-2.29 3.76-.1.88 1.95 3.55 1.36 4.2-.6.64-3.43-1.19-4.3-1.02-.86.17-2.76 2.95-3.56 2.58-.8-.36.07-3.62-.36-4.39S.69 8.51.8 7.63c.1-.87 3.47-1.05 4.06-1.7.6-.64.51-4.01 1.38-4.18.86-.18 2.07 2.97 2.87 3.34s3.97-.76 4.4 0z" enable-background="accumulate" overflow="visible" style="display:inline;fill:url(#m);stroke:none;stroke-width:.850138;stroke-dasharray:none;marker:none" transform="matrix(1.55036 1.32463 -1.3278 1.55522 22.914 -6.768)"/><path d="M-30.844 9.714c4.98.362 9.761-3.049 10.625-8.13a9.3 9.3 0 0 0-.128-3.705l-1.858-.147a7.5 7.5 0 0 1 .262 3.56c-.753 4.428-5.21 7.344-9.596 6.576a8.7 8.7 0 0 1-2.592-.896.875.875 0 0 0-1.184.36.875.875 0 0 0 .36 1.184c.973.519 2.025.883 3.113 1.074q.499.088.998.124m.435-3.222c3.359.153 6.563-2.196 7.028-5.673.423-3.16-1.73-6.335-5.016-6.72a5.3 5.3 0 0 0-2.09.183l-1.187 2.758A3.55 3.55 0 0 1-28.6-4.163c2.254.264 3.783 2.518 3.485 4.749-.36 2.69-3.052 4.5-5.713 4.11-2.735-.4-4.675-2.849-4.795-5.526l-1.736.257c.23 3.41 2.72 6.48 6.276 7q.338.05.674.065m.137-3.225C-28.413 3.373-26.53 2-26.54-.038a2.85 2.85 0 0 0-.747-1.913c-.478-.524-1.238-.889-2.062-.779a.875.875 0 0 0-.75.981.875.875 0 0 0 .982.753c.218-.029.367.04.537.225.17.186.29.494.291.742.005.916-.947 1.604-1.883 1.55-1.37-.078-2.34-1.459-2.212-2.827l-1.762.26c.008 2.145 1.578 4.182 3.874 4.313m6.592-8.185-1.752-3.478a8.7 8.7 0 0 0-2.191-.665 8.4 8.4 0 0 0-1.383-.108l-.772 1.798a6.6 6.6 0 0 1 1.871.037c1.708.28 3.168 1.175 4.227 2.416" style="color:#000;display:inline;fill:#0579ff;fill-opacity:1;fill-rule:evenodd;stroke-linecap:round;-inkscape-stroke:none" transform="rotate(176.253 -.544 11.106)scale(.9022)"/><path fill="url(#k)" stroke="url(#l)" stroke-width=".85" d="M13.51 5.1c.44.77-2.18 2.89-2.29 3.76-.1.88 1.95 3.55 1.36 4.2-.6.64-3.43-1.19-4.3-1.02-.86.17-2.76 2.95-3.56 2.58-.8-.36.07-3.62-.36-4.39S.69 8.51.8 7.63c.1-.87 3.47-1.05 4.06-1.7.6-.64.51-4.01 1.38-4.18.86-.18 2.07 2.97 2.87 3.34s3.97-.76 4.4 0z" enable-background="accumulate" overflow="visible" style="display:inline;fill:none;stroke:url(#n);marker:none" transform="matrix(1.55036 1.32463 -1.3278 1.55522 22.914 -6.768)"/><path fill="none" stroke="#fff" stroke-linejoin="round" stroke-width="2.23" d="m43.15 26.6-13.29 3.06-4.27 13.9-7.3-12.51-14.12.53 9.24-11.12L8.95 7.43l13.08 5.48 11.25-8.56-1.32 14.56Z" enable-background="accumulate" overflow="visible" style="display:inline;marker:none" transform="translate(9.9 3.1)scale(.5857)"/><path fill="#fffdfc" fill-rule="evenodd" d="M8.5 7.99a.37.37 0 0 1-.38.37.37.37 0 0 1-.37-.37.37.37 0 0 1 .37-.38.37.37 0 0 1 .37.37" filter="url(#o)" style="display:inline;filter:url(#p)" transform="rotate(36.96 16.968 28.66)scale(1.7765)"/></svg>