<svg xmlns="http://www.w3.org/2000/svg" xmlns:xlink="http://www.w3.org/1999/xlink" viewBox="0 0 48 48"><defs><path id="g" fill="#fffdfc" fill-rule="evenodd" d="M8.5 7.99a.37.37 0 0 1-.38.37.37.37 0 0 1-.37-.37.37.37 0 0 1 .37-.38.37.37 0 0 1 .37.37" filter="url(#a)"/></defs><defs><linearGradient id="c"><stop offset="0" stop-color="#1a1a1a"/><stop offset="1"/></linearGradient><linearGradient id="b"><stop offset="0" stop-color="#1a1a1a"/><stop offset="1"/></linearGradient><linearGradient id="d"><stop offset="0" stop-color="#ffae05" stop-opacity="0"/><stop offset=".416" stop-color="#7b7b7b" stop-opacity="0"/><stop offset="1" stop-color="#cecece"/></linearGradient><linearGradient xlink:href="#b" id="f" x1="5.83" x2="12.91" y1="6.7" y2="13.2" gradientUnits="userSpaceOnUse"/><linearGradient xlink:href="#c" id="l" x1="21.087" x2="24" y1="3.828" y2="6.609" gradientTransform="translate(-9.002 -2.188) scale(1.422)" gradientUnits="userSpaceOnUse"/><linearGradient xlink:href="#c" id="m" x1="21.087" x2="24" y1="3.828" y2="6.609" gradientTransform="translate(-23.812 -5.492) scale(1.825)" gradientUnits="userSpaceOnUse"/><linearGradient xlink:href="#c" id="n" x1="21.087" x2="24" y1="3.828" y2="6.609" gradientTransform="translate(-1.142 5.42) scale(1.9784)" gradientUnits="userSpaceOnUse"/><linearGradient xlink:href="#c" id="o" x1="21.087" x2="24" y1="3.828" y2="6.609" gradientTransform="translate(-43.335 9.314) scale(2.1854)" gradientUnits="userSpaceOnUse"/><linearGradient xlink:href="#c" id="p" x1="21.087" x2="24" y1="3.828" y2="6.609" gradientTransform="translate(-1.946 27.862) scale(1.7077)" gradientUnits="userSpaceOnUse"/><linearGradient xlink:href="#c" id="h" x1="21.087" x2="24" y1="3.828" y2="6.609" gradientTransform="translate(-19.965 27.894) scale(2.8819)" gradientUnits="userSpaceOnUse"/><linearGradient xlink:href="#c" id="i" x1="21.087" x2="24" y1="3.828" y2="6.609" gradientTransform="translate(-17.638 37.023) scale(1.5372)" gradientUnits="userSpaceOnUse"/><linearGradient xlink:href="#c" id="j" x1="21.087" x2="24" y1="3.828" y2="6.609" gradientTransform="translate(-20.532 31.127) scale(1.518)" gradientUnits="userSpaceOnUse"/><linearGradient xlink:href="#c" id="k" x1="21.087" x2="24" y1="3.828" y2="6.609" gradientTransform="matrix(3.16 0 0 3.16 -63.202 27.36)" gradientUnits="userSpaceOnUse"/><filter id="a" width="1.832" height="1.832" x="-.416" y="-.416" color-interpolation-filters="sRGB"><feGaussianBlur stdDeviation=".13"/></filter><filter id="q" width="1.726" height="1.726" x="-.363" y="-.363" color-interpolation-filters="sRGB"><feGaussianBlur stdDeviation=".113"/></filter><filter id="r" width="1.726" height="1.726" x="-.363" y="-.363" color-interpolation-filters="sRGB"><feGaussianBlur stdDeviation=".113"/></filter><filter id="s" width="1.726" height="1.726" x="-.363" y="-.363" color-interpolation-filters="sRGB"><feGaussianBlur stdDeviation=".113"/></filter><filter id="t" width="1.726" height="1.726" x="-.363" y="-.363" color-interpolation-filters="sRGB"><feGaussianBlur stdDeviation=".113"/></filter><filter id="u" width="1.726" height="1.726" x="-.363" y="-.363" color-interpolation-filters="sRGB"><feGaussianBlur stdDeviation=".113"/></filter><filter id="v" width="1.726" height="1.726" x="-.363" y="-.363" color-interpolation-filters="sRGB"><feGaussianBlur stdDeviation=".113"/></filter><filter id="w" width="1.726" height="1.726" x="-.363" y="-.363" color-interpolation-filters="sRGB"><feGaussianBlur stdDeviation=".113"/></filter><filter id="x" width="1.726" height="1.726" x="-.363" y="-.363" color-interpolation-filters="sRGB"><feGaussianBlur stdDeviation=".113"/></filter><filter id="y" width="1.726" height="1.726" x="-.363" y="-.363" color-interpolation-filters="sRGB"><feGaussianBlur stdDeviation=".113"/></filter><radialGradient xlink:href="#d" id="e" cx="7.18" cy="8.2" r="6.59" fx="7.18" fy="8.2" gradientTransform="matrix(.9 .5558 -.5314 .8606 5.08 -2.85)" gradientUnits="userSpaceOnUse"/></defs><path fill="url(#e)" fill-rule="evenodd" stroke="url(#f)" stroke-width=".85" d="M13.51 5.1c.44.77-2.18 2.89-2.29 3.76-.1.88 1.95 3.55 1.36 4.2-.6.64-3.43-1.19-4.3-1.02-.86.17-2.76 2.95-3.56 2.58-.8-.36.07-3.62-.36-4.39C3.93 9.46.69 8.51.8 7.63c.1-.87 3.47-1.05 4.06-1.7.6-.64.51-4.01 1.38-4.18.86-.18 2.07 2.97 2.87 3.34.8.37 3.97-.76 4.4 0Z" enable-background="accumulate" overflow="visible" style="marker:none" transform="matrix(2.647 2.2616 -2.267 2.6553 22.22 -16.85)"/><use xlink:href="#g" fill-rule="evenodd" filter="url(#a)" transform="rotate(36.96 28.44 21) scale(3.0331)"/><circle cx="43.554" cy="41.295" r="3.629" fill="#f10000" stroke="url(#h)" stroke-linecap="round" stroke-linejoin="round" paint-order="markers stroke fill"/><circle cx="16.243" cy="44.171" r="1.936" fill="#f10000" stroke="url(#i)" stroke-linecap="round" stroke-linejoin="round" paint-order="markers stroke fill"/><circle cx="12.926" cy="38.186" r="1.911" fill="#f10000" stroke="url(#j)" stroke-linecap="round" stroke-linejoin="round" paint-order="markers stroke fill"/><circle cx="6.449" cy="42.054" r="3.979" fill="#f10000" stroke="url(#k)" stroke-linecap="round" stroke-linejoin="round" paint-order="markers stroke fill"/><circle cx="22.342" cy="4.425" r="1.791" fill="#f10000" stroke="url(#l)" stroke-linecap="round" stroke-linejoin="round" paint-order="markers stroke fill"/><circle cx="16.411" cy="2.995" r="2.298" fill="#f10000" stroke="url(#m)" stroke-linecap="round" stroke-linejoin="round" paint-order="markers stroke fill"/><circle cx="42.464" cy="14.621" r="2.491" fill="#f10000" stroke="url(#n)" stroke-linecap="round" stroke-linejoin="round" paint-order="markers stroke fill"/><circle cx="4.832" cy="19.476" r="2.752" fill="#f10000" stroke="url(#o)" stroke-linecap="round" stroke-linejoin="round" paint-order="markers stroke fill"/><circle cx="35.693" cy="35.803" r="2.15" fill="#f10000" stroke="url(#p)" stroke-linecap="round" stroke-linejoin="round" paint-order="markers stroke fill"/><use xlink:href="#g" fill-rule="evenodd" filter="url(#q)" style="mix-blend-mode:normal" transform="rotate(36.96 26.283 55.614) scale(1.6148)"/><use xlink:href="#g" fill-rule="evenodd" filter="url(#r)" style="mix-blend-mode:normal" transform="rotate(36.96 -2.825 64.409) scale(2.216)"/><use xlink:href="#g" fill-rule="evenodd" filter="url(#s)" style="mix-blend-mode:normal" transform="rotate(36.96 -8.965 56.552) scale(1.6147)"/><use xlink:href="#g" fill-rule="evenodd" filter="url(#t)" style="mix-blend-mode:normal" transform="rotate(36.96 -31.186 31.819) scale(1.6148)"/><use xlink:href="#g" fill-rule="evenodd" filter="url(#u)" style="mix-blend-mode:normal" transform="rotate(36.96 -23.848 23.773) scale(1.6148)"/><use xlink:href="#g" fill-rule="evenodd" filter="url(#v)" style="mix-blend-mode:normal" transform="matrix(1.9032 1.432 -1.432 1.9032 .802 13.072)"/><use xlink:href="#g" fill-rule="evenodd" filter="url(#w)" style="mix-blend-mode:normal" transform="rotate(36.96 9.356 -2.61) scale(2.1608)"/><use xlink:href="#g" fill-rule="evenodd" filter="url(#x)" style="mix-blend-mode:normal" transform="rotate(36.96 37.283 7.943) scale(2.0166)"/><use xlink:href="#g" fill-rule="evenodd" filter="url(#y)" style="mix-blend-mode:normal" transform="rotate(36.96 31.274 21.188) scale(1.6147)"/></svg>