<svg width="48" height="48" xmlns:xlink="http://www.w3.org/1999/xlink" xmlns="http://www.w3.org/2000/svg"><defs><linearGradient id="m"><stop offset=".974" stop-color="#f10000"/><stop offset="1" stop-color="#a10000"/></linearGradient><linearGradient id="l"><stop offset=".988" stop-color="#f10000"/><stop offset="1" stop-color="#a10000"/></linearGradient><linearGradient id="k"><stop offset=".987" stop-color="#f10000"/><stop offset="1" stop-color="#a10000"/></linearGradient><linearGradient id="j"><stop offset=".99" stop-color="#f10000"/><stop offset="1" stop-color="#a10000"/></linearGradient><linearGradient id="i"><stop offset=".994" stop-color="#f10000"/><stop offset="1" stop-color="#a10000"/></linearGradient><linearGradient id="h"><stop offset=".989" stop-color="#f10000"/><stop offset="1" stop-color="#a10000"/></linearGradient><linearGradient id="g"><stop offset=".981" stop-color="#f10000"/><stop offset="1" stop-color="#a10000"/></linearGradient><linearGradient id="f"><stop offset=".986" stop-color="#f10000"/><stop offset="1" stop-color="#a10000"/></linearGradient><linearGradient id="e"><stop offset="1" stop-color="#f10000"/><stop offset="1" stop-color="#a00000"/></linearGradient><linearGradient id="d"><stop offset="0" stop-color="#1a1a1a"/><stop offset="1"/></linearGradient><linearGradient id="a"><stop offset="0" stop-color="#1a1a1a"/><stop offset="1"/></linearGradient><linearGradient id="c"><stop offset="0" stop-color="#ffae05" stop-opacity="0"/><stop offset=".416" stop-color="#7b7b7b" stop-opacity="0"/><stop offset="1" stop-color="#cecece"/></linearGradient><linearGradient xlink:href="#a" id="o" x1="5.83" x2="12.91" y1="6.7" y2="13.2" gradientUnits="userSpaceOnUse"/><linearGradient xlink:href="#d" id="z" x1="21.087" y1="3.828" x2="24" y2="6.609" gradientUnits="userSpaceOnUse" gradientTransform="translate(-31.62 -6.473)scale(2.4121)"/><linearGradient xlink:href="#d" id="B" gradientUnits="userSpaceOnUse" x1="21.087" y1="3.828" x2="24" y2="6.609" gradientTransform="translate(-24.16 -5.543)scale(1.84188)"/><linearGradient xlink:href="#d" id="D" gradientUnits="userSpaceOnUse" x1="21.087" y1="3.828" x2="24.256" y2="6.489" gradientTransform="translate(-35.292 -4.165)scale(3.52543)"/><linearGradient xlink:href="#d" id="F" gradientUnits="userSpaceOnUse" x1="21.087" y1="3.828" x2="24" y2="6.609" gradientTransform="translate(-59.141 5.463)scale(2.88202)"/><linearGradient xlink:href="#d" id="H" gradientUnits="userSpaceOnUse" x1="21.087" y1="3.828" x2="24" y2="6.609" gradientTransform="translate(-26.306 22.5)scale(2.85513)"/><linearGradient xlink:href="#d" id="r" gradientUnits="userSpaceOnUse" x1="21.087" y1="3.828" x2="24" y2="6.609" gradientTransform="translate(-19.965 27.894)scale(2.88189)"/><linearGradient xlink:href="#d" id="t" gradientUnits="userSpaceOnUse" x1="21.087" y1="3.828" x2="24" y2="6.609" gradientTransform="translate(-43.702 30.873)scale(2.72817)"/><linearGradient xlink:href="#d" id="v" gradientUnits="userSpaceOnUse" x1="21.087" y1="3.828" x2="24" y2="6.609" gradientTransform="translate(-41.273 26.923)scale(2.40475)"/><linearGradient xlink:href="#d" id="x" gradientUnits="userSpaceOnUse" x1="21.087" y1="3.828" x2="24" y2="6.609" gradientTransform="translate(-63.202 27.36)scale(3.16006)"/><radialGradient xlink:href="#c" id="n" cx="7.18" cy="8.2" r="6.59" fx="7.18" fy="8.2" gradientTransform="matrix(.9 .5558 -.5314 .8606 5.08 -2.85)" gradientUnits="userSpaceOnUse"/><radialGradient xlink:href="#e" id="C" cx="41.401" cy="11.325" fx="41.401" fy="11.325" r="4.83" gradientUnits="userSpaceOnUse"/><radialGradient xlink:href="#f" id="q" cx="42.278" cy="39.966" fx="42.278" fy="39.966" r="4.129" gradientUnits="userSpaceOnUse"/><radialGradient xlink:href="#g" id="G" cx="35.295" cy="34.766" fx="35.295" fy="34.766" r="4.081" gradientUnits="userSpaceOnUse"/><radialGradient xlink:href="#h" id="s" cx="15.419" cy="42.391" fx="15.419" fy="42.391" r="3.823" gradientUnits="userSpaceOnUse"/><radialGradient xlink:href="#i" id="u" cx="10.826" cy="36.936" fx="10.826" fy="36.936" r="3.37" gradientUnits="userSpaceOnUse"/><radialGradient xlink:href="#j" id="w" cx="5.12" cy="40.566" fx="5.12" fy="40.566" r="4.479" gradientUnits="userSpaceOnUse"/><radialGradient xlink:href="#k" id="E" cx="3.69" cy="17.642" fx="3.69" fy="17.642" r="3.988" gradientUnits="userSpaceOnUse"/><radialGradient xlink:href="#l" id="y" cx="20.694" cy="3.787" fx="20.694" fy="3.787" r="3.485" gradientUnits="userSpaceOnUse"/><radialGradient xlink:href="#m" id="A" cx="15.692" cy="2.224" fx="15.692" fy="2.224" r="2.724" gradientUnits="userSpaceOnUse"/><filter id="p" width="1" height="1" x="0" y="0" color-interpolation-filters="sRGB"><feGaussianBlur/></filter><path fill="#fffdfc" d="M8.5 7.99a.37.37 0 0 1-.38.37.37.37 0 0 1-.37-.37.37.37 0 0 1 .37-.38.37.37 0 0 1 .37.37" id="reuse-0"/></defs><path fill="url(#n)" fill-rule="evenodd" stroke="url(#o)" stroke-width=".85" d="M13.51 5.1c.44.77-2.18 2.89-2.29 3.76-.1.88 1.95 3.55 1.36 4.2-.6.64-3.43-1.19-4.3-1.02-.86.17-2.76 2.95-3.56 2.58-.8-.36.07-3.62-.36-4.39S.69 8.51.8 7.63c.1-.87 3.47-1.05 4.06-1.7.6-.64.51-4.01 1.38-4.18.86-.18 2.07 2.97 2.87 3.34s3.97-.76 4.4 0Z" enable-background="accumulate" overflow="visible" style="marker:none" transform="matrix(2.647 2.2616 -2.267 2.6553 22.22 -16.85)"/><use fill-rule="evenodd" filter="url(#p)" transform="rotate(36.96 28.44 21)scale(3.0331)" xlink:href="#reuse-0"/><circle cx="43.554" cy="41.295" r="3.629" fill="url(#q)" stroke="url(#r)" stroke-linecap="round" stroke-linejoin="round" paint-order="markers stroke fill"/><circle cx="16.429" cy="43.56" r="3.435" fill="url(#s)" stroke="url(#t)" stroke-width=".775" stroke-linecap="round" stroke-linejoin="round" paint-order="markers stroke fill"/><circle cx="11.73" cy="38.106" r="3.028" fill="url(#u)" stroke="url(#v)" stroke-width=".684" stroke-linecap="round" stroke-linejoin="round" paint-order="markers stroke fill"/><circle cx="6.449" cy="42.054" r="3.979" fill="url(#w)" stroke="url(#x)" stroke-linecap="round" stroke-linejoin="round" paint-order="markers stroke fill"/><circle cx="21.544" cy="4.744" r="3.037" fill="url(#y)" stroke="url(#z)" stroke-width=".896" stroke-linecap="round" stroke-linejoin="round" paint-order="markers stroke fill"/><circle cx="16.436" cy="3.022" r="2.319" fill="url(#A)" stroke="url(#B)" stroke-width=".809" stroke-linecap="round" stroke-linejoin="round" paint-order="markers stroke fill"/><circle cx="42.411" cy="12.229" r="4.439" fill="url(#C)" stroke="url(#D)" stroke-width=".782" stroke-linecap="round" stroke-linejoin="round" paint-order="markers stroke fill"/><circle cx="4.381" cy="18.865" r="3.629" fill="url(#E)" stroke="url(#F)" stroke-width=".719" stroke-linecap="round" stroke-linejoin="round" paint-order="markers stroke fill"/><circle cx="36.624" cy="35.776" r="3.595" fill="url(#G)" stroke="url(#H)" stroke-width=".972" stroke-linecap="round" stroke-linejoin="round" paint-order="markers stroke fill"/><use fill-rule="evenodd" filter="url(#p)" transform="rotate(36.96 75.19 30.044)scale(4.39548)" style="mix-blend-mode:normal" xlink:href="#reuse-0"/><use fill-rule="evenodd" filter="url(#p)" transform="rotate(36.96 16.616 54.494)scale(3.43048)" style="mix-blend-mode:normal" xlink:href="#reuse-0"/><use fill-rule="evenodd" filter="url(#p)" transform="rotate(36.96 35.439 34.803)scale(4.31903)" style="mix-blend-mode:normal" xlink:href="#reuse-0"/><use fill-rule="evenodd" filter="url(#p)" transform="rotate(36.96 10.009 10.59)scale(4.08033)" style="mix-blend-mode:normal" xlink:href="#reuse-0"/><use fill-rule="evenodd" filter="url(#p)" transform="rotate(36.96 4.3 6.772)scale(3.36768)" style="mix-blend-mode:normal" xlink:href="#reuse-0"/><use fill-rule="evenodd" filter="url(#p)" transform="rotate(36.96 .287 -2.179)scale(3.59634)" style="mix-blend-mode:normal" xlink:href="#reuse-0"/><use fill-rule="evenodd" filter="url(#p)" transform="rotate(36.96 40.988 -19.747)scale(4.06411)" style="mix-blend-mode:normal" xlink:href="#reuse-0"/><use fill-rule="evenodd" filter="url(#p)" transform="rotate(36.96 47.288 2.87)scale(2.64262)" style="mix-blend-mode:normal" xlink:href="#reuse-0"/><use fill-rule="evenodd" filter="url(#p)" transform="rotate(36.96 63.586 2.662)scale(3.64978)" style="mix-blend-mode:normal" xlink:href="#reuse-0"/></svg>