<svg xmlns="http://www.w3.org/2000/svg" xmlns:xlink="http://www.w3.org/1999/xlink" width="48" height="48" viewBox="0 0 12.7 12.7"><defs><linearGradient id="e"><stop offset="0" stop-color="#fff"/><stop offset="1" stop-color="#454545"/></linearGradient><linearGradient id="d"><stop offset="0" stop-color="#ff6360"/><stop offset="1" stop-color="#b10001"/></linearGradient><linearGradient id="c"><stop offset="0" stop-color="#830100"/><stop offset="1" stop-color="#140100"/></linearGradient><linearGradient id="f"><stop offset="0" stop-color="#ad0300"/><stop offset="1" stop-color="#350100"/></linearGradient><linearGradient id="b"><stop offset="0" stop-color="#e40700"/><stop offset="1" stop-color="#5a0900"/></linearGradient><linearGradient id="a"><stop offset="0" stop-color="#f60d0d"/><stop offset="1" stop-color="#920a0a"/></linearGradient><linearGradient xlink:href="#a" id="h" x1="7.8" x2="9.36" y1="5.28" y2="4.47" gradientUnits="userSpaceOnUse"/><linearGradient xlink:href="#b" id="i" x1="7.95" x2="9.64" y1="7.04" y2="8.56" gradientUnits="userSpaceOnUse"/><linearGradient xlink:href="#c" id="k" x1="4.26" x2="2.17" y1="5.92" y2="6.02" gradientUnits="userSpaceOnUse"/><linearGradient xlink:href="#d" id="l" x1="5.42" x2="5.21" y1="4.53" y2="2.64" gradientUnits="userSpaceOnUse"/><linearGradient xlink:href="#e" id="g" x1="9.26" x2="7.23" y1="3.3" y2="5.3" gradientUnits="userSpaceOnUse"/><linearGradient xlink:href="#f" id="j" x1="6.07" x2="5.11" y1="8.09" y2="10.22" gradientUnits="userSpaceOnUse"/><filter id="m" width="1.34" height="1.34" x="-.17" y="-.17" color-interpolation-filters="sRGB"><feGaussianBlur stdDeviation=".34"/></filter><filter id="n" width="1.1" height="1.1" x="-.05" y="-.05" color-interpolation-filters="sRGB"><feGaussianBlur stdDeviation=".04"/></filter></defs><circle cx="6.36" cy="6.34" r="5.97" fill="gray" fill-rule="evenodd" stroke="url(#g)" stroke-width=".63" paint-order="markers fill stroke"/><circle cx="6.35" cy="6.31" r="4.48" fill="gray" fill-rule="evenodd" stroke="#383838" stroke-width=".47" paint-order="markers fill stroke"/><path fill-rule="evenodd" stroke="#383838" stroke-linejoin="round" stroke-width=".01" d="m7.42 4.25 1.03 2.42L6.49 8.4 4.22 7.04l.58-2.56z" paint-order="markers fill stroke"/><path fill="url(#h)" d="m6.44 1.97 2.02 4.7 2.2-.48a4.35 4.35 0 0 0-2.8-3.96 4.29 4.29 0 0 0-1.42-.26z"/><path fill="url(#i)" d="M10.45 4.92 6.48 8.39l-.39 2.23a4.28 4.28 0 0 0 4.35-5.7z"/><path fill="url(#j)" d="M2.1 6.98a4.49 4.49 0 0 0 4 3.64c1.1.07 1.94-.22 2.76-.78L4.23 7.05z"/><path fill="url(#k)" d="M3.24 3.3a4.34 4.34 0 0 0-.7 4.97c.26.48.59.93 1.02 1.27l.1.07L4.81 4.5z"/><path fill="url(#l)" d="M6.36 1.97a4.34 4.34 0 0 0-3.9 2.46l-.11.27 5.07-.45-.98-2.28h-.08z"/><path fill="#ffebeb" fill-rule="evenodd" d="M7.45 5.6A2.42 2.42 0 0 1 5.3 7.99 2.42 2.42 0 0 1 2.7 6.1a2.42 2.42 0 0 1 1.58-2.8A2.42 2.42 0 0 1 7.45 5.6z" filter="url(#m)" opacity=".37"/><path fill="#fff" fill-rule="evenodd" d="M4.84 6.99a.92.92 0 0 1-1 .91.92.92 0 0 1-.82-1.08.92.92 0 0 1 1.14-.72c.4.1.69.48.68.88z" filter="url(#n)"/></svg>