<svg xmlns="http://www.w3.org/2000/svg" xmlns:xlink="http://www.w3.org/1999/xlink" viewBox="0 0 48 48"><defs><linearGradient id="k"><stop offset="0" stop-color="#9307ff"/><stop offset="1" stop-color="#ff07b5"/></linearGradient><linearGradient id="j"><stop offset="0" stop-color="#25ff07"/><stop offset="1" stop-color="#4507ff"/></linearGradient><linearGradient id="i"><stop offset="0" stop-color="#0791ff"/><stop offset="1" stop-color="#07ffeb"/></linearGradient><linearGradient id="h"><stop offset="0" stop-color="#ff0707"/><stop offset="1" stop-color="#ff6407"/></linearGradient><linearGradient id="g"><stop offset="0" stop-color="#ff8207"/><stop offset="1" stop-color="#ffee07"/></linearGradient><linearGradient id="f"><stop offset="0" stop-color="#fff"/><stop offset="1" stop-color="#fff" stop-opacity="0"/></linearGradient><linearGradient id="e"><stop offset="0" stop-color="#fff"/><stop offset="1" stop-color="#fff" stop-opacity="0"/></linearGradient><linearGradient id="d"><stop offset="0" stop-color="#fff"/><stop offset="1" stop-color="#fff" stop-opacity="0"/></linearGradient><linearGradient id="c"><stop offset="0" stop-color="#fff"/><stop offset="1" stop-color="#fff" stop-opacity="0"/></linearGradient><linearGradient id="b"><stop offset="0" stop-color="#fff"/><stop offset="1" stop-color="#fff" stop-opacity="0"/></linearGradient><linearGradient id="a"><stop offset="0" stop-color="#1a1a1a"/><stop offset="1"/></linearGradient><linearGradient id="l"><stop offset="0" stop-color="#ffae05" stop-opacity="0"/><stop offset=".416" stop-color="#7b7b7b" stop-opacity="0"/><stop offset="1" stop-color="#cecece"/></linearGradient><linearGradient xlink:href="#a" id="x" x1="5.83" x2="12.91" y1="6.7" y2="13.2" gradientUnits="userSpaceOnUse"/><linearGradient xlink:href="#b" id="v" x1="8.72" x2="35.557" y1="11.07" y2="11.07" gradientUnits="userSpaceOnUse"/><linearGradient xlink:href="#c" id="t" x1="10.167" x2="11.013" y1="12.498" y2="20.692" gradientUnits="userSpaceOnUse"/><linearGradient xlink:href="#d" id="r" x1="8.106" x2="32.966" y1="27.055" y2="22.165" gradientUnits="userSpaceOnUse"/><linearGradient xlink:href="#e" id="p" x1="30.564" x2="3.419" y1="35.787" y2="27.681" gradientUnits="userSpaceOnUse"/><linearGradient xlink:href="#f" id="n" x1="24.947" x2="29.248" y1="44.997" y2="40.399" gradientUnits="userSpaceOnUse"/><linearGradient xlink:href="#g" id="s" x1="20.563" x2="19.137" y1="16.473" y2="21.736" gradientUnits="userSpaceOnUse"/><linearGradient xlink:href="#h" id="u" x1="28.032" x2="27.037" y1="10.432" y2="13.568" gradientUnits="userSpaceOnUse"/><linearGradient xlink:href="#i" id="q" x1="26.912" x2="26.317" y1="24.209" y2="27.451" gradientUnits="userSpaceOnUse"/><linearGradient xlink:href="#j" id="o" x1="19.152" x2="19.243" y1="27.653" y2="31.268" gradientUnits="userSpaceOnUse"/><linearGradient xlink:href="#k" id="m" x1="22.89" x2="25.245" y1="32.462" y2="42.721" gradientUnits="userSpaceOnUse"/><radialGradient xlink:href="#l" id="w" cx="7.18" cy="8.2" r="6.59" fx="7.18" fy="8.2" gradientTransform="matrix(.9 .5558 -.5314 .8606 5.08 -2.85)" gradientUnits="userSpaceOnUse"/><filter id="y" width="1.832" height="1.832" x="-.416" y="-.416" color-interpolation-filters="sRGB"><feGaussianBlur stdDeviation=".13"/></filter></defs><g paint-order="markers stroke fill"><path fill="url(#m)" stroke="#000" stroke-linecap="round" stroke-linejoin="round" stroke-width=".5" d="M13.306 33.265s2.293-1.993 6.765-2.293c1.919-.13 3.872 2.819 6.503 3.683 2.631.865 3.684.865 3.684.865l-4.06 11.088-7.912-11.295Z"/><path fill="url(#n)" d="M17.186 34.62s.858-.982 4.773.02c1.862.476 2.33 1.57 3.313 3.949 1.057 2.56 3.976 1.874 3.976 1.874l-3.05 6.145-5.919-7.92z"/><path fill="url(#o)" stroke="#000" stroke-linecap="round" stroke-linejoin="round" stroke-width=".5" d="M8.42 32.889s8.425-3.571 11.614-3.007c4.886.864 5.488 3.646 10.412 3.834 1.127.043 2.368-1.203 2.368-1.203s-.214 1.166-6.691-2.782c-8.758-5.337-21.011-2.48-21.011-2.48l-3.57 4.66 1.24 1.654z"/><path fill="url(#p)" d="M8.42 32.889s8.425-3.571 11.614-3.007c4.886.864 5.488 3.646 10.412 3.834 1.127.043 1.225-2.266 1.225-2.266s.245 4.022-6-.283c-9.475-6.534-23.35-.328-23.35-.328L2.1 33.054l2.25.83z"/><path fill="url(#q)" stroke="#000" stroke-linecap="round" stroke-linejoin="round" stroke-width=".5" d="M10.75 19.846s5.187 3.796 11.652 4.247c6.465.451 18.192-1.992 18.192-1.992l5.3 4.097-.414 2.143-12.93 3.42s-6.05-5.074-12.479-5.901c-6.427-.827-13.268-.075-13.268-.075z"/><path fill="url(#r)" d="M8.624 23.939s7.018-.651 13.565 1.35c13.841 4.232 23.694 2.686 23.694 2.686l-.84 1.014-3.124.867-9.369 1.905s-6.05-5.074-12.479-5.901c-6.427-.827-13.268-.075-13.268-.075z"/><path fill="url(#s)" stroke="#000" stroke-linecap="round" stroke-linejoin="round" stroke-width=".5" d="M38.715 21.124s-4.172-1.466-8.796-1.767c-4.623-.3-8.006 3.797-13.23 2.105-5.225-1.691-6.616-3.458-6.616-3.458L7.63 10.863s7.931 1.992 13.193 4.36c5.262 2.368 15.561 3.946 15.561 3.946z"/><path fill="url(#t)" d="M38.715 21.124S34.524 18.7 29.9 18.399c-4.624-.3-7.687.582-12.254-1.86-4.842-2.591-8.25-2.557-8.25-2.557l-1.767-3.12s7.931 1.993 13.193 4.36c5.262 2.369 15.561 3.947 15.561 3.947z"/><path fill="url(#u)" stroke="#000" stroke-linecap="round" stroke-linejoin="round" stroke-width=".5" d="M34.843 17.365s-6.615.15-16.275-4.548C8.908 8.12 8.72 4.774 8.72 4.774l12.178 5.224 6.465-3.796s3.383-1.692 5.45-.338c2.068 1.353 2.744 1.841 2.744 1.841z"/><path fill="url(#v)" d="M34.843 17.365s-6.615.15-16.275-4.548C8.908 8.12 8.72 4.774 8.72 4.774l10.743 6.606c2.549 1.012 5.318 2.096 8.141 2.032 2.965-.068 7.953-5.707 7.953-5.707z"/></g><path fill="url(#w)" fill-rule="evenodd" stroke="url(#x)" stroke-width=".85" d="M13.51 5.1c.44.77-2.18 2.89-2.29 3.76-.1.88 1.95 3.55 1.36 4.2-.6.64-3.43-1.19-4.3-1.02-.86.17-2.76 2.95-3.56 2.58-.8-.36.07-3.62-.36-4.39C3.93 9.46.69 8.51.8 7.63c.1-.87 3.47-1.05 4.06-1.7.6-.64.51-4.01 1.38-4.18.86-.18 2.07 2.97 2.87 3.34.8.37 3.97-.76 4.4 0z" enable-background="accumulate" overflow="visible" style="marker:none" transform="matrix(2.647 2.2616 -2.267 2.6553 22.22 -16.85)"/><path fill="#fffdfc" fill-rule="evenodd" d="M8.5 7.99a.37.37 0 0 1-.38.37.37.37 0 0 1-.37-.37.37.37 0 0 1 .37-.38.37.37 0 0 1 .37.37" filter="url(#y)" transform="rotate(36.96 28.44 21) scale(3.0331)"/></svg>