<svg xmlns="http://www.w3.org/2000/svg" xmlns:xlink="http://www.w3.org/1999/xlink" width="48" height="48"><defs><linearGradient id="j"><stop offset=".164" style="stop-color:#fff;stop-opacity:1"/><stop offset="1" style="stop-color:#fff;stop-opacity:.2318105"/></linearGradient><linearGradient id="i"><stop offset=".173" style="stop-color:#0c1d00;stop-opacity:1"/><stop offset="1" style="stop-color:#212a18;stop-opacity:.14890017"/></linearGradient><linearGradient id="h"><stop offset="0" style="stop-color:#e5ffcb;stop-opacity:1"/><stop offset=".18" style="stop-color:#b8e986;stop-opacity:1"/><stop offset=".514" style="stop-color:#b8e986;stop-opacity:1"/><stop offset="1" style="stop-color:#6e8c53;stop-opacity:1"/></linearGradient><linearGradient id="g"><stop offset="0" style="stop-color:#dbffce;stop-opacity:1"/><stop offset=".137" style="stop-color:#b8e986;stop-opacity:1"/><stop offset="1" style="stop-color:#b8e986;stop-opacity:0"/></linearGradient><linearGradient id="f"><stop offset="0" style="stop-color:#b8e986;stop-opacity:1"/><stop offset="1" style="stop-color:#b8e986;stop-opacity:0"/></linearGradient><linearGradient xlink:href="#f" id="k" x1="-.456" x2="47.335" y1="23.386" y2="23.386" gradientUnits="userSpaceOnUse"/><linearGradient xlink:href="#g" id="l" x1="8.584" x2="38.703" y1="5.262" y2="38.889" gradientUnits="userSpaceOnUse"/><linearGradient xlink:href="#h" id="m" x1="17.191" x2="33.055" y1="16.461" y2="34.316" gradientUnits="userSpaceOnUse"/><radialGradient xlink:href="#i" id="o" cx="20.472" cy="20.157" r="7.944" fx="20.472" fy="20.157" gradientTransform="matrix(1 0 0 .9786 0 .38)" gradientUnits="userSpaceOnUse"/><radialGradient xlink:href="#j" id="n" cx="20.56" cy="20.428" r="7.944" fx="20.56" fy="20.428" gradientTransform="matrix(1 0 0 .9786 0 .38)" gradientUnits="userSpaceOnUse"/></defs><g style="opacity:1;stroke:#000;stroke-dasharray:none;stroke-dashoffset:0;stroke-opacity:1;fill:url(#k);fill-opacity:1;stroke-width:1.00019805;paint-order:stroke fill markers" transform="translate(.52 .519)scale(.9778)"><path d="M25.032.015a2.5 2.5 0 0 0-2.671 2.318 2.5 2.5 0 0 0 2.318 2.67l.312.021.307.028.303.03.302.036.301.041.297.047.297.05.295.055.293.061.29.064.29.069.29.076.284.078.285.084.188.059a2.5 2.5 0 0 0 3.133-1.639 2.5 2.5 0 0 0-1.639-3.133l-.229-.072-.365-.108-.369-.101-.369-.096-.371-.088-.373-.084-.375-.076-.377-.07L27.3.27l-.379-.058-.38-.053-.386-.045-.382-.04-.387-.034zm-5.58.273-.265.047-.377.07-.375.076-.373.084-.371.088-.37.096-.367.101-.367.108-.363.115-.362.12-.36.126-.358.133-.356.137-.353.144-.328.14a2.5 2.5 0 0 0-1.315 3.284 2.5 2.5 0 0 0 3.283 1.313l.29-.123.275-.114.277-.107.28-.104.279-.097.281-.094.283-.088.285-.084.287-.078.288-.076.289-.069.29-.064.294-.06.295-.055.224-.04a2.5 2.5 0 0 0 2.045-2.884A2.5 2.5 0 0 0 19.452.288Zm14.246 2.773a2.5 2.5 0 0 0-1.54 1.133A2.5 2.5 0 0 0 33 7.628q.347.21.701.45l-.017-.015.265.182.246.174.243.178.24.18.234.183.233.187.226.19.225.193.22.197.217.2.215.205.22.217a2.5 2.5 0 0 0 3.536-.03 2.5 2.5 0 0 0-.03-3.535l-.25-.246-.273-.26-.277-.256-.281-.252-.287-.246-.291-.242-.293-.238-.301-.235-.303-.228-.307-.225-.31-.218-.309-.211-.01-.006a23 23 0 0 0-.892-.57 2.5 2.5 0 0 0-1.893-.29zM9.284 4.704l-.14.105-.3.235-.294.238-.291.242-.285.246-.283.252-.278.256-.273.26-.27.264-.263.27-.26.273-.256.277-.252.281-.246.287-.242.291-.094.114a2.5 2.5 0 0 0 .377 3.515 2.5 2.5 0 0 0 3.516-.375l.066-.082.19-.228.193-.225.197-.22.2-.217.204-.215.207-.21.21-.206.214-.205.217-.2.22-.197.225-.193.229-.19.23-.187.237-.184.107-.082a2.5 2.5 0 0 0 .488-3.5 2.5 2.5 0 0 0-3.5-.49zm30.707 5.656a2.5 2.5 0 0 0-.82 3.44l.043.068.156.266.153.265.148.268.143.267.136.27.133.271.127.272.123.273.117.276.114.275.107.278.104.279.097.28.094.28.025.084a2.5 2.5 0 0 0 3.133 1.639 2.5 2.5 0 0 0 1.639-3.133l-.04-.123-.118-.363-.127-.36-.133-.357-.137-.355-.144-.356-.153-.351-.156-.35-.162-.346-.168-.345-.176-.344-.18-.34-.187-.338-.191-.336-.198-.332-.062-.101a2.5 2.5 0 0 0-3.44-.82ZM5.634 12.136a2.5 2.5 0 0 0-3.344 1.148l-.017.033-.162.346-.157.35-.15.351-.145.356-.138.355-.133.358-.127.359-.12.363-.114.363-.108.366-.101.369-.096.369-.088.371-.084.373-.049.242a2.5 2.5 0 0 0 1.947 2.951A2.5 2.5 0 0 0 5.4 19.612l.04-.201.065-.291.07-.289.075-.29.078-.284.084-.285.088-.284.093-.28.1-.28.102-.28.109-.277.111-.275.12-.276.12-.273.127-.268a2.5 2.5 0 0 0-1.148-3.343zm38.477 7.3a2.5 2.5 0 0 0-2.317 2.67v.006l.018.31.011.313.008.313.002.297v.039l-.002.297-.008.312-.011.313-.018.31-.021.307-.028.306-.031.303-.035.303-.041.3-.047.298-.05.296-.055.295-.061.293-.064.291-.032.127a2.5 2.5 0 0 0 1.848 3.016 2.5 2.5 0 0 0 3.016-1.848l.039-.168.084-.373.076-.375.07-.377.065-.379.058-.379.053-.382.045-.383.04-.385.034-.385.027-.388.022-.389.015-.39.008-.393.004-.373-.012-.028.012-.011-.004-.373-.008-.393-.015-.39-.022-.39-.004-.046a2.5 2.5 0 0 0-2.67-2.317ZM2.446 21.583a2.5 2.5 0 0 0-2.4 2.596l.014.36.021.39.028.388.033.385.04.385.046.383.052.382.059.38.064.378.07.377.077.375.084.373.088.371.096.37.056.205a2.5 2.5 0 0 0 3.076 1.744 2.5 2.5 0 0 0 1.745-3.076l-.045-.165-.075-.287-.07-.289-.064-.29-.06-.294-.056-.295-.05-.296-.045-.297-.041-.301-.037-.303-.032-.303-.027-.306-.022-.307-.017-.31-.012-.32a2.5 2.5 0 0 0-2.596-2.403zm40.735 9.197a2.5 2.5 0 0 0-3.381 1.037l-.129.244-.148.268-.153.266-.156.265-.162.262-.164.256-.166.254-.17.25-.174.246-.178.242-.18.24-.183.235-.187.23-.19.229-.152.175a2.5 2.5 0 0 0 .262 3.528 2.5 2.5 0 0 0 3.525-.262l.178-.207.242-.291.238-.295.234-.299.229-.303.225-.306.218-.313.215-.314.211-.32.205-.323.203-.328.198-.332.191-.336.188-.338.148-.279a2.5 2.5 0 0 0-1.037-3.38zm-39.223.67a2.5 2.5 0 0 0-.928 3.412l.147.252.197.332.201.328.205.323.211.32.215.314.22.313.224.306.23.303.232.3.239.294.242.291.246.287.252.281.215.235a2.5 2.5 0 0 0 3.533.144 2.5 2.5 0 0 0 .145-3.533l-.188-.203-.197-.22-.194-.225-.189-.229-.188-.23-.183-.235-.18-.24-.178-.242-.171-.246-.172-.25-.166-.254-.164-.256-.162-.262-.157-.265-.125-.22a2.5 2.5 0 0 0-3.412-.925zm31.963 6.537a2.5 2.5 0 0 0-1.865.422l-.106.074-.25.17-.252.166-.257.164-.262.162-.266.157-.265.152-.268.148-.268.141-.27.139-.27.133-.272.127-.273.123-.276.117-.275.111-.02.008a2.5 2.5 0 0 0-1.424 3.236 2.5 2.5 0 0 0 3.237 1.424l.058-.023.356-.145.351-.15.35-.157.346-.162.345-.17.344-.173.34-.182.338-.186.336-.193.332-.197.328-.201.324-.206.319-.21.316-.215.135-.096a2.5 2.5 0 0 0 .601-3.484 2.5 2.5 0 0 0-1.617-1.024zm-22.582.781a2.5 2.5 0 0 0-3.463.711 2.5 2.5 0 0 0 .711 3.463l.113.075.323.205.328.2.332.198.336.193.338.186.34.182.343.173.346.17.348.162.35.157.35.15.354.145.356.138.357.133.098.033a2.5 2.5 0 0 0 3.185-1.531 2.5 2.5 0 0 0-1.53-3.186l-.058-.021-.279-.102-.277-.109-.276-.111-.275-.117-.273-.123-.272-.127-.271-.133-.27-.139-.267-.14-.268-.149-.266-.152-.265-.157-.262-.162-.256-.164Zm12.607 2.836-.043.006-.302.035-.303.032-.307.027-.306.022-.31.017-.311.012-.315.008-.316.002-.317-.002-.312-.008-.313-.012-.31-.017-.307-.022-.306-.027-.016-.002a2.5 2.5 0 0 0-2.744 2.23 2.5 2.5 0 0 0 2.23 2.744l.057.006.385.033.388.028.389.021.39.016.393.008.393.004.392-.004.393-.008.39-.016.39-.021.388-.028.387-.033.382-.04.385-.046.082-.011a2.5 2.5 0 0 0 2.139-2.815 2.5 2.5 0 0 0-2.815-2.139z" style="baseline-shift:baseline;display:inline;overflow:visible;fill:url(#l);fill-opacity:1;stroke:#000;stroke-linecap:round;stroke-dasharray:none;stroke-dashoffset:0;stroke-opacity:1;paint-order:stroke fill markers;stop-color:#000;stop-opacity:1;stroke-width:1.00019805"/></g><path d="M43.144 23.441q0 5.36-2.643 9.89a19.6 19.6 0 0 1-7.17 7.17q-4.527 2.642-9.89 2.642-5.36 0-9.888-2.642a19.6 19.6 0 0 1-7.17-7.17Q3.74 28.8 3.74 23.44t2.643-9.89a19.6 19.6 0 0 1 7.17-7.17Q18.08 3.74 23.442 3.74t9.89 2.643a19.6 19.6 0 0 1 7.17 7.17q2.641 4.527 2.642 9.89" style="fill:#000;stroke:none;stroke-width:4.71328;stroke-linecap:round;stroke-dasharray:4.71328,4.71328;stroke-dashoffset:0;stroke-opacity:1;paint-order:stroke fill markers"/><path d="M21.375 9.768q-.768 0-1.328.56a1.82 1.82 0 0 0-.563 1.33v7.563h-7.562q-.768 0-1.33.56-.56.562-.56 1.33v3.782q0 .768.56 1.33.562.56 1.33.56h7.562v7.563q.001.769.563 1.33.56.56 1.328.56h3.781q.768 0 1.33-.56a1.82 1.82 0 0 0 .563-1.33v-7.563h7.562q.767 0 1.328-.56a1.82 1.82 0 0 0 .563-1.33V21.11a1.82 1.82 0 0 0-.563-1.33 1.81 1.81 0 0 0-1.328-.56H27.05v-7.563a1.82 1.82 0 0 0-.563-1.33 1.82 1.82 0 0 0-1.33-.56z" style="color:#000;display:inline;overflow:visible;visibility:visible;fill:url(#m);fill-opacity:1;fill-rule:nonzero;stroke:none;stroke-width:3.78144;marker:none"/><path d="M48 38.44q0 2.602-1.282 4.8a9.5 9.5 0 0 1-3.48 3.48q-2.198 1.282-4.8 1.282-2.603 0-4.8-1.282a9.5 9.5 0 0 1-3.48-3.48q-1.283-2.198-1.283-4.8t1.283-4.8a9.5 9.5 0 0 1 3.48-3.48q2.198-1.283 4.8-1.283 2.603 0 4.8 1.283a9.5 9.5 0 0 1 3.48 3.48Q48 35.838 48 38.44" style="fill:#ff6868;stroke:none;stroke-width:1.59375"/><path d="m42.946 35.059-1.127-1.127a.77.77 0 0 0-.564-.23.77.77 0 0 0-.563.23l-6.762 6.762a.77.77 0 0 0-.229.563q0 .334.229.563l1.127 1.127q.228.23.563.23t.564-.23l6.762-6.761a.77.77 0 0 0 .228-.564.77.77 0 0 0-.228-.563" style="fill:#000;stroke:none;stroke-width:1.59375"/><path d="m41.819 42.947 1.127-1.127a.77.77 0 0 0 .228-.563.77.77 0 0 0-.228-.563l-6.762-6.762a.77.77 0 0 0-.564-.23.77.77 0 0 0-.563.23l-1.127 1.127a.77.77 0 0 0-.229.563q0 .334.229.564l6.762 6.761q.228.23.563.23t.564-.23" style="fill:#000;stroke:none;stroke-width:1.59375"/><path d="M11.035 24.688v-3.36a1.1 1.1 135 0 1 1.1-1.1H20.5V11.85a1.1 1.1 135 0 1 1.1-1.1h3.712" style="fill:none;stroke:url(#n);stroke-width:1.611;stroke-linecap:round;stroke-linejoin:round;stroke-dasharray:none;paint-order:stroke fill markers"/><path d="M11.035 24.688v-3.36a1.1 1.1 135 0 1 1.1-1.1H20.5V11.85a1.1 1.1 135 0 1 1.1-1.1h3.712" style="fill:none;stroke:url(#o);stroke-width:1.611;stroke-linecap:round;stroke-linejoin:round;stroke-dasharray:none;paint-order:stroke fill markers;opacity:.37909516;stroke-opacity:1" transform="rotate(180 23.28 22.995)"/><circle cx="11.067" cy="5.332" r=".586" style="fill:#fff;fill-opacity:1;stroke:none;stroke-width:.456634;stroke-linecap:round;stroke-linejoin:round;stroke-dasharray:none;paint-order:stroke fill markers"/><circle cx="13.852" cy="3.711" r=".586" style="fill:#fff;fill-opacity:1;stroke:none;stroke-width:.456634;stroke-linecap:round;stroke-linejoin:round;stroke-dasharray:none;paint-order:stroke fill markers"/><circle cx="4.102" cy="13.102" r=".586" style="fill:#fff;fill-opacity:1;stroke:none;stroke-width:.456634;stroke-linecap:round;stroke-linejoin:round;stroke-dasharray:none;paint-order:stroke fill markers"/><circle cx="5.836" cy="10.258" r=".586" style="fill:#fff;fill-opacity:1;stroke:none;stroke-width:.456634;stroke-linecap:round;stroke-linejoin:round;stroke-dasharray:none;paint-order:stroke fill markers"/></svg>