<svg xmlns="http://www.w3.org/2000/svg" viewBox="0 0 158.75 158.75"><path fill="#1858d9" d="M45.055 104.702a46.497 46.497 0 0 0-1.795 3.65l.02 41.183 6.787-.01h9.105c-5.879-8.36-7.492-18.897-5.435-28.699z" opacity=".7" style="line-height:1.25;-inkscape-font-specification:&quot;Gill Sans Ultra Bold, Normal&quot;;font-variant-ligatures:normal;font-variant-position:normal;font-variant-caps:normal;font-variant-numeric:normal;font-variant-alternates:normal;font-variant-east-asian:normal;font-feature-settings:normal;font-variation-settings:normal;text-indent:0;text-align:start;text-decoration-line:none;text-decoration-style:solid;text-decoration-color:#000;text-transform:none;text-orientation:mixed;white-space:normal;shape-padding:0;shape-margin:0;inline-size:0;isolation:auto;mix-blend-mode:normal;solid-color:#000;solid-opacity:1"/><path fill="#1858d9" d="M91.33 106.134c-13.17.807-24.676 13.946-21.842 27.297 1.422 7.311 7.039 14.3 14.42 16.044l12.423.04c2.743-1.019 8.592-4.417 8.904-8.521v-17.98c-5.344-9.72-18.625-8.873-24.685-1.512-6 8.289-.807 19.905 7.059 21.186 5.445.888 9.277-.575 11.768-3.812 2.742-3.76 2.984-8.006 1.119-11.394-2.723-6.625-15.126-7.513-16.064 1.936.273 4.77 4.447 8.601 6.807 7.35 3.55-.755 2.854-4.99.605-6.07-2.632-1.27-3.398.273-3.63-1.643-.333-2.592 1.966-3.852 6.201-2.945 6.05 3.096 3.862 11.466-1.432 12.958a8.4 8.4 0 0 1-9.125-2.682c-2.45-2.935-2.32-7.503-1.25-10.377 3.286-6.887 14.147-8.167 18.725-1.532 6.232 7.36.726 19.542-8.531 20.843-10.205 2.239-19.835-8.33-17.556-18.302 1.775-11.113 15.872-16.356 25.472-12.302 2.017.736 3.842 1.915 4.618 2.49v-3.368l.01-4.114c-1.018-.807-2.047-1.412-4.104-2.208a24.433 24.433 0 0 0-7.26-1.372c-.888-.06-1.775-.06-2.652-.01z" style="line-height:1.25;-inkscape-font-specification:&quot;Gill Sans Ultra Bold, Normal&quot;;font-variant-ligatures:normal;font-variant-position:normal;font-variant-caps:normal;font-variant-numeric:normal;font-variant-alternates:normal;font-variant-east-asian:normal;font-feature-settings:normal;font-variation-settings:normal;text-indent:0;text-align:start;text-decoration-line:none;text-decoration-style:solid;text-decoration-color:#000;text-transform:none;text-orientation:mixed;white-space:normal;shape-padding:0;shape-margin:0;inline-size:0;isolation:auto;mix-blend-mode:normal;solid-color:#000;solid-opacity:1"/><path fill="#1858d9" d="M105.245 145.118s-1.633 1.684-3.136 2.663c-1.643 1.008-3.227 1.714-3.227 1.714l6.394-.02z" opacity=".7" style="line-height:1.25;-inkscape-font-specification:&quot;Gill Sans Ultra Bold, Normal&quot;;font-variant-ligatures:normal;font-variant-position:normal;font-variant-caps:normal;font-variant-numeric:normal;font-variant-alternates:normal;font-variant-east-asian:normal;font-feature-settings:normal;font-variation-settings:normal;text-indent:0;text-align:start;text-decoration-line:none;text-decoration-style:solid;text-decoration-color:#000;text-transform:none;text-orientation:mixed;white-space:normal;shape-padding:0;shape-margin:0;inline-size:0;isolation:auto;mix-blend-mode:normal;solid-color:#000;solid-opacity:1"/><path fill="#1858d9" d="M91.743 92.249c-14.047.635-27.156 10.063-32.692 22.86l-.645 14.42-2.017-3.762c-.03.242-.07.484-.09.737a33.962 33.962 0 0 0 7.018 23.021h12.605c-11.264-7.775-13.533-24.947-5.042-35.586 7.522-10.568 22.82-14.47 34.386-8.702 1.563-.04 4.406-.06 6.494-.081h11.072c-7.07-7.583-17.062-12.484-27.479-12.867a33.04 33.04 0 0 0-3.6-.04z" color="#000" font-family="'Gill Sans Ultra Bold'" font-size="44.68" font-weight="400" letter-spacing="0" overflow="visible" paint-order="markers stroke fill" style="line-height:1.25;-inkscape-font-specification:&quot;Gill Sans Ultra Bold, Normal&quot;;font-variant-ligatures:normal;font-variant-position:normal;font-variant-caps:normal;font-variant-numeric:normal;font-variant-alternates:normal;font-variant-east-asian:normal;font-feature-settings:normal;font-variation-settings:normal;text-indent:0;text-align:start;text-decoration-line:none;text-decoration-style:solid;text-decoration-color:#000;text-transform:none;text-orientation:mixed;white-space:normal;shape-padding:0;shape-margin:0;inline-size:0;isolation:auto;mix-blend-mode:normal;solid-color:#000;solid-opacity:1" word-spacing="0"/><path fill="#1858d9" d="M92.933 76.962a59.091 59.091 0 0 0-15.459 2.47L96.09 86.42l-36.05 6.525-.635 14.248a35.949 35.949 0 0 1 4.477-5.506c12.666-13.774 34.89-16.89 50.894-7.21 5.213 2.904 12.12 10.669 13.19 10.669l16.738.01c-.03-2.854-4.678-8.006-7.663-11.102-10.558-10.487-25.17-16.558-39.993-17.042a56.197 56.197 0 0 0-4.114-.05z" color="#000" font-family="'Gill Sans Ultra Bold'" font-size="44.68" font-weight="400" letter-spacing="0" opacity=".7" overflow="visible" paint-order="markers stroke fill" style="line-height:1.25;-inkscape-font-specification:&quot;Gill Sans Ultra Bold, Normal&quot;;font-variant-ligatures:normal;font-variant-position:normal;font-variant-caps:normal;font-variant-numeric:normal;font-variant-alternates:normal;font-variant-east-asian:normal;font-feature-settings:normal;font-variation-settings:normal;text-indent:0;text-align:start;text-decoration-line:none;text-decoration-style:solid;text-decoration-color:#000;text-transform:none;text-orientation:mixed;white-space:normal;shape-padding:0;shape-margin:0;inline-size:0;isolation:auto;mix-blend-mode:normal;solid-color:#000;solid-opacity:1" word-spacing="0"/><path fill="#1858d9" d="M95.5 54.72a82.92 82.92 0 0 0-31.1 6.2l-1.8 13.3 7.33 2.76c10.63-5.1 22.72-7.1 34.44-5.04 16.14 2.51 30.88 11.95 40.46 25.1V70.7h-36.686a2.464 2.464 45 0 1-2.464-2.464V55.29a85.86 85.86 0 0 0-10.18-.57Z" color="#000" font-family="'Gill Sans Ultra Bold'" font-size="44.68" font-weight="400" letter-spacing="0" opacity=".8" overflow="visible" paint-order="markers stroke fill" style="line-height:1.25;-inkscape-font-specification:&quot;Gill Sans Ultra Bold, Normal&quot;;font-variant-ligatures:normal;font-variant-position:normal;font-variant-caps:normal;font-variant-numeric:normal;font-variant-alternates:normal;font-variant-east-asian:normal;font-feature-settings:normal;font-variation-settings:normal;text-indent:0;text-align:start;text-decoration-line:none;text-decoration-style:solid;text-decoration-color:#000;text-transform:none;text-orientation:mixed;white-space:normal;shape-padding:0;shape-margin:0;inline-size:0;isolation:auto;mix-blend-mode:normal;solid-color:#000;solid-opacity:1" transform="translate(-1.33 -1.3) scale(1.0084)" word-spacing="0"/><path fill="#1858d9" d="M96.74 25.85a111.7 111.7 0 0 0-52.52 13v27.48l.08.05c.65-.54 1.32-1.05 1.99-1.56l21.2-26.6-2.12 15.64a80.58 80.58 0 0 1 40.36-5.4l.002-.287a2.72 2.72 135.197 0 1 2.721-2.702l50.037.009c-.04-1.01-7.52-6.22-12.2-8.4a114.27 114.27 0 0 0-49.55-11.23Z" color="#000" font-family="'Gill Sans Ultra Bold'" font-size="44.68" font-weight="400" letter-spacing="0" opacity=".9" overflow="visible" paint-order="markers stroke fill" style="line-height:1.25;-inkscape-font-specification:&quot;Gill Sans Ultra Bold, Normal&quot;;font-variant-ligatures:normal;font-variant-position:normal;font-variant-caps:normal;font-variant-numeric:normal;font-variant-alternates:normal;font-variant-east-asian:normal;font-feature-settings:normal;font-variation-settings:normal;text-indent:0;text-align:start;text-decoration-line:none;text-decoration-style:solid;text-decoration-color:#000;text-transform:none;text-orientation:mixed;white-space:normal;shape-padding:0;shape-margin:0;inline-size:0;isolation:auto;mix-blend-mode:normal;solid-color:#000;solid-opacity:1" transform="translate(-1.33 -1.3) scale(1.0084)" word-spacing="0"/><path fill="#1858d9" d="M43.26 9.4v21.67c30.231-16.93 68.419-18.12 99.8-3.53a117.69 117.69 0 0 1 15.428 8.491V9.39Z" color="#000" font-family="'Gill Sans Ultra Bold'" font-size="44.68" font-weight="400" letter-spacing="0" overflow="visible" paint-order="markers stroke fill" style="line-height:1.25;-inkscape-font-specification:&quot;Gill Sans Ultra Bold, Normal&quot;;font-variant-ligatures:normal;font-variant-position:normal;font-variant-caps:normal;font-variant-numeric:normal;font-variant-alternates:normal;font-variant-east-asian:normal;font-feature-settings:normal;font-variation-settings:normal;text-indent:0;text-align:start;text-decoration-line:none;text-decoration-style:solid;text-decoration-color:#000;text-transform:none;text-orientation:mixed;white-space:normal;shape-padding:0;shape-margin:0;inline-size:0;isolation:auto;mix-blend-mode:normal;solid-color:#000;solid-opacity:1" word-spacing="0"/><path fill="none" stroke="#fff" stroke-linecap="round" stroke-linejoin="round" stroke-width="5.29" d="M40.648 63.409V6.748h115.4v40.577h-48.18v20.007h39.477v40.456H108.08v44.48H41.082Z"/><path fill="#fff" stroke="#000" stroke-width=".28" d="M13.533 52.004 43.855 65.92l21.831-27.146-3.509 34.608 33.257 12.786L60.14 93.63l-1.815 33.267-17.304-29.304-34.386 9.166 24.202-25.915Z"/><path fill="#1858d9" fill-rule="evenodd" d="M69.246 32.739 44.26 64.08 7.974 46.578a.506.506 131.166 0 0-.643.735L29.52 80.94 1.598 110.138a.47.47 59.139 0 0 .465.778L41 100.16l19.118 35.57a.479.479 167.158 0 0 .9-.205L62.83 95.18l39.73-7.189a.481.481 95.136 0 0 .084-.924L97.31 85.07l-32.47-12.2 5.404-39.704a.563.563 23.157 0 0-.998-.427ZM64.46 45.32l-4.11 30.25 28.58 10.72-30.04 5.44-1.36 30.5-14.46-26.9-29.43 8.13 21.1-22.05-16.8-25.48L45.42 69.2Z" color="#000" font-family="sans-serif" font-weight="400" overflow="visible" style="line-height:normal;font-variant-ligatures:normal;font-variant-position:normal;font-variant-caps:normal;font-variant-numeric:normal;font-variant-alternates:normal;font-variant-east-asian:normal;font-feature-settings:normal;font-variation-settings:normal;text-indent:0;text-align:start;text-decoration-line:none;text-decoration-style:solid;text-decoration-color:#000;text-transform:none;text-orientation:mixed;white-space:normal;shape-padding:0;shape-margin:0;inline-size:0;isolation:auto;mix-blend-mode:normal;solid-color:#000;solid-opacity:1" transform="translate(-1.33 -1.3) scale(1.0084)"/><path fill="#fff" fill-rule="evenodd" d="M92.6 133.23a1.079 1.079 0 0 1-1.079 1.078 1.079 1.079 0 0 1-1.079-1.078 1.079 1.079 0 0 1 1.08-1.08 1.079 1.079 0 0 1 1.078 1.08"/></svg>