<svg xmlns="http://www.w3.org/2000/svg" width="600" height="600" viewBox="0 0 158.75 158.75"><defs><linearGradient id="r"><stop offset="0" stop-color="#9db6ff"/><stop offset="1" stop-color="#9db6ff" stop-opacity=".49"/></linearGradient><linearGradient id="q"><stop offset="0" stop-color="#abffe6"/><stop offset="1" stop-color="#81ffda" stop-opacity=".51"/></linearGradient><linearGradient id="p"><stop offset="0" stop-color="#ffe9a8"/><stop offset="1" stop-color="#ffe28d" stop-opacity=".49"/></linearGradient><linearGradient id="o"><stop offset="0" stop-color="#ffb4b4"/><stop offset="1" stop-color="#ff9797" stop-opacity=".5"/></linearGradient><linearGradient id="n"><stop offset="0" stop-color="#ffaeef"/><stop offset="1" stop-color="#ff81e7" stop-opacity=".46"/></linearGradient><linearGradient id="m"><stop offset="0" stop-color="#ffd887"/><stop offset="1" stop-color="#ffd378" stop-opacity=".5"/></linearGradient><linearGradient id="l"><stop offset="0" stop-color="#fff3a5"/><stop offset="1" stop-color="#fff3a5" stop-opacity=".48"/></linearGradient><linearGradient id="k"><stop offset="0" stop-color="#85ffe6"/><stop offset="1" stop-color="#85ffe6" stop-opacity=".48"/></linearGradient><linearGradient id="j"><stop offset="0" stop-color="#c9ffd4"/><stop offset="1" stop-color="#a9ffba" stop-opacity=".5"/></linearGradient><linearGradient id="i"><stop offset="0" stop-color="#0f0"/><stop offset="1" stop-color="#0f0" stop-opacity="0"/></linearGradient><linearGradient id="h"><stop offset="0" stop-color="#00ffd0"/><stop offset="1" stop-color="#00ffd0" stop-opacity="0"/></linearGradient><linearGradient id="g"><stop offset="0" stop-color="#ffe600"/><stop offset="1" stop-color="#ffe600" stop-opacity="0"/></linearGradient><linearGradient id="f"><stop offset="0" stop-color="#ff00eb"/><stop offset="1" stop-color="#ff00eb" stop-opacity="0"/></linearGradient><linearGradient id="e"><stop offset="0" stop-color="#ffa425"/><stop offset="1" stop-color="#ffa425" stop-opacity="0"/></linearGradient><linearGradient id="d"><stop offset="0" stop-color="#00f"/><stop offset="1" stop-color="#00f" stop-opacity="0"/></linearGradient><linearGradient id="c"><stop offset="0" stop-color="#00ffac"/><stop offset="1" stop-color="#00ffac" stop-opacity="0"/></linearGradient><linearGradient id="b"><stop offset="0" stop-color="#ffeb00"/><stop offset="1" stop-color="#ffeb00" stop-opacity="0"/></linearGradient><linearGradient id="a"><stop offset="0" stop-color="red"/><stop offset="1" stop-color="red" stop-opacity="0"/></linearGradient></defs><path d="M105.69 145.2s-1.62 1.67-3.11 2.64c-1.63 1-3.2 1.7-3.2 1.7l6.34-.02zM91.89 106.54c-13.06.8-24.47 13.83-21.66 27.07 1.41 7.25 6.98 14.18 14.3 15.91l12.32.04c2.72-1.01 8.52-4.38 8.83-8.45v-17.83c-5.3-9.64-18.47-8.8-24.48-1.5-5.95 8.22-.8 19.74 7 21.01 5.4.88 9.2-.57 11.67-3.78 2.72-3.73 2.96-7.94 1.11-11.3-2.7-6.57-15-7.45-15.93 1.92.27 4.73 4.41 8.53 6.75 7.29 3.52-.75 2.83-4.95.6-6.02-2.61-1.26-3.37.27-3.6-1.63-.33-2.57 1.95-3.82 6.15-2.92 6 3.07 3.83 11.37-1.42 12.85a8.33 8.33 0 0 1-9.05-2.66c-2.43-2.91-2.3-7.44-1.24-10.29 3.26-6.83 14.03-8.1 18.57-1.52 6.18 7.3.72 19.38-8.46 20.67-10.12 2.22-19.67-8.26-17.41-18.15 1.76-11.02 15.74-16.22 25.26-12.2 2 .73 3.81 1.9 4.58 2.47v-3.34l.01-4.08c-1.01-.8-2.03-1.4-4.07-2.19a24.23 24.23 0 0 0-7.2-1.36c-.88-.06-1.76-.06-2.63-.01zM46 105.12a46.11 46.11 0 0 0-1.78 3.62l.02 40.84 6.73-.01H60c-5.83-8.29-7.43-18.74-5.39-28.46z" color="#000" font-family="Gill Sans Ultra Bold" font-size="44.68" font-weight="400" letter-spacing="0" overflow="visible" paint-order="markers stroke fill" style="line-height:1.25;-inkscape-font-specification:&quot;Gill Sans Ultra Bold, Normal&quot;;font-variant-ligatures:normal;font-variant-position:normal;font-variant-caps:normal;font-variant-numeric:normal;font-variant-alternates:normal;font-variant-east-asian:normal;font-feature-settings:normal;font-variation-settings:normal;text-indent:0;text-align:start;text-decoration-line:none;text-decoration-style:solid;text-decoration-color:#000;text-transform:none;text-orientation:mixed;white-space:normal;shape-padding:0;shape-margin:0;inline-size:0;isolation:auto;mix-blend-mode:normal;solid-color:#000;solid-opacity:1" word-spacing="0"/><path d="M92.3 92.77c-13.93.63-26.93 9.98-32.42 22.67l-.64 14.3-2-3.73c-.03.24-.07.48-.09.73a33.68 33.68 0 0 0 6.96 22.83h12.5c-11.17-7.71-13.42-24.74-5-35.29 7.46-10.48 22.63-14.35 34.1-8.63 1.55-.04 4.37-.06 6.44-.08h10.98c-7.01-7.52-16.92-12.38-27.25-12.76-1.2-.08-2.39-.09-3.57-.04z" color="#000" font-family="Gill Sans Ultra Bold" font-size="44.68" font-weight="400" letter-spacing="0" overflow="visible" paint-order="markers stroke fill" style="line-height:1.25;-inkscape-font-specification:&quot;Gill Sans Ultra Bold, Normal&quot;;font-variant-ligatures:normal;font-variant-position:normal;font-variant-caps:normal;font-variant-numeric:normal;font-variant-alternates:normal;font-variant-east-asian:normal;font-feature-settings:normal;font-variation-settings:normal;text-indent:0;text-align:start;text-decoration-line:none;text-decoration-style:solid;text-decoration-color:#000;text-transform:none;text-orientation:mixed;white-space:normal;shape-padding:0;shape-margin:0;inline-size:0;isolation:auto;mix-blend-mode:normal;solid-color:#000;solid-opacity:1" word-spacing="0"/><path d="M93.48 77.61a58.6 58.6 0 0 0-15.33 2.45l18.46 6.93-35.75 6.47-.63 14.13a35.65 35.65 0 0 1 4.44-5.46c12.56-13.66 34.6-16.75 50.47-7.15 5.17 2.88 12.02 10.58 13.08 10.58l16.6.01c-.03-2.83-4.64-7.94-7.6-11.01-10.47-10.4-24.96-16.42-39.66-16.9a55.73 55.73 0 0 0-4.08-.05z" color="#000" font-family="Gill Sans Ultra Bold" font-size="44.68" font-weight="400" letter-spacing="0" overflow="visible" paint-order="markers stroke fill" style="line-height:1.25;-inkscape-font-specification:&quot;Gill Sans Ultra Bold, Normal&quot;;font-variant-ligatures:normal;font-variant-position:normal;font-variant-caps:normal;font-variant-numeric:normal;font-variant-alternates:normal;font-variant-east-asian:normal;font-feature-settings:normal;font-variation-settings:normal;text-indent:0;text-align:start;text-decoration-line:none;text-decoration-style:solid;text-decoration-color:#000;text-transform:none;text-orientation:mixed;white-space:normal;shape-padding:0;shape-margin:0;inline-size:0;isolation:auto;mix-blend-mode:normal;solid-color:#000;solid-opacity:1" word-spacing="0"/><path d="M95.5 54.72a82.92 82.92 0 0 0-31.1 6.2l-1.8 13.3 7.33 2.76c10.63-5.1 22.72-7.1 34.44-5.04 16.14 2.51 30.88 11.95 40.46 25.1V70.7h-39.15V55.29a85.86 85.86 0 0 0-10.18-.57z" color="#000" font-family="Gill Sans Ultra Bold" font-size="44.68" font-weight="400" letter-spacing="0" overflow="visible" paint-order="markers stroke fill" style="line-height:1.25;-inkscape-font-specification:&quot;Gill Sans Ultra Bold, Normal&quot;;font-variant-ligatures:normal;font-variant-position:normal;font-variant-caps:normal;font-variant-numeric:normal;font-variant-alternates:normal;font-variant-east-asian:normal;font-feature-settings:normal;font-variation-settings:normal;text-indent:0;text-align:start;text-decoration-line:none;text-decoration-style:solid;text-decoration-color:#000;text-transform:none;text-orientation:mixed;white-space:normal;shape-padding:0;shape-margin:0;inline-size:0;isolation:auto;mix-blend-mode:normal;solid-color:#000;solid-opacity:1" word-spacing="0"/><path d="M96.74 25.85a111.7 111.7 0 0 0-52.52 13v27.48l.08.05c.65-.54 1.32-1.05 1.99-1.56l21.2-26.6-2.12 15.64a80.58 80.58 0 0 1 40.36-5.4l.02-2.99 52.74.01c-.04-1.01-7.52-6.22-12.2-8.4a114.27 114.27 0 0 0-49.55-11.23z" color="#000" font-family="Gill Sans Ultra Bold" font-size="44.68" font-weight="400" letter-spacing="0" overflow="visible" paint-order="markers stroke fill" style="line-height:1.25;-inkscape-font-specification:&quot;Gill Sans Ultra Bold, Normal&quot;;font-variant-ligatures:normal;font-variant-position:normal;font-variant-caps:normal;font-variant-numeric:normal;font-variant-alternates:normal;font-variant-east-asian:normal;font-feature-settings:normal;font-variation-settings:normal;text-indent:0;text-align:start;text-decoration-line:none;text-decoration-style:solid;text-decoration-color:#000;text-transform:none;text-orientation:mixed;white-space:normal;shape-padding:0;shape-margin:0;inline-size:0;isolation:auto;mix-blend-mode:normal;solid-color:#000;solid-opacity:1" word-spacing="0"/><path d="M44.22 10.61V32.1c29.98-16.79 67.85-17.97 98.97-3.5 5.3 2.41 10.41 5.24 15.3 8.42V10.6Z" color="#000" font-family="Gill Sans Ultra Bold" font-size="44.68" font-weight="400" letter-spacing="0" overflow="visible" paint-order="markers stroke fill" style="line-height:1.25;-inkscape-font-specification:&quot;Gill Sans Ultra Bold, Normal&quot;;font-variant-ligatures:normal;font-variant-position:normal;font-variant-caps:normal;font-variant-numeric:normal;font-variant-alternates:normal;font-variant-east-asian:normal;font-feature-settings:normal;font-variation-settings:normal;text-indent:0;text-align:start;text-decoration-line:none;text-decoration-style:solid;text-decoration-color:#000;text-transform:none;text-orientation:mixed;white-space:normal;shape-padding:0;shape-margin:0;inline-size:0;isolation:auto;mix-blend-mode:normal;solid-color:#000;solid-opacity:1" word-spacing="0"/><path fill="none" stroke="#fff" stroke-linecap="round" stroke-linejoin="round" stroke-width="5.29" d="M44.98 64.17V11.54h111.09v32.68h-51.45v27.61h38.94v32.36h-38.62v44H45.41Z"/><path fill="#fff" stroke="#000" stroke-width=".28" d="m14.74 52.86 30.07 13.8 21.65-26.92-3.48 34.32 32.98 12.68-35 7.4-1.8 32.99L42 98.07l-34.1 9.09 24-25.7Z"/><path fill-rule="evenodd" d="M70.52 31.14 44.26 64.08 6.32 45.78l23.2 35.16L.42 111.37 41 100.16l19.94 37.1 1.89-42.08 41.45-7.5-6.97-2.61-32.47-12.2Zm-6.06 14.18-4.11 30.25 28.58 10.72-30.04 5.44-1.36 30.5-14.46-26.9-29.43 8.13 21.1-22.05-16.8-25.48L45.42 69.2Z" color="#000" font-family="sans-serif" font-weight="400" overflow="visible" style="line-height:normal;font-variant-ligatures:normal;font-variant-position:normal;font-variant-caps:normal;font-variant-numeric:normal;font-variant-alternates:normal;font-variant-east-asian:normal;font-feature-settings:normal;font-variation-settings:normal;text-indent:0;text-align:start;text-decoration-line:none;text-decoration-style:solid;text-decoration-color:#000;text-transform:none;text-orientation:mixed;white-space:normal;shape-padding:0;shape-margin:0;inline-size:0;isolation:auto;mix-blend-mode:normal;solid-color:#000;solid-opacity:1"/><path fill="#fff" fill-rule="evenodd" d="M93.15 133.41a1.07 1.07 0 0 1-1.07 1.07 1.07 1.07 0 0 1-1.07-1.07 1.07 1.07 0 0 1 1.07-1.07 1.07 1.07 0 0 1 1.07 1.07"/></svg>