<svg width="16" height="16" xmlns:xlink="http://www.w3.org/1999/xlink" xmlns="http://www.w3.org/2000/svg"><defs><linearGradient xlink:href="#d" id="e" x1=".99" y1="3.06" x2="15.01" y2="3.06" gradientUnits="userSpaceOnUse" gradientTransform="matrix(.6802 0 0 .53376 2.604 3.627)"/><linearGradient id="d"><stop offset="0" stop-color="#c9c9c9"/><stop offset="1" stop-color="#fff"/></linearGradient><linearGradient xlink:href="#d" id="f" gradientUnits="userSpaceOnUse" gradientTransform="matrix(.68045 0 0 .52013 2.6 6.522)" x1=".99" y1="3.06" x2="15.01" y2="3.06"/><linearGradient xlink:href="#d" id="g" gradientUnits="userSpaceOnUse" gradientTransform="matrix(.67971 0 0 .56105 2.614 9.104)" x1=".99" y1="3.06" x2="15.01" y2="3.06"/></defs><path style="marker:none" d="M2.626 1.018c3.677-1.293 7.273-1.34 10.78 0 .835.32 1.297.778 1.614 1.614 1.37 3.62 1.348 7.195 0 10.73-.319.835-.779 1.295-1.614 1.614-3.461 1.322-7.064 1.226-10.78 0-.849-.28-1.307-.774-1.613-1.614-1.272-3.489-1.192-7.071 0-10.73.276-.85.77-1.317 1.613-1.614" color="#000" fill="#2e3436" overflow="visible"/><rect width="8.856" height="1.638" x="3.618" y="4.441" ry=".819" fill="url(#e)" fill-rule="evenodd" stroke="#000" stroke-width=".255" stroke-linecap="round" stroke-linejoin="round"/><rect width="8.859" height="1.596" x="3.615" y="7.316" ry=".798" fill="url(#f)" fill-rule="evenodd" stroke="#000" stroke-width=".251" stroke-linecap="round" stroke-linejoin="round"/><rect width="8.85" height="1.722" x="3.627" y="9.96" ry=".861" fill="url(#g)" fill-rule="evenodd" stroke="#000" stroke-width=".261" stroke-linecap="round" stroke-linejoin="round"/></svg>