<svg width="600" height="600" viewBox="0 0 158.75 158.75" xml:space="preserve" xmlns:xlink="http://www.w3.org/1999/xlink" xmlns="http://www.w3.org/2000/svg"><defs><linearGradient id="b"><stop offset="0" stop-color="#fe4703"/><stop offset="1" stop-color="#fff"/></linearGradient><linearGradient id="a"><stop offset="0" stop-color="#ff5600"/><stop offset="1" stop-color="#fff"/></linearGradient><linearGradient xlink:href="#c" id="e" gradientUnits="userSpaceOnUse" x1="4.682" y1="3.659" x2="11.11" y2="11.418" gradientTransform="matrix(11.68201 0 0 11.63937 -13.427 -8.222)"/><linearGradient id="c"><stop offset="0" stop-color="#4080d2"/><stop offset="1" stop-color="#12497c"/></linearGradient><linearGradient xlink:href="#d" id="f" gradientUnits="userSpaceOnUse" x1="4.53" y1="3.666" x2="9.895" y2="10.4" gradientTransform="matrix(9.92157 0 0 9.88373 .61 4.7)"/><linearGradient id="d"><stop offset="0" stop-color="#fff"/><stop offset="1" stop-color="#fff" stop-opacity="0"/></linearGradient></defs><ellipse style="marker:none" cx="79.416" cy="79.322" rx="69.422" ry="68.86" color="#000" overflow="visible" fill="none" stroke="#006bed" stroke-width="19.948" stroke-linecap="round"/><ellipse style="marker:none" cx="79.723" cy="79.43" rx="54.732" ry="54.532" color="#000" overflow="visible" fill="#5283c8" stroke="url(#e)" stroke-width="9.974" stroke-linecap="round"/><ellipse style="marker:none" cx="79.723" cy="79.13" rx="46.484" ry="46.307" color="#000" overflow="visible" fill="none" stroke="url(#f)" stroke-width="4.987" stroke-linecap="round"/><path d="m91.242 84.021 14.043 4.245q-1.415 5.908-4.457 9.87-3.042 3.961-7.57 5.978-4.493 2.016-11.461 2.016-8.455 0-13.831-2.44-5.342-2.477-9.233-8.667-3.891-6.19-3.891-15.848 0-12.876 6.827-19.774 6.862-6.933 19.385-6.933 9.798 0 15.387 3.962 5.625 3.962 8.349 12.168l-14.15 3.149q-.743-2.37-1.556-3.467-1.344-1.84-3.29-2.83t-4.351-.99q-5.448 0-8.348 4.386-2.193 3.254-2.193 10.223 0 8.631 2.617 11.85 2.618 3.184 7.358 3.184 4.599 0 6.933-2.582 2.37-2.583 3.432-7.5z" style="-inkscape-font-specification:&quot;Arial, Heavy&quot;" aria-label="C" font-weight="900" font-size="72.446" font-family="Arial" fill="#fff" paint-order="stroke fill markers"/></svg>