<svg xmlns="http://www.w3.org/2000/svg" xmlns:xlink="http://www.w3.org/1999/xlink" viewBox="0 0 48 48"><defs><linearGradient id="d"><stop offset="0"/><stop offset=".404" stop-color="#5e5e5e"/><stop offset="1" stop-color="#fff"/></linearGradient><linearGradient id="a"><stop offset="0" stop-color="#4c4c4c"/><stop offset="1" stop-color="#0d0d0d"/></linearGradient><linearGradient id="c"><stop offset="0" stop-color="#ff0505"/><stop offset=".522" stop-color="#f4da01"/><stop offset="1" stop-color="#f0e600"/></linearGradient><linearGradient xlink:href="#a" id="f" x1="5.83" x2="12.91" y1="6.7" y2="13.2" gradientUnits="userSpaceOnUse"/><linearGradient xlink:href="#b" id="h" x1="5.83" x2="12.91" y1="6.7" y2="13.2" gradientTransform="matrix(.3989 1.515 -1.5191 .4005 32.953 7.754)" gradientUnits="userSpaceOnUse"/><linearGradient id="b"><stop offset="0" stop-color="#fff"/><stop offset="1" stop-color="#fff"/></linearGradient><radialGradient xlink:href="#c" id="e" cx="7.18" cy="8.2" r="6.59" fx="7.18" fy="8.2" gradientTransform="matrix(.9 .5558 -.5314 .8606 5.08 -2.85)" gradientUnits="userSpaceOnUse"/><radialGradient xlink:href="#d" id="g" cx="7.18" cy="8.2" r="6.59" fx="7.18" fy="8.2" gradientTransform="matrix(-.4853 1.5861 -1.5193 -.4603 39.31 14.309)" gradientUnits="userSpaceOnUse"/><filter id="i" width="1.832" height="1.832" x="-.416" y="-.416" color-interpolation-filters="sRGB"><feGaussianBlur stdDeviation=".13"/></filter></defs><path fill="url(#e)" fill-rule="evenodd" stroke="url(#f)" stroke-width=".85" d="M13.51 5.1c.44.77-2.18 2.89-2.29 3.76-.1.88 1.95 3.55 1.36 4.2-.6.64-3.43-1.19-4.3-1.02-.86.17-2.76 2.95-3.56 2.58-.8-.36.07-3.62-.36-4.39C3.93 9.46.69 8.51.8 7.63c.1-.87 3.47-1.05 4.06-1.7.6-.64.51-4.01 1.38-4.18.86-.18 2.07 2.97 2.87 3.34.8.37 3.97-.76 4.4 0z" enable-background="accumulate" overflow="visible" style="marker:none" transform="matrix(2.647 2.2616 -2.267 2.6553 22.22 -16.85)"/><path fill="none" stroke="#fff" stroke-linejoin="round" stroke-width="2.23" d="m43.15 26.6-13.29 3.06-4.27 13.9-7.3-12.51-14.12.53 9.24-11.12L8.95 7.43l13.08 5.48 11.25-8.56-1.32 14.56Z" enable-background="accumulate" overflow="visible" style="marker:none"/><path fill="url(#g)" fill-rule="evenodd" stroke="url(#h)" stroke-width="1.333" d="M30.595 30.265c-.995.975-5.26-2.146-6.626-1.964-1.376.201-4.615 4.376-5.837 3.743-1.212-.653.44-5.673-.166-6.923-.601-1.235-5.582-3-5.34-4.36.229-1.356 5.528-1.344 6.526-2.304.998-.96 1.15-6.249 2.53-6.434 1.361-.197 2.979 4.836 4.202 5.47 1.211.652 6.295-.834 6.9.416.616 1.23-3.686 4.325-3.93 5.686-.242 1.36 2.739 5.71 1.756 6.666z" enable-background="accumulate" overflow="visible" style="marker:none"/><path fill="#fffdfc" fill-rule="evenodd" d="M8.5 7.99a.37.37 0 0 1-.38.37.37.37 0 0 1-.37-.37.37.37 0 0 1 .37-.38.37.37 0 0 1 .37.37" filter="url(#i)" transform="rotate(36.96 27.006 20.925) scale(3.0331)"/></svg>