<svg width="48" height="48" xmlns:xlink="http://www.w3.org/1999/xlink" xmlns="http://www.w3.org/2000/svg"><defs><linearGradient id="d"><stop offset="0" stop-color="#1a1a1a"/><stop offset="1"/></linearGradient><linearGradient id="a"><stop offset="0" stop-color="#1a1a1a"/><stop offset="1"/></linearGradient><linearGradient id="c"><stop offset="0" stop-color="#ffae05" stop-opacity="0"/><stop offset=".416" stop-color="#7b7b7b" stop-opacity="0"/><stop offset="1" stop-color="#cecece"/></linearGradient><linearGradient xlink:href="#a" id="f" x1="5.83" x2="12.91" y1="6.7" y2="13.2" gradientUnits="userSpaceOnUse"/><linearGradient xlink:href="#d" id="l" x1="21.087" y1="3.828" x2="24" y2="6.609" gradientUnits="userSpaceOnUse" gradientTransform="translate(-31.62 -6.473)scale(2.4121)"/><linearGradient xlink:href="#d" id="m" gradientUnits="userSpaceOnUse" x1="21.087" y1="3.828" x2="24" y2="6.609" gradientTransform="translate(-24.16 -5.543)scale(1.84188)"/><linearGradient xlink:href="#d" id="n" gradientUnits="userSpaceOnUse" x1="21.087" y1="3.828" x2="24" y2="6.609" gradientTransform="translate(-35.292 -4.165)scale(3.52543)"/><linearGradient xlink:href="#d" id="o" gradientUnits="userSpaceOnUse" x1="21.087" y1="3.828" x2="24" y2="6.609" gradientTransform="translate(-59.141 5.463)scale(2.88202)"/><linearGradient xlink:href="#d" id="p" gradientUnits="userSpaceOnUse" x1="21.087" y1="3.828" x2="24" y2="6.609" gradientTransform="translate(-26.306 22.5)scale(2.85513)"/><linearGradient xlink:href="#d" id="h" gradientUnits="userSpaceOnUse" x1="21.087" y1="3.828" x2="24" y2="6.609" gradientTransform="translate(-19.965 27.894)scale(2.88189)"/><linearGradient xlink:href="#d" id="i" gradientUnits="userSpaceOnUse" x1="21.087" y1="3.828" x2="24" y2="6.609" gradientTransform="translate(-43.702 30.873)scale(2.72817)"/><linearGradient xlink:href="#d" id="j" gradientUnits="userSpaceOnUse" x1="21.087" y1="3.828" x2="24" y2="6.609" gradientTransform="translate(-41.273 26.923)scale(2.40475)"/><linearGradient xlink:href="#d" id="k" gradientUnits="userSpaceOnUse" x1="21.087" y1="3.828" x2="24" y2="6.609" gradientTransform="translate(-63.202 27.36)scale(3.16006)"/><filter id="g" width="1.832" height="1.832" x="-.416" y="-.416" color-interpolation-filters="sRGB"><feGaussianBlur stdDeviation=".13"/></filter><filter id="q" width="1.726" height="1.726" x="-.363" y="-.363" color-interpolation-filters="sRGB"><feGaussianBlur stdDeviation=".113"/></filter><filter id="r" width="1.726" height="1.726" x="-.363" y="-.363" color-interpolation-filters="sRGB"><feGaussianBlur stdDeviation=".113"/></filter><filter id="s" width="1.726" height="1.726" x="-.363" y="-.363" color-interpolation-filters="sRGB"><feGaussianBlur stdDeviation=".113"/></filter><filter id="t" width="1.726" height="1.726" x="-.363" y="-.363" color-interpolation-filters="sRGB"><feGaussianBlur stdDeviation=".113"/></filter><filter id="u" width="1.726" height="1.726" x="-.363" y="-.363" color-interpolation-filters="sRGB"><feGaussianBlur stdDeviation=".113"/></filter><filter id="v" width="1.726" height="1.726" x="-.363" y="-.363" color-interpolation-filters="sRGB"><feGaussianBlur stdDeviation=".113"/></filter><filter id="w" width="1.726" height="1.726" x="-.363" y="-.363" color-interpolation-filters="sRGB"><feGaussianBlur stdDeviation=".113"/></filter><filter id="x" width="1.726" height="1.726" x="-.363" y="-.363" color-interpolation-filters="sRGB"><feGaussianBlur stdDeviation=".113"/></filter><filter id="y" width="1.726" height="1.726" x="-.363" y="-.363" color-interpolation-filters="sRGB"><feGaussianBlur stdDeviation=".113"/></filter><radialGradient xlink:href="#c" id="e" cx="7.18" cy="8.2" r="6.59" fx="7.18" fy="8.2" gradientTransform="matrix(.9 .5558 -.5314 .8606 5.08 -2.85)" gradientUnits="userSpaceOnUse"/><path fill="#fffdfc" d="M8.5 7.99a.37.37 0 0 1-.38.37.37.37 0 0 1-.37-.37.37.37 0 0 1 .37-.38.37.37 0 0 1 .37.37" id="reuse-0"/></defs><path fill="url(#e)" fill-rule="evenodd" stroke="url(#f)" stroke-width=".85" d="M13.51 5.1c.44.77-2.18 2.89-2.29 3.76-.1.88 1.95 3.55 1.36 4.2-.6.64-3.43-1.19-4.3-1.02-.86.17-2.76 2.95-3.56 2.58-.8-.36.07-3.62-.36-4.39S.69 8.51.8 7.63c.1-.87 3.47-1.05 4.06-1.7.6-.64.51-4.01 1.38-4.18.86-.18 2.07 2.97 2.87 3.34s3.97-.76 4.4 0Z" enable-background="accumulate" overflow="visible" style="marker:none" transform="matrix(2.647 2.2616 -2.267 2.6553 22.22 -16.85)"/><use fill-rule="evenodd" filter="url(#g)" transform="rotate(36.96 28.44 21)scale(3.0331)" xlink:href="#reuse-0"/><circle cx="43.554" cy="41.295" r="3.629" fill="#f10000" stroke="url(#h)" stroke-linecap="round" stroke-linejoin="round" paint-order="markers stroke fill"/><circle cx="16.429" cy="43.56" r="3.435" fill="#f10000" stroke="url(#i)" stroke-width="1.775" stroke-linecap="round" stroke-linejoin="round" paint-order="markers stroke fill"/><circle cx="11.73" cy="38.106" r="3.028" fill="#f10000" stroke="url(#j)" stroke-width="1.584" stroke-linecap="round" stroke-linejoin="round" paint-order="markers stroke fill"/><circle cx="6.449" cy="42.054" r="3.979" fill="#f10000" stroke="url(#k)" stroke-linecap="round" stroke-linejoin="round" paint-order="markers stroke fill"/><circle cx="21.544" cy="4.744" r="3.037" fill="#f10000" stroke="url(#l)" stroke-width="1.696" stroke-linecap="round" stroke-linejoin="round" paint-order="markers stroke fill"/><circle cx="16.436" cy="3.022" r="2.319" fill="#f10000" stroke="url(#m)" stroke-width="1.009" stroke-linecap="round" stroke-linejoin="round" paint-order="markers stroke fill"/><circle cx="42.411" cy="12.229" r="4.439" fill="#f10000" stroke="url(#n)" stroke-width="1.782" stroke-linecap="round" stroke-linejoin="round" paint-order="markers stroke fill"/><circle cx="4.381" cy="18.865" r="3.629" fill="#f10000" stroke="url(#o)" stroke-width="1.319" stroke-linecap="round" stroke-linejoin="round" paint-order="markers stroke fill"/><circle cx="36.624" cy="35.776" r="3.595" fill="#f10000" stroke="url(#p)" stroke-width="1.672" stroke-linecap="round" stroke-linejoin="round" paint-order="markers stroke fill"/><use fill-rule="evenodd" filter="url(#q)" transform="rotate(36.96 50.887 42.436)scale(2.87735)" style="mix-blend-mode:normal" xlink:href="#reuse-0"/><use fill-rule="evenodd" filter="url(#r)" transform="rotate(36.96 -2.827 64.408)scale(2.21598)" style="mix-blend-mode:normal" xlink:href="#reuse-0"/><use fill-rule="evenodd" filter="url(#s)" transform="rotate(36.96 9.515 48.022)scale(2.6997)" style="mix-blend-mode:normal" xlink:href="#reuse-0"/><use fill-rule="evenodd" filter="url(#t)" transform="rotate(36.96 -9.434 20.504)scale(2.86583)" style="mix-blend-mode:normal" xlink:href="#reuse-0"/><use fill-rule="evenodd" filter="url(#u)" transform="rotate(36.96 -8.662 13.381)scale(2.558)" style="mix-blend-mode:normal" xlink:href="#reuse-0"/><use fill-rule="evenodd" filter="url(#v)" transform="rotate(36.96 -19.156 7.735)scale(2.38183)" style="mix-blend-mode:normal" xlink:href="#reuse-0"/><use fill-rule="evenodd" filter="url(#w)" transform="rotate(36.96 21.545 -9.833)scale(2.8496)" style="mix-blend-mode:normal" xlink:href="#reuse-0"/><use fill-rule="evenodd" filter="url(#x)" transform="rotate(36.96 37.567 7.827)scale(2.03537)" style="mix-blend-mode:normal" xlink:href="#reuse-0"/><use fill-rule="evenodd" filter="url(#y)" transform="rotate(36.96 49.004 10.098)scale(2.7389)" style="mix-blend-mode:normal" xlink:href="#reuse-0"/></svg>