<?xml version="1.0" encoding="UTF-8" standalone="no"?><svg width="48" height="48" sodipodi:docname="icon_palettePlusStarSVG.svg" inkscape:version="1.4 (86a8ad7, 2024-10-11)" xmlns:inkscape="http://www.inkscape.org/namespaces/inkscape" xmlns:sodipodi="http://sodipodi.sourceforge.net/DTD/sodipodi-0.dtd" xmlns:xlink="http://www.w3.org/1999/xlink" xmlns="http://www.w3.org/2000/svg"><sodipodi:namedview pagecolor="#505050" bordercolor="#ffffff" borderopacity="1" inkscape:showpageshadow="0" inkscape:pageopacity="0" inkscape:pagecheckerboard="1" inkscape:deskcolor="#505050" inkscape:zoom="18.813" inkscape:cx="24.425" inkscape:cy="25.807" inkscape:window-width="3840" inkscape:window-height="2126" inkscape:window-x="-11" inkscape:window-y="-11" inkscape:window-maximized="1" inkscape:current-layer="svg6"/><defs><linearGradient id="a"><stop offset="0" stop-color="#4c4c4c" style="stop-color:#1a1a1a;stop-opacity:1"/><stop offset="1" stop-color="#0d0d0d" style="stop-color:#000;stop-opacity:1"/></linearGradient><linearGradient id="b"><stop offset="0" stop-color="#ffeabe" style="stop-color:#ffae05;stop-opacity:0"/><stop offset=".416" stop-color="#ffeabe" style="stop-color:#7b7b7b;stop-opacity:0"/><stop offset="1" stop-color="#434343" style="stop-color:#cecece;stop-opacity:1"/></linearGradient><linearGradient xlink:href="#a" id="u" x1="5.83" x2="12.91" y1="6.7" y2="13.2" gradientUnits="userSpaceOnUse"/><radialGradient xlink:href="#b" id="t" cx="7.18" cy="8.2" r="6.59" fx="7.18" fy="8.2" gradientTransform="matrix(.9 .5558 -.5314 .8606 5.08 -2.85)" gradientUnits="userSpaceOnUse"/><linearGradient id="c"><stop offset="0" stop-color="#ffeabe" style="stop-color:#ff8f05;stop-opacity:1"/><stop offset=".522" stop-color="#ffeabe" style="stop-color:#fee30b;stop-opacity:1"/><stop offset="1" stop-color="#434343" style="stop-color:#fff;stop-opacity:1"/></linearGradient><linearGradient inkscape:collect="always" xlink:href="#d" id="v" x1="2.503" y1="6.147" x2="11.791" y2="6.109" gradientUnits="userSpaceOnUse" gradientTransform="translate(15.672 15.79) scale(.67778)"/><linearGradient id="d" inkscape:collect="always"><stop style="stop-color:#ff0808;stop-opacity:.90196102" offset="0"/><stop style="stop-color:#ff0808;stop-opacity:0" offset="1"/></linearGradient><linearGradient inkscape:collect="always" xlink:href="#e" id="w" x1="15.509" y1="6.05" x2="23.782" y2="6.05" gradientUnits="userSpaceOnUse" gradientTransform="translate(15.672 15.79) scale(.67778)"/><linearGradient id="e" inkscape:collect="always"><stop style="stop-color:#ff4308;stop-opacity:.90196102" offset="0"/><stop style="stop-color:#ff4308;stop-opacity:0" offset="1"/></linearGradient><linearGradient inkscape:collect="always" xlink:href="#f" id="x" x1="26.786" y1="6.022" x2="35.774" y2="6.022" gradientUnits="userSpaceOnUse" gradientTransform="translate(15.672 15.79) scale(.67778)"/><linearGradient id="f" inkscape:collect="always"><stop style="stop-color:#ff6c08;stop-opacity:.90196102" offset="0"/><stop style="stop-color:#ff6c08;stop-opacity:0" offset="1"/></linearGradient><linearGradient inkscape:collect="always" xlink:href="#g" id="y" x1="39.109" y1="6.007" x2="47.759" y2="6.007" gradientUnits="userSpaceOnUse" gradientTransform="translate(15.672 15.79) scale(.67778)"/><linearGradient id="g" inkscape:collect="always"><stop style="stop-color:#ffb908;stop-opacity:.90196102" offset="0"/><stop style="stop-color:#ffb908;stop-opacity:0" offset="1"/></linearGradient><linearGradient inkscape:collect="always" xlink:href="#h" id="z" x1="2.912" y1="17.897" x2="11.712" y2="18.01" gradientUnits="userSpaceOnUse" gradientTransform="translate(15.672 15.79) scale(.67778)"/><linearGradient id="h" inkscape:collect="always"><stop style="stop-color:#edff08;stop-opacity:.90196102" offset="0"/><stop style="stop-color:#edff08;stop-opacity:0" offset="1"/></linearGradient><linearGradient inkscape:collect="always" xlink:href="#i" id="A" x1="14.602" y1="17.913" x2="23.703" y2="17.951" gradientUnits="userSpaceOnUse" gradientTransform="translate(15.672 15.79) scale(.67778)"/><linearGradient id="i" inkscape:collect="always"><stop style="stop-color:#b9ff08;stop-opacity:.90196102" offset="0"/><stop style="stop-color:#b9ff08;stop-opacity:0" offset="1"/></linearGradient><linearGradient inkscape:collect="always" xlink:href="#j" id="B" x1="26.405" y1="17.923" x2="35.694" y2="17.923" gradientUnits="userSpaceOnUse" gradientTransform="translate(15.672 15.79) scale(.67778)"/><linearGradient id="j" inkscape:collect="always"><stop style="stop-color:#0bff08;stop-opacity:.90196102" offset="0"/><stop style="stop-color:#0bff08;stop-opacity:0" offset="1"/></linearGradient><linearGradient inkscape:collect="always" xlink:href="#k" id="C" x1="38.315" y1="18.02" x2="47.679" y2="17.907" gradientUnits="userSpaceOnUse" gradientTransform="translate(15.672 15.79) scale(.67778)"/><linearGradient id="k" inkscape:collect="always"><stop style="stop-color:#08ff8f;stop-opacity:.90196102" offset="0"/><stop style="stop-color:#08ff8f;stop-opacity:0" offset="1"/></linearGradient><linearGradient inkscape:collect="always" xlink:href="#l" id="D" x1="3.337" y1="30.019" x2="11.648" y2="29.907" gradientUnits="userSpaceOnUse" gradientTransform="translate(15.672 15.79) scale(.67778)"/><linearGradient id="l" inkscape:collect="always"><stop style="stop-color:#08ffcb;stop-opacity:.90196102" offset="0"/><stop style="stop-color:#08ffcb;stop-opacity:0" offset="1"/></linearGradient><linearGradient inkscape:collect="always" xlink:href="#m" id="E" x1="14.952" y1="29.885" x2="23.64" y2="29.848" gradientUnits="userSpaceOnUse" gradientTransform="translate(15.672 15.79) scale(.67778)"/><linearGradient id="m" inkscape:collect="always"><stop style="stop-color:#08ffff;stop-opacity:.90196102" offset="0"/><stop style="stop-color:#08ffff;stop-opacity:0" offset="1"/></linearGradient><linearGradient inkscape:collect="always" xlink:href="#n" id="F" x1="26.756" y1="29.82" x2="35.631" y2="29.82" gradientUnits="userSpaceOnUse" gradientTransform="translate(15.672 15.79) scale(.67778)"/><linearGradient id="n" inkscape:collect="always"><stop style="stop-color:#088eff;stop-opacity:.90196102" offset="0"/><stop style="stop-color:#088eff;stop-opacity:0" offset="1"/></linearGradient><linearGradient inkscape:collect="always" xlink:href="#o" id="G" x1="39.192" y1="29.804" x2="47.616" y2="29.804" gradientUnits="userSpaceOnUse" gradientTransform="translate(15.672 15.79) scale(.67778)"/><linearGradient id="o" inkscape:collect="always"><stop style="stop-color:#0e08ff;stop-opacity:.90196102" offset="0"/><stop style="stop-color:#0e08ff;stop-opacity:0" offset="1"/></linearGradient><linearGradient inkscape:collect="always" xlink:href="#p" id="H" x1="2.917" y1="41.9" x2="11.642" y2="41.9" gradientUnits="userSpaceOnUse" gradientTransform="translate(15.672 15.79) scale(.67778)"/><linearGradient id="p" inkscape:collect="always"><stop style="stop-color:#6a08ff;stop-opacity:.90196102" offset="0"/><stop style="stop-color:#6a08ff;stop-opacity:0" offset="1"/></linearGradient><linearGradient inkscape:collect="always" xlink:href="#q" id="I" x1="14.946" y1="41.916" x2="23.633" y2="41.841" gradientUnits="userSpaceOnUse" gradientTransform="translate(15.672 15.79) scale(.67778)"/><linearGradient id="q" inkscape:collect="always"><stop style="stop-color:#bf08ff;stop-opacity:.90196102" offset="0"/><stop style="stop-color:#bf08ff;stop-opacity:0" offset="1"/></linearGradient><linearGradient inkscape:collect="always" xlink:href="#r" id="J" x1="26.674" y1="41.776" x2="35.624" y2="41.813" gradientUnits="userSpaceOnUse" gradientTransform="translate(15.672 15.79) scale(.67778)"/><linearGradient id="r" inkscape:collect="always"><stop style="stop-color:#ff08eb;stop-opacity:.90196102" offset="0"/><stop style="stop-color:#ff08eb;stop-opacity:0" offset="1"/></linearGradient><linearGradient inkscape:collect="always" xlink:href="#d" id="K" x1="38.208" y1="41.798" x2="47.609" y2="41.798" gradientUnits="userSpaceOnUse" gradientTransform="translate(15.672 15.79) scale(.67778)"/><linearGradient inkscape:collect="always" xlink:href="#s" id="L" x1="-9.585" y1="3.195" x2="-9.547" y2="-4.135" gradientUnits="userSpaceOnUse" gradientTransform="translate(18.718 7.029)"/><linearGradient id="s" inkscape:collect="always"><stop style="stop-color:#fff;stop-opacity:.90196102" offset="0"/><stop style="stop-color:#fff;stop-opacity:0" offset="1"/></linearGradient><linearGradient inkscape:collect="always" xlink:href="#s" id="M" gradientUnits="userSpaceOnUse" gradientTransform="translate(30.697 6.955)" x1="-9.585" y1="3.195" x2="-9.547" y2="-4.135"/><linearGradient inkscape:collect="always" xlink:href="#s" id="N" gradientUnits="userSpaceOnUse" gradientTransform="translate(42.63 6.88)" x1="-9.585" y1="3.195" x2="-9.547" y2="-4.135"/><linearGradient inkscape:collect="always" xlink:href="#s" id="O" gradientUnits="userSpaceOnUse" gradientTransform="translate(54.523 6.865)" x1="-9.585" y1="3.195" x2="-9.547" y2="-4.135"/><linearGradient inkscape:collect="always" xlink:href="#s" id="P" gradientUnits="userSpaceOnUse" gradientTransform="translate(18.561 18.848)" x1="-9.585" y1="3.195" x2="-9.547" y2="-4.135"/><linearGradient id="Q" inkscape:collect="always" gradientTransform="scale(.545 1.83485)" x1="60.894" y1="11.871" x2="60.715" y2="7.34" gradientUnits="userSpaceOnUse"><stop style="stop-color:#fff;stop-opacity:.90196102" offset="0"/><stop style="stop-color:#fff;stop-opacity:0" offset="1"/></linearGradient><linearGradient inkscape:collect="always" xlink:href="#s" id="X" gradientUnits="userSpaceOnUse" gradientTransform="translate(30.54 18.774)" x1="-9.585" y1="3.195" x2="-9.547" y2="-4.135"/><linearGradient id="Y" inkscape:collect="always" gradientTransform="scale(.545 1.83485)" x1="16.695" y1="18.403" x2="17.02" y2="13.306" gradientUnits="userSpaceOnUse"><stop style="stop-color:#fff;stop-opacity:.90196102" offset="0"/><stop style="stop-color:#fff;stop-opacity:0" offset="1"/></linearGradient><linearGradient id="Z" inkscape:collect="always" gradientTransform="scale(.545 1.83485)" x1="16.018" y1="24.946" x2="16.343" y2="20.041" gradientUnits="userSpaceOnUse"><stop style="stop-color:#fff;stop-opacity:.90196102" offset="0"/><stop style="stop-color:#fff;stop-opacity:0" offset="1"/></linearGradient><linearGradient id="aa" inkscape:collect="always" gradientTransform="scale(.545 1.83485)" x1="59.639" y1="24.908" x2="59.64" y2="19.319" gradientUnits="userSpaceOnUse"><stop style="stop-color:#fff;stop-opacity:.90196102" offset="0"/><stop style="stop-color:#fff;stop-opacity:0" offset="1"/></linearGradient><linearGradient id="R" inkscape:collect="always" gradientTransform="scale(.545 1.83485)" x1="60.894" y1="11.871" x2="60.715" y2="7.34" gradientUnits="userSpaceOnUse"><stop style="stop-color:#fff;stop-opacity:.90196102" offset="0"/><stop style="stop-color:#fff;stop-opacity:0" offset="1"/></linearGradient><linearGradient id="S" inkscape:collect="always" gradientTransform="scale(.545 1.83485)" x1="60.894" y1="11.871" x2="60.715" y2="7.34" gradientUnits="userSpaceOnUse"><stop style="stop-color:#fff;stop-opacity:.90196102" offset="0"/><stop style="stop-color:#fff;stop-opacity:0" offset="1"/></linearGradient><linearGradient id="T" inkscape:collect="always" gradientTransform="scale(.545 1.83485)" x1="60.894" y1="11.871" x2="60.715" y2="7.34" gradientUnits="userSpaceOnUse"><stop style="stop-color:#fff;stop-opacity:.90196102" offset="0"/><stop style="stop-color:#fff;stop-opacity:0" offset="1"/></linearGradient><linearGradient id="U" inkscape:collect="always" gradientTransform="scale(.545 1.83485)" x1="60.894" y1="11.871" x2="60.715" y2="7.34" gradientUnits="userSpaceOnUse"><stop style="stop-color:#fff;stop-opacity:.90196102" offset="0"/><stop style="stop-color:#fff;stop-opacity:0" offset="1"/></linearGradient><linearGradient id="V" inkscape:collect="always" gradientTransform="scale(.545 1.83485)" x1="60.894" y1="11.871" x2="60.715" y2="7.34" gradientUnits="userSpaceOnUse"><stop style="stop-color:#fff;stop-opacity:.90196102" offset="0"/><stop style="stop-color:#fff;stop-opacity:0" offset="1"/></linearGradient><linearGradient id="W" inkscape:collect="always" gradientTransform="scale(.545 1.83485)" x1="60.894" y1="11.871" x2="60.715" y2="7.34" gradientUnits="userSpaceOnUse"><stop style="stop-color:#fff;stop-opacity:.90196102" offset="0"/><stop style="stop-color:#fff;stop-opacity:0" offset="1"/></linearGradient></defs><path fill="url(#t)" fill-rule="evenodd" stroke="url(#u)" stroke-width=".85" d="M13.51 5.1c.44.77-2.18 2.89-2.29 3.76-.1.88 1.95 3.55 1.36 4.2-.6.64-3.43-1.19-4.3-1.02-.86.17-2.76 2.95-3.56 2.58-.8-.36.07-3.62-.36-4.39C3.93 9.46.69 8.51.8 7.63c.1-.87 3.47-1.05 4.06-1.7.6-.64.51-4.01 1.38-4.18.86-.18 2.07 2.97 2.87 3.34.8.37 3.97-.76 4.4 0Z" overflow="visible" style="marker:none;opacity:1" transform="matrix(2.647 2.2616 -2.267 2.6553 22.22 -16.85)"/><path style="fill:url(#v);fill-opacity:.901961;stroke:#000;stroke-width:.753136;stroke-linecap:round;stroke-linejoin:round;stroke-dasharray:none" d="M16.42 16.498h6.867v6.867H16.42z"/><path style="fill:url(#w);fill-opacity:.901961;stroke:#000;stroke-width:.753136;stroke-linecap:round;stroke-linejoin:round;stroke-dasharray:none" d="M24.548 16.458h6.867v6.867h-6.867z"/><path style="fill:url(#x);fill-opacity:.901961;stroke:#000;stroke-width:.753136;stroke-linecap:round;stroke-linejoin:round;stroke-dasharray:none" d="M32.675 16.439h6.867v6.867h-6.867z"/><path style="fill:url(#y);fill-opacity:.901961;stroke:#000;stroke-width:.753136;stroke-linecap:round;stroke-linejoin:round;stroke-dasharray:none" d="M40.798 16.428h6.867v6.867h-6.867z"/><path style="fill:url(#z);fill-opacity:.901961;stroke:#000;stroke-width:.753136;stroke-linecap:round;stroke-linejoin:round;stroke-dasharray:none" d="M16.366 24.563h6.867v6.867h-6.867z"/><path style="fill:url(#A);fill-opacity:.901961;stroke:#000;stroke-width:.753136;stroke-linecap:round;stroke-linejoin:round;stroke-dasharray:none" d="M24.494 24.523h6.867v6.867h-6.867z"/><path style="fill:url(#B);fill-opacity:.901961;stroke:#000;stroke-width:.753136;stroke-linecap:round;stroke-linejoin:round;stroke-dasharray:none" d="M32.621 24.504h6.867v6.867h-6.867z"/><path style="fill:url(#C);fill-opacity:.901961;stroke:#000;stroke-width:.753136;stroke-linecap:round;stroke-linejoin:round;stroke-dasharray:none" d="M40.744 24.494h6.867v6.867h-6.867z"/><path style="fill:url(#D);fill-opacity:.901961;stroke:#000;stroke-width:.753136;stroke-linecap:round;stroke-linejoin:round;stroke-dasharray:none" d="M16.324 32.627h6.867v6.867h-6.867z"/><path style="fill:url(#E);fill-opacity:.901961;stroke:#000;stroke-width:.753136;stroke-linecap:round;stroke-linejoin:round;stroke-dasharray:none" d="M24.451 32.587h6.867v6.867h-6.867z"/><path style="fill:url(#F);fill-opacity:.901961;stroke:#000;stroke-width:.753136;stroke-linecap:round;stroke-linejoin:round;stroke-dasharray:none" d="M32.578 32.568h6.867v6.867h-6.867z"/><path style="fill:url(#G);fill-opacity:.901961;stroke:#000;stroke-width:.753136;stroke-linecap:round;stroke-linejoin:round;stroke-dasharray:none" d="M40.702 32.557h6.867v6.867h-6.867z"/><path style="fill:url(#H);fill-opacity:.901961;stroke:#000;stroke-width:.753136;stroke-linecap:round;stroke-linejoin:round;stroke-dasharray:none" d="M16.319 40.756h6.867v6.867h-6.867z"/><path style="fill:url(#I);fill-opacity:.901961;stroke:#000;stroke-width:.753136;stroke-linecap:round;stroke-linejoin:round;stroke-dasharray:none" d="M24.446 40.716h6.867v6.867h-6.867z"/><path style="fill:url(#J);fill-opacity:.901961;stroke:#000;stroke-width:.753136;stroke-linecap:round;stroke-linejoin:round;stroke-dasharray:none" d="M32.574 40.697h6.867v6.867h-6.867z"/><path style="fill:url(#K);fill-opacity:.901961;stroke:#000;stroke-width:.753136;stroke-linecap:round;stroke-linejoin:round;stroke-dasharray:none" d="M40.697 40.686h6.867v6.867h-6.867z"/><path style="mix-blend-mode:normal;fill:url(#L);stroke:none;stroke-width:1.11118;stroke-linecap:round;stroke-linejoin:round;stroke-dasharray:none" inkscape:path-effect="#path-effect92" sodipodi:type="rect" d="M9.081 2.857h.255a1 1 45 0 1 1 1v5.592a1 1 135 0 1-1 1h-.255a1 1 45 0 1-1-1V3.857a1 1 135 0 1 1-1z" transform="translate(15.672 15.79) scale(.67778)"/><path style="fill:url(#M);stroke:none;stroke-width:1.11118;stroke-linecap:round;stroke-linejoin:round;stroke-dasharray:none" inkscape:path-effect="#path-effect91" sodipodi:type="rect" d="M21.06 2.782h.255a1 1 45 0 1 1 1v5.593a1 1 135 0 1-1 1h-.256a1 1 45 0 1-1-1V3.782a1 1 135 0 1 1-1z" transform="translate(15.672 15.79) scale(.67778)"/><path style="fill:url(#N);stroke:none;stroke-width:1.11118;stroke-linecap:round;stroke-linejoin:round;stroke-dasharray:none" inkscape:path-effect="#path-effect90" sodipodi:type="rect" d="M32.992 2.707h.255a1 1 45 0 1 1 1V9.3a1 1 135 0 1-1 1h-.255a1 1 45 0 1-1-1V3.707a1 1 135 0 1 1-1z" transform="translate(15.672 15.79) scale(.67778)"/><path style="fill:url(#O);stroke:none;stroke-width:1.11118;stroke-linecap:round;stroke-linejoin:round;stroke-dasharray:none" inkscape:path-effect="#path-effect89" sodipodi:type="rect" d="M44.886 2.692h.256a1 1 45 0 1 1 1v5.593a1 1 135 0 1-1 1h-.256a1 1 45 0 1-1-1V3.692a1 1 135 0 1 1-1z" transform="translate(15.672 15.79) scale(.67778)"/><path style="fill:url(#P);stroke:none;stroke-width:1.11118;stroke-linecap:round;stroke-linejoin:round;stroke-dasharray:none" inkscape:path-effect="#path-effect87" sodipodi:type="rect" d="M20.902 14.601h.255a1 1 45 0 1 1 1v5.593a1 1 135 0 1-1 1h-.255a1 1 45 0 1-1-1v-5.593a1 1 135 0 1 1-1z" transform="translate(15.672 15.79) scale(.67778)"/><path style="fill:url(#Q);stroke:none;stroke-width:1.11118;stroke-linecap:round;stroke-linejoin:round;stroke-dasharray:none" inkscape:path-effect="#path-effect85" sodipodi:type="rect" d="M32.835 14.526h.255a1 1 45 0 1 1 1v5.593a1 1 135 0 1-1 1h-.255a1 1 45 0 1-1-1v-5.593a1 1 135 0 1 1-1z" transform="translate(15.672 15.79) scale(.67778)"/><path style="fill:url(#R);stroke:none;stroke-width:1.11118;stroke-linecap:round;stroke-linejoin:round;stroke-dasharray:none" inkscape:path-effect="#path-effect85-9" sodipodi:type="rect" d="M32.835 14.526h.255a1 1 45 0 1 1 1v5.593a1 1 135 0 1-1 1h-.255a1 1 45 0 1-1-1v-5.593a1 1 135 0 1 1-1z" transform="translate(23.828 23.859) scale(.67778)"/><path style="fill:url(#S);stroke:none;stroke-width:1.11118;stroke-linecap:round;stroke-linejoin:round;stroke-dasharray:none" inkscape:path-effect="#path-effect85-0" sodipodi:type="rect" d="M32.835 14.526h.255a1 1 45 0 1 1 1v5.593a1 1 135 0 1-1 1h-.255a1 1 45 0 1-1-1v-5.593a1 1 135 0 1 1-1z" transform="translate(15.669 23.915) scale(.67778)"/><path style="fill:url(#T);stroke:none;stroke-width:1.11118;stroke-linecap:round;stroke-linejoin:round;stroke-dasharray:none" inkscape:path-effect="#path-effect85-96" sodipodi:type="rect" d="M32.835 14.526h.255a1 1 45 0 1 1 1v5.593a1 1 135 0 1-1 1h-.255a1 1 45 0 1-1-1v-5.593a1 1 135 0 1 1-1z" transform="translate(7.443 23.929) scale(.67778)"/><path style="fill:url(#U);stroke:none;stroke-width:1.11118;stroke-linecap:round;stroke-linejoin:round;stroke-dasharray:none" inkscape:path-effect="#path-effect85-91" sodipodi:type="rect" d="M32.835 14.526h.255a1 1 45 0 1 1 1v5.593a1 1 135 0 1-1 1h-.255a1 1 45 0 1-1-1v-5.593a1 1 135 0 1 1-1z" transform="translate(-.6 15.909) scale(.67778)"/><path style="fill:url(#V);stroke:none;stroke-width:1.11118;stroke-linecap:round;stroke-linejoin:round;stroke-dasharray:none" inkscape:path-effect="#path-effect85-7" sodipodi:type="rect" d="M32.835 14.526h.255a1 1 45 0 1 1 1v5.593a1 1 135 0 1-1 1h-.255a1 1 45 0 1-1-1v-5.593a1 1 135 0 1 1-1z" transform="translate(7.42 32.058) scale(.67778)"/><path style="fill:url(#W);stroke:none;stroke-width:1.11118;stroke-linecap:round;stroke-linejoin:round;stroke-dasharray:none" inkscape:path-effect="#path-effect85-2" sodipodi:type="rect" d="M32.835 14.526h.255a1 1 45 0 1 1 1v5.593a1 1 135 0 1-1 1h-.255a1 1 45 0 1-1-1v-5.593a1 1 135 0 1 1-1z" transform="translate(23.659 31.992) scale(.67778)"/><path style="fill:url(#X);stroke:none;stroke-width:1.11118;stroke-linecap:round;stroke-linejoin:round;stroke-dasharray:none" inkscape:path-effect="#path-effect86" sodipodi:type="rect" d="M44.729 14.511h.255a1 1 45 0 1 1 1v5.593a1 1 135 0 1-1 1h-.255a1 1 45 0 1-1-1v-5.593a1 1 135 0 1 1-1z" transform="translate(15.672 15.79) scale(.67778)"/><path style="fill:url(#Y);stroke:none;stroke-width:1.11118;stroke-linecap:round;stroke-linejoin:round;stroke-dasharray:none" inkscape:path-effect="#path-effect96" sodipodi:type="rect" d="M8.903 26.532h.255a1 1 45 0 1 1 1v5.593a1 1 135 0 1-1 1h-.255a1 1 45 0 1-1-1v-5.593a1 1 135 0 1 1-1z" transform="translate(15.672 15.79) scale(.67778)"/><path style="fill:url(#Z);stroke:none;stroke-width:1.11118;stroke-linecap:round;stroke-linejoin:round;stroke-dasharray:none" inkscape:path-effect="#path-effect97" sodipodi:type="rect" d="M8.73 38.577h.255a1 1 45 0 1 1 1v5.592a1 1 135 0 1-1 1H8.73a1 1 45 0 1-1-1v-5.592a1 1 135 0 1 1-1z" transform="translate(15.672 15.79) scale(.67778)"/><path style="fill:url(#aa);stroke:none;stroke-width:1.11118;stroke-linecap:round;stroke-linejoin:round;stroke-dasharray:none" inkscape:path-effect="#path-effect99" sodipodi:type="rect" d="M32.64 38.427h.256a1 1 45 0 1 1 1v5.593a1 1 135 0 1-1 1h-.255a1 1 45 0 1-1-1v-5.593a1 1 135 0 1 1-1z" transform="translate(15.672 15.79) scale(.67778)"/></svg>