<svg xmlns="http://www.w3.org/2000/svg" xmlns:xlink="http://www.w3.org/1999/xlink" width="48" height="48"><defs><linearGradient id="b"><stop offset="0" stop-color="#4c4c4c"/><stop offset="1" stop-color="#0d0d0d"/></linearGradient><linearGradient id="a"><stop offset="0" stop-color="#39bdff"/><stop offset="1" stop-color="#0038a0"/></linearGradient><linearGradient xlink:href="#b" id="d" x1="5.83" x2="12.91" y1="6.7" y2="13.2" gradientUnits="userSpaceOnUse"/><radialGradient xlink:href="#a" id="c" cx="7.18" cy="8.2" r="6.59" fx="7.18" fy="8.2" gradientTransform="matrix(.9 .5558 -.5314 .8606 5.08 -2.85)" gradientUnits="userSpaceOnUse"/><filter id="e" width="1.83" height="1.83" x="-.42" y="-.42" color-interpolation-filters="sRGB"><feGaussianBlur stdDeviation=".13"/></filter></defs><path fill="url(#c)" fill-rule="evenodd" stroke="url(#d)" stroke-width=".85" d="M13.51 5.1c.44.77-2.18 2.89-2.29 3.76-.1.88 1.95 3.55 1.36 4.2-.6.64-3.43-1.19-4.3-1.02-.86.17-2.76 2.95-3.56 2.58-.8-.36.07-3.62-.36-4.39C3.93 9.46.69 8.51.8 7.63c.1-.87 3.47-1.05 4.06-1.7.6-.64.51-4.01 1.38-4.18.86-.18 2.07 2.97 2.87 3.34.8.37 3.97-.76 4.4 0Z" enable-background="accumulate" overflow="visible" style="marker:none" transform="matrix(2.647 2.2616 -2.267 2.6553 22.22 -16.85)"/><path fill="none" stroke="#fff" stroke-linejoin="round" stroke-width="2.23" d="m43.15 26.6-13.29 3.06-4.27 13.9-7.3-12.51-14.12.53 9.24-11.12L8.95 7.43l13.08 5.48 11.25-8.56-1.32 14.56Z" enable-background="accumulate" overflow="visible" style="marker:none"/><path fill="#fffdfc" fill-rule="evenodd" d="M8.5 7.99a.37.37 0 0 1-.38.37.37.37 0 0 1-.37-.37.37.37 0 0 1 .37-.38.37.37 0 0 1 .37.37" filter="url(#e)" transform="rotate(36.96 28.44 21) scale(3.0331)"/></svg>