<svg width="48" height="48" xmlns:xlink="http://www.w3.org/1999/xlink" xmlns="http://www.w3.org/2000/svg"><defs><linearGradient id="a"><stop style="stop-color:#d3d7cf;stop-opacity:1" offset="0"/><stop style="stop-color:white;stop-opacity:1" offset="1"/></linearGradient><linearGradient xlink:href="#a" id="d" x1="23.201" y1="3.505" x2="22.741" y2="26.46" gradientUnits="userSpaceOnUse" gradientTransform="matrix(1.573 0 0 1.73278 -19.974 -2.401)"/><linearGradient id="b"><stop style="stop-color:#dfeaa1;stop-opacity:1" offset="0"/><stop style="stop-color:#9db029;stop-opacity:1" offset="1"/></linearGradient><linearGradient id="c"><stop style="stop-color:#2e3436;stop-opacity:.69072163" offset="0"/><stop style="stop-color:#2e3436;stop-opacity:0" offset="1"/></linearGradient></defs><path style="color:#000;display:inline;overflow:visible;visibility:visible;fill:url(#d);fill-opacity:1;fill-rule:evenodd;stroke:#2e3436;stroke-width:1.54233;stroke-linecap:butt;stroke-linejoin:round;stroke-miterlimit:4;stroke-dasharray:none;stroke-dashoffset:0;stroke-opacity:1;marker:none" d="M.807 1.15v30.398H12.99l-3.86 15.241 25.286-15.241h12.782V1.15Z"/><path style="color:#000;display:inline;overflow:visible;visibility:visible;fill:none;stroke:#fff;stroke-width:1.02822;stroke-linecap:butt;stroke-linejoin:miter;stroke-miterlimit:6;stroke-dasharray:none;stroke-dashoffset:0;stroke-opacity:1;marker:none" d="M2.085 2.191v27.94h12.174l-2.946 13.847L33.93 30.13h11.913V2.191Z"/><text xml:space="preserve" style="font-style:normal;font-variant:normal;font-weight:400;font-stretch:normal;font-size:15.6079px;line-height:0%;font-family:Tahoma;-inkscape-font-specification:Tahoma;text-align:start;letter-spacing:0;word-spacing:0;writing-mode:lr-tb;text-anchor:start;fill:#000;fill-opacity:1;stroke:none;stroke-width:1.30065" x="4.052" y="11.815"><tspan x="4.052" y="11.815" style="font-size:15.6079px;line-height:1.25;stroke-width:1.30065"> </tspan></text><path style="line-height:1.25;-inkscape-font-specification:'Gill Sans Ultra Bold, Normal';font-variant-ligatures:normal;font-variant-position:normal;font-variant-caps:normal;font-variant-numeric:normal;font-variant-alternates:normal;font-variant-east-asian:normal;font-feature-settings:normal;font-variation-settings:normal;text-indent:0;text-align:start;text-decoration-line:none;text-decoration-style:solid;text-decoration-color:#000;text-transform:none;text-orientation:mixed;white-space:normal;shape-padding:0;shape-margin:0;inline-size:0;opacity:.7;isolation:auto;mix-blend-mode:normal;solid-color:#000;solid-opacity:1;fill:#1858d9;fill-opacity:1;stroke-width:.170617" d="M17.64 20.46a7.867 7.867 0 0 0-.305.618l.004 6.968 1.148-.002h1.54c-.994-1.414-1.267-3.197-.919-4.856z"/><path style="line-height:1.25;-inkscape-font-specification:'Gill Sans Ultra Bold, Normal';font-variant-ligatures:normal;font-variant-position:normal;font-variant-caps:normal;font-variant-numeric:normal;font-variant-alternates:normal;font-variant-east-asian:normal;font-feature-settings:normal;font-variation-settings:normal;text-indent:0;text-align:start;text-decoration-line:none;text-decoration-style:solid;text-decoration-color:#000;text-transform:none;text-orientation:mixed;white-space:normal;shape-padding:0;shape-margin:0;inline-size:0;isolation:auto;mix-blend-mode:normal;solid-color:#000;solid-opacity:1;fill:#1858d9;fill-opacity:1;stroke-width:.170617" d="M25.469 20.702c-2.228.137-4.175 2.36-3.696 4.619.24 1.237 1.191 2.42 2.44 2.714l2.102.007c.464-.172 1.454-.747 1.507-1.441v-3.042c-.905-1.645-3.152-1.502-4.177-.256-1.015 1.402-.137 3.368 1.194 3.584.922.15 1.57-.097 1.991-.645.464-.636.505-1.354.19-1.927-.461-1.121-2.56-1.272-2.718.327.046.807.752 1.455 1.151 1.244.601-.128.483-.845.103-1.027-.446-.215-.575.046-.614-.278-.057-.439.332-.652 1.049-.499 1.024.524.653 1.94-.242 2.193a1.421 1.421 0 0 1-1.545-.454c-.414-.496-.392-1.27-.211-1.756.556-1.165 2.394-1.382 3.168-.259 1.055 1.246.123 3.307-1.443 3.527-1.727.378-3.356-1.41-2.97-3.097.3-1.88 2.685-2.767 4.31-2.081.34.124.65.324.78.42v-.569l.002-.696c-.172-.137-.346-.239-.694-.374a4.134 4.134 0 0 0-1.228-.232c-.15-.01-.3-.01-.45-.002z"/><path style="line-height:1.25;-inkscape-font-specification:'Gill Sans Ultra Bold, Normal';font-variant-ligatures:normal;font-variant-position:normal;font-variant-caps:normal;font-variant-numeric:normal;font-variant-alternates:normal;font-variant-east-asian:normal;font-feature-settings:normal;font-variation-settings:normal;text-indent:0;text-align:start;text-decoration-line:none;text-decoration-style:solid;text-decoration-color:#000;text-transform:none;text-orientation:mixed;white-space:normal;shape-padding:0;shape-margin:0;inline-size:0;opacity:.7;isolation:auto;mix-blend-mode:normal;solid-color:#000;solid-opacity:1;fill:#1858d9;fill-opacity:1;stroke-width:.170617" d="M27.823 27.298s-.276.285-.53.45c-.278.171-.546.29-.546.29l1.081-.003z"/><path fill="#1858d9" d="M25.539 18.353c-2.377.107-4.595 1.703-5.532 3.868l-.109 2.44-.341-.637c-.005.041-.012.082-.015.125a5.746 5.746 0 0 0 1.187 3.895h2.133c-1.906-1.315-2.29-4.221-.853-6.021 1.272-1.788 3.86-2.448 5.818-1.472.264-.007.745-.01 1.098-.014H30.8c-1.196-1.283-2.887-2.112-4.65-2.177a5.641 5.641 0 0 0-.609-.007z" color="#000" font-family="'Gill Sans Ultra Bold'" font-size="44.68" font-weight="400" letter-spacing="0" overflow="visible" paint-order="markers stroke fill" style="line-height:1.25;-inkscape-font-specification:'Gill Sans Ultra Bold, Normal';font-variant-ligatures:normal;font-variant-position:normal;font-variant-caps:normal;font-variant-numeric:normal;font-variant-alternates:normal;font-variant-east-asian:normal;font-feature-settings:normal;font-variation-settings:normal;text-indent:0;text-align:start;text-decoration-line:none;text-decoration-style:solid;text-decoration-color:#000;text-transform:none;text-orientation:mixed;white-space:normal;shape-padding:0;shape-margin:0;inline-size:0;isolation:auto;mix-blend-mode:normal;solid-color:#000;solid-opacity:1;stroke-width:.170617" word-spacing="0"/><path fill="#1858d9" d="M25.74 15.766a9.998 9.998 0 0 0-2.616.418l3.15 1.183-6.1 1.104-.107 2.41a6.082 6.082 0 0 1 .758-.931c2.143-2.33 5.903-2.858 8.61-1.22.883.491 2.051 1.805 2.232 1.805l2.832.002c-.005-.483-.791-1.355-1.296-1.879-1.787-1.774-4.259-2.801-6.767-2.883a9.508 9.508 0 0 0-.696-.009z" color="#000" font-family="'Gill Sans Ultra Bold'" font-size="44.68" font-weight="400" letter-spacing="0" overflow="visible" paint-order="markers stroke fill" style="line-height:1.25;-inkscape-font-specification:'Gill Sans Ultra Bold, Normal';font-variant-ligatures:normal;font-variant-position:normal;font-variant-caps:normal;font-variant-numeric:normal;font-variant-alternates:normal;font-variant-east-asian:normal;font-feature-settings:normal;font-variation-settings:normal;text-indent:0;text-align:start;text-decoration-line:none;text-decoration-style:solid;text-decoration-color:#000;text-transform:none;text-orientation:mixed;white-space:normal;shape-padding:0;shape-margin:0;inline-size:0;opacity:.7;isolation:auto;mix-blend-mode:normal;solid-color:#000;solid-opacity:1;stroke-width:.170617" word-spacing="0"/><path fill="#1858d9" d="M95.5 54.72a82.92 82.92 0 0 0-31.1 6.2l-1.8 13.3 7.33 2.76c10.63-5.1 22.72-7.1 34.44-5.04 16.14 2.51 30.88 11.95 40.46 25.1V70.7h-36.686a2.464 2.464 45 0 1-2.464-2.464V55.29a85.86 85.86 0 0 0-10.18-.57Z" color="#000" font-family="'Gill Sans Ultra Bold'" font-size="44.68" font-weight="400" letter-spacing="0" overflow="visible" paint-order="markers stroke fill" style="line-height:1.25;-inkscape-font-specification:'Gill Sans Ultra Bold, Normal';font-variant-ligatures:normal;font-variant-position:normal;font-variant-caps:normal;font-variant-numeric:normal;font-variant-alternates:normal;font-variant-east-asian:normal;font-feature-settings:normal;font-variation-settings:normal;text-indent:0;text-align:start;text-decoration-line:none;text-decoration-style:solid;text-decoration-color:#000;text-transform:none;text-orientation:mixed;white-space:normal;shape-padding:0;shape-margin:0;inline-size:0;opacity:.8;isolation:auto;mix-blend-mode:normal;solid-color:#000;solid-opacity:1" word-spacing="0" transform="matrix(.17062 0 0 .17062 9.79 2.525)"/><path fill="#1858d9" d="M96.74 25.85a111.7 111.7 0 0 0-52.52 13v27.48l.08.05c.65-.54 1.32-1.05 1.99-1.56l21.2-26.6-2.12 15.64a80.58 80.58 0 0 1 40.36-5.4l.002-.287a2.72 2.72 135.197 0 1 2.721-2.702l50.037.009c-.04-1.01-7.52-6.22-12.2-8.4a114.27 114.27 0 0 0-49.55-11.23Z" color="#000" font-family="'Gill Sans Ultra Bold'" font-size="44.68" font-weight="400" letter-spacing="0" overflow="visible" paint-order="markers stroke fill" style="line-height:1.25;-inkscape-font-specification:'Gill Sans Ultra Bold, Normal';font-variant-ligatures:normal;font-variant-position:normal;font-variant-caps:normal;font-variant-numeric:normal;font-variant-alternates:normal;font-variant-east-asian:normal;font-feature-settings:normal;font-variation-settings:normal;text-indent:0;text-align:start;text-decoration-line:none;text-decoration-style:solid;text-decoration-color:#000;text-transform:none;text-orientation:mixed;white-space:normal;shape-padding:0;shape-margin:0;inline-size:0;opacity:.9;isolation:auto;mix-blend-mode:normal;solid-color:#000;solid-opacity:1" word-spacing="0" transform="matrix(.17062 0 0 .17062 9.79 2.525)"/><path fill="#1858d9" d="M17.335 4.335v3.667c5.116-2.865 11.577-3.066 16.886-.597.905.41 1.776.894 2.61 1.436V4.333Z" color="#000" font-family="'Gill Sans Ultra Bold'" font-size="44.68" font-weight="400" letter-spacing="0" overflow="visible" paint-order="markers stroke fill" style="line-height:1.25;-inkscape-font-specification:'Gill Sans Ultra Bold, Normal';font-variant-ligatures:normal;font-variant-position:normal;font-variant-caps:normal;font-variant-numeric:normal;font-variant-alternates:normal;font-variant-east-asian:normal;font-feature-settings:normal;font-variation-settings:normal;text-indent:0;text-align:start;text-decoration-line:none;text-decoration-style:solid;text-decoration-color:#000;text-transform:none;text-orientation:mixed;white-space:normal;shape-padding:0;shape-margin:0;inline-size:0;isolation:auto;mix-blend-mode:normal;solid-color:#000;solid-opacity:1;stroke-width:.170617" word-spacing="0"/><path fill="none" stroke="#fff" stroke-linecap="round" stroke-linejoin="round" stroke-width=".895" d="M16.894 13.473V3.886h19.525v6.866h-8.152v3.385h6.68v6.845h-6.644v7.526H16.967Z"/><path fill="#fff" stroke="#000" stroke-width=".047" d="m12.306 11.544 5.13 2.354 3.694-4.593-.594 5.856 5.627 2.163-5.971 1.263-.308 5.628-2.927-4.958-5.818 1.551 4.094-4.385z" style="fill:#fff;fill-opacity:1"/><path fill="#fff" fill-rule="evenodd" d="M69.246 32.739 44.26 64.08 7.974 46.578a.506.506 131.166 0 0-.643.735L29.52 80.94 1.598 110.138a.47.47 59.139 0 0 .465.778L41 100.16l19.118 35.57a.479.479 167.158 0 0 .9-.205L62.83 95.18l39.73-7.189a.481.481 95.136 0 0 .084-.924L97.31 85.07l-32.47-12.2 5.404-39.704a.563.563 23.157 0 0-.998-.427ZM64.46 45.32l-4.11 30.25 28.58 10.72-30.04 5.44-1.36 30.5-14.46-26.9-29.43 8.13 21.1-22.05-16.8-25.48L45.42 69.2Z" color="#000" font-family="sans-serif" font-weight="400" overflow="visible" style="line-height:normal;font-variant-ligatures:normal;font-variant-position:normal;font-variant-caps:normal;font-variant-numeric:normal;font-variant-alternates:normal;font-variant-east-asian:normal;font-feature-settings:normal;font-variation-settings:normal;text-indent:0;text-align:start;text-decoration-line:none;text-decoration-style:solid;text-decoration-color:#000;text-transform:none;text-orientation:mixed;white-space:normal;shape-padding:0;shape-margin:0;inline-size:0;isolation:auto;mix-blend-mode:normal;solid-color:#000;solid-opacity:1;fill:#1858d9;fill-opacity:1" transform="matrix(.17062 0 0 .17062 9.79 2.525)"/><path fill="#fff" fill-rule="evenodd" d="M25.684 25.287a.183.183 0 0 1-.183.182.183.183 0 0 1-.182-.182.183.183 0 0 1 .182-.183.183.183 0 0 1 .183.183" style="stroke-width:.170617"/></svg>