<svg xmlns="http://www.w3.org/2000/svg" xmlns:xlink="http://www.w3.org/1999/xlink" width="48" height="48"><defs><linearGradient id="k"><stop offset="0" style="stop-color:#fff;stop-opacity:1"/><stop offset="1" style="stop-color:#fff;stop-opacity:0"/></linearGradient><linearGradient xlink:href="#f" id="v" x1="2" x2="4.833" y1="21.614" y2="21.614" gradientTransform="rotate(-6.94 -5.214 27.34)scale(1.49491)"/><linearGradient id="f" x1="5.505" x2="8.546" y1="11.477" y2="14.519" gradientUnits="userSpaceOnUse"><stop offset="0" stop-color="#11a119"/><stop offset="1" stop-color="#37ae3d"/></linearGradient><linearGradient xlink:href="#f" id="u" x1="2.265" x2="5.379" y1="17.799" y2="18.933" gradientTransform="rotate(-6.94 -5.214 27.34)scale(1.49491)"/><linearGradient xlink:href="#f" id="t" x1="3.639" x2="6.883" y1="14.285" y2="16.158" gradientTransform="rotate(-6.94 -5.214 27.34)scale(1.49491)"/><linearGradient xlink:href="#g" id="r" x1="8.808" x2="10.988" y1="8.486" y2="13.161" gradientTransform="rotate(-6.94 -5.214 27.34)scale(1.49491)"/><linearGradient id="g" x1="18.466" x2="15.924" y1="6.619" y2="13.603" gradientUnits="userSpaceOnUse"><stop offset="0" stop-color="#cfa40c"/><stop offset="1" stop-color="#edd480"/></linearGradient><linearGradient xlink:href="#g" id="q" x1="13.17" x2="13.17" y1="6.51" y2="12.997" gradientTransform="rotate(-6.94 -5.214 27.34)scale(1.49491)"/><linearGradient xlink:href="#h" id="o" x1="24.588" x2="18.776" y1="9.748" y2="15.56" gradientTransform="rotate(-6.94 -5.214 27.34)scale(1.49491)"/><linearGradient id="h" x1="29.662" x2="21.419" y1="18.026" y2="20.234" gradientUnits="userSpaceOnUse"><stop offset="0" stop-color="red"/><stop offset="1" stop-color="#ff6a6a"/></linearGradient><linearGradient xlink:href="#h" id="n" x1="29.662" x2="21.419" y1="18.026" y2="20.234" gradientTransform="rotate(-6.94 -5.214 27.34)scale(1.49491)" gradientUnits="userSpaceOnUse"/><linearGradient xlink:href="#g" id="p" x1="18.466" x2="15.924" y1="6.619" y2="13.603" gradientTransform="rotate(-6.94 -5.214 27.34)scale(1.49491)" gradientUnits="userSpaceOnUse"/><linearGradient xlink:href="#f" id="s" x1="5.505" x2="8.546" y1="11.477" y2="14.519" gradientTransform="rotate(-6.94 -5.214 27.34)scale(1.49491)" gradientUnits="userSpaceOnUse"/><linearGradient xlink:href="#k" id="w" x1="33.032" x2="39.578" y1="30.953" y2="30.172" gradientUnits="userSpaceOnUse"/><linearGradient xlink:href="#k" id="x" x1="33.04" x2="37.669" y1="30.991" y2="26.063" gradientTransform="translate(-4.546 -8.836)" gradientUnits="userSpaceOnUse"/><linearGradient xlink:href="#k" id="y" x1="33.04" x2="35.272" y1="30.969" y2="25.089" gradientTransform="translate(-10.877 -12.715)" gradientUnits="userSpaceOnUse"/><linearGradient xlink:href="#k" id="z" x1="33.151" x2="33.04" y1="30.925" y2="25.741" gradientTransform="translate(-15.954 -13.456)" gradientUnits="userSpaceOnUse"/><linearGradient xlink:href="#k" id="A" x1="33.284" x2="32.184" y1="30.947" y2="26.957" gradientTransform="translate(-21.356 -12.147)" gradientUnits="userSpaceOnUse"/><linearGradient xlink:href="#l" id="B" x1="7.598" x2="12.404" y1="7.681" y2="12.336" gradientTransform="matrix(1.12453 -.29235 .29238 1.1244 47.126 26.974)" gradientUnits="userSpaceOnUse"/><linearGradient id="l"><stop offset="0" style="stop-color:#eeeeec;stop-opacity:1"/><stop offset="1" style="stop-color:#d2d2cc;stop-opacity:1"/></linearGradient><filter id="m" width="1.121" height="1.188" x="-.061" y="-.094" style="color-interpolation-filters:sRGB"><feGaussianBlur stdDeviation="1.06"/></filter></defs><g style="display:inline;opacity:.1;mix-blend-mode:normal;fill:#000;fill-opacity:1;stroke:none;stroke-width:.5;stroke-dasharray:none;stroke-opacity:1;filter:url(#m)" transform="translate(-.63 7.258)scale(1.019)"><path d="M40.406 14.688a22 22 0 0 1 1.518 2.137 22.37 22.37 0 0 1 3.27 11.324L33.64 29.556a15.5 15.5 0 0 0-2.234-6.39zM25.61 17.778a15.1 15.1 0 0 1 4.633 3.77l8.37-8.85a23.2 23.2 0 0 0-8.152-5.257ZM20.957 16.32a13.2 13.2 0 0 1 3.7 1.004l4.011-10.46a19 19 0 0 0-7.065-.574ZM20.059 6.53c-1.82.356-3.577.982-5.212 1.858l1.77 8.275a10.8 10.8 0 0 1 3.705-.395z" style="fill:#000;fill-opacity:1;stroke:none;stroke-width:.5;stroke-dasharray:none;stroke-opacity:1"/><path d="M13.301 9.3a22 22 0 0 0-3.414 2.785l3.38 6.244a11.3 11.3 0 0 1 2.018-1.178zM8.164 13.999a23 23 0 0 0-1.849 2.653l4.223 4.401c.541-.729 1.12-1.418 1.852-2.073z" style="fill:#000;fill-opacity:1;stroke:none;stroke-width:.500163;stroke-dasharray:none;stroke-opacity:1"/><path d="M5.46 18.245a21.3 21.3 0 0 0-1.416 3.83l4.77 1.995q.49-1.157 1.168-2.214zM3.72 23.48a23 23 0 0 0-.423 4.314l4.422.376q.144-1.169.463-2.303zM7.605 29.712a16 16 0 0 0 .213 2.986l-3.917.477a21.4 21.4 0 0 1-.56-3.807Z" style="fill:#000;fill-opacity:1;stroke:none;stroke-width:.5;stroke-dasharray:none;stroke-opacity:1"/></g><g style="stroke:#fff;stroke-width:.5;stroke-dasharray:none;stroke-opacity:1"><path d="M40.406 14.688a22 22 0 0 1 1.518 2.137 22.37 22.37 0 0 1 3.27 11.324L33.64 29.556a15.5 15.5 0 0 0-2.234-6.39z" style="fill:url(#n);stroke:#fff;stroke-width:.70615471;stroke-dasharray:none;stroke-opacity:1" transform="translate(-3.235 .854)scale(1.06209)"/><path d="M25.61 17.778a15.1 15.1 0 0 1 4.633 3.77l8.37-8.85a23.2 23.2 0 0 0-8.152-5.257Z" style="fill:url(#o);stroke:#fff;stroke-width:.70615471;stroke-dasharray:none;stroke-opacity:1" transform="translate(-3.235 .854)scale(1.06209)"/><path d="M20.957 16.32a13.2 13.2 0 0 1 3.7 1.004l4.011-10.46a19 19 0 0 0-7.065-.574Z" style="fill:url(#p);stroke:#fff;stroke-width:.60258535;stroke-dasharray:none;stroke-opacity:1" transform="translate(-3.235 .854)scale(1.06209)"/><path d="M20.059 6.53c-1.82.356-3.577.982-5.212 1.858l1.77 8.275a10.8 10.8 0 0 1 3.705-.395z" style="fill:url(#q);stroke:#fff;stroke-width:.60258535;stroke-dasharray:none;stroke-opacity:1" transform="translate(-3.235 .854)scale(1.06209)"/><path d="M13.301 9.3a22 22 0 0 0-3.414 2.785l3.38 6.244a11.3 11.3 0 0 1 2.018-1.178z" style="fill:url(#r);stroke:#fff;stroke-width:.60258535;stroke-dasharray:none;stroke-opacity:1" transform="translate(-3.235 .854)scale(1.06209)"/><path d="M8.164 13.999a23 23 0 0 0-1.849 2.653l4.223 4.401c.541-.729 1.12-1.418 1.852-2.073z" style="fill:url(#s);stroke:#fff;stroke-width:.499016;stroke-dasharray:none;stroke-opacity:1" transform="translate(-3.235 .854)scale(1.06209)"/><path d="M5.46 18.245a21.3 21.3 0 0 0-1.416 3.83l4.77 1.995q.49-1.157 1.168-2.214z" style="fill:url(#t);stroke:#fff;stroke-width:.499016;stroke-dasharray:none;stroke-opacity:1" transform="translate(-3.235 .854)scale(1.06209)"/><path d="M3.72 23.48a23 23 0 0 0-.423 4.314l4.422.376q.144-1.169.463-2.303z" style="fill:url(#u);stroke:#fff;stroke-width:.499016;stroke-dasharray:none;stroke-opacity:1" transform="translate(-3.235 .854)scale(1.06209)"/><path d="M7.605 29.712a16 16 0 0 0 .213 2.986l-3.917.477a21.4 21.4 0 0 1-.56-3.807Z" style="fill:url(#v);stroke:#fff;stroke-width:.499016;stroke-dasharray:none;stroke-opacity:1" transform="translate(-3.235 .854)scale(1.06209)"/></g><g style="display:inline"><path d="m33.516 30.86 10.39-1.313" style="opacity:1;fill:#000;stroke:url(#w);stroke-width:1;stroke-linecap:round;stroke-linejoin:bevel;stroke-dasharray:none;stroke-opacity:1;paint-order:stroke fill markers"/><path d="m28.881 21.869 7.032-7.72" style="opacity:.85;fill:#000;stroke:url(#x);stroke-width:1;stroke-linecap:round;stroke-linejoin:bevel;stroke-dasharray:none;stroke-opacity:1;paint-order:stroke fill markers"/><path d="m22.263 17.923 3.474-9.046" style="opacity:.7;fill:#000;stroke:url(#y);stroke-width:.8;stroke-linecap:round;stroke-linejoin:bevel;stroke-dasharray:none;stroke-opacity:1;paint-order:stroke fill markers"/><path d="m17.186 17.183-.216-8.185" style="opacity:.5;fill:#000;stroke:url(#z);stroke-width:.8;stroke-linecap:round;stroke-linejoin:bevel;stroke-dasharray:none;stroke-opacity:1;paint-order:stroke fill markers"/><path d="m11.806 18.536-1.63-5.975" style="opacity:.3;fill:#000;stroke:url(#A);stroke-width:.8;stroke-linecap:round;stroke-linejoin:bevel;stroke-dasharray:none;stroke-opacity:1;paint-order:stroke fill markers"/></g><ellipse cx="41.149" cy="41.107" rx="6.577" ry="6.618" style="color:#000;display:inline;overflow:visible;visibility:visible;fill:#000;fill-opacity:1;fill-rule:nonzero;stroke:#fff;stroke-width:.539227;stroke-linecap:butt;stroke-linejoin:miter;stroke-miterlimit:4;stroke-dasharray:none;stroke-dashoffset:0;stroke-opacity:1;marker:none;enable-background:accumulate"/><path d="M60.644 33.586a2.176 2.176 0 1 1-4.21 1.095 2.176 2.176 0 0 1 4.21-1.095zM56.64 26.83a1.255 1.255 0 0 0-.9 1.533l.514 1.978c-.045.235-.07.448-.186.536-.092.07-.254.073-.428.07l-1.918-1.125a1.28 1.28 0 0 0-1.75.455 1.28 1.28 0 0 0 .455 1.75l1.87 1.097c.104.168.173.321.156.447s-.117.259-.263.393l-2.054.534a1.255 1.255 0 0 0-.901 1.534c.175.675.86 1.076 1.534.901l1.978-.514c.235.044.448.07.536.185.07.093.072.254.07.429l-1.126 1.917a1.28 1.28 0 0 0 .455 1.75 1.28 1.28 0 0 0 1.75-.455l1.098-1.87c.168-.104.321-.173.447-.156s.259.117.393.263l.535 2.054c.175.675.86 1.076 1.534.9a1.255 1.255 0 0 0 .9-1.533l-.514-1.978c.044-.235.07-.447.186-.536.092-.07.254-.072.428-.07l1.917 1.126a1.28 1.28 0 0 0 1.75-.455 1.28 1.28 0 0 0-.455-1.75l-1.869-1.098c-.104-.167-.174-.32-.157-.446.017-.127.118-.26.264-.394l2.054-.534a1.255 1.255 0 0 0 .9-1.534 1.255 1.255 0 0 0-1.533-.9l-1.978.514c-.235-.044-.448-.07-.536-.186-.07-.092-.073-.254-.07-.428l1.125-1.917a1.28 1.28 0 0 0-.455-1.75 1.28 1.28 0 0 0-1.75.455l-1.098 1.87c-.167.103-.32.173-.446.156-.127-.017-.26-.118-.394-.263l-.534-2.055a1.255 1.255 0 0 0-1.534-.9z" style="color:#000;display:inline;overflow:visible;visibility:visible;fill:none;stroke:#000;stroke-width:.858621;stroke-miterlimit:4;stroke-dasharray:none;stroke-opacity:1;marker:none;enable-background:accumulate" transform="matrix(.62607 0 0 .62996 4.627 19.81)"/><path d="M60.479 33.088a2.176 2.176 0 1 1-4.211 1.095 2.176 2.176 0 0 1 4.21-1.095zm-4.005-6.756a1.255 1.255 0 0 0-.901 1.534l.514 1.978c-.044.234-.07.447-.185.535-.093.07-.254.073-.429.071l-1.917-1.126a1.28 1.28 0 0 0-1.75.455 1.28 1.28 0 0 0 .455 1.75l1.87 1.098c.103.167.173.32.156.446s-.118.26-.263.394L51.969 34a1.255 1.255 0 0 0-.9 1.533c.175.675.859 1.077 1.533.901l1.979-.514c.234.044.447.07.535.186.07.092.073.253.071.428l-1.126 1.917a1.28 1.28 0 0 0 .455 1.75 1.28 1.28 0 0 0 1.75-.455l1.098-1.87c.167-.103.32-.173.447-.156.126.017.258.118.393.263l.534 2.054c.175.675.86 1.076 1.534.901a1.255 1.255 0 0 0 .9-1.534l-.513-1.978c.044-.234.07-.447.185-.535.093-.07.254-.073.429-.071l1.917 1.126a1.28 1.28 0 0 0 1.75-.455 1.28 1.28 0 0 0-.455-1.75l-1.87-1.098c-.104-.167-.173-.32-.156-.446.017-.127.117-.26.263-.394l2.054-.534a1.255 1.255 0 0 0 .901-1.534 1.255 1.255 0 0 0-1.534-.9l-1.978.514c-.235-.044-.447-.07-.536-.186-.07-.092-.072-.253-.07-.428l1.126-1.917a1.28 1.28 0 0 0-.455-1.75 1.28 1.28 0 0 0-1.75.455l-1.098 1.87c-.168.103-.321.173-.447.156s-.259-.118-.393-.263l-.534-2.054a1.255 1.255 0 0 0-1.534-.901z" style="color:#000;display:inline;overflow:visible;visibility:visible;fill:url(#B);fill-opacity:1;fill-rule:evenodd;stroke:#888a85;stroke-width:.429311;stroke-miterlimit:4;stroke-dasharray:none;marker:none;enable-background:accumulate" transform="matrix(.62607 0 0 .62996 4.627 19.81)"/></svg>