<svg xmlns="http://www.w3.org/2000/svg" width="600" height="600" viewBox="0 0 158.75 158.75"><defs><linearGradient id="r"><stop offset="0" stop-color="#9db6ff"/><stop offset="1" stop-color="#9db6ff" stop-opacity=".49"/></linearGradient><linearGradient id="q"><stop offset="0" stop-color="#abffe6"/><stop offset="1" stop-color="#81ffda" stop-opacity=".51"/></linearGradient><linearGradient id="p"><stop offset="0" stop-color="#ffe9a8"/><stop offset="1" stop-color="#ffe28d" stop-opacity=".49"/></linearGradient><linearGradient id="o"><stop offset="0" stop-color="#ffb4b4"/><stop offset="1" stop-color="#ff9797" stop-opacity=".5"/></linearGradient><linearGradient id="n"><stop offset="0" stop-color="#ffaeef"/><stop offset="1" stop-color="#ff81e7" stop-opacity=".46"/></linearGradient><linearGradient id="m"><stop offset="0" stop-color="#ffd887"/><stop offset="1" stop-color="#ffd378" stop-opacity=".5"/></linearGradient><linearGradient id="l"><stop offset="0" stop-color="#fff3a5"/><stop offset="1" stop-color="#fff3a5" stop-opacity=".48"/></linearGradient><linearGradient id="k"><stop offset="0" stop-color="#85ffe6"/><stop offset="1" stop-color="#85ffe6" stop-opacity=".48"/></linearGradient><linearGradient id="j"><stop offset="0" stop-color="#c9ffd4"/><stop offset="1" stop-color="#a9ffba" stop-opacity=".5"/></linearGradient><linearGradient id="i"><stop offset="0" stop-color="#0f0"/><stop offset="1" stop-color="#0f0" stop-opacity="0"/></linearGradient><linearGradient id="h"><stop offset="0" stop-color="#00ffd0"/><stop offset="1" stop-color="#00ffd0" stop-opacity="0"/></linearGradient><linearGradient id="g"><stop offset="0" stop-color="#ffe600"/><stop offset="1" stop-color="#ffe600" stop-opacity="0"/></linearGradient><linearGradient id="f"><stop offset="0" stop-color="#ff00eb"/><stop offset="1" stop-color="#ff00eb" stop-opacity="0"/></linearGradient><linearGradient id="e"><stop offset="0" stop-color="#ffa425"/><stop offset="1" stop-color="#ffa425" stop-opacity="0"/></linearGradient><linearGradient id="d"><stop offset="0" stop-color="#00f"/><stop offset="1" stop-color="#00f" stop-opacity="0"/></linearGradient><linearGradient id="c"><stop offset="0" stop-color="#00ffac"/><stop offset="1" stop-color="#00ffac" stop-opacity="0"/></linearGradient><linearGradient id="b"><stop offset="0" stop-color="#ffeb00"/><stop offset="1" stop-color="#ffeb00" stop-opacity="0"/></linearGradient><linearGradient id="a"><stop offset="0" stop-color="red"/><stop offset="1" stop-color="red" stop-opacity="0"/></linearGradient></defs><path fill="red" d="M105.57 147.2s-1.63 1.67-3.13 2.65c-1.64 1-3.22 1.7-3.22 1.7h6.38z" color="#000" font-family="Gill Sans Ultra Bold" font-size="44.68" font-weight="400" letter-spacing="0" opacity=".8" overflow="visible" paint-order="markers stroke fill" style="line-height:1.25;-inkscape-font-specification:&quot;Gill Sans Ultra Bold, Normal&quot;;font-variant-ligatures:normal;font-variant-position:normal;font-variant-caps:normal;font-variant-numeric:normal;font-variant-alternates:normal;font-variant-east-asian:normal;font-feature-settings:normal;font-variation-settings:normal;text-indent:0;text-align:start;text-decoration-line:none;text-decoration-style:solid;text-decoration-color:#000;text-transform:none;text-orientation:mixed;white-space:normal;shape-padding:0;shape-margin:0;inline-size:0;isolation:auto;mix-blend-mode:normal;solid-color:#000;solid-opacity:1" word-spacing="0"/><path fill="red" d="M91.67 108.25c-13.15.81-24.64 13.93-21.81 27.27 1.42 7.3 7.03 14.28 14.4 16.02l12.41.04c2.74-1.02 8.58-4.4 8.9-8.5V125.1c-5.35-9.7-18.6-8.85-24.66-1.5-6 8.27-.8 19.87 7.06 21.16 5.43.88 9.26-.58 11.74-3.81 2.74-3.76 2.99-8 1.12-11.38-2.71-6.62-15.11-7.5-16.04 1.93.27 4.77 4.44 8.59 6.8 7.34 3.54-.75 2.84-4.99.6-6.06-2.64-1.27-3.4.27-3.63-1.64-.33-2.59 1.96-3.85 6.2-2.94 6.03 3.08 3.85 11.45-1.43 12.94a8.39 8.39 0 0 1-9.11-2.68c-2.45-2.93-2.33-7.49-1.26-10.36 3.28-6.88 14.13-8.16 18.7-1.53 6.23 7.35.73 19.51-8.52 20.81-10.19 2.23-19.8-8.32-17.53-18.28 1.77-11.1 15.86-16.33 25.44-12.3 2.02.75 3.84 1.93 4.6 2.5l.02-3.36v-4.11c-1.02-.8-2.04-1.4-4.1-2.2a24.4 24.4 0 0 0-7.25-1.37c-.89-.06-1.77-.07-2.65-.02z" color="#000" font-family="Gill Sans Ultra Bold" font-size="44.68" font-weight="400" letter-spacing="0" overflow="visible" paint-order="markers stroke fill" style="line-height:1.25;-inkscape-font-specification:&quot;Gill Sans Ultra Bold, Normal&quot;;font-variant-ligatures:normal;font-variant-position:normal;font-variant-caps:normal;font-variant-numeric:normal;font-variant-alternates:normal;font-variant-east-asian:normal;font-feature-settings:normal;font-variation-settings:normal;text-indent:0;text-align:start;text-decoration-line:none;text-decoration-style:solid;text-decoration-color:#000;text-transform:none;text-orientation:mixed;white-space:normal;shape-padding:0;shape-margin:0;inline-size:0;isolation:auto;mix-blend-mode:normal;solid-color:#000;solid-opacity:1" word-spacing="0"/><path fill="red" d="M45.46 106.82a46.44 46.44 0 0 0-1.8 3.65l.02 41.13 6.78-.01h9.09c-5.88-8.34-7.48-18.87-5.43-28.66z" color="#000" font-family="Gill Sans Ultra Bold" font-size="44.68" font-weight="400" letter-spacing="0" opacity=".3" overflow="visible" paint-order="markers stroke fill" style="line-height:1.25;-inkscape-font-specification:&quot;Gill Sans Ultra Bold, Normal&quot;;font-variant-ligatures:normal;font-variant-position:normal;font-variant-caps:normal;font-variant-numeric:normal;font-variant-alternates:normal;font-variant-east-asian:normal;font-feature-settings:normal;font-variation-settings:normal;text-indent:0;text-align:start;text-decoration-line:none;text-decoration-style:solid;text-decoration-color:#000;text-transform:none;text-orientation:mixed;white-space:normal;shape-padding:0;shape-margin:0;inline-size:0;isolation:auto;mix-blend-mode:normal;solid-color:#000;solid-opacity:1" word-spacing="0"/><path fill="red" d="M92.1 94.4c-14.04.62-27.14 10.03-32.66 22.81l-.65 14.41-2.02-3.76c-.02.25-.07.49-.08.74a33.92 33.92 0 0 0 7 22.99h12.6c-11.25-7.77-13.52-24.91-5.04-35.54 7.51-10.55 22.79-14.46 34.35-8.69 1.56-.05 4.4-.06 6.48-.08h11.06c-7.06-7.58-17.04-12.47-27.44-12.86-1.21-.07-2.4-.08-3.6-.03z" color="#000" font-family="Gill Sans Ultra Bold" font-size="44.68" font-weight="400" letter-spacing="0" overflow="visible" paint-order="markers stroke fill" style="line-height:1.25;-inkscape-font-specification:&quot;Gill Sans Ultra Bold, Normal&quot;;font-variant-ligatures:normal;font-variant-position:normal;font-variant-caps:normal;font-variant-numeric:normal;font-variant-alternates:normal;font-variant-east-asian:normal;font-feature-settings:normal;font-variation-settings:normal;text-indent:0;text-align:start;text-decoration-line:none;text-decoration-style:solid;text-decoration-color:#000;text-transform:none;text-orientation:mixed;white-space:normal;shape-padding:0;shape-margin:0;inline-size:0;isolation:auto;mix-blend-mode:normal;solid-color:#000;solid-opacity:1" word-spacing="0"/><path fill="red" d="M93.27 79.12c-5.2.12-10.42.97-15.44 2.46l18.6 6.98-36 6.52-.64 14.23a35.9 35.9 0 0 1 4.47-5.5c12.65-13.75 34.84-16.87 50.83-7.2 5.2 2.9 12.1 10.66 13.17 10.66l16.73.01c-.04-2.86-4.68-8-7.67-11.1-10.54-10.46-25.13-16.53-39.94-17a56.13 56.13 0 0 0-4.1-.06z" color="#000" font-family="Gill Sans Ultra Bold" font-size="44.68" font-weight="400" letter-spacing="0" opacity=".3" overflow="visible" paint-order="markers stroke fill" style="line-height:1.25;-inkscape-font-specification:&quot;Gill Sans Ultra Bold, Normal&quot;;font-variant-ligatures:normal;font-variant-position:normal;font-variant-caps:normal;font-variant-numeric:normal;font-variant-alternates:normal;font-variant-east-asian:normal;font-feature-settings:normal;font-variation-settings:normal;text-indent:0;text-align:start;text-decoration-line:none;text-decoration-style:solid;text-decoration-color:#000;text-transform:none;text-orientation:mixed;white-space:normal;shape-padding:0;shape-margin:0;inline-size:0;isolation:auto;mix-blend-mode:normal;solid-color:#000;solid-opacity:1" word-spacing="0"/><path fill="red" d="M95.3 56.06c-10.7.02-21.4 2.2-31.31 6.26L62.17 75.7l7.38 2.77c10.71-5.13 22.9-7.14 34.7-5.07 16.25 2.53 31.1 12.03 40.74 25.28V72.16h-39.43V56.63c-3.4-.38-6.83-.59-10.25-.57z" color="#000" font-family="Gill Sans Ultra Bold" font-size="44.68" font-weight="400" letter-spacing="0" opacity=".65" overflow="visible" paint-order="markers stroke fill" style="line-height:1.25;-inkscape-font-specification:&quot;Gill Sans Ultra Bold, Normal&quot;;font-variant-ligatures:normal;font-variant-position:normal;font-variant-caps:normal;font-variant-numeric:normal;font-variant-alternates:normal;font-variant-east-asian:normal;font-feature-settings:normal;font-variation-settings:normal;text-indent:0;text-align:start;text-decoration-line:none;text-decoration-style:solid;text-decoration-color:#000;text-transform:none;text-orientation:mixed;white-space:normal;shape-padding:0;shape-margin:0;inline-size:0;isolation:auto;mix-blend-mode:normal;solid-color:#000;solid-opacity:1" word-spacing="0"/><path fill="red" d="M96.56 26.98a112.51 112.51 0 0 0-52.9 13.1v27.68l.08.04c.66-.54 1.33-1.05 2-1.56L67.1 39.45 64.96 55.2a81.16 81.16 0 0 1 40.65-5.45l.02-3 53.12.01c-.04-1.02-7.57-6.27-12.28-8.47A115.09 115.09 0 0 0 96.56 27z" color="#000" font-family="Gill Sans Ultra Bold" font-size="44.68" font-weight="400" letter-spacing="0" opacity=".85" overflow="visible" paint-order="markers stroke fill" style="line-height:1.25;-inkscape-font-specification:&quot;Gill Sans Ultra Bold, Normal&quot;;font-variant-ligatures:normal;font-variant-position:normal;font-variant-caps:normal;font-variant-numeric:normal;font-variant-alternates:normal;font-variant-east-asian:normal;font-feature-settings:normal;font-variation-settings:normal;text-indent:0;text-align:start;text-decoration-line:none;text-decoration-style:solid;text-decoration-color:#000;text-transform:none;text-orientation:mixed;white-space:normal;shape-padding:0;shape-margin:0;inline-size:0;isolation:auto;mix-blend-mode:normal;solid-color:#000;solid-opacity:1" word-spacing="0"/><path fill="red" d="M43.66 11.64v21.63c30.2-16.9 68.33-18.1 99.68-3.53 5.34 2.44 10.49 5.28 15.41 8.48V11.64Z" color="#000" font-family="Gill Sans Ultra Bold" font-size="44.68" font-weight="400" letter-spacing="0" overflow="visible" paint-order="markers stroke fill" style="line-height:1.25;-inkscape-font-specification:&quot;Gill Sans Ultra Bold, Normal&quot;;font-variant-ligatures:normal;font-variant-position:normal;font-variant-caps:normal;font-variant-numeric:normal;font-variant-alternates:normal;font-variant-east-asian:normal;font-feature-settings:normal;font-variation-settings:normal;text-indent:0;text-align:start;text-decoration-line:none;text-decoration-style:solid;text-decoration-color:#000;text-transform:none;text-orientation:mixed;white-space:normal;shape-padding:0;shape-margin:0;inline-size:0;isolation:auto;mix-blend-mode:normal;solid-color:#000;solid-opacity:1" word-spacing="0"/><path fill="red" fill-rule="evenodd" d="M70.15 32.32 43.7 65.49 5.5 47.06l23.38 35.41-29.34 30.65 40.9-11.3 20.09 37.37 1.9-42.38 41.74-7.55-7.01-2.63-32.71-12.28Zm-6.1 14.28L59.9 77.06l28.78 10.8-30.25 5.48-1.37 30.71L42.5 96.97l-29.64 8.19 21.26-22.22L17.2 57.28l27.69 13.35Z" color="#000" font-family="sans-serif" font-weight="400" overflow="visible" style="line-height:normal;font-variant-ligatures:normal;font-variant-position:normal;font-variant-caps:normal;font-variant-numeric:normal;font-variant-alternates:normal;font-variant-east-asian:normal;font-feature-settings:normal;font-variation-settings:normal;text-indent:0;text-align:start;text-decoration-line:none;text-decoration-style:solid;text-decoration-color:#000;text-transform:none;text-orientation:mixed;white-space:normal;shape-padding:0;shape-margin:0;inline-size:0;isolation:auto;mix-blend-mode:normal;solid-color:#000;solid-opacity:1"/><path fill-rule="evenodd" d="M92.94 135.32a1.08 1.08 0 0 1-1.07 1.08 1.08 1.08 0 0 1-1.08-1.08 1.08 1.08 0 0 1 1.07-1.08 1.08 1.08 0 0 1 1.08 1.08"/></svg>