<svg xmlns="http://www.w3.org/2000/svg" xml:space="preserve" width="256" height="256"><g fill="none" stroke-miterlimit="10" stroke-width="0" transform="matrix(2.81 0 0 2.81 1.4 1.4)"><linearGradient id="a" x1="7.55" x2="82.45" y1="9.55" y2="84.45" gradientTransform="matrix(1 0 0 -1 0 92)" gradientUnits="userSpaceOnUse"><stop offset="0%" stop-color="#ffd600"/><stop offset="50%" stop-color="#ff0100"/><stop offset="100%" stop-color="#d800b9"/></linearGradient><path fill="url(#a)" d="M89.73 26.45c-.22-4.8-.98-8.06-2.1-10.93-1.12-3-2.9-5.72-5.18-7.97a22.06 22.06 0 0 0-7.97-5.19C71.6 1.25 68.34.5 63.55.27 58.75.05 57.22 0 45 0S31.25.05 26.45.27c-4.8.22-8.06.98-10.93 2.1-3 1.12-5.72 2.9-7.97 5.18a22.05 22.05 0 0 0-5.19 7.97C1.25 18.4.5 21.66.27 26.45.05 31.25 0 32.78 0 45s.05 13.76.27 18.55c.22 4.8.98 8.07 2.1 10.93 1.12 3 2.9 5.72 5.18 7.97a22.04 22.04 0 0 0 7.98 5.19c2.86 1.11 6.13 1.87 10.92 2.09 4.8.22 6.33.27 18.55.27s13.75-.05 18.55-.27c4.8-.22 8.07-.98 10.93-2.1a23 23 0 0 0 13.16-13.15c1.11-2.87 1.87-6.14 2.09-10.93.22-4.8.27-6.33.27-18.55s-.05-13.75-.27-18.55zm-8.1 36.73c-.2 4.4-.93 6.78-1.55 8.36a14.9 14.9 0 0 1-8.54 8.54c-1.59.62-3.97 1.35-8.36 1.55-4.74.22-6.16.26-18.18.26s-13.44-.04-18.18-.26c-4.4-.2-6.77-.93-8.36-1.55a13.95 13.95 0 0 1-5.17-3.37 13.95 13.95 0 0 1-3.37-5.17c-.62-1.59-1.35-3.97-1.55-8.36-.22-4.74-.26-6.16-.26-18.18s.04-13.44.26-18.18c.2-4.4.93-6.77 1.55-8.36a13.95 13.95 0 0 1 3.37-5.18 13.94 13.94 0 0 1 5.17-3.36c1.59-.62 3.97-1.35 8.36-1.55 4.74-.22 6.16-.26 18.18-.26s13.44.04 18.18.26c4.4.2 6.77.93 8.36 1.55 1.95.72 3.72 1.87 5.17 3.37a13.94 13.94 0 0 1 3.37 5.17c.62 1.59 1.35 3.97 1.55 8.36.22 4.74.26 6.17.26 18.18 0 12.02-.04 13.44-.26 18.19z"/><linearGradient id="b" x1="28.66" x2="61.34" y1="30.66" y2="63.34" gradientTransform="matrix(1 0 0 -1 0 92)" gradientUnits="userSpaceOnUse"><stop offset="0%" stop-color="#ff6400"/><stop offset="50%" stop-color="#ff0100"/><stop offset="100%" stop-color="#fd0056"/></linearGradient><path fill="url(#b)" d="M45 21.9a23.1 23.1 0 1 0 0 46.2 23.1 23.1 0 0 0 0-46.2zM45 60a15 15 0 1 1 0-30 15 15 0 0 1 0 30z"/><linearGradient id="c" x1="65.2" x2="72.84" y1="67.2" y2="74.84" gradientTransform="matrix(1 0 0 -1 0 92)" gradientUnits="userSpaceOnUse"><stop offset="0%" stop-color="#f30072"/><stop offset="100%" stop-color="#e50097"/></linearGradient><path fill="url(#c)" d="M74.42 20.98a5.4 5.4 0 1 1-10.8 0 5.4 5.4 0 0 1 10.8 0z"/></g></svg>