<?xml version="1.0" encoding="UTF-8" standalone="no"?><svg width="48" height="48" sodipodi:version=".32" inkscape:version="1.3.2 (091e20e, 2023-11-25, custom)" sodipodi:docname="icon_geo_reloadSVG.svg" xmlns:inkscape="http://www.inkscape.org/namespaces/inkscape" xmlns:sodipodi="http://sodipodi.sourceforge.net/DTD/sodipodi-0.dtd" xmlns="http://www.w3.org/2000/svg"><defs><linearGradient id="a"><stop offset="0" style="stop-color:#ffe681;stop-opacity:1"/><stop offset="1" style="stop-color:#f60;stop-opacity:1"/></linearGradient></defs><sodipodi:namedview pagecolor="#ffffff" bordercolor="#666666" borderopacity="1" inkscape:pageopacity="0" inkscape:pageshadow="2" inkscape:zoom="22.627" inkscape:cx="30.604" inkscape:cy="26.87" inkscape:current-layer="layer1" showgrid="true" inkscape:grid-bbox="false" inkscape:document-units="px" inkscape:window-width="3840" inkscape:window-height="2126" inkscape:window-x="-11" inkscape:window-y="-11" inkscape:object-paths="true" inkscape:showpageshadow="0" inkscape:pagecheckerboard="1" inkscape:deskcolor="#505050" inkscape:window-maximized="1"/><g inkscape:label="Layer 1" inkscape:groupmode="layer"><path style="fill:#2e2e2e;fill-opacity:1;fill-rule:evenodd;stroke:#000;stroke-width:1.10233px;stroke-linecap:butt;stroke-linejoin:round;stroke-opacity:1" d="M.638 19.42 8.381 6.347 6.45 15.32Z" sodipodi:nodetypes="cccc"/><path style="fill:#6d6d6d;fill-opacity:1;fill-rule:evenodd;stroke:#000;stroke-width:1.10233px;stroke-linecap:butt;stroke-linejoin:round;stroke-opacity:1" d="m8.304 6.239 9.273 1.314L22.29.675z"/><path style="fill:#7a7a7a;fill-opacity:1;fill-rule:evenodd;stroke:#000;stroke-width:1.10233px;stroke-linecap:butt;stroke-linejoin:round;stroke-opacity:1" d="m22.445.598 8.423 4.482 5.796-1.082z"/><path style="fill:#767676;fill-opacity:1;fill-rule:evenodd;stroke:#000;stroke-width:1.10233px;stroke-linecap:butt;stroke-linejoin:round;stroke-opacity:1" d="m36.51 3.92 5.64 9.274 3.4 1.854z"/><path style="fill:#7a7a7a;fill-opacity:1;fill-rule:evenodd;stroke:#000;stroke-width:1.10233px;stroke-linecap:butt;stroke-linejoin:round;stroke-opacity:1" d="m45.705 14.894-3.555-1.778 5.1 11.437z"/><path style="fill:#7f7f7f;fill-opacity:1;fill-rule:evenodd;stroke:#000;stroke-width:1.10233px;stroke-linecap:butt;stroke-linejoin:round;stroke-opacity:1" d="m47.405 24.321-6.955 3.323 2.705 9.582z"/><path style="fill:#4a4a4a;fill-opacity:1;fill-rule:evenodd;stroke:#000;stroke-width:1.10233px;stroke-linecap:butt;stroke-linejoin:round;stroke-opacity:1" d="M43.155 37.458 31.95 41.09l1.39 4.868Z" sodipodi:nodetypes="cccc"/><path style="fill:#313131;fill-opacity:1;fill-rule:evenodd;stroke:#000;stroke-width:1.10233px;stroke-linecap:butt;stroke-linejoin:round;stroke-opacity:1" d="m33.495 45.958-1.7-4.946-11.127 6.26Z"/><path style="fill:#000;fill-opacity:1;fill-rule:evenodd;stroke:#000;stroke-width:1.10233px;stroke-linecap:butt;stroke-linejoin:round;stroke-opacity:1" d="m20.977 47.272-9.35-3.169-3.091-3.245ZM8.69 40.935l-6.568-7.418 2.473-4.482Z"/><path style="fill:#000;fill-opacity:1;fill-rule:evenodd;stroke:#000;stroke-width:1.10233px;stroke-linecap:butt;stroke-linejoin:round;stroke-opacity:1" d="M2.045 33.517.499 19.144l4.096 10.123Z"/><path style="fill:#6e6e6e;fill-opacity:1;fill-rule:evenodd;stroke:#000;stroke-width:1.10233px;stroke-linecap:butt;stroke-linejoin:round;stroke-opacity:1" d="M6.372 15.59 8.46 6.238l9.504 1.545Z"/><path style="fill:#929292;fill-opacity:1;fill-rule:evenodd;stroke:#000;stroke-width:1.10233px;stroke-linecap:butt;stroke-linejoin:round;stroke-opacity:1" d="M17.731 7.707 22.677.753l8.268 4.481Z"/><path style="fill:#979797;fill-opacity:1;fill-rule:evenodd;stroke:#000;stroke-width:1.10233px;stroke-linecap:butt;stroke-linejoin:round;stroke-opacity:1" d="m31.023 5.157 5.64-1.159 5.564 9.427Z"/><path style="fill:#a3a3a3;fill-opacity:1;fill-rule:evenodd;stroke:#000;stroke-width:1.10233px;stroke-linecap:butt;stroke-linejoin:round;stroke-opacity:1" d="M42.382 13.503 40.45 27.799l7.032-3.246z"/><path style="fill:#7f7f7f;fill-opacity:1;fill-rule:evenodd;stroke:#000;stroke-width:1.10233px;stroke-linecap:butt;stroke-linejoin:round;stroke-opacity:1" d="M40.682 27.567 31.95 41.244l11.36-3.863Z"/><path style="fill:#505050;fill-opacity:1;fill-rule:evenodd;stroke:#000;stroke-width:1.10233px;stroke-linecap:butt;stroke-linejoin:round;stroke-opacity:1" d="M32.104 41.012 20.9 47.35l-4.328-9.505z"/><path style="fill:#2d2d2d;fill-opacity:1;fill-rule:evenodd;stroke:#000;stroke-width:1.10233px;stroke-linecap:butt;stroke-linejoin:round;stroke-opacity:1" d="m16.727 37.844-7.882 3.4 11.977 6.028Z" sodipodi:nodetypes="cccc"/><path style="fill:#414141;fill-opacity:1;fill-rule:evenodd;stroke:#000;stroke-width:1.10233px;stroke-linecap:butt;stroke-linejoin:round;stroke-opacity:1" d="m16.495 37.767-7.727 3.555-4.56-12.364Z" sodipodi:nodetypes="cccc"/><path style="fill:#303030;fill-opacity:1;fill-rule:evenodd;stroke:#000;stroke-width:1.10233px;stroke-linecap:butt;stroke-linejoin:round;stroke-opacity:1" d="m4.363 29.267 2.164-13.832-5.95 4.25Z"/><path style="fill:#449800;fill-opacity:1;fill-rule:evenodd;stroke:#000;stroke-width:1.10233px;stroke-linecap:butt;stroke-linejoin:round;stroke-opacity:1" d="m6.372 15.435 9.041 7.032-10.818 6.568Z"/><path style="fill:#999;fill-opacity:1;fill-rule:evenodd;stroke:#000;stroke-width:1.10233px;stroke-linecap:butt;stroke-linejoin:round;stroke-opacity:1" d="M6.527 15.512 17.886 7.63l-2.55 14.991Z"/><path style="fill:#c7c7c7;fill-opacity:1;fill-rule:evenodd;stroke:#000;stroke-width:1.10233px;stroke-linecap:butt;stroke-linejoin:round;stroke-opacity:1" d="m17.886 7.63 13.368-2.473-.927 10.896Z"/><path style="fill:#cdcdcd;fill-opacity:1;fill-rule:evenodd;stroke:#000;stroke-width:1.10233px;stroke-linecap:butt;stroke-linejoin:round;stroke-opacity:1" d="m30.327 16.053 11.9-2.86-1.7 14.837Z"/><path style="fill:#f0f0f0;fill-opacity:1;fill-rule:evenodd;stroke:#000;stroke-width:1.10233px;stroke-linecap:butt;stroke-linejoin:round;stroke-opacity:1" d="M30.404 15.976 17.886 7.63l-2.55 15.223Z"/><path style="fill:#ff0101;fill-opacity:1;fill-rule:evenodd;stroke:#000;stroke-width:1.10233px;stroke-linecap:butt;stroke-linejoin:round;stroke-opacity:1" d="m15.259 22.544 1.313 15.3L27.7 29.808z"/><path style="fill:#00b597;fill-opacity:1;fill-rule:evenodd;stroke:#000;stroke-width:1.10233px;stroke-linecap:butt;stroke-linejoin:round;stroke-opacity:1" d="m27.7 29.885 4.404 11.282 8.655-13.678z"/><path style="fill:#fff;fill-opacity:1;fill-rule:evenodd;stroke:#000;stroke-width:1.10233px;stroke-linecap:butt;stroke-linejoin:round;stroke-opacity:1" d="m27.623 29.962 2.627-14.064L40.527 28.03z"/><path style="fill:silver;fill-opacity:1;fill-rule:evenodd;stroke:#000;stroke-width:1.10233px;stroke-linecap:butt;stroke-linejoin:round;stroke-opacity:1" d="M42.266 13.232 31.139 5.196l-.773 11.05Z" sodipodi:nodetypes="cccc"/><path style="fill:#ffd7d7;fill-opacity:1;fill-rule:evenodd;stroke:#000;stroke-width:1.10233px;stroke-linecap:butt;stroke-linejoin:round;stroke-opacity:1" d="m27.775 30.214 2.577-14.335-15.1 6.555Z" sodipodi:nodetypes="cccc"/><path style="fill:#ff840d;fill-opacity:1;fill-rule:evenodd;stroke:#000;stroke-width:1.10233px;stroke-linecap:butt;stroke-linejoin:round;stroke-opacity:1" d="m15.336 22.39 1.314 15.377-12.21-8.578Z" sodipodi:nodetypes="cccc"/><path style="fill:#ffe80d;fill-opacity:1;fill-rule:evenodd;stroke:#000;stroke-width:1.10233px;stroke-linecap:butt;stroke-linejoin:round;stroke-opacity:1" d="m16.611 37.69 11.205-7.65 4.327 11.282z" sodipodi:nodetypes="cccc"/></g></svg>