<svg width="48" height="48" xmlns:xlink="http://www.w3.org/1999/xlink" xmlns="http://www.w3.org/2000/svg"><defs><linearGradient id="a"><stop offset="0" stop-color="#1a1a1a"/><stop offset="1"/></linearGradient><linearGradient id="b"><stop offset="0" stop-color="#ffae05" stop-opacity="0"/><stop offset=".416" stop-color="#7b7b7b" stop-opacity="0"/><stop offset="1" stop-color="#cecece"/></linearGradient><linearGradient xlink:href="#a" id="h" x1="5.83" x2="12.91" y1="6.7" y2="13.2" gradientUnits="userSpaceOnUse"/><linearGradient xlink:href="#c" id="j" x1="-20.459" y1="-18.821" x2="-60.891" y2="-30.538" gradientUnits="userSpaceOnUse"/><linearGradient id="c"><stop offset=".113" stop-color="#fff"/><stop offset=".244" stop-color="#ffccb7"/><stop offset=".48" stop-color="#ff3e17"/><stop offset=".705" stop-color="#f20000"/><stop offset="1" stop-color="#8d0000"/></linearGradient><linearGradient xlink:href="#d" id="k" x1="-62.22" y1="-25.308" x2="-18.692" y2="-25.308" gradientUnits="userSpaceOnUse"/><linearGradient id="d"><stop offset=".001" stop-color="#c00900"/><stop offset=".503" stop-color="#ff3e0e"/><stop offset="1" stop-color="#ff563d"/></linearGradient><linearGradient id="e"><stop offset="0" stop-color="#fff"/><stop offset=".468" stop-color="#dadada"/><stop offset="1" stop-color="#6e6e6e"/></linearGradient><linearGradient xlink:href="#f" id="m" x1="-28.175" y1="-18.696" x2="-56.278" y2="-31.224" gradientUnits="userSpaceOnUse"/><linearGradient id="f"><stop offset="0" stop-color="#ff4c27"/><stop offset="1" stop-color="#b30000"/></linearGradient><radialGradient xlink:href="#b" id="g" cx="7.18" cy="8.2" r="6.59" fx="7.18" fy="8.2" gradientTransform="matrix(.9 .5558 -.5314 .8606 5.08 -2.85)" gradientUnits="userSpaceOnUse"/><radialGradient xlink:href="#e" id="l" cx="-40.187" cy="-25.201" fx="-40.187" fy="-25.201" r="14.157" gradientUnits="userSpaceOnUse" gradientTransform="matrix(-1.13663 -.42546 .35057 -.93654 -77.03 -65.9)"/><filter id="i" width="1.832" height="1.832" x="-.416" y="-.416" color-interpolation-filters="sRGB"><feGaussianBlur stdDeviation=".13"/></filter><filter id="n" x="-.663" y="-.535" width="2.325" height="2.069" color-interpolation-filters="sRGB"><feGaussianBlur stdDeviation="0.707 0.726"/></filter></defs><path fill="url(#g)" fill-rule="evenodd" stroke="url(#h)" stroke-width=".85" d="M13.51 5.1c.44.77-2.18 2.89-2.29 3.76-.1.88 1.95 3.55 1.36 4.2-.6.64-3.43-1.19-4.3-1.02-.86.17-2.76 2.95-3.56 2.58-.8-.36.07-3.62-.36-4.39C3.93 9.46.69 8.51.8 7.63c.1-.87 3.47-1.05 4.06-1.7.6-.64.51-4.01 1.38-4.18.86-.18 2.07 2.97 2.87 3.34.8.37 3.97-.76 4.4 0z" enable-background="accumulate" overflow="visible" style="marker:none" transform="matrix(2.647 2.2616 -2.267 2.6553 22.22 -16.85)" opacity=".33"/><path fill="#fffdfc" fill-rule="evenodd" d="M8.5 7.99a.37.37 0 0 1-.38.37.37.37 0 0 1-.37-.37.37.37 0 0 1 .37-.38.37.37 0 0 1 .37.37" filter="url(#i)" transform="rotate(36.96 28.44 21) scale(3.0331)"/><g transform="matrix(.53262 0 0 .53262 -.1 13.857)"><circle cx="-40.456" cy="-25.308" r="21.002" transform="rotate(-149.458)" fill="url(#j)" stroke="url(#k)" stroke-width="1.523" stroke-linecap="round" stroke-linejoin="round"/><circle cx="-40.187" cy="-25.201" r="13.12" transform="rotate(-149.458)" fill="url(#l)" stroke="url(#m)" stroke-width="2.075" stroke-linecap="round" stroke-linejoin="round"/><path style="mix-blend-mode:normal" transform="matrix(1.79036 0 0 1.79036 -26.424 -3.209)" d="M30.32 29.412a1.28 1.63 0 0 1-1.159 1.623 1.28 1.63 0 0 1-1.38-1.314 1.28 1.63 0 0 1 .898-1.872 1.28 1.63 0 0 1 1.549.958l-1.189.605z" fill="#fff" filter="url(#n)"/><circle cx="8.608" cy="33.271" r="1.129" transform="matrix(1.87752 0 0 1.87752 .195 -25.995)" fill="#fff" paint-order="stroke fill markers"/></g></svg>