<svg xmlns="http://www.w3.org/2000/svg" xmlns:xlink="http://www.w3.org/1999/xlink" width="1200mm" height="640mm" viewBox="0 0 1200 640"><defs><path id="reuse-0" fill="context-stroke" fill-rule="evenodd" stroke="context-stroke" stroke-width=".5pt" d="m2.88 0-4.32 2.5v-5Z"/></defs><defs><linearGradient id="e"><stop offset="0" stop-color="#989898"/><stop offset="1" stop-color="#989898" stop-opacity="0"/></linearGradient><linearGradient id="d"><stop offset="0" stop-color="#989898"/><stop offset="1" stop-color="#989898" stop-opacity="0"/></linearGradient><linearGradient id="c"><stop offset="0" stop-color="#989898"/><stop offset="1" stop-color="#989898" stop-opacity="0"/></linearGradient><linearGradient id="b"><stop offset="0" stop-color="#989898"/><stop offset="1" stop-color="#989898" stop-opacity="0"/></linearGradient><linearGradient id="a"><stop offset="0" stop-color="#989898"/><stop offset="1" stop-color="#989898" stop-opacity="0"/></linearGradient><linearGradient xlink:href="#a" id="f" x1="60.69" x2="89.56" y1="129.88" y2="129.88" gradientTransform="matrix(8.5747 0 0 8.5747 -288.34 -615.22)" gradientUnits="userSpaceOnUse"/><linearGradient xlink:href="#b" id="g" x1="117.99" x2="143.36" y1="118.9" y2="118.9" gradientTransform="matrix(8.5747 0 0 8.5747 -288.34 -615.22)" gradientUnits="userSpaceOnUse"/><linearGradient xlink:href="#c" id="i" x1="143.77" x2="173.28" y1="95.18" y2="95.18" gradientTransform="matrix(8.5747 0 0 8.5747 -290.99 -615.22)" gradientUnits="userSpaceOnUse"/><linearGradient xlink:href="#d" id="j" x1="84.56" x2="111.85" y1="87.06" y2="87.06" gradientTransform="matrix(8.5747 0 0 8.5747 -288.34 -615.22)" gradientUnits="userSpaceOnUse"/><linearGradient xlink:href="#e" id="h" x1="34.27" x2="57.73" y1="101.39" y2="101.39" gradientTransform="matrix(8.5747 0 0 8.5747 -288.34 -615.22)" gradientUnits="userSpaceOnUse"/><marker id="k" markerHeight="9.62" markerWidth="8.32" orient="auto-start-reverse" overflow="visible" preserveAspectRatio="xMidYMid" refX="0" refY="0" viewBox="0 0 5.32 6.16"><use xlink:href="#reuse-0" fill-rule="evenodd" stroke-width=".5pt"/></marker><marker id="l" markerHeight="11.94" markerWidth="10.32" orient="auto-start-reverse" overflow="visible" preserveAspectRatio="xMidYMid" refX="0" refY="0" viewBox="0 0 5.32 6.16"><use xlink:href="#reuse-0" fill-rule="evenodd" stroke-width=".5pt"/></marker><marker id="m" markerHeight="9.62" markerWidth="8.32" orient="auto-start-reverse" overflow="visible" preserveAspectRatio="xMidYMid" refX="0" refY="0" viewBox="0 0 5.32 6.16"><use xlink:href="#reuse-0" fill-rule="evenodd" stroke-width=".5pt"/></marker><marker id="n" markerHeight="9.62" markerWidth="8.32" orient="auto-start-reverse" overflow="visible" preserveAspectRatio="xMidYMid" refX="0" refY="0" viewBox="0 0 5.32 6.16"><use xlink:href="#reuse-0" fill-rule="evenodd" stroke-width=".5pt"/></marker><marker id="o" markerHeight="9.62" markerWidth="8.32" orient="auto-start-reverse" overflow="visible" preserveAspectRatio="xMidYMid" refX="0" refY="0" viewBox="0 0 5.32 6.16"><use xlink:href="#reuse-0" fill-rule="evenodd" stroke-width=".5pt"/></marker><marker id="p" markerHeight="9.62" markerWidth="8.32" orient="auto-start-reverse" overflow="visible" preserveAspectRatio="xMidYMid" refX="0" refY="0" viewBox="0 0 5.32 6.16"><use xlink:href="#reuse-0" fill-rule="evenodd" stroke-width=".5pt"/></marker><marker id="q" markerHeight="9.62" markerWidth="8.32" orient="auto-start-reverse" overflow="visible" preserveAspectRatio="xMidYMid" refX="0" refY="0" viewBox="0 0 5.32 6.16"><use xlink:href="#reuse-0" fill-rule="evenodd" stroke-width=".5pt"/></marker></defs><path fill="url(#f)" fill-rule="evenodd" stroke="#000" stroke-width="7.42" d="M475.93 498.44a120.1 120.1 0 0 1-120.03 120.1 120.1 120.1 0 0 1-120.17-119.96 120.1 120.1 0 0 1 119.9-120.24 120.1 120.1 0 0 1 120.3 119.82"/><path fill="url(#g)" fill-rule="evenodd" stroke="#000" stroke-width="7.42" d="M937.23 404.27A105.09 105.09 0 0 1 832.2 509.36a105.09 105.09 0 0 1-105.15-104.97 105.09 105.09 0 0 1 104.91-105.2 105.09 105.09 0 0 1 105.27 104.84"/><path fill="url(#h)" fill-rule="evenodd" stroke="#000" stroke-width="7.42" d="M202.98 254.14a96.9 96.9 0 0 1-96.84 96.9 96.9 96.9 0 0 1-96.96-96.78 96.9 96.9 0 0 1 96.73-97.01 96.9 96.9 0 0 1 97.07 96.67"/><path fill="url(#i)" fill-rule="evenodd" stroke="#000" stroke-width="7.42" d="M1191.16 200.92a122.83 122.83 0 0 1-122.75 122.83 122.83 122.83 0 0 1-122.9-122.69A122.83 122.83 0 0 1 1068.11 78.1a122.83 122.83 0 0 1 123.04 122.54"/><path fill="url(#j)" fill-rule="evenodd" stroke="#000" stroke-width="7.42" d="M667 131.31A113.28 113.28 0 0 1 553.8 244.6a113.28 113.28 0 0 1-113.35-113.14A113.28 113.28 0 0 1 553.53 18.04 113.28 113.28 0 0 1 667 131.05"/><path fill="none" stroke="#000" stroke-dasharray="2.27 2.27" stroke-width="2.27" marker-start="url(#k)" d="M107.9 141.42c48.27-54.43 189.44-102.67 350.31-84"/><path fill="none" stroke="#000" stroke-dasharray="2.27 2.27" stroke-width="2.27" marker-start="url(#k)" d="M190.32 327.63c293.37 94.57 674.18-83.19 745.6-123.72"/><path fill="none" stroke="#000" stroke-dasharray="2.27 2.27" stroke-width="2.27" marker-start="url(#l)" d="M727.85 464.67c-83.21-40.29-138.99-80.18-173.47-124.05-20.94-26.64-53.07-77.19-50.42-93.09"/><path fill="none" stroke="#000" stroke-dasharray="2.27 2.27" stroke-width="2.27" marker-end="url(#l)" d="M435.76 107.15c-159.5 40.34-236.73 208.63-196.2 319.61"/><g stroke-width="1.66" aria-label="Spherical" font-family="sans-serif" font-size="26.6" font-weight="700" letter-spacing="0" style="line-height:1.25;-inkscape-font-specification:&quot;Segoe UI Symbol&quot;" word-spacing="0"><path d="M52.28 251.14q0 2.85-2.43 4.65-2.41 1.78-6.57 1.78-2.4 0-4.2-.42-1.77-.43-3.33-1.08v-4.64h.54q1.55 1.24 3.46 1.9 1.92.66 3.69.66.45 0 1.2-.07.73-.08 1.2-.26.57-.24.94-.59t.37-1.04q0-.63-.54-1.09-.54-.47-1.58-.71-1.09-.26-2.3-.48-1.22-.24-2.28-.59-2.44-.8-3.52-2.14-1.07-1.37-1.07-3.38 0-2.7 2.42-4.4 2.43-1.72 6.24-1.72 1.9 0 3.76.38 1.87.36 3.24.92v4.46h-.54q-1.16-.94-2.87-1.56-1.69-.64-3.45-.64-.63 0-1.25.1-.61.07-1.18.3-.5.2-.87.6-.37.4-.37.9 0 .76.59 1.18.58.4 2.2.74l2.05.43q.98.2 2.11.57 2.23.73 3.28 1.99 1.06 1.25 1.06 3.25zM70.66 249.72q0 1.8-.55 3.29-.55 1.48-1.45 2.44-.93 1.01-2.11 1.53-1.19.52-2.54.52-1.24 0-2.11-.27-.87-.26-1.78-.74v6.08h-4.68v-19.94h4.68v1.52q1.07-.86 2.2-1.4 1.12-.53 2.59-.53 2.73 0 4.23 2 1.52 2 1.52 5.5zm-4.82.1q0-2.14-.72-3.1-.73-.96-2.3-.96-.66 0-1.37.2-.7.2-1.33.58v7.34q.46.18 1 .23.53.05 1.05.05 1.86 0 2.77-1.08.9-1.09.9-3.27zM88.7 257.21H84v-7.23q0-.88-.1-1.75-.09-.89-.31-1.3-.26-.48-.77-.7-.5-.23-1.39-.23-.63 0-1.3.21-.65.21-1.41.66v10.34h-4.68v-20.2h4.68v7.23q1.24-.98 2.39-1.5 1.15-.52 2.56-.52 2.36 0 3.69 1.38t1.33 4.12zM107.36 250.78h-10.7q.1 1.72 1.3 2.63 1.2.9 3.54.9 1.48 0 2.87-.52 1.4-.54 2.2-1.15h.52v3.76q-1.59.63-2.99.92-1.4.28-3.1.28-4.4 0-6.73-1.97-2.34-1.97-2.34-5.62 0-3.62 2.2-5.72 2.23-2.12 6.09-2.12 3.56 0 5.35 1.8 1.79 1.8 1.79 5.18zm-4.65-2.74q-.04-1.46-.73-2.2-.69-.74-2.14-.74-1.35 0-2.22.7-.87.7-.98 2.24zM121.23 247.08h-.41q-.3-.1-.96-.15-.67-.06-1.1-.06-1 0-1.77.13t-1.65.45v9.76h-4.68v-14.58h4.68v2.14q1.54-1.32 2.68-1.75 1.15-.44 2.1-.44h.57l.54.05zM128.56 257.21h-4.68v-14.58h4.68zm.13-16.66h-4.94V237h4.94zM140.58 257.6q-1.91 0-3.5-.45-1.57-.45-2.74-1.4-1.16-.95-1.8-2.4-.63-1.43-.63-3.37 0-2.04.68-3.52.69-1.48 1.9-2.46 1.19-.92 2.73-1.35 1.55-.43 3.21-.43 1.5 0 2.76.33 1.26.32 2.35.84v4h-.66l-.67-.55q-.37-.32-.93-.61-.54-.29-1.17-.47-.64-.2-1.48-.2-1.87 0-2.89 1.2-1 1.18-1 3.22 0 2.1 1.03 3.2 1.04 1.09 2.94 1.09.88 0 1.58-.2.71-.2 1.18-.48.44-.26.78-.54l.63-.56h.66v3.98q-1.1.52-2.31.82-1.2.31-2.65.31zM157.46 253.4v-3.03q-.95.08-2.05.22-1.1.13-1.68.31-.7.22-1.07.65-.37.42-.37 1.1 0 .46.08.75.08.28.39.54.3.26.71.4.42.1 1.3.1.7 0 1.42-.28.73-.28 1.27-.75zm0 2.27-.93.69q-.56.4-1.06.63-.68.32-1.42.46-.74.15-1.63.15-2.08 0-3.48-1.28-1.4-1.29-1.4-3.29 0-1.6.71-2.6.72-1.02 2.03-1.6 1.3-.6 3.22-.84 1.92-.24 3.99-.36v-.08q0-1.2-.99-1.66-.99-.47-2.9-.47-1.16 0-2.48.42-1.3.4-1.88.62h-.43v-3.52q.74-.2 2.4-.46 1.68-.27 3.36-.27 3.98 0 5.75 1.24 1.78 1.22 1.78 3.84v9.92h-4.64zM171.08 257.21h-4.68v-20.2h4.68z" style="-inkscape-font-specification:&quot;sans-serif, Bold&quot;"/></g><g stroke-width="1.66" aria-label="Loonie" font-family="sans-serif" font-size="26.6" font-weight="700" letter-spacing="0" style="line-height:1.25;-inkscape-font-specification:&quot;Segoe UI Symbol&quot;" word-spacing="0"><path d="M522.88 139.85h-13.96v-19.34h5v15.6h8.96zM540.53 132.57q0 3.6-2.1 5.67t-5.89 2.07q-3.8 0-5.9-2.07-2.09-2.07-2.09-5.67 0-3.63 2.1-5.7 2.12-2.06 5.89-2.06 3.82 0 5.9 2.08 2.09 2.08 2.09 5.68zm-5.76 3.54q.46-.55.68-1.33.23-.8.23-2.19 0-1.28-.23-2.15-.23-.87-.65-1.4-.42-.53-1-.75-.58-.22-1.26-.22t-1.2.18q-.53.19-1 .73-.44.5-.7 1.4-.24.88-.24 2.21 0 1.2.22 2.08.22.87.65 1.4.41.51.98.75.59.23 1.33.23.64 0 1.2-.2.6-.23 1-.74zM558.8 132.57q0 3.6-2.11 5.67-2.1 2.07-5.89 2.07-3.79 0-5.9-2.07-2.08-2.07-2.08-5.67 0-3.63 2.1-5.7 2.12-2.06 5.88-2.06 3.82 0 5.9 2.08 2.1 2.08 2.1 5.68zm-5.76 3.54q.45-.55.67-1.33.24-.8.24-2.19 0-1.28-.24-2.15-.23-.87-.65-1.4-.41-.53-1-.75-.58-.22-1.26-.22-.67 0-1.2.18-.52.19-1 .73-.43.5-.7 1.4-.24.88-.24 2.21 0 1.2.22 2.08.22.87.65 1.4.42.51.99.75.58.23 1.32.23.64 0 1.21-.2.59-.23.99-.74zM576.8 139.85h-4.7v-7.23q0-.88-.1-1.75-.09-.89-.3-1.3-.27-.48-.77-.7-.5-.23-1.4-.23-.63 0-1.3.21-.64.21-1.4.66v10.34h-4.69v-14.58h4.68v1.6q1.25-.97 2.4-1.49t2.55-.52q2.36 0 3.69 1.38 1.34 1.38 1.34 4.12zM585.77 139.85h-4.67v-14.58h4.67zm.13-16.66h-4.93v-3.55h4.93zM604.56 133.42h-10.7q.1 1.72 1.3 2.63 1.2.9 3.54.9 1.48 0 2.87-.52 1.39-.54 2.2-1.15h.51v3.76q-1.58.63-2.98.92-1.4.28-3.1.28-4.4 0-6.74-1.97t-2.34-5.62q0-3.62 2.21-5.72 2.22-2.12 6.08-2.12 3.56 0 5.35 1.8 1.8 1.8 1.8 5.18zm-4.65-2.74q-.04-1.46-.73-2.2-.69-.74-2.14-.74-1.36 0-2.23.7-.87.7-.97 2.24z" style="-inkscape-font-specification:&quot;sans-serif, Bold&quot;"/></g><g stroke-width="1.66" aria-label="Sinusoidal" font-family="sans-serif" font-size="26.6" font-weight="700" letter-spacing="0" style="line-height:1.25;-inkscape-font-specification:&quot;Segoe UI Symbol&quot;" word-spacing="0"><path d="M1010.51 201.16q0 2.86-2.43 4.65-2.41 1.78-6.57 1.78-2.4 0-4.2-.41-1.78-.43-3.34-1.08v-4.64h.55q1.55 1.24 3.46 1.9 1.92.66 3.68.66.46 0 1.2-.08t1.2-.26q.58-.23.94-.58.38-.35.38-1.04 0-.64-.55-1.1-.53-.46-1.57-.7-1.09-.27-2.31-.49-1.2-.23-2.27-.58-2.45-.8-3.52-2.14-1.07-1.37-1.07-3.38 0-2.7 2.42-4.4 2.43-1.72 6.23-1.72 1.91 0 3.77.38 1.87.36 3.23.92v4.45h-.53q-1.17-.93-2.87-1.55-1.69-.64-3.45-.64-.63 0-1.25.09-.61.08-1.18.31-.51.2-.87.6-.37.39-.37.9 0 .76.59 1.18.58.4 2.2.74l2.04.43q1 .2 2.12.57 2.22.73 3.28 1.99 1.06 1.24 1.06 3.24zM1018.34 207.24h-4.67v-14.59h4.67zm.13-16.66h-4.93v-3.55h4.93zM1037.41 207.24h-4.7v-7.23q0-.89-.1-1.76-.08-.88-.3-1.3-.26-.48-.77-.7-.5-.22-1.39-.22-.64 0-1.3.21-.65.2-1.41.66v10.34h-4.68v-14.59h4.68v1.62q1.24-.98 2.39-1.5 1.15-.52 2.56-.52 2.36 0 3.68 1.38 1.34 1.38 1.34 4.12zM1056.25 207.24h-4.68v-1.6q-1.3.98-2.38 1.5-1.07.5-2.57.5-2.41 0-3.73-1.39-1.3-1.39-1.3-4.1v-9.5h4.7v7.24q0 1.1.07 1.84.08.73.34 1.21.25.48.74.7.5.22 1.4.22.6 0 1.33-.22.73-.22 1.4-.65v-10.34h4.68zM1073.34 202.62q0 2.26-2.02 3.65-2.03 1.37-5.55 1.37-1.95 0-3.53-.36-1.59-.36-2.55-.8v-3.85h.43l.8.55q.47.28 1.32.62.72.3 1.65.52.92.2 1.97.2 1.38 0 2.04-.3.66-.3.66-.9 0-.53-.39-.77t-1.48-.46q-.52-.12-1.41-.25-.89-.14-1.61-.34-2-.52-2.95-1.61-.96-1.1-.96-2.74 0-2.1 1.98-3.5 2-1.4 5.46-1.4 1.64 0 3.13.34 1.5.32 2.35.7v3.69h-.4q-1.04-.71-2.38-1.16-1.32-.45-2.69-.45-1.13 0-1.9.31t-.77.88q0 .52.35.8.35.27 1.65.54.71.15 1.53.29.83.13 1.66.34 1.85.48 2.73 1.52.88 1.02.88 2.57zM1091.36 199.95q0 3.6-2.1 5.68-2.1 2.07-5.89 2.07-3.8 0-5.9-2.07-2.09-2.08-2.09-5.68 0-3.62 2.1-5.68 2.12-2.07 5.9-2.07 3.81 0 5.89 2.08 2.09 2.08 2.09 5.67zm-5.75 3.55q.45-.56.67-1.34.23-.79.23-2.18 0-1.29-.23-2.16-.23-.87-.65-1.39-.41-.53-1-.75-.58-.22-1.26-.22-.67 0-1.2.18-.53.18-1 .73-.44.5-.7 1.39-.24.88-.24 2.22 0 1.2.22 2.08.22.87.65 1.4.41.5.98.74.59.24 1.33.24.64 0 1.2-.21.6-.22 1-.73zM1099.39 207.24h-4.68v-14.59h4.68zm.13-16.66h-4.94v-3.55h4.94zM1117.99 207.24h-4.68v-1.52q-1.2.99-2.26 1.46-1.05.46-2.43.46-2.66 0-4.26-2.05-1.6-2.05-1.6-5.53 0-1.86.54-3.29.54-1.44 1.48-2.47.88-.97 2.14-1.5 1.26-.55 2.52-.55 1.31 0 2.14.29.85.27 1.73.7v-6.21h4.68zm-4.68-4.02v-7.16q-.5-.21-1.04-.3-.54-.1-1-.1-1.84 0-2.76 1.16-.93 1.15-.93 3.19 0 2.14.74 3.11.74.97 2.38.97.64 0 1.35-.24.72-.24 1.26-.63zM1131.24 203.44v-3.04q-.95.07-2.05.22-1.1.13-1.68.3-.7.23-1.08.66-.36.41-.36 1.1 0 .46.08.74.07.29.39.55.3.26.71.39.42.12 1.3.12.7 0 1.42-.29t1.27-.75zm0 2.26-.94.68q-.56.4-1.05.64-.69.31-1.43.46-.74.15-1.62.15-2.08 0-3.48-1.28-1.4-1.29-1.4-3.3 0-1.59.7-2.6.72-1.01 2.04-1.6 1.3-.58 3.22-.83 1.92-.25 3.98-.36v-.08q0-1.21-.98-1.66-.99-.47-2.91-.47-1.16 0-2.47.41-1.31.4-1.88.63h-.43v-3.52q.74-.2 2.4-.46 1.68-.27 3.35-.27 3.99 0 5.76 1.23 1.78 1.22 1.78 3.85v9.92h-4.64zM1144.85 207.24h-4.67v-20.21h4.67z" style="-inkscape-font-specification:&quot;sans-serif, Bold&quot;"/></g><g stroke-width="1.66" aria-label="Curl" font-family="sans-serif" font-size="26.6" font-weight="700" letter-spacing="0" style="line-height:1.25;-inkscape-font-specification:&quot;Segoe UI Symbol&quot;" word-spacing="0"><path d="M810.4 413.9q-2.16 0-4-.64-1.81-.64-3.12-1.9-1.32-1.26-2.04-3.14-.72-1.88-.72-4.35 0-2.3.69-4.17t2-3.21q1.26-1.29 3.12-1.99 1.87-.7 4.08-.7 1.22 0 2.2.14.98.13 1.81.35.87.25 1.57.56.72.3 1.25.56v4.69h-.57l-.92-.74q-.55-.43-1.25-.84-.72-.42-1.55-.7-.83-.3-1.78-.3-1.05 0-2 .35-.95.32-1.75 1.09-.77.74-1.25 1.96-.47 1.22-.47 2.96 0 1.82.51 3.04.52 1.22 1.3 1.92.8.72 1.77 1.03.97.3 1.92.3.9 0 1.8-.28.89-.27 1.64-.74.64-.37 1.18-.8.55-.43.9-.74h.52v4.62l-1.39.61q-.66.29-1.39.5-.95.27-1.78.41-.83.15-2.29.15zM835.18 413.52h-4.68v-1.61q-1.3.99-2.37 1.5-1.08.51-2.58.51-2.41 0-3.72-1.39-1.3-1.39-1.3-4.1v-9.5h4.7v7.24q0 1.1.06 1.84.08.73.34 1.2.25.49.74.71.5.22 1.4.22.6 0 1.33-.22.73-.22 1.4-.65v-10.34h4.68zM850.17 403.39h-.42q-.3-.1-.96-.16-.66-.05-1.1-.05-1 0-1.77.13-.76.13-1.65.44v9.77h-4.67v-14.59h4.67v2.14q1.55-1.32 2.7-1.75 1.13-.44 2.1-.44l.55.01.55.04zM857.5 413.52h-4.68V393.3h4.68z" style="-inkscape-font-specification:&quot;sans-serif, Bold&quot;"/></g><g stroke-width="1.66" aria-label="Elliptic" font-family="sans-serif" font-size="26.6" font-weight="700" letter-spacing="0" style="line-height:1.25;-inkscape-font-specification:&quot;Segoe UI Symbol&quot;" word-spacing="0"><path d="M320.24 505.22h-13.99v-19.34h14v3.74h-9.04v3.34h8.38v3.74h-8.38v4.78h9.03zM328.84 505.22h-4.68v-20.2h4.68zM337.93 505.22h-4.67v-20.2h4.67zM347.03 505.22h-4.68v-14.58h4.68zm.13-16.66h-4.94V485h4.94zM366.67 497.73q0 1.8-.56 3.28-.55 1.49-1.44 2.45-.94 1.01-2.12 1.53-1.18.52-2.53.52-1.25 0-2.12-.27-.87-.26-1.78-.74v6.07h-4.68v-19.93h4.68v1.52q1.08-.86 2.2-1.4 1.12-.53 2.6-.53 2.72 0 4.23 2 1.52 2 1.52 5.5zm-4.82.09q0-2.13-.73-3.1-.73-.95-2.3-.95-.66 0-1.36.2-.7.2-1.34.58v7.33q.47.19 1 .24.53.05 1.05.05 1.86 0 2.77-1.08.9-1.09.9-3.27zM379.37 505.1q-.75.19-1.6.3-.84.1-2.06.1-2.73 0-4.07-1.1-1.32-1.1-1.32-3.78v-6.81h-1.93v-3.17h1.93v-4.17h4.67v4.17h4.38v3.17H375v5.17q0 .76.02 1.33.01.57.2 1.03.19.45.64.73.47.26 1.35.26.37 0 .95-.16.6-.16.83-.29h.4zM386.84 505.22h-4.68v-14.58h4.68zm.13-16.66h-4.94V485h4.94zM398.86 505.61q-1.91 0-3.5-.45-1.57-.46-2.74-1.4-1.16-.95-1.8-2.4-.63-1.44-.63-3.37 0-2.04.68-3.52.69-1.48 1.9-2.46 1.19-.92 2.73-1.35 1.55-.43 3.21-.43 1.5 0 2.76.33 1.26.32 2.35.84v3.99h-.66l-.67-.55q-.37-.3-.93-.6-.53-.3-1.17-.47-.64-.2-1.48-.2-1.87 0-2.89 1.2-1 1.18-1 3.22 0 2.1 1.03 3.2 1.04 1.08 2.94 1.08.88 0 1.58-.19.72-.2 1.18-.48.44-.26.78-.55.34-.28.63-.56h.66v4q-1.1.51-2.31.81-1.2.31-2.65.31z" style="-inkscape-font-specification:&quot;sans-serif, Bold&quot;"/></g><path fill="none" stroke="#000" stroke-dasharray="2.27 2.27" stroke-width="2.27" marker-start="url(#m)" d="M441.25 200.15c-67.15 32.33-123.1 110.99-129.4 177.03"/><path fill="none" stroke="#000" stroke-dasharray="2.27 2.27" stroke-width="2.27" marker-start="url(#n)" d="M488.81 542.7c97.16 37.28 242 10.15 317.18-28.25"/><path fill="none" stroke="#000" stroke-dasharray="2.27 2.27" stroke-width="2.27" marker-start="url(#o)" d="M934.93 156.98c-91.01-46.45-198.27-45.67-259.05-42.66"/><path fill="none" stroke="#000" stroke-dasharray="2.27 2.27" stroke-width="2.27" marker-start="url(#p)" d="M219.36 514.26c-90.12-21.24-119.95-118.6-125.8-158.8"/><path fill="none" stroke="#000" stroke-dasharray="2.27 2.27" stroke-width="2.27" marker-start="url(#q)" d="M943.3 352.21c46.76 3.32 83.44 69.03 63.63 119.12-24.49 61.9-103.82 95.04-164.22 46.2"/></svg>