<svg xmlns="http://www.w3.org/2000/svg" width="2048" height="580" viewBox="0 0 541.87 153.46"><defs><linearGradient id="r"><stop offset="0" stop-color="#9db6ff"/><stop offset="1" stop-color="#9db6ff" stop-opacity=".49"/></linearGradient><linearGradient id="q"><stop offset="0" stop-color="#abffe6"/><stop offset="1" stop-color="#81ffda" stop-opacity=".51"/></linearGradient><linearGradient id="p"><stop offset="0" stop-color="#ffe9a8"/><stop offset="1" stop-color="#ffe28d" stop-opacity=".49"/></linearGradient><linearGradient id="o"><stop offset="0" stop-color="#ffb4b4"/><stop offset="1" stop-color="#ff9797" stop-opacity=".5"/></linearGradient><linearGradient id="n"><stop offset="0" stop-color="#ffaeef"/><stop offset="1" stop-color="#ff81e7" stop-opacity=".46"/></linearGradient><linearGradient id="m"><stop offset="0" stop-color="#ffd887"/><stop offset="1" stop-color="#ffd378" stop-opacity=".5"/></linearGradient><linearGradient id="l"><stop offset="0" stop-color="#fff3a5"/><stop offset="1" stop-color="#fff3a5" stop-opacity=".48"/></linearGradient><linearGradient id="k"><stop offset="0" stop-color="#85ffe6"/><stop offset="1" stop-color="#85ffe6" stop-opacity=".48"/></linearGradient><linearGradient id="j"><stop offset="0" stop-color="#c9ffd4"/><stop offset="1" stop-color="#a9ffba" stop-opacity=".5"/></linearGradient><linearGradient id="i"><stop offset="0" stop-color="#0f0"/><stop offset="1" stop-color="#0f0" stop-opacity="0"/></linearGradient><linearGradient id="h"><stop offset="0" stop-color="#00ffd0"/><stop offset="1" stop-color="#00ffd0" stop-opacity="0"/></linearGradient><linearGradient id="g"><stop offset="0" stop-color="#ffe600"/><stop offset="1" stop-color="#ffe600" stop-opacity="0"/></linearGradient><linearGradient id="f"><stop offset="0" stop-color="#ff00eb"/><stop offset="1" stop-color="#ff00eb" stop-opacity="0"/></linearGradient><linearGradient id="e"><stop offset="0" stop-color="#ffa425"/><stop offset="1" stop-color="#ffa425" stop-opacity="0"/></linearGradient><linearGradient id="d"><stop offset="0" stop-color="#00f"/><stop offset="1" stop-color="#00f" stop-opacity="0"/></linearGradient><linearGradient id="c"><stop offset="0" stop-color="#00ffac"/><stop offset="1" stop-color="#00ffac" stop-opacity="0"/></linearGradient><linearGradient id="b"><stop offset="0" stop-color="#ffeb00"/><stop offset="1" stop-color="#ffeb00" stop-opacity="0"/></linearGradient><linearGradient id="a"><stop offset="0" stop-color="red"/><stop offset="1" stop-color="red" stop-opacity="0"/></linearGradient></defs><path d="M235.1 6v20.64c28.83-16.14 65.23-17.28 95.15-3.37 5.1 2.33 10.02 5.04 14.71 8.1V5.99Zm50.5 14.64a107.4 107.4 0 0 0-50.5 12.5v26.42l.08.04c.63-.51 1.27-1 1.91-1.5l20.39-25.56-2.04 15.03a77.47 77.47 0 0 1 38.8-5.2l.02-2.87 50.7.02c-.04-.98-7.22-6-11.72-8.09a109.86 109.86 0 0 0-47.64-10.8Zm-1.2 27.76a79.72 79.72 0 0 0-29.9 5.96l-1.73 12.79 7.05 2.64c10.22-4.9 21.85-6.81 33.12-4.84 15.51 2.42 29.68 11.5 38.89 24.13V63.76h-37.64V48.94a82.54 82.54 0 0 0-9.79-.54zm-1.94 22c-4.97.12-9.95.93-14.74 2.36l17.75 6.66-34.36 6.22-.62 13.58a34.27 34.27 0 0 1 4.28-5.24c12.07-13.13 33.26-16.1 48.52-6.88 4.97 2.77 11.55 10.17 12.57 10.18h15.97c-.04-2.72-4.47-7.63-7.32-10.58-10.06-10-24-15.79-38.13-16.24-1.3-.07-2.61-.08-3.92-.05zm-1.12 14.58c-13.4.6-25.9 9.59-31.18 21.79l-.62 13.75-1.93-3.58c-.01.23-.06.46-.07.7a32.38 32.38 0 0 0 6.68 21.94h12.03c-10.74-7.41-12.9-23.78-4.82-33.92 7.18-10.08 21.76-13.8 32.8-8.3 1.48-.04 4.2-.06 6.18-.07h10.56c-6.74-7.24-16.26-11.91-26.2-12.28-1.15-.07-2.3-.08-3.43-.03zm-44.52 11.87a44.33 44.33 0 0 0-1.72 3.48l.02 39.26h15.15c-5.6-7.97-7.14-18.02-5.19-27.37zm44.11 1.37c-12.55.77-23.52 13.3-20.82 26.02 1.36 6.97 6.72 13.64 13.74 15.3l11.86.04c2.6-.98 8.19-4.21 8.48-8.12V114.3c-5.1-9.26-17.75-8.46-23.53-1.44-5.73 7.9-.77 18.97 6.74 20.2 5.18.85 8.84-.55 11.2-3.64 2.62-3.58 2.86-7.63 1.08-10.86-2.6-6.31-14.43-7.16-15.32 1.85.26 4.54 4.24 8.2 6.5 7 3.37-.71 2.71-4.76.57-5.78-2.52-1.22-3.24.25-3.47-1.57-.31-2.47 1.88-3.68 5.92-2.8 5.76 2.94 3.67 10.93-1.36 12.34a8 8 0 0 1-8.7-2.55c-2.34-2.8-2.23-7.15-1.2-9.89 3.13-6.57 13.49-7.8 17.85-1.47 5.94 7.02.7 18.64-8.13 19.87-9.73 2.14-18.91-7.94-16.74-17.45 1.7-10.59 15.14-15.59 24.29-11.73 1.92.7 3.66 1.83 4.4 2.38v-3.2l.01-3.93a14.06 14.06 0 0 0-3.92-2.1 23.3 23.3 0 0 0-6.92-1.31c-.85-.06-1.69-.06-2.53-.01zm13.27 37.17s-1.56 1.6-2.99 2.53c-1.57.96-3.07 1.63-3.07 1.63l6.09-.01z" color="#000" font-family="Gill Sans Ultra Bold" font-size="44.68" font-weight="400" letter-spacing="0" overflow="visible" paint-order="markers stroke fill" style="line-height:1.25;-inkscape-font-specification:&quot;Gill Sans Ultra Bold, Normal&quot;;font-variant-ligatures:normal;font-variant-position:normal;font-variant-caps:normal;font-variant-numeric:normal;font-variant-alternates:normal;font-variant-east-asian:normal;font-feature-settings:normal;font-variation-settings:normal;text-indent:0;text-align:start;text-decoration-line:none;text-decoration-style:solid;text-decoration-color:#000;text-transform:none;text-orientation:mixed;white-space:normal;shape-padding:0;shape-margin:0;inline-size:0;isolation:auto;mix-blend-mode:normal;solid-color:#000;solid-opacity:1" word-spacing="0"/><path fill-rule="evenodd" d="m260.39 25.73-25.25 31.66-36.48-17.59 22.32 33.8-28 29.26 39.04-10.78 19.17 35.67L253 87.3l39.85-7.22-6.7-2.5-31.21-11.73zm-5.83 13.63-3.95 29.08 27.48 10.3-28.88 5.24-1.31 29.32L234 87.45l-28.3 7.8 20.3-21.2-16.17-24.49 26.43 12.74z" color="#000" font-family="sans-serif" font-weight="400" overflow="visible" style="line-height:normal;font-variant-ligatures:normal;font-variant-position:normal;font-variant-caps:normal;font-variant-numeric:normal;font-variant-alternates:normal;font-variant-east-asian:normal;font-feature-settings:normal;font-variation-settings:normal;text-indent:0;text-align:start;text-decoration-line:none;text-decoration-style:solid;text-decoration-color:#000;text-transform:none;text-orientation:mixed;white-space:normal;shape-padding:0;shape-margin:0;inline-size:0;isolation:auto;mix-blend-mode:normal;solid-color:#000;solid-opacity:1"/><path fill="#fff" fill-rule="evenodd" d="M282.15 124.05a1.03 1.03 0 0 1-1.03 1.03 1.03 1.03 0 0 1-1.03-1.03 1.03 1.03 0 0 1 1.03-1.03 1.03 1.03 0 0 1 1.03 1.03"/><g stroke-width=".84" aria-label="FLAM3 for SideFX Houdini" font-family="Berlin Sans FB" font-size="13.44" font-weight="400" letter-spacing="0" style="line-height:1.25;-inkscape-font-specification:&quot;Berlin Sans FB, Normal&quot;;font-variant-ligatures:normal;font-variant-caps:normal;font-variant-numeric:normal;font-variant-east-asian:normal" word-spacing="0"><path d="M223.68 191.29q0 .12-.14.12-.5 0-1.68-.06-1.09-.05-1.68-.04l-.48.01q-.46 0-.48.02-.13.05-.13.41v1.58q0 .45.19.45.63 0 1.91-.06 1.29-.06 1.93-.06.13 0 .13.1l-.02.34v.69l.02.36q0 .08-.14.08l-1.38-.03-1.38-.03q-.84 0-.96.02-.3.03-.3.24 0 .59.04 1.77l.03 1.77q0 .2-.15.2l-.4-.03q-.25-.03-.4-.03l-.33.02-.34.02q-.17 0-.17-.14 0-.73.06-2.2.07-1.46.07-2.19 0-.67-.14-4.4v-.08q0-.14.16-.16l.84.02q1.03.02 1.9 0 1.2 0 3.03-.12.25-.02.29.21-.01.18.02.54.08.5.08.66zM230.73 197.73q0 .91-.1 1.3-.04.2-.23.2-.48 0-1.46-.07-.97-.05-1.45-.05l-1.37.02-1.38.02q-.16 0-.16-.16 0-.72.05-2.16.05-1.45.05-2.17 0-.76-.07-2.28-.07-1.52-.07-2.28 0-.15.16-.15l.37.02.36.02.37-.02.37-.02q.16 0 .16.13 0 .7-.06 2.1-.05 1.4-.05 2.1V196.34q0 1.45.11 1.45 2.42 0 3.66-.11l.3-.05q.2-.04.3-.04.14 0 .14.13zM239.61 199.07q0 .08-.16.08l-.36-.02-.37-.02-.37.02-.37.02q-.19 0-.48-1-.28-.99-.57-1-.25-.02-1.27-.02h-1.04q-1.08 0-1.23.02-.24.02-.5 1-.27 1-.41 1H231q-.13 0-.13-.1 0-.06.09-.29l1.6-4.4 1.24-3.06q.19-.42.5-1.27.08-.25.17-.25.13 0 .37.04.24.03.37.03l.35-.03q.24-.04.36-.04.05 0 .16.24.16.37 1.55 3.96 1.98 5.05 1.98 5.1zm-3.06-3.62q0-.2-.59-1.7-.57-1.48-.8-1.94-1.37 3.47-1.37 3.63 0 .22.5.26l.65.01h.67q.94 0 .94-.26zM249.58 198.99q0 .16-.16.16l-.36-.02-.36-.02-.36.02-.36.02q-.17 0-.17-.22 0-.83.06-2.5.05-1.66.05-2.5 0-.12-.05-.12-.06 0-.1.07-.33.71-1.58 3.82-.2.6-.58 1.49-.05.08-.47.08-.62 0-.69-.1l-.63-1.5q-.55-1.3-1.68-3.87-.02-.05-.08-.1-.05.05-.05.15l.02 2.54q.04 1.7.04 2.54 0 .22-.17.22l-.34-.02-.34-.02-.36.02-.34.02q-.17 0-.17-.12 0-.73.07-2.18.07-1.46.07-2.19 0-.75-.07-2.26-.07-1.52-.07-2.28 0-.12.15-.14.9-.12 1.35-.12.06 0 .18.27 1.6 3.5 2.73 6.24.27.64.32.64.07 0 .29-.53.89-2.12 2.47-6.3.1-.27.22-.27l.67.03.67.03q.17 0 .17.15 0 .76-.06 2.28-.04 1.5-.04 2.26 0 .72.05 2.17.06 1.44.06 2.16zM256.28 196.9q0 1.21-.9 1.85-.8.56-2.05.56-1.5 0-2.7-.55-.12-.06-.12-.12l.32-1.02q.04-.14.12-.14 1.16.6 1.92.6 1.8 0 1.8-1.3 0-.81-.63-1.13-.44-.23-1.32-.23l-.5.01-.47.02q-.38 0-.38-.16 0-.9.2-.9.28 0 .86.07t.87.07q.44 0 .7-.29.28-.29.28-.72 0-1.21-1.57-1.21-.92 0-1.65.39l-.07.01q-.16 0-.16-.98 0-.33 1.05-.5.73-.13 1.32-.13 1.1 0 1.87.48.93.56.93 1.59 0 .53-.29 1.06-.31.57-.78.76 1.35.46 1.35 1.91zM264.04 190.74q0 .07-.12.09l-.63.06q-.38.05-.58.26-.32.35-.32 1.76l.69.02.7.01q.16 0 .16.12v.55l.02.54q0 .12-.13.12l-.7-.02-.68-.02v1.96l.03 1.4.03 1.38q0 .18-.13.18h-1.2q-.17 0-.17-.2v-4.52q0-.18-.4-.17-.44 0-.46-.03-.02-.02-.02-.25l-.01-.42-.02-.44q0-.13.84-.18l-.02-.68q0-1.16.4-1.7.38-.49 1.09-.76.63-.25 1.32-.25.06 0 .09.07l.1.56.12.56zM270.55 195.95q0 1.38-.9 2.35-.92 1-2.28 1-1.36 0-2.28-1-.9-.96-.9-2.33 0-1.38.9-2.34.93-.98 2.28-.98 1.36 0 2.28.98.9.96.9 2.32zm-1.38.02q0-.8-.5-1.37-.5-.6-1.3-.6-.78 0-1.3.6-.5.57-.5 1.37 0 .78.5 1.36.53.61 1.3.61.79 0 1.3-.6.5-.59.5-1.37zM275.23 192.99q0 .72-.1 1.3-.02.16-.13.16l-.42-.03q-.27-.03-.42-.03-.83 0-1.06.47-.13.28-.13 1.17v.72l.02 1.12q.04.75.04 1.12 0 .17-.16.17h-.61l-.62-.01q-.15 0-.15-.17l.01-1.6.02-1.6q0-1.63-.3-2.61l-.01-.08q0-.08.08-.11l.69-.08.65-.13q.1 0 .14.39.03.38.12.38l.03-.01.54-.34q.3-.18.6-.26.26-.08.66-.08.51 0 .51.14zM284.58 190.6l-.36.66q-.07.2-.25.58-.04.06-.1.06l-.64-.23q-.64-.24-1.05-.24-1.21 0-1.21 1.06 0 .6.84 1.03 1.43.75 1.58.86.85.67.85 1.82 0 1.47-1.17 2.32-1.04.76-2.56.76-.71 0-.76-.16-.03-.25-.12-.72l-.17-.6-.02-.1q0-.1.1-.1l.48.03q.33.04.5.04 2.03 0 2.03-1.32 0-.64-.82-1.11-1.5-.86-1.53-.89-.83-.67-.83-1.8 0-1.22.8-1.95.78-.71 2.03-.71.52 0 1.2.17.74.19 1.12.46.03.02.06.08zM287.3 191.3q0 .8-.9.8-.92 0-.92-.8 0-.36.29-.6.26-.22.63-.22.36 0 .63.23t.27.59zm-.05 1.78q0 .5-.07 1.53-.06 1.02-.06 1.53l.02 1.43.02 1.43q0 .14-.11.14h-1.28q-.14 0-.14-.27l.02-1.36.02-1.37q0-.51-.07-1.54-.08-1.02-.08-1.53 0-.12.14-.12.12 0 .36.04.25.03.38.03l.36-.03q.25-.04.38-.04.1 0 .1.13zM294.86 190q0 .84-.08 2.53-.07 1.7-.07 2.53 0 2.6.1 3.93l.01.08q.01.07-.17.09h-.36l-.25-.02-.3.02-.28.02q-.1 0-.11-.46-.02-.46-.05-.46l-.1.08q-.9.97-2.06.97-1.33 0-2.18-1-.81-.96-.81-2.3 0-1.4.81-2.35.86-1 2.23-1 .82 0 1.44.48l.56.5q.05-.02.05-.1v-2.12l-.02-.66-.02-.66q0-.16.1-.16.25 0 .73-.04t.72-.04q.1 0 .1.13zm-1.64 5.97q0-.8-.49-1.39-.52-.64-1.29-.64-.8 0-1.33.63-.5.6-.5 1.42 0 .79.52 1.37.53.62 1.31.62.8 0 1.3-.62.48-.59.48-1.4zM301.58 195.63q0 .48-.42.64-.28.11-4.06.4.09.57.64.98.52.38 1.13.38 1.03 0 1.9-.67l.21-.17q.05 0 .07.02.02.01.25.46.22.44.22.47 0 .04-.1.15-.96 1.02-2.47 1.02-1.53 0-2.43-.9-.9-.91-.9-2.43 0-1.35.86-2.36.91-1.04 2.24-1.04 1.23 0 2.06.9.8.88.8 2.15zm-1.56-.4q0-.55-.43-.97-.43-.42-.97-.42-.6 0-1.07.49-.47.48-.47 1.09 0 .13.24.13.97 0 2.32-.2.38-.05.38-.13zM308.82 191.29q0 .12-.13.12-.52 0-1.68-.06-1.1-.05-1.68-.04l-.48.01q-.46 0-.49.02-.13.05-.13.41v1.58q0 .45.19.45.64 0 1.92-.06 1.28-.06 1.92-.06.14 0 .14.1l-.02.34-.02.33.02.36.01.36q0 .08-.14.08l-1.38-.03q-.91-.03-1.37-.03-.85 0-.96.02-.3.03-.3.24 0 .59.04 1.77l.03 1.77q0 .2-.16.2l-.4-.03q-.25-.03-.39-.03l-.34.02-.34.02q-.16 0-.16-.14 0-.73.06-2.2.06-1.46.06-2.19 0-.67-.14-4.4v-.08q0-.14.17-.16l.83.02q1.03.02 1.91 0 1.19 0 3.03-.12.25-.02.28.21l.02.54q.08.5.08.66zM316.37 199.07q0 .08-.15.08H315.08q-.1-.03-1.14-1.63-1.03-1.6-1.06-1.61-.12.08-1.16 1.68-1 1.56-1.1 1.56h-1.1q-.14 0-.14-.1v-.95q0-.13 1.23-1.76 1.23-1.64 1.23-1.77 0-.15-1.22-1.8-1.23-1.65-1.23-1.75V190q0-.1.18-.1l.55.02.55.01q.03 0 .24.3l1.87 2.9q.03.05.1.1.1-.04 1.14-1.68 1.03-1.62 1.12-1.62h1.04q.17 0 .17.1v1q0 .17-1.23 1.8-1.22 1.62-1.22 1.7 0 .11 1.23 1.8 1.24 1.67 1.24 1.79zM329.03 199q0 .15-.2.15l-.35-.02-.35-.02-.38.02-.37.02q-.15 0-.15-.15 0-.6.03-1.77.04-1.18.04-1.78 0-.25-.15-.3-.2-.04-2.27-.04t-2.27.05q-.15.04-.15.3 0 .57.04 1.73l.03 1.74q0 .22-.17.22l-.37-.02-.37-.02-.36.02-.35.02q-.16 0-.16-.15 0-.72.07-2.17t.07-2.17q0-.76-.07-2.28-.07-1.53-.07-2.3 0-.14.16-.14l.36.02.37.02.37-.02.37-.02q.15 0 .15.12 0 .56-.05 1.7-.05 1.13-.05 1.7 0 .18.14.22.16.05 2.3.05 2.1 0 2.3-.05.16-.04.16-.29 0-.55-.04-1.66-.04-1.1-.04-1.66 0-.13.16-.13l.36.02.36.02.36-.02.35-.02q.17 0 .17.15 0 .76-.06 2.29-.07 1.52-.07 2.28 0 .72.07 2.17.08 1.45.08 2.17zM336.3 195.95q0 1.38-.9 2.35-.91 1-2.27 1-1.37 0-2.29-1-.9-.96-.9-2.33 0-1.38.9-2.34.93-.98 2.29-.98 1.35 0 2.27.98.9.96.9 2.32zm-1.38.02q0-.8-.5-1.37-.5-.6-1.3-.6-.78 0-1.3.6-.49.57-.49 1.37 0 .78.5 1.36.52.61 1.3.61t1.3-.6q.5-.59.5-1.37zM343.3 193.2l-.03 1.45q-.04.96-.04 1.45l.03 1.44q.03.95.03 1.43 0 .13-.13.17l-1.33.01q-.08 0-.1-.5 0-.48-.07-.48-.03 0-.1.05-1.1.96-2.16.96-1.45 0-1.92-1.05-.29-.65-.29-2.34 0-1.52.24-2.58.06-.26.22-.26l.57.01h.57q.13 0 .13.15 0 .26-.08.86-.1.63-.1.9-.02.39-.02.86 0 1.15.17 1.54.28.71 1.25.71.41 0 .98-.4.6-.43.61-.83.04-.49.04-3.46 0-.32.27-.32h1.08q.19 0 .19.23zM350.96 190q0 .84-.08 2.53-.08 1.7-.08 2.53 0 2.6.12 3.93v.08q.01.07-.17.09h-.36l-.25-.02-.3.02-.28.02q-.1 0-.11-.46-.02-.46-.05-.46l-.1.08q-.9.97-2.07.97-1.32 0-2.17-1-.81-.96-.81-2.3 0-1.4.81-2.35.86-1 2.23-1 .82 0 1.44.48l.56.5q.05-.02.05-.1v-2.12l-.02-.66-.02-.66q0-.16.1-.16.25 0 .73-.04t.71-.04q.12 0 .12.13zm-1.65 5.97q0-.8-.48-1.39-.52-.64-1.29-.64-.8 0-1.33.63-.5.6-.5 1.42 0 .79.52 1.37.53.62 1.31.62.79 0 1.3-.62.47-.59.47-1.4zM353.83 191.3q0 .8-.9.8-.91 0-.91-.8 0-.36.28-.6.26-.22.63-.22t.63.23q.27.23.27.59zm-.05 1.78q0 .5-.06 1.53-.06 1.02-.06 1.53l.02 1.43.02 1.43q0 .14-.12.14h-1.28q-.14 0-.14-.27l.02-1.36q.03-.91.03-1.37 0-.51-.08-1.54-.07-1.02-.07-1.53 0-.12.14-.12.11 0 .36.04l.37.03q.13 0 .37-.03.25-.04.37-.04.11 0 .11.13zM360.87 199.02q0 .14-.13.14h-.65l-.65-.01q-.12 0-.12-.2l.02-.97.02-.98v-.79l-.01-.78q0-.75-.22-1.06-.26-.37-.97-.37-.33 0-.91.37-.62.39-.62.69V199q0 .16-.12.16h-.63l-.63-.01q-.14 0-.14-.15l.01-1.56.02-1.56q0-1.4-.3-2.58l-.01-.09q0-.06.08-.09l.75-.12.74-.11q.04 0 .06.1.03.4.15.82.34-.27.9-.67.68-.42 1.33-.42 1.23 0 1.68.72.34.52.34 1.7l-.01.62-.01.63.01 1.31.02 1.32zM363.82 191.3q0 .8-.9.8-.91 0-.91-.8 0-.36.28-.6.26-.22.63-.22t.63.23q.27.23.27.59zm-.05 1.78q0 .5-.06 1.53-.06 1.02-.06 1.53l.02 1.43.02 1.43q0 .14-.12.14h-1.28q-.14 0-.14-.27l.02-1.36q.03-.91.03-1.37 0-.51-.08-1.54-.07-1.02-.07-1.53 0-.12.14-.12.11 0 .36.04l.37.03q.13 0 .37-.03.25-.04.37-.04.11 0 .11.13z" style="-inkscape-font-specification:&quot;Berlin Sans FB, Normal&quot;;font-variant-ligatures:normal;font-variant-caps:normal;font-variant-numeric:normal;font-variant-east-asian:normal" transform="matrix(.75068 0 0 .75068 71.93 -.34)"/></g></svg>