<svg width="2817" height="180" viewBox="0 0 745.33 47.63" xmlns:xlink="http://www.w3.org/1999/xlink" xmlns="http://www.w3.org/2000/svg"><defs><linearGradient xlink:href="#a" id="b" x1="23.201" y1="3.505" x2="22.741" y2="26.46" gradientUnits="userSpaceOnUse" gradientTransform="matrix(1.573 0 0 1.73278 -19.974 -2.401)"/><linearGradient id="a"><stop offset="0" stop-color="#d3d7cf"/><stop offset="1" stop-color="#fff"/></linearGradient></defs><rect width="745.22" height="47.61" x=".03" y=".01" fill="#1a1a1a" fill-rule="evenodd" rx="7.858" ry="7.94"/><path style="marker:none" d="M.807 1.15v30.398H12.99l-3.86 15.241 25.286-15.241h12.782V1.15Z" color="#000" overflow="visible" fill="url(#b)" fill-rule="evenodd" stroke="#2e3436" stroke-width="1.542" stroke-linejoin="round" transform="translate(6.8 10.63) scale(.61421)"/><path style="marker:none" d="M2.085 2.191v27.94h12.174l-2.946 13.847L33.93 30.13h11.913V2.191Z" color="#000" overflow="visible" fill="none" stroke="#fff" stroke-width="1.028" stroke-miterlimit="6" transform="translate(6.8 10.63) scale(.61421)"/><text xml:space="preserve" style="line-height:0%;-inkscape-font-specification:Tahoma;text-align:start" x="4.052" y="11.815" font-weight="400" font-size="15.608" font-family="Tahoma" letter-spacing="0" word-spacing="0" stroke-width="1.301" transform="translate(6.8 10.63) scale(.61421)"><tspan x="4.052" y="11.815" style="line-height:1.25"> </tspan></text><path style="line-height:1.25;-inkscape-font-specification:'Gill Sans Ultra Bold, Normal';font-variant-ligatures:normal;font-variant-position:normal;font-variant-caps:normal;font-variant-numeric:normal;font-variant-alternates:normal;font-variant-east-asian:normal;font-feature-settings:normal;font-variation-settings:normal;text-indent:0;text-align:start;text-decoration-line:none;text-decoration-style:solid;text-decoration-color:#000;text-transform:none;text-orientation:mixed;white-space:normal;shape-padding:0;shape-margin:0;inline-size:0;isolation:auto;mix-blend-mode:normal;solid-color:#000;solid-opacity:1" d="M17.64 20.46a7.867 7.867 0 0 0-.305.618l.004 6.968 1.148-.002h1.54c-.994-1.414-1.267-3.197-.919-4.856z" opacity=".7" fill="#1858d9" transform="translate(6.8 10.63) scale(.61421)"/><path style="line-height:1.25;-inkscape-font-specification:'Gill Sans Ultra Bold, Normal';font-variant-ligatures:normal;font-variant-position:normal;font-variant-caps:normal;font-variant-numeric:normal;font-variant-alternates:normal;font-variant-east-asian:normal;font-feature-settings:normal;font-variation-settings:normal;text-indent:0;text-align:start;text-decoration-line:none;text-decoration-style:solid;text-decoration-color:#000;text-transform:none;text-orientation:mixed;white-space:normal;shape-padding:0;shape-margin:0;inline-size:0;isolation:auto;mix-blend-mode:normal;solid-color:#000;solid-opacity:1" d="M25.469 20.702c-2.228.137-4.175 2.36-3.696 4.619.24 1.237 1.191 2.42 2.44 2.714l2.102.007c.464-.172 1.454-.747 1.507-1.441v-3.042c-.905-1.645-3.152-1.502-4.177-.256-1.015 1.402-.137 3.368 1.194 3.584.922.15 1.57-.097 1.991-.645.464-.636.505-1.354.19-1.927-.461-1.121-2.56-1.272-2.718.327.046.807.752 1.455 1.151 1.244.601-.128.483-.845.103-1.027-.446-.215-.575.046-.614-.278-.057-.439.332-.652 1.049-.499 1.024.524.653 1.94-.242 2.193a1.421 1.421 0 0 1-1.545-.454c-.414-.496-.392-1.27-.211-1.756.556-1.165 2.394-1.382 3.168-.259 1.055 1.246.123 3.307-1.443 3.527-1.727.378-3.356-1.41-2.97-3.097.3-1.88 2.685-2.767 4.31-2.081.34.124.65.324.78.42v-.569l.002-.696c-.172-.137-.346-.239-.694-.374a4.134 4.134 0 0 0-1.228-.232c-.15-.01-.3-.01-.45-.002z" fill="#1858d9" transform="translate(6.8 10.63) scale(.61421)"/><path style="line-height:1.25;-inkscape-font-specification:'Gill Sans Ultra Bold, Normal';font-variant-ligatures:normal;font-variant-position:normal;font-variant-caps:normal;font-variant-numeric:normal;font-variant-alternates:normal;font-variant-east-asian:normal;font-feature-settings:normal;font-variation-settings:normal;text-indent:0;text-align:start;text-decoration-line:none;text-decoration-style:solid;text-decoration-color:#000;text-transform:none;text-orientation:mixed;white-space:normal;shape-padding:0;shape-margin:0;inline-size:0;isolation:auto;mix-blend-mode:normal;solid-color:#000;solid-opacity:1" d="M27.823 27.298s-.276.285-.53.45c-.278.171-.546.29-.546.29l1.081-.003z" opacity=".7" fill="#1858d9" transform="translate(6.8 10.63) scale(.61421)"/><path fill="#1858d9" d="M25.539 18.353c-2.377.107-4.595 1.703-5.532 3.868l-.109 2.44-.341-.637c-.005.041-.012.082-.015.125a5.746 5.746 0 0 0 1.187 3.895h2.133c-1.906-1.315-2.29-4.221-.853-6.021 1.272-1.788 3.86-2.448 5.818-1.472.264-.007.745-.01 1.098-.014H30.8c-1.196-1.283-2.887-2.112-4.65-2.177a5.641 5.641 0 0 0-.609-.007z" color="#000" font-family="'Gill Sans Ultra Bold'" font-size="44.68" font-weight="400" letter-spacing="0" overflow="visible" paint-order="markers stroke fill" style="line-height:1.25;-inkscape-font-specification:'Gill Sans Ultra Bold, Normal';font-variant-ligatures:normal;font-variant-position:normal;font-variant-caps:normal;font-variant-numeric:normal;font-variant-alternates:normal;font-variant-east-asian:normal;font-feature-settings:normal;font-variation-settings:normal;text-indent:0;text-align:start;text-decoration-line:none;text-decoration-style:solid;text-decoration-color:#000;text-transform:none;text-orientation:mixed;white-space:normal;shape-padding:0;shape-margin:0;inline-size:0;isolation:auto;mix-blend-mode:normal;solid-color:#000;solid-opacity:1" word-spacing="0" transform="translate(6.8 10.63) scale(.61421)"/><path fill="#1858d9" d="M25.74 15.766a9.998 9.998 0 0 0-2.616.418l3.15 1.183-6.1 1.104-.107 2.41a6.082 6.082 0 0 1 .758-.931c2.143-2.33 5.903-2.858 8.61-1.22.883.491 2.051 1.805 2.232 1.805l2.832.002c-.005-.483-.791-1.355-1.296-1.879-1.787-1.774-4.259-2.801-6.767-2.883a9.508 9.508 0 0 0-.696-.009z" color="#000" font-family="'Gill Sans Ultra Bold'" font-size="44.68" font-weight="400" letter-spacing="0" overflow="visible" paint-order="markers stroke fill" style="line-height:1.25;-inkscape-font-specification:'Gill Sans Ultra Bold, Normal';font-variant-ligatures:normal;font-variant-position:normal;font-variant-caps:normal;font-variant-numeric:normal;font-variant-alternates:normal;font-variant-east-asian:normal;font-feature-settings:normal;font-variation-settings:normal;text-indent:0;text-align:start;text-decoration-line:none;text-decoration-style:solid;text-decoration-color:#000;text-transform:none;text-orientation:mixed;white-space:normal;shape-padding:0;shape-margin:0;inline-size:0;isolation:auto;mix-blend-mode:normal;solid-color:#000;solid-opacity:1" word-spacing="0" opacity=".7" transform="translate(6.8 10.63) scale(.61421)"/><path fill="#1858d9" d="M95.5 54.72a82.92 82.92 0 0 0-31.1 6.2l-1.8 13.3 7.33 2.76c10.63-5.1 22.72-7.1 34.44-5.04 16.14 2.51 30.88 11.95 40.46 25.1V70.7h-36.686a2.464 2.464 45 0 1-2.464-2.464V55.29a85.86 85.86 0 0 0-10.18-.57Z" color="#000" font-family="'Gill Sans Ultra Bold'" font-size="44.68" font-weight="400" letter-spacing="0" overflow="visible" paint-order="markers stroke fill" style="line-height:1.25;-inkscape-font-specification:'Gill Sans Ultra Bold, Normal';font-variant-ligatures:normal;font-variant-position:normal;font-variant-caps:normal;font-variant-numeric:normal;font-variant-alternates:normal;font-variant-east-asian:normal;font-feature-settings:normal;font-variation-settings:normal;text-indent:0;text-align:start;text-decoration-line:none;text-decoration-style:solid;text-decoration-color:#000;text-transform:none;text-orientation:mixed;white-space:normal;shape-padding:0;shape-margin:0;inline-size:0;isolation:auto;mix-blend-mode:normal;solid-color:#000;solid-opacity:1" word-spacing="0" transform="matrix(.1048 0 0 .1048 12.814 12.18)" opacity=".8"/><path fill="#1858d9" d="M96.74 25.85a111.7 111.7 0 0 0-52.52 13v27.48l.08.05c.65-.54 1.32-1.05 1.99-1.56l21.2-26.6-2.12 15.64a80.58 80.58 0 0 1 40.36-5.4l.002-.287a2.72 2.72 135.197 0 1 2.721-2.702l50.037.009c-.04-1.01-7.52-6.22-12.2-8.4a114.27 114.27 0 0 0-49.55-11.23Z" color="#000" font-family="'Gill Sans Ultra Bold'" font-size="44.68" font-weight="400" letter-spacing="0" overflow="visible" paint-order="markers stroke fill" style="line-height:1.25;-inkscape-font-specification:'Gill Sans Ultra Bold, Normal';font-variant-ligatures:normal;font-variant-position:normal;font-variant-caps:normal;font-variant-numeric:normal;font-variant-alternates:normal;font-variant-east-asian:normal;font-feature-settings:normal;font-variation-settings:normal;text-indent:0;text-align:start;text-decoration-line:none;text-decoration-style:solid;text-decoration-color:#000;text-transform:none;text-orientation:mixed;white-space:normal;shape-padding:0;shape-margin:0;inline-size:0;isolation:auto;mix-blend-mode:normal;solid-color:#000;solid-opacity:1" word-spacing="0" transform="matrix(.1048 0 0 .1048 12.814 12.18)" opacity=".9"/><path fill="#1858d9" d="M17.335 4.335v3.667c5.116-2.865 11.577-3.066 16.886-.597.905.41 1.776.894 2.61 1.436V4.333Z" color="#000" font-family="'Gill Sans Ultra Bold'" font-size="44.68" font-weight="400" letter-spacing="0" overflow="visible" paint-order="markers stroke fill" style="line-height:1.25;-inkscape-font-specification:'Gill Sans Ultra Bold, Normal';font-variant-ligatures:normal;font-variant-position:normal;font-variant-caps:normal;font-variant-numeric:normal;font-variant-alternates:normal;font-variant-east-asian:normal;font-feature-settings:normal;font-variation-settings:normal;text-indent:0;text-align:start;text-decoration-line:none;text-decoration-style:solid;text-decoration-color:#000;text-transform:none;text-orientation:mixed;white-space:normal;shape-padding:0;shape-margin:0;inline-size:0;isolation:auto;mix-blend-mode:normal;solid-color:#000;solid-opacity:1" word-spacing="0" transform="translate(6.8 10.63) scale(.61421)"/><path fill="none" stroke="#fff" stroke-linecap="round" stroke-linejoin="round" stroke-width=".54971795" d="M17.177 18.905v-5.889h11.992v4.217h-5.007v2.08h4.103v4.204h-4.08v4.622h-6.963Z"/><path fill="#fff" stroke="#000" stroke-width=".02886787" d="m14.359 17.72 3.151 1.446 2.269-2.821-.365 3.596 3.456 1.329-3.668.775-.188 3.457-1.798-3.045-3.574.953 2.515-2.693z"/><path fill="#1858d9" fill-rule="evenodd" d="M69.246 32.739 44.26 64.08 7.974 46.578a.506.506 131.166 0 0-.643.735L29.52 80.94 1.598 110.138a.47.47 59.139 0 0 .465.778L41 100.16l19.118 35.57a.479.479 167.158 0 0 .9-.205L62.83 95.18l39.73-7.189a.481.481 95.136 0 0 .084-.924L97.31 85.07l-32.47-12.2 5.404-39.704a.563.563 23.157 0 0-.998-.427ZM64.46 45.32l-4.11 30.25 28.58 10.72-30.04 5.44-1.36 30.5-14.46-26.9-29.43 8.13 21.1-22.05-16.8-25.48L45.42 69.2Z" color="#000" font-family="sans-serif" font-weight="400" overflow="visible" style="line-height:normal;font-variant-ligatures:normal;font-variant-position:normal;font-variant-caps:normal;font-variant-numeric:normal;font-variant-alternates:normal;font-variant-east-asian:normal;font-feature-settings:normal;font-variation-settings:normal;text-indent:0;text-align:start;text-decoration-line:none;text-decoration-style:solid;text-decoration-color:#000;text-transform:none;text-orientation:mixed;white-space:normal;shape-padding:0;shape-margin:0;inline-size:0;isolation:auto;mix-blend-mode:normal;solid-color:#000;solid-opacity:1" transform="matrix(.1048 0 0 .1048 12.814 12.18)"/><path fill="#fff" fill-rule="evenodd" d="M22.576 26.16a.112.112 0 0 1-.112.113.112.112 0 0 1-.112-.112.112.112 0 0 1 .112-.113.112.112 0 0 1 .112.113"/><path d="M41.97 33.413V16.881h4.381v1.945H44.32v12.643h2.032v1.944zm11.807-3.634h-2.473v-9.317q-1.354 1.267-3.193 1.874v-2.243q.968-.317 2.102-1.197 1.135-.889 1.558-2.068h2.006zm12.07-9.74-2.392.265q-.088-.74-.458-1.091-.37-.352-.959-.352-.783 0-1.328.704-.537.704-.678 2.93.924-1.091 2.297-1.091 1.548 0 2.648 1.178 1.108 1.18 1.108 3.045 0 1.98-1.16 3.176-1.162 1.196-2.984 1.196-1.953 0-3.21-1.513-1.259-1.522-1.259-4.98 0-3.545 1.31-5.111 1.312-1.567 3.406-1.567 1.47 0 2.428.828.968.818 1.232 2.384zm-5.604 5.394q0 1.205.555 1.865.554.651 1.267.651.686 0 1.143-.536.458-.537.458-1.76 0-1.258-.493-1.839-.492-.59-1.232-.59-.712 0-1.205.564-.493.554-.493 1.645zm11.2-8.552v16.532h-4.381V31.47h2.032v-12.66h-2.032V16.88zm2.517 10.426h2.472v1.769q0 1.073-.185 1.689-.184.624-.704 1.117-.51.493-1.302.774l-.484-1.02q.748-.247 1.065-.678.317-.43.334-1.179H73.96Zm10.065 6.106V16.881h4.381v1.945h-2.032v12.643h2.032v1.944zm4.716-3.634 4.408-6.73-3.995-6.168h3.044l2.587 4.144 2.534-4.144h3.018l-4.012 6.265 4.408 6.633h-3.141l-2.86-4.46-2.868 4.46zm17.596-9.343v1.97h-1.69v3.766q0 1.144.045 1.337.053.185.22.308.176.124.422.124.343 0 .994-.238l.212 1.918q-.863.37-1.954.37-.668 0-1.205-.22-.537-.23-.792-.581-.246-.36-.343-.968-.08-.431-.08-1.742v-4.073h-1.134v-1.971h1.135v-1.857l2.48-1.443v3.3zm5.138-3.555v16.532h-4.381V31.47h2.032v-12.66h-2.032V16.88zm2.517 10.426h2.472v1.769q0 1.073-.185 1.689-.185.624-.704 1.117-.51.493-1.302.774l-.484-1.02q.748-.247 1.065-.678.317-.43.334-1.179h-1.196zm10.1 2.472V16.881h5.481q2.068 0 3 .352.942.343 1.505 1.232t.563 2.032q0 1.452-.853 2.402-.854.942-2.552 1.188.845.493 1.39 1.082.554.59 1.487 2.094l1.575 2.516h-3.115l-1.882-2.806q-1.003-1.505-1.373-1.892-.37-.396-.783-.537-.414-.15-1.31-.15h-.529v5.385zm2.604-7.443h1.927q1.874 0 2.34-.158.467-.159.73-.546.265-.387.265-.968 0-.65-.352-1.046-.344-.405-.977-.51-.317-.045-1.9-.045h-2.033zm10.32 7.443V16.881h2.605V29.78zm5.086 0V16.881h4.179q2.375 0 3.097.194 1.109.29 1.856 1.267.748.968.748 2.507 0 1.188-.43 1.997-.432.81-1.1 1.276-.66.458-1.347.607-.932.185-2.7.185h-1.699v4.865zm2.604-10.716v3.66h1.425q1.54 0 2.06-.202.518-.202.809-.634.299-.43.299-1.003 0-.703-.414-1.16-.413-.458-1.047-.573-.466-.088-1.874-.088zm7.012 8.244h2.473v1.769q0 1.073-.185 1.689-.185.624-.704 1.117-.51.493-1.302.774l-.484-1.02q.748-.247 1.064-.678.317-.43.335-1.179h-1.197zm10.11 2.472V16.881h8.842v2.182h-6.238v3.053h5.384v2.182h-5.384v5.481zm10.355-3.422 2.393-.29q.114.915.616 1.398.501.484 1.214.484.765 0 1.285-.58.527-.581.527-1.566 0-.933-.501-1.478-.502-.546-1.223-.546-.475 0-1.135.185l.273-2.015q1.003.026 1.53-.431.529-.466.529-1.232 0-.65-.388-1.038-.387-.387-1.029-.387-.633 0-1.082.44-.449.44-.546 1.284l-2.278-.387q.237-1.17.712-1.865.484-.704 1.338-1.1.862-.405 1.926-.405 1.822 0 2.921 1.162.907.95.907 2.147 0 1.698-1.857 2.71 1.109.237 1.769 1.064.668.827.668 1.997 0 1.698-1.24 2.895-1.24 1.196-3.088 1.196-1.751 0-2.904-1.003-1.152-1.011-1.337-2.64zm18.907-1.32 2.525.8q-.58 2.112-1.935 3.142-1.346 1.02-3.423 1.02-2.569 0-4.223-1.75-1.654-1.76-1.654-4.804 0-3.22 1.663-4.998 1.663-1.786 4.373-1.786 2.366 0 3.844 1.4.88.826 1.32 2.375l-2.578.616q-.229-1.003-.959-1.584-.721-.58-1.76-.58-1.434 0-2.331 1.029-.889 1.029-.889 3.334 0 2.446.88 3.484.88 1.038 2.288 1.038 1.038 0 1.786-.66t1.073-2.076zm4.68 2.27h2.473v1.769q0 1.073-.185 1.689-.184.624-.704 1.117-.51.493-1.302.774l-.484-1.02q.748-.247 1.065-.678.317-.43.334-1.179h-1.196zm10.057 2.472V16.881h3.898l2.34 8.798 2.314-8.798h3.906V29.78h-2.42V19.626l-2.56 10.153h-2.507l-2.551-10.153V29.78zm15.054-12.898h5.156q1.53 0 2.278.132.757.123 1.346.528.599.405.995 1.082.396.669.396 1.505 0 .906-.493 1.663-.484.756-1.32 1.135 1.18.343 1.813 1.17t.633 1.944q0 .88-.413 1.716-.405.827-1.118 1.328-.704.493-1.742.607-.651.07-3.14.088h-4.391zm2.604 2.147v2.983h1.707q1.522 0 1.892-.044.668-.08 1.047-.458.387-.387.387-1.012 0-.598-.335-.967-.325-.379-.976-.458-.387-.044-2.226-.044zm0 5.13v3.448h2.41q1.409 0 1.787-.079.58-.105.941-.51.37-.414.37-1.1 0-.58-.282-.985-.281-.405-.818-.59-.528-.185-2.305-.185zm10.32 3.15h2.473v1.768q0 1.073-.185 1.689-.185.624-.704 1.117-.51.493-1.302.774l-.484-1.02q.748-.247 1.065-.678.316-.43.334-1.179h-1.197zm10.937-4.497-1.329-1.03q.633-.712 1.32-1.363l.343-.334q-.22-.035-1.258-.29-.748-.185-.986-.273l.52-1.549q1.152.467 2.058 1.03-.21-1.434-.21-2.34h1.565q0 .642-.237 2.357.176-.07.756-.343.792-.36 1.46-.616l.467 1.593q-.977.22-2.261.43l1.056 1.189q.316.36.501.589l-1.346.889-1.188-1.962q-.536.95-1.231 2.023zm10.25 10.76h-1.699q-1.346-2.032-2.05-4.223-.703-2.19-.703-4.24 0-2.543.87-4.813.757-1.97 1.919-3.634h1.689q-1.206 2.666-1.663 4.54-.449 1.865-.449 3.96 0 1.442.264 2.956.273 1.513.74 2.877.307.897 1.081 2.577zm7.698-3.792h-2.472v-9.317q-1.355 1.267-3.194 1.874v-2.243q.968-.317 2.103-1.197 1.135-.889 1.557-2.068h2.006zm3.537 3.792q.73-1.566 1.03-2.401.298-.836.553-1.927.256-1.091.379-2.068.123-.985.123-2.015 0-2.094-.449-3.959-.449-1.874-1.654-4.54h1.68q1.33 1.892 2.06 4.012.738 2.12.738 4.303 0 1.838-.58 3.941-.66 2.358-2.173 4.654zm6.678-.158V16.881h4.381v1.945h-2.032v12.643h2.032v1.944zm4.927-12.977h1.372v-.704q0-1.18.246-1.76.256-.58.924-.941.678-.37 1.707-.37 1.056 0 2.068.317l-.335 1.724q-.59-.14-1.135-.14-.536 0-.774.255-.229.246-.229.959v.66h1.848v1.944h-1.848v7.4h-2.472v-7.4h-1.372zm7.082 9.343V16.881h2.472V29.78zm11.156 0v-1.398q-.51.747-1.346 1.178-.827.432-1.75.432-.942 0-1.69-.414-.748-.413-1.082-1.161-.335-.748-.335-2.068v-5.912h2.473v4.293q0 1.971.132 2.42.14.44.501.704.361.255.915.255.634 0 1.135-.343.502-.352.686-.863.185-.519.185-2.525v-3.941h2.473v9.343zm3.67 0 3.369-4.812-3.23-4.531h3.019l1.654 2.569 1.742-2.57h2.903l-3.167 4.426 3.457 4.918h-3.035l-1.9-2.894-1.918 2.894zm14.63-12.898v16.532h-4.381V31.47h2.032v-12.66h-2.032V16.88zm3.053 6.027v-2.472h2.473v2.472zm0 6.871v-2.472h2.473v2.472zm5.526 0V16.881h2.472V29.78zm5.006-10.61V16.88h2.472v2.288zm0 10.61v-9.343h2.472v9.343zm13.505 0h-2.472v-4.768q0-1.513-.159-1.953-.158-.45-.519-.695-.352-.247-.853-.247-.642 0-1.153.352-.51.352-.704.933-.184.58-.184 2.146v4.232h-2.473v-9.343h2.297v1.372q1.223-1.583 3.08-1.583.817 0 1.495.299.677.29 1.02.748.352.457.484 1.038.141.58.141 1.663zm7.918-2.973 2.464.413q-.475 1.355-1.505 2.068-1.02.704-2.56.704-2.437 0-3.607-1.593-.924-1.276-.924-3.22 0-2.323 1.214-3.634 1.214-1.32 3.07-1.32 2.086 0 3.291 1.382 1.206 1.372 1.153 4.214h-6.194q.026 1.1.598 1.716.572.607 1.426.607.58 0 .976-.317t.598-1.02zm.141-2.5q-.026-1.072-.554-1.627-.528-.563-1.285-.563-.809 0-1.337.59-.528.59-.519 1.6zm6.317-1.02-2.243-.404q.378-1.355 1.302-2.006.924-.651 2.745-.651 1.654 0 2.463.395.81.388 1.135.995.335.598.335 2.208l-.027 2.886q0 1.232.115 1.821.123.58.448 1.25h-2.445q-.097-.247-.238-.73-.062-.22-.088-.291-.634.616-1.355.924-.721.308-1.54.308-1.443 0-2.278-.783-.827-.784-.827-1.98 0-.792.378-1.408.378-.624 1.056-.95.686-.334 1.97-.58 1.734-.326 2.402-.608v-.246q0-.713-.352-1.012-.351-.308-1.328-.308-.66 0-1.03.264-.369.255-.598.906zm3.308 2.006q-.475.159-1.504.379-1.03.22-1.346.43-.484.344-.484.872 0 .519.387.897.387.379.985.379.67 0 1.276-.44.449-.335.59-.819.096-.316.096-1.205zm7.233 4.487h-2.473v-9.343h2.297v1.328q.59-.941 1.055-1.24.475-.3 1.074-.3.844 0 1.627.467l-.765 2.155q-.625-.404-1.161-.404-.52 0-.88.29-.36.282-.572 1.03-.202.747-.202 3.132zm5.12-6.871v-2.472h2.472v2.472zm0 6.871v-2.472h2.472v2.472zm6-6.871v-2.472h2.473v2.472zm0 6.871v-2.472h2.473v2.472zm6-6.871v-2.472h2.473v2.472zm0 6.871v-2.472h2.473v2.472zm6.001-6.871v-2.472h2.473v2.472zm0 6.871v-2.472h2.473v2.472zm5.517 3.634V16.881h4.381v1.945h-2.032v12.643h2.032v1.944zm5.824-12.977h2.279v1.275q1.223-1.486 2.912-1.486.897 0 1.557.37.66.369 1.082 1.116.616-.747 1.329-1.117t1.522-.37q1.03 0 1.742.423.713.413 1.065 1.223.255.598.255 1.935v5.974h-2.472v-5.34q0-1.39-.256-1.795-.343-.528-1.055-.528-.52 0-.977.317-.457.317-.66.933-.202.607-.202 1.926v4.487h-2.472v-5.12q0-1.364-.132-1.76-.132-.396-.414-.59-.273-.193-.748-.193-.572 0-1.03.308-.457.308-.66.889-.193.58-.193 1.927v4.54h-2.472zm15.634 4.54q0-1.232.608-2.385.607-1.152 1.715-1.76 1.118-.606 2.49-.606 2.12 0 3.475 1.38 1.355 1.373 1.355 3.476 0 2.12-1.372 3.52-1.364 1.39-3.44 1.39-1.285 0-2.455-.581-1.161-.58-1.768-1.698-.608-1.126-.608-2.736zm2.534.132q0 1.39.66 2.129.66.739 1.628.739.968 0 1.619-.74.66-.738.66-2.146 0-1.373-.66-2.112-.651-.739-1.62-.739-.967 0-1.627.74-.66.738-.66 2.129zm8.94 4.671V16.881h2.472v4.646q1.143-1.302 2.71-1.302 1.706 0 2.824 1.24 1.117 1.232 1.117 3.546 0 2.393-1.144 3.686-1.135 1.294-2.762 1.294-.801 0-1.584-.396-.774-.405-1.337-1.188v1.372zm2.454-4.874q0 1.452.458 2.147.642.985 1.706.985.819 0 1.39-.695.581-.704.581-2.208 0-1.601-.58-2.305-.581-.713-1.487-.713-.889 0-1.479.695-.589.687-.589 2.094zm8.657-5.736V16.88h2.473v2.288zm0 10.61v-9.343h2.473v9.343zm11.157 0v-1.398q-.51.747-1.347 1.178-.827.432-1.75.432-.942 0-1.69-.414-.748-.413-1.082-1.161-.334-.748-.334-2.068v-5.912h2.472v4.293q0 1.971.132 2.42.14.44.502.704.36.255.915.255.633 0 1.135-.343.501-.352.686-.863.185-.519.185-2.525v-3.941h2.472v9.343zm3.985-2.665 2.481-.379q.159.722.642 1.1.484.37 1.355.37.96 0 1.443-.352.326-.247.326-.66 0-.282-.176-.467-.185-.176-.827-.325-2.992-.66-3.792-1.205-1.109-.757-1.109-2.103 0-1.214.96-2.041.958-.827 2.973-.827 1.918 0 2.85.624.933.625 1.285 1.848l-2.331.431q-.15-.546-.572-.836-.414-.29-1.188-.29-.977 0-1.399.273-.281.193-.281.501 0 .264.246.449.334.246 2.305.695 1.98.449 2.763 1.1.774.66.774 1.838 0 1.285-1.073 2.209-1.074.924-3.177.924-1.909 0-3.026-.775-1.109-.774-1.452-2.102zm14.315-10.233v16.532h-4.382V31.47h2.033v-12.66h-2.033V16.88zm3.053 6.027v-2.472h2.472v2.472zm0 6.871v-2.472h2.472v2.472zm9.176-12.95q1.874 0 2.93 1.337 1.258 1.583 1.258 5.252 0 3.66-1.267 5.262-1.047 1.32-2.92 1.32-1.884 0-3.036-1.444-1.153-1.451-1.153-5.164 0-3.643 1.267-5.244 1.047-1.32 2.921-1.32zm0 2.05q-.448 0-.8.29-.352.281-.546 1.02-.255.96-.255 3.23t.229 3.123q.228.844.572 1.126.352.281.8.281.449 0 .8-.281.353-.29.546-1.03.256-.95.256-3.22 0-2.27-.23-3.114-.228-.854-.58-1.135-.343-.29-.792-.29zm6.37 10.9v-2.472h2.472v2.472zm4.514-3.317 2.463-.255q.106.836.625 1.329.519.484 1.196.484.775 0 1.311-.625.537-.633.537-1.9 0-1.188-.537-1.778-.528-.598-1.381-.598-1.065 0-1.91.942l-2.005-.29 1.267-6.714h6.537v2.314h-4.663l-.387 2.19q.827-.413 1.689-.413 1.645 0 2.789 1.197 1.144 1.196 1.144 3.106 0 1.592-.924 2.842-1.258 1.706-3.493 1.706-1.786 0-2.912-.959t-1.346-2.578zm10.452.845h2.472v1.769q0 1.073-.185 1.689-.184.624-.703 1.117-.51.493-1.303.774l-.483-1.02q.747-.247 1.064-.678.317-.43.334-1.179h-1.196zm10.065 6.106V16.881h4.382v1.945h-2.033v12.643h2.033v1.944zm6.044-3.634V16.881h8.843v2.182h-6.238v3.053h5.384v2.182h-5.384v5.481zm11.06 0V16.987h2.604v10.62h6.475v2.172zm10.918-12.898h2.605v6.986q0 1.663.096 2.156.167.791.792 1.275.634.475 1.725.475 1.108 0 1.671-.448.563-.458.678-1.118.114-.66.114-2.19V16.88h2.604v6.775q0 2.323-.21 3.282-.212.959-.784 1.618-.563.66-1.513 1.056-.95.387-2.481.387-1.848 0-2.807-.422-.95-.431-1.504-1.109-.555-.686-.73-1.434-.256-1.108-.256-3.273zm11.72 12.898 4.407-6.73-3.994-6.168h3.044l2.587 4.144 2.534-4.144h3.017l-4.011 6.265 4.407 6.633h-3.14l-2.86-4.46-2.868 4.46zm16.734-12.898v16.532h-4.382V31.47h2.032v-12.66h-2.032V16.88zm3.053 6.027v-2.472h2.472v2.472zm0 6.871v-2.472h2.472v2.472zm5.613 0V16.987h2.604v10.62h6.476v2.172zm10.857 0V16.881h2.604V29.78zm5.112 0V16.881h2.533l5.28 8.614V16.88h2.419V29.78h-2.613l-5.2-8.41v8.41zm12.986 0V16.881h9.563v2.182h-6.959v2.86h6.475v2.173h-6.475v3.51h7.206v2.173zm23.65 0h-2.834l-1.126-2.93h-5.156l-1.064 2.93h-2.763l5.024-12.898h2.754zm-4.796-5.103-1.777-4.786-1.742 4.786zm6.185 5.103V16.881h5.482q2.067 0 3 .352.941.343 1.504 1.232.563.889.563 2.032 0 1.452-.853 2.402-.853.942-2.552 1.188.845.493 1.39 1.082.555.59 1.487 2.094l1.575 2.516h-3.114l-1.883-2.806q-1.003-1.505-1.373-1.892-.37-.396-.783-.537-.413-.15-1.31-.15h-.528v5.385zm2.605-7.443h1.926q1.874 0 2.34-.158.467-.159.731-.546.264-.387.264-.968 0-.65-.352-1.046-.343-.405-.977-.51-.316-.045-1.9-.045h-2.032zm10.857.572v-2.472h2.472v2.472zm0 6.871v-2.472h2.472v2.472zm6-6.871v-2.472h2.472v2.472zm0 6.871v-2.472h2.472v2.472zm5.516 3.634V16.881h4.382v1.945h-2.032v12.643h2.032v1.944zm5.992-3.634V16.881h3.898l2.34 8.798 2.314-8.798h3.906V29.78h-2.42V19.626l-2.56 10.153h-2.507l-2.551-10.153V29.78zm14.517-6.37q0-1.97.59-3.308.44-.985 1.196-1.768.765-.783 1.672-1.161 1.205-.51 2.78-.51 2.85 0 4.557 1.768 1.716 1.768 1.716 4.918 0 3.123-1.698 4.892-1.698 1.76-4.54 1.76-2.877 0-4.575-1.751-1.698-1.76-1.698-4.84zm2.683-.087q0 2.19 1.012 3.325 1.012 1.126 2.57 1.126 1.557 0 2.55-1.117 1.004-1.126 1.004-3.37 0-2.217-.977-3.308-.968-1.09-2.578-1.09-1.61 0-2.595 1.108-.986 1.1-.986 3.326zm11.87-6.44h5.155q1.53 0 2.279.131.756.123 1.346.528.598.405.994 1.082.396.669.396 1.505 0 .906-.493 1.663-.484.756-1.32 1.135 1.18.343 1.813 1.17t.633 1.944q0 .88-.413 1.716-.405.827-1.117 1.328-.704.493-1.743.607-.65.07-3.14.088h-4.39zm2.603 2.146v2.983h1.707q1.522 0 1.892-.044.669-.08 1.047-.458.387-.387.387-1.012 0-.598-.334-.967-.326-.379-.977-.458-.387-.044-2.226-.044zm0 5.13v3.448h2.411q1.408 0 1.786-.079.58-.105.942-.51.37-.414.37-1.1 0-.58-.282-.985t-.819-.59q-.528-.185-2.305-.185zm10.32 5.621V16.881h2.605V29.78zm5.069-12.898h2.604v6.986q0 1.663.097 2.156.167.791.791 1.275.634.475 1.725.475 1.108 0 1.672-.448.563-.458.677-1.118.114-.66.114-2.19V16.88h2.605v6.775q0 2.323-.212 3.282-.21.959-.783 1.618-.563.66-1.513 1.056-.95.387-2.48.387-1.849 0-2.808-.422-.95-.431-1.504-1.109-.554-.686-.73-1.434-.255-1.108-.255-3.273zm12.37 8.702 2.534-.247q.228 1.276.923 1.874.704.599 1.892.599 1.258 0 1.892-.528.642-.537.642-1.25 0-.457-.273-.774-.264-.325-.932-.563-.458-.158-2.086-.563-2.094-.52-2.938-1.276-1.188-1.064-1.188-2.595 0-.986.554-1.84.563-.861 1.61-1.31 1.056-.449 2.543-.449 2.428 0 3.651 1.065 1.232 1.064 1.294 2.842l-2.605.114q-.167-.994-.721-1.425-.545-.44-1.645-.44-1.135 0-1.778.466-.413.3-.413.8 0 .458.387.784.493.413 2.393.862t2.807.933q.915.475 1.425 1.31.52.828.52 2.05 0 1.11-.617 2.077-.616.968-1.742 1.443-1.126.466-2.806.466-2.446 0-3.757-1.126-1.311-1.135-1.566-3.3zm16.083-8.702v16.532h-4.382V31.47h2.033v-12.66h-2.033V16.88z" style="-inkscape-font-specification:'Arial, Bold'" aria-label="[16], [Xt], RIP, F3C, MB, *(1)[flux]:linear::::[mobius]:0.5, [FLUX]:LINEAR::[MOBIUS]" font-weight="700" font-size="18.019" font-family="Arial" opacity=".8" fill="#fff" paint-order="stroke fill markers"/></svg>