<svg xmlns="http://www.w3.org/2000/svg" width="600" height="600" viewBox="0 0 158.75 158.75"><defs><linearGradient id="r"><stop offset="0" stop-color="#9db6ff"/><stop offset="1" stop-color="#9db6ff" stop-opacity=".49"/></linearGradient><linearGradient id="q"><stop offset="0" stop-color="#abffe6"/><stop offset="1" stop-color="#81ffda" stop-opacity=".51"/></linearGradient><linearGradient id="p"><stop offset="0" stop-color="#ffe9a8"/><stop offset="1" stop-color="#ffe28d" stop-opacity=".49"/></linearGradient><linearGradient id="o"><stop offset="0" stop-color="#ffb4b4"/><stop offset="1" stop-color="#ff9797" stop-opacity=".5"/></linearGradient><linearGradient id="n"><stop offset="0" stop-color="#ffaeef"/><stop offset="1" stop-color="#ff81e7" stop-opacity=".46"/></linearGradient><linearGradient id="m"><stop offset="0" stop-color="#ffd887"/><stop offset="1" stop-color="#ffd378" stop-opacity=".5"/></linearGradient><linearGradient id="l"><stop offset="0" stop-color="#fff3a5"/><stop offset="1" stop-color="#fff3a5" stop-opacity=".48"/></linearGradient><linearGradient id="k"><stop offset="0" stop-color="#85ffe6"/><stop offset="1" stop-color="#85ffe6" stop-opacity=".48"/></linearGradient><linearGradient id="j"><stop offset="0" stop-color="#c9ffd4"/><stop offset="1" stop-color="#a9ffba" stop-opacity=".5"/></linearGradient><linearGradient id="i"><stop offset="0" stop-color="#0f0"/><stop offset="1" stop-color="#0f0" stop-opacity="0"/></linearGradient><linearGradient id="h"><stop offset="0" stop-color="#00ffd0"/><stop offset="1" stop-color="#00ffd0" stop-opacity="0"/></linearGradient><linearGradient id="g"><stop offset="0" stop-color="#ffe600"/><stop offset="1" stop-color="#ffe600" stop-opacity="0"/></linearGradient><linearGradient id="f"><stop offset="0" stop-color="#ff00eb"/><stop offset="1" stop-color="#ff00eb" stop-opacity="0"/></linearGradient><linearGradient id="e"><stop offset="0" stop-color="#ffa425"/><stop offset="1" stop-color="#ffa425" stop-opacity="0"/></linearGradient><linearGradient id="d"><stop offset="0" stop-color="#00f"/><stop offset="1" stop-color="#00f" stop-opacity="0"/></linearGradient><linearGradient id="c"><stop offset="0" stop-color="#00ffac"/><stop offset="1" stop-color="#00ffac" stop-opacity="0"/></linearGradient><linearGradient id="b"><stop offset="0" stop-color="#ffeb00"/><stop offset="1" stop-color="#ffeb00" stop-opacity="0"/></linearGradient><linearGradient id="a"><stop offset="0" stop-color="red"/><stop offset="1" stop-color="red" stop-opacity="0"/></linearGradient></defs><path d="M45.27 14.82v20.65c28.83-16.14 65.23-17.28 95.15-3.37 5.1 2.32 10.02 5.04 14.71 8.1V14.81Zm50.5 14.64a107.4 107.4 0 0 0-50.5 12.52v26.4l.08.05c.63-.52 1.27-1 1.91-1.5l20.39-25.56L65.6 56.4a77.47 77.47 0 0 1 38.8-5.2l.02-2.87 50.7.01c-.04-.97-7.22-5.98-11.72-8.08a109.86 109.86 0 0 0-47.64-10.8Zm-1.2 27.77a79.72 79.72 0 0 0-29.9 5.96l-1.73 12.79L70 78.62c10.22-4.9 21.85-6.82 33.12-4.84 15.51 2.41 29.68 11.5 38.89 24.13V72.59h-37.64V57.77a82.54 82.54 0 0 0-9.79-.54zm-1.94 22c-4.97.12-9.95.93-14.74 2.35l17.75 6.66-34.36 6.23-.62 13.58a34.27 34.27 0 0 1 4.28-5.24C77 89.68 98.2 86.7 113.46 95.93c4.97 2.77 11.55 10.17 12.57 10.17l15.97.02c-.04-2.73-4.47-7.64-7.32-10.6-10.06-9.98-24-15.78-38.13-16.24-1.3-.06-2.61-.08-3.92-.05zM91.5 93.81c-13.39.6-25.9 9.59-31.17 21.79l-.62 13.75-1.93-3.59c-.01.24-.06.47-.07.7a32.38 32.38 0 0 0 6.68 21.95h12.03c-10.74-7.41-12.9-23.78-4.82-33.92 7.18-10.08 21.76-13.8 32.8-8.3 1.48-.04 4.2-.06 6.18-.07h10.56c-6.74-7.24-16.26-11.91-26.2-12.28-1.15-.07-2.3-.08-3.43-.03zM47 105.68a44.33 44.33 0 0 0-1.72 3.48l.02 39.26 6.48-.01h8.67c-5.6-7.96-7.14-18.02-5.19-27.36zm44.11 1.36c-12.55.77-23.52 13.3-20.82 26.03 1.36 6.97 6.72 13.64 13.74 15.3l11.86.03c2.6-.97 8.19-4.2 8.48-8.12v-17.14c-5.1-9.27-17.75-8.46-23.53-1.45-5.73 7.91-.77 18.98 6.74 20.2 5.18.86 8.84-.54 11.2-3.63 2.62-3.59 2.86-7.63 1.08-10.86-2.6-6.31-14.43-7.17-15.32 1.85.26 4.54 4.24 8.19 6.5 7 3.37-.72 2.71-4.76.57-5.79-2.52-1.21-3.24.26-3.47-1.56-.31-2.47 1.88-3.68 5.92-2.8 5.76 2.94 3.67 10.92-1.36 12.34a8 8 0 0 1-8.7-2.55c-2.34-2.8-2.23-7.15-1.2-9.9 3.13-6.56 13.49-7.79 17.85-1.46 5.94 7.02.7 18.64-8.13 19.87-9.73 2.13-18.91-7.94-16.74-17.45 1.7-10.59 15.14-15.59 24.29-11.73 1.92.7 3.66 1.83 4.4 2.38v-3.2l.01-3.94a14.06 14.06 0 0 0-3.92-2.1 23.3 23.3 0 0 0-6.92-1.3c-.85-.06-1.69-.07-2.53-.02zm13.27 37.18s-1.56 1.6-2.99 2.53c-1.57.96-3.07 1.63-3.07 1.63l6.09-.01z" color="#000" font-family="Gill Sans Ultra Bold" font-size="44.68" font-weight="400" letter-spacing="0" overflow="visible" paint-order="markers stroke fill" style="line-height:1.25;-inkscape-font-specification:&quot;Gill Sans Ultra Bold, Normal&quot;;font-variant-ligatures:normal;font-variant-position:normal;font-variant-caps:normal;font-variant-numeric:normal;font-variant-alternates:normal;font-variant-east-asian:normal;font-feature-settings:normal;font-variation-settings:normal;text-indent:0;text-align:start;text-decoration-line:none;text-decoration-style:solid;text-decoration-color:#000;text-transform:none;text-orientation:mixed;white-space:normal;shape-padding:0;shape-margin:0;inline-size:0;isolation:auto;mix-blend-mode:normal;solid-color:#000;solid-opacity:1" word-spacing="0"/><path fill-rule="evenodd" d="M70.56 34.56 45.3 66.22 8.83 48.63l22.32 33.8-28 29.26L42.2 100.9l19.17 35.67 1.81-40.46 39.85-7.21-6.7-2.5-31.21-11.73zm-5.83 13.63-3.95 29.08 27.48 10.3-28.88 5.24-1.31 29.32-13.9-25.85-28.3 7.8 20.3-21.2L20 58.39l26.43 12.74z" color="#000" font-family="sans-serif" font-weight="400" overflow="visible" style="line-height:normal;font-variant-ligatures:normal;font-variant-position:normal;font-variant-caps:normal;font-variant-numeric:normal;font-variant-alternates:normal;font-variant-east-asian:normal;font-feature-settings:normal;font-variation-settings:normal;text-indent:0;text-align:start;text-decoration-line:none;text-decoration-style:solid;text-decoration-color:#000;text-transform:none;text-orientation:mixed;white-space:normal;shape-padding:0;shape-margin:0;inline-size:0;isolation:auto;mix-blend-mode:normal;solid-color:#000;solid-opacity:1"/><path fill="#fff" fill-rule="evenodd" d="M92.32 132.88a1.03 1.03 0 0 1-1.03 1.03 1.03 1.03 0 0 1-1.03-1.03 1.03 1.03 0 0 1 1.03-1.03 1.03 1.03 0 0 1 1.03 1.03"/></svg>